<?xml version="1.0" standalone="no"?>
<!DOCTYPE svg PUBLIC "-//W3C//DTD SVG 20010904//EN"
 "http://www.w3.org/TR/2001/REC-SVG-20010904/DTD/svg10.dtd">
<svg version="1.0" xmlns="http://www.w3.org/2000/svg"
 width="1024.000000pt" height="1024.000000pt" viewBox="0 0 1024.000000 1024.000000"
 preserveAspectRatio="xMidYMid meet">
<metadata>
Created by potrace 1.16, written by Peter Selinger 2001-2019
</metadata>
<g transform="translate(0.000000,1024.000000) scale(0.100000,-0.100000)"
fill="#000000" stroke="none">
<path d="M1736 9029 c-19 -18 -32 -45 -46 -99 -42 -163 -54 -277 -55 -505 0
-196 2 -230 22 -308 69 -270 248 -482 471 -559 94 -32 251 -32 335 1 120 47
221 188 248 344 15 91 6 236 -21 342 -25 100 -93 241 -154 322 -111 147 -319
303 -551 414 -154 74 -207 84 -249 48z m310 -453 c69 -50 177 -162 221 -226
91 -135 134 -269 136 -431 2 -120 -10 -149 -64 -149 -35 0 -135 53 -195 104
-96 81 -177 243 -204 408 -11 68 -14 297 -4 322 11 27 50 18 110 -28z"/>
<path d="M8365 9034 c-130 -48 -369 -191 -497 -298 -113 -94 -229 -247 -280
-369 -59 -139 -84 -341 -59 -473 42 -222 197 -364 397 -364 159 1 317 74 448
208 104 106 169 233 208 405 18 76 21 124 21 277 0 200 -10 295 -50 465 -37
159 -76 190 -188 149z m-65 -588 c0 -189 -19 -285 -78 -401 -65 -126 -239
-275 -322 -275 -52 0 -65 30 -64 149 1 160 44 294 142 439 47 68 216 232 264
255 54 26 58 15 58 -167z"/>
<path d="M3099 8984 c-58 -17 -122 -79 -145 -139 -39 -104 4 -230 99 -289 131
-81 298 -14 342 139 14 47 15 65 5 103 -24 96 -77 158 -162 188 -49 17 -79 17
-139 -2z"/>
<path d="M6986 8980 c-165 -65 -208 -272 -80 -390 56 -51 99 -70 161 -70 180
1 294 192 208 349 -33 61 -72 94 -134 116 -57 20 -95 18 -155 -5z"/>
<path d="M4773 8800 c-842 -128 -1604 -635 -2033 -1353 -115 -194 -221 -470
-262 -685 l-23 -119 -140 -35 c-775 -194 -1366 -745 -1589 -1482 -61 -200 -71
-274 -70 -531 0 -252 9 -325 65 -528 37 -133 72 -224 135 -349 51 -102 140
-244 185 -296 l29 -33 0 -235 c0 -199 3 -252 21 -337 63 -315 241 -650 474
-896 253 -266 664 -486 1070 -573 l110 -23 2330 -3 c2586 -3 2403 -7 2661 64
616 168 1070 553 1300 1100 103 247 134 406 134 696 l0 210 34 41 c157 192
301 533 358 847 28 154 30 468 5 610 -58 317 -195 641 -377 885 -321 433 -742
707 -1292 841 l-117 28 -12 56 c-107 534 -339 950 -751 1345 -418 402 -1009
683 -1593 759 -168 22 -492 20 -652 -4z m687 -469 c161 -28 337 -83 460 -144
l105 -52 5 -233 c5 -226 6 -234 27 -252 19 -15 51 -18 230 -23 238 -6 300 -19
438 -90 62 -32 102 -64 181 -142 174 -173 277 -357 360 -644 27 -93 54 -295
54 -402 0 -52 5 -73 23 -100 30 -45 71 -58 184 -58 238 -2 573 -112 811 -267
273 -178 499 -438 614 -707 32 -74 78 -204 78 -219 0 -4 -110 -8 -245 -8 -267
0 -296 -5 -328 -54 -27 -41 -31 -80 -12 -120 31 -64 42 -66 350 -66 l275 0 0
-68 0 -68 -227 4 c-249 5 -294 -1 -334 -44 -37 -39 -33 -105 10 -147 l31 -32
260 -3 260 -3 0 -22 c0 -36 -20 -149 -36 -204 l-15 -53 -199 0 c-261 0 -245
13 -237 -194 3 -83 3 -195 0 -249 l-6 -98 -161 2 c-89 0 -172 -4 -186 -9 -53
-21 -90 -80 -90 -144 0 -52 28 -101 72 -128 30 -18 51 -20 246 -20 l212 0 0
-109 c0 -60 -7 -143 -15 -183 -26 -123 -3 -111 -194 -106 -164 3 -168 4 -232
35 -50 25 -94 61 -185 151 -98 98 -132 125 -194 155 -41 21 -99 42 -129 47
-74 14 -1104 13 -1154 -1 -135 -37 -162 -190 -50 -276 l36 -28 536 -5 536 -5
57 -27 c42 -20 82 -52 150 -123 181 -189 349 -265 586 -265 l103 0 -21 -38
c-33 -59 -172 -224 -209 -249 -31 -21 -45 -23 -166 -23 -119 0 -135 -2 -159
-21 -25 -20 -26 -24 -26 -130 l0 -110 -54 -25 c-30 -14 -112 -47 -183 -73
l-128 -49 -5 162 c-6 179 -13 201 -75 230 -44 21 -83 20 -123 -4 -53 -32 -62
-68 -62 -244 0 -131 -2 -155 -16 -160 -9 -3 -92 -6 -185 -6 l-169 0 0 160 c0
176 -9 216 -54 245 -58 38 -133 28 -181 -25 -18 -20 -21 -40 -25 -199 l-5
-176 -177 -3 c-202 -3 -182 -14 -178 96 1 34 -1 106 -5 160 -7 91 -10 99 -40
129 -57 57 -137 54 -190 -9 -21 -25 -25 -40 -25 -97 0 -37 -3 -116 -7 -175
l-6 -106 -171 2 -171 3 -5 165 c-6 183 -11 202 -73 241 -43 27 -144 23 -184
-7 -50 -37 -57 -66 -61 -236 l-4 -157 -32 -6 c-17 -3 -96 -5 -176 -3 l-145 3
-5 170 c-5 185 -10 203 -63 235 -38 24 -75 25 -122 6 -56 -24 -65 -54 -65
-230 0 -85 -3 -161 -6 -170 -5 -14 -31 -16 -180 -16 l-174 0 -1 133 c0 176 -9
221 -46 259 -55 55 -148 46 -190 -19 -15 -22 -19 -57 -23 -198 l-5 -170 -167
-3 -168 -2 -1 157 c0 181 -9 217 -58 250 -32 22 -43 23 -207 23 -188 0 -242
-11 -267 -54 -8 -13 -14 -85 -17 -196 l-5 -175 -170 0 -170 0 -5 167 c-4 149
-7 170 -26 195 -52 70 -140 81 -194 23 -34 -36 -40 -71 -40 -232 l0 -128 -110
39 c-60 22 -140 54 -177 73 l-68 33 -5 113 c-6 146 -2 142 -171 142 -70 0
-139 4 -152 9 -14 6 -44 29 -67 53 -51 51 -180 222 -180 237 0 7 29 11 78 11
274 0 558 131 738 342 85 98 147 203 210 358 75 184 110 246 180 317 71 72
175 128 270 143 34 6 383 10 845 10 904 0 859 4 945 -84 83 -85 92 -166 29
-258 -14 -21 -45 -48 -68 -60 -40 -22 -55 -23 -352 -28 -269 -4 -314 -7 -342
-22 -109 -60 -106 -217 6 -275 43 -23 50 -23 360 -23 351 0 398 6 505 63 181
96 290 323 258 535 -28 179 -139 327 -309 411 -124 62 -104 61 -1051 61 -976
0 -951 2 -1107 -75 -217 -106 -339 -257 -479 -592 -84 -200 -207 -344 -365
-426 -88 -47 -159 -59 -326 -55 l-140 3 -17 75 c-20 85 -34 254 -24 294 l6 26
203 0 c231 0 254 6 294 76 39 68 25 146 -36 197 l-33 27 -179 0 -179 0 0 251
c0 153 -4 258 -10 270 -10 18 -23 19 -209 19 l-199 0 -15 38 c-18 45 -47 179
-47 217 l0 25 241 0 c265 0 290 5 322 59 21 36 22 73 2 110 -26 51 -56 56
-322 56 l-243 0 0 68 0 67 278 0 c260 0 279 1 310 20 18 11 40 37 48 57 14 33
14 40 -1 80 -31 80 -41 83 -337 83 l-257 0 30 88 c158 448 495 799 949 990
194 82 360 121 520 122 181 2 200 21 212 214 14 240 70 443 185 669 145 284
331 457 568 528 59 18 105 22 287 26 216 5 218 6 243 31 l25 25 0 227 0 228
33 19 c61 37 246 103 379 137 117 30 217 47 353 60 94 9 365 -4 475 -23z"/>
<path d="M4725 7940 c-102 -51 -124 -189 -44 -268 41 -40 99 -57 147 -41 56
18 88 45 111 92 27 56 26 82 -4 143 -43 86 -126 116 -210 74z"/>
<path d="M5420 7949 c-62 -25 -100 -85 -100 -157 0 -84 73 -162 152 -162 146
0 217 157 122 270 -47 55 -112 74 -174 49z"/>
<path d="M3905 7240 c-149 -39 -261 -107 -376 -227 -124 -130 -199 -264 -236
-423 -28 -117 -25 -360 5 -463 75 -259 269 -486 498 -580 134 -55 34 -52 1739
-52 l1580 0 43 25 c119 68 111 224 -15 289 -16 8 -435 11 -1541 11 -1476 0
-1521 1 -1595 20 -100 25 -157 59 -238 141 -81 81 -132 178 -157 296 -15 77
-15 90 -1 175 37 215 175 390 364 460 57 21 79 22 472 27 397 6 413 7 440 27
74 55 94 140 51 216 -45 79 -40 78 -530 77 -389 0 -440 -2 -503 -19z"/>
<path d="M5582 7243 c-82 -40 -118 -153 -70 -222 12 -19 36 -44 51 -55 27 -20
42 -21 415 -26 l387 -5 58 -28 c126 -62 183 -205 117 -297 -49 -69 34 -64
-1175 -70 -1067 -5 -1091 -5 -1124 -25 -97 -57 -114 -181 -36 -260 19 -18 52
-39 72 -44 51 -15 2200 -15 2262 0 122 28 258 134 311 243 62 126 73 266 30
390 -57 166 -155 279 -303 350 -51 24 -116 49 -145 55 -33 7 -199 11 -435 11
-333 0 -386 -3 -415 -17z"/>
<path d="M2240 5804 c0 -5 159 -181 246 -271 l41 -43 180 0 c171 0 182 1 214
23 l34 23 3 116 c4 170 33 158 -384 158 -184 0 -334 -3 -334 -6z"/>
<path d="M7652 5803 c-44 -9 -54 -42 -50 -164 3 -102 5 -112 27 -130 13 -10
38 -19 55 -19 33 0 64 30 285 273 l44 47 -169 -1 c-93 -1 -179 -4 -192 -6z"/>
<path d="M1980 5499 c-124 -52 -135 -233 -18 -299 47 -27 93 -28 142 -5 150
71 111 300 -53 312 -25 1 -57 -2 -71 -8z"/>
<path d="M8130 5488 c-65 -34 -85 -67 -85 -143 0 -49 5 -70 21 -92 69 -93 185
-99 257 -13 54 64 54 146 0 211 -51 61 -120 74 -193 37z"/>
<path d="M6918 5185 c-159 -30 -311 -100 -440 -204 -85 -68 -143 -128 -255
-266 -162 -201 -280 -288 -432 -321 -84 -18 -139 -17 -226 1 -171 36 -269 116
-395 321 -68 111 -105 159 -185 239 -87 88 -112 107 -195 148 -52 25 -122 53
-155 61 -77 19 -246 31 -318 22 -174 -22 -228 -209 -88 -303 30 -20 46 -23
135 -23 240 0 375 -86 521 -334 187 -318 447 -477 780 -478 240 -1 461 84 627
240 58 55 194 213 291 338 34 44 166 143 239 178 94 47 197 68 328 68 126 1
213 -18 325 -72 190 -91 334 -266 385 -466 16 -62 20 -111 20 -248 0 -94 4
-187 10 -205 21 -76 120 -141 187 -125 49 12 102 55 123 98 18 38 20 62 20
249 0 267 -17 353 -107 532 -54 106 -115 186 -218 283 -133 126 -271 203 -454
254 -100 27 -406 35 -523 13z"/>
<path d="M2863 5179 c-188 -22 -393 -127 -540 -275 -137 -139 -232 -306 -278
-489 -24 -95 -26 -112 -23 -326 l3 -226 29 -37 c35 -47 106 -81 150 -72 47 10
103 52 125 94 16 32 19 67 23 242 5 185 8 213 31 283 56 174 200 347 347 419
127 62 182 68 580 68 395 0 399 1 449 71 33 45 40 94 20 146 -11 31 -54 79
-83 95 -24 13 -733 19 -833 7z"/>
<path d="M5307 5183 l-118 -4 82 -92 c46 -51 115 -125 153 -164 l70 -73 195 0
194 0 75 78 c141 146 232 249 225 256 -6 6 -634 5 -876 -1z"/>
<path d="M2930 4621 c-107 -56 -107 -209 0 -264 33 -16 86 -17 772 -15 726 3
737 3 764 24 94 70 96 189 4 252 l-33 22 -736 0 c-697 0 -738 -1 -771 -19z"/>
<path d="M7235 4383 c-30 -8 -83 -51 -99 -81 -8 -15 -17 -50 -21 -77 -11 -81
-24 -112 -60 -144 -62 -54 -109 -61 -405 -61 -233 0 -277 -2 -346 -20 -530
-134 -775 -774 -469 -1227 64 -93 166 -193 248 -242 31 -18 96 -47 144 -65
l88 -31 490 -3 c270 -2 509 0 533 3 57 8 116 64 132 124 10 40 9 48 -17 100
-49 98 -22 93 -561 95 -455 1 -469 2 -532 23 -177 61 -305 222 -317 401 -15
219 108 411 319 495 49 19 79 21 378 26 l325 6 69 33 c98 46 160 95 210 166
56 78 84 144 98 227 13 73 3 130 -33 189 -31 50 -109 79 -174 63z"/>
<path d="M3604 3481 c-43 -20 -82 -61 -89 -95 -2 -12 -7 -42 -10 -68 l-6 -47
-147 -3 c-137 -3 -149 -5 -181 -27 -73 -52 -88 -157 -33 -223 52 -62 83 -68
308 -60 l202 7 55 38 c92 64 140 158 140 277 0 108 -40 177 -120 206 -51 18
-71 17 -119 -5z"/>
<path d="M4038 2750 l-1107 -5 -36 -35 c-84 -81 -66 -209 37 -259 l44 -21
1130 0 c732 0 1142 4 1166 10 45 13 105 77 113 124 9 44 -7 92 -45 138 -35 42
-81 59 -150 56 -25 -2 -543 -5 -1152 -8z"/>
<path d="M1082 8682 c-48 -26 -72 -68 -72 -125 0 -82 48 -142 124 -154 50 -8
117 27 144 76 73 130 -65 273 -196 203z"/>
<path d="M9011 8682 c-46 -25 -71 -74 -71 -141 0 -49 3 -57 38 -92 21 -21 50
-41 65 -44 99 -25 202 75 183 178 -18 96 -127 146 -215 99z"/>
<path d="M880 7844 c-58 -8 -243 -44 -277 -55 -93 -30 -82 -133 40 -374 132
-264 301 -459 487 -563 235 -131 570 -129 838 7 72 36 230 141 256 170 20 22
20 22 -11 84 -49 99 -170 264 -262 360 -171 178 -356 287 -590 348 -60 16
-115 21 -261 24 -102 2 -201 1 -220 -1z m365 -284 c123 -18 197 -41 310 -95
61 -29 139 -75 175 -103 83 -63 213 -198 205 -212 -10 -16 -74 -46 -125 -58
-169 -41 -368 -13 -510 73 -101 61 -240 197 -310 303 -36 54 -38 79 -7 92 30
12 176 12 262 0z"/>
<path d="M8960 7839 c-86 -13 -249 -68 -347 -117 -148 -75 -302 -207 -438
-377 -62 -77 -175 -261 -175 -286 0 -31 134 -131 269 -199 273 -137 585 -140
832 -9 230 123 461 424 569 743 37 110 37 128 3 166 -25 27 -43 34 -148 56
-97 20 -156 26 -310 29 -104 2 -219 -1 -255 -6z m290 -282 c14 -7 26 -19 28
-28 4 -23 -54 -104 -147 -202 -108 -113 -227 -194 -336 -227 -156 -47 -431
-25 -489 39 -18 20 -17 22 50 92 221 229 461 334 774 338 59 0 104 -4 120 -12z"/>
<path d="M848 6470 c-68 -20 -108 -73 -108 -143 0 -54 16 -90 55 -127 22 -21
36 -25 88 -25 78 0 118 25 143 91 15 40 16 53 5 93 -15 56 -50 94 -100 110
-43 12 -45 12 -83 1z"/>
<path d="M9280 6458 c-55 -29 -84 -75 -84 -137 0 -58 26 -103 74 -130 77 -43
167 -17 207 59 29 54 29 84 1 140 -43 84 -118 110 -198 68z"/>
</g>
</svg>
