<?xml version="1.0" standalone="no"?>
<!DOCTYPE svg PUBLIC "-//W3C//DTD SVG 20010904//EN"
 "http://www.w3.org/TR/2001/REC-SVG-20010904/DTD/svg10.dtd">
<svg version="1.0" xmlns="http://www.w3.org/2000/svg"
 width="1024.000000pt" height="1024.000000pt" viewBox="0 0 1024.000000 1024.000000"
 preserveAspectRatio="xMidYMid meet">
<metadata>
Created by potrace 1.16, written by Peter Selinger 2001-2019
</metadata>
<g transform="translate(0.000000,1024.000000) scale(0.100000,-0.100000)"
fill="#000000" stroke="none">
<path d="M5270 8544 c-14 -2 -59 -9 -100 -15 -103 -14 -322 -72 -417 -110
-455 -180 -839 -530 -1049 -955 l-55 -111 -103 -6 c-125 -8 -213 -26 -331 -68
-374 -132 -629 -402 -720 -765 -2 -5 -31 -18 -66 -28 -35 -9 -108 -35 -162
-57 -248 -100 -420 -211 -592 -384 -146 -146 -232 -265 -325 -450 -127 -254
-180 -460 -188 -727 -5 -184 4 -273 44 -433 134 -533 533 -987 1023 -1165 169
-62 221 -71 428 -77 l192 -6 3 -241 3 -242 36 -49 c24 -34 52 -59 90 -77 l54
-28 293 0 293 0 -3 -153 -3 -152 -474 -3 -474 -2 -61 64 c-69 72 -134 109
-223 126 -162 32 -349 -64 -421 -217 -24 -53 -27 -69 -27 -173 0 -107 2 -119
29 -173 40 -78 118 -157 190 -192 46 -23 77 -30 142 -33 107 -6 174 15 270 84
l72 52 619 5 c543 5 624 7 659 22 45 19 86 56 117 105 21 33 22 49 27 335 l5
300 85 6 c126 8 186 45 229 139 19 41 21 65 21 273 l0 227 265 0 265 0 0 -607
c0 -590 1 -609 21 -653 25 -55 62 -95 114 -123 l40 -22 1247 -1 1247 -1 56
-52 c44 -40 72 -56 127 -72 193 -59 391 28 481 210 30 61 32 72 32 171 0 93
-3 111 -27 163 -76 163 -256 259 -425 228 -88 -16 -173 -62 -229 -124 -24 -27
-44 -53 -44 -58 0 -5 -462 -9 -1100 -9 l-1100 0 0 475 0 475 289 0 290 0 -1
-232 c-1 -260 2 -277 74 -345 67 -65 51 -63 660 -63 620 0 594 -2 670 75 61
61 68 98 68 347 l0 218 129 0 c153 0 261 17 407 65 650 213 1108 860 1107
1565 0 431 -155 831 -452 1168 -127 145 -359 314 -571 414 -154 74 -266 111
-429 144 -176 35 -161 26 -161 94 0 374 -141 773 -391 1102 -77 101 -239 270
-334 348 -157 128 -380 259 -570 334 -107 42 -345 101 -465 116 -79 9 -363 12
-420 4z m422 -483 c624 -108 1113 -575 1259 -1206 16 -72 22 -140 27 -340 7
-241 8 -251 32 -293 37 -65 86 -90 206 -102 260 -27 454 -80 659 -180 205
-101 375 -248 497 -431 148 -221 212 -427 212 -674 -1 -318 -115 -598 -341
-835 -174 -183 -356 -284 -596 -331 -54 -10 -127 -19 -162 -19 l-65 0 0 433 0
432 63 57 c189 168 203 438 33 616 -61 64 -111 93 -201 117 -140 36 -298 -2
-400 -96 -183 -169 -178 -472 11 -638 l44 -39 0 -443 0 -444 -290 3 -290 3 0
888 0 888 51 33 c58 37 128 127 156 197 14 37 18 75 18 163 0 105 -2 120 -28
171 -113 230 -391 316 -620 191 -57 -30 -128 -107 -161 -172 -85 -165 -52
-364 80 -497 l58 -58 3 -902 2 -903 -290 0 -289 0 0 1319 0 1319 70 70 c110
110 152 231 130 375 -47 303 -404 460 -666 294 -151 -95 -225 -292 -179 -472
27 -103 107 -213 184 -254 l21 -12 0 -1319 0 -1320 -227 -2 c-126 -1 -245 -2
-265 -4 l-38 -2 0 935 0 935 30 34 c140 159 130 399 -22 560 -61 65 -117 99
-194 119 -235 61 -471 -71 -530 -295 -20 -78 -18 -179 6 -247 35 -100 160
-234 233 -250 l27 -5 0 -889 0 -889 -330 0 -330 0 0 437 0 436 63 61 c91 87
130 169 135 286 5 109 -13 175 -71 261 -182 272 -601 242 -737 -52 -81 -176
-39 -375 107 -509 l63 -57 0 -433 0 -433 -117 6 c-197 10 -357 59 -527 158
-273 161 -479 465 -547 809 -19 96 -17 337 4 443 73 367 299 670 637 855 93
51 289 117 395 132 147 22 184 31 216 53 50 34 69 80 69 167 0 197 56 323 197
442 114 96 262 148 425 148 82 0 113 -5 195 -31 104 -33 153 -35 198 -5 37 24
53 64 69 173 63 422 438 835 907 1001 78 28 237 66 314 75 94 12 301 6 407
-12z m-480 -1310 c28 -25 33 -36 33 -76 0 -40 -5 -51 -33 -76 -73 -66 -172
-16 -172 86 0 28 7 44 31 66 43 40 96 40 141 0z m-1062 -836 c94 -49 69 -188
-36 -202 -36 -5 -45 -1 -77 27 -32 27 -37 38 -37 75 0 86 77 138 150 100z
m2123 -25 c21 -23 27 -40 27 -74 0 -38 -5 -48 -35 -75 -25 -22 -46 -31 -70
-31 -24 0 -45 9 -70 31 -29 26 -35 38 -35 71 0 50 13 74 53 99 44 27 93 19
130 -21z m-3134 -914 c21 -22 26 -36 26 -77 0 -66 -33 -99 -100 -99 -62 0 -95
30 -102 93 -5 43 -3 49 31 83 33 33 40 36 78 31 26 -3 51 -15 67 -31z m4139 6
c39 -37 48 -73 30 -120 -26 -71 -117 -91 -171 -36 -95 95 43 247 141 156z
m-3324 -1882 c4 -49 5 -93 3 -97 -3 -5 -153 -8 -334 -8 l-328 0 -3 84 c-2 46
-1 90 2 98 4 10 69 13 329 13 l324 0 7 -90z m3016 -5 l0 -95 -27 0 c-16 0
-146 -3 -290 -5 l-263 -5 0 100 0 100 290 0 290 0 0 -95z"/>
</g>
</svg>
