<?xml version="1.0" standalone="no"?>
<!DOCTYPE svg PUBLIC "-//W3C//DTD SVG 20010904//EN"
 "http://www.w3.org/TR/2001/REC-SVG-20010904/DTD/svg10.dtd">
<svg version="1.0" xmlns="http://www.w3.org/2000/svg"
 width="1024.000000pt" height="1024.000000pt" viewBox="0 0 1024.000000 1024.000000"
 preserveAspectRatio="xMidYMid meet">
<metadata>
Created by potrace 1.16, written by Peter Selinger 2001-2019
</metadata>
<g transform="translate(0.000000,1024.000000) scale(0.100000,-0.100000)"
fill="#000000" stroke="none">
<path d="M2545 9358 c-331 -38 -613 -280 -707 -604 l-23 -79 0 -2987 c0 -2642
2 -2989 15 -3002 12 -12 59 -15 247 -18 l233 -3 2 2800 3 2800 22 47 c30 66
105 143 172 175 l56 28 1640 0 1640 0 56 -26 c70 -33 134 -90 161 -143 12 -23
27 -77 34 -120 20 -125 83 -204 212 -264 l57 -27 695 -3 695 -3 -3 -1072 c-2
-589 0 -1189 3 -1333 l7 -261 77 -22 c111 -32 226 -92 317 -165 43 -35 82 -62
87 -59 4 2 7 751 7 1663 l0 1658 -522 516 -522 515 -2296 -1 c-1262 -1 -2326
-6 -2365 -10z m5180 -761 l210 -207 -397 0 -398 0 0 392 0 393 188 -186 c103
-102 282 -278 397 -392z"/>
<path d="M3330 8131 c-95 -25 -165 -67 -241 -141 -99 -97 -144 -198 -156 -347
-12 -166 40 -306 160 -428 89 -89 168 -130 292 -151 345 -60 652 199 647 546
-4 248 -171 463 -408 524 -80 21 -212 19 -294 -3z"/>
<path d="M5049 7082 c-78 -40 -114 -102 -114 -191 1 -103 43 -168 135 -210 44
-20 60 -21 1091 -21 1153 0 1105 -3 1170 62 43 44 61 84 66 153 4 52 1 67 -24
115 -18 34 -45 66 -72 85 l-43 30 -1077 3 -1078 2 -54 -28z"/>
<path d="M3380 6790 c-394 -37 -691 -260 -818 -615 -22 -61 -25 -91 -29 -242
l-5 -172 253 -3 c140 -2 568 -2 953 0 l698 2 -4 163 c-4 150 -7 169 -37 257
-138 407 -545 653 -1011 610z"/>
<path d="M8604 6386 c-3 -8 -4 -113 -2 -234 l3 -220 48 -42 c94 -83 91 -69 97
-519 l5 -395 80 -31 c106 -41 207 -102 298 -180 58 -49 77 -61 81 -49 3 9 6
256 6 550 0 457 -2 546 -16 607 -54 239 -224 426 -460 507 -68 24 -132 26
-140 6z"/>
<path d="M1371 6375 c-57 -25 -154 -100 -216 -167 -109 -117 -164 -237 -184
-403 -8 -62 -11 -617 -11 -1792 l0 -1702 -190 -3 -190 -3 -27 -28 -28 -28 0
-342 c0 -368 3 -389 59 -528 50 -125 108 -211 211 -314 114 -114 195 -165 345
-217 l95 -33 3098 -3 c2760 -2 3101 0 3127 13 78 40 80 179 2 219 -18 9 -79
15 -182 19 -249 9 -435 60 -624 169 l-48 29 -2607 -1 c-2845 0 -2688 -3 -2790
57 -65 38 -144 120 -176 184 -42 81 -55 143 -55 259 l0 105 1529 0 1529 0 16
-57 c22 -78 85 -154 161 -193 l59 -30 810 -3 c535 -2 823 1 846 7 40 12 108
66 141 112 21 30 21 30 2 52 -74 82 -167 258 -218 416 -25 73 -44 117 -58 126
-19 13 -292 15 -2190 15 l-2169 0 3 2040 c4 2039 4 2040 -16 2040 -11 -1 -35
-7 -54 -15z"/>
<path d="M5092 6195 c-134 -42 -203 -204 -139 -326 114 -215 463 -135 461 106
0 105 -65 189 -168 220 -60 18 -97 18 -154 0z"/>
<path d="M5885 6183 c-81 -42 -128 -119 -129 -207 0 -92 41 -159 122 -201 31
-15 95 -16 695 -17 475 0 670 3 692 12 42 16 94 68 116 115 49 106 -2 249
-105 296 -39 17 -80 19 -701 18 -582 0 -664 -2 -690 -16z"/>
<path d="M5785 5290 c-789 -6 -739 -1 -803 -74 -93 -106 -55 -294 72 -356 43
-20 58 -21 316 -21 l272 0 33 43 c45 58 131 131 211 179 75 46 254 109 308
109 21 0 64 14 105 35 81 42 174 75 208 75 14 0 21 4 18 10 -3 6 -12 9 -18 8
-7 -2 -331 -5 -722 -8z"/>
<path d="M3363 5265 c-77 -39 -123 -115 -123 -203 1 -94 70 -190 157 -215 39
-12 135 -13 528 -10 291 3 493 9 514 15 45 14 110 74 132 123 52 114 -15 273
-129 305 -23 6 -223 10 -533 10 l-495 0 -51 -25z"/>
<path d="M7130 5264 c49 -16 86 -22 108 -18 77 15 3 44 -107 43 l-76 -1 75
-24z"/>
<path d="M2691 5155 c-60 -51 -62 -127 -4 -187 56 -59 166 -26 193 57 16 49 4
89 -36 125 -46 40 -108 42 -153 5z"/>
<path d="M6632 4929 c-84 -14 -220 -80 -286 -138 -13 -12 -39 -16 -100 -17
-173 -1 -315 -102 -361 -258 -22 -72 -19 -174 6 -241 24 -64 104 -157 161
-186 21 -11 38 -25 38 -32 0 -7 43 -155 95 -328 53 -172 98 -324 101 -336 6
-22 3 -23 -47 -23 -153 0 -275 -140 -272 -310 1 -82 267 -866 335 -990 211
-380 580 -617 994 -637 132 -6 183 3 209 40 19 27 22 301 4 341 -16 34 -66 56
-127 56 -129 0 -302 55 -420 134 -87 58 -198 175 -239 252 -26 49 -223 638
-223 666 0 5 13 2 29 -6 109 -57 242 -12 297 100 23 47 26 63 21 112 -4 31
-74 282 -157 557 -83 275 -156 521 -161 547 -20 92 39 205 124 237 76 29 168
-2 205 -68 11 -20 61 -182 112 -361 50 -179 101 -356 111 -394 38 -128 136
-203 258 -194 135 10 239 146 204 268 -6 19 -43 153 -82 296 -68 245 -72 265
-61 305 38 140 223 168 313 47 11 -14 66 -189 123 -389 113 -399 123 -421 209
-474 91 -56 209 -35 285 51 71 81 74 125 24 308 -43 156 -45 183 -16 224 48
66 121 95 201 79 61 -12 140 -91 172 -172 l24 -60 3 -812 2 -812 -405 -3 -405
-3 -26 -27 -27 -27 -3 -658 c-2 -412 0 -672 6 -695 6 -20 24 -48 42 -63 l31
-26 506 3 c493 4 508 4 581 27 300 91 531 322 621 621 21 70 23 98 26 420 4
333 3 346 -17 378 -11 18 -32 37 -46 42 -14 6 -113 10 -220 10 l-194 0 0 773
c0 809 -2 862 -46 1007 -76 255 -292 470 -530 526 -141 33 -333 5 -436 -64
-27 -17 -43 -23 -45 -15 -2 6 -26 42 -52 80 -92 131 -202 219 -328 264 -82 30
-255 37 -341 15 -88 -23 -161 -57 -204 -95 -20 -17 -39 -31 -42 -31 -4 0 -30
18 -59 39 -139 105 -321 149 -495 120z m2597 -3142 c3 -188 -32 -304 -124
-405 -45 -50 -106 -93 -152 -106 -20 -7 -21 -4 -25 92 -3 87 -6 103 -30 139
-74 113 -251 113 -325 1 -25 -36 -29 -54 -33 -142 l-5 -101 -97 -3 -98 -3 0
304 0 303 443 2 444 2 2 -83z"/>
<path d="M3370 4354 c-98 -43 -153 -154 -129 -265 14 -66 92 -151 154 -168 28
-8 384 -11 1167 -11 l1127 0 -49 66 c-80 105 -111 179 -131 314 l-11 80 -1047
0 c-912 -1 -1050 -3 -1081 -16z"/>
<path d="M2704 4249 c-32 -16 -54 -62 -54 -114 0 -40 5 -52 34 -81 29 -29 41
-34 79 -34 52 0 96 30 117 80 30 71 -34 161 -113 159 -23 0 -51 -5 -63 -10z"/>
<path d="M3417 3446 c-177 -48 -231 -273 -94 -393 53 -47 116 -67 190 -61 138
11 227 102 227 230 -1 102 -70 192 -171 222 -62 19 -88 19 -152 2z"/>
<path d="M4260 3445 c-97 -31 -160 -117 -160 -220 0 -66 16 -108 59 -157 73
-83 220 -103 318 -42 99 61 137 179 93 283 -52 121 -179 176 -310 136z"/>
<path d="M5070 3434 c-135 -59 -179 -242 -83 -353 67 -79 85 -84 366 -89 l247
-5 0 81 c0 45 5 104 11 133 14 64 61 179 89 219 l21 30 -308 0 c-253 -1 -314
-4 -343 -16z"/>
<path d="M2725 3326 c-86 -38 -105 -146 -35 -208 34 -31 87 -37 130 -15 32 16
70 73 70 104 0 84 -92 150 -165 119z"/>
</g>
</svg>
