<?xml version="1.0" standalone="no"?>
<!DOCTYPE svg PUBLIC "-//W3C//DTD SVG 20010904//EN"
 "http://www.w3.org/TR/2001/REC-SVG-20010904/DTD/svg10.dtd">
<svg version="1.0" xmlns="http://www.w3.org/2000/svg"
 width="1024.000000pt" height="1024.000000pt" viewBox="0 0 1024.000000 1024.000000"
 preserveAspectRatio="xMidYMid meet">
<metadata>
Created by potrace 1.16, written by Peter Selinger 2001-2019
</metadata>
<g transform="translate(0.000000,1024.000000) scale(0.100000,-0.100000)"
fill="#000000" stroke="none">
<path d="M7095 8645 c-143 -32 -253 -92 -368 -204 -82 -79 -136 -156 -172
-249 l-27 -69 -55 -12 c-90 -21 -208 -86 -277 -155 -60 -58 -123 -151 -142
-209 -5 -15 -12 -27 -16 -27 -5 0 -511 0 -1125 0 l-1118 0 -2 66 c-5 141 -102
274 -230 314 -81 25 -134 25 -212 1 -156 -49 -259 -204 -236 -360 13 -94 88
-211 157 -247 l28 -15 0 -323 0 -324 -87 -7 c-228 -18 -593 -97 -788 -170
-247 -91 -409 -187 -541 -319 -87 -87 -123 -141 -163 -245 l-26 -66 -3 -1855
c-2 -1355 0 -1873 9 -1923 49 -297 390 -554 931 -701 669 -183 1496 -118 2049
160 239 120 377 241 460 406 l29 58 895 0 c766 0 895 -2 895 -14 0 -28 100
-125 158 -153 50 -24 69 -28 147 -28 78 0 98 4 145 27 30 15 172 122 315 239
143 116 271 219 285 229 18 12 51 19 112 22 149 8 257 78 316 207 22 46 27 71
27 141 0 73 -4 93 -28 141 -34 69 -100 132 -175 167 -46 21 -72 26 -137 27
-71 0 -88 -4 -148 -33 -52 -26 -79 -47 -112 -89 -61 -78 -79 -143 -72 -258 5
-91 5 -93 -21 -112 -15 -11 -71 -57 -124 -101 l-98 -82 -42 46 c-133 145 -370
135 -506 -20 l-31 -36 -891 0 -890 0 0 470 0 470 1219 2 c1203 3 1219 3 1241
23 12 11 71 119 131 241 l108 220 53 17 c195 63 292 290 203 473 -35 71 -116
146 -190 173 -49 19 -74 22 -135 19 -95 -6 -154 -31 -225 -99 -116 -110 -137
-299 -48 -432 l35 -52 -62 -120 c-35 -66 -67 -126 -73 -132 -7 -10 -246 -13
-1133 -13 l-1124 0 0 444 0 445 790 -1 790 -1 45 -43 c56 -54 104 -79 182 -94
140 -28 293 52 360 189 24 48 28 68 28 141 0 76 -4 92 -33 152 -40 81 -102
139 -181 169 -75 28 -194 23 -261 -10 -67 -35 -127 -87 -156 -137 l-26 -44
-769 0 -769 0 0 380 0 380 915 0 915 0 0 -90 c0 -54 6 -104 14 -123 16 -40 63
-81 109 -96 51 -17 131 12 171 62 29 36 30 42 32 140 l1 102 264 3 264 2 25
-37 c37 -54 115 -111 178 -129 164 -48 339 31 410 184 36 79 38 204 3 274 -33
67 -90 129 -152 163 -50 28 -61 30 -159 30 -90 0 -111 -3 -147 -23 -58 -31
-108 -76 -123 -112 l-12 -30 -279 0 -279 0 0 465 0 465 295 0 c173 0 316 4
347 11 99 20 214 84 289 160 237 240 233 616 -9 839 -65 60 -203 140 -242 140
-15 0 -24 9 -32 33 -80 230 -301 430 -539 487 -98 23 -260 26 -354 5z m358
-352 c126 -59 227 -185 242 -301 12 -90 17 -104 52 -143 38 -43 82 -59 156
-59 169 0 275 -214 181 -366 -36 -58 -107 -109 -174 -123 -34 -7 -268 -11
-689 -11 -717 0 -703 -1 -786 72 -59 52 -85 109 -85 184 0 72 24 128 73 171
69 61 160 69 233 19 53 -36 103 -35 146 3 l33 29 5 139 c7 162 21 203 96 284
95 100 197 140 349 136 88 -2 108 -6 168 -34z m-1413 -899 c0 -30 70 -150 127
-218 63 -74 156 -141 248 -177 57 -22 74 -24 338 -27 244 -3 278 -5 273 -19
-3 -8 -6 -217 -6 -464 l0 -449 -920 0 c-796 0 -920 2 -920 14 0 25 -76 163
-119 217 -211 265 -730 484 -1293 545 l-158 18 0 288 0 288 1215 0 c1111 0
1215 -1 1215 -16z m-2740 -1016 l-1 -153 -41 -25 c-94 -58 -142 -161 -136
-293 4 -95 21 -136 85 -207 66 -74 137 -104 243 -105 77 0 92 3 152 33 113 55
179 154 186 275 3 38 -1 88 -9 114 -17 62 -80 154 -129 188 l-40 28 0 143 0
144 41 0 c60 0 236 -27 369 -57 304 -67 582 -195 717 -331 99 -100 132 -168
132 -277 1 -82 -22 -140 -87 -221 -92 -116 -326 -253 -557 -327 -109 -35 -297
-75 -470 -99 -115 -16 -509 -16 -635 1 -375 48 -696 159 -897 309 -372 277
-250 622 298 840 188 74 477 144 672 161 51 5 95 9 100 10 4 0 7 -68 7 -151z
m-1300 -1744 c114 -116 385 -244 665 -314 279 -70 414 -85 785 -85 289 0 341
3 472 23 419 65 780 204 973 374 l35 30 0 -174 0 -174 -29 -45 c-76 -118 -246
-241 -449 -326 -488 -201 -1173 -238 -1737 -93 -348 90 -635 260 -737 437 -27
47 -28 51 -28 216 0 92 3 167 8 167 4 0 23 -17 42 -36z m107 -1468 c177 -114
463 -221 733 -275 607 -121 1297 -49 1778 186 103 50 248 146 281 186 7 9 17
17 22 17 5 0 9 -77 9 -171 l0 -171 -44 -63 c-104 -145 -294 -267 -569 -366
-254 -91 -482 -129 -822 -136 -208 -4 -263 -2 -410 17 -187 24 -417 78 -571
135 -208 77 -419 216 -514 339 l-45 58 -3 186 -3 186 45 -42 c25 -23 76 -62
113 -86z"/>
</g>
</svg>
