<?xml version="1.0" standalone="no"?>
<!DOCTYPE svg PUBLIC "-//W3C//DTD SVG 20010904//EN"
 "http://www.w3.org/TR/2001/REC-SVG-20010904/DTD/svg10.dtd">
<svg version="1.0" xmlns="http://www.w3.org/2000/svg"
 width="1024.000000pt" height="1024.000000pt" viewBox="0 0 1024.000000 1024.000000"
 preserveAspectRatio="xMidYMid meet">
<metadata>
Created by potrace 1.16, written by Peter Selinger 2001-2019
</metadata>
<g transform="translate(0.000000,1024.000000) scale(0.100000,-0.100000)"
fill="#000000" stroke="none">
<path d="M3256 7875 c-127 -45 -183 -208 -109 -320 14 -22 176 -191 360 -376
l333 -335 -58 -49 c-198 -169 -346 -323 -482 -503 l-55 -72 -375 374 c-206
206 -391 382 -410 392 -24 13 -57 19 -105 19 -59 0 -78 -4 -118 -28 -121 -71
-161 -226 -88 -338 16 -24 213 -225 437 -447 l409 -403 813 -3 812 -3 0 668
c0 641 -1 669 -18 669 -31 0 -243 -40 -305 -57 l-58 -16 -412 411 c-349 347
-418 412 -452 421 -51 14 -71 13 -119 -4z"/>
<path d="M6090 7878 c-38 -9 -60 -26 -155 -122 -60 -61 -243 -245 -405 -409
l-295 -298 -95 25 c-52 14 -117 28 -145 31 -27 3 -60 8 -72 11 l-23 4 0 -730
0 -730 795 0 794 0 -21 56 -22 57 430 427 c249 248 438 443 447 463 62 130 -8
291 -144 331 -66 20 -92 20 -158 0 -59 -17 -95 -51 -566 -533 l-239 -245 -22
30 c-194 253 -375 440 -573 591 -3 2 158 167 356 366 252 252 364 371 370 392
25 97 -17 208 -98 257 -53 32 -99 39 -159 26z"/>
<path d="M2910 5486 c0 -3 -16 -63 -35 -134 -19 -72 -39 -159 -45 -196 l-12
-65 -531 -3 -532 -3 -54 -30 c-99 -55 -151 -143 -151 -254 0 -33 8 -73 19 -98
24 -51 87 -115 143 -144 43 -22 46 -23 555 -23 l513 -1 0 123 0 122 616 0
c604 0 617 0 650 -21 98 -60 96 -201 -5 -257 -35 -20 -53 -21 -649 -23 l-612
-3 0 -75 c0 -158 41 -467 91 -689 17 -73 29 -137 27 -141 -2 -5 -165 -174
-362 -375 -198 -202 -370 -383 -383 -402 -84 -122 -26 -301 113 -353 68 -26
90 -26 156 -1 47 17 89 55 370 338 l317 318 46 -73 c94 -148 277 -360 415
-481 289 -253 616 -400 998 -447 l52 -7 0 489 0 488 -729 -3 -729 -3 -25 33
c-29 38 -127 235 -127 255 0 11 139 13 805 13 l805 0 0 1065 0 1065 -855 0
c-470 0 -855 -2 -855 -4z"/>
<path d="M4900 5040 l0 -331 889 3 888 3 6 -83 c3 -46 7 -85 9 -87 2 -2 213
-5 468 -6 525 -2 522 -2 602 69 62 57 89 110 96 189 4 56 1 70 -27 128 -18 37
-49 79 -73 99 -77 66 -76 66 -629 66 l-496 0 -7 43 c-3 23 -16 86 -28 140
l-21 97 -839 0 -838 0 0 -330z"/>
<path d="M4899 4416 c-2 -2 -3 -144 -1 -315 l3 -311 856 2 857 3 12 65 c21
109 53 380 56 473 l3 87 -891 0 c-490 0 -893 -2 -895 -4z"/>
<path d="M6926 3813 c-4 -35 -19 -79 -39 -115 l-32 -58 111 -113 c482 -489
734 -753 734 -768 0 -5 -157 -166 -350 -358 l-350 -348 -302 304 -303 304
-153 -161 c-167 -174 -247 -243 -396 -344 -252 -172 -578 -289 -906 -327 -125
-14 -391 -7 -530 15 -421 66 -806 273 -1141 613 -70 70 -143 147 -163 169
l-36 41 -275 -276 -275 -276 572 -572 573 -573 2395 0 c2304 0 2397 1 2430 18
72 38 70 18 70 677 l0 590 -808 808 c-444 444 -810 807 -813 807 -4 0 -9 -26
-13 -57z"/>
<path d="M6550 3510 c-11 -20 -17 -20 -830 -18 l-820 3 0 -697 0 -698 31 0
c16 0 76 9 132 21 283 59 560 191 788 375 141 115 358 356 464 517 21 32 42
56 47 55 4 -2 144 -139 311 -305 319 -318 350 -342 433 -343 137 -1 244 106
244 242 0 34 -7 73 -16 91 -16 31 -751 777 -766 777 -4 0 -12 -9 -18 -20z"/>
</g>
</svg>
