<?xml version="1.0" standalone="no"?>
<!DOCTYPE svg PUBLIC "-//W3C//DTD SVG 20010904//EN"
 "http://www.w3.org/TR/2001/REC-SVG-20010904/DTD/svg10.dtd">
<svg version="1.0" xmlns="http://www.w3.org/2000/svg"
 width="1024.000000pt" height="1024.000000pt" viewBox="0 0 1024.000000 1024.000000"
 preserveAspectRatio="xMidYMid meet">
<metadata>
Created by potrace 1.16, written by Peter Selinger 2001-2019
</metadata>
<g transform="translate(0.000000,1024.000000) scale(0.100000,-0.100000)"
fill="#000000" stroke="none">
<path d="M2236 8819 c-371 -54 -706 -326 -840 -681 -143 -382 -38 -825 270
-1134 100 -101 256 -194 407 -243 l67 -23 0 -783 0 -783 -37 -6 c-21 -3 -110
-5 -198 -4 -185 1 -212 -7 -282 -86 -88 -100 -85 -252 8 -345 64 -64 91 -71
312 -71 l197 0 0 -738 0 -737 -69 -22 c-85 -27 -210 -88 -294 -144 -134 -90
-305 -298 -365 -443 -61 -150 -83 -268 -82 -440 1 -297 110 -549 329 -758 204
-195 439 -289 721 -289 307 0 582 114 771 319 112 122 211 290 255 435 l18 57
778 0 778 0 0 -247 c0 -145 5 -264 11 -287 23 -83 139 -166 234 -166 54 0 137
36 177 77 62 64 68 89 68 300 0 103 3 218 7 255 l6 68 767 2 768 3 41 -105
c74 -190 195 -364 333 -480 89 -73 280 -171 393 -201 164 -42 400 -40 561 6
302 86 527 274 670 557 113 224 139 508 69 754 -99 345 -363 614 -716 730
l-56 19 -5 285 c-5 290 -5 582 0 973 l2 217 193 0 c171 0 197 3 237 21 97 44
144 116 145 225 0 90 -38 170 -103 218 l-44 31 -212 3 -213 3 -6 177 c-8 236
1 1394 10 1402 5 3 35 14 67 24 323 98 571 349 686 694 40 121 54 232 47 376
-9 194 -61 352 -169 518 -97 148 -205 247 -373 342 -149 86 -343 136 -521 136
-154 0 -334 -45 -482 -119 -230 -116 -439 -359 -518 -603 l-19 -58 -431 0
-431 0 -18 63 c-55 199 -197 397 -371 517 -90 62 -236 132 -324 155 -87 22
-295 31 -389 16 -196 -31 -403 -140 -542 -288 -126 -134 -212 -279 -240 -406
l-12 -57 -429 2 -428 3 -48 110 c-126 291 -366 514 -657 609 -156 51 -329 67
-479 45z m307 -533 c130 -41 265 -153 321 -267 31 -63 56 -173 56 -245 0 -73
-35 -200 -73 -263 -106 -178 -256 -265 -457 -265 -124 0 -211 26 -306 92 -278
196 -307 604 -58 831 134 122 345 170 517 117z m2802 -11 c124 -32 241 -132
299 -255 30 -62 31 -71 31 -190 0 -122 -1 -127 -34 -194 -90 -183 -285 -287
-483 -256 -229 35 -388 217 -388 444 0 307 281 527 575 451z m-1055 -738 c0
-23 70 -159 124 -241 125 -192 272 -308 471 -375 l90 -30 3 -320 2 -319 -75
-17 c-289 -64 -586 -268 -774 -531 -101 -142 -162 -274 -206 -449 l-23 -90
-631 -3 -631 -2 0 311 0 311 294 -5 c283 -5 295 -6 337 -29 37 -19 59 -23 134
-23 104 0 142 14 204 77 82 81 111 204 77 321 -14 48 -16 141 -16 741 l0 686
303 2 c166 2 305 2 310 0 4 -2 7 -9 7 -15z m2480 -676 c0 -606 -2 -694 -16
-732 -24 -67 -22 -164 5 -224 26 -59 90 -129 145 -157 132 -68 313 4 379 150
26 58 28 166 3 231 -14 38 -16 100 -16 472 l0 428 86 -69 c100 -80 248 -158
369 -195 l85 -26 0 -788 0 -788 -634 -2 -634 -2 -7 43 c-11 66 -61 212 -104
304 -96 203 -264 399 -450 523 -158 105 -293 165 -488 217 -10 3 -13 77 -13
327 l0 325 31 6 c17 3 66 21 110 40 254 110 431 306 532 589 6 16 30 17 312
17 l305 0 0 -689z m-3600 -206 l0 -375 -265 0 -265 0 2 231 3 232 55 14 c132
34 289 121 401 223 30 27 57 49 62 50 4 0 7 -169 7 -375z m750 -2042 c19 -77
86 -228 141 -322 174 -291 430 -499 739 -600 52 -17 113 -34 135 -39 l40 -8 3
-621 2 -620 -40 -7 c-23 -3 -373 -6 -779 -6 l-738 1 -12 52 c-15 69 -100 244
-155 321 -110 153 -307 304 -493 376 -56 22 -106 40 -112 40 -8 0 -11 67 -11
210 l0 210 298 0 c280 0 300 -1 352 -21 153 -60 310 1 382 149 44 90 45 169 3
255 -37 75 -117 149 -179 167 -75 21 -174 10 -246 -28 l-63 -32 -273 0 -274 0
0 285 0 285 634 0 634 0 12 -47z m3891 43 c2 -2 3 -131 1 -285 l-3 -281 -283
0 -283 0 -63 32 c-82 43 -184 51 -253 20 -148 -66 -227 -249 -173 -401 10 -28
16 -77 16 -137 l0 -94 -645 0 -645 0 0 70 c0 60 3 70 18 70 29 0 276 87 343
120 163 82 345 240 472 409 72 96 147 245 189 376 l33 105 636 0 c350 0 638
-2 640 -4z m-1 -1265 l0 -208 -66 -22 c-328 -107 -587 -368 -700 -701 l-22
-65 -771 -3 -771 -3 0 311 0 310 788 0 787 0 51 24 c62 29 120 85 145 140 16
35 19 67 19 234 l0 192 270 0 270 0 0 -209z m352 -705 c205 -37 376 -198 423
-398 46 -196 -4 -366 -150 -513 -116 -117 -220 -160 -380 -158 -150 2 -287 63
-385 170 -194 213 -188 548 14 748 90 89 192 138 336 159 46 6 65 5 142 -8z"/>
</g>
</svg>
