<?xml version="1.0" standalone="no"?>
<!DOCTYPE svg PUBLIC "-//W3C//DTD SVG 20010904//EN"
 "http://www.w3.org/TR/2001/REC-SVG-20010904/DTD/svg10.dtd">
<svg version="1.0" xmlns="http://www.w3.org/2000/svg"
 width="1024.000000pt" height="1024.000000pt" viewBox="0 0 1024.000000 1024.000000"
 preserveAspectRatio="xMidYMid meet">
<metadata>
Created by potrace 1.16, written by Peter Selinger 2001-2019
</metadata>
<g transform="translate(0.000000,1024.000000) scale(0.100000,-0.100000)"
fill="#000000" stroke="none">
<path d="M4978 9500 c-110 -19 -232 -97 -298 -191 -49 -70 -68 -121 -83 -221
l-12 -76 -134 -97 -134 -96 -46 45 c-25 25 -73 58 -106 73 -54 25 -71 28 -165
28 -93 0 -112 -3 -162 -27 -166 -78 -250 -278 -196 -468 11 -39 23 -26 -228
-263 l-70 -67 -57 12 -57 12 0 126 c0 158 -16 200 -84 231 -43 19 -66 19 -663
17 -682 -3 -656 -1 -700 -67 -23 -33 -23 -40 -23 -296 l0 -262 -136 -2 c-150
-2 -167 -6 -204 -46 l-25 -27 -3 -346 c-2 -228 1 -360 8 -384 6 -20 24 -48 41
-62 l31 -26 200 0 201 0 182 -180 c183 -180 223 -210 285 -210 57 0 102 30
241 161 l139 132 268 -263 c147 -145 309 -304 359 -354 l93 -91 -17 -60 c-26
-94 -23 -252 5 -345 47 -150 152 -291 276 -372 125 -81 305 -114 455 -84 46 9
85 16 86 14 2 -2 -3 -32 -10 -68 -21 -97 -19 -249 5 -349 11 -46 19 -85 18
-87 -2 -1 -28 4 -58 12 -70 18 -216 18 -305 -1 -120 -26 -207 -74 -299 -168
-89 -89 -135 -166 -167 -275 -29 -96 -34 -228 -15 -336 10 -56 12 -94 6 -105
-5 -9 -163 -170 -352 -359 l-344 -343 -136 134 c-75 74 -152 141 -171 150 -45
22 -119 22 -160 1 -18 -9 -99 -83 -182 -164 -216 -211 -172 -190 -406 -190
l-199 0 -38 -34 -37 -34 0 -377 0 -377 37 -34 38 -34 145 0 145 0 0 -267 c0
-250 1 -270 20 -301 11 -18 34 -41 52 -52 32 -19 52 -20 663 -20 607 0 631 1
662 20 59 36 68 60 71 207 4 132 4 133 27 133 13 0 36 5 51 10 29 12 41 3 248
-192 l99 -93 -18 -72 c-30 -125 3 -240 99 -337 148 -151 379 -150 532 4 l51
51 132 -97 c73 -53 134 -101 136 -108 1 -6 7 -46 13 -88 13 -101 56 -193 127
-267 100 -105 208 -146 364 -139 114 6 183 29 269 92 102 75 177 216 184 346
l3 55 140 102 140 102 32 -39 c78 -91 214 -140 335 -120 169 27 288 143 319
312 11 59 10 75 -6 135 l-18 67 79 74 c43 41 115 107 160 148 l81 74 56 -12
57 -12 0 -129 c0 -144 9 -175 63 -207 31 -19 55 -20 665 -20 696 0 678 -2 723
61 24 33 24 39 29 304 l5 270 140 5 c158 6 174 12 205 76 19 38 20 62 20 365
0 183 -4 339 -10 360 -6 19 -22 46 -36 60 -25 24 -29 24 -239 27 l-214 3 -177
171 c-97 94 -192 177 -210 184 -44 18 -108 18 -148 -1 -17 -8 -93 -77 -169
-153 l-137 -138 -128 126 c-70 69 -234 230 -366 357 -190 185 -237 235 -231
250 23 60 37 165 32 253 -16 296 -195 523 -472 601 -69 19 -284 17 -348 -4
-45 -14 -48 -14 -42 1 45 114 59 320 29 434 -8 33 -13 62 -11 64 2 3 28 -1 58
-8 80 -18 233 -15 308 5 136 37 251 110 332 210 126 156 173 357 131 555 l-19
92 366 355 365 355 136 -135 c232 -230 254 -228 540 51 l178 174 196 0 196 0
36 33 c22 20 38 47 44 72 5 22 10 183 10 358 0 354 -2 368 -65 407 -28 17 -49
20 -169 20 l-136 0 0 253 c0 228 -2 256 -20 295 -15 33 -29 47 -62 62 -41 19
-70 20 -663 20 -588 0 -622 -1 -662 -19 -64 -30 -73 -56 -73 -218 l0 -139 -56
-12 c-51 -10 -59 -10 -81 8 -59 46 -293 262 -293 270 0 4 7 37 16 72 34 130
-5 264 -106 366 -71 72 -136 96 -265 96 -87 0 -107 -3 -155 -26 -30 -14 -77
-48 -104 -76 l-49 -51 -86 60 c-47 33 -112 80 -143 104 -55 42 -58 47 -58 88
0 101 -57 227 -140 308 -110 107 -267 155 -422 129z m170 -304 c36 -19 78 -65
91 -99 24 -63 11 -110 -54 -187 -33 -40 -35 -46 -29 -89 20 -141 158 -186 260
-85 l35 35 34 -20 c18 -11 83 -57 144 -102 l111 -82 -5 -65 c-3 -36 -6 -67 -8
-68 -1 -1 -298 -4 -660 -6 l-657 -4 0 76 1 75 82 61 c45 34 105 78 133 97 l51
37 43 -40 c109 -101 260 -38 260 109 0 30 -8 49 -36 82 -43 51 -54 78 -54 126
0 90 80 163 177 163 30 0 66 -6 81 -14z m-1087 -543 c46 -28 59 -67 59 -187 0
-120 10 -155 66 -223 67 -82 87 -88 342 -91 l222 -3 0 -498 0 -497 -37 -13
c-114 -41 -272 -173 -337 -280 -145 -239 -141 -542 10 -772 47 -71 154 -178
205 -204 l30 -16 -43 -31 c-24 -17 -67 -53 -95 -81 l-53 -51 -212 209 c-117
116 -214 213 -216 218 -2 4 -26 7 -53 7 -42 0 -55 5 -86 34 -33 30 -37 38 -37
85 -1 48 2 55 36 87 32 29 45 34 86 34 37 0 54 -5 68 -21 l19 -21 7 43 c11 73
9 202 -5 229 -19 39 -81 65 -126 54 l-36 -10 -413 411 c-227 225 -423 415
-435 422 -34 19 -117 16 -152 -5 -17 -11 -142 -134 -280 -276 l-249 -256 -161
159 c-88 87 -174 166 -192 175 -25 13 -63 16 -178 16 l-145 0 0 170 c0 94 3
169 8 169 4 -1 69 -1 145 0 l137 1 38 34 37 34 3 276 3 276 454 0 455 0 0
-100 c0 -81 -5 -114 -26 -177 -77 -228 49 -433 276 -450 173 -13 331 135 331
309 0 35 -2 75 -6 89 -5 21 15 43 161 179 91 85 175 159 187 163 36 13 86 56
102 87 8 16 15 49 15 74 0 39 -4 47 -32 67 -18 12 -39 29 -45 37 -39 48 14
132 82 132 20 0 50 -8 66 -17z m2153 -9 c36 -36 36 -87 0 -117 -57 -48 -64
-58 -64 -89 1 -69 52 -141 119 -166 11 -4 94 -77 184 -162 l164 -155 -5 -76
c-7 -109 15 -174 85 -250 40 -43 69 -63 109 -79 140 -52 312 7 383 131 54 95
61 212 19 326 -15 40 -18 72 -16 150 l3 98 463 3 462 2 0 -265 c0 -361 -4
-355 225 -355 l135 0 0 -170 0 -170 -133 0 c-72 0 -148 -4 -167 -10 -24 -7
-82 -57 -202 -177 l-168 -167 -273 271 c-216 216 -280 273 -309 281 -38 10
-88 4 -123 -16 -11 -6 -204 -195 -429 -420 l-408 -409 -39 9 c-46 12 -107 -13
-126 -52 -13 -26 -18 -206 -7 -247 l6 -23 25 20 c17 13 41 20 71 20 38 0 50
-5 83 -39 34 -34 39 -44 39 -86 0 -40 -5 -52 -34 -81 -30 -30 -40 -34 -87 -34
l-53 0 -217 -217 -218 -216 -68 62 c-37 35 -80 70 -95 79 -16 9 -28 19 -28 22
1 3 26 21 56 40 85 54 179 160 224 254 51 109 70 192 70 312 0 122 -19 205
-70 309 -74 151 -173 250 -327 327 l-83 41 0 499 0 498 203 0 c237 0 272 8
341 75 72 69 91 115 92 220 2 159 1 154 38 191 29 29 41 34 79 34 35 0 50 -6
71 -26z m-1084 -959 l0 -465 -60 0 -60 0 0 465 0 465 60 0 60 0 0 -465z
m-1882 203 c7 -7 12 -25 12 -40 0 -22 -6 -29 -27 -34 -50 -13 -80 30 -47 67
20 22 44 25 62 7z m3700 0 c16 -16 15 -53 -2 -68 -21 -17 -58 -8 -67 16 -15
43 38 83 69 52z m-3336 -1410 l-42 -43 -77 75 c-260 250 -603 597 -603 610 0
8 17 31 37 52 l38 38 345 -345 345 -345 -43 -42z m3613 682 l38 -39 -34 -38
c-19 -21 -176 -177 -348 -347 l-313 -308 -39 38 c-21 21 -39 43 -39 49 -1 10
679 684 690 685 3 0 23 -18 45 -40z m-2113 -520 c44 -13 87 -63 94 -112 3 -18
-2 -52 -10 -77 -13 -34 -16 -88 -16 -255 l0 -211 -110 0 -109 0 -5 230 c-2
126 -8 255 -11 286 -6 53 -5 58 25 93 26 29 61 48 100 55 3 1 22 -4 42 -9z
m90 -951 c80 -17 196 -81 255 -141 111 -114 163 -239 163 -397 0 -174 -52
-305 -166 -417 -210 -208 -578 -202 -784 12 -101 105 -150 233 -150 394 0 175
43 283 161 402 80 82 145 120 244 144 64 16 209 17 277 3z m-624 -1252 c17
-12 32 -24 32 -27 0 -3 -27 -25 -60 -49 -114 -83 -203 -209 -248 -351 -23 -74
-26 -102 -27 -220 0 -114 4 -147 23 -210 63 -200 189 -353 364 -441 32 -16 64
-29 73 -29 13 0 15 -59 15 -504 l0 -505 -212 -3 c-197 -3 -216 -5 -254 -25
-64 -34 -97 -67 -129 -125 -27 -49 -30 -63 -35 -183 -3 -75 -10 -139 -17 -152
-39 -67 -119 -83 -172 -34 -47 44 -43 80 14 128 41 34 45 41 45 83 0 27 -8 58
-20 78 -20 33 -74 72 -100 72 -8 0 -89 69 -179 153 l-164 153 -1 105 c-1 92
-4 110 -28 155 -32 60 -94 119 -157 147 -69 31 -179 29 -251 -4 -160 -75 -231
-266 -159 -428 15 -34 19 -66 19 -147 l0 -104 -455 0 -455 0 0 281 0 281 -33
33 c-40 40 -82 48 -231 43 l-106 -3 0 168 0 167 158 0 c133 0 161 3 184 18 24
16 104 90 271 251 l57 56 268 -268 c292 -292 301 -299 384 -276 46 12 93 56
635 594 l253 250 49 -3 c43 -3 53 0 82 26 l34 30 3 132 c2 73 0 130 -5 128
-65 -32 -90 -39 -121 -33 -42 8 -88 53 -97 95 -16 71 45 150 113 150 35 0 51
13 271 234 l235 235 51 -50 c28 -27 65 -60 83 -72z m1411 -174 c90 -90 169
-164 175 -164 6 -1 18 -1 28 0 32 4 88 -28 108 -61 12 -20 20 -51 20 -76 0
-37 -6 -50 -33 -77 -19 -19 -46 -37 -61 -41 -31 -7 -106 11 -106 26 0 6 -7 10
-16 10 -14 0 -16 -16 -13 -131 l4 -131 34 -30 c30 -27 39 -30 82 -26 l47 5
269 -269 c147 -149 341 -339 429 -423 141 -133 167 -154 204 -160 33 -6 50 -2
85 17 26 13 157 132 305 276 l260 254 148 -143 c81 -78 161 -150 177 -161 26
-15 52 -18 188 -18 l157 0 0 -164 0 -164 -142 -4 c-155 -3 -183 -12 -206 -64
-8 -17 -12 -113 -12 -299 l0 -275 -465 0 -465 0 0 103 c0 79 5 114 21 157 26
69 28 168 5 238 -24 70 -99 152 -168 183 -75 32 -183 32 -255 0 -62 -27 -125
-93 -155 -159 -17 -37 -22 -68 -22 -141 l-1 -93 -85 -83 c-190 -183 -243 -230
-271 -238 -40 -10 -95 -68 -103 -107 -12 -64 -7 -80 39 -122 55 -50 60 -85 16
-129 -40 -40 -93 -40 -141 0 l-35 29 -5 128 c-5 110 -10 137 -31 184 -35 74
-67 110 -131 145 l-53 30 -212 3 -213 3 0 500 0 499 89 44 c49 25 116 68 149
95 83 69 170 202 208 316 26 82 29 102 29 230 0 127 -3 148 -29 228 -46 141
-128 253 -253 344 -34 26 -63 50 -63 53 0 3 21 22 48 42 26 20 62 53 81 72
l35 36 70 -67 c39 -37 145 -141 235 -230z m-803 -195 c-6 -205 -5 -238 9 -272
24 -58 13 -120 -30 -163 -29 -29 -39 -33 -88 -33 -44 0 -61 5 -85 25 -41 35
-55 74 -47 132 4 26 9 159 11 296 l5 247 116 0 116 0 -7 -232z m-1565 -330
l34 -42 -349 -342 -348 -341 -41 45 -42 45 345 338 c190 186 350 339 357 339
6 0 26 -19 44 -42z m3294 -294 c190 -185 345 -341 345 -347 0 -14 -60 -77 -74
-77 -10 0 -41 30 -450 428 l-260 252 39 40 c22 22 42 40 47 40 4 0 163 -151
353 -336z m-1785 -879 l0 -465 -60 0 -60 0 0 465 0 465 60 0 60 0 0 -465z
m-1876 -171 c9 -8 16 -21 16 -27 0 -21 -30 -57 -47 -57 -21 0 -53 29 -53 47 0
47 52 70 84 37z m3692 8 c37 -25 19 -82 -27 -82 -41 0 -61 40 -34 70 19 21 42
25 61 12z m-1206 -652 c0 -82 5 -76 -135 -177 -55 -40 -112 -82 -126 -93 l-27
-20 -23 34 c-32 47 -72 68 -129 69 -86 1 -140 -57 -140 -150 0 -46 6 -61 46
-120 43 -63 46 -71 42 -119 -12 -146 -185 -213 -299 -117 -41 35 -59 74 -59
128 0 53 9 74 57 129 27 32 33 48 33 85 0 52 -31 123 -63 144 -62 40 -141 26
-200 -35 -23 -24 -42 -36 -50 -32 -6 4 -67 48 -134 98 l-123 91 0 78 0 77 665
0 665 0 0 -70z"/>
<path d="M1349 6645 c-108 -35 -202 -133 -235 -244 -24 -84 -16 -200 20 -271
31 -63 105 -142 153 -165 l33 -16 0 -183 c0 -100 -2 -185 -5 -188 -3 -3 -30
-1 -60 4 -115 20 -264 -27 -361 -115 -108 -97 -154 -203 -154 -352 0 -112 21
-188 75 -269 97 -146 268 -227 443 -210 l62 7 0 -179 0 -179 -36 -20 c-19 -10
-60 -45 -90 -77 -71 -78 -99 -161 -92 -281 8 -138 74 -239 196 -299 62 -31 74
-33 167 -33 89 0 106 3 157 28 75 37 134 98 172 177 27 58 31 75 31 155 0 77
-4 98 -28 150 -31 67 -103 147 -158 175 -20 11 -39 29 -43 42 -3 13 -6 158 -6
323 0 280 -1 302 -20 332 -32 53 -108 81 -169 63 -19 -5 -52 -26 -72 -46 -28
-28 -48 -37 -82 -41 -64 -8 -111 3 -147 34 -107 90 -87 245 40 311 72 36 116
28 214 -43 76 -55 163 -42 213 34 23 33 23 39 23 331 0 164 3 311 6 328 5 23
16 34 46 48 55 25 132 113 159 182 35 86 33 206 -5 288 -34 75 -112 155 -181
185 -64 29 -198 36 -266 14z m170 -301 c75 -63 2 -172 -90 -134 -35 15 -49 37
-49 77 1 73 81 106 139 57z m0 -2340 c25 -20 31 -34 31 -64 0 -30 -6 -44 -31
-64 -17 -14 -39 -26 -49 -26 -81 0 -118 93 -61 151 36 36 70 37 110 3z"/>
<path d="M8577 6649 c-97 -23 -191 -101 -235 -197 -37 -82 -43 -213 -12 -294
26 -71 103 -158 165 -188 l45 -22 0 -322 c0 -319 0 -323 23 -357 52 -78 137
-87 232 -23 71 46 113 58 164 44 78 -21 141 -101 141 -177 -1 -54 -32 -116
-75 -149 -30 -22 -50 -29 -99 -32 -64 -3 -73 0 -150 62 -29 23 -46 28 -87 28
-55 0 -87 -17 -123 -66 -20 -26 -21 -42 -24 -350 l-3 -323 -39 -18 c-54 -24
-125 -103 -158 -173 -24 -50 -27 -69 -27 -162 0 -101 1 -108 34 -168 64 -117
163 -182 292 -190 126 -7 224 31 303 118 102 113 122 280 51 420 -25 49 -101
127 -152 156 l-33 18 0 179 0 180 68 -7 c179 -16 371 85 454 240 53 99 73 244
47 353 -29 126 -126 249 -243 306 -102 50 -194 62 -303 39 l-23 -4 0 194 0
194 24 6 c37 9 134 104 160 155 52 103 57 205 16 313 -23 61 -86 139 -140 173
-77 49 -197 67 -293 44z m160 -311 c65 -61 -13 -163 -98 -128 -47 20 -64 74
-38 121 23 43 94 47 136 7z m1 -2344 c26 -30 28 -70 6 -102 -38 -54 -125 -46
-150 13 -39 93 77 165 144 89z"/>
<path d="M1923 5930 c-18 -4 -40 -13 -49 -20 -44 -37 -43 -29 -46 -802 -2
-683 -1 -735 16 -766 43 -82 180 -81 240 1 19 26 21 45 24 244 l4 215 586 -3
c586 -3 587 -3 628 18 47 25 122 105 130 140 l6 23 197 0 c171 0 201 3 238 19
68 32 92 104 57 177 -30 62 -54 68 -287 72 l-207 4 -14 26 c-23 44 -78 94
-126 115 -43 19 -68 20 -627 21 l-582 1 -3 210 c-3 178 -6 215 -21 242 -28 52
-99 79 -164 63z m1267 -825 l0 -55 -540 0 -540 0 0 55 0 55 540 0 540 0 0 -55z"/>
<path d="M8135 5933 c-29 -8 -64 -33 -78 -57 -8 -14 -14 -96 -17 -239 l-5
-219 -590 -2 c-541 -1 -593 -3 -630 -19 -48 -22 -109 -79 -126 -118 l-11 -29
-182 -1 c-230 0 -271 -7 -308 -48 -37 -41 -40 -123 -6 -166 39 -50 70 -56 290
-55 l200 2 23 -49 c23 -50 63 -91 119 -120 28 -15 90 -17 626 -18 l595 0 5
-215 c5 -227 8 -241 56 -279 51 -40 153 -19 197 41 19 26 20 47 21 767 1 735
1 740 -20 768 -32 43 -107 70 -159 56z m-95 -828 l0 -55 -545 0 -545 0 0 55 0
55 545 0 545 0 0 -55z"/>
</g>
</svg>
