<?xml version="1.0" standalone="no"?>
<!DOCTYPE svg PUBLIC "-//W3C//DTD SVG 20010904//EN"
 "http://www.w3.org/TR/2001/REC-SVG-20010904/DTD/svg10.dtd">
<svg version="1.0" xmlns="http://www.w3.org/2000/svg"
 width="1024.000000pt" height="1024.000000pt" viewBox="0 0 1024.000000 1024.000000"
 preserveAspectRatio="xMidYMid meet">
<metadata>
Created by potrace 1.16, written by Peter Selinger 2001-2019
</metadata>
<g transform="translate(0.000000,1024.000000) scale(0.100000,-0.100000)"
fill="#000000" stroke="none">
<path d="M4810 8810 c-377 -32 -784 -128 -1155 -271 l-190 -74 -330 -5 c-308
-6 -335 -8 -400 -29 -123 -40 -203 -89 -290 -176 -165 -165 -215 -307 -215
-613 l0 -153 -58 -77 c-237 -312 -464 -726 -591 -1077 -166 -459 -243 -943
-228 -1425 19 -600 149 -1111 424 -1661 51 -103 93 -192 93 -198 0 -6 -57
-127 -126 -269 -145 -296 -178 -374 -194 -457 -7 -39 -10 -153 -8 -330 3 -254
5 -273 26 -327 59 -146 169 -266 306 -333 165 -82 -122 -76 3248 -73 l3013 3
80 27 c200 68 336 197 404 382 25 69 26 80 29 331 4 348 4 349 -193 752 l-146
302 42 72 c89 154 218 454 289 676 286 895 259 1786 -82 2643 -120 302 -276
579 -515 917 l-93 132 0 179 c0 147 -4 193 -20 258 -63 244 -212 402 -465 490
-80 28 -80 28 -415 34 l-335 5 -80 33 c-331 138 -771 254 -1135 297 -160 19
-542 27 -690 15z m2531 -630 c160 -30 290 -150 342 -315 l22 -70 0 -2050 c0
-1610 -3 -2061 -13 -2103 -28 -121 -122 -252 -219 -305 -111 -60 28 -57 -2383
-57 -2435 0 -2266 -4 -2379 63 -91 54 -158 141 -199 256 -15 42 -17 222 -20
2101 -1 1299 1 2078 7 2118 21 134 108 260 220 316 113 58 -31 55 2362 55
1439 1 2225 -2 2260 -9z m-4883 -4980 c57 -57 174 -130 207 -130 25 0 19 -17
-85 -250 -51 -112 -95 -220 -97 -240 -7 -51 26 -112 71 -134 31 -14 115 -16
855 -16 452 0 821 -2 821 -4 0 -2 -11 -33 -24 -68 -78 -207 -146 -424 -146
-467 0 -56 27 -103 72 -128 31 -17 86 -18 958 -18 842 0 928 1 955 17 44 24
72 58 83 101 13 47 6 74 -87 349 -39 114 -71 210 -71 213 0 3 362 5 805 5 887
0 849 -3 899 62 47 62 43 76 -91 391 -42 97 -74 179 -72 180 2 2 39 20 82 41
90 43 177 120 227 199 19 31 38 55 42 54 4 -1 108 -206 230 -456 212 -433 223
-457 226 -521 5 -75 -14 -124 -65 -172 -65 -62 -66 -62 -658 -68 -402 -4 -546
-8 -562 -17 -11 -7 -31 -29 -43 -49 -46 -74 -5 -171 83 -195 25 -6 227 -9 580
-7 523 3 544 4 593 24 28 11 72 35 97 52 l46 32 6 -54 c17 -135 -58 -289 -166
-343 -113 -57 97 -53 -3134 -53 -2637 0 -2977 2 -3030 15 -120 32 -200 96
-244 196 -23 52 -36 153 -27 204 l7 35 32 -24 c18 -14 60 -38 92 -53 l60 -28
565 0 c620 0 612 -1 650 60 37 60 17 154 -42 187 -18 10 -144 14 -568 18 -604
6 -586 4 -659 73 -43 41 -61 84 -61 147 0 69 16 110 185 465 81 171 174 366
207 435 l59 124 40 -63 c22 -35 66 -89 97 -121z m1282 -194 c0 -11 -122 -292
-132 -303 -14 -17 -788 -19 -788 -2 0 9 91 212 126 282 l15 27 389 0 c215 0
390 -2 390 -4z m660 -8 c0 -7 -22 -78 -49 -158 l-48 -145 -202 -3 c-110 -1
-201 0 -201 3 0 3 25 65 56 138 31 72 60 142 65 155 8 22 11 22 194 22 141 0
185 -3 185 -12z m1161 -133 c26 -77 48 -148 48 -157 1 -17 -30 -18 -509 -18
-426 0 -510 2 -510 14 0 11 43 144 95 294 4 10 92 12 417 10 l412 -3 47 -140z
m675 -5 c29 -80 53 -151 54 -157 0 -10 -45 -13 -192 -13 l-193 0 -47 138 c-25
75 -49 147 -53 160 l-6 22 191 -2 192 -3 54 -145z m1004 141 c0 -5 21 -53 46
-108 44 -93 84 -188 84 -198 0 -3 -175 -5 -389 -5 l-390 0 -60 156 c-34 85
-61 157 -61 160 0 2 173 4 385 4 224 0 385 -4 385 -9z m-1530 -638 c13 -38 45
-126 72 -197 26 -71 48 -133 48 -138 0 -4 -328 -8 -730 -8 -401 0 -730 2 -730
4 0 4 116 344 129 379 l11 27 588 0 588 0 24 -67z"/>
<path d="M5025 7866 c-53 -23 -43 -6 -400 -696 l-221 -425 -264 -5 c-376 -7
-360 9 -360 -350 l0 -230 -149 0 -150 0 -3 243 c-3 237 -3 243 -27 276 -35 48
-74 61 -191 61 l-100 0 0 145 0 145 388 0 c426 0 430 1 476 63 20 27 21 43 24
356 l3 327 -23 34 c-13 19 -35 40 -48 47 -19 10 -143 13 -515 13 -447 0 -493
-2 -525 -18 -76 -38 -93 -154 -31 -215 l31 -32 420 -3 420 -3 0 -143 0 -143
-407 -6 c-453 -6 -438 -4 -475 -78 -16 -30 -18 -68 -18 -339 0 -276 2 -309 19
-346 26 -57 71 -74 201 -74 l100 0 0 -155 0 -155 -119 0 c-106 0 -121 -2 -152
-23 -91 -61 -65 -218 42 -247 25 -7 173 -11 397 -10 196 1 369 1 384 0 l27 0
3 -254 c4 -370 -28 -346 464 -346 l351 0 84 -83 c121 -121 251 -177 409 -177
172 0 360 90 452 215 l33 44 360 1 c330 0 363 2 395 18 63 34 69 58 76 333 l6
246 157 6 c86 4 269 7 407 7 240 0 253 1 278 21 76 60 73 181 -6 229 -28 17
-50 20 -150 20 l-118 0 0 154 0 154 113 3 c125 4 152 15 188 72 18 30 19 49
17 359 l-3 326 -25 27 c-49 54 -58 55 -475 55 l-385 0 0 145 0 145 400 0 c443
0 442 0 480 63 39 64 14 162 -50 194 -19 10 -143 13 -515 13 -474 0 -491 -1
-523 -20 -59 -36 -62 -55 -62 -397 0 -339 2 -353 63 -397 28 -20 42 -21 425
-23 l397 -3 0 -142 0 -143 -116 -5 c-196 -9 -199 -14 -199 -345 l0 -235 -148
0 -149 0 -7 242 c-10 354 7 338 -361 338 -249 0 -250 0 -261 23 -6 12 -82 157
-168 322 -405 770 -395 754 -446 780 -35 18 -105 19 -145 1z m335 -868 c199
-391 241 -466 273 -492 l39 -31 234 -3 234 -3 0 -455 0 -454 -224 0 -223 0 -6
83 c-3 45 -15 112 -26 148 -31 98 -230 423 -402 655 -56 77 -75 94 -113 109
-58 22 -105 14 -151 -26 -43 -38 -119 -149 -302 -444 -155 -248 -184 -315
-198 -452 l-7 -73 -97 0 c-54 0 -153 -3 -219 -7 l-122 -6 0 461 0 462 208 0
c233 1 284 7 318 41 13 13 111 200 219 414 108 215 219 432 248 483 50 89 53
92 67 72 8 -12 121 -229 250 -482z m-135 -963 c58 -93 125 -208 148 -254 39
-79 42 -90 42 -165 -1 -139 -67 -245 -184 -300 -36 -16 -65 -21 -136 -21 -78
0 -97 4 -147 28 -134 66 -204 218 -168 366 12 51 116 235 248 438 53 82 69
100 78 90 7 -6 60 -88 119 -182z"/>
<path d="M3295 5583 c-36 -10 -68 -37 -81 -70 -12 -26 -14 -192 -14 -913 0
-943 -1 -920 50 -965 22 -20 36 -20 677 -20 l655 0 34 37 34 38 0 327 c0 311
-1 330 -20 361 -38 62 -34 62 -620 62 l-530 0 0 140 0 140 503 1 c276 0 524 4
551 8 59 10 111 59 121 115 9 46 -18 103 -64 133 l-34 23 -538 0 -538 0 -3
248 c-3 268 -5 278 -63 316 -26 17 -90 27 -120 19z m1095 -1563 l0 -140 -455
0 -455 0 0 140 0 140 455 0 455 0 0 -140z"/>
<path d="M6782 5570 c-68 -31 -72 -49 -72 -330 l0 -240 -541 0 c-599 0 -590 1
-630 -64 -23 -38 -25 -106 -4 -146 33 -63 43 -65 435 -66 195 -1 442 -2 548
-3 l192 -1 0 -140 0 -139 -537 -3 c-587 -3 -573 -2 -617 -61 -20 -28 -21 -40
-21 -350 0 -289 2 -325 18 -354 35 -65 11 -63 704 -63 605 0 629 1 660 20 67
40 63 -14 63 979 l0 900 -34 34 c-29 30 -72 48 -110 47 -6 0 -30 -9 -54 -20z
m-72 -1545 l0 -145 -455 0 -455 0 0 140 0 140 453 3 c248 1 453 3 455 5 1 1 2
-63 2 -143z"/>
<path d="M3594 2140 c-18 -6 -46 -26 -63 -45 -27 -31 -31 -43 -31 -90 0 -49 4
-60 33 -91 28 -31 42 -37 84 -41 93 -9 164 49 165 138 1 90 -96 157 -188 129z"/>
<path d="M6495 2136 c-55 -24 -78 -60 -83 -125 -4 -56 -2 -61 29 -95 56 -61
150 -62 213 -3 47 45 55 92 26 151 -34 71 -116 103 -185 72z"/>
</g>
</svg>
