<?xml version="1.0" standalone="no"?>
<!DOCTYPE svg PUBLIC "-//W3C//DTD SVG 20010904//EN"
 "http://www.w3.org/TR/2001/REC-SVG-20010904/DTD/svg10.dtd">
<svg version="1.0" xmlns="http://www.w3.org/2000/svg"
 width="1024.000000pt" height="1024.000000pt" viewBox="0 0 1024.000000 1024.000000"
 preserveAspectRatio="xMidYMid meet">
<metadata>
Created by potrace 1.16, written by Peter Selinger 2001-2019
</metadata>
<g transform="translate(0.000000,1024.000000) scale(0.100000,-0.100000)"
fill="#000000" stroke="none">
<path d="M1410 9390 c-400 -41 -715 -355 -760 -760 -8 -66 -10 -1185 -8 -3630
3 -3399 4 -3537 22 -3600 23 -81 83 -213 127 -277 120 -175 287 -298 486 -355
l78 -23 3705 0 3705 0 82 22 c111 31 179 62 267 123 168 116 287 286 348 497
l23 78 0 3615 c0 3458 -1 3618 -18 3680 -26 94 -97 235 -158 313 -102 132
-281 250 -454 299 l-80 23 -3645 1 c-2005 1 -3679 -2 -3720 -6z m7310 -361
c145 -23 284 -128 351 -265 l34 -69 3 -3580 c1 -2461 -1 -3596 -8 -3631 -29
-138 -137 -275 -267 -337 l-68 -32 -3700 0 -3700 0 -68 34 c-87 42 -175 127
-216 209 -66 131 -61 -181 -61 3727 0 3220 1 3556 16 3606 47 161 187 294 352
333 48 12 622 14 3662 15 2477 1 3625 -2 3670 -10z"/>
<path d="M1771 8507 c-46 -15 -98 -68 -110 -114 -7 -25 -11 -320 -11 -868 0
-786 1 -832 19 -870 22 -48 54 -79 103 -100 33 -13 133 -15 783 -15 l745 0 0
-122 c1 -166 23 -215 113 -253 87 -36 201 3 244 85 l23 44 -2 1051 -3 1052
-29 41 c-16 23 -46 50 -70 62 -42 20 -57 20 -907 19 -592 -1 -875 -4 -898 -12z
m1529 -972 l0 -625 -638 0 -639 0 -6 173 c-9 218 -9 990 -1 1040 l7 37 638 0
639 0 0 -625z"/>
<path d="M6575 8508 c-37 -13 -81 -53 -103 -93 -15 -27 -17 -122 -20 -1056 -3
-737 0 -1038 8 -1068 41 -152 252 -189 338 -58 24 36 27 51 28 131 1 50 2 110
3 134 l1 42 749 0 c532 0 758 3 782 11 55 19 96 56 113 101 15 39 16 130 14
894 l-3 850 -27 41 c-16 24 -44 49 -70 62 -44 21 -47 21 -914 20 -577 0 -879
-4 -899 -11z m1545 -973 l0 -625 -645 0 -645 0 0 73 c0 39 0 302 -1 582 0 281
0 529 0 553 l1 42 645 0 645 0 0 -625z"/>
<path d="M4875 8474 c-181 -40 -324 -122 -456 -262 -175 -184 -248 -383 -236
-638 12 -269 136 -504 352 -671 83 -64 78 -48 49 -188 -89 -428 -413 -829
-843 -1045 -114 -57 -328 -131 -454 -156 -135 -27 -173 -48 -208 -116 -66
-129 46 -282 195 -264 146 17 456 117 625 201 393 197 692 481 888 845 79 146
154 368 169 501 l7 59 103 0 c101 0 104 -1 104 -22 0 -13 9 -65 20 -117 119
-562 545 -1062 1115 -1306 181 -77 485 -165 575 -165 48 0 118 37 154 82 40
51 47 127 18 185 -30 58 -73 90 -139 103 -440 88 -767 261 -1016 539 -182 202
-285 399 -343 651 -37 161 -38 156 58 231 146 115 267 297 320 484 19 67 23
102 22 215 -1 116 -5 147 -28 224 -89 295 -295 512 -576 607 -88 30 -107 32
-250 35 -114 3 -173 0 -225 -12z m324 -359 c89 -23 162 -66 231 -135 83 -83
127 -166 146 -273 46 -264 -112 -517 -370 -594 -63 -19 -194 -21 -266 -4 -222
53 -390 270 -390 506 0 143 50 264 150 365 106 107 206 148 360 149 47 1 109
-6 139 -14z"/>
<path d="M1785 5541 c-45 -20 -102 -79 -111 -115 -3 -13 -4 -109 -2 -213 l3
-189 39 -80 c52 -105 171 -227 266 -272 74 -35 194 -62 272 -62 l53 0 -3 -709
-2 -708 -68 -18 c-153 -42 -320 -152 -426 -280 -54 -67 -136 -229 -161 -320
-25 -91 -31 -302 -12 -397 90 -433 458 -716 902 -695 269 13 497 129 653 331
53 69 129 213 138 263 l6 33 1730 -2 1730 -3 33 -81 c102 -254 294 -429 562
-511 80 -24 103 -27 248 -27 145 0 168 3 250 28 249 75 413 207 529 428 25 45
57 124 72 173 25 81 28 105 27 235 0 116 -4 161 -21 225 -61 228 -222 431
-421 533 -77 40 -188 82 -216 82 -13 0 -15 86 -15 709 l0 709 87 7 c101 8 201
39 280 87 109 66 216 208 249 332 17 62 19 361 3 403 -14 38 -67 92 -106 109
-74 32 -170 3 -227 -69 l-31 -39 -5 -166 c-6 -196 -13 -212 -108 -259 l-57
-28 -300 -1 c-328 -1 -344 -4 -397 -60 -65 -70 -65 -178 0 -247 43 -45 78 -59
158 -61 l74 -1 0 -711 0 -710 -74 -18 c-174 -41 -363 -176 -477 -342 -46 -67
-97 -181 -115 -259 -9 -38 -18 -76 -20 -82 -3 -10 -352 -13 -1707 -13 l-1704
0 -22 88 c-76 300 -312 540 -600 610 l-71 17 0 706 0 706 75 6 c127 9 194 66
203 172 6 69 -25 136 -78 171 -37 24 -37 24 -346 28 -329 3 -347 6 -412 54
-62 47 -73 85 -71 240 1 148 -1 160 -39 211 -48 65 -140 87 -217 52z m828
-2696 c92 -19 160 -58 238 -135 105 -103 149 -211 149 -361 0 -283 -219 -509
-495 -509 -151 0 -275 52 -375 156 -186 193 -188 500 -4 702 65 72 139 116
234 141 90 24 162 26 253 6z m5123 4 c274 -49 459 -325 401 -596 -54 -248
-249 -412 -489 -413 -292 0 -511 216 -510 505 0 156 52 277 164 381 117 110
269 153 434 123z"/>
<path d="M4176 5096 c-64 -24 -90 -49 -109 -106 -34 -102 1 -167 160 -297 109
-89 221 -284 249 -433 51 -269 -50 -523 -292 -734 -115 -100 -145 -159 -123
-239 15 -55 81 -121 137 -136 89 -25 174 22 329 182 159 163 244 308 309 523
36 118 45 324 20 457 -36 191 -129 383 -260 541 -55 65 -212 204 -258 227 -52
27 -115 32 -162 15z"/>
<path d="M5827 5096 c-56 -20 -106 -58 -204 -155 -145 -142 -228 -264 -296
-436 -84 -213 -90 -495 -15 -720 58 -177 178 -357 331 -500 141 -132 231 -164
323 -117 143 73 146 228 5 336 -300 231 -407 588 -271 908 46 107 104 184 235
313 101 98 125 128 134 163 22 80 -22 166 -104 203 -47 22 -86 23 -138 5z"/>
</g>
</svg>
