<?xml version="1.0" standalone="no"?>
<!DOCTYPE svg PUBLIC "-//W3C//DTD SVG 20010904//EN"
 "http://www.w3.org/TR/2001/REC-SVG-20010904/DTD/svg10.dtd">
<svg version="1.0" xmlns="http://www.w3.org/2000/svg"
 width="1024.000000pt" height="1024.000000pt" viewBox="0 0 1024.000000 1024.000000"
 preserveAspectRatio="xMidYMid meet">
<metadata>
Created by potrace 1.16, written by Peter Selinger 2001-2019
</metadata>
<g transform="translate(0.000000,1024.000000) scale(0.100000,-0.100000)"
fill="#000000" stroke="none">
<path d="M4930 8920 c-213 -27 -429 -115 -600 -244 -209 -157 -362 -370 -435
-607 l-18 -56 -71 -2 c-76 -2 -189 -22 -258 -47 -119 -42 -259 -141 -345 -244
-49 -59 -131 -204 -145 -256 -5 -18 -15 -22 -82 -27 -213 -18 -405 -118 -535
-279 -103 -127 -153 -273 -154 -448 -1 -181 58 -329 186 -466 73 -78 122 -112
210 -146 52 -21 60 -21 2395 -20 2178 1 2347 2 2395 18 118 38 203 96 275 187
171 215 198 491 73 743 -103 207 -282 348 -520 408 l-95 24 -22 89 c-23 94
-79 216 -138 298 -78 109 -208 221 -321 278 -126 63 -325 106 -425 92 l-45 -6
-31 63 c-62 124 -215 302 -344 398 -143 106 -316 186 -487 226 -120 27 -348
39 -463 24z m385 -460 c96 -25 182 -64 267 -121 154 -104 288 -291 312 -435
12 -70 60 -140 119 -174 63 -36 118 -39 203 -9 92 31 143 38 203 27 209 -38
357 -249 335 -474 -12 -118 37 -213 132 -255 34 -16 64 -19 170 -17 115 2 136
0 188 -21 70 -28 141 -94 174 -162 42 -87 24 -196 -43 -259 l-27 -25 -2231 -3
c-1228 -1 -2242 0 -2254 3 -45 11 -92 64 -109 122 -26 90 -1 176 72 247 85 82
192 103 319 62 127 -41 197 -32 271 36 54 50 66 85 68 206 2 74 7 108 23 144
29 63 96 128 169 164 50 24 72 28 139 29 67 0 90 -5 140 -28 73 -34 127 -43
181 -28 65 17 106 51 137 110 25 50 27 64 27 170 0 102 4 126 29 199 91 260
336 457 639 512 75 14 258 4 347 -20z"/>
<path d="M2705 5878 c-204 -19 -358 -156 -401 -357 -21 -100 -20 -1252 1
-1334 45 -172 172 -307 339 -360 l71 -22 2365 0 c2229 0 2369 1 2429 18 137
38 249 125 315 246 57 106 57 100 56 791 0 418 -4 649 -11 675 -19 68 -69 156
-121 212 -57 59 -162 118 -231 128 -57 8 -4724 12 -4812 3z m4718 -586 l2
-132 -2337 0 -2338 0 0 129 0 130 28 4 c15 2 1066 4 2335 3 l2308 -1 2 -133z
m0 -795 c-4 -170 -7 -194 -23 -211 -19 -19 -61 -20 -2304 -20 l-2285 -1 -28
21 -28 21 -3 192 -2 191 2332 2 c1283 2 2336 2 2340 0 3 -1 4 -89 1 -195z"/>
<path d="M4940 3485 c-181 -33 -357 -168 -438 -336 -53 -108 -72 -190 -72
-309 0 -110 17 -188 61 -278 35 -72 132 -197 184 -236 l35 -27 0 -139 0 -140
-1122 -2 -1123 -3 -40 -22 c-132 -71 -164 -240 -67 -354 20 -23 54 -50 76 -60
40 -18 137 -19 2641 -19 1803 0 2612 3 2638 11 48 13 112 70 139 123 29 56 29
138 1 192 -28 53 -92 110 -140 123 -26 7 -396 11 -1145 11 l-1108 0 0 140 0
140 78 78 c131 131 190 259 199 432 12 227 -88 434 -272 565 -154 110 -325
146 -525 110z m238 -464 c20 -10 47 -30 59 -43 24 -26 53 -98 53 -132 0 -118
-113 -217 -231 -203 -65 8 -106 32 -143 84 -70 100 -33 239 79 297 42 22 137
21 183 -3z"/>
</g>
</svg>
