<?xml version="1.0" standalone="no"?>
<!DOCTYPE svg PUBLIC "-//W3C//DTD SVG 20010904//EN"
 "http://www.w3.org/TR/2001/REC-SVG-20010904/DTD/svg10.dtd">
<svg version="1.0" xmlns="http://www.w3.org/2000/svg"
 width="1024.000000pt" height="1024.000000pt" viewBox="0 0 1024.000000 1024.000000"
 preserveAspectRatio="xMidYMid meet">
<metadata>
Created by potrace 1.16, written by Peter Selinger 2001-2019
</metadata>
<g transform="translate(0.000000,1024.000000) scale(0.100000,-0.100000)"
fill="#000000" stroke="none">
<path d="M5150 8219 c-120 -24 -246 -125 -303 -246 -30 -64 -32 -74 -32 -183
0 -109 2 -119 32 -183 42 -88 119 -169 200 -209 l63 -31 0 -326 0 -327 -97
-11 c-173 -19 -336 -91 -478 -209 -55 -46 -148 -161 -177 -218 -11 -23 -22
-42 -23 -44 -2 -2 -25 20 -51 49 -108 115 -266 206 -434 251 -83 21 -102 22
-692 25 l-607 4 -24 42 c-53 90 -137 139 -241 140 -165 3 -279 -99 -293 -262
-8 -98 14 -165 78 -235 64 -71 136 -100 222 -93 72 6 155 46 197 94 l32 36
599 -2 599 -2 87 -25 c172 -50 290 -140 354 -270 l34 -69 3 -342 3 -343 -903
0 -903 0 -14 31 c-34 77 -120 131 -221 137 -258 15 -403 -295 -230 -492 54
-61 121 -90 210 -90 91 0 157 29 214 96 l37 42 904 1 905 0 0 -291 c0 -264 -2
-298 -20 -357 -46 -150 -191 -278 -376 -333 -53 -16 -121 -18 -666 -21 l-606
-4 -53 47 c-69 61 -109 77 -194 78 -162 1 -278 -111 -292 -283 -8 -99 15 -160
86 -232 41 -40 69 -59 104 -68 59 -17 171 -10 215 13 49 26 111 85 133 128
l19 38 544 0 c573 0 637 4 785 46 244 70 424 212 526 414 66 132 68 143 73
498 l4 322 804 0 c442 0 807 -1 811 -2 5 -2 7 -142 6 -313 -2 -350 -8 -398
-71 -525 -44 -89 -161 -217 -246 -269 -170 -102 -379 -127 -521 -60 -102 48
-180 149 -192 248 -12 102 47 214 132 252 35 16 69 19 255 19 241 0 265 5 307
69 31 45 30 97 -2 144 -45 65 -55 67 -329 67 -212 0 -252 -3 -305 -19 -142
-44 -251 -151 -311 -306 -21 -52 -24 -77 -24 -195 0 -117 2 -142 22 -191 46
-115 167 -256 260 -303 l32 -17 0 -328 0 -329 -57 -28 c-80 -39 -158 -121
-202 -214 -34 -71 -36 -81 -36 -180 0 -97 2 -110 31 -170 43 -91 129 -182 211
-222 57 -28 79 -33 159 -36 164 -7 284 46 376 167 67 87 92 174 86 293 -5 77
-11 100 -42 163 -41 83 -124 168 -200 205 l-46 22 0 294 0 294 79 0 c43 0 116
7 161 16 78 14 221 64 247 86 8 6 21 5 40 -6 15 -8 107 -53 203 -99 96 -47
272 -132 390 -190 l215 -105 140 -158 c77 -87 168 -191 203 -232 l62 -74 -6
-62 c-13 -123 50 -243 156 -301 107 -58 265 -32 344 56 55 60 79 115 84 194 8
132 -60 246 -179 300 -55 24 -70 27 -133 22 -68 -5 -72 -5 -96 23 -216 243
-314 356 -359 408 -29 34 -57 62 -61 62 -20 0 -730 346 -730 355 0 4 15 24 33
45 18 22 50 68 71 105 l39 65 48 -45 c95 -89 302 -203 449 -247 73 -21 90 -22
631 -26 l556 -3 11 -25 c21 -44 96 -117 147 -140 98 -46 222 -26 313 51 97 82
124 242 62 365 -88 173 -324 208 -466 69 l-41 -40 -559 3 c-554 3 -560 4 -629
27 -194 64 -357 212 -405 368 -18 58 -20 93 -20 337 l0 271 843 2 842 2 30
-47 c83 -128 295 -131 405 -6 80 91 99 221 48 324 -53 109 -128 160 -243 168
-106 7 -191 -35 -246 -120 l-31 -48 -824 0 -824 0 0 323 c0 343 4 377 51 474
31 63 131 161 200 195 118 59 120 60 764 62 l590 1 56 -50 c71 -64 138 -89
223 -83 69 6 146 40 188 85 34 36 76 125 84 181 9 60 -18 155 -61 214 -81 111
-243 145 -375 78 -36 -18 -107 -88 -128 -126 -10 -18 -30 -19 -604 -25 -656
-6 -666 -7 -821 -74 -180 -78 -334 -234 -397 -403 -51 -134 -55 -177 -55 -522
l0 -325 -813 -3 -813 -2 3 332 c4 331 4 333 31 413 69 207 222 367 417 437 55
19 84 23 195 23 122 0 133 -2 187 -28 117 -57 178 -145 186 -265 7 -115 -34
-198 -122 -245 -37 -20 -60 -22 -261 -27 -139 -3 -227 -9 -240 -17 -100 -58
-97 -188 6 -241 43 -22 50 -23 295 -20 l250 3 76 37 c259 128 361 474 223 755
-48 98 -148 197 -255 252 l-80 42 0 342 0 342 55 29 c76 40 155 121 196 203
33 66 34 71 34 188 0 114 -2 124 -31 185 -89 187 -290 289 -494 249z m147
-280 c34 -13 80 -55 99 -91 34 -65 -2 -166 -71 -204 -50 -26 -137 -16 -176 22
-47 44 -62 80 -57 135 10 105 112 173 205 138z m9 -5328 c49 -22 80 -60 95
-113 9 -35 7 -46 -15 -92 -27 -54 -51 -75 -104 -87 -72 -16 -161 38 -183 111
-22 74 22 159 96 185 52 18 62 18 111 -4z"/>
<path d="M2986 8000 c-57 -23 -107 -67 -144 -129 -34 -58 -42 -175 -18 -249
23 -69 91 -143 157 -172 43 -18 66 -21 128 -18 46 2 90 10 111 21 l34 18 406
-405 c269 -269 414 -407 433 -411 90 -23 177 49 177 145 0 58 -16 83 -122 187
-51 50 -240 239 -420 420 -304 305 -328 331 -328 363 0 46 -46 125 -103 177
-77 71 -208 93 -311 53z"/>
<path d="M7301 7998 c-89 -34 -155 -117 -185 -233 -10 -40 -54 -87 -432 -468
-232 -233 -426 -433 -433 -445 -30 -56 -1 -144 61 -182 86 -52 100 -43 549
406 391 391 397 396 420 381 99 -62 277 -26 363 74 161 188 18 491 -232 488
-32 0 -80 -9 -111 -21z"/>
<path d="M3855 3587 c-33 -10 -92 -68 -351 -337 l-312 -325 -66 3 c-97 5 -158
-18 -227 -87 -71 -72 -94 -132 -87 -235 17 -265 319 -379 499 -189 66 68 84
116 84 218 0 79 3 94 23 120 13 16 155 163 317 327 328 333 333 339 300 424
-27 70 -103 104 -180 81z"/>
</g>
</svg>
