<?xml version="1.0" standalone="no"?>
<!DOCTYPE svg PUBLIC "-//W3C//DTD SVG 20010904//EN"
 "http://www.w3.org/TR/2001/REC-SVG-20010904/DTD/svg10.dtd">
<svg version="1.0" xmlns="http://www.w3.org/2000/svg"
 width="1024.000000pt" height="1024.000000pt" viewBox="0 0 1024.000000 1024.000000"
 preserveAspectRatio="xMidYMid meet">
<metadata>
Created by potrace 1.16, written by Peter Selinger 2001-2019
</metadata>
<g transform="translate(0.000000,1024.000000) scale(0.100000,-0.100000)"
fill="#000000" stroke="none">
<path d="M4965 10126 c-22 -7 -159 -73 -305 -147 -388 -196 -381 -185 -383
-547 -2 -220 -1 -229 22 -280 14 -30 42 -69 66 -90 25 -21 153 -92 299 -165
l256 -128 0 -77 0 -77 -153 -78 c-601 -309 -1065 -546 -1322 -675 -165 -82
-312 -161 -327 -175 -79 -74 -87 -202 -17 -281 16 -19 54 -45 84 -57 l55 -23
0 -98 c0 -110 13 -149 70 -203 17 -16 162 -95 323 -175 l292 -146 3 -192 c1
-106 0 -192 -2 -192 -2 0 -86 41 -187 91 -100 50 -277 136 -393 191 -116 55
-255 123 -308 150 l-98 50 0 106 c0 59 -4 113 -8 120 -5 8 -30 13 -64 13 -136
2 -268 -134 -268 -276 0 -50 28 -119 67 -165 28 -33 69 -58 190 -117 l154 -76
-43 -24 c-24 -14 -99 -51 -167 -84 -68 -33 -141 -73 -161 -89 -111 -88 -111
-275 -2 -371 36 -32 171 -100 822 -414 179 -86 330 -162 336 -168 7 -8 9 -72
5 -203 l-6 -190 -465 228 c-255 126 -466 230 -467 232 -2 1 -5 24 -8 51 -9 89
-60 145 -142 152 -39 4 -55 0 -82 -19 -51 -35 -70 -67 -82 -138 -19 -116 5
-204 75 -272 35 -34 104 -70 466 -246 107 -52 276 -134 375 -182 99 -48 200
-99 225 -113 l44 -26 -517 -256 c-486 -241 -519 -259 -546 -298 -38 -56 -51
-120 -36 -180 25 -99 11 -91 681 -423 l614 -305 0 -345 c0 -271 -3 -345 -12
-342 -33 8 -959 480 -954 486 4 3 46 26 94 52 75 39 90 51 110 90 27 54 27 82
3 137 -23 50 -57 74 -114 80 -38 5 -56 -2 -152 -53 -223 -117 -152 -103 -548
-104 -220 0 -355 4 -368 10 -52 28 -49 -58 -49 1689 0 1172 3 1627 11 1645 14
29 50 48 145 75 96 28 160 73 197 139 28 49 29 58 28 160 -1 85 -6 116 -22
149 -38 78 -114 109 -193 79 -59 -23 -87 -65 -95 -142 -4 -35 -9 -65 -11 -68
-3 -2 -47 -23 -98 -45 -51 -23 -109 -52 -127 -64 -46 -31 -90 -88 -112 -145
-17 -45 -18 -133 -18 -1792 l0 -1745 29 -63 c35 -77 106 -144 175 -167 41 -13
100 -16 358 -16 l309 0 64 -55 c50 -43 132 -89 355 -201 160 -80 668 -336
1130 -568 462 -233 864 -430 894 -439 75 -22 166 -20 236 4 32 11 171 78 309
149 418 214 712 364 1675 852 290 147 333 178 364 265 33 94 12 181 -63 254
-63 62 -337 201 -395 200 -116 -1 -186 -136 -120 -232 18 -27 48 -47 120 -82
l95 -46 -257 -131 c-142 -72 -358 -183 -480 -246 l-223 -115 0 340 c0 266 3
342 13 350 7 6 265 140 572 298 308 157 574 297 592 310 48 36 74 87 80 154 5
50 2 67 -20 113 -15 29 -39 62 -54 73 -15 11 -250 132 -520 269 -271 136 -493
251 -493 254 0 4 192 102 428 219 l427 213 237 -1 c233 0 237 0 252 -22 14
-19 16 -68 16 -328 0 -345 5 -377 66 -448 67 -78 91 -86 317 -92 194 -5 199
-6 218 -29 18 -22 19 -53 19 -937 l0 -914 -36 -15 c-102 -42 -190 -139 -230
-253 -75 -212 20 -450 216 -543 l48 -23 -2 -84 c-4 -137 141 -122 -1200 -121
-1086 0 -1150 1 -1127 17 23 16 184 98 1054 540 210 106 345 181 374 206 66
58 93 122 93 221 -1 133 -54 214 -148 223 -92 8 -150 -46 -159 -148 l-6 -60
-231 -119 c-127 -65 -418 -214 -646 -331 -785 -401 -845 -433 -868 -454 -55
-49 -77 -144 -51 -213 24 -65 100 -113 180 -115 27 -1 49 -4 49 -7 0 -8 -160
-96 -382 -210 -190 -97 -228 -107 -309 -79 -51 17 -539 279 -539 289 0 5 22 9
48 9 63 0 139 38 172 87 50 73 26 200 -48 251 -15 11 -261 137 -547 282 -882
446 -1189 602 -1202 613 -7 5 -13 30 -13 56 0 153 -188 207 -277 79 -26 -39
-28 -47 -28 -147 0 -118 13 -158 70 -215 20 -20 282 -157 747 -389 394 -197
724 -365 734 -372 16 -12 -184 -14 -1438 -15 l-1457 0 -27 23 c-20 18 -28 35
-32 75 -8 92 1 113 70 152 152 87 235 262 208 436 -22 143 -106 264 -219 320
l-61 29 0 715 0 715 48 22 c98 46 178 140 218 260 17 52 21 82 18 142 -8 171
-93 305 -231 368 l-53 24 0 122 c0 102 -3 127 -19 150 -27 42 -75 67 -127 67
-56 0 -95 -20 -126 -62 -20 -29 -23 -46 -26 -154 l-4 -121 -41 -20 c-60 -29
-137 -102 -174 -164 -89 -149 -79 -350 25 -486 50 -65 77 -88 144 -120 l57
-28 -1 -717 0 -716 -26 -7 c-40 -10 -129 -73 -161 -113 -110 -140 -131 -333
-55 -490 35 -71 116 -152 186 -186 l57 -28 -2 -138 c-1 -135 -1 -139 29 -196
33 -65 98 -122 174 -151 42 -17 138 -18 1415 -23 l1370 -5 150 -75 c83 -42
323 -164 535 -273 242 -123 409 -202 449 -213 64 -16 132 -15 196 4 36 11 255
120 570 285 127 66 298 154 380 196 l150 76 1070 5 1070 5 59 24 c77 31 147
99 169 166 13 36 17 84 17 184 l0 136 46 19 c67 27 145 110 190 201 32 66 38
88 42 161 10 184 -72 335 -224 416 l-44 23 -2 975 -3 975 -28 57 c-30 62 -83
115 -149 150 -39 21 -58 23 -225 26 -174 3 -184 5 -198 25 -13 18 -15 73 -15
337 0 311 -1 316 -24 366 -29 62 -85 120 -140 145 -34 15 -66 19 -183 19
l-143 0 0 59 c0 71 -12 106 -48 145 -51 54 -117 69 -179 40 -46 -22 -64 -52
-77 -127 l-11 -62 -230 -115 c-127 -63 -596 -297 -1043 -520 l-813 -405 -87 0
-88 0 -374 184 c-206 101 -403 197 -436 213 -75 37 -74 32 -74 258 l0 168 393
-190 c215 -104 420 -201 453 -213 85 -33 183 -29 279 10 39 15 552 268 1140
562 796 398 1080 544 1108 571 51 49 69 84 82 162 l11 65 140 5 c127 5 144 7
196 33 33 16 70 45 89 68 55 69 59 101 59 428 0 269 -2 300 -19 338 -14 30
-31 48 -60 62 -50 26 -84 26 -139 1 -33 -15 -47 -29 -62 -62 -18 -39 -20 -67
-20 -290 0 -135 -3 -253 -6 -262 -5 -14 -45 -16 -340 -16 -184 0 -334 3 -334
8 0 4 69 42 154 84 85 42 171 91 191 109 78 69 107 192 66 284 -46 105 -117
162 -214 172 -76 8 -87 -9 -87 -137 l0 -96 -202 -99 c-112 -54 -328 -161 -481
-237 l-277 -138 2 191 3 191 290 149 c319 163 344 181 371 276 10 33 14 80 12
123 l-3 70 33 11 c47 15 102 66 123 114 28 61 24 121 -11 182 -35 61 -51 73
-195 145 -60 30 -258 132 -440 225 -334 172 -1111 568 -1152 588 -21 9 -23 17
-23 92 l0 82 253 130 c140 72 272 144 294 160 26 19 51 50 68 84 26 55 26 57
28 294 3 353 11 342 -389 544 -157 80 -291 141 -322 148 -68 14 -146 13 -197
-3z m-45 -2264 c0 -172 2 -202 18 -232 20 -38 89 -80 132 -80 42 0 113 42 135
80 18 31 20 56 23 231 l3 196 222 -109 c122 -61 268 -132 325 -159 118 -57
142 -84 142 -161 0 -80 -14 -90 -399 -281 l-346 -171 -102 -1 -102 0 -336 170
c-184 93 -347 179 -361 190 -33 27 -54 89 -43 129 5 17 24 45 41 62 29 27 615
334 639 334 5 0 9 -89 9 -198z m970 -1352 l0 -351 -367 -182 -366 -182 -86 0
-86 0 -360 180 -360 181 -3 347 c-1 191 0 347 3 347 3 0 153 -74 334 -164 180
-91 353 -172 385 -181 44 -13 75 -15 125 -10 60 6 99 23 416 185 193 99 353
179 358 179 4 1 7 -157 7 -349z m-2551 -261 c58 -29 365 -179 681 -334 959
-470 933 -458 1014 -465 39 -3 91 -2 116 2 52 9 274 116 1120 541 l615 308 3
-33 c10 -137 74 -197 212 -198 36 0 71 -4 79 -9 10 -7 -280 -156 -1000 -517
l-1014 -509 -90 0 -90 0 -200 101 c-110 56 -470 233 -800 394 -857 419 -1017
499 -1011 509 3 5 36 21 73 36 38 15 83 36 102 47 39 25 70 87 71 141 0 20 3
37 6 37 4 0 54 -23 113 -51z m899 -1949 l82 -39 0 -84 c0 -111 21 -178 71
-228 48 -48 529 -291 613 -310 103 -23 143 -10 438 137 300 151 336 177 362
265 9 29 16 90 16 135 l0 83 77 40 c43 23 81 41 85 41 4 0 121 -56 260 -125
286 -142 325 -170 314 -233 -3 -20 -18 -48 -33 -63 -16 -16 -318 -173 -681
-354 -573 -285 -661 -326 -719 -335 -39 -5 -85 -5 -112 0 -27 5 -327 148 -712
338 -704 349 -719 358 -719 424 0 65 34 90 303 223 139 68 257 124 263 124 5
1 47 -17 92 -39z m732 -1748 c116 -36 186 -22 378 75 336 171 450 228 495 249
l47 23 0 -343 0 -342 -132 -68 c-73 -38 -230 -119 -348 -181 -118 -62 -233
-118 -254 -125 -23 -7 -67 -10 -106 -8 -63 5 -86 15 -404 177 -186 94 -349
179 -362 188 l-24 15 0 344 0 344 338 -169 c185 -92 353 -173 372 -179z"/>
<path d="M1921 9264 c-256 -69 -389 -356 -278 -598 36 -78 124 -167 199 -201
82 -38 223 -46 314 -20 223 64 349 289 289 519 -59 227 -295 362 -524 300z"/>
<path d="M7770 9262 c-276 -72 -402 -378 -263 -635 34 -62 128 -149 187 -173
l46 -19 0 -402 0 -403 -184 0 c-196 0 -233 -6 -278 -48 -74 -69 -53 -194 41
-242 39 -20 56 -20 709 -20 742 0 732 -1 809 65 23 20 54 61 70 93 l28 57 0
250 c0 233 -1 253 -21 289 -51 98 -206 101 -255 5 -14 -27 -19 -76 -26 -239
l-8 -205 -292 -3 -293 -2 0 408 0 408 35 13 c56 20 147 111 183 183 46 89 59
169 44 265 -30 190 -137 310 -318 357 -78 20 -131 19 -214 -2z"/>
<path d="M8667 9265 c-125 -34 -220 -112 -271 -220 -104 -219 -26 -470 178
-570 84 -42 173 -55 276 -42 285 37 440 360 302 631 -24 48 -113 136 -164 162
-102 52 -222 66 -321 39z"/>
<path d="M2910 9057 c-93 -62 -97 -195 -8 -258 43 -31 125 -32 165 -3 70 53
89 121 51 194 -44 86 -137 116 -208 67z"/>
<path d="M7085 9061 c-45 -28 -66 -55 -76 -102 -32 -142 132 -244 242 -152 60
51 74 121 36 188 -44 79 -134 108 -202 66z"/>
<path d="M3427 8846 c-63 -23 -93 -57 -108 -126 -25 -108 80 -214 187 -190 53
12 85 39 112 93 19 36 22 55 17 86 -17 104 -117 169 -208 137z"/>
<path d="M6625 8848 c-85 -18 -138 -112 -114 -203 37 -138 232 -161 297 -35
27 54 28 99 3 148 -39 75 -104 107 -186 90z"/>
<path d="M1955 8141 c-31 -14 -65 -54 -75 -92 -6 -19 -10 -120 -10 -226 l0
-192 -377 -3 -378 -3 -56 -26 c-95 -45 -163 -120 -190 -211 -6 -20 -10 -200
-9 -459 l0 -426 -28 -6 c-42 -9 -146 -89 -182 -143 -99 -143 -106 -344 -17
-493 41 -68 123 -143 182 -167 l46 -19 -2 -240 c-3 -260 -1 -272 54 -324 48
-44 135 -43 186 2 47 43 51 70 51 324 l0 238 54 28 c92 48 170 139 208 245 29
78 29 213 0 294 -38 107 -117 195 -214 241 l-47 22 -1 378 0 379 29 29 29 29
774 0 773 1 44 22 c77 40 103 130 60 207 -41 73 -48 75 -379 78 -213 2 -297 7
-302 15 -4 7 -8 95 -8 197 0 199 -9 240 -59 284 -24 22 -121 32 -156 17z"/>
<path d="M8424 6776 c-90 -40 -110 -155 -41 -233 54 -62 63 -63 410 -63 l314
0 21 -23 c22 -23 22 -25 21 -468 l0 -444 -58 -27 c-31 -15 -78 -48 -104 -74
-97 -95 -132 -192 -125 -339 4 -77 10 -102 38 -160 40 -85 123 -170 198 -205
l52 -25 0 -677 c0 -605 -2 -678 -15 -678 -49 0 -184 -121 -224 -199 -170 -332
111 -702 475 -627 137 29 239 108 302 235 36 73 37 77 37 190 0 113 -1 118
-35 186 -42 83 -119 163 -189 196 l-50 24 -1 676 0 676 40 18 c22 10 65 41 95
69 112 104 167 250 147 388 -21 138 -116 274 -230 327 l-51 24 -3 496 -3 496
-33 67 c-38 77 -72 109 -162 152 l-65 31 -365 2 c-293 2 -371 0 -396 -11z"/>
<path d="M8410 6180 c-50 -12 -97 -67 -105 -124 -6 -37 -3 -55 16 -93 42 -84
126 -108 212 -61 107 59 99 211 -13 268 -42 21 -55 23 -110 10z"/>
<path d="M8370 5691 c-69 -37 -96 -139 -54 -212 27 -47 99 -83 148 -73 78 14
136 80 136 153 0 47 -42 115 -84 135 -45 21 -103 20 -146 -3z"/>
<path d="M2170 4471 c-124 -66 -105 -252 31 -292 78 -24 165 26 190 109 38
129 -103 247 -221 183z"/>
<path d="M7835 3414 c-42 -24 -63 -51 -76 -97 -36 -135 104 -244 225 -174 98
56 100 188 4 260 -36 27 -114 32 -153 11z"/>
<path d="M1791 2472 c-48 -24 -73 -62 -79 -121 -9 -99 72 -181 168 -168 94 12
153 100 126 188 -31 99 -129 146 -215 101z"/>
<path d="M1785 1981 c-75 -39 -103 -127 -65 -206 72 -149 301 -87 287 78 -10
113 -123 178 -222 128z"/>
</g>
</svg>
