<?xml version="1.0" standalone="no"?>
<!DOCTYPE svg PUBLIC "-//W3C//DTD SVG 20010904//EN"
 "http://www.w3.org/TR/2001/REC-SVG-20010904/DTD/svg10.dtd">
<svg version="1.0" xmlns="http://www.w3.org/2000/svg"
 width="1024.000000pt" height="1024.000000pt" viewBox="0 0 1024.000000 1024.000000"
 preserveAspectRatio="xMidYMid meet">
<metadata>
Created by potrace 1.16, written by Peter Selinger 2001-2019
</metadata>
<g transform="translate(0.000000,1024.000000) scale(0.100000,-0.100000)"
fill="#000000" stroke="none">
<path d="M4735 9199 c-147 -12 -318 -37 -510 -74 -803 -158 -1547 -554 -2120
-1129 -232 -233 -340 -363 -503 -607 -345 -517 -571 -1083 -656 -1649 -38
-245 -46 -360 -46 -620 0 -407 38 -707 135 -1075 47 -181 126 -407 185 -532
l50 -106 23 19 c44 38 228 214 505 483 l282 276 264 5 264 5 39 31 c83 66 100
151 48 240 -44 74 -50 75 -433 74 l-337 0 -237 -237 c-157 -157 -239 -232
-242 -222 -10 30 -26 99 -61 269 l-36 175 181 178 181 177 567 -2 566 -3 8
-40 c4 -22 17 -74 29 -116 l21 -77 117 65 c64 36 119 68 123 72 4 3 0 40 -8
82 -8 42 -17 123 -22 180 l-7 104 -295 -4 c-349 -4 -362 -2 -434 71 l-50 51
-80 -7 c-45 -3 -215 -6 -379 -6 l-297 0 -135 -134 -134 -134 -3 45 -3 46 -85
-2 c-69 -1 -91 2 -116 18 -43 26 -61 79 -40 119 26 50 41 56 147 60 l99 4 0
44 c0 101 61 491 105 668 40 160 77 276 89 276 5 0 170 -52 365 -116 196 -64
360 -116 364 -117 4 -1 30 59 57 133 28 74 55 143 60 153 6 10 8 22 5 26 -9
16 -662 331 -685 331 -5 0 -10 2 -10 4 0 3 77 152 85 164 1 1 150 -79 331
-178 181 -99 331 -180 334 -180 3 0 18 25 34 56 17 31 58 99 92 151 l62 94
-77 58 c-80 61 -440 310 -503 350 -21 12 -38 27 -38 33 0 12 120 168 130 168
4 0 134 -109 290 -242 l283 -241 21 29 c23 33 204 232 229 253 15 12 6 25 -88
130 -57 64 -172 188 -254 276 l-151 160 95 93 c51 50 98 92 103 92 4 0 50 -54
101 -120 l93 -121 32 26 c17 14 99 71 181 127 83 55 149 105 147 110 -1 5 -39
64 -84 130 -65 96 -79 122 -67 129 156 97 225 139 231 139 3 0 36 -57 73 -127
36 -71 70 -132 74 -136 5 -5 48 11 97 36 49 24 140 64 202 88 61 23 112 48
112 54 0 6 -22 73 -50 149 -27 76 -50 140 -50 141 0 5 290 99 292 94 2 -2 17
-60 35 -129 17 -69 36 -137 42 -152 10 -26 10 -26 49 -12 22 7 115 28 206 46
148 30 166 35 166 53 -1 11 -9 81 -19 155 -10 74 -16 138 -12 141 7 7 202 34
318 44 l72 7 3 -161 3 -160 201 -3 202 -3 12 145 c6 80 12 152 13 160 2 11 14
14 47 12 41 -2 382 -52 387 -57 2 -1 -8 -55 -21 -121 -32 -159 -37 -204 -23
-209 7 -2 67 -15 134 -29 66 -15 146 -35 177 -45 l55 -18 41 114 c22 63 45
135 51 159 6 24 17 44 24 44 47 0 409 -140 604 -233 l95 -45 25 20 c15 11 84
72 154 136 116 106 126 118 110 130 -48 35 -289 161 -416 217 -413 182 -908
300 -1402 335 -161 11 -464 11 -610 -1z m-2416 -1265 c35 -25 52 -74 40 -117
-32 -116 -189 -94 -189 26 0 85 84 136 149 91z"/>
<path d="M8830 8734 c-25 -7 -99 -31 -165 -53 -121 -40 -710 -226 -1080 -342
-234 -72 -261 -85 -308 -139 -79 -93 -62 -212 42 -285 l43 -30 336 -5 c377 -6
378 -6 427 -77 19 -29 25 -50 25 -91 l0 -54 -107 -112 c-271 -280 -829 -852
-1033 -1059 -124 -125 -233 -242 -242 -260 -23 -40 -22 -81 1 -132 17 -39 72
-95 92 -95 13 0 92 -162 128 -264 30 -84 76 -290 83 -366 l3 -35 355 0 c466 0
446 -11 405 222 -40 228 -103 446 -152 523 l-19 30 -105 -66 c-57 -36 -108
-69 -112 -74 -4 -4 1 -31 13 -61 25 -67 73 -239 67 -245 -2 -2 -50 -17 -106
-33 -69 -19 -104 -25 -106 -17 -57 201 -109 334 -175 442 l-41 68 274 275
c150 152 452 458 670 680 219 222 399 402 402 400 2 -3 0 -22 -6 -44 -5 -22
-22 -126 -39 -231 -34 -216 -32 -240 26 -304 70 -77 156 -90 248 -36 64 37 93
92 116 218 30 162 210 1044 271 1325 26 123 29 147 19 185 -16 59 -51 102
-102 126 -60 28 -96 32 -148 16z"/>
<path d="M4882 8198 l3 -143 182 0 182 0 5 40 c3 22 7 86 9 143 l3 102 -193 0
-194 0 3 -142z"/>
<path d="M4399 8275 c-63 -13 -152 -33 -196 -45 l-81 -22 19 -71 c50 -180 60
-209 74 -203 8 3 88 21 177 41 90 20 166 40 169 43 6 7 -34 269 -42 276 -2 2
-56 -7 -120 -19z"/>
<path d="M5636 8239 c-13 -59 -44 -234 -43 -235 7 -5 340 -85 342 -82 8 10 86
260 82 264 -8 8 -276 73 -328 80 -46 6 -46 6 -53 -27z"/>
<path d="M3775 8093 c-117 -48 -260 -114 -278 -128 -18 -13 -15 -20 42 -127
33 -62 65 -119 69 -126 6 -9 33 -1 113 36 57 27 131 59 164 72 33 13 64 26 68
30 4 4 -13 66 -39 138 -34 95 -52 132 -63 131 -9 0 -43 -12 -76 -26z"/>
<path d="M6537 7996 c-75 -28 -117 -91 -117 -177 0 -63 27 -115 77 -149 52
-35 154 -36 205 -1 82 57 108 158 62 246 -37 72 -146 111 -227 81z"/>
<path d="M4795 7853 c-101 -9 -302 -47 -420 -78 -340 -89 -577 -193 -841 -368
-157 -105 -257 -189 -435 -366 -235 -235 -355 -401 -495 -686 -126 -258 -234
-632 -250 -872 l-6 -88 32 -30 31 -30 349 -3 349 -3 6 48 c47 368 161 661 364
933 72 97 245 275 341 353 225 182 470 304 755 376 109 27 169 37 348 56 l57
6 0 134 0 135 -27 -5 c-16 -2 -63 -6 -105 -9 -89 -6 -76 -22 -102 123 -9 47
-15 86 -13 87 1 1 51 7 111 13 137 14 334 14 451 1 146 -17 134 -4 105 -126
l-24 -105 -108 7 -108 7 0 -131 0 -131 48 -6 c302 -39 496 -92 700 -193 l92
-45 203 209 c111 115 228 236 260 270 l57 61 -23 20 c-40 37 -192 132 -295
183 -242 121 -541 211 -813 245 -113 14 -477 19 -594 8z m-317 -444 c27 -115
30 -108 -58 -135 -30 -9 -106 -37 -169 -62 -107 -41 -116 -43 -127 -27 -20 27
-96 176 -92 180 14 13 385 143 413 145 6 0 21 -46 33 -101z m1334 55 c70 -26
268 -110 276 -119 2 -2 -21 -39 -52 -81 -30 -43 -57 -82 -58 -86 -2 -5 -32 3
-68 18 -36 15 -110 42 -165 61 -55 19 -102 36 -103 38 -2 2 10 47 28 99 37
111 33 109 142 70z m-1983 -331 c29 -47 48 -89 44 -93 -4 -4 -51 -38 -103 -75
-52 -38 -119 -89 -148 -113 l-53 -44 -20 27 c-12 14 -43 52 -70 83 -27 31 -49
60 -49 65 0 17 315 237 341 237 4 0 30 -39 58 -87z m-690 -635 c42 -34 80 -64
84 -68 4 -4 -19 -50 -52 -103 -34 -52 -66 -107 -72 -121 -7 -14 -15 -26 -19
-26 -8 0 -181 98 -192 108 -12 11 151 272 170 272 3 0 39 -28 81 -62z m-265
-509 c50 -23 92 -42 93 -43 2 -2 -8 -35 -22 -75 -13 -39 -34 -115 -45 -169
-12 -53 -22 -97 -23 -98 -1 -1 -49 6 -107 17 -58 10 -106 19 -107 19 -17 1 93
390 110 390 5 0 50 -18 101 -41z"/>
<path d="M3130 7742 c-133 -90 -209 -145 -210 -152 0 -7 145 -200 169 -223 18
-18 19 -18 52 11 19 16 84 64 144 107 61 43 114 81 118 85 8 7 -139 250 -152
250 -4 0 -59 -35 -121 -78z"/>
<path d="M7235 7668 c-58 -64 -339 -351 -681 -698 -267 -271 -273 -280 -253
-353 19 -69 91 -127 158 -127 74 0 97 20 512 443 222 227 487 496 588 600
l184 187 -229 0 -230 0 -49 -52z"/>
<path d="M8793 6442 c-89 -54 -162 -102 -162 -108 -1 -7 14 -68 33 -135 69
-253 156 -746 156 -886 l0 -43 75 0 c43 0 90 -6 110 -14 68 -29 80 -113 23
-161 -26 -22 -39 -25 -109 -25 l-79 0 0 -45 c0 -25 -3 -45 -7 -45 -3 0 -70 62
-147 138 l-141 137 -340 -3 -340 -4 -45 -43 c-26 -25 -61 -48 -85 -54 -26 -7
-143 -9 -347 -5 l-308 6 0 -54 c0 -81 -28 -302 -50 -398 -127 -539 -468 -968
-970 -1220 -234 -117 -546 -203 -828 -226 -67 -5 -82 -10 -78 -21 3 -8 6 -67
6 -130 l0 -116 108 6 109 6 10 -102 c5 -56 6 -106 1 -112 -5 -5 -106 -11 -233
-13 l-225 -4 0 111 0 111 25 0 25 0 0 130 c0 72 -2 130 -5 130 -3 0 -35 -46
-72 -102 -49 -77 -104 -142 -217 -255 -82 -84 -156 -163 -163 -175 -7 -13 -12
-40 -13 -60 0 -48 44 -100 97 -116 138 -41 576 -59 803 -33 227 26 539 101
753 180 269 100 552 267 787 463 493 413 797 946 885 1553 8 61 18 125 21 143
l5 32 272 0 272 0 80 -78 c44 -43 127 -126 184 -185 l104 -106 -27 -138 c-92
-460 -262 -897 -507 -1303 -125 -205 -261 -384 -436 -570 -91 -97 -311 -300
-325 -300 -5 0 -7 137 -6 305 l3 305 -212 0 -213 0 0 -294 0 -295 -147 -3
-147 -3 -134 137 c-86 88 -143 139 -160 142 -15 3 -158 2 -319 -2 l-292 -7
-31 -30 c-17 -16 -61 -82 -97 -145 -37 -63 -87 -148 -111 -187 l-45 -73 -305
0 c-263 0 -309 -2 -339 -17 -60 -28 -63 -45 -63 -393 0 -304 0 -310 -20 -310
-66 0 -408 46 -535 71 -198 41 -500 119 -525 136 -2 2 152 160 342 351 190
191 353 361 362 379 48 97 -32 231 -150 249 -91 13 -91 14 -597 -495 -256
-258 -475 -484 -487 -503 -39 -65 -17 -160 48 -204 18 -12 80 -42 139 -67 501
-208 1033 -311 1613 -310 522 0 963 78 1455 255 924 333 1741 1022 2177 1833
219 408 356 784 453 1249 60 284 76 437 82 761 7 406 -16 638 -103 1014 -38
163 -140 492 -152 490 -4 0 -80 -44 -169 -97z m-1213 -1574 c0 -18 -39 -240
-42 -243 -5 -3 -216 50 -222 56 -5 5 21 176 29 189 2 4 56 8 120 9 89 2 115
-1 115 -11z m-138 -511 c14 -5 14 -12 -7 -69 -54 -147 -104 -253 -119 -252 -8
1 -55 27 -105 58 l-90 57 38 82 c20 45 47 110 60 143 l23 62 91 -38 c51 -20
99 -40 109 -43z m-277 -572 c0 -7 -198 -235 -204 -235 -4 0 -40 33 -80 74
l-74 74 88 110 87 110 92 -64 c50 -36 91 -67 91 -69z m-425 -435 c0 -19 -338
-260 -364 -260 -6 0 -106 169 -106 178 0 4 42 34 92 67 50 33 125 86 166 117
l73 57 70 -76 c38 -42 69 -79 69 -83z m1785 -204 c46 -46 45 -103 -1 -149 -75
-75 -201 22 -153 116 31 60 110 77 154 33z m-2467 -76 c23 -50 42 -94 42 -98
0 -17 -348 -132 -401 -132 -13 0 -22 23 -39 96 -12 52 -19 98 -16 101 3 4 57
21 119 39 61 18 139 44 172 58 33 13 65 25 71 25 6 1 30 -40 52 -89z m373
-1062 c56 -62 110 -122 121 -133 17 -18 35 -20 225 -25 l207 -5 -118 -64
c-317 -172 -694 -306 -1086 -385 -130 -27 -415 -66 -475 -66 l-35 0 0 184 0
183 240 -3 c131 -2 246 -1 254 2 16 6 53 62 196 296 l84 137 125 3 c70 2 134
0 143 -4 9 -5 62 -59 119 -120z"/>
<path d="M7972 6439 c-139 -69 -138 -266 2 -330 55 -25 91 -24 152 5 148 69
143 267 -8 330 -51 22 -95 20 -146 -5z"/>
<path d="M6035 6288 c-250 -71 -1266 -358 -1430 -404 -88 -25 -172 -49 -186
-55 -34 -13 -85 -66 -98 -102 -16 -42 -13 -112 6 -152 l17 -35 -145 -147 c-79
-82 -620 -623 -1201 -1203 -596 -595 -1062 -1067 -1067 -1083 -14 -36 -14 -98
0 -134 34 -90 158 -140 242 -97 18 9 584 567 1258 1239 975 973 1233 1225
1263 1235 121 40 244 -59 234 -188 l-5 -54 -979 -979 c-888 -887 -980 -982
-992 -1023 -43 -149 131 -279 263 -197 17 10 466 452 999 982 533 530 983 972
1000 981 127 70 289 -108 219 -240 -10 -18 -496 -510 -1080 -1095 -583 -584
-1068 -1076 -1077 -1094 -68 -137 91 -301 230 -237 27 12 372 349 1084 1060
575 574 1058 1053 1074 1065 24 19 42 23 106 23 68 1 81 4 113 29 20 15 43 40
51 55 8 15 44 178 80 362 37 184 80 398 96 475 16 77 50 248 75 380 25 132 62
312 81 400 37 173 39 196 24 226 -13 24 -62 49 -92 48 -13 0 -86 -19 -163 -41z"/>
<path d="M1902 5874 c-100 -60 -117 -202 -33 -285 134 -135 360 -4 306 177
-35 119 -168 171 -273 108z"/>
<path d="M8095 5886 c-92 -41 -131 -154 -86 -252 45 -99 170 -131 267 -67 41
26 78 100 78 153 0 63 -41 133 -94 160 -45 23 -120 26 -165 6z"/>
<path d="M8127 4586 c-70 -25 -96 -63 -127 -186 -106 -416 -291 -777 -539
-1055 -41 -46 -76 -95 -83 -116 -23 -80 23 -162 109 -195 90 -35 151 1 297
176 189 225 357 528 456 820 49 144 110 372 110 411 0 62 -58 129 -128 149
-46 12 -48 12 -95 -4z"/>
<path d="M1405 2680 c-20 -8 -519 -506 -568 -565 -39 -48 -49 -75 -49 -126 0
-131 146 -225 260 -165 44 23 138 112 387 372 238 246 250 265 226 351 -25 94
-88 144 -183 142 -29 0 -62 -4 -73 -9z"/>
<path d="M2526 2645 c-159 -56 -170 -273 -18 -342 60 -28 99 -27 160 5 113 58
137 206 47 293 -56 55 -117 70 -189 44z"/>
<path d="M1985 2041 c-49 -23 -669 -642 -684 -684 -17 -45 -13 -114 9 -157 43
-84 156 -123 236 -82 22 12 177 159 356 339 306 307 348 357 348 410 0 40 -23
96 -53 130 -56 64 -135 80 -212 44z"/>
<path d="M2780 1775 c-34 -16 -483 -465 -507 -509 -17 -29 -16 -90 3 -134 37
-90 127 -139 220 -120 46 10 62 23 277 237 125 124 238 242 250 261 47 75 13
200 -68 250 -46 28 -129 35 -175 15z"/>
</g>
</svg>
