<?xml version="1.0" standalone="no"?>
<!DOCTYPE svg PUBLIC "-//W3C//DTD SVG 20010904//EN"
 "http://www.w3.org/TR/2001/REC-SVG-20010904/DTD/svg10.dtd">
<svg version="1.0" xmlns="http://www.w3.org/2000/svg"
 width="1024.000000pt" height="1024.000000pt" viewBox="0 0 1024.000000 1024.000000"
 preserveAspectRatio="xMidYMid meet">
<metadata>
Created by potrace 1.16, written by Peter Selinger 2001-2019
</metadata>
<g transform="translate(0.000000,1024.000000) scale(0.100000,-0.100000)"
fill="#000000" stroke="none">
<path d="M3426 8129 c-283 -30 -568 -194 -739 -424 -68 -90 -155 -263 -189
-375 l-23 -75 -3 -1930 c-3 -2152 -8 -1983 67 -2170 49 -122 137 -251 241
-356 100 -100 178 -155 304 -215 202 -95 327 -109 881 -100 252 5 404 11 430
19 50 15 118 81 135 132 31 94 -16 209 -105 254 l-49 26 -471 6 c-518 6 -514
5 -650 73 -131 65 -238 185 -299 334 l-31 77 -5 1380 c-3 759 -3 1616 0 1905
l5 525 26 63 c88 207 238 346 430 399 60 17 168 18 1734 17 1517 -1 1676 -3
1734 -18 150 -38 269 -125 360 -261 53 -79 84 -162 101 -265 15 -97 12 -2311
-3 -2370 -16 -58 -64 -94 -119 -87 -22 3 -160 70 -330 160 -258 136 -802 419
-959 499 -148 75 -300 100 -445 76 -297 -50 -531 -278 -599 -582 l-6 -29 -45
44 c-25 24 -61 76 -81 116 -29 59 -36 85 -40 155 -12 191 67 353 224 458 139
93 109 90 868 90 l663 0 53 28 c39 20 62 41 84 77 26 43 30 57 29 119 -1 81
-17 133 -81 261 -240 483 -830 825 -1423 825 -175 0 -421 -42 -615 -105 -144
-47 -385 -167 -505 -252 -143 -102 -360 -323 -449 -458 -192 -291 -293 -603
-308 -950 -17 -403 86 -769 308 -1100 231 -343 568 -583 969 -691 177 -48 321
-43 402 13 72 49 59 -3 168 675 83 518 102 613 142 692 64 127 189 223 323
247 112 20 187 -3 435 -136 63 -34 165 -88 225 -120 61 -32 130 -69 155 -83
158 -87 604 -323 749 -395 l143 -72 92 0 c77 1 100 5 148 27 67 31 145 100
187 166 16 26 42 83 57 127 25 75 27 96 36 345 5 146 7 713 4 1260 -4 873 -6
1005 -21 1078 -27 141 -85 283 -164 402 -48 74 -192 222 -266 275 -69 49 -217
125 -290 149 -160 52 -72 49 -1860 52 -913 1 -1696 -2 -1739 -7z m1804 -1599
c270 -33 517 -149 696 -327 l79 -78 -510 -5 c-543 -6 -532 -5 -675 -59 -262
-98 -494 -355 -564 -625 -104 -398 32 -781 354 -995 47 -31 100 -63 118 -70
18 -7 32 -19 32 -25 0 -6 -14 -87 -30 -181 -17 -93 -35 -200 -41 -237 -14 -78
-1 -76 -154 -26 -326 106 -610 373 -750 706 -102 241 -130 551 -76 819 88 428
383 792 789 974 169 75 295 108 497 132 64 8 154 7 235 -3z"/>
<path d="M3352 7429 c-78 -39 -125 -144 -103 -227 14 -51 73 -119 118 -139 85
-35 185 -1 241 83 31 45 34 54 30 111 -3 49 -10 72 -34 105 -57 82 -164 110
-252 67z"/>
<path d="M4082 7433 c-73 -36 -119 -124 -109 -209 6 -58 59 -131 111 -155 116
-53 254 14 286 138 22 88 -38 200 -123 232 -42 16 -127 13 -165 -6z"/>
<path d="M6519 7441 l-276 -6 -40 -27 c-108 -72 -108 -236 0 -322 l39 -31 306
-3 c263 -2 313 -1 349 13 78 30 133 123 119 203 -14 88 -95 165 -181 174 -22
2 -164 2 -316 -1z"/>
<path d="M5588 4688 c-49 -13 -122 -78 -141 -126 -8 -21 -18 -60 -22 -87 -16
-115 -67 -453 -95 -625 -16 -102 -52 -336 -80 -520 -28 -184 -59 -389 -70
-455 -82 -514 -85 -565 -34 -637 40 -57 110 -93 183 -92 74 0 137 30 198 91
211 215 457 467 550 565 l112 117 44 -72 c24 -40 95 -155 157 -257 62 -102
145 -239 184 -305 122 -205 214 -275 342 -262 143 15 244 130 244 278 0 51 -7
71 -48 151 -45 85 -212 375 -367 638 -34 58 -68 115 -74 128 l-12 23 468 -2
c506 -2 497 -3 575 52 37 26 78 110 78 160 0 57 -28 123 -68 161 -20 19 -109
73 -197 120 -88 47 -392 210 -675 363 -283 153 -639 345 -790 427 -331 179
-367 191 -462 166z"/>
</g>
</svg>
