<?xml version="1.0" standalone="no"?>
<!DOCTYPE svg PUBLIC "-//W3C//DTD SVG 20010904//EN"
 "http://www.w3.org/TR/2001/REC-SVG-20010904/DTD/svg10.dtd">
<svg version="1.0" xmlns="http://www.w3.org/2000/svg"
 width="1024.000000pt" height="1024.000000pt" viewBox="0 0 1024.000000 1024.000000"
 preserveAspectRatio="xMidYMid meet">
<metadata>
Created by potrace 1.16, written by Peter Selinger 2001-2019
</metadata>
<g transform="translate(0.000000,1024.000000) scale(0.100000,-0.100000)"
fill="#000000" stroke="none">
<path d="M7315 8707 c-665 -222 -1224 -411 -1241 -420 -77 -40 -137 -146 -138
-242 0 -117 58 -187 229 -279 61 -33 138 -74 173 -93 299 -160 342 -184 342
-195 0 -5 -13 -28 -28 -51 -16 -23 -46 -73 -67 -112 -138 -255 -659 -1180
-948 -1685 -55 -96 -111 -195 -125 -220 -14 -25 -54 -95 -88 -156 l-64 -111
-290 -6 c-160 -4 -368 -4 -463 -1 l-172 6 -270 -272 c-332 -336 -316 -320
-327 -320 -5 0 -100 89 -211 198 -233 229 -293 284 -325 301 -36 19 -122 17
-164 -3 -23 -11 -134 -118 -285 -275 -428 -444 -898 -925 -1419 -1451 -204
-206 -376 -385 -382 -396 -24 -46 -31 -105 -17 -156 32 -124 172 -181 292
-119 21 11 119 102 218 203 732 744 1635 1666 1671 1707 11 12 54 -26 257
-224 134 -130 259 -247 277 -258 42 -26 120 -27 170 -2 19 9 179 160 355 336
l320 319 465 3 c497 3 521 5 555 54 24 34 974 1693 1085 1893 35 63 118 212
185 330 67 118 130 230 139 248 l17 33 160 -83 c87 -46 158 -88 157 -93 -4
-14 -443 -858 -656 -1260 -96 -181 -240 -454 -320 -605 -79 -151 -177 -336
-216 -410 -39 -74 -80 -144 -91 -157 -21 -23 -128 -64 -450 -173 -110 -38
-258 -89 -330 -115 -175 -63 -485 -172 -564 -198 -64 -22 -68 -25 -480 -440
-228 -229 -418 -416 -422 -415 -3 2 -107 101 -230 222 -123 120 -241 227 -261
237 -76 39 -176 16 -233 -53 -15 -18 -390 -399 -834 -846 -443 -448 -814 -828
-823 -845 -22 -38 -23 -96 -4 -140 8 -18 148 -165 317 -333 262 -258 310 -302
348 -313 56 -16 111 -6 158 28 21 16 299 294 618 618 l580 591 121 -119 c137
-135 188 -165 259 -154 24 3 61 18 83 33 21 15 300 293 620 617 558 567 583
591 639 611 32 11 234 84 448 162 215 79 440 160 500 182 197 71 550 200 570
209 11 5 32 30 46 57 174 328 668 1263 814 1544 324 622 514 982 525 993 4 5
92 -38 196 -94 215 -115 248 -129 313 -129 104 0 194 55 246 151 27 50 29 63
35 204 4 82 6 584 6 1115 l-1 965 -24 59 c-47 117 -142 186 -265 193 -71 4
-75 3 -1281 -400z"/>
<path d="M3095 9066 c-64 -29 -116 -111 -114 -183 3 -183 219 -263 338 -127
83 94 53 250 -59 306 -41 21 -122 23 -165 4z"/>
<path d="M2425 8914 c-105 -38 -155 -164 -106 -269 60 -131 221 -152 318 -42
69 79 65 184 -11 262 -59 62 -123 77 -201 49z"/>
<path d="M3779 8915 c-158 -50 -171 -282 -20 -362 86 -45 188 -18 246 65 26
38 30 52 30 112 0 60 -4 74 -30 111 -52 73 -139 101 -226 74z"/>
<path d="M1610 8774 c-36 -26 -47 -44 -54 -88 -9 -53 -61 -102 -118 -111 -83
-14 -122 -90 -83 -164 14 -28 34 -39 112 -60 42 -12 83 -50 83 -79 0 -31 41
-99 66 -110 64 -30 125 -3 149 65 9 27 22 59 29 72 11 24 76 60 107 61 27 0
67 38 79 75 22 66 -32 131 -123 150 -42 9 -73 45 -91 107 -8 30 -24 62 -35 72
-29 26 -91 31 -121 10z"/>
<path d="M2945 8441 c-105 -28 -224 -77 -293 -119 -143 -87 -279 -226 -367
-377 l-38 -65 -51 7 c-28 5 -112 8 -186 7 -107 0 -153 -5 -220 -23 -231 -61
-415 -179 -561 -360 -155 -191 -236 -454 -174 -561 27 -45 94 -96 139 -104 70
-13 163 30 199 92 10 18 26 58 34 89 27 105 79 192 167 279 122 122 246 174
413 174 90 0 95 -4 64 -48 -115 -163 -167 -440 -127 -670 59 -337 295 -647
611 -803 167 -82 277 -110 471 -116 163 -6 228 1 369 42 209 61 387 181 531
358 l31 38 76 -15 c107 -22 255 -21 353 4 98 24 240 94 316 154 115 92 212
235 258 381 26 83 37 255 23 358 -9 65 -9 67 11 61 137 -42 248 -182 277 -347
14 -85 7 -140 -33 -259 -36 -109 -38 -159 -9 -217 45 -88 145 -128 241 -96 83
28 113 66 155 201 20 64 43 151 52 193 29 150 -4 348 -84 503 -88 171 -201
288 -353 367 -128 66 -197 83 -350 87 l-135 4 -65 47 c-148 106 -319 163 -497
163 l-108 1 -24 47 c-119 236 -352 428 -618 508 -77 24 -109 27 -258 30 -143
3 -181 1 -240 -15z m422 -421 c211 -74 369 -266 398 -485 9 -64 67 -127 135
-145 42 -12 52 -10 140 21 181 64 311 40 431 -80 86 -86 112 -149 112 -271 0
-116 -26 -181 -105 -265 -78 -84 -144 -117 -247 -123 -93 -5 -167 9 -250 48
-75 36 -145 39 -208 11 -35 -16 -47 -31 -82 -98 -171 -326 -516 -458 -884
-336 -217 72 -407 279 -452 494 -42 200 8 381 143 514 l66 66 7 117 c4 84 12
133 28 173 68 179 235 328 417 374 87 22 270 14 351 -15z"/>
<path d="M3047 7476 c-165 -59 -249 -236 -192 -406 25 -76 118 -170 194 -195
75 -24 178 -17 246 18 232 119 234 451 3 566 -53 27 -72 31 -137 31 -42 -1
-93 -7 -114 -14z"/>
<path d="M4370 8428 c-62 -32 -101 -97 -102 -170 -1 -56 24 -118 59 -150 24
-22 103 -58 128 -58 76 0 162 61 191 136 47 122 -53 264 -186 264 -28 0 -63
-9 -90 -22z"/>
<path d="M1209 6563 c-42 -22 -59 -38 -76 -73 -29 -55 -30 -131 -4 -199 23
-62 132 -228 198 -302 95 -108 248 -231 326 -264 136 -57 296 70 272 216 -9
54 -41 96 -115 154 -109 83 -232 213 -269 285 -66 126 -97 166 -143 189 -61
29 -122 27 -189 -6z"/>
<path d="M4910 6153 c-8 -3 -49 -27 -91 -54 -42 -27 -124 -67 -184 -89 -60
-21 -120 -48 -134 -58 -62 -46 -92 -173 -56 -241 26 -51 92 -99 152 -111 49
-11 63 -9 124 10 79 26 253 112 334 165 65 43 90 76 106 137 23 86 -26 185
-114 227 -41 20 -103 26 -137 14z"/>
<path d="M8198 5937 c-14 -13 -29 -39 -33 -58 -13 -61 -32 -85 -84 -108 -62
-26 -81 -53 -81 -111 0 -57 19 -85 68 -100 52 -17 78 -44 92 -96 24 -84 105
-120 164 -73 14 11 36 43 48 71 16 38 33 58 67 79 80 51 101 112 61 177 -11
18 -35 41 -52 50 -49 26 -67 48 -78 94 -6 24 -17 50 -23 59 -33 44 -110 52
-149 16z"/>
<path d="M2413 5581 c-108 -50 -138 -211 -56 -302 47 -52 83 -70 142 -71 128
-1 223 121 191 243 -33 123 -160 182 -277 130z"/>
<path d="M3738 5580 c-121 -64 -131 -261 -17 -337 84 -55 182 -48 247 20 129
133 40 338 -145 337 -27 -1 -64 -9 -85 -20z"/>
<path d="M8676 5148 c-125 -24 -274 -124 -333 -225 -92 -157 -102 -345 -28
-501 43 -91 133 -188 216 -231 l59 -32 0 -412 c0 -379 2 -415 19 -452 67 -146
268 -152 344 -12 22 41 22 50 25 462 l3 420 51 29 c99 56 189 169 228 285 62
187 17 390 -118 527 -67 68 -135 106 -246 134 -84 21 -141 24 -220 8z m171
-364 c121 -58 121 -240 0 -295 -75 -34 -138 -19 -194 44 -116 133 34 326 194
251z"/>
<path d="M1392 5060 c-95 -25 -164 -63 -227 -125 -65 -64 -102 -130 -127 -230
-64 -249 69 -517 300 -606 80 -31 246 -38 327 -14 128 37 217 102 287 209 55
86 80 172 80 281 0 240 -143 428 -368 485 -96 25 -177 25 -272 0z m210 -346
c15 -8 40 -31 55 -51 36 -48 40 -135 7 -180 -41 -55 -83 -75 -146 -71 -172 12
-213 227 -58 306 48 25 89 23 142 -4z"/>
<path d="M7760 4373 c-32 -12 -61 -49 -72 -90 -12 -51 -51 -88 -108 -103 -78
-21 -113 -103 -73 -171 13 -23 31 -34 73 -46 70 -20 85 -33 110 -102 25 -67
52 -90 103 -91 56 0 75 15 106 83 34 75 52 92 121 115 44 14 57 24 72 54 35
66 -1 136 -80 157 -61 17 -90 45 -108 107 -10 34 -24 60 -39 70 -26 17 -82 26
-105 17z"/>
<path d="M7503 3415 c-83 -23 -142 -55 -203 -111 -73 -68 -106 -117 -136 -200
-68 -187 -26 -401 105 -544 28 -30 51 -58 51 -62 0 -4 -261 -8 -580 -8 -626 0
-621 0 -678 -53 -71 -66 -84 -192 -26 -264 17 -21 48 -47 70 -58 38 -19 59
-20 703 -20 l664 0 161 167 c138 142 171 172 234 203 256 131 357 479 210 722
-71 117 -200 210 -327 233 -74 14 -186 11 -248 -5z m233 -370 c137 -104 33
-327 -136 -290 -46 10 -108 70 -120 116 -20 75 22 161 95 195 46 22 117 12
161 -21z"/>
<path d="M5640 3301 c-83 -7 -100 -14 -147 -63 -84 -88 -68 -220 35 -293 l44
-30 526 -3 c585 -3 577 -4 642 63 60 62 69 171 20 250 -12 19 -41 44 -68 57
l-47 23 -465 1 c-256 1 -499 -2 -540 -5z"/>
<path d="M5055 2500 c-131 -20 -225 -64 -304 -143 -68 -67 -106 -136 -131
-233 -33 -127 -21 -242 38 -362 34 -72 141 -181 210 -216 l52 -26 0 -113 c0
-102 3 -118 26 -165 30 -60 62 -86 127 -103 80 -22 166 20 207 102 17 31 20
59 20 153 l0 116 64 40 c77 49 167 143 201 211 73 144 73 335 0 480 -35 69
-125 161 -192 196 -101 54 -221 78 -318 63z m121 -359 c77 -35 117 -117 95
-193 -44 -144 -237 -166 -301 -34 -36 75 -23 142 37 197 52 49 106 59 169 30z"/>
<path d="M3880 1773 c-28 -14 -40 -31 -60 -79 -33 -81 -43 -91 -105 -109 -86
-25 -120 -80 -92 -148 17 -39 35 -52 107 -73 52 -15 71 -37 91 -103 18 -59 62
-95 108 -87 52 8 84 37 104 92 21 59 40 76 115 104 70 26 90 44 98 85 11 63
-34 117 -110 131 -53 9 -80 39 -100 106 -24 83 -87 116 -156 81z"/>
<path d="M8737 1760 c-15 -12 -36 -47 -48 -81 -23 -62 -53 -95 -98 -106 -81
-19 -121 -71 -102 -133 14 -46 45 -75 98 -89 57 -15 78 -37 98 -100 29 -88 83
-127 144 -101 42 17 66 48 86 108 18 56 36 71 111 91 54 15 85 49 91 103 7 59
-27 101 -94 117 -72 18 -89 34 -108 97 -22 75 -60 114 -113 114 -24 0 -49 -8
-65 -20z"/>
<path d="M6595 1644 c-77 -28 -125 -100 -125 -189 0 -87 59 -160 149 -185 22
-6 261 -10 624 -10 648 0 628 -2 695 63 20 20 39 52 48 84 14 48 14 58 0 106
-10 33 -27 64 -48 84 -70 66 -35 63 -700 62 -500 0 -610 -3 -643 -15z"/>
</g>
</svg>
