<?xml version="1.0" standalone="no"?>
<!DOCTYPE svg PUBLIC "-//W3C//DTD SVG 20010904//EN"
 "http://www.w3.org/TR/2001/REC-SVG-20010904/DTD/svg10.dtd">
<svg version="1.0" xmlns="http://www.w3.org/2000/svg"
 width="1024.000000pt" height="1024.000000pt" viewBox="0 0 1024.000000 1024.000000"
 preserveAspectRatio="xMidYMid meet">
<metadata>
Created by potrace 1.16, written by Peter Selinger 2001-2019
</metadata>
<g transform="translate(0.000000,1024.000000) scale(0.100000,-0.100000)"
fill="#000000" stroke="none">
<path d="M5055 8949 c-147 -22 -261 -87 -353 -204 -56 -71 -86 -134 -106 -227
l-6 -27 -643 -4 c-694 -5 -695 -5 -877 -62 -436 -139 -788 -445 -1111 -970
-247 -402 -476 -1014 -525 -1404 l-14 -114 -46 -49 c-50 -53 -104 -160 -125
-248 -18 -76 -16 -231 4 -306 9 -34 28 -87 42 -119 l26 -58 -25 -57 c-64 -142
-72 -329 -21 -470 31 -87 54 -127 107 -191 33 -41 39 -57 49 -125 15 -110 40
-212 98 -407 169 -560 446 -1046 805 -1415 198 -203 399 -335 641 -422 201
-72 211 -73 813 -77 l542 -5 52 -56 c29 -31 87 -91 130 -132 58 -56 78 -82 78
-101 0 -90 78 -236 177 -330 141 -132 315 -174 517 -123 182 45 331 205 384
412 17 66 20 70 149 199 l132 131 528 5 c500 4 533 5 628 26 327 72 555 201
811 456 270 270 497 611 665 1000 102 237 219 622 252 825 12 74 19 92 56 140
144 188 173 427 79 643 l-29 68 34 87 c45 114 61 204 53 301 -12 140 -46 230
-132 344 -48 63 -52 73 -57 140 -7 82 -71 347 -124 517 -181 576 -481 1107
-818 1446 -214 215 -472 374 -734 450 -166 49 -248 54 -893 54 -574 0 -598 1
-598 18 0 40 -42 140 -86 204 -118 174 -326 267 -529 237z m138 -373 c81 -29
122 -98 114 -188 l-5 -57 99 -143 c240 -345 238 -343 390 -506 107 -114 157
-176 168 -206 38 -99 -37 -222 -143 -233 -88 -10 -106 -1 -232 120 -64 62
-127 118 -141 125 -35 19 -87 7 -113 -25 -19 -25 -20 -38 -20 -502 0 -301 -4
-490 -11 -514 -43 -157 -251 -169 -325 -19 -18 34 -19 73 -22 529 l-3 492 -30
26 c-37 31 -77 32 -115 3 -16 -12 -76 -68 -134 -124 -84 -81 -113 -104 -143
-109 -158 -30 -278 119 -204 253 12 22 83 107 158 189 178 192 163 174 334
423 l147 215 -5 50 c-9 93 37 171 119 200 49 18 69 18 117 1z m-983 -623 c-61
-65 -135 -153 -163 -195 l-52 -78 -311 0 c-278 0 -319 -2 -389 -20 -43 -11
-99 -32 -123 -46 -103 -61 -179 -169 -189 -271 -3 -30 -11 -56 -17 -58 -6 -1
-55 -12 -108 -25 -61 -14 -130 -38 -183 -65 l-85 -44 0 132 c0 164 17 247 72
357 34 69 61 104 138 181 85 86 107 102 200 147 195 95 230 99 833 101 l489 1
-112 -117z m2873 85 c122 -36 218 -84 312 -156 124 -94 205 -202 251 -339 24
-67 28 -99 32 -230 2 -84 2 -153 -1 -153 -3 0 -43 18 -89 40 -46 22 -132 52
-190 67 l-107 26 -6 48 c-22 161 -171 298 -356 329 -35 5 -199 10 -364 10
l-300 1 -34 54 c-19 29 -90 113 -157 187 -68 73 -124 137 -124 141 0 5 235 7
523 5 l522 -4 88 -26z m917 -855 c39 -71 102 -199 140 -286 l69 -157 -82 83
c-45 46 -107 106 -138 133 l-57 49 -5 153 c-3 83 -3 152 -2 152 2 0 35 -57 75
-127z m-5670 -41 l0 -158 -32 -18 c-17 -11 -79 -66 -136 -124 -58 -58 -103
-99 -99 -91 3 8 28 66 54 129 27 63 80 174 117 245 38 72 73 140 80 152 6 13
12 23 14 23 1 0 2 -71 2 -158z m4992 -296 c229 -58 426 -194 580 -401 65 -87
98 -145 135 -243 42 -114 55 -196 57 -389 3 -207 9 -224 75 -244 54 -16 85 -2
155 71 67 71 115 89 185 71 61 -16 96 -44 120 -94 29 -61 26 -108 -15 -233
-20 -59 -41 -147 -47 -194 -11 -93 -13 -87 59 -292 31 -88 28 -144 -9 -199
-36 -53 -71 -72 -134 -76 -102 -7 -181 59 -191 157 -6 61 12 49 -297 203 -127
64 -241 128 -255 142 l-25 27 -6 401 c-5 368 -7 407 -26 463 -79 238 -254 404
-473 450 -66 14 -156 15 -766 9 -380 -4 -710 -4 -732 0 l-42 7 0 194 0 194
578 2 c882 4 962 2 1074 -26z m-2730 -176 l-3 -200 -757 2 c-844 1 -808 4
-941 -68 -123 -68 -202 -153 -268 -291 -62 -130 -65 -149 -72 -579 -7 -446 1
-412 -99 -459 -32 -15 -148 -74 -260 -132 -170 -90 -203 -110 -208 -132 -18
-80 -27 -103 -51 -132 -65 -77 -193 -81 -259 -7 -65 71 -68 130 -14 273 36 94
40 115 40 194 0 89 -2 99 -71 317 -20 65 -21 76 -9 120 27 94 123 155 213 134
28 -6 59 -28 112 -79 77 -75 100 -84 159 -61 54 20 60 47 67 265 6 174 10 211
32 285 52 174 127 307 243 429 156 166 326 258 579 314 11 3 369 5 795 6 l775
1 -3 -200z m1308 -721 c192 -31 359 -188 405 -380 21 -92 22 -834 0 -927 -45
-191 -191 -339 -372 -377 -104 -22 -1522 -22 -1608 0 -146 38 -254 124 -319
257 -64 128 -68 172 -63 618 3 360 5 401 24 461 53 177 191 304 376 344 79 17
1453 21 1557 4z m-2745 -598 c41 -24 101 -105 115 -158 28 -97 -10 -226 -86
-293 -21 -18 -142 -84 -269 -146 -126 -62 -249 -126 -271 -142 -64 -46 -89
-108 -88 -212 2 -279 224 -564 495 -637 57 -15 144 -17 802 -20 l737 -4 0
-199 0 -199 -752 3 c-675 2 -761 4 -828 20 -167 39 -354 135 -478 243 -184
162 -320 415 -352 657 l-12 86 46 84 c26 47 58 99 72 116 17 20 104 69 265
150 299 150 350 194 398 338 26 77 27 143 1 224 -11 36 -20 91 -20 130 l0 67
98 -45 c53 -25 111 -53 127 -63z m4182 27 c-3 -46 -14 -105 -23 -131 -26 -76
-17 -177 24 -259 55 -112 114 -157 384 -293 128 -64 241 -124 250 -133 9 -10
41 -60 71 -112 l55 -95 -9 -80 c-13 -108 -49 -224 -109 -342 -173 -343 -489
-555 -870 -583 -69 -5 -421 -10 -782 -10 l-658 0 0 199 0 200 743 3 c824 5
784 2 934 74 204 98 366 361 365 591 0 60 -5 82 -29 125 -15 28 -45 64 -66 79
-20 15 -140 78 -265 140 -125 61 -241 123 -258 136 -149 112 -136 376 22 474
39 23 202 98 218 98 5 1 6 -35 3 -81z m-2122 -1504 c18 -8 46 -34 62 -56 l28
-41 5 -557 c5 -612 2 -579 68 -607 48 -20 82 -1 205 116 58 56 118 106 132
111 41 16 117 12 154 -8 76 -38 117 -129 92 -203 -12 -38 -39 -72 -232 -290
-145 -165 -271 -317 -362 -440 -49 -65 -57 -82 -57 -120 0 -68 -17 -115 -55
-148 -87 -76 -206 -60 -272 38 -18 26 -23 48 -23 96 0 56 -4 67 -37 111 -93
122 -323 394 -526 623 -98 111 -115 165 -78 246 25 55 61 85 121 101 85 22
123 4 250 -120 129 -126 166 -140 231 -87 l24 19 5 555 5 555 30 43 c17 23 46
50 65 60 43 23 120 25 165 3z m-2932 -584 c47 -44 48 -47 45 -97 l-3 -52 -69
117 c-39 64 -76 128 -84 142 -8 14 3 5 24 -20 21 -25 60 -65 87 -90z m5779 62
c-12 -15 -46 -79 -76 -142 l-56 -113 0 68 0 68 73 77 c74 78 95 94 59 42z
m-5225 -370 c43 -11 114 -24 158 -28 72 -6 84 -10 117 -40 48 -43 119 -79 186
-93 33 -7 170 -11 356 -11 l304 0 -9 -37 c-20 -88 -8 -247 26 -334 5 -14 -19
-17 -227 -23 -375 -11 -589 10 -724 69 -77 34 -196 117 -244 172 -95 107 -163
234 -180 337 -16 101 -20 98 75 51 46 -24 119 -52 162 -63z m4843 86 c-1 -54
-33 -169 -67 -238 -29 -59 -58 -97 -137 -176 -88 -88 -113 -107 -196 -148 -52
-25 -122 -53 -155 -61 -84 -22 -266 -31 -576 -27 l-267 3 21 52 c22 57 29 200
14 289 l-8 47 333 3 c321 3 335 4 391 27 33 13 82 42 111 66 46 37 61 44 117
50 116 12 232 45 319 89 103 52 100 51 100 24z"/>
<path d="M5354 5489 c-17 -5 -39 -18 -50 -30 -18 -20 -19 -39 -19 -320 0 -285
1 -299 20 -318 33 -33 75 -36 115 -9 l35 24 5 149 5 150 50 -84 c65 -109 86
-131 126 -131 39 0 68 30 134 141 l50 84 3 -151 c2 -146 3 -152 28 -174 35
-34 86 -32 122 3 25 26 27 34 29 125 2 53 0 185 -3 292 l-7 194 -28 28 c-34
35 -93 38 -131 8 -14 -10 -63 -80 -109 -154 l-83 -134 -92 136 c-50 75 -97
142 -105 149 -26 22 -63 30 -95 22z"/>
<path d="M4396 5475 c-76 -27 -136 -110 -136 -187 1 -92 64 -169 170 -209 98
-36 118 -59 84 -93 -21 -22 -73 -20 -134 4 -47 18 -53 19 -80 5 -56 -29 -65
-76 -23 -125 69 -82 231 -96 338 -30 55 34 90 103 90 175 -1 104 -48 156 -195
218 -65 27 -71 32 -68 56 3 23 8 26 45 29 24 2 55 -4 72 -12 16 -9 40 -16 51
-16 31 0 80 53 80 85 0 36 -55 90 -105 104 -54 15 -142 13 -189 -4z"/>
<path d="M5015 5481 c-88 -22 -176 -95 -222 -185 -22 -41 -28 -69 -31 -143 -4
-86 -2 -96 26 -157 39 -84 111 -157 177 -179 56 -19 138 -22 183 -6 64 22 83
101 35 145 -24 22 -33 24 -74 19 -108 -15 -197 95 -168 208 20 81 110 147 180
133 61 -12 110 66 78 126 -21 40 -105 58 -184 39z"/>
</g>
</svg>
