<?xml version="1.0" standalone="no"?>
<!DOCTYPE svg PUBLIC "-//W3C//DTD SVG 20010904//EN"
 "http://www.w3.org/TR/2001/REC-SVG-20010904/DTD/svg10.dtd">
<svg version="1.0" xmlns="http://www.w3.org/2000/svg"
 width="1024.000000pt" height="1024.000000pt" viewBox="0 0 1024.000000 1024.000000"
 preserveAspectRatio="xMidYMid meet">
<metadata>
Created by potrace 1.16, written by Peter Selinger 2001-2019
</metadata>
<g transform="translate(0.000000,1024.000000) scale(0.100000,-0.100000)"
fill="#000000" stroke="none">
<path d="M3932 9516 c-45 -46 -82 -87 -82 -90 0 -16 21 -46 39 -55 12 -7 26
-6 44 4 l27 14 1 -617 c0 -339 0 -787 -1 -994 l-1 -378 25 -25 c29 -29 52 -32
84 -9 l22 15 0 1014 0 1014 28 -16 c34 -19 58 -13 73 21 9 20 8 28 -7 48 -31
40 -143 138 -157 138 -7 0 -50 -38 -95 -84z"/>
<path d="M2651 9523 c-86 -92 -95 -107 -81 -132 15 -30 56 -38 80 -16 16 14
21 15 25 4 3 -8 4 -453 2 -989 l-2 -975 -302 -3 -303 -2 0 130 c0 150 -13 137
132 143 107 4 153 30 189 103 l23 48 -1 726 -1 725 -143 137 -144 138 -475 -1
c-261 0 -526 -4 -587 -8 -99 -7 -117 -11 -147 -34 -19 -15 -45 -48 -57 -74
l-24 -48 -3 -754 c-3 -823 -3 -823 54 -891 51 -60 86 -70 255 -70 l152 0 -7
-139 c-7 -130 -6 -142 14 -181 34 -67 48 -70 370 -70 l280 0 0 -114 c0 -63 -3
-121 -6 -130 -5 -14 -62 -16 -535 -16 -516 0 -530 -1 -549 -20 -27 -27 -26
-65 2 -84 20 -14 86 -16 524 -16 276 0 516 -3 533 -6 l32 -7 -3 -117 c-3 -104
-1 -120 16 -139 23 -26 67 -27 89 -3 14 15 17 42 17 147 l0 128 77 -7 c42 -3
91 -6 110 -6 l33 0 0 -1002 c0 -552 2 -1019 5 -1038 32 -189 167 -383 347
-496 l38 -24 0 -544 0 -543 -38 -7 c-46 -7 -85 -45 -80 -77 3 -23 146 -153
181 -165 31 -10 57 23 57 73 l0 43 455 0 c495 0 498 0 523 55 7 16 12 77 12
160 l0 135 56 0 c48 0 59 4 85 29 l29 29 0 156 0 156 55 0 55 0 0 134 0 134
-177 -5 -178 -4 -3 -123 -3 -123 61 -7 60 -7 0 -119 0 -120 -268 0 -269 0 5
29 c5 38 -13 71 -41 71 -29 0 -197 -135 -197 -159 0 -20 166 -161 190 -161 26
0 50 33 50 69 l0 33 182 -5 182 -5 0 -38 c0 -22 -1 -74 -2 -116 l-2 -78 -428
0 -428 0 0 580 0 580 -35 36 c-18 20 -45 42 -59 49 -128 67 -252 249 -279 408
-8 48 -12 357 -13 1046 -1 682 -4 988 -12 1012 -6 19 -25 43 -45 56 -31 21
-45 23 -163 23 l-129 0 3 128 3 127 303 3 302 2 0 -267 c0 -382 -18 -363 335
-371 l245 -5 25 23 c30 28 33 70 7 93 -16 15 -48 17 -235 17 -204 0 -218 1
-237 20 -19 19 -20 33 -20 255 l0 235 69 0 c71 0 88 8 111 49 6 13 4 25 -7 42
-25 36 -31 38 -105 32 l-68 -6 0 992 0 992 22 -15 c12 -9 30 -16 39 -16 21 0
49 31 49 54 0 26 -149 176 -174 176 -13 0 -46 -27 -85 -67z m-571 -181 c0
-114 6 -120 119 -127 l82 -4 -1 -678 0 -677 -22 -23 -21 -23 -608 0 -608 0
-28 24 -28 24 2 754 c3 718 4 754 21 778 l19 25 529 5 c291 3 532 6 537 8 4 1
7 -38 7 -86z m-138 -1689 c2 -16 2 -76 0 -135 l-3 -108 -237 0 c-130 0 -247 3
-259 6 -22 6 -23 10 -23 135 l0 129 259 0 260 0 3 -27z"/>
<path d="M1070 9261 c-15 -29 -12 -49 9 -61 12 -6 121 -10 285 -10 227 0 267
2 280 16 19 18 21 45 4 62 -9 9 -87 12 -290 12 -264 0 -278 -1 -288 -19z"/>
<path d="M1306 9103 c-194 -3 -221 -5 -232 -21 -19 -25 -17 -50 5 -62 13 -6
202 -10 544 -10 495 0 525 1 540 18 22 25 21 37 -5 62 -21 19 -32 20 -327 18
-168 -2 -405 -4 -525 -5z"/>
<path d="M1815 8837 l-100 -52 -3 -208 -2 -207 110 0 c60 0 110 3 111 8 1 4 3
121 5 260 3 195 1 252 -9 252 -6 0 -57 -24 -112 -53z"/>
<path d="M1540 8734 c-36 -19 -83 -46 -105 -59 l-40 -23 1 -138 0 -139 107 -3
107 -3 0 185 c0 101 3 191 6 200 9 23 -3 20 -76 -20z"/>
<path d="M1180 8637 l-95 -52 -3 -107 -3 -108 106 0 105 0 0 144 c0 79 3 151
6 160 10 27 -16 18 -116 -37z"/>
<path d="M1072 8188 c-19 -19 -14 -45 10 -62 20 -14 89 -16 549 -16 497 0 527
1 542 18 20 22 22 43 5 60 -17 17 -1089 17 -1106 0z"/>
<path d="M1070 8001 c-14 -28 -13 -42 8 -57 14 -11 123 -13 549 -14 l533 0 16
25 c16 24 16 27 -1 45 -18 19 -33 20 -556 20 -522 0 -539 -1 -549 -19z"/>
<path d="M8416 9551 c-4 -6 -31 -11 -60 -11 -43 0 -61 -6 -93 -29 -77 -56 -74
-25 -71 -826 l3 -710 27 -47 c19 -32 41 -52 71 -67 42 -21 55 -21 633 -21 550
0 592 2 629 19 48 22 69 44 90 94 13 31 15 128 15 724 0 430 -4 702 -10 724
-16 59 -52 102 -104 128 l-49 24 -537 5 c-394 3 -539 2 -544 -7z m784 -165 c0
-82 25 -76 -321 -76 l-309 0 0 55 0 54 73 4 c39 1 181 4 315 5 l242 2 0 -44z
m-770 -40 c0 -49 5 -71 23 -97 40 -59 38 -59 433 -59 349 0 362 1 387 20 32
25 47 75 47 153 l0 57 78 0 c131 0 119 72 126 -721 6 -675 6 -676 -15 -703
l-20 -26 -560 0 -560 0 -24 25 -25 24 1 668 c1 367 4 679 8 693 5 20 15 26 46
30 22 3 43 4 48 2 4 -2 7 -31 7 -66z"/>
<path d="M8711 9051 c-81 -7 -107 -24 -85 -58 9 -15 27 -18 109 -18 91 0 98 2
106 22 9 25 -7 49 -36 55 -11 2 -53 2 -94 -1z"/>
<path d="M9065 9050 l-120 -5 0 -30 c0 -51 24 -56 245 -49 154 5 199 10 213
22 23 20 22 38 -5 56 -24 17 -82 18 -333 6z"/>
<path d="M8430 9010 l0 -40 50 0 50 0 0 40 0 40 -50 0 -50 0 0 -40z"/>
<path d="M8432 8838 l3 -43 48 -3 47 -3 0 45 0 46 -51 0 -50 0 3 -42z"/>
<path d="M8630 8864 c-10 -11 -11 -23 -4 -42 9 -26 13 -27 89 -30 111 -4 125
1 125 42 0 42 -9 46 -115 46 -63 0 -86 -4 -95 -16z"/>
<path d="M8952 8868 c-7 -7 -12 -21 -12 -33 0 -42 14 -45 235 -45 193 0 213 2
228 18 22 24 21 35 -1 55 -16 15 -47 17 -228 17 -150 0 -213 -3 -222 -12z"/>
<path d="M8443 8600 c-17 -7 -23 -18 -23 -39 0 -22 6 -32 23 -37 12 -5 230 -7
485 -7 488 2 496 3 490 47 -6 44 -27 46 -503 45 -247 0 -460 -4 -472 -9z"/>
<path d="M8438 8419 c-25 -14 -22 -55 4 -73 20 -14 82 -16 480 -16 l457 0 21
22 c23 25 26 48 8 66 -16 16 -944 17 -970 1z"/>
<path d="M8439 8177 c-27 -21 -30 -46 -9 -67 19 -19 35 -20 488 -20 442 0 470
1 485 18 22 24 21 45 -1 65 -17 15 -65 17 -483 17 -349 -1 -468 -4 -480 -13z"/>
<path d="M5073 9511 c-70 -12 -76 -22 -68 -121 4 -47 9 -95 12 -107 4 -16 1
-23 -10 -23 -8 0 -25 -8 -37 -18 -22 -18 -24 -17 -109 25 -96 48 -107 50 -137
25 -64 -53 -190 -267 -180 -305 3 -14 38 -44 92 -80 l86 -57 1 -61 2 -61 -56
-29 c-69 -37 -129 -86 -129 -105 0 -45 133 -260 185 -300 l34 -26 96 47 c89
44 97 46 114 31 10 -9 23 -16 30 -16 10 0 12 -27 9 -112 l-3 -113 40 -14 c52
-19 294 -20 349 -2 l39 14 -6 107 -6 107 39 26 40 26 87 -49 c86 -48 87 -49
116 -32 17 9 45 37 63 62 40 53 124 218 124 242 0 19 -32 48 -117 103 l-61 40
-3 58 -4 58 93 59 c51 33 95 66 98 75 12 29 -143 290 -191 321 -23 15 -28 14
-107 -26 -46 -23 -87 -45 -92 -50 -5 -5 -19 -1 -34 10 -14 11 -31 20 -40 20
-12 0 -14 18 -11 112 l4 112 -29 14 c-33 16 -256 25 -323 13z m213 -127 c-3
-9 -6 -30 -6 -48 l0 -32 -64 -2 -63 -3 -7 38 c-10 65 -12 63 70 63 65 0 75 -2
70 -16z m-479 -246 l38 -23 -42 -62 c-34 -52 -43 -60 -53 -48 -7 8 -21 15 -31
15 -11 0 -19 3 -19 8 -1 6 63 132 66 132 1 0 19 -10 41 -22z m903 -41 l35 -62
-42 -21 -43 -21 -6 21 c-4 12 -18 39 -32 60 -19 31 -21 41 -11 47 8 4 23 15
34 23 11 8 22 15 25 15 3 0 21 -28 40 -62z m-428 32 c103 -21 188 -90 239
-195 65 -131 23 -303 -98 -404 -43 -35 -145 -70 -205 -70 -102 0 -217 60 -275
144 -136 197 -37 467 191 522 66 16 84 16 148 3z m-502 -550 c0 -6 14 -30 30
-54 34 -49 36 -55 16 -55 -7 0 -25 -9 -39 -20 l-26 -21 -28 53 c-15 29 -28 56
-28 61 0 7 54 45 68 46 4 1 7 -4 7 -10z m929 -6 c17 -10 31 -22 31 -27 0 -5
-14 -32 -30 -62 l-31 -53 -37 21 c-20 12 -38 22 -40 23 -5 4 63 115 70 115 3
0 20 -8 37 -17z m-429 -288 c0 -5 3 -27 6 -47 l7 -38 -77 0 -76 0 0 43 c0 24
2 46 4 48 9 9 136 3 136 -6z"/>
<path d="M5135 9007 c-57 -22 -93 -47 -113 -74 -48 -70 -47 -140 1 -156 36
-12 77 13 77 47 0 15 12 35 31 50 57 48 105 47 164 -5 30 -27 35 -37 35 -75 0
-46 27 -84 61 -84 27 0 59 48 59 89 0 49 -44 135 -84 166 -66 50 -164 68 -231
42z"/>
<path d="M3226 9468 c-21 -30 -20 -61 3 -82 28 -25 72 -17 91 17 13 24 13 30
0 55 -21 37 -71 43 -94 10z"/>
<path d="M3550 9470 c-11 -11 -20 -29 -20 -40 0 -28 35 -60 64 -60 48 0 73 71
38 103 -25 23 -58 21 -82 -3z"/>
<path d="M6464 9439 c-10 -12 -41 -31 -69 -44 -62 -27 -74 -41 -83 -96 -6 -35
-12 -45 -30 -47 -20 -3 -23 -8 -20 -45 3 -38 6 -42 31 -45 20 -3 31 -12 41
-36 16 -38 51 -66 82 -66 12 0 25 -10 32 -25 10 -20 19 -25 51 -25 33 0 40 4
45 25 5 19 13 25 35 25 33 0 78 38 87 74 4 18 13 26 28 26 35 0 48 15 44 51
-2 26 -8 35 -25 37 -15 2 -25 12 -28 28 -3 13 -7 36 -10 50 -8 36 -52 74 -86
74 -19 0 -29 5 -29 14 0 22 -29 46 -54 46 -13 0 -31 -10 -42 -21z m69 -110
c36 -19 57 -52 57 -92 0 -49 -13 -73 -50 -92 -41 -21 -70 -19 -105 9 -26 21
-30 31 -30 74 0 36 6 56 20 72 34 38 71 48 108 29z"/>
<path d="M4360 9420 c-28 -28 -25 -64 6 -89 32 -26 46 -26 72 -3 34 29 37 58
8 87 -30 30 -59 32 -86 5z"/>
<path d="M5990 9376 l0 -66 55 0 56 0 -3 63 -3 62 -52 3 -53 3 0 -65z"/>
<path d="M6990 9396 l0 -44 50 -4 50 -3 0 48 0 47 -50 0 -50 0 0 -44z"/>
<path d="M7213 9393 l2 -48 48 -3 47 -3 0 44 c0 49 -9 57 -65 57 l-34 0 2 -47z"/>
<path d="M7795 9421 c-99 -24 -155 -94 -155 -193 1 -177 223 -264 339 -133 55
63 64 141 27 222 -36 77 -130 123 -211 104z m91 -147 c20 -19 24 -31 19 -52
-17 -69 -86 -94 -124 -46 -27 34 -27 72 1 101 29 31 72 30 104 -3z"/>
<path d="M2970 9212 c-52 -8 -67 -49 -28 -76 19 -14 78 -16 439 -16 398 0 417
1 433 19 21 23 14 56 -15 72 -19 10 -766 11 -829 1z"/>
<path d="M7214 9211 c-2 -2 -4 -24 -4 -48 l0 -44 53 3 52 3 0 45 0 45 -48 0
c-27 0 -51 -2 -53 -4z"/>
<path d="M6990 9165 l0 -45 50 0 50 0 0 45 0 45 -50 0 -50 0 0 -45z"/>
<path d="M6000 9019 c0 -43 3 -50 16 -45 9 3 31 6 50 6 34 0 34 0 34 45 l0 45
-50 0 -50 0 0 -51z"/>
<path d="M7113 8960 c-142 -30 -264 -166 -278 -311 -10 -103 41 -228 121 -299
145 -126 368 -113 497 30 93 104 117 251 59 373 -41 87 -92 141 -165 176 -69
34 -163 46 -234 31z m136 -136 c18 -4 54 -27 81 -51 84 -75 100 -174 44 -271
-66 -114 -235 -136 -330 -44 -67 65 -88 144 -60 225 40 112 141 166 265 141z"/>
<path d="M2936 8911 c-10 -11 -16 -28 -14 -38 8 -40 35 -43 454 -43 391 0 402
1 428 21 31 24 33 40 8 62 -17 15 -62 17 -439 17 -402 0 -421 -1 -437 -19z"/>
<path d="M6470 8875 l0 -45 45 0 45 0 0 45 0 45 -45 0 -45 0 0 -45z"/>
<path d="M6000 8779 l0 -50 48 3 47 3 3 48 3 47 -50 0 -51 0 0 -51z"/>
<path d="M4291 8754 c-26 -32 -26 -46 -3 -72 25 -30 56 -35 80 -15 31 28 35
56 11 86 -26 35 -61 35 -88 1z"/>
<path d="M7847 8762 c-36 -40 -9 -102 45 -102 49 0 78 69 42 104 -21 22 -67
20 -87 -2z"/>
<path d="M6470 8651 l0 -51 45 0 c36 0 45 4 46 18 5 83 8 77 -43 80 l-48 3 0
-50z"/>
<path d="M3161 8683 c-137 -2 -219 -7 -228 -14 -24 -20 -15 -57 17 -74 25 -13
90 -15 433 -15 l404 0 23 25 c20 21 22 28 12 50 -7 16 -20 25 -34 25 -13 0
-111 1 -218 3 -107 2 -291 1 -409 0z"/>
<path d="M6240 8645 l0 -45 50 0 50 0 0 45 0 45 -50 0 -50 0 0 -45z"/>
<path d="M7863 8538 c-21 -10 -33 -35 -33 -70 0 -24 35 -58 60 -58 57 0 80 83
34 119 -30 24 -31 24 -61 9z"/>
<path d="M2938 8416 c-25 -18 -22 -52 4 -70 19 -14 78 -16 439 -16 l417 0 16
25 c20 30 20 40 0 59 -14 14 -67 16 -437 16 -335 -1 -426 -3 -439 -14z"/>
<path d="M6129 8351 c-94 -75 -133 -116 -124 -131 3 -6 45 -44 92 -85 113 -99
153 -100 153 -3 0 44 2 48 23 44 12 -3 79 -5 150 -5 l127 -1 0 -585 0 -586 25
-24 c30 -31 55 -32 83 -2 l22 23 0 608 c0 519 -2 611 -15 636 -29 57 -43 60
-237 60 l-177 0 -3 41 c-2 29 -9 46 -24 56 -20 13 -27 10 -95 -46z"/>
<path d="M7644 8289 c-18 -5 -40 -21 -50 -36 -17 -26 -19 -64 -22 -561 -2
-293 -1 -558 3 -588 5 -44 14 -64 40 -93 l33 -36 236 -3 237 -3 -3 -137 -3
-137 -203 -3 -204 -2 7 30 c5 24 1 35 -19 55 -26 26 -27 26 -56 9 -16 -10 -61
-47 -100 -83 -54 -50 -70 -70 -65 -83 12 -30 166 -158 190 -158 32 0 50 26 49
72 l-1 39 201 -3 201 -3 0 -130 c1 -153 6 -177 42 -200 25 -17 63 -18 502 -17
262 1 497 -1 524 -4 l47 -6 0 -129 0 -128 -500 -3 c-464 -3 -501 -4 -517 -21
-17 -16 -18 -55 -24 -515 -6 -540 -6 -539 -66 -660 -56 -112 -136 -201 -235
-260 -20 -12 -52 -40 -72 -62 l-36 -40 0 -310 0 -310 -331 0 -331 0 6 24 c8
31 -7 71 -30 80 -21 8 -65 -21 -154 -103 l-65 -59 50 -52 c60 -62 137 -120
159 -120 22 0 49 46 44 75 -3 13 0 26 6 28 6 2 160 2 341 -1 293 -4 335 -3
365 12 65 30 65 29 68 373 l3 313 62 42 c82 55 194 169 236 241 75 127 110
272 111 455 l0 112 259 0 258 0 7 -39 c14 -88 112 -188 214 -217 49 -15 69
-15 136 -6 122 18 201 76 249 181 31 69 30 200 -2 261 -43 82 -81 121 -150
154 -164 77 -351 9 -430 -154 l-26 -55 -258 3 -257 2 0 250 0 250 43 1 c23 1
236 1 472 -1 372 -2 435 0 468 13 41 18 57 47 57 106 l0 39 65 7 c35 3 69 4
75 0 15 -9 79 5 95 22 23 23 18 59 -11 82 -23 18 -41 21 -126 21 l-99 0 3 143
3 142 105 3 c79 2 109 7 122 19 24 22 23 58 -4 83 -19 17 -35 20 -125 20
l-103 0 0 134 0 134 31 6 c17 3 68 6 112 6 85 0 106 11 107 56 0 43 -28 54
-143 54 l-107 0 0 94 c0 87 -2 97 -26 125 l-26 31 -570 0 -570 0 -28 -30 -28
-30 -201 0 -201 0 0 535 0 535 70 0 70 0 0 -238 c0 -219 2 -240 18 -255 26
-24 65 -21 90 6 21 22 22 32 21 198 0 96 -4 216 -7 267 -7 90 -8 95 -40 123
-32 29 -34 29 -145 28 -61 0 -126 -5 -143 -10z m1548 -1259 l38 0 0 -140 0
-140 -490 0 -490 0 0 140 0 140 378 3 c207 2 410 2 451 0 41 -2 91 -3 113 -3z
m38 -550 l0 -140 -490 0 -490 0 0 140 0 140 490 0 490 0 0 -140z m-4 -1079
c95 -43 129 -146 80 -244 -32 -67 -81 -97 -155 -97 -58 0 -93 15 -133 57 -133
140 31 364 208 284z"/>
<path d="M4349 8191 c-38 -38 -39 -87 -4 -125 50 -54 139 -21 152 56 5 32 1
41 -25 68 -41 40 -83 41 -123 1z"/>
<path d="M2942 8184 c-29 -20 -28 -48 4 -73 26 -20 37 -21 434 -21 l407 0 21
23 c28 30 28 52 0 71 -19 14 -78 16 -433 16 -355 0 -414 -2 -433 -16z"/>
<path d="M7211 8036 c-7 -8 -11 -37 -9 -68 l3 -53 45 0 45 0 3 53 c4 62 -8 82
-48 82 -15 0 -33 -6 -39 -14z"/>
<path d="M6866 7994 c-23 -23 -20 -67 8 -93 20 -19 27 -20 50 -10 25 12 32 32
26 84 -4 36 -55 48 -84 19z"/>
<path d="M4652 7978 c-19 -19 -15 -66 7 -78 45 -24 81 -2 81 49 0 34 -62 55
-88 29z"/>
<path d="M2965 7953 c-49 -13 -61 -60 -23 -87 19 -14 78 -16 439 -16 397 0
417 1 433 19 22 25 17 62 -11 76 -22 11 -798 18 -838 8z"/>
<path d="M4497 7902 c-23 -25 -21 -55 3 -77 31 -28 74 -10 78 31 5 48 -51 80
-81 46z"/>
<path d="M5866 7874 c-22 -22 -20 -50 6 -74 12 -11 25 -20 28 -20 14 0 50 42
50 59 0 22 -30 51 -53 51 -8 0 -23 -7 -31 -16z"/>
<path d="M4334 7805 c-15 -23 -15 -27 0 -50 16 -25 26 -29 56 -25 18 2 40 28
40 47 0 20 -37 53 -60 53 -11 0 -27 -11 -36 -25z"/>
<path d="M6871 7781 c-30 -30 -27 -75 5 -100 31 -24 59 -15 74 25 13 33 12 47
-2 66 -22 28 -55 31 -77 9z"/>
<path d="M7200 7724 l0 -75 47 3 48 3 7 45 c5 25 6 57 2 73 -5 25 -9 27 -55
27 l-49 0 0 -76z"/>
<path d="M6014 7765 c-15 -23 -15 -27 0 -50 25 -38 61 -32 85 13 27 52 -53 86
-85 37z"/>
<path d="M4996 7765 c-187 -36 -371 -115 -511 -220 -192 -145 -342 -347 -410
-553 -9 -29 -22 -55 -29 -56 -6 -2 -40 -9 -75 -15 -266 -50 -509 -258 -620
-531 -23 -55 -23 -55 -112 -94 -117 -50 -189 -98 -275 -182 -123 -121 -218
-287 -266 -463 -31 -115 -31 -345 0 -456 43 -150 137 -319 243 -439 118 -133
356 -262 521 -280 82 -10 3353 -15 3518 -6 166 10 264 32 385 89 240 113 427
340 507 617 20 68 23 102 23 244 0 145 -3 174 -23 240 -84 266 -261 488 -477
597 -55 28 -238 93 -262 93 -13 0 -26 15 -41 45 -57 117 -167 239 -276 304
-81 48 -243 102 -330 108 l-72 6 -13 56 c-34 148 -156 379 -262 496 -182 202
-379 318 -654 386 -109 28 -376 35 -489 14z m477 -344 c94 -25 224 -84 316
-145 78 -52 189 -165 245 -250 87 -131 156 -346 156 -485 0 -87 -8 -101 -57
-101 -45 0 -60 28 -66 131 -10 152 -77 318 -184 454 -107 136 -297 248 -483
286 -178 36 -394 13 -530 -56 -35 -18 -61 -24 -77 -21 -29 8 -47 49 -33 77 22
40 205 112 329 130 93 13 297 2 384 -20z m101 -276 c90 -51 176 -122 217 -179
l29 -40 -27 -28 c-33 -35 -43 -35 -74 -2 -46 49 -150 127 -226 168 -42 22 -78
46 -80 51 -2 6 6 25 17 43 27 43 49 41 144 -13z m-646 -277 l3 -48 44 0 c32 0
47 -5 54 -18 15 -28 -2 -43 -50 -47 l-44 -3 -5 -48 c-5 -47 -6 -49 -35 -49
-29 0 -30 2 -33 48 l-3 47 -50 0 c-37 0 -51 4 -56 16 -11 30 11 49 61 52 l46
3 0 38 c0 42 16 63 45 59 16 -2 21 -12 23 -50z m432 -118 c0 -50 0 -50 -32
-50 -67 0 -78 8 -78 56 l0 44 55 0 55 0 0 -50z m-1156 -102 c71 -14 112 -44
102 -76 -12 -36 -37 -43 -92 -25 -79 25 -207 22 -284 -6 -119 -43 -243 -151
-301 -263 -21 -41 -50 -49 -84 -24 -17 12 -17 16 -5 46 20 49 120 180 169 222
80 68 213 126 326 141 37 5 91 0 169 -15z m2337 -84 c90 -27 170 -73 238 -138
75 -71 123 -142 166 -245 l31 -75 64 -13 c128 -26 307 -133 391 -235 214 -257
256 -573 114 -858 -46 -91 -104 -165 -183 -233 -71 -61 -105 -76 -131 -60 -33
21 -24 49 29 94 170 147 262 358 247 569 -13 171 -77 311 -201 436 -105 106
-211 160 -361 184 -33 5 -65 15 -72 22 -7 8 -17 38 -23 68 -33 178 -187 334
-380 385 -30 8 -71 15 -90 15 -41 0 -80 24 -80 48 0 10 7 28 16 41 16 22 21
23 94 17 42 -3 101 -13 131 -22z m-654 -196 c23 -21 23 -22 23 -290 l0 -268
-60 0 -60 0 0 225 0 225 -550 0 c-302 0 -553 0 -557 0 -5 0 -8 -100 -9 -223
l-1 -222 -55 -3 -55 -3 -6 38 c-4 21 -4 144 0 273 4 190 9 238 21 253 14 16
58 17 650 17 l636 0 23 -22z m-1697 -18 c80 -41 130 -122 130 -210 0 -129 -96
-225 -225 -224 -145 1 -252 126 -225 263 13 67 34 105 82 144 69 56 161 66
238 27z m2240 -228 c131 -66 88 -272 -57 -272 -120 0 -192 103 -143 205 37 76
124 106 200 67z m-1357 -13 c33 -18 37 -28 37 -111 0 -71 -2 -78 -26 -97 -24
-19 -36 -20 -136 -16 -149 7 -148 7 -148 108 0 123 4 127 141 127 64 0 120 -5
132 -11z m365 -81 l3 -48 -55 0 -56 0 0 51 0 50 53 -3 52 -3 3 -47z m240 -1
l3 -48 -53 3 -53 3 -3 48 -3 48 53 -3 53 -3 3 -48z m-2108 19 c6 -8 10 -25 8
-38 -2 -19 -14 -26 -67 -40 -104 -28 -170 -66 -241 -139 -70 -72 -119 -158
-146 -255 -22 -85 -20 -223 5 -304 57 -183 209 -332 385 -380 66 -18 88 -39
70 -67 -40 -64 -250 21 -381 154 -79 79 -140 188 -168 298 -20 78 -20 233 0
310 58 219 223 403 409 456 76 22 110 23 126 5z m3561 -224 c64 -42 169 -158
208 -231 l34 -64 -32 -29 c-17 -15 -36 -28 -41 -28 -6 0 -27 26 -47 58 -48 75
-121 159 -177 202 -25 19 -45 41 -46 48 0 14 40 72 50 72 3 0 26 -13 51 -28z
m-631 -112 c19 -19 20 -33 20 -405 0 -370 -1 -385 -19 -395 -13 -7 -430 -10
-1278 -10 -1253 0 -1259 0 -1281 20 -22 21 -22 23 -22 395 0 362 1 376 20 395
20 20 33 20 1280 20 1247 0 1260 0 1280 -20z m-2966 -126 c9 -9 16 -32 16 -55
l0 -39 45 0 c34 0 47 -5 55 -19 18 -35 2 -51 -51 -51 l-48 0 -3 -47 c-3 -46
-4 -48 -33 -48 -29 0 -30 2 -33 48 l-3 47 -50 0 c-55 0 -68 14 -49 50 10 19
18 22 56 17 l44 -5 0 47 c0 64 23 87 54 55z m3614 -316 l-3 -43 -67 -3 -68 -3
0 46 0 45 71 0 70 0 -3 -42z"/>
<path d="M4059 6270 c-65 -18 -99 -59 -99 -122 0 -94 105 -167 183 -127 72 37
99 104 69 172 -10 23 -25 47 -33 54 -22 18 -90 31 -120 23z"/>
<path d="M6329 6029 c-24 -24 -24 -51 1 -74 43 -39 115 21 76 64 -26 28 -55
32 -77 10z"/>
<path d="M4897 6044 c-10 -10 -9 -56 2 -72 5 -9 25 -12 62 -10 l54 3 0 40 0
40 -55 3 c-31 2 -59 0 -63 -4z"/>
<path d="M4040 5315 l0 -285 1180 0 1180 0 0 285 0 285 -1180 0 -1180 0 0
-285z m692 108 c15 -13 18 -32 18 -108 0 -139 19 -129 -279 -133 l-251 -3 -25
25 c-22 23 -25 33 -25 104 0 65 4 84 21 106 l20 26 251 0 c220 0 254 -2 270
-17z m466 -15 c-3 -33 -3 -33 -72 -41 -38 -4 -71 -9 -73 -10 -1 -2 -5 -17 -8
-33 -9 -46 6 -57 78 -62 56 -4 66 -7 71 -26 15 -55 13 -56 -90 -56 -92 0 -97
1 -125 29 -26 27 -29 36 -29 96 0 117 20 134 153 135 l98 0 -3 -32z m832 -58
l0 -50 -50 0 -50 0 0 44 0 45 48 4 c26 2 48 4 50 5 1 1 2 -20 2 -48z m-520 -5
l0 -45 -55 0 -55 0 0 45 0 45 55 0 55 0 0 -45z m260 0 l0 -45 -61 0 c-59 0
-61 1 -55 23 3 12 6 32 6 45 0 20 5 22 55 22 l55 0 0 -45z m520 0 l0 -45 -55
0 -55 0 0 45 0 45 55 0 55 0 0 -45z"/>
<path d="M4272 5318 l3 -43 193 -3 192 -2 0 45 0 45 -196 0 -195 0 3 -42z"/>
<path d="M3185 7678 c-43 -24 -47 -67 -9 -97 34 -27 55 -26 82 2 27 28 28 48
5 75 -23 26 -53 34 -78 20z"/>
<path d="M6154 7665 c-14 -21 -15 -31 -6 -51 15 -31 37 -40 67 -26 36 17 44
61 15 84 -31 25 -57 23 -76 -7z"/>
<path d="M3571 7602 c-48 -24 -70 -59 -77 -117 -9 -90 43 -154 134 -163 97 -9
166 54 165 151 -2 112 -121 181 -222 129z m101 -99 c24 -21 23 -60 -1 -73 -31
-16 -49 -12 -67 15 -15 23 -15 27 0 50 19 29 42 32 68 8z"/>
<path d="M9470 7605 c-8 -9 -11 -30 -7 -55 l5 -40 -273 0 c-300 0 -305 -1
-305 -60 0 -57 16 -60 310 -60 l265 0 -4 -47 c-2 -36 1 -50 15 -60 32 -24 52
-14 138 68 62 59 84 85 78 96 -5 7 -44 50 -87 93 -80 82 -110 96 -135 65z"/>
<path d="M6866 7564 c-26 -25 -20 -79 10 -99 25 -16 28 -16 53 2 32 24 38 56
17 89 -19 28 -57 32 -80 8z"/>
<path d="M6285 7535 c-30 -29 -31 -46 -7 -68 55 -50 124 21 72 73 -26 26 -36
25 -65 -5z"/>
<path d="M7204 7537 c-3 -8 -4 -41 -2 -73 l3 -59 45 0 45 0 0 70 0 70 -43 3
c-29 2 -44 -1 -48 -11z"/>
<path d="M7870 7490 c-26 -26 -25 -54 2 -80 21 -19 33 -20 435 -20 400 0 414
1 433 20 24 24 25 48 4 78 l-15 22 -420 0 c-406 0 -420 -1 -439 -20z"/>
<path d="M946 7439 c-32 -25 -33 -59 -3 -87 28 -27 58 -28 80 -4 31 34 25 77
-13 97 -36 19 -32 19 -64 -6z"/>
<path d="M6878 7356 c-38 -19 -37 -95 3 -116 44 -24 91 37 70 92 -11 30 -41
40 -73 24z"/>
<path d="M7204 7287 c-3 -8 -4 -41 -2 -73 l3 -59 45 0 45 0 0 70 0 70 -43 3
c-29 2 -44 -1 -48 -11z"/>
<path d="M3153 7271 c-40 -25 -53 -49 -53 -101 0 -56 50 -110 102 -110 100 0
156 117 91 190 -37 41 -94 50 -140 21z"/>
<path d="M7204 7026 c-3 -7 -4 -40 -2 -72 l3 -59 45 0 45 0 3 73 3 72 -46 0
c-29 0 -47 -5 -51 -14z"/>
<path d="M7202 6703 l3 -78 45 0 45 0 3 78 3 77 -51 0 -51 0 3 -77z"/>
<path d="M888 6739 c-25 -14 -22 -45 4 -63 18 -13 57 -16 213 -16 199 0 236 7
243 45 8 40 -20 45 -237 45 -121 0 -213 -5 -223 -11z"/>
<path d="M1470 6735 c-17 -21 -9 -48 20 -63 24 -12 118 -10 155 4 22 9 27 36
9 55 -14 15 -32 19 -94 19 -56 0 -81 -4 -90 -15z"/>
<path d="M888 6549 c-22 -13 -23 -52 -2 -70 23 -19 414 -20 437 0 20 16 22 52
5 69 -15 15 -414 16 -440 1z"/>
<path d="M1462 6548 c-7 -7 -12 -21 -12 -33 0 -36 20 -45 100 -45 64 0 80 3
95 20 15 17 16 24 7 45 -11 24 -16 25 -95 25 -51 0 -88 -5 -95 -12z"/>
<path d="M1954 6465 c-35 -54 33 -116 85 -77 33 24 37 46 17 77 -23 35 -79 35
-102 0z"/>
<path d="M876 6321 c-19 -21 -13 -47 15 -61 10 -6 98 -10 197 -10 161 0 181 2
195 18 22 24 21 35 -1 55 -16 15 -45 17 -204 17 -167 0 -186 -2 -202 -19z"/>
<path d="M2740 6295 c-20 -21 -22 -29 -12 -49 16 -36 49 -43 78 -15 31 29 30
43 -2 68 -34 26 -36 26 -64 -4z"/>
<path d="M7746 6284 c-19 -18 -21 -55 -4 -72 7 -7 24 -12 40 -12 20 0 31 8 43
30 14 28 14 31 -5 50 -24 24 -53 26 -74 4z"/>
<path d="M1960 6250 c-25 -25 -25 -41 1 -74 13 -17 30 -26 49 -26 31 0 45 13
55 52 14 55 -63 90 -105 48z"/>
<path d="M1591 6221 c-8 -5 -15 -25 -15 -45 l-1 -36 -72 0 c-63 0 -74 -3 -87
-22 -20 -29 -20 -34 4 -58 16 -16 33 -20 85 -20 61 0 65 -1 65 -23 0 -29 18
-47 45 -47 24 0 135 109 135 132 -1 20 -108 128 -127 128 -10 0 -24 -4 -32 -9z"/>
<path d="M2610 6150 c-17 -23 -19 -34 -10 -50 25 -46 73 -41 100 11 9 15 6 24
-14 44 -33 33 -50 32 -76 -5z"/>
<path d="M7857 6152 c-22 -24 -21 -55 1 -75 26 -24 59 -21 77 7 19 28 9 58
-25 76 -26 14 -34 13 -53 -8z"/>
<path d="M882 6118 c-18 -18 -14 -56 7 -68 12 -6 96 -10 204 -10 169 0 185 2
201 19 22 24 13 57 -17 65 -44 12 -382 7 -395 -6z"/>
<path d="M7956 6001 c-23 -25 -18 -49 17 -75 l27 -20 27 27 c27 26 27 28 11
55 -21 34 -58 40 -82 13z"/>
<path d="M1967 5912 c-37 -40 -9 -102 46 -102 28 0 57 32 57 62 0 25 -36 58
-63 58 -13 0 -31 -8 -40 -18z"/>
<path d="M880 5900 c-22 -22 -24 -29 -12 -46 17 -27 56 -34 175 -34 156 0 185
6 200 38 10 21 8 27 -12 43 -20 17 -41 19 -177 19 -141 0 -156 -2 -174 -20z"/>
<path d="M1379 5640 l-64 -79 -80 -1 -80 0 -73 -110 c-82 -122 -81 -109 -26
-223 l33 -69 -20 -50 c-10 -27 -29 -67 -40 -90 -25 -49 -24 -54 64 -185 l62
-93 77 0 78 0 67 -80 68 -80 131 0 131 0 44 48 c24 26 56 62 71 80 25 30 30
32 98 33 l71 1 43 62 c24 33 58 86 76 115 32 55 32 55 15 90 -10 20 -28 62
-41 94 l-23 57 40 86 39 85 -71 114 -72 115 -77 0 -77 0 -67 80 -67 80 -132 0
-133 0 -65 -80z m302 -76 c7 -15 40 -51 73 -80 58 -53 60 -54 121 -54 l62 0
31 -58 31 -57 -26 -60 c-39 -92 -40 -116 -4 -198 l32 -72 -31 -56 -30 -56 -72
-6 c-71 -6 -72 -7 -130 -64 -32 -31 -61 -65 -64 -75 -5 -15 -18 -18 -93 -18
l-89 0 -28 38 c-15 20 -49 56 -74 79 -44 42 -46 43 -116 43 l-70 0 -29 59 -28
59 32 67 c17 37 31 80 31 95 0 15 -14 58 -31 95 l-32 67 29 56 29 56 70 4 70
3 75 79 75 79 86 0 c83 1 86 0 100 -25z"/>
<path d="M9482 5704 c-32 -22 -26 -70 11 -98 26 -19 30 -19 55 -5 51 28 35
119 -22 119 -12 0 -32 -7 -44 -16z"/>
<path d="M8692 5659 c-29 -11 -46 -53 -32 -79 12 -22 41 -40 64 -40 22 0 56
40 56 65 0 38 -49 68 -88 54z"/>
<path d="M8507 4962 c-36 -40 -9 -102 45 -102 51 0 78 69 40 103 -24 22 -65
21 -85 -1z"/>
<path d="M9326 4698 c-22 -30 -20 -54 5 -79 27 -27 66 -21 92 12 16 23 17 30
7 50 -17 31 -29 39 -62 39 -17 0 -33 -9 -42 -22z"/>
<path d="M910 4650 c-11 -11 -20 -29 -20 -40 0 -48 71 -78 102 -42 28 32 29
52 3 78 -29 29 -58 31 -85 4z"/>
<path d="M2070 4650 c-11 -11 -20 -27 -20 -35 0 -21 45 -65 65 -65 19 0 65 44
65 62 0 52 -72 76 -110 38z"/>
<path d="M8770 4609 c-71 -12 -187 -67 -238 -114 -52 -47 -103 -124 -132 -200
-18 -46 -23 -80 -23 -146 l1 -86 -32 -11 c-36 -13 -96 -69 -136 -127 -65 -95
-78 -246 -29 -356 22 -49 24 -65 21 -166 l-4 -113 -639 0 -639 0 0 38 c0 45
-15 69 -51 77 -40 10 -70 -21 -73 -75 -2 -44 -3 -45 -42 -50 -47 -6 -70 -42
-54 -84 10 -28 22 -35 64 -40 14 -1 26 -6 26 -9 0 -4 0 -389 0 -857 l0 -850
-75 0 -75 0 0 180 0 180 -761 0 -762 0 4 -177 4 -178 -82 -3 -83 -3 0 656 0
655 33 0 c17 0 55 -3 83 -6 l51 -6 -1 -182 -1 -181 750 0 750 0 8 228 c5 125
6 239 3 252 l-6 25 -881 0 c-588 0 -887 -3 -900 -10 -15 -8 -19 -22 -19 -61
l0 -49 -257 2 -258 3 0 350 0 350 65 25 c91 36 100 57 100 222 l0 127 58 3 57
3 3 128 3 127 -186 0 -186 0 3 -127 3 -128 58 -3 57 -3 0 -109 0 -109 -37 -7
c-51 -9 -97 -38 -112 -71 -20 -43 -16 -805 4 -848 30 -63 43 -65 349 -65 l275
0 1 -652 c0 -601 1 -654 17 -666 26 -19 2046 -18 2062 1 8 10 12 273 13 928
l3 914 638 2 637 3 0 -80 c0 -113 4 -116 166 -125 71 -4 381 -6 688 -3 528 5
560 6 573 23 10 15 13 73 13 256 0 224 -1 238 -21 263 l-21 26 24 68 c17 50
23 89 23 153 0 78 -3 91 -37 160 -45 91 -124 173 -208 218 -50 27 -60 36 -60
59 -1 98 -71 238 -163 322 -48 45 -164 98 -237 110 -74 11 -94 11 -170 -1z
m236 -165 c91 -43 168 -141 189 -240 l6 -32 -67 -4 c-77 -5 -104 -27 -104 -83
0 -52 30 -65 146 -65 86 0 103 -3 160 -30 157 -75 218 -266 128 -403 -15 -23
-42 -46 -67 -58 -39 -17 -72 -19 -495 -19 -503 0 -491 -1 -553 67 -47 52 -63
101 -56 171 10 96 107 212 177 212 20 0 35 9 49 29 25 34 25 43 6 97 -28 81 6
201 82 285 93 103 268 135 399 73z m504 -1194 l0 -170 -590 0 -590 0 0 166 c0
132 3 164 13 157 38 -29 104 -33 558 -33 371 0 475 3 518 15 30 8 59 19 64 24
6 6 15 11 19 11 4 0 8 -76 8 -170z m-3056 -506 c43 -6 46 -9 42 -33 -2 -14 -5
-68 -5 -119 l-1 -92 -612 2 -613 3 -3 109 c-1 61 0 116 2 123 4 11 114 13 574
13 313 0 590 -3 616 -6z m38 -1111 c2 -21 2 -73 0 -115 l-4 -78 -609 0 c-480
0 -609 3 -610 13 0 6 -2 52 -5 101 -3 50 -2 96 0 103 4 10 122 13 615 13 l610
0 3 -37z"/>
<path d="M8614 3916 c-3 -8 -4 -27 -2 -43 3 -25 7 -28 46 -31 l42 -3 0 45 0
46 -40 0 c-26 0 -43 -5 -46 -14z"/>
<path d="M8776 3905 c-11 -42 9 -67 52 -63 36 3 37 4 37 43 0 40 0 40 -41 43
-37 3 -42 0 -48 -23z"/>
<path d="M8450 3685 l0 -45 40 0 40 0 0 45 0 45 -40 0 -40 0 0 -45z"/>
<path d="M8620 3679 c0 -43 3 -50 16 -45 9 3 27 6 40 6 22 0 24 4 24 45 l0 45
-40 0 -40 0 0 -51z"/>
<path d="M8796 3689 c-8 -51 -5 -56 38 -51 35 4 36 5 36 48 0 43 -1 44 -34 44
-31 0 -34 -2 -40 -41z"/>
<path d="M8964 3685 l-1 -45 39 0 38 0 0 45 0 45 -37 0 -38 0 -1 -45z"/>
<path d="M9168 3663 c-15 -4 -27 -23 -14 -23 2 0 11 -3 19 -6 8 -3 17 2 20 10
7 18 -1 24 -25 19z"/>
<path d="M5368 2669 c-27 -15 -23 -54 7 -67 17 -8 97 -12 234 -12 194 0 209 1
226 20 17 18 17 21 1 45 l-16 25 -218 0 c-129 0 -224 -5 -234 -11z"/>
<path d="M5355 1583 c-17 -25 -17 -27 0 -39 23 -17 112 -24 296 -21 115 1 160
6 172 16 21 17 21 35 1 55 -13 14 -49 16 -234 16 l-218 0 -17 -27z"/>
<path d="M7446 4385 c-9 -9 -16 -27 -16 -41 0 -27 32 -64 55 -64 21 0 55 36
55 58 0 45 -63 77 -94 47z"/>
<path d="M3044 4365 c-15 -23 -15 -27 -1 -49 20 -30 50 -38 76 -19 23 16 28
62 9 81 -21 21 -66 14 -84 -13z"/>
<path d="M9550 4330 c-11 -11 -20 -29 -20 -40 0 -27 35 -60 64 -60 32 0 56 25
56 59 0 55 -61 80 -100 41z"/>
<path d="M7262 4318 c-13 -13 -16 -47 -4 -64 12 -18 49 -34 65 -28 19 7 38 50
30 70 -6 15 -42 34 -67 34 -6 0 -17 -5 -24 -12z"/>
<path d="M8076 4314 c-37 -37 -7 -104 47 -104 28 0 57 32 57 62 0 46 -72 75
-104 42z"/>
<path d="M3248 4313 c-32 -2 -58 -7 -58 -11 0 -4 13 -23 28 -41 23 -28 36 -34
80 -39 l52 -5 0 42 c0 22 0 44 0 49 1 9 -26 10 -102 5z"/>
<path d="M4263 4313 c-31 -4 -33 -7 -33 -44 l0 -39 51 0 50 0 -3 42 c-3 46 -7
48 -65 41z"/>
<path d="M4370 4268 l0 -48 44 0 c47 0 56 9 56 60 0 27 -3 28 -50 32 l-50 3 0
-47z"/>
<path d="M3430 4270 l0 -40 50 0 c46 0 50 2 50 24 0 13 3 31 6 40 5 13 -3 16
-50 16 l-56 0 0 -40z"/>
<path d="M3700 4270 c0 -25 5 -40 13 -40 6 0 29 -3 50 -6 l37 -7 0 47 0 46
-50 0 -50 0 0 -40z"/>
<path d="M3840 4265 c0 -45 0 -45 34 -45 56 0 66 8 66 51 l0 39 -50 0 -50 0 0
-45z"/>
<path d="M3980 4266 l0 -43 45 -1 45 -1 0 44 0 45 -45 0 -45 0 0 -44z"/>
<path d="M4503 4274 c3 -20 7 -38 9 -39 2 -1 22 -5 46 -9 l42 -6 0 45 0 45
-51 0 -52 0 6 -36z"/>
<path d="M4762 4268 l3 -43 46 -3 47 -3 4 41 c2 23 2 43 -1 46 -2 2 -26 4 -53
4 l-49 0 3 -42z"/>
<path d="M4902 4268 c3 -43 3 -43 46 -46 l42 -3 0 45 0 46 -46 0 -45 0 3 -42z"/>
<path d="M5034 4279 c3 -17 6 -38 6 -46 0 -11 11 -13 46 -11 l46 3 2 43 2 42
-54 0 -54 0 6 -31z"/>
<path d="M5300 4266 l0 -43 45 -1 45 -1 0 44 0 45 -45 0 -45 0 0 -44z"/>
<path d="M5432 4268 l3 -43 45 0 45 0 3 43 3 42 -51 0 -51 0 3 -42z"/>
<path d="M5570 4265 l0 -45 50 0 50 0 0 45 0 45 -50 0 -50 0 0 -45z"/>
<path d="M5820 4266 l0 -43 43 0 c48 1 57 9 57 55 0 32 0 32 -50 32 l-50 0 0
-44z"/>
<path d="M5950 4278 c0 -49 12 -60 56 -56 38 3 39 4 42 46 l3 42 -50 0 c-51 0
-51 0 -51 -32z"/>
<path d="M6092 4268 l3 -43 48 -3 47 -3 0 45 0 46 -51 0 -50 0 3 -42z"/>
<path d="M6344 4279 c3 -17 6 -38 6 -45 0 -10 13 -14 45 -14 l45 0 0 45 0 45
-51 0 -51 0 6 -31z"/>
<path d="M6482 4268 l3 -43 45 0 45 0 3 43 3 42 -51 0 -51 0 3 -42z"/>
<path d="M6620 4265 l0 -45 44 0 44 0 4 45 3 45 -47 0 -48 0 0 -45z"/>
<path d="M6880 4268 l0 -43 44 0 44 0 4 43 3 42 -47 0 -48 0 0 -42z"/>
<path d="M7060 4296 c0 -7 -3 -28 -6 -45 l-6 -31 60 0 c58 0 61 1 81 34 33 52
29 56 -54 56 -57 0 -75 -3 -75 -14z"/>
<path d="M1144 4290 c-31 -12 -54 -49 -54 -87 l0 -33 -103 0 c-117 0 -147 -12
-147 -59 0 -51 24 -61 143 -61 l107 0 0 -39 c0 -28 7 -49 24 -68 l24 -28 564
-3 c309 -1 573 0 585 3 41 10 53 53 53 182 0 131 -15 174 -66 193 -32 12
-1100 12 -1130 0z m789 -126 c43 -5 47 -8 47 -34 0 -15 -3 -42 -6 -59 l-6 -31
-374 0 -374 0 0 58 c0 32 2 61 5 64 8 7 648 9 708 2z m275 -38 c2 -22 1 -50
-2 -63 -6 -20 -12 -23 -56 -23 l-50 0 0 59 c0 66 4 71 65 68 39 -2 40 -3 43
-41z"/>
<path d="M4766 4031 c-3 -41 -6 -97 -6 -126 l0 -52 38 -7 c20 -3 49 -6 65 -6
l27 0 0 -147 c0 -129 3 -152 20 -180 43 -70 22 -68 551 -71 529 -3 530 -3 569
60 18 29 20 50 20 186 l0 152 65 0 65 0 0 133 0 133 -180 0 -180 -1 0 -127 0
-126 40 -7 c21 -4 44 -4 50 0 15 9 14 -247 -2 -263 -8 -8 -64 -12 -185 -12
l-173 0 0 68 c0 37 -3 97 -6 134 l-7 67 57 3 57 3 0 128 0 129 -175 1 -176 2
0 -127 0 -128 29 0 c16 0 43 -3 60 -6 30 -6 31 -8 31 -64 0 -31 -3 -91 -6
-133 l-7 -77 -174 0 c-101 0 -182 4 -194 10 -17 10 -19 22 -19 135 l0 125 55
0 55 0 0 134 0 135 -179 -2 -178 -2 -7 -74z"/>
<path d="M6340 3976 l0 -124 55 -7 55 -6 0 -113 0 -113 -87 -5 c-82 -4 -87 -6
-115 -36 l-28 -32 0 -160 0 -160 -710 0 -710 0 0 170 c0 157 -2 172 -20 190
-27 27 -75 26 -94 -2 -14 -19 -16 -64 -16 -291 l0 -268 25 -24 c47 -48 105
-18 105 55 l0 40 729 0 c517 0 737 3 761 11 50 18 60 54 60 223 0 166 -10 151
103 159 50 3 63 9 90 36 l32 31 3 144 4 144 59 7 59 7 0 124 0 124 -180 0
-180 0 0 -124z"/>
<path d="M2956 4001 c-24 -26 -17 -62 16 -80 24 -14 28 -14 47 3 26 24 27 58
3 79 -24 22 -45 21 -66 -2z"/>
<path d="M3137 4002 c-22 -25 -21 -48 3 -72 24 -24 43 -25 64 -4 21 21 20 57
-2 77 -24 22 -45 21 -65 -1z"/>
<path d="M3319 3999 c-30 -30 -5 -89 38 -89 18 0 53 37 53 55 0 8 -9 24 -20
35 -25 25 -45 25 -71 -1z"/>
<path d="M7088 4009 c-25 -14 -24 -65 1 -79 55 -29 100 15 67 65 -17 26 -39
31 -68 14z"/>
<path d="M7266 4004 c-30 -29 -13 -75 30 -88 42 -13 74 60 42 92 -17 17 -54
15 -72 -4z"/>
<path d="M7444 3995 c-20 -30 -11 -58 22 -74 22 -9 31 -9 50 4 29 19 31 48 4
75 -27 27 -56 25 -76 -5z"/>
<path d="M1138 3704 c-37 -20 -48 -43 -48 -103 l0 -51 -108 0 c-119 0 -142
-10 -142 -62 0 -47 26 -58 143 -58 l107 0 0 -130 0 -130 -105 0 c-92 0 -108
-3 -125 -20 -25 -25 -26 -62 -2 -83 15 -14 40 -17 124 -17 l105 0 6 -42 c11
-80 -22 -75 593 -79 300 -2 566 -2 590 0 77 6 76 1 77 391 l2 341 -33 30 -32
29 -563 0 c-476 -1 -566 -3 -589 -16z m1090 -256 l-3 -143 -501 -3 -501 -2 -7
135 c-4 74 -5 139 -1 145 4 7 175 10 511 10 l505 0 -3 -142z m-238 -333 l0
-55 -162 -2 c-90 -1 -230 -2 -313 -3 -82 -1 -183 0 -222 3 l-73 5 0 53 0 54
385 0 385 0 0 -55z m232 0 l-4 -55 -49 0 -49 0 0 55 0 55 53 0 52 0 -3 -55z"/>
<path d="M3836 2978 c-22 -31 -20 -51 7 -76 47 -44 105 -11 98 55 -4 43 -79
58 -105 21z"/>
<path d="M7226 2915 c-17 -17 -21 -61 -8 -82 12 -19 55 -31 79 -22 29 11 40
55 22 88 -18 32 -68 40 -93 16z"/>
<path d="M7563 2871 c-85 -39 -123 -128 -123 -286 l0 -85 -56 0 c-78 0 -131
-18 -175 -60 -67 -64 -77 -176 -23 -253 40 -56 90 -80 185 -85 l78 -4 -2 -207
c-2 -204 -2 -207 25 -263 43 -93 125 -131 241 -114 55 8 122 63 148 120 16 36
19 69 19 252 l0 211 85 5 c74 4 91 8 127 34 108 75 121 216 29 304 -45 43 -97
60 -180 60 l-62 0 2 108 c3 125 -14 176 -74 229 -62 55 -166 69 -244 34z m137
-126 c46 -24 60 -62 60 -160 l0 -85 -96 0 -96 0 4 99 c3 104 15 132 63 152 28
11 33 11 65 -6z m-254 -400 c1 -16 0 -49 -3 -73 l-5 -43 -66 3 c-62 3 -67 5
-84 34 -17 29 -17 31 1 65 19 35 55 48 125 45 25 -1 30 -5 32 -31z m314 -40
l0 -75 -95 0 -95 0 0 70 0 69 83 4 c45 1 88 4 95 5 9 1 12 -19 12 -73z m271
48 c31 -32 33 -67 6 -99 -23 -26 -31 -29 -89 -29 l-63 0 -3 72 c-3 71 -3 72
25 76 48 8 105 -1 124 -20z m-273 -454 l-3 -201 -33 -29 c-43 -39 -76 -37
-118 5 l-34 34 0 196 0 196 96 0 95 0 -3 -201z"/>
<path d="M8022 2798 c-24 -31 -23 -57 2 -83 31 -30 45 -31 80 -4 30 24 34 59
8 82 -22 20 -75 22 -90 5z"/>
<path d="M8893 2788 c-34 -44 -6 -108 47 -108 31 0 60 30 60 62 0 44 -82 78
-107 46z"/>
<path d="M1385 2759 l-27 -22 5 -670 c4 -636 5 -671 22 -684 25 -17 50 -17 69
3 14 14 16 90 16 689 l0 674 -22 15 c-29 20 -30 20 -63 -5z"/>
<path d="M2143 2768 c-13 -6 -23 -20 -24 -32 -1 -12 0 -318 1 -680 1 -604 3
-661 18 -673 24 -18 46 -16 67 6 16 19 17 63 17 688 l-1 668 -22 18 c-24 19
-26 20 -56 5z"/>
<path d="M3847 2762 c-23 -25 -22 -65 2 -86 26 -24 60 -17 84 17 l21 27 -21
28 c-25 33 -63 40 -86 14z"/>
<path d="M9260 2758 c-138 -70 -85 -278 70 -278 85 0 140 60 140 152 0 52 -27
101 -72 128 -43 26 -83 25 -138 -2z m95 -98 c38 -42 -18 -105 -61 -70 -19 16
-18 49 3 72 21 23 36 23 58 -2z"/>
<path d="M876 2734 c-24 -23 -21 -99 4 -124 45 -45 90 -14 90 60 0 54 -18 80
-55 80 -13 0 -31 -7 -39 -16z"/>
<path d="M2631 2731 c-26 -26 -27 -65 -1 -91 41 -41 100 -13 100 47 0 34 -13
48 -52 58 -19 5 -32 1 -47 -14z"/>
<path d="M3190 2699 c-208 -35 -400 -241 -417 -448 -4 -54 -10 -74 -22 -78
-66 -22 -129 -60 -177 -105 -95 -90 -134 -179 -135 -308 0 -119 42 -213 131
-293 88 -79 82 -78 648 -80 l497 -2 57 27 c66 31 137 92 164 144 12 24 35 44
67 60 108 55 177 154 198 283 29 177 -59 365 -215 456 -53 31 -163 65 -211 65
-25 0 -33 7 -50 42 -23 49 -111 138 -170 172 -97 57 -250 85 -365 65z m173
-143 c117 -13 231 -116 252 -229 4 -21 12 -40 19 -44 6 -4 54 -8 106 -9 81 -1
103 -5 145 -27 64 -33 128 -99 156 -162 44 -96 23 -242 -42 -301 -17 -16 -22
-16 -29 -4 -6 8 -10 24 -10 36 0 34 -49 121 -95 168 -54 57 -111 85 -192 98
-146 22 -266 -61 -190 -132 18 -18 29 -20 57 -14 142 31 245 -26 285 -158 26
-87 -20 -194 -102 -234 -35 -18 -70 -19 -491 -22 -301 -2 -465 1 -492 8 -91
24 -160 126 -160 235 0 80 32 147 97 206 55 49 105 69 172 69 76 0 115 72 76
140 -47 82 38 253 164 332 47 29 148 57 191 53 19 -2 56 -7 83 -9z"/>
<path d="M3155 2326 c-19 -29 -10 -54 23 -63 31 -7 56 7 60 36 8 50 -55 70
-83 27z"/>
<path d="M3150 2180 c-24 -45 22 -85 69 -60 23 12 28 49 9 68 -20 20 -66 15
-78 -8z"/>
<path d="M3154 2025 c-9 -35 1 -53 31 -61 27 -7 65 17 65 42 0 22 -30 44 -61
44 -22 0 -30 -6 -35 -25z"/>
<path d="M2821 1878 c-15 -40 5 -68 47 -68 30 0 49 39 33 69 -16 30 -69 29
-80 -1z"/>
<path d="M2984 1875 c-9 -35 1 -53 31 -61 41 -10 55 1 55 46 l0 40 -40 0 c-34
0 -41 -4 -46 -25z"/>
<path d="M3160 1881 c-15 -30 -12 -49 11 -61 47 -25 93 15 69 60 -14 27 -65
27 -80 1z"/>
<path d="M2820 1696 c-12 -33 -4 -53 25 -60 41 -10 56 2 53 43 -3 33 -6 36
-36 39 -27 3 -34 -1 -42 -22z"/>
<path d="M2992 1708 c-21 -21 -14 -58 14 -68 43 -17 61 -12 67 16 8 46 -2 64
-37 64 -18 0 -37 -5 -44 -12z"/>
<path d="M3156 1704 c-3 -8 -3 -26 0 -40 5 -20 12 -24 44 -24 42 0 48 8 42 52
-4 25 -8 28 -42 28 -25 0 -40 -5 -44 -16z"/>
<path d="M3332 1678 c3 -41 3 -41 43 -41 40 0 40 0 43 41 l3 42 -46 0 -46 0 3
-42z"/>
<path d="M3550 1666 c0 -8 -8 -17 -17 -20 -11 -3 -8 -4 7 -3 24 2 44 37 21 37
-6 0 -11 -6 -11 -14z"/>
<path d="M8520 2690 c-37 -37 -19 -87 37 -104 17 -5 29 -1 48 18 30 30 32 55
5 84 -26 27 -64 28 -90 2z"/>
<path d="M1879 2613 c-12 -13 -13 -119 -11 -617 3 -539 5 -602 20 -613 22 -17
47 -16 66 3 14 14 16 83 16 614 0 531 -2 600 -16 614 -20 21 -58 20 -75 -1z"/>
<path d="M1631 2527 c-7 -10 -11 -182 -13 -571 -2 -539 -2 -559 17 -572 25
-18 50 -18 69 2 14 14 16 79 16 565 0 360 -4 557 -10 570 -12 22 -62 26 -79 6z"/>
<path d="M4250 2495 c-7 -8 -12 -26 -12 -40 0 -36 20 -55 58 -55 35 0 54 20
54 58 0 43 -73 70 -100 37z"/>
<path d="M4466 2494 c-23 -22 -20 -71 3 -84 26 -14 64 -13 79 2 18 18 14 63
-6 81 -23 21 -56 22 -76 1z"/>
<path d="M8886 2464 c-22 -21 -20 -67 2 -87 40 -36 102 -9 102 45 0 49 -69 78
-104 42z"/>
<path d="M877 2452 c-15 -17 -17 -68 -17 -535 l0 -516 22 -15 c29 -21 51 -20
71 2 15 17 17 68 17 534 0 486 -1 516 -18 531 -24 22 -55 21 -75 -1z"/>
<path d="M2452 2410 c-26 -25 -28 -47 -6 -78 12 -18 24 -22 52 -20 29 2 38 9
48 35 12 28 11 34 -7 57 -25 31 -57 33 -87 6z"/>
<path d="M1127 2352 c-15 -17 -17 -65 -17 -485 l0 -466 22 -15 c29 -21 51 -20
71 2 15 17 17 65 17 480 0 449 -1 463 -20 482 -25 25 -52 26 -73 2z"/>
<path d="M8434 2216 c-73 -77 -125 -158 -153 -243 -27 -79 -26 -89 4 -109 45
-30 71 -13 115 77 45 91 63 119 131 197 53 60 62 97 31 125 -35 31 -63 21
-128 -47z"/>
<path d="M9286 2258 c-25 -35 -19 -53 30 -109 58 -66 105 -138 134 -209 37
-90 76 -111 119 -66 19 20 22 31 16 58 -18 84 -135 275 -201 327 -35 28 -79
27 -98 -1z"/>
<path d="M5122 2066 l3 -188 757 -2 758 -1 0 190 0 190 -760 0 -760 0 2 -189z"/>
<path d="M8780 2157 c-197 -72 -327 -286 -293 -481 16 -94 54 -168 123 -240
87 -91 194 -136 318 -136 204 1 389 159 430 365 43 217 -119 459 -338 504 -80
16 -177 12 -240 -12z m239 -131 c19 -7 37 -18 39 -24 2 -7 -43 -58 -100 -115
-58 -56 -144 -146 -193 -199 -48 -54 -92 -98 -96 -98 -17 0 -40 63 -46 124
-13 138 70 264 206 312 45 16 145 16 190 0z m183 -173 c31 -70 29 -166 -6
-236 -59 -121 -172 -186 -303 -174 -51 5 -111 25 -132 43 -5 5 402 414 412
414 4 0 18 -21 29 -47z"/>
<path d="M4337 2082 c-23 -25 -21 -48 5 -66 18 -13 52 -16 164 -16 124 0 143
2 157 18 21 23 22 46 1 66 -13 13 -42 16 -163 16 -131 0 -150 -2 -164 -18z"/>
<path d="M7176 1859 c-49 -39 -23 -109 41 -109 26 0 53 35 53 67 0 25 -32 63
-54 63 -7 0 -25 -9 -40 -21z"/>
<path d="M4442 1673 c-104 -51 -66 -213 50 -213 27 0 46 8 68 28 60 53 55 136
-9 179 -40 27 -64 28 -109 6z"/>
<path d="M8276 1635 c-76 -58 171 -469 255 -424 10 5 25 22 33 38 17 32 12 44
-54 117 -42 46 -102 149 -125 214 -23 67 -65 88 -109 55z"/>
<path d="M9496 1643 c-3 -4 -31 -57 -61 -117 -34 -72 -73 -133 -109 -174 -59
-67 -65 -84 -40 -120 47 -67 164 36 256 225 48 99 59 160 33 180 -20 14 -67
18 -79 6z"/>
<path d="M7206 1478 c-30 -42 -14 -88 35 -103 28 -9 69 30 69 65 0 55 -74 82
-104 38z"/>
<path d="M8006 1454 c-22 -21 -20 -67 2 -87 40 -37 102 -9 102 46 0 34 -24 57
-60 57 -16 0 -36 -7 -44 -16z"/>
<path d="M2152 1143 c-46 -4 -54 -8 -67 -34 -14 -26 -14 -32 -1 -58 9 -16 23
-31 31 -35 9 -3 1353 -6 2985 -6 l2969 0 21 22 c26 28 26 68 0 96 l-21 22
-2932 -2 c-1613 -1 -2956 -3 -2985 -5z"/>
<path d="M1867 1122 c-10 -10 -17 -28 -17 -40 0 -22 43 -62 66 -62 22 0 54 38
54 63 0 50 -70 76 -103 39z"/>
<path d="M8234 1132 c-6 -4 -16 -17 -23 -30 -25 -48 38 -98 84 -68 30 20 33
65 7 89 -19 18 -49 22 -68 9z"/>
<path d="M799 851 c-40 -40 -39 -81 2 -115 35 -30 58 -32 98 -11 77 39 39 155
-50 155 -11 0 -34 -13 -50 -29z"/>
<path d="M1434 870 c-55 -22 -70 -95 -29 -135 l24 -25 3711 0 3711 0 24 25
c35 34 33 78 -4 116 l-29 29 -3694 -1 c-2052 0 -3703 -4 -3714 -9z"/>
<path d="M9079 851 c-17 -18 -29 -40 -29 -56 0 -16 12 -38 29 -56 28 -27 34
-29 110 -29 44 0 91 4 106 10 35 13 56 64 43 102 -17 47 -43 58 -141 58 -85 0
-90 -1 -118 -29z"/>
<path d="M9506 849 c-33 -39 -34 -82 -1 -114 43 -44 116 -30 140 28 37 89 -77
160 -139 86z"/>
<path d="M1112 850 c-31 -29 -30 -83 3 -115 29 -30 54 -32 88 -5 33 26 41 63
23 99 -24 46 -77 56 -114 21z"/>
</g>
</svg>
