<?xml version="1.0" standalone="no"?>
<!DOCTYPE svg PUBLIC "-//W3C//DTD SVG 20010904//EN"
 "http://www.w3.org/TR/2001/REC-SVG-20010904/DTD/svg10.dtd">
<svg version="1.0" xmlns="http://www.w3.org/2000/svg"
 width="1024.000000pt" height="1024.000000pt" viewBox="0 0 1024.000000 1024.000000"
 preserveAspectRatio="xMidYMid meet">
<metadata>
Created by potrace 1.16, written by Peter Selinger 2001-2019
</metadata>
<g transform="translate(0.000000,1024.000000) scale(0.100000,-0.100000)"
fill="#000000" stroke="none">
<path d="M2528 8121 c-171 -55 -294 -197 -318 -367 -13 -99 -13 -5186 1 -5273
14 -92 52 -164 130 -246 74 -78 153 -124 247 -144 38 -8 738 -11 2550 -11
2182 0 2505 2 2555 15 164 43 290 155 350 313 l22 57 0 2655 0 2655 -37 78
c-51 107 -137 195 -237 245 l-75 37 -2565 2 c-2461 2 -2568 1 -2623 -16z
m5128 -317 c22 -14 51 -42 64 -61 23 -33 24 -46 32 -249 4 -118 7 -1277 6
-2577 l-3 -2363 -26 -49 c-18 -35 -39 -59 -74 -80 l-48 -30 -2472 0 -2472 0
-48 30 c-35 21 -56 45 -74 80 l-26 49 0 2576 0 2576 27 41 c15 23 44 49 70 62
l43 21 2480 0 2481 0 40 -26z"/>
<path d="M4533 7400 c-73 -33 -83 -60 -83 -237 l0 -153 -348 0 -347 0 -24 45
c-35 65 -129 149 -198 176 -80 31 -205 31 -283 1 -80 -31 -162 -108 -202 -190
-31 -62 -33 -74 -33 -167 0 -90 3 -106 29 -158 33 -69 115 -156 173 -186 65
-33 170 -44 252 -27 38 8 88 24 112 36 54 28 129 105 153 157 l18 40 349 1
349 2 0 -234 c0 -225 1 -234 23 -266 50 -74 53 -75 303 -78 l224 -3 0 -133 0
-133 -31 -7 c-17 -3 -247 -6 -510 -6 l-479 0 0 177 c0 175 0 176 -26 211 -47
61 -123 78 -201 43 -72 -33 -77 -50 -82 -253 l-3 -178 -280 0 c-305 1 -315 -1
-360 -60 -18 -25 -19 -53 -21 -545 -2 -286 1 -534 5 -552 5 -17 26 -47 48 -67
l40 -36 285 0 285 0 0 -260 0 -260 -277 0 c-309 0 -329 -4 -365 -66 -17 -29
-19 -69 -19 -558 0 -497 1 -529 18 -559 11 -18 34 -42 52 -54 l33 -22 2042 2
c2033 2 2041 2 2076 22 19 12 43 36 55 55 19 34 20 53 23 551 l3 515 -23 34
c-13 19 -39 45 -57 57 -33 23 -39 23 -318 23 l-284 0 2 260 1 260 274 0 c311
0 337 5 376 69 l23 36 3 525 c3 513 2 526 -18 558 -11 18 -34 41 -52 52 -31
19 -51 20 -320 20 l-288 0 0 163 c0 183 -8 214 -69 254 -41 27 -126 31 -171 8
-57 -29 -60 -42 -60 -242 l0 -183 -515 0 -515 0 0 139 0 140 228 3 c213 3 229
4 262 25 64 40 64 44 70 308 5 221 6 240 23 239 9 -1 163 -2 341 -3 l324 -1
25 -43 c55 -93 164 -169 268 -187 131 -23 262 22 354 122 76 82 98 145 93 268
-5 119 -27 170 -112 256 -92 92 -210 129 -332 104 -116 -24 -212 -92 -260
-184 l-29 -56 -347 0 -348 0 0 149 c0 137 -2 150 -22 181 -13 18 -36 43 -51
54 -28 21 -37 21 -620 23 -567 3 -594 2 -634 -17z m1039 -606 c2 -190 1 -348
-1 -350 -2 -2 -190 -4 -418 -4 l-413 0 0 350 0 350 415 0 414 0 3 -346z
m-2104 153 c14 -14 26 -41 29 -65 5 -36 2 -45 -25 -72 -25 -25 -38 -30 -77
-30 -110 0 -145 123 -52 181 40 25 91 19 125 -14z m3480 22 c40 -14 62 -49 62
-99 0 -58 -34 -90 -94 -90 -65 0 -106 36 -106 94 0 33 6 48 28 68 42 39 62 44
110 27z m-2693 -1348 c69 -19 70 -19 40 -31 -16 -6 -127 -51 -246 -101 -215
-89 -216 -89 -255 -75 -21 7 -127 49 -234 93 -107 44 -204 83 -215 88 -16 6
-8 11 40 25 53 16 104 18 430 19 331 0 377 -1 440 -18z m1334 1 l64 -18 -64
-28 c-35 -15 -147 -62 -248 -103 l-183 -74 -67 26 c-36 14 -148 60 -249 102
l-183 77 63 16 c53 15 122 17 433 19 329 1 377 -1 434 -17z m1337 2 l65 -17
-178 -72 c-98 -40 -213 -87 -256 -105 l-77 -32 -163 67 c-89 37 -199 81 -244
98 -46 18 -83 34 -83 37 0 3 26 13 58 22 87 24 784 25 878 2z m-3366 -369
c118 -53 227 -102 242 -108 28 -11 27 -12 415 163 62 27 115 50 118 50 3 0 5
-101 5 -225 l0 -225 -520 0 -520 0 0 230 0 230 23 -9 c12 -5 119 -53 237 -106z
m1145 85 c229 -106 423 -193 440 -196 11 -3 125 42 265 104 l245 109 3 -215
c1 -118 0 -217 -3 -220 -2 -3 -232 -7 -510 -10 l-505 -5 0 232 c0 128 3 230 8
228 4 -2 30 -14 57 -27z m2301 -197 l-1 -228 -522 -3 -523 -4 0 226 c0 124 4
226 8 226 8 0 194 -84 403 -181 l106 -49 204 91 c159 72 310 140 325 148 1 1
1 -101 0 -226z m-2364 -573 l-143 -59 -92 33 c-51 19 -117 46 -147 59 l-55 26
290 0 290 0 -143 -59z m1433 41 c-27 -11 -95 -37 -150 -59 l-99 -39 -81 27
c-81 28 -206 79 -214 86 -2 2 130 4 295 4 l299 -1 -50 -18z m-2059 -157 c22
-9 133 -59 249 -112 115 -52 214 -95 220 -95 5 0 119 49 253 108 134 59 246
104 249 101 3 -3 8 -102 11 -221 l5 -215 -517 0 -516 0 0 225 c0 124 2 225 4
225 2 0 21 -7 42 -16z m1549 -98 l256 -114 37 18 c57 27 459 200 466 200 3 0
6 -99 6 -220 l0 -220 -515 0 -515 0 0 133 c0 74 -3 175 -6 225 -5 65 -4 92 4
92 6 0 126 -51 267 -114z m-1895 -489 c0 -46 30 -97 71 -119 31 -18 48 -19
178 -13 102 5 141 4 137 -4 -4 -6 -12 -11 -17 -11 -6 0 -57 -20 -114 -45
l-105 -44 -52 19 c-29 10 -125 48 -213 85 -88 37 -171 71 -185 76 -22 9 -17
13 57 38 44 16 89 34 99 40 11 6 47 11 82 11 l62 0 0 -33z m3162 -1 c31 -14
72 -28 92 -32 l38 -7 -44 -20 c-24 -11 -77 -32 -118 -47 -41 -15 -124 -48
-185 -74 -60 -25 -115 -46 -121 -46 -17 0 -217 80 -229 91 -5 5 32 7 96 3 143
-9 190 -1 234 40 29 28 35 40 35 75 l0 41 74 0 c56 0 86 -6 128 -24z m-1448
-135 c-6 -7 -169 -73 -204 -84 -31 -9 -47 -5 -140 32 -58 23 -109 47 -115 52
-7 7 65 10 227 7 130 -2 234 -5 232 -7z m-1924 -206 c36 -15 130 -56 209 -92
170 -77 120 -83 421 52 113 51 215 96 228 99 l22 7 0 -225 0 -226 -520 0 -520
0 0 230 0 230 48 -24 c26 -13 76 -36 112 -51z m1520 -82 c80 -36 153 -67 162
-70 9 -3 81 24 160 60 79 35 188 84 243 107 55 23 103 44 108 47 4 2 7 -97 7
-221 l0 -226 -509 0 -509 0 -1 230 -2 230 98 -46 c54 -26 163 -75 243 -111z
m1282 23 c119 -53 220 -96 223 -96 4 0 104 43 223 96 120 53 236 105 258 114
l41 18 -2 -136 c-1 -76 -2 -179 -3 -229 l-2 -93 -520 0 -520 0 0 230 0 229 43
-18 c23 -10 140 -62 259 -115z"/>
</g>
</svg>
