<?xml version="1.0" standalone="no"?>
<!DOCTYPE svg PUBLIC "-//W3C//DTD SVG 20010904//EN"
 "http://www.w3.org/TR/2001/REC-SVG-20010904/DTD/svg10.dtd">
<svg version="1.0" xmlns="http://www.w3.org/2000/svg"
 width="1024.000000pt" height="1024.000000pt" viewBox="0 0 1024.000000 1024.000000"
 preserveAspectRatio="xMidYMid meet">
<metadata>
Created by potrace 1.16, written by Peter Selinger 2001-2019
</metadata>
<g transform="translate(0.000000,1024.000000) scale(0.100000,-0.100000)"
fill="#000000" stroke="none">
<path d="M4810 7985 c-302 -37 -584 -115 -890 -247 -127 -55 -320 -157 -320
-169 0 -4 35 -52 77 -106 103 -132 213 -279 247 -330 l28 -42 39 25 c65 40
236 113 390 165 264 88 587 137 819 123 202 -12 475 -69 667 -139 237 -87 541
-260 740 -422 189 -153 439 -434 567 -636 20 -32 68 -121 106 -197 253 -505
307 -1073 154 -1612 -49 -174 -106 -321 -185 -480 -38 -76 -69 -140 -69 -143
0 -3 5 -5 10 -5 6 0 23 -8 38 -19 15 -10 72 -45 127 -77 140 -81 256 -154 282
-177 13 -11 24 -19 26 -16 37 50 171 311 210 409 161 408 221 709 221 1125 1
403 -53 686 -201 1060 -158 400 -358 699 -684 1024 -401 399 -887 679 -1409
811 -143 36 -305 66 -432 80 -129 13 -427 11 -558 -5z"/>
<path d="M2359 7533 c-2 -634 -1 -733 9 -732 4 0 48 52 97 116 112 144 471
513 668 685 81 72 147 132 147 134 0 2 -207 4 -460 4 l-460 0 -1 -207z"/>
<path d="M3028 7140 c-76 -77 -138 -144 -138 -148 0 -5 64 -48 143 -97 78 -48
185 -118 238 -155 l96 -67 79 85 c43 47 78 88 76 91 -1 3 -53 67 -115 142 -62
74 -128 155 -147 179 -19 25 -48 59 -65 78 l-30 33 -137 -141z"/>
<path d="M4995 7146 c-219 -54 -353 -257 -324 -489 15 -121 87 -231 196 -301
l63 -40 1 -80 c0 -45 3 -124 5 -177 5 -117 19 -109 -187 -109 l-145 0 -24 56
c-67 163 -283 276 -466 244 -227 -39 -385 -262 -346 -488 29 -172 147 -305
307 -346 162 -43 306 2 436 135 42 43 83 78 90 79 8 2 86 2 174 1 l160 -1 4
-162 c2 -89 0 -208 -4 -265 l-7 -103 -544 0 c-447 0 -544 2 -544 13 0 29 -83
128 -138 165 -96 64 -150 82 -242 82 -121 0 -211 -40 -306 -134 -85 -85 -113
-148 -121 -272 -6 -85 10 -161 48 -235 30 -59 109 -133 180 -168 127 -62 249
-65 375 -7 66 30 163 120 195 181 l24 45 532 0 c293 0 536 -1 541 -2 4 -2 7
-114 8 -249 l1 -246 -96 -7 c-53 -3 -134 -6 -181 -6 l-85 1 -25 40 c-33 54
-117 131 -172 156 -218 102 -469 14 -569 -199 -33 -70 -34 -78 -34 -188 0
-104 3 -120 27 -173 39 -82 133 -178 211 -213 73 -33 197 -44 274 -25 119 31
241 128 291 234 l22 47 171 0 c152 0 170 -2 165 -16 -3 -9 -6 -76 -6 -150 0
-109 -3 -134 -14 -134 -25 0 -125 -83 -166 -139 -88 -118 -105 -295 -41 -426
45 -92 117 -166 191 -199 245 -110 514 2 601 249 31 90 23 218 -19 310 -37 77
-127 173 -191 201 l-41 18 0 143 0 143 170 0 170 0 17 -37 c67 -150 226 -253
386 -253 122 0 220 41 307 129 99 99 146 237 121 358 -45 226 -232 376 -450
360 -155 -11 -270 -81 -347 -213 -10 -17 -27 -19 -193 -22 l-181 -3 0 255 0
256 543 0 543 0 42 -65 c69 -104 166 -171 287 -195 74 -15 144 -7 236 27 180
66 303 276 270 457 -55 298 -363 453 -631 316 -57 -29 -140 -114 -164 -168
-15 -33 -25 -42 -45 -43 -14 0 -161 0 -326 0 -165 0 -402 1 -527 1 l-228 0 0
609 0 609 56 32 c134 75 224 227 224 378 0 53 -26 147 -57 210 -30 60 -110
140 -171 171 -91 46 -211 61 -307 37z"/>
<path d="M2533 6507 c-147 -223 -298 -619 -352 -918 -43 -242 -54 -352 -55
-559 -2 -472 95 -904 295 -1320 268 -556 713 -1012 1297 -1331 274 -149 614
-262 967 -321 124 -20 174 -23 425 -23 311 0 358 5 612 61 268 59 479 133 710
249 308 155 520 307 762 547 188 186 189 154 -9 288 -71 49 -166 115 -210 148
l-81 59 -89 -79 c-347 -308 -711 -508 -1104 -608 -343 -86 -602 -98 -966 -44
-213 31 -451 106 -675 211 -417 196 -806 556 -1044 966 -135 233 -237 528
-283 817 -25 165 -25 551 1 705 53 320 151 600 289 835 l44 74 -21 16 c-11 9
-70 47 -131 85 -60 37 -158 99 -217 137 -59 37 -111 68 -115 68 -5 0 -27 -28
-50 -63z"/>
<path d="M7831 3264 c-34 -57 -212 -282 -296 -374 -138 -150 -270 -282 -428
-425 l-154 -140 76 -5 c42 -3 247 -3 456 0 l380 5 2 482 c1 266 -2 485 -7 488
-4 3 -17 -11 -29 -31z"/>
</g>
</svg>
