<?xml version="1.0" standalone="no"?>
<!DOCTYPE svg PUBLIC "-//W3C//DTD SVG 20010904//EN"
 "http://www.w3.org/TR/2001/REC-SVG-20010904/DTD/svg10.dtd">
<svg version="1.0" xmlns="http://www.w3.org/2000/svg"
 width="1024.000000pt" height="1024.000000pt" viewBox="0 0 1024.000000 1024.000000"
 preserveAspectRatio="xMidYMid meet">
<metadata>
Created by potrace 1.16, written by Peter Selinger 2001-2019
</metadata>
<g transform="translate(0.000000,1024.000000) scale(0.100000,-0.100000)"
fill="#000000" stroke="none">
<path d="M3180 9271 c-357 -7 -378 -8 -440 -30 -185 -65 -345 -202 -427 -366
-66 -131 -66 -137 -72 -714 l-6 -524 -54 -14 c-29 -7 -74 -29 -100 -47 -25
-19 -174 -166 -331 -327 -157 -161 -331 -339 -387 -396 -88 -90 -103 -111
-113 -154 -14 -58 -2 -124 32 -172 21 -29 442 -314 597 -403 l85 -49 720 0
721 0 215 102 c467 221 656 314 686 337 101 80 76 268 -43 319 -57 24 -335
127 -628 232 -143 51 -273 98 -290 105 l-30 12 71 33 c40 19 80 34 90 35 11 1
990 2 2177 1 l2159 -1 29 -29 29 -29 0 -420 0 -419 -245 -228 c-134 -125 -254
-235 -267 -244 -21 -15 -249 -16 -2673 -21 -2602 -5 -2651 -5 -2690 -25 -41
-19 -672 -632 -708 -687 -11 -15 -19 -47 -19 -71 -2 -86 11 -104 220 -304 437
-420 487 -465 537 -489 l50 -24 573 0 c359 0 572 -4 570 -10 -3 -10 -243 -228
-294 -266 l-30 -23 -605 -3 c-582 -3 -605 -4 -641 -23 -54 -30 -356 -301 -375
-338 -21 -40 -22 -123 -1 -162 23 -43 619 -616 669 -643 l42 -22 981 0 c767 1
989 4 1016 14 29 10 348 224 520 349 66 47 90 89 90 154 0 78 -39 146 -103
179 -34 18 -176 67 -705 244 -228 76 -416 141 -419 144 -3 3 5 15 19 26 14 10
45 36 68 55 l43 36 1101 -3 1101 -3 135 -59 c145 -63 146 -64 139 -71 -3 -2
-97 -31 -210 -64 -112 -32 -220 -65 -239 -74 -119 -50 -135 -232 -29 -308 71
-50 129 -38 781 156 l152 46 536 -1 c492 0 538 1 567 17 18 10 99 79 179 153
80 74 150 137 155 138 5 2 9 -58 8 -135 l0 -138 -215 -200 c-118 -110 -238
-219 -265 -243 l-51 -42 -1109 0 c-1094 0 -1110 0 -1149 -20 -76 -39 -117
-142 -91 -223 15 -46 79 -103 130 -117 26 -7 185 -10 465 -8 234 2 426 0 426
-3 0 -6 -83 -67 -155 -114 -30 -20 -51 -20 -1950 -25 l-1920 -5 -45 -24 c-56
-29 -652 -619 -681 -673 -23 -45 -25 -127 -4 -167 8 -16 112 -123 232 -240
l218 -211 -165 -1 c-91 -1 -303 -3 -471 -4 -201 -2 -324 -7 -360 -15 -78 -18
-126 -51 -140 -99 -25 -82 21 -142 123 -160 80 -15 476 -28 1103 -37 270 -4
477 -11 460 -15 -16 -4 -104 -15 -195 -24 -196 -19 -261 -35 -289 -71 -25 -31
-26 -55 -6 -93 27 -54 52 -58 400 -70 1446 -50 4302 -53 5758 -5 387 12 477
18 504 31 102 48 78 159 -40 182 -60 12 -263 27 -597 45 l-235 13 190 2 c642
5 1579 23 1685 32 144 12 200 31 224 78 40 77 -1 157 -97 187 -42 13 -96 16
-282 14 -358 -2 -1065 12 -1065 21 0 5 46 9 103 9 56 0 131 5 167 10 193 30
394 216 467 434 l28 81 3 2983 c2 3316 8 3051 -67 3206 -45 94 -135 197 -220
255 -50 34 -623 349 -1156 636 -104 56 -286 155 -404 220 l-213 117 -1682 3
c-924 1 -1850 -1 -2056 -4z m3452 -703 l3 -323 27 -58 c35 -74 117 -160 183
-193 112 -54 102 -54 885 -54 833 0 772 7 824 -93 l28 -55 -1 -2934 c-1 -2108
-5 -2943 -12 -2968 -12 -38 -51 -94 -84 -122 -38 -33 -98 -49 -166 -46 l-66 3
-6 2755 c-7 3000 -3 2794 -59 2905 -52 101 -191 207 -308 234 -30 7 -886 11
-2642 11 l-2598 0 0 498 c0 548 1 559 61 640 35 48 101 90 168 108 36 10 465
13 1903 13 l1857 1 3 -322z m643 68 c393 -211 553 -300 548 -308 -2 -5 -178
-8 -390 -8 -346 0 -388 2 -405 17 -16 15 -18 35 -18 225 0 114 3 208 8 208 4
0 120 -61 257 -134z m-4435 -1387 c0 -4 -7 -12 -16 -20 -64 -53 -57 -197 12
-246 36 -25 332 -135 794 -295 63 -22 119 -44 124 -48 6 -6 -16 -21 -55 -39
-35 -16 -124 -56 -197 -90 l-133 -61 -660 0 -660 0 -112 71 c-62 39 -140 90
-174 112 l-63 42 168 170 c92 94 217 221 277 284 61 62 119 117 130 121 23 10
565 8 565 -1z m5030 -1731 l-1 -343 -73 -65 c-39 -36 -163 -150 -275 -255
-112 -104 -215 -198 -230 -207 -25 -17 -168 -18 -2578 -18 l-2553 0 -187 181
c-104 100 -205 198 -226 218 l-38 37 201 199 c110 110 211 205 223 212 17 9
609 12 2651 13 2547 0 2630 1 2671 19 41 18 78 49 305 255 58 53 106 96 108
96 1 0 2 -154 2 -342z m0 -980 l0 -133 -211 -200 c-115 -110 -224 -210 -242
-223 l-31 -23 -395 3 -396 3 -120 53 c-66 30 -207 92 -313 139 -106 47 -195
90 -198 94 -3 5 305 9 704 9 l709 0 59 39 c32 22 140 114 239 205 99 91 183
166 187 166 5 0 8 -60 8 -132z m-4380 -1107 c591 -195 554 -181 538 -197 -7
-7 -47 -31 -88 -53 l-75 -41 -887 0 -887 0 -195 187 c-108 102 -196 192 -196
199 0 7 14 24 31 38 l31 27 632 -3 631 -3 465 -154z m4380 -408 l-1 -108 -142
-127 c-78 -70 -151 -134 -162 -141 -16 -11 -132 -15 -584 -20 -310 -4 -562 -5
-560 -3 2 1 47 34 99 72 l95 69 420 5 c365 4 424 7 450 21 17 10 109 89 205
178 96 89 176 161 177 161 2 0 3 -48 3 -107z m0 -918 l0 -325 -67 -63 c-162
-151 -295 -268 -323 -282 -26 -13 -286 -15 -2328 -13 l-2299 3 214 144 c231
155 253 178 253 257 0 50 -33 117 -73 147 -18 13 -88 58 -157 99 -132 79 -270
165 -275 170 -2 2 1075 2 2393 0 2142 -2 2401 -1 2437 13 22 8 78 51 125 95
47 43 88 79 93 80 4 0 7 -146 7 -325z m-5574 34 c375 -232 484 -302 491 -312
4 -6 -1 -16 -11 -21 -45 -27 -391 -249 -481 -308 -112 -73 -138 -88 -156 -88
-16 0 -460 441 -454 451 16 25 406 389 417 389 8 0 95 -50 194 -111z"/>
<path d="M2323 5169 c-102 -30 -143 -182 -73 -271 48 -61 -31 -58 1322 -58
1181 0 1235 1 1274 19 58 26 87 72 91 140 5 70 -24 125 -82 158 l-40 23 -1230
-1 c-718 0 -1243 -5 -1262 -10z"/>
<path d="M5640 5158 c-119 -60 -117 -244 4 -302 32 -15 106 -16 820 -14 778 3
785 3 813 24 15 11 38 36 51 54 45 66 20 181 -50 232 l-33 23 -780 3 -780 2
-45 -22z"/>
<path d="M3935 1995 c-135 -48 -152 -243 -27 -313 39 -22 44 -22 491 -22 495
0 494 0 544 59 40 48 53 101 37 154 -18 60 -47 96 -94 118 -38 17 -73 19 -476
18 -349 0 -443 -3 -475 -14z"/>
<path d="M5665 1995 c-137 -49 -152 -256 -22 -315 40 -19 76 -20 945 -20 879
0 904 1 941 20 109 55 114 227 9 302 l-33 23 -900 2 c-757 2 -906 0 -940 -12z"/>
<path d="M5636 6957 c-56 -31 -81 -78 -81 -152 0 -70 20 -109 73 -145 l36 -25
786 0 786 0 43 28 c53 35 86 101 78 159 -7 54 -38 109 -77 136 l-33 22 -786 0
-786 0 -39 -23z"/>
<path d="M5148 6420 c-87 -4 -112 -9 -134 -26 -52 -39 -68 -70 -72 -142 -3
-57 0 -72 20 -101 12 -19 36 -44 51 -55 28 -21 31 -21 1110 -24 595 -1 1097 0
1115 3 45 8 97 57 117 110 15 38 16 51 5 95 -7 28 -24 65 -37 81 -53 63 11 59
-1075 62 -546 2 -1041 1 -1100 -3z"/>
</g>
</svg>
