<?xml version="1.0" standalone="no"?>
<!DOCTYPE svg PUBLIC "-//W3C//DTD SVG 20010904//EN"
 "http://www.w3.org/TR/2001/REC-SVG-20010904/DTD/svg10.dtd">
<svg version="1.0" xmlns="http://www.w3.org/2000/svg"
 width="1024.000000pt" height="1024.000000pt" viewBox="0 0 1024.000000 1024.000000"
 preserveAspectRatio="xMidYMid meet">
<metadata>
Created by potrace 1.16, written by Peter Selinger 2001-2019
</metadata>
<g transform="translate(0.000000,1024.000000) scale(0.100000,-0.100000)"
fill="#000000" stroke="none">
<path d="M5068 8290 c-51 -15 -94 -49 -118 -92 l-25 -43 0 -410 0 -410 -980
-5 -980 -5 -69 -23 c-176 -60 -286 -132 -402 -264 -96 -109 -165 -253 -194
-408 -8 -37 -11 -672 -10 -1987 1 -1878 1 -1934 20 -2008 43 -167 148 -336
282 -453 90 -78 238 -153 360 -182 85 -20 102 -20 2190 -18 l2103 3 89 28
c159 50 264 116 377 233 117 123 172 223 214 389 l25 99 -2 1950 -3 1951 -21
65 c-58 176 -112 268 -225 380 -101 99 -209 168 -336 213 l-88 32 -977 3 -978
2 0 401 c0 432 0 432 -56 498 -49 58 -126 82 -196 61z m1584 -1331 c76 -16
204 -80 268 -135 98 -84 173 -196 216 -324 18 -52 19 -125 22 -1580 3 -1695 6
-1605 -64 -1749 -47 -96 -162 -215 -249 -257 l-60 -29 -1661 0 -1660 0 -76 37
c-134 67 -237 201 -278 364 -19 75 -20 116 -20 1598 0 1692 -4 1594 69 1741
83 167 231 286 411 330 72 18 2997 22 3082 4z m-3728 -71 c-57 -77 -113 -195
-145 -308 l-24 -85 0 -1635 0 -1635 29 -75 c67 -176 132 -275 257 -395 109
-104 227 -167 389 -207 33 -8 502 -11 1690 -9 1796 3 1692 -1 1847 61 243 98
418 298 505 581 l23 74 3 1570 c2 1104 0 1593 -8 1647 -20 142 -81 288 -170
408 -27 36 -47 66 -45 68 2 2 25 -9 52 -24 71 -41 156 -131 192 -202 67 -133
62 12 68 -2022 3 -1325 2 -1868 -6 -1925 -30 -214 -199 -398 -400 -435 -35 -6
-771 -10 -2072 -10 l-2018 0 -78 25 c-174 55 -317 208 -353 378 -7 37 -10 606
-8 1937 3 1806 4 1887 22 1940 46 138 118 236 220 302 32 21 63 38 68 38 4 0
-13 -28 -38 -62z"/>
<path d="M4039 6557 c-18 -12 -44 -38 -56 -56 l-23 -34 0 -621 0 -621 23 -40
c64 -113 216 -113 283 1 l24 41 0 613 0 613 -25 43 c-33 57 -79 84 -142 84
-35 0 -60 -7 -84 -23z"/>
<path d="M3336 5607 c-22 -12 -49 -38 -60 -57 -21 -34 -21 -47 -20 -565 1
-594 0 -582 73 -631 52 -34 93 -40 144 -20 62 23 98 65 108 123 4 26 8 271 8
543 1 495 1 496 -21 540 -43 84 -149 115 -232 67z"/>
<path d="M6760 5619 c-14 -5 -36 -20 -48 -32 -53 -49 -52 -37 -52 -608 l0
-532 25 -43 c61 -103 196 -107 272 -7 l28 36 3 534 c2 516 2 534 -18 572 -28
55 -72 84 -134 88 -28 1 -62 -2 -76 -8z"/>
<path d="M3551 3877 c-19 -7 -48 -29 -65 -50 -26 -33 -31 -47 -31 -95 0 -69
26 -112 85 -142 37 -19 60 -20 377 -20 331 0 340 0 383 23 48 24 90 88 90 137
0 37 -40 110 -73 134 -27 20 -43 21 -380 23 -255 2 -361 -1 -386 -10z"/>
<path d="M5965 3883 c-62 -16 -107 -79 -108 -153 -1 -60 27 -108 79 -137 38
-22 46 -23 382 -23 374 0 382 1 436 58 64 69 38 200 -48 241 -40 20 -58 21
-382 20 -186 -1 -348 -4 -359 -6z"/>
<path d="M3695 3281 c-159 -7 -182 -15 -217 -84 -38 -76 -14 -163 62 -214 l33
-23 1544 0 c1706 0 1585 -5 1639 66 51 67 33 174 -38 227 -19 14 -52 22 -115
28 -98 9 -2687 9 -2908 0z"/>
</g>
</svg>
