<?xml version="1.0" standalone="no"?>
<!DOCTYPE svg PUBLIC "-//W3C//DTD SVG 20010904//EN"
 "http://www.w3.org/TR/2001/REC-SVG-20010904/DTD/svg10.dtd">
<svg version="1.0" xmlns="http://www.w3.org/2000/svg"
 width="1024.000000pt" height="1024.000000pt" viewBox="0 0 1024.000000 1024.000000"
 preserveAspectRatio="xMidYMid meet">
<metadata>
Created by potrace 1.16, written by Peter Selinger 2001-2019
</metadata>
<g transform="translate(0.000000,1024.000000) scale(0.100000,-0.100000)"
fill="#000000" stroke="none">
<path d="M4194 8993 c-77 -5 -100 -25 -96 -86 1 -23 -1 -84 -4 -134 l-6 -93
-30 0 c-19 0 -40 -10 -59 -30 l-30 -29 3 -418 c3 -406 4 -419 25 -458 21 -40
100 -121 137 -142 18 -10 18 -11 -3 -32 -44 -44 -17 -121 42 -121 l27 0 0
-441 0 -440 -273 3 -274 3 -37 28 c-64 49 -70 66 -76 210 l-5 129 -35 29 c-38
32 -76 37 -119 14 -46 -23 -56 -64 -56 -216 1 -133 2 -138 33 -202 44 -89 109
-152 200 -194 l72 -34 -2 -332 -3 -332 -327 -3 -328 -2 0 25 c0 20 10 29 57
52 109 51 184 150 203 269 6 33 10 200 10 372 0 270 -2 319 -16 348 -18 38
-66 68 -95 61 -18 -5 -19 3 -19 143 0 134 -2 150 -21 174 l-20 26 -228 0
c-215 0 -229 -1 -246 -20 -15 -17 -18 -41 -20 -167 -1 -82 -3 -150 -4 -153 0
-4 -17 -6 -37 -6 -29 0 -43 -7 -66 -33 l-29 -32 3 -377 c3 -361 4 -379 24
-423 42 -90 141 -178 228 -201 38 -10 46 -16 46 -35 0 -20 -4 -23 -27 -17 -51
12 -163 63 -211 95 -122 84 -225 222 -279 375 l-28 79 3 904 c2 739 5 917 17
973 43 206 240 418 455 490 62 21 86 22 588 27 l524 6 24 28 c72 84 26 188
-89 202 -29 4 -257 5 -507 2 -363 -3 -468 -7 -520 -20 -356 -84 -625 -349
-717 -707 -24 -95 -24 -97 -28 -700 -3 -333 -1 -744 4 -915 l8 -310 37 -109
c47 -139 90 -222 171 -323 75 -95 171 -178 270 -234 73 -41 237 -99 280 -99
l25 0 0 -205 0 -205 -587 0 c-646 -1 -692 -4 -799 -58 -79 -40 -165 -132 -195
-209 -17 -45 -23 -79 -23 -148 0 -78 3 -97 27 -147 53 -109 170 -198 259 -198
l37 0 3 -1167 c3 -1082 5 -1172 21 -1228 54 -183 162 -329 309 -418 69 -42
130 -62 228 -77 43 -7 1101 -9 3065 -8 2793 3 3004 4 3055 20 186 58 316 167
404 338 88 171 80 47 86 1365 l5 1170 75 5 c156 12 264 107 306 270 14 54 14
75 5 134 -21 127 -108 249 -216 301 -110 54 -130 55 -955 53 l-760 -3 0 201 0
201 113 8 c326 20 568 152 761 415 62 84 108 176 154 308 l37 107 3 834 c3
919 3 918 -59 1064 -65 153 -202 326 -339 427 -125 92 -148 92 -65 -1 114
-128 211 -311 263 -497 l27 -97 -2 -765 c-1 -507 -5 -794 -12 -850 -43 -321
-245 -572 -543 -676 l-83 -29 -637 -3 -638 -3 0 336 0 335 653 0 c703 0 701 0
811 54 108 53 226 192 276 323 46 121 49 172 50 784 0 646 -3 681 -67 840 -47
120 -97 192 -192 281 -149 140 -315 210 -544 228 -86 7 -487 10 -1149 8 -1016
-3 -1017 -3 -1045 -24 -34 -26 -58 -83 -49 -120 4 -15 22 -42 41 -61 l33 -33
1084 0 c673 0 1109 -4 1153 -10 125 -18 287 -113 367 -213 23 -29 56 -84 75
-122 61 -129 63 -150 63 -771 0 -324 -4 -583 -10 -613 -22 -117 -103 -232
-202 -286 -53 -30 -54 -30 -218 -30 l-165 0 -3 60 c-2 33 -1 97 3 141 l7 82
37 6 c21 3 74 24 118 46 103 51 180 130 231 237 l37 78 7 300 c4 165 5 363 2
440 -7 135 -8 140 -35 167 -26 27 -32 28 -118 28 l-91 0 0 131 0 131 -29 29
c-36 35 -86 39 -124 8 -26 -20 -26 -23 -29 -157 l-3 -137 -115 0 -115 0 -5
138 c-5 133 -6 139 -30 157 -36 28 -95 26 -125 -5 -24 -23 -25 -30 -25 -144 0
-151 0 -151 -116 -151 -159 0 -154 17 -154 -483 0 -321 3 -404 15 -452 43
-166 193 -311 373 -361 l62 -17 0 -139 0 -138 -905 0 c-892 0 -905 0 -925 20
-23 23 -24 33 -10 60 22 41 46 45 315 50 245 6 263 7 319 30 82 33 167 114
208 198 l33 67 0 458 0 459 -33 29 c-37 34 -102 40 -140 13 -51 -36 -52 -42
-52 -491 0 -414 -1 -418 -23 -457 -42 -74 -66 -80 -357 -86 -250 -5 -256 -6
-311 -31 -73 -35 -134 -91 -165 -151 -30 -59 -41 -156 -25 -215 14 -51 65
-121 109 -148 l31 -20 1 -662 0 -663 -225 0 -225 0 0 1210 0 1210 29 0 c20 0
36 9 50 26 27 35 26 56 -3 91 l-24 28 56 45 c39 31 66 64 87 104 l30 60 3 408
3 409 -30 29 c-22 23 -39 30 -67 30 l-37 0 6 130 c5 124 5 132 -16 156 -22 25
-28 26 -142 28 -66 2 -148 1 -181 -1z m186 -238 l0 -75 -60 0 -60 0 0 69 0 70
33 4 c17 2 44 5 60 5 l27 2 0 -75z m58 -604 l-3 -299 -24 -26 c-39 -42 -91
-53 -146 -31 -80 30 -80 30 -82 354 -1 156 0 288 3 293 3 4 61 8 130 8 l125 0
-3 -299z m2822 -533 l-5 -323 -27 -51 c-32 -60 -94 -118 -157 -147 -37 -18
-65 -22 -146 -22 -122 0 -174 20 -253 98 -89 87 -92 104 -92 462 l0 305 343 0
342 0 -5 -322z m-4320 -743 l0 -85 -95 0 -95 0 0 85 0 85 95 0 95 0 0 -85z
m80 -559 c0 -156 -4 -266 -11 -283 -39 -105 -190 -140 -286 -67 -61 47 -63 56
-63 344 l0 260 180 0 180 0 0 -254z m1180 -631 l0 -654 -175 -3 -175 -3 0 658
0 657 175 0 175 0 0 -655z m1640 0 l0 -655 -370 0 -370 0 0 655 0 655 370 0
370 0 0 -655z m-2212 -454 l2 -201 -330 0 -330 0 0 200 0 200 298 2 c163 2
311 2 327 2 l30 -1 3 -202z m2885 195 c-2 -3 -3 -94 -3 -201 l0 -195 -220 0
-220 0 0 200 0 200 188 2 c218 3 258 3 255 -6z m351 -27 c8 -40 8 -332 0 -353
-5 -12 -21 -16 -65 -16 l-59 0 0 200 0 200 59 0 c58 0 59 -1 65 -31z m1765
-628 c24 -1 44 -11 72 -40 33 -32 39 -45 39 -80 0 -54 -22 -95 -57 -110 -21
-8 -926 -11 -3611 -9 l-3584 3 -29 33 c-24 26 -29 41 -29 81 0 42 5 54 31 80
17 17 43 34 57 37 15 3 30 6 35 7 9 2 7028 0 7076 -2z m-288 -983 c3 -1044 -3
-1783 -13 -1828 -33 -138 -137 -246 -279 -291 -64 -21 -73 -21 -3006 -21
-2713 0 -2947 2 -3000 17 -157 45 -267 171 -292 337 -8 53 -9 998 -2 2081 l1
187 3295 0 3295 0 1 -482z"/>
<path d="M2786 6339 c-24 -19 -26 -27 -26 -89 0 -62 2 -70 26 -89 63 -50 134
-2 134 89 0 91 -71 139 -134 89z"/>
<path d="M2493 4118 c-43 -55 -10 -87 122 -117 55 -13 150 -40 210 -60 l110
-36 780 -3 780 -3 0 -77 0 -77 -255 -5 -255 -5 -60 -30 c-124 -62 -194 -168
-203 -303 -2 -42 -11 -89 -18 -104 -29 -57 -42 -59 -413 -56 l-338 3 -36 28
c-25 19 -48 52 -70 101 -56 120 -133 177 -264 198 -35 5 -158 8 -272 6 -205
-3 -208 -3 -248 -30 -65 -43 -98 -138 -73 -214 7 -22 26 -58 42 -81 84 -123
258 -125 258 -3 0 41 -18 68 -66 97 -15 9 16 12 154 12 220 1 228 -2 277 -100
64 -127 153 -200 280 -234 74 -19 641 -22 727 -4 73 16 135 50 185 101 55 56
82 119 93 218 10 84 31 128 73 153 15 8 94 14 250 17 l227 5 0 -55 c0 -30 3
-92 7 -137 l6 -83 -106 0 c-58 0 -130 -5 -159 -11 -117 -25 -206 -97 -257
-209 -16 -36 -40 -75 -53 -87 -46 -42 -76 -44 -608 -41 l-505 4 -105 34 -105
34 -240 1 c-267 0 -273 -1 -333 -69 -83 -95 -58 -246 55 -332 79 -60 169 -51
199 22 20 48 8 81 -44 119 -22 17 -41 36 -41 44 -1 21 99 8 190 -25 157 -56
238 -115 316 -230 77 -112 165 -178 274 -203 28 -7 319 -11 775 -11 l731 0 7
-61 c3 -34 6 -104 6 -156 l0 -93 -774 2 c-895 3 -805 -9 -868 118 -50 100
-102 159 -174 195 l-59 30 -242 3 c-276 4 -305 -2 -359 -73 -24 -32 -29 -49
-32 -109 -3 -64 0 -76 27 -123 71 -121 220 -161 266 -72 28 54 13 95 -47 134
-16 9 -28 20 -28 24 0 3 82 5 183 3 131 -3 188 -8 203 -17 12 -8 39 -48 59
-90 68 -138 153 -209 288 -240 59 -13 342 -15 2499 -13 l2433 3 58 23 c70 29
163 112 199 179 58 107 59 225 3 341 -39 81 -98 142 -173 179 l-57 28 -267 3
-268 3 0 255 0 254 269 0 c299 0 279 4 327 -71 13 -21 32 -43 43 -49 65 -34
141 19 141 100 0 68 -67 163 -144 202 -82 42 -129 48 -388 48 l-248 0 0 134
c0 130 1 134 23 140 12 3 143 6 290 6 267 0 269 0 322 26 237 112 210 454 -44
556 l-56 23 -2701 3 c-2166 2 -2703 0 -2711 -10z m3597 -298 l0 -80 -510 0
-510 0 0 80 0 80 510 0 510 0 0 -80z m1831 51 c16 -16 29 -39 29 -51 0 -12
-13 -35 -29 -51 l-29 -29 -256 0 c-140 0 -256 3 -258 8 -2 4 -2 40 0 80 l4 72
255 0 255 0 29 -29z m-3086 -96 l25 -24 2 -738 c3 -964 3 -982 -20 -1013 -21
-28 -78 -38 -112 -20 -20 11 -20 15 -20 885 0 480 3 881 6 890 7 17 56 44 82
45 7 0 24 -11 37 -25z m1578 14 c14 -6 30 -22 36 -36 8 -17 11 -273 11 -877 0
-848 0 -853 -21 -880 -27 -34 -86 -37 -115 -5 -18 20 -19 51 -22 863 -1 462 0
856 3 874 4 23 16 39 38 52 37 23 39 23 70 9z m353 -7 c30 -20 34 -55 34 -296
l0 -246 -70 0 -70 0 0 255 c0 242 1 256 20 275 20 20 65 26 86 12z m381 -19
c17 -25 18 -81 18 -889 0 -834 -1 -863 -19 -883 -26 -29 -86 -29 -112 0 -18
20 -19 51 -22 848 -2 454 0 845 3 869 8 52 37 82 82 82 24 0 37 -7 50 -27z
m-1057 -383 l0 -140 -510 0 -510 0 0 134 c0 98 3 136 13 139 6 3 236 6 510 6
l497 1 0 -140z m0 -625 l0 -255 -510 0 -510 0 0 255 0 254 108 3 c59 2 288 2
510 0 l402 -2 0 -255z m-1596 10 c4 -135 4 -249 1 -255 -9 -14 -1417 -14
-1469 1 -55 15 -115 75 -123 122 l-6 37 511 0 c498 0 513 1 569 21 58 22 140
88 160 131 7 13 25 52 42 88 42 91 59 99 197 100 l111 0 7 -245z m2306 -253
c0 -434 -2 -500 -16 -520 -17 -24 -55 -29 -98 -12 l-26 10 0 510 0 510 70 0
70 0 0 -498z m-710 -387 l0 -155 -510 0 -510 0 0 155 0 155 510 0 510 0 0
-155z m1788 135 c91 -56 90 -212 -1 -269 -31 -19 -49 -20 -268 -21 l-234 -1
-3 155 -3 156 238 0 c221 0 240 -1 271 -20z"/>
<path d="M2012 3917 c-29 -31 -28 -72 3 -102 l24 -25 238 0 c364 0 428 -16
557 -140 114 -110 146 -124 278 -128 106 -4 108 -3 133 24 33 36 34 86 0 119
-20 21 -34 25 -80 25 -75 0 -114 18 -192 90 -80 73 -138 102 -267 135 -94 24
-112 25 -386 25 l-287 0 -21 -23z"/>
</g>
</svg>
