<?xml version="1.0" standalone="no"?>
<!DOCTYPE svg PUBLIC "-//W3C//DTD SVG 20010904//EN"
 "http://www.w3.org/TR/2001/REC-SVG-20010904/DTD/svg10.dtd">
<svg version="1.0" xmlns="http://www.w3.org/2000/svg"
 width="1024.000000pt" height="1024.000000pt" viewBox="0 0 1024.000000 1024.000000"
 preserveAspectRatio="xMidYMid meet">
<metadata>
Created by potrace 1.16, written by Peter Selinger 2001-2019
</metadata>
<g transform="translate(0.000000,1024.000000) scale(0.100000,-0.100000)"
fill="#000000" stroke="none">
<path d="M2645 8580 c-242 -13 -428 -85 -621 -241 -198 -161 -341 -409 -385
-666 -9 -50 -12 -796 -11 -2858 0 -3109 -6 -2851 68 -3034 140 -349 438 -593
801 -656 128 -22 5337 -23 5464 0 427 74 755 397 843 830 15 73 16 328 14
2900 l-3 2820 -27 100 c-48 174 -138 337 -259 469 -119 131 -340 260 -534 313
l-100 28 -2555 1 c-1405 0 -2618 -2 -2695 -6z m5309 -240 c254 -65 495 -277
588 -518 61 -157 58 13 58 -2654 0 -2672 4 -2506 -57 -2656 -119 -298 -371
-501 -690 -557 -128 -22 -5111 -23 -5248 0 -380 62 -663 324 -736 681 -19 91
-19 165 -17 2566 l3 2473 22 70 c79 247 287 476 513 565 131 52 -34 49 2821
49 2626 1 2667 1 2743 -19z"/>
<path d="M2277 7980 c-61 -19 -56 151 -57 -2267 0 -2210 0 -2223 20 -2243 19
-19 33 -20 464 -20 l445 0 20 26 c20 25 21 39 21 261 l0 234 214 -2 215 -1 3
-210 3 -210 28 -24 c39 -33 105 -33 143 0 34 29 42 81 43 294 l1 152 371 0
371 0 66 -62 c37 -35 151 -145 253 -245 103 -101 199 -187 214 -193 42 -16
379 -13 419 4 63 26 85 96 49 156 -26 44 -51 50 -225 50 l-161 0 -216 213
c-251 248 -256 253 -296 278 -28 18 -56 19 -437 19 l-408 0 0 450 0 450 123 1
c67 1 133 4 147 8 32 9 70 65 70 103 0 36 -24 84 -49 98 -11 5 -81 10 -155 10
l-136 0 0 464 0 463 447 -4 c246 -2 448 -5 448 -6 1 -1 16 -26 34 -55 186
-296 612 -271 768 45 37 76 38 79 38 193 0 109 -2 119 -32 183 -40 84 -126
172 -204 211 -248 120 -554 -20 -617 -285 l-17 -69 -432 0 -433 0 0 465 0 465
1058 0 1057 0 30 -52 c85 -147 235 -237 395 -238 173 -1 328 99 403 257 27 58
32 82 35 165 5 108 -15 188 -67 269 -149 233 -492 263 -690 60 -54 -55 -121
-177 -121 -220 0 -25 69 -23 -1247 -26 l-853 -2 0 101 c-1 125 -11 175 -45
204 -32 27 -100 30 -131 4 -38 -30 -44 -56 -44 -184 l0 -124 -169 -3 c-93 -1
-189 1 -215 4 l-46 7 0 167 c0 167 0 168 -26 192 l-26 24 -416 2 c-229 1 -430
-2 -445 -7z m695 -615 c0 -228 1 -421 2 -427 1 -10 -61 -14 -271 -16 l-273 -2
0 423 c0 233 3 427 7 430 3 4 125 7 270 7 l263 0 2 -415z m3503 377 c122 -60
168 -193 108 -313 -39 -76 -93 -112 -177 -117 -76 -5 -126 9 -172 51 -136 119
-82 347 93 392 53 14 103 10 148 -13z m-2855 -827 l0 -465 -215 0 -215 0 0
465 0 465 215 0 215 0 0 -465z m-650 -599 c0 -210 3 -411 6 -445 l7 -61 -277
0 -276 0 0 445 0 445 270 0 270 0 0 -384z m2265 295 c78 -35 135 -124 135
-210 0 -148 -145 -251 -295 -210 -80 22 -155 128 -155 219 0 160 168 268 315
201z m-1615 -836 l0 -465 -215 0 -215 0 0 459 0 460 43 4 c23 2 120 4 215 5
l172 2 0 -465z m-650 -609 c0 -233 3 -431 6 -440 6 -14 -22 -16 -270 -16
l-277 0 1 440 2 440 269 0 269 0 0 -424z m650 -526 l0 -450 -215 0 -215 0 0
450 0 450 215 0 215 0 0 -450z m-650 -555 c0 -223 0 -408 0 -412 0 -5 -121 -9
-270 -11 l-270 -2 0 409 c0 318 3 410 13 414 6 3 128 6 270 6 l257 1 0 -405z"/>
<path d="M2697 7659 c-40 -23 -47 -68 -47 -283 0 -113 4 -216 10 -230 23 -61
118 -70 172 -16 l28 28 0 222 c0 133 -4 229 -10 241 -23 41 -110 63 -153 38z"/>
<path d="M2697 6532 c-43 -26 -49 -66 -45 -295 l3 -209 28 -24 c43 -37 100
-33 143 10 l34 34 0 216 c0 239 -3 255 -62 275 -43 15 -68 13 -101 -7z"/>
<path d="M2730 5443 c-76 -21 -82 -46 -78 -306 l3 -209 28 -24 c31 -27 80 -31
122 -12 50 23 55 49 55 277 0 203 -1 211 -22 236 -23 26 -79 46 -108 38z"/>
<path d="M2698 4325 c-42 -24 -50 -71 -46 -292 l3 -195 28 -24 c43 -37 100
-33 143 10 l34 34 0 206 0 206 -27 30 c-34 38 -93 49 -135 25z"/>
<path d="M7765 7735 c-126 -24 -240 -49 -253 -54 -30 -14 -54 -71 -46 -111 4
-17 21 -45 37 -62 30 -29 33 -30 96 -25 37 3 77 9 91 13 14 4 23 4 20 1 -3 -3
-184 -186 -402 -405 l-398 -399 0 -46 c0 -80 67 -133 136 -107 16 6 203 185
420 401 215 214 393 389 396 389 3 0 3 -34 0 -74 -4 -73 -4 -76 25 -105 53
-53 112 -49 154 9 18 25 85 372 96 502 5 54 3 59 -25 88 -40 40 -59 39 -347
-15z"/>
<path d="M6363 6803 c-12 -2 -34 -18 -48 -34 l-25 -31 0 -244 c0 -134 -4 -244
-9 -244 -27 0 -196 -34 -251 -50 -85 -26 -240 -97 -311 -143 -221 -142 -383
-336 -479 -571 l-36 -91 -208 -5 -208 -5 -24 -28 c-36 -43 -34 -106 7 -146
l31 -31 173 0 174 0 -2 -130 -2 -130 -167 0 -167 0 -36 -31 c-30 -27 -35 -37
-35 -75 0 -34 6 -51 29 -76 l29 -33 192 -5 192 -5 32 -90 c158 -440 504 -741
941 -819 50 -9 100 -19 113 -21 22 -5 22 -6 22 -221 0 -241 5 -265 64 -289 40
-17 93 -6 122 26 17 19 19 43 24 252 l5 232 56 7 c93 12 255 56 347 96 310
134 555 409 667 750 l27 82 174 0 c193 0 221 7 249 60 30 59 13 115 -45 145
-22 11 -66 15 -184 15 l-155 0 -3 126 c-2 69 -1 128 1 130 2 2 78 4 169 4
l164 0 34 34 c24 24 34 43 34 65 0 39 -23 85 -47 97 -10 5 -107 11 -216 14
l-199 5 -27 71 c-151 387 -466 660 -871 753 -47 10 -106 22 -133 26 l-47 6 0
244 c1 249 -1 269 -39 292 -22 14 -70 22 -98 16z m243 -1101 c118 -37 203 -91
300 -187 74 -73 98 -106 132 -175 60 -122 76 -193 76 -330 0 -133 -18 -217
-71 -327 -70 -144 -215 -283 -356 -342 -82 -34 -219 -61 -306 -61 -71 0 -224
32 -284 58 -145 64 -288 204 -352 344 -94 206 -90 466 10 657 98 186 284 333
475 376 91 20 294 13 376 -13z"/>
<path d="M7587 6435 c-50 -17 -85 -50 -108 -100 -51 -111 21 -241 140 -253 75
-7 145 37 185 115 45 89 -18 214 -122 243 -46 12 -48 12 -95 -5z"/>
<path d="M8097 6436 c-21 -8 -48 -22 -59 -33 -52 -45 -74 -162 -44 -222 52
-100 181 -131 264 -64 55 45 74 88 70 159 -5 74 -38 126 -102 155 -48 22 -77
23 -129 5z"/>
<path d="M8097 4186 c-73 -27 -117 -92 -117 -171 0 -96 63 -165 157 -173 66
-6 103 9 147 59 119 131 -22 346 -187 285z"/>
<path d="M7614 4111 c-59 -26 -84 -121 -47 -178 50 -76 167 -54 202 39 13 35
-2 88 -33 117 -26 25 -89 36 -122 22z"/>
<path d="M8085 3656 c-65 -30 -105 -92 -105 -165 0 -75 33 -126 104 -163 105
-54 246 38 246 159 0 44 -28 110 -56 135 -50 44 -133 59 -189 34z"/>
<path d="M7142 3608 c-39 -19 -65 -73 -59 -121 15 -108 154 -132 211 -37 22
38 20 71 -7 111 -37 54 -92 72 -145 47z"/>
<path d="M7602 3600 c-51 -31 -68 -101 -38 -159 40 -76 162 -62 203 23 14 31
15 39 2 73 -17 43 -69 83 -108 83 -14 0 -41 -9 -59 -20z"/>
<path d="M2752 2907 c-12 -13 -22 -32 -22 -43 0 -11 38 -69 85 -129 72 -93 83
-111 71 -125 -145 -173 -163 -201 -153 -241 16 -63 81 -57 130 11 15 21 45 61
68 90 l40 51 63 -83 c35 -46 70 -89 79 -97 38 -31 107 -3 107 43 0 12 -31 62
-70 111 -103 133 -105 135 -94 150 5 7 44 54 87 104 82 98 92 126 57 161 -43
43 -84 17 -180 -112 -23 -32 -45 -58 -49 -58 -3 0 -21 23 -40 50 -57 84 -111
140 -135 140 -12 0 -32 -10 -44 -23z"/>
<path d="M4856 2909 c-26 -20 -26 -22 -26 -145 0 -68 -3 -124 -7 -123 -5 0
-29 26 -54 57 -188 230 -174 222 -368 222 -137 0 -141 -1 -156 -24 -14 -21
-16 -61 -13 -281 l3 -257 24 -19 c27 -22 57 -18 84 13 13 16 17 38 17 99 l0
79 39 0 c27 0 41 -5 45 -17 17 -43 112 -172 134 -183 21 -9 30 -8 51 8 41 30
38 56 -18 148 l-51 83 23 23 c13 13 29 33 35 43 12 19 13 18 42 -14 16 -19 62
-82 101 -140 92 -135 107 -151 139 -151 58 0 60 11 60 298 l0 261 -26 20 c-15
12 -32 21 -39 21 -7 0 -24 -9 -39 -21z m-354 -136 c22 -20 24 -76 2 -97 -11
-11 -34 -16 -77 -16 l-62 0 0 65 0 65 59 0 c41 0 65 -5 78 -17z"/>
<path d="M5563 2920 c-41 -17 -44 -38 -41 -306 3 -240 4 -257 22 -270 15 -11
56 -14 166 -14 140 0 147 1 168 23 27 28 28 68 4 90 -15 14 -40 17 -120 17
l-102 0 0 210 c0 211 0 211 -25 235 -26 27 -37 29 -72 15z"/>
<path d="M2314 2899 c-17 -19 -18 -38 -16 -277 3 -246 4 -258 24 -274 17 -15
42 -18 173 -18 134 0 154 2 168 18 21 23 22 61 1 90 -14 20 -23 22 -125 22
l-109 0 0 50 0 50 74 0 c69 0 76 2 95 26 28 36 26 58 -6 84 -24 19 -38 21 -95
18 l-68 -4 0 52 0 52 53 6 c28 4 76 6 106 5 46 -2 57 1 73 20 24 31 23 67 -4
85 -18 13 -53 16 -174 16 -140 0 -152 -2 -170 -21z"/>
<path d="M3267 2902 c-24 -27 -21 -65 8 -92 22 -20 31 -22 85 -17 l60 5 0
-213 c0 -190 2 -215 18 -235 22 -27 65 -29 92 -5 19 17 20 32 20 232 l0 213
64 0 c58 0 67 3 85 26 26 33 27 58 1 84 -19 19 -33 20 -218 20 -180 0 -200 -2
-215 -18z"/>
<path d="M3787 2902 c-15 -16 -17 -51 -17 -280 0 -258 0 -261 22 -276 18 -13
54 -16 179 -16 l158 0 20 26 c26 33 27 58 1 84 -18 18 -33 20 -135 20 l-115 0
0 50 0 50 79 0 c58 0 84 4 95 15 25 25 29 54 12 80 -15 23 -22 25 -101 25
l-85 0 0 54 0 53 68 6 c37 4 90 7 119 7 42 0 55 4 67 22 22 31 20 54 -6 78
-20 18 -35 20 -183 20 -144 0 -164 -2 -178 -18z"/>
<path d="M5171 2889 c-19 -30 -135 -353 -165 -460 -9 -31 -14 -63 -11 -71 9
-23 51 -39 78 -29 29 11 40 25 61 81 10 25 23 48 29 52 7 4 44 8 83 8 l70 0
25 -62 c33 -87 88 -110 125 -52 13 18 13 30 4 66 -21 75 -171 462 -188 481 -9
10 -30 17 -54 17 -32 0 -41 -5 -57 -31z m93 -266 c7 -21 4 -23 -28 -23 -41 0
-42 4 -19 62 l17 42 12 -29 c6 -17 15 -40 18 -52z"/>
<path d="M6596 2898 c-14 -19 -16 -62 -16 -273 0 -310 -6 -295 118 -295 195 0
315 73 353 214 37 138 -47 307 -177 356 -42 15 -79 20 -159 20 -96 0 -105 -2
-119 -22z m274 -154 c116 -105 45 -292 -107 -282 l-48 3 0 157 0 158 57 0 c52
0 62 -3 98 -36z"/>
<path d="M7261 2898 c-11 -12 -26 -37 -32 -57 -7 -20 -42 -121 -80 -224 -80
-219 -85 -251 -48 -279 20 -15 30 -17 52 -9 26 10 67 75 67 105 0 25 34 36
109 36 l71 0 32 -67 c30 -62 36 -68 66 -71 43 -4 62 12 62 53 0 44 -150 457
-185 511 -21 32 -85 34 -114 2z m78 -230 c7 -24 15 -49 17 -55 4 -9 -6 -13
-35 -13 -23 0 -41 3 -41 8 0 15 34 102 41 102 4 0 12 -19 18 -42z"/>
<path d="M7732 2894 c-59 -29 -106 -79 -136 -143 -30 -67 -30 -199 2 -258 55
-104 143 -163 243 -163 98 0 191 46 225 112 15 29 15 32 -4 57 -29 39 -62 38
-117 -3 -38 -29 -55 -36 -92 -36 -83 0 -139 55 -149 147 -10 89 64 183 143
183 38 0 64 -11 106 -46 35 -29 70 -31 97 -4 32 32 25 65 -22 113 -73 72 -198
90 -296 41z"/>
</g>
</svg>
