<?xml version="1.0" standalone="no"?>
<!DOCTYPE svg PUBLIC "-//W3C//DTD SVG 20010904//EN"
 "http://www.w3.org/TR/2001/REC-SVG-20010904/DTD/svg10.dtd">
<svg version="1.0" xmlns="http://www.w3.org/2000/svg"
 width="1024.000000pt" height="1024.000000pt" viewBox="0 0 1024.000000 1024.000000"
 preserveAspectRatio="xMidYMid meet">
<metadata>
Created by potrace 1.16, written by Peter Selinger 2001-2019
</metadata>
<g transform="translate(0.000000,1024.000000) scale(0.100000,-0.100000)"
fill="#000000" stroke="none">
<path d="M4260 8534 c-160 -43 -275 -177 -300 -349 -5 -38 -10 -107 -10 -152
l0 -83 -950 0 c-1045 0 -1011 2 -1187 -62 -46 -16 -116 -52 -156 -78 -76 -50
-197 -170 -260 -257 -51 -71 -114 -207 -137 -299 -20 -76 -20 -123 -20 -2396
0 -2110 1 -2326 16 -2391 39 -171 119 -318 244 -451 170 -179 365 -276 592
-293 57 -4 1435 -6 3063 -3 l2960 5 80 23 c332 94 584 350 677 692 l23 85 0
2330 0 2330 -23 85 c-46 175 -168 367 -304 478 -67 55 -176 117 -269 151 -134
51 -142 51 -1185 51 l-974 0 0 123 c0 138 -14 205 -60 277 -146 230 -449 265
-644 76 -93 -90 -126 -187 -126 -363 l0 -113 -260 0 -260 0 0 104 c0 123 -12
191 -44 262 -80 175 -293 270 -486 218z m179 -280 c15 -9 38 -32 51 -52 23
-32 25 -45 25 -141 l0 -106 -147 -3 -148 -3 0 103 c0 119 14 159 69 195 41 27
110 31 150 7z m1360 0 c52 -31 69 -70 72 -169 4 -152 22 -135 -147 -135 l-146
0 3 113 c4 96 7 116 26 143 42 59 134 82 192 48z m2389 -616 c200 -73 354
-241 409 -448 17 -61 18 -203 18 -2350 l0 -2285 -28 -80 c-44 -124 -92 -202
-177 -286 -85 -85 -170 -132 -295 -165 -67 -18 -181 -19 -3050 -19 -2896 0
-2982 1 -3050 19 -230 62 -400 231 -472 471 -17 57 -18 176 -20 2325 -3 1969
-1 2275 12 2345 35 189 161 353 337 439 51 26 118 50 148 55 31 5 1371 8 3075
7 l3020 -1 73 -27z"/>
<path d="M6801 7428 c-58 -31 -67 -61 -63 -221 2 -87 3 -90 36 -123 29 -29 41
-34 80 -34 98 0 126 44 126 200 l0 110 -33 36 c-26 29 -42 37 -77 40 -26 3
-55 -1 -69 -8z"/>
<path d="M7193 7425 c-57 -25 -65 -49 -61 -190 l3 -127 33 -29 c26 -23 42 -29
78 -29 40 0 51 5 85 39 l39 39 0 111 c0 126 -11 161 -60 186 -36 18 -75 19
-117 0z"/>
<path d="M7800 7427 c-54 -19 -80 -66 -80 -146 0 -48 5 -75 20 -98 73 -120
240 -53 240 95 0 74 -24 120 -74 143 -47 22 -59 22 -106 6z"/>
<path d="M8179 7425 c-50 -27 -59 -54 -59 -175 0 -125 11 -160 60 -185 56 -29
128 -8 165 49 26 39 26 231 1 269 -36 53 -111 72 -167 42z"/>
<path d="M4875 7404 c-373 -37 -846 -177 -925 -272 -34 -42 -39 -86 -15 -133
18 -34 69 -69 101 -69 12 0 90 25 174 56 165 60 364 114 518 141 149 26 518
24 672 -5 153 -28 337 -82 490 -143 146 -59 179 -59 235 -3 58 57 55 123 -7
181 -26 24 -262 117 -400 157 -203 59 -389 86 -618 90 -102 2 -203 2 -225 0z"/>
<path d="M1845 7296 c-53 -24 -64 -45 -71 -137 -5 -65 -3 -92 9 -121 16 -39
67 -78 101 -78 39 0 104 40 120 74 19 40 20 145 3 195 -22 63 -100 96 -162 67z"/>
<path d="M2410 7288 c-43 -29 -59 -71 -59 -158 -1 -80 21 -128 69 -154 50 -27
104 -15 147 31 33 34 33 36 33 129 0 93 -1 95 -33 130 -44 48 -105 57 -157 22z"/>
<path d="M2813 7295 c-53 -23 -67 -55 -68 -159 0 -105 13 -136 69 -163 47 -22
101 -10 143 32 33 33 33 34 33 125 0 105 -14 140 -66 165 -39 18 -69 19 -111
0z"/>
<path d="M5255 6950 c-172 -37 -256 -82 -370 -202 -260 -271 -355 -653 -249
-1000 14 -46 27 -92 30 -104 5 -16 -6 -27 -55 -58 -34 -21 -82 -54 -108 -73
l-47 -36 -51 55 c-64 69 -129 184 -168 296 -57 163 -47 384 23 540 41 89 109
181 181 244 33 29 67 65 75 80 29 56 9 144 -37 169 -85 45 -142 30 -229 -59
-152 -155 -242 -329 -286 -551 -23 -118 -15 -354 16 -461 44 -155 150 -341
263 -465 l55 -60 -22 -37 c-11 -21 -26 -38 -33 -38 -26 0 -165 104 -232 175
-118 125 -201 276 -243 441 -19 74 -22 115 -22 244 1 133 5 169 27 251 29 112
85 238 128 292 42 52 53 89 40 130 -24 71 -91 105 -164 83 -140 -42 -474 -312
-652 -526 -295 -356 -459 -804 -467 -1275 -2 -106 1 -136 15 -162 35 -66 2
-63 791 -63 l714 0 6 -27 c3 -16 8 -51 11 -79 l6 -51 -89 -61 c-171 -117 -317
-175 -489 -192 -213 -22 -467 32 -639 136 -131 79 -160 87 -214 59 -75 -39
-79 -103 -15 -277 218 -592 600 -1023 1140 -1288 192 -94 291 -130 495 -184
208 -54 364 -76 540 -76 l130 0 40 36 c22 20 40 40 40 45 0 5 39 46 86 91 108
104 167 181 216 286 110 232 125 514 42 756 -40 115 -41 107 23 146 32 19 77
52 100 73 23 21 47 36 53 32 35 -21 147 -171 180 -240 112 -230 98 -529 -35
-770 -40 -72 -57 -88 -110 -105 -60 -19 -91 -45 -109 -91 -16 -40 -15 -56 6
-111 14 -36 66 -68 112 -68 54 0 302 92 471 174 325 160 590 378 801 659 203
271 322 536 395 885 28 132 31 171 36 377 6 266 -5 374 -62 577 -122 438 -409
874 -740 1124 -131 98 -274 183 -337 198 -35 8 -85 -13 -118 -48 -25 -28 -32
-80 -17 -123 7 -18 5 -23 -9 -23 -34 0 -231 -72 -304 -111 -167 -90 -323 -237
-435 -408 -73 -110 -103 -172 -150 -305 -18 -50 -37 -92 -42 -93 -6 -2 -13 29
-16 69 -8 101 -7 793 1 847 6 40 10 45 47 58 22 8 79 22 127 32 48 10 99 26
113 35 80 53 77 169 -6 212 -37 18 -94 17 -204 -6z m1221 -586 c38 -31 94 -80
126 -109 l56 -52 -181 -6 c-189 -6 -281 -21 -417 -67 -155 -54 -341 -167 -475
-289 -116 -106 -113 -106 -67 -18 183 343 412 514 776 578 56 9 104 18 107 18
4 1 37 -24 75 -55z m-1556 -336 c0 -171 -3 -309 -6 -306 -3 3 -16 46 -30 95
-35 123 -42 266 -19 369 16 75 43 154 51 154 2 0 4 -140 4 -312z m-1421 181
c-19 -121 -6 -363 25 -484 32 -127 135 -334 212 -428 30 -38 54 -71 52 -73 -7
-6 -138 44 -213 81 -128 64 -222 154 -289 276 -28 51 -96 276 -96 317 0 18 27
63 83 137 78 104 224 261 233 252 3 -2 -1 -38 -7 -78z m3211 -283 c41 -8 100
-23 130 -34 54 -19 54 -19 113 -126 32 -59 57 -109 55 -111 -2 -2 -42 10 -88
26 -138 49 -212 62 -365 62 -154 1 -223 -10 -365 -55 -150 -48 -328 -145 -433
-238 l-33 -29 -54 50 -55 49 95 91 c250 238 513 346 820 334 58 -2 139 -11
180 -19z m-3627 -500 c87 -149 212 -269 360 -347 l72 -38 -299 -3 -299 -3 7
92 c12 172 77 439 98 403 5 -8 32 -55 61 -104z m3722 29 c86 -25 286 -117 304
-139 9 -11 37 -169 44 -238 l3 -38 -618 0 c-340 0 -621 0 -625 -1 -4 0 -17 30
-29 68 -12 37 -25 76 -28 85 -6 12 10 30 67 72 109 83 220 143 325 176 133 43
180 49 332 45 110 -2 152 -8 225 -30z m-1554 -48 c179 -57 327 -214 380 -402
18 -66 18 -264 0 -330 -37 -133 -159 -293 -274 -359 -175 -102 -394 -107 -586
-14 -98 48 -211 163 -257 263 -83 180 -83 372 0 540 81 163 208 267 389 316
98 26 241 21 348 -14z m1897 -632 c6 -5 -40 -238 -63 -320 -47 -164 -38 -160
-107 -53 -89 137 -198 240 -325 306 -56 29 -118 58 -139 65 -31 11 15 13 297
9 184 -2 335 -5 337 -7z m-977 -161 c220 -36 423 -145 544 -291 50 -61 151
-240 170 -302 16 -51 -220 -356 -390 -505 -111 -97 -377 -277 -391 -264 -2 2
5 27 15 54 56 146 68 362 31 545 -40 194 -114 335 -273 512 l-57 65 29 73 c16
41 33 86 36 101 4 15 14 29 23 31 27 7 170 -4 263 -19z m-1918 -312 c-140
-171 -304 -281 -495 -334 -111 -30 -327 -36 -458 -12 l-102 18 -52 86 c-67
109 -73 123 -45 115 158 -50 323 -71 487 -61 246 16 442 82 647 218 28 19 52
30 53 26 2 -5 -13 -30 -35 -56z m290 -174 c51 -40 206 -120 259 -133 l26 -7
-25 -56 c-55 -124 -181 -289 -281 -366 -66 -50 -216 -129 -280 -146 -101 -27
-215 -40 -342 -40 l-135 0 -89 67 c-49 36 -127 104 -175 149 l-86 83 95 1
c186 0 366 43 535 125 129 63 237 146 357 275 45 49 84 89 86 90 1 0 26 -19
55 -42z m685 -243 c77 -208 65 -450 -30 -611 l-23 -39 -3 340 c-3 335 1 416
18 399 5 -5 22 -45 38 -89z m-308 -573 c0 -164 -2 -301 -4 -303 -11 -11 -256
13 -368 35 -128 26 -353 94 -344 104 3 3 46 16 95 28 222 58 418 188 556 368
28 35 53 65 58 65 4 1 7 -133 7 -297z"/>
<path d="M4990 4963 c-126 -65 -93 -253 48 -269 74 -9 152 65 152 146 0 99
-113 168 -200 123z"/>
<path d="M7669 6936 c-196 -69 -322 -246 -323 -456 -1 -348 367 -578 680 -425
153 75 264 252 264 421 0 99 -47 243 -74 227 -7 -5 -57 -48 -110 -97 -89 -83
-96 -92 -90 -119 16 -75 -45 -171 -123 -195 -141 -42 -273 46 -273 183 0 141
135 247 260 204 30 -11 34 -10 63 22 16 19 59 64 95 101 l65 66 -44 28 c-107
67 -266 84 -390 40z"/>
<path d="M1871 6842 c-69 -12 -101 -65 -101 -167 0 -97 34 -150 102 -162 47
-7 102 20 128 62 25 41 28 151 4 200 -24 51 -76 78 -133 67z"/>
<path d="M2835 6843 c-69 -18 -100 -83 -90 -191 5 -56 12 -79 31 -102 46 -54
138 -49 189 11 22 27 25 39 25 112 0 113 -27 156 -105 170 -16 3 -39 3 -50 0z"/>
<path d="M2408 6822 c-40 -24 -58 -70 -58 -144 0 -78 22 -126 70 -152 49 -26
103 -15 147 29 32 32 33 36 33 114 0 94 -15 133 -60 156 -38 20 -98 19 -132
-3z"/>
<path d="M2101 6313 c-22 -11 -40 -31 -52 -57 -18 -39 -19 -97 -19 -1269 0
-1343 4 -1262 -58 -1305 -15 -11 -52 -27 -83 -36 -97 -28 -139 -99 -106 -179
34 -80 139 -100 263 -51 124 50 219 167 244 303 6 34 10 500 10 1280 0 1147
-1 1228 -18 1261 -31 63 -112 87 -181 53z"/>
<path d="M7900 5824 c-41 -15 -63 -31 -75 -55 -11 -21 -14 -153 -15 -695 -1
-368 -1 -679 -1 -691 1 -12 15 -38 32 -57 41 -48 89 -57 144 -27 79 42 75 -5
75 761 1 742 3 708 -54 745 -26 17 -83 27 -106 19z"/>
<path d="M8251 4199 c-14 -5 -178 -161 -365 -347 -188 -185 -467 -460 -621
-612 -547 -537 -562 -552 -568 -588 -9 -43 11 -90 52 -125 35 -29 79 -35 126
-17 39 15 1511 1456 1547 1515 62 102 -55 221 -171 174z"/>
<path d="M8265 3539 c-11 -6 -159 -149 -330 -318 -170 -169 -428 -422 -571
-562 -285 -278 -288 -283 -258 -358 28 -72 100 -105 166 -78 39 16 297 262
845 804 290 286 333 333 339 365 8 46 -9 98 -41 128 -29 27 -117 38 -150 19z"/>
<path d="M3009 3281 c-33 -32 -39 -45 -39 -80 0 -23 6 -54 14 -69 15 -28 219
-232 270 -270 57 -43 147 -20 184 47 25 45 28 81 8 119 -20 37 -244 256 -283
276 -18 9 -51 16 -74 16 -35 0 -48 -6 -80 -39z"/>
<path d="M1828 3144 c-57 -30 -75 -120 -38 -182 37 -61 48 -62 475 -62 417 0
431 2 473 54 46 59 33 143 -27 183 l-34 23 -411 0 c-344 -1 -415 -3 -438 -16z"/>
<path d="M3725 2841 c-72 -43 -89 -130 -39 -191 31 -36 254 -149 408 -205 428
-157 969 -205 1418 -124 308 55 488 110 727 225 156 75 198 104 217 151 20 46
4 103 -37 137 -53 45 -99 37 -264 -44 -310 -152 -647 -235 -1010 -247 -433
-14 -799 64 -1221 261 -66 31 -132 56 -145 56 -13 0 -38 -8 -54 -19z"/>
<path d="M8249 2842 c-52 -34 -458 -435 -469 -463 -18 -43 -4 -94 36 -134 30
-30 41 -35 83 -35 66 0 91 20 342 268 l209 207 0 46 c0 52 -23 90 -70 114 -39
20 -99 19 -131 -3z"/>
<path d="M1808 2700 c-39 -38 -40 -42 -36 -91 4 -40 12 -58 37 -82 29 -29 38
-32 119 -39 112 -8 549 -8 669 0 79 6 95 11 118 32 62 57 66 127 10 186 l-32
34 -423 0 -422 0 -40 -40z"/>
</g>
</svg>
