<?xml version="1.0" standalone="no"?>
<!DOCTYPE svg PUBLIC "-//W3C//DTD SVG 20010904//EN"
 "http://www.w3.org/TR/2001/REC-SVG-20010904/DTD/svg10.dtd">
<svg version="1.0" xmlns="http://www.w3.org/2000/svg"
 width="1024.000000pt" height="1024.000000pt" viewBox="0 0 1024.000000 1024.000000"
 preserveAspectRatio="xMidYMid meet">
<metadata>
Created by potrace 1.16, written by Peter Selinger 2001-2019
</metadata>
<g transform="translate(0.000000,1024.000000) scale(0.100000,-0.100000)"
fill="#000000" stroke="none">
<path d="M3924 9016 c-17 -8 -40 -26 -52 -41 -22 -27 -22 -33 -22 -421 l0
-394 -772 0 c-756 0 -774 -1 -806 -20 -39 -24 -55 -42 -199 -220 -59 -74 -143
-177 -185 -228 -43 -51 -85 -106 -93 -122 -13 -26 -15 -317 -15 -2551 l0
-2521 34 -34 34 -34 181 0 181 0 0 -220 c0 -318 2 -320 202 -320 l127 0 -2
-119 c-2 -134 7 -159 74 -194 31 -16 75 -17 589 -15 511 3 557 4 581 21 46 31
49 51 49 331 0 261 0 263 -23 284 l-23 22 -692 0 -692 0 0 105 0 105 2955 0
2955 0 0 -105 0 -105 -701 -2 -701 -3 -19 -24 c-18 -21 -19 -42 -19 -277 0
-290 5 -314 64 -339 52 -22 1119 -22 1171 -1 57 24 68 53 73 186 l4 118 30 6
c17 3 73 6 125 6 93 0 95 1 124 31 l29 31 2 222 c0 121 1 229 0 238 -1 15 17
17 188 20 l190 3 32 33 33 32 3 2511 c2 2305 1 2512 -14 2542 -28 54 -433 542
-483 582 -25 20 -42 20 -803 23 l-777 2 -3 389 c-3 376 -4 391 -24 418 -11 15
-36 36 -55 45 -32 17 -120 18 -1429 18 -1145 -1 -1401 -3 -1426 -14z m381
-616 l0 -235 -67 -3 -68 -3 0 260 0 260 63 3 c59 3 62 2 67 -22 3 -14 5 -131
5 -260z m1725 22 l0 -262 -697 2 -698 3 -3 257 -2 258 327 2 c181 2 496 3 700
3 l373 0 0 -263z m485 66 c4 -106 5 -222 3 -258 l-3 -65 -72 -3 -73 -3 0 261
0 260 69 0 69 0 7 -192z m1800 -748 c32 -36 76 -84 98 -108 21 -24 37 -45 35
-48 -3 -2 -1398 -3 -3100 -2 l-3096 3 98 110 97 110 2894 5 c1592 3 2899 3
2905 0 5 -3 37 -34 69 -70z m275 -2732 l0 -2238 -3235 0 -3235 0 0 2235 0
2235 428 2 c235 2 1690 3 3234 3 l2808 0 0 -2237z m-989 -3118 c6 0 21 -12 34
-26 34 -37 33 -78 -4 -115 l-29 -29 -177 0 -177 0 -29 29 c-38 38 -38 78 -1
114 27 26 30 27 187 29 88 2 166 2 173 1 8 -2 18 -3 23 -3z m-4612 -26 c26
-33 27 -84 3 -114 -16 -20 -30 -24 -98 -27 -88 -4 -119 6 -143 48 -12 22 -13
31 -1 58 23 56 33 61 130 61 84 0 90 -1 109 -26z"/>
<path d="M7466 6865 c-129 -36 -267 -137 -345 -255 -47 -71 -58 -96 -81 -194
-37 -150 -18 -307 52 -439 49 -92 165 -205 258 -251 189 -92 427 -82 610 26
150 88 258 262 278 446 35 311 -155 591 -453 667 -73 19 -251 18 -319 0z m271
-377 c24 -11 55 -34 69 -51 126 -149 66 -356 -117 -403 -174 -45 -334 116
-290 291 39 157 193 231 338 163z"/>
<path d="M5545 6786 c-69 -31 -71 -36 -255 -726 -45 -168 -93 -345 -107 -395
-22 -80 -51 -191 -128 -485 -12 -47 -34 -125 -49 -175 -27 -92 -86 -307 -151
-545 -21 -74 -48 -171 -61 -214 -13 -44 -24 -88 -24 -98 0 -62 63 -128 123
-128 47 0 19 -18 607 395 179 125 342 241 363 258 21 16 40 27 42 25 3 -2 -4
-29 -14 -59 -26 -72 -200 -613 -296 -919 -42 -135 -95 -301 -117 -369 -29 -92
-38 -133 -33 -158 8 -46 61 -102 105 -112 46 -10 119 11 148 42 13 13 43 80
67 148 24 68 91 257 149 419 340 959 338 954 491 1370 158 429 225 622 225
652 0 44 -29 97 -61 113 -15 8 -48 15 -73 15 -50 0 -50 0 -401 -245 -93 -65
-219 -152 -280 -194 -60 -41 -174 -119 -253 -174 -79 -54 -145 -97 -148 -94
-3 2 9 67 25 143 87 407 177 821 235 1082 37 162 66 306 66 320 0 87 -108 147
-195 108z"/>
<path d="M2555 6744 c-67 -35 -95 -82 -95 -159 0 -54 16 -88 60 -130 l31 -30
893 -3 893 -2 33 22 c50 34 72 71 78 127 6 69 -25 132 -82 166 l-43 25 -869 0
c-768 0 -872 -2 -899 -16z"/>
<path d="M6595 6458 c-134 -29 -171 -229 -56 -303 52 -34 93 -39 150 -20 55
18 83 44 106 97 21 51 19 74 -9 135 -37 78 -103 109 -191 91z"/>
<path d="M2555 6076 c-127 -55 -125 -269 1 -322 29 -12 174 -14 908 -12 l874
3 39 31 c49 39 73 87 73 144 0 52 -31 113 -73 144 -28 21 -33 21 -910 23 -718
2 -888 0 -912 -11z"/>
<path d="M2575 5423 c-31 -8 -84 -51 -100 -83 -19 -36 -19 -120 -1 -164 8 -18
31 -46 52 -62 l37 -29 861 -3 c474 -1 876 0 894 3 40 7 101 59 118 102 32 74
4 168 -63 213 l-37 25 -870 1 c-479 1 -880 0 -891 -3z"/>
<path d="M7555 5306 c-39 -17 -80 -65 -95 -112 -34 -103 49 -214 160 -214 111
0 196 98 176 203 -8 42 -61 106 -102 123 -42 17 -100 17 -139 0z"/>
<path d="M2570 4763 c-65 -25 -110 -95 -110 -171 0 -57 27 -104 79 -139 l34
-23 887 2 887 3 37 29 c44 33 66 79 66 137 0 58 -40 123 -90 149 -38 20 -58
20 -907 19 -477 0 -875 -3 -883 -6z"/>
<path d="M7524 4641 c-131 -21 -228 -72 -325 -171 -54 -54 -87 -98 -113 -151
-88 -179 -85 -399 6 -572 46 -87 166 -206 248 -245 144 -70 290 -87 437 -52
204 49 355 180 427 372 105 278 -10 607 -264 751 -103 58 -287 88 -416 68z
m190 -377 c134 -46 196 -207 131 -340 -58 -119 -203 -165 -326 -103 -80 40
-134 139 -126 229 15 167 165 267 321 214z"/>
<path d="M6549 4177 c-49 -32 -81 -100 -76 -160 7 -85 65 -139 154 -144 76 -5
129 23 161 87 29 58 28 85 -5 151 -33 65 -74 89 -149 89 -36 0 -61 -7 -85 -23z"/>
<path d="M2555 4096 c-126 -57 -128 -254 -2 -315 43 -21 51 -21 888 -21 550 0
857 4 881 10 44 13 93 52 113 91 35 67 7 175 -57 221 l-33 23 -880 2 c-718 2
-886 0 -910 -11z"/>
<path d="M2555 3426 c-81 -36 -118 -141 -81 -229 15 -37 76 -94 109 -102 12
-3 412 -4 888 -3 l866 3 36 28 c107 81 100 238 -13 295 l-44 22 -866 0 c-698
-1 -871 -3 -895 -14z"/>
<path d="M9390 3160 l0 -2081 -2175 3 -2175 3 78 -79 c42 -44 82 -85 87 -92 6
-6 212 -215 460 -463 l449 -451 2063 0 2063 0 0 2620 0 2620 -425 0 -425 0 0
-2080z"/>
</g>
</svg>
