<?xml version="1.0" standalone="no"?>
<!DOCTYPE svg PUBLIC "-//W3C//DTD SVG 20010904//EN"
 "http://www.w3.org/TR/2001/REC-SVG-20010904/DTD/svg10.dtd">
<svg version="1.0" xmlns="http://www.w3.org/2000/svg"
 width="1024.000000pt" height="1024.000000pt" viewBox="0 0 1024.000000 1024.000000"
 preserveAspectRatio="xMidYMid meet">
<metadata>
Created by potrace 1.16, written by Peter Selinger 2001-2019
</metadata>
<g transform="translate(0.000000,1024.000000) scale(0.100000,-0.100000)"
fill="#000000" stroke="none">
<path d="M4720 9241 c-99 -27 -118 -37 -375 -208 -132 -88 -292 -193 -355
-233 -63 -41 -134 -90 -158 -109 -42 -33 -92 -113 -92 -146 0 -8 -10 -19 -22
-24 -13 -5 -103 -60 -200 -123 -246 -157 -335 -214 -553 -353 -104 -67 -260
-166 -345 -222 -85 -55 -198 -127 -250 -161 -52 -34 -108 -71 -125 -82 -16
-12 -131 -86 -255 -165 -124 -79 -299 -191 -390 -250 -151 -98 -238 -153 -424
-274 -88 -56 -124 -93 -163 -166 -47 -90 -55 -168 -51 -485 3 -274 3 -275 30
-332 35 -76 107 -150 190 -199 37 -22 68 -41 68 -43 0 -2 -33 -23 -72 -47
-204 -121 -322 -230 -409 -377 -95 -160 -138 -359 -118 -539 26 -238 167 -472
363 -606 71 -48 235 -127 264 -127 21 0 21 -2 24 -438 3 -422 4 -439 25 -490
12 -29 33 -68 47 -87 26 -33 26 -37 26 -198 0 -175 8 -218 52 -278 32 -43 95
-78 169 -93 52 -10 78 -10 147 1 103 16 153 41 183 90 12 21 23 39 24 41 4 5
77 -40 117 -70 l36 -28 4 -158 c3 -153 4 -158 35 -218 17 -33 50 -77 74 -98
59 -54 264 -186 324 -209 98 -38 224 -21 287 40 l27 25 38 -23 c21 -13 79 -51
128 -84 50 -34 173 -117 275 -186 132 -88 208 -147 266 -205 76 -77 144 -124
179 -124 9 0 23 -16 31 -36 37 -89 153 -171 222 -158 21 4 44 -8 110 -55 150
-107 312 -178 487 -212 91 -18 289 -22 412 -9 217 23 392 89 577 219 56 39 87
54 107 53 54 -4 135 36 184 90 25 28 48 61 51 74 4 16 23 31 61 49 30 13 84
53 121 88 62 59 718 507 742 507 6 0 10 -4 10 -9 0 -5 25 -22 55 -36 40 -20
69 -27 112 -27 113 1 160 20 370 155 69 44 138 118 166 179 15 32 27 61 26 65
-1 4 -1 13 0 18 1 6 2 71 1 145 l-1 136 73 51 73 51 39 -46 c53 -60 109 -84
216 -90 149 -8 260 42 303 136 19 41 23 71 27 227 l6 180 36 58 c20 32 41 80
47 105 7 29 11 207 11 460 0 386 1 413 17 418 185 63 348 169 451 294 123 150
192 351 192 561 0 127 -20 216 -79 343 -88 190 -209 313 -448 454 -40 24 -73
44 -73 46 0 2 31 23 70 46 117 70 172 137 206 249 20 68 20 584 -1 664 -34
133 -89 196 -270 315 -198 131 -511 333 -695 450 -141 89 -356 228 -800 517
-52 34 -140 90 -195 125 -55 35 -154 98 -220 140 -66 42 -176 112 -245 155
-345 218 -321 199 -360 273 -42 80 -46 83 -435 336 -389 252 -424 273 -491
297 -83 29 -255 34 -344 10z m247 -124 c81 -23 156 -65 311 -172 48 -33 115
-78 150 -100 232 -147 399 -265 419 -294 12 -18 29 -56 37 -85 19 -64 46 -90
111 -105 28 -7 82 -32 120 -55 143 -88 465 -292 640 -406 99 -65 254 -163 345
-220 91 -56 208 -132 260 -169 52 -36 160 -107 240 -157 80 -49 282 -178 450
-285 168 -108 340 -217 382 -243 84 -51 116 -87 125 -140 13 -79 -34 -137
-183 -230 -83 -52 -390 -252 -486 -317 -31 -22 -59 -39 -63 -39 -4 0 -51 -31
-104 -68 -130 -92 -193 -134 -197 -130 -1 2 18 29 44 59 103 121 144 209 182
401 35 174 27 329 -29 600 -33 158 -54 195 -140 245 -123 70 -243 153 -304
210 -38 34 -91 78 -118 98 l-49 35 0 -50 c0 -44 3 -50 20 -50 22 0 110 -81
110 -101 0 -8 -4 -8 -12 -2 -7 6 -78 53 -158 105 -429 282 -545 357 -614 400
-42 26 -76 52 -76 57 0 16 88 -26 156 -75 l63 -44 -4 47 c-2 27 -4 51 -4 55
-1 7 -112 75 -249 152 -175 99 -359 154 -538 162 -116 4 -145 -1 -241 -46 -54
-25 -94 -25 -126 0 -21 17 -25 29 -29 90 -3 65 -6 72 -43 110 -23 24 -61 48
-94 61 -52 19 -72 20 -410 17 -387 -4 -389 -4 -460 -64 -44 -36 -61 -74 -61
-132 0 -94 -77 -132 -163 -82 -88 52 -227 61 -394 25 -148 -31 -336 -116 -540
-243 -43 -27 -86 -51 -95 -55 -14 -5 -18 -18 -18 -57 l0 -51 38 30 c35 28 201
121 215 121 4 0 7 -4 7 -10 0 -10 -246 -178 -432 -294 -35 -22 -151 -97 -257
-168 -107 -70 -196 -126 -198 -124 -9 8 77 90 159 150 62 46 95 76 96 90 0 11
6 22 12 24 5 2 15 13 21 24 11 21 -219 -131 -316 -209 -33 -27 -82 -61 -110
-77 -87 -51 -219 -139 -256 -173 -41 -38 -58 -76 -95 -223 -23 -90 -27 -133
-31 -300 -5 -172 -3 -208 16 -298 34 -167 72 -244 200 -401 20 -24 31 -42 26
-40 -6 2 -163 106 -351 230 -187 125 -397 262 -465 304 -160 100 -176 113
-201 153 -16 25 -19 45 -16 81 8 86 16 93 333 287 88 53 237 148 330 209 94
62 222 145 285 185 63 39 237 151 387 248 304 198 424 275 762 489 353 224
381 240 451 270 99 41 107 48 120 106 7 29 22 67 34 85 14 22 130 105 356 256
368 245 438 288 490 304 19 7 49 16 65 21 47 15 77 13 162 -12z m-58 -1429 l1
-513 -78 -2 c-42 -1 -77 -2 -77 -3 0 -1 -38 -4 -85 -6 -47 -3 -111 -11 -143
-18 l-58 -14 -18 37 c-64 125 -95 306 -96 556 -1 222 29 321 117 386 85 62
179 87 335 88 l101 1 1 -512z m114 290 c3 -123 2 -254 -3 -293 -5 -38 -10 -79
-11 -90 -1 -17 -2 -16 -9 5 -4 14 -8 154 -9 313 -1 234 1 287 12 287 11 0 15
-46 20 -222z m127 -63 c0 -177 -4 -275 -10 -275 -5 0 -11 -17 -11 -37 l-2 -38
-7 40 c-4 22 -7 163 -7 313 1 256 2 272 19 272 17 0 18 -16 18 -275z m114 219
c8 -22 7 -373 -1 -459 -12 -121 -21 -31 -22 233 -1 219 5 274 23 226z m124
-245 c2 -77 0 -147 -4 -157 -12 -26 -22 64 -23 203 -1 95 2 117 12 107 8 -9
13 -58 15 -153z m-1500 -21 c20 -20 14 -57 -19 -104 -45 -66 -116 -212 -149
-306 -53 -156 -65 -236 -63 -425 l2 -172 -37 -22 c-81 -49 -235 -162 -291
-215 l-60 -55 -50 101 c-62 124 -105 260 -126 400 -29 197 -22 408 16 461 67
95 376 262 589 319 115 31 170 36 188 18z m2235 -22 c114 -31 312 -132 422
-215 226 -172 387 -453 424 -740 21 -159 23 -243 10 -344 -13 -98 -14 -100
-20 -52 -33 274 -114 514 -173 515 -4 0 -6 -8 -3 -17 46 -152 69 -241 78 -303
10 -76 2 -278 -11 -263 -3 4 -12 44 -19 88 -18 108 -55 233 -91 304 -56 111
-94 121 -53 13 36 -96 52 -200 51 -332 0 -120 -14 -223 -17 -128 -2 98 -47
260 -103 371 -25 50 -51 78 -62 66 -2 -2 9 -44 25 -94 22 -71 28 -110 28 -184
1 -52 -2 -92 -5 -88 -3 3 -21 46 -39 96 -36 101 -92 201 -112 201 -16 0 -17
-24 -1 -53 28 -53 40 -161 13 -116 -4 5 -50 45 -103 87 -54 42 -100 81 -105
86 -4 6 -5 27 -1 46 11 61 3 340 -12 429 -19 110 -54 212 -113 336 -44 91 -76
139 -166 251 l-29 36 21 18 c24 19 48 17 166 -14z m-1998 -186 c11 -266 27
-366 76 -489 16 -40 28 -76 25 -78 -2 -3 -55 -19 -118 -37 -62 -18 -138 -43
-168 -55 -98 -40 -103 -42 -108 -36 -3 3 0 65 6 138 18 200 66 367 145 506
l26 45 1 -100 c0 -54 4 -115 9 -134 l8 -35 7 35 c8 40 31 146 51 240 8 36 17
87 21 113 3 27 7 47 9 45 1 -1 6 -73 10 -158z m1682 49 c78 -29 192 -190 264
-372 21 -52 61 -218 55 -225 -2 -2 -13 12 -25 31 -25 40 -129 129 -142 122 -4
-3 6 -25 24 -48 34 -44 80 -141 93 -192 7 -27 -1 -22 -77 49 -94 88 -169 141
-214 152 -29 6 -27 4 27 -52 50 -52 128 -165 128 -186 0 -4 -30 16 -67 44 -75
56 -207 122 -265 133 -48 9 -48 -5 0 -27 37 -18 146 -107 139 -114 -2 -2 -20
2 -39 10 -129 54 -377 108 -600 131 l-67 6 31 52 c112 192 369 395 588 465 57
18 89 27 112 31 4 0 19 -4 35 -10z m-2918 -913 c35 -145 109 -297 186 -378 14
-15 25 -29 25 -32 0 -3 -20 -36 -44 -73 -54 -84 -98 -172 -120 -240 -10 -29
-21 -53 -24 -53 -22 0 -158 193 -213 302 -119 235 -152 421 -112 618 l18 85 6
-125 c3 -69 12 -163 19 -210 l14 -85 7 65 c6 51 48 266 82 415 3 11 6 -27 7
-85 1 -58 3 -109 4 -115 1 -5 5 -43 10 -82 4 -40 11 -73 16 -73 4 0 10 27 13
59 4 32 17 106 31 162 13 57 28 129 32 159 8 49 9 40 15 -85 4 -86 15 -174 28
-229z m2161 290 c231 -12 599 -115 839 -235 329 -165 578 -369 731 -599 77
-116 120 -211 152 -339 30 -118 33 -379 5 -430 -16 -31 -53 -60 -63 -50 -3 3
0 34 6 68 17 94 15 291 -5 374 -71 299 -265 551 -595 770 -281 187 -577 307
-885 359 -306 52 -435 54 -700 9 -533 -89 -1030 -362 -1288 -707 -74 -100
-159 -274 -186 -383 -34 -132 -28 -320 14 -486 l8 -29 -31 16 c-88 45 -106
377 -33 595 67 200 206 401 377 547 167 142 412 288 629 374 97 39 291 95 375
109 36 6 79 13 95 16 17 3 41 8 55 12 29 7 317 20 370 16 19 -1 78 -4 130 -7z
m-11 -121 c81 -20 255 -108 357 -183 89 -65 167 -148 203 -213 21 -40 16 -36
-52 37 -135 145 -322 253 -504 293 -35 7 -43 6 -43 -5 0 -8 9 -14 20 -14 28 0
190 -83 280 -143 134 -90 239 -206 268 -297 l12 -35 -22 29 c-50 67 -111 132
-170 182 -66 56 -210 138 -231 131 -6 -2 22 -28 63 -59 98 -72 208 -190 248
-263 18 -32 30 -60 28 -62 -2 -3 -25 12 -52 32 -66 51 -144 88 -249 120 -88
27 -92 30 -163 106 -84 90 -172 151 -306 214 -73 34 -96 49 -96 64 0 66 37 80
210 80 86 1 158 -5 199 -14z m-2864 -56 c-4 -19 -29 -54 -61 -86 -50 -49 -54
-52 -48 -26 4 15 16 39 28 53 35 42 80 90 84 90 2 0 0 -14 -3 -31z m5488 -65
c9 -12 19 -33 22 -47 6 -21 -2 -16 -49 29 -33 32 -56 63 -56 75 0 20 2 19 33
-8 18 -15 41 -38 50 -49z m-2292 25 c32 -17 66 -41 76 -52 11 -13 12 -17 3
-10 -8 6 -47 30 -85 52 -82 48 -78 55 6 10z m2078 -30 c99 -55 201 -290 201
-461 0 -139 -75 -297 -219 -461 -56 -63 -60 -59 -35 35 23 92 12 90 -24 -4
-34 -90 -78 -160 -112 -178 -22 -12 -25 -7 -11 18 12 22 51 209 51 242 0 16
-9 2 -24 -40 -34 -97 -102 -223 -137 -256 -26 -24 -30 -26 -25 -9 10 35 33
215 27 214 -3 0 -23 -36 -45 -79 -35 -73 -103 -167 -113 -157 -3 4 11 110 23
167 5 21 2 20 -16 -10 -24 -38 -89 -113 -102 -118 -4 -2 -8 17 -8 43 0 26 -7
74 -15 106 l-16 60 33 26 c199 160 357 439 423 751 27 124 66 155 144 111z
m-5048 -26 c9 -10 20 -40 24 -68 4 -27 9 -59 11 -70 43 -285 202 -601 398
-790 l52 -50 -4 -113 -4 -114 -26 7 c-15 4 -61 23 -102 42 -41 20 -107 50
-147 68 -144 66 -258 159 -355 289 -108 145 -165 301 -155 421 18 192 192 447
277 404 8 -4 22 -15 31 -26z m1617 -87 c-71 -21 -198 -91 -198 -108 0 -10 -3
-11 57 12 117 44 208 63 329 68 70 2 129 0 139 -5 12 -7 -14 -12 -91 -16 -60
-3 -132 -13 -160 -21 -68 -21 -168 -66 -161 -72 2 -3 40 5 83 16 135 37 475
38 498 2 2 -4 -51 -7 -117 -7 -67 0 -143 -3 -168 -7 -64 -9 -129 -29 -129 -41
0 -5 8 -6 18 -2 49 19 449 -4 425 -25 -4 -4 -37 -17 -73 -29 -36 -13 -94 -39
-129 -58 -62 -33 -65 -34 -96 -19 -120 57 -377 65 -582 19 -16 -4 -46 -7 -68
-7 -40 -1 -40 -1 -39 37 2 46 24 72 114 131 104 69 231 124 345 149 68 15 70
3 3 -17z m1990 -106 c209 -95 394 -402 391 -649 l-1 -76 -18 80 c-25 110 -54
187 -95 259 -41 71 -91 134 -100 124 -4 -3 12 -44 34 -90 71 -148 95 -294 72
-438 l-7 -45 -7 70 c-10 101 -52 247 -97 341 -44 90 -113 184 -135 184 -21 0
-19 -8 20 -69 108 -170 156 -430 104 -566 l-18 -50 5 46 c15 117 -39 337 -109
447 -47 73 -83 71 -48 -3 51 -108 71 -190 71 -287 0 -89 -16 -184 -36 -220 -6
-11 -9 26 -10 110 0 92 -5 144 -18 187 -22 75 -65 155 -83 155 -16 0 -16 0 7
-89 32 -121 28 -234 -12 -359 -22 -67 -36 -79 -19 -16 18 66 7 221 -20 288
-39 95 -48 85 -46 -51 1 -100 -2 -128 -22 -185 -12 -38 -24 -68 -26 -68 -3 0
-4 46 -3 103 1 99 -13 177 -33 177 -5 0 -9 -11 -9 -25 0 -54 -17 -21 -26 53
l-10 77 45 55 c51 63 103 171 120 248 6 29 11 98 11 153 0 93 2 102 25 124 29
30 46 31 103 5z m-4663 -283 c72 -47 221 -148 333 -224 111 -76 239 -160 282
-188 44 -27 132 -85 195 -129 111 -75 115 -80 115 -115 0 -20 3 -125 6 -235 4
-122 2 -197 -4 -195 -9 4 -242 161 -572 386 -85 58 -248 169 -362 246 -173
116 -208 144 -208 163 0 13 2 24 5 24 3 0 34 -18 68 -40 l62 -39 5 52 c3 29 2
57 -3 64 -4 6 -37 30 -73 53 -54 36 -64 47 -64 71 0 16 2 29 5 29 10 0 113
-68 119 -79 15 -24 21 -8 19 56 -1 67 -2 68 -45 103 -85 69 -98 86 -98 126 l0
38 43 -41 c23 -22 101 -79 172 -126z m7275 119 l0 -45 -466 -311 c-257 -172
-496 -333 -533 -359 l-66 -47 0 -67 c0 -37 1 -67 3 -67 1 0 75 49 165 108 89
60 230 153 312 207 196 128 444 295 523 352 l62 45 0 -34 c0 -32 -7 -38 -216
-178 -293 -197 -517 -350 -529 -362 -7 -6 -4 -13 8 -19 9 -6 14 -15 11 -21 -4
-7 -2 -8 4 -4 7 4 13 17 14 29 0 12 4 3 7 -20 l6 -43 300 201 c165 110 322
214 348 230 l48 30 -3 -28 c-3 -30 -11 -36 -328 -252 -232 -158 -519 -355
-683 -469 -65 -45 -120 -82 -123 -82 -2 0 -4 105 -4 234 l0 233 83 58 c45 32
242 162 437 291 410 269 588 392 604 417 6 9 12 17 13 17 2 0 3 -20 3 -44z
m-3498 -5 c157 -42 277 -107 365 -198 94 -96 123 -185 104 -325 -14 -102 -51
-172 -144 -273 -54 -59 -65 -76 -47 -70 14 4 40 19 58 32 42 32 51 24 21 -19
-39 -54 -69 -76 -176 -129 -56 -27 -107 -58 -112 -67 -6 -9 -11 -12 -11 -7 0
12 -20 -16 -20 -29 0 -5 8 -2 17 5 14 11 12 6 -5 -23 -25 -45 -24 -45 83 -18
250 64 401 205 435 405 8 43 9 38 6 -37 -3 -115 -39 -191 -129 -274 -112 -104
-217 -154 -417 -200 -95 -22 -122 -23 -290 -20 -192 4 -292 19 -424 66 -106
36 -224 112 -289 184 -57 64 -106 195 -107 284 0 47 16 31 24 -24 15 -112 125
-249 251 -316 78 -40 204 -82 280 -93 43 -6 48 -5 34 6 -9 8 -21 29 -27 47
-11 31 -10 32 16 32 18 1 -6 14 -68 38 -138 53 -215 99 -266 155 -24 27 -44
53 -44 58 0 4 23 -6 50 -23 28 -17 53 -29 56 -26 3 3 -24 38 -59 78 -81 89
-123 167 -136 251 -27 169 46 318 205 419 104 65 222 108 360 130 96 15 317 4
406 -19z m-1368 -276 c-52 -31 -164 -137 -164 -155 0 -4 42 21 94 55 101 66
254 126 318 124 31 -1 30 -2 -10 -10 -48 -9 -161 -68 -183 -96 -13 -15 -12
-16 6 -8 102 42 244 71 251 51 2 -6 0 -24 -4 -41 -8 -28 -13 -31 -68 -37 -132
-17 -339 -98 -473 -185 -47 -30 -125 -95 -175 -144 -50 -49 -97 -89 -104 -89
-7 0 -24 11 -38 26 -27 26 -27 32 -11 125 11 67 55 164 101 226 71 93 110 116
53 32 -40 -59 -96 -204 -84 -216 3 -3 15 15 28 39 39 78 112 179 160 222 47
42 166 112 175 103 3 -3 -3 -8 -14 -11 -34 -11 -175 -168 -204 -226 -14 -30
-24 -57 -21 -60 3 -3 8 2 11 10 17 49 220 225 303 263 105 48 133 49 53 2z
m216 -463 c0 -18 -8 -32 -25 -42 -79 -49 -171 -206 -199 -342 -20 -98 -20
-123 4 -232 33 -150 7 -160 -156 -56 -95 61 -111 74 -121 107 -30 97 -5 248
59 360 37 66 53 78 28 20 -50 -112 -67 -276 -37 -347 l15 -35 0 70 c0 80 30
203 68 279 23 46 105 145 128 155 5 2 -5 -16 -21 -40 -75 -110 -114 -245 -98
-340 10 -57 21 -48 28 24 16 165 138 354 276 427 48 25 51 25 51 -8z m-1366
-82 c183 -105 494 -320 543 -375 36 -40 148 -120 442 -316 217 -144 416 -272
442 -286 26 -13 80 -31 121 -42 92 -23 120 -37 243 -126 120 -87 185 -129 188
-124 1 2 12 24 25 49 45 88 117 122 257 123 137 0 221 -43 259 -135 l16 -37
72 41 c40 23 99 62 131 87 86 68 158 111 187 111 41 0 146 36 213 73 34 19
202 126 372 238 171 113 344 227 385 253 41 27 84 63 95 79 25 39 60 65 277
203 360 230 387 244 397 219 5 -11 -116 -94 -399 -272 -118 -75 -210 -139
-217 -153 -7 -13 -8 -31 -3 -44 17 -45 48 -29 475 239 72 45 136 85 143 89 8
5 12 -2 12 -26 0 -32 -6 -37 -215 -168 -509 -319 -690 -436 -1035 -664 -652
-433 -780 -514 -909 -578 l-106 -53 -140 1 c-120 0 -148 3 -195 22 -30 12 -56
22 -58 22 -2 0 -2 -21 0 -47 3 -47 3 -47 70 -82 44 -24 68 -42 68 -53 0 -23
-18 -23 -75 2 -26 11 -51 20 -56 20 -15 0 -10 -77 6 -94 9 -8 40 -23 70 -32
46 -15 55 -22 55 -41 0 -27 -16 -29 -67 -8 -20 9 -44 13 -54 10 -17 -6 -81 33
-101 60 -4 5 -8 73 -8 151 0 140 0 140 -27 166 -32 29 -194 141 -198 136 -8
-9 -14 -74 -7 -83 4 -6 33 -27 65 -48 48 -31 57 -42 57 -67 l0 -29 -38 22
c-21 12 -115 71 -210 132 -155 99 -172 112 -172 137 0 15 4 28 8 28 5 0 37
-20 73 -45 l64 -45 6 43 c5 34 3 46 -15 66 -23 25 -891 606 -1153 771 l-158
99 -3 -35 c-5 -50 0 -59 58 -100 48 -34 59 -55 42 -81 -5 -8 -34 6 -97 47 -50
33 -93 59 -97 60 -5 0 -8 -20 -8 -44 0 -41 3 -46 53 -83 28 -22 73 -52 100
-67 41 -25 47 -32 47 -62 l0 -34 -142 94 c-246 163 -278 188 -278 213 0 13 2
23 5 23 3 0 38 -22 78 -48 120 -81 115 -80 115 -19 l1 52 -100 68 c-82 56 -99
72 -99 93 l0 26 48 -28 c26 -15 67 -41 92 -56 l45 -29 3 42 c4 51 -6 63 -110
129 -70 45 -78 54 -78 81 0 23 4 30 15 25 8 -3 87 -52 175 -108 256 -164 344
-218 365 -227 27 -11 45 5 45 39 0 41 -65 94 -286 235 -255 162 -307 198 -312
213 -6 20 10 14 102 -38z m4008 -51 c29 -28 30 -33 24 -85 -3 -31 -14 -70 -22
-87 -38 -76 -204 -216 -359 -304 -38 -21 -82 -47 -97 -57 -64 -42 -20 -2 86
79 104 78 158 134 211 218 32 50 7 40 -72 -28 -198 -174 -434 -277 -621 -274
l-67 1 50 8 c76 12 211 58 300 102 137 69 301 205 293 243 -2 13 -17 5 -73
-39 -89 -71 -256 -158 -369 -190 -152 -44 -328 -51 -441 -17 -22 6 2 9 90 10
142 1 268 25 373 70 74 31 192 107 192 122 0 13 -5 12 -68 -20 -134 -67 -347
-112 -465 -97 -77 10 -64 23 23 25 34 1 147 57 136 68 -2 3 -25 -2 -50 -10
-24 -8 -47 -13 -50 -10 -9 9 34 62 62 77 15 7 59 16 98 20 159 14 445 89 644
170 108 44 133 45 172 5z m-5142 -354 c0 -256 -3 -332 -14 -346 -12 -18 -14
-17 -20 18 -3 21 -6 183 -6 361 l0 323 21 -14 c20 -14 20 -23 19 -342z m6818
-22 c-3 -232 -8 -356 -15 -373 -11 -24 -12 -23 -12 17 -1 23 -5 45 -11 48 -6
4 -10 120 -9 308 0 247 3 306 15 325 33 51 36 27 32 -325z m-6998 218 l0 -78
-41 -28 c-63 -44 -185 -180 -213 -238 -66 -135 -79 -264 -37 -389 56 -170 229
-301 445 -339 79 -13 222 -6 312 15 101 25 199 74 182 91 -2 3 -31 -6 -63 -20
-72 -29 -203 -52 -305 -54 -136 -3 -300 52 -394 133 -77 66 -120 169 -106 256
l6 35 7 -35 c21 -104 116 -198 264 -261 75 -32 83 -33 198 -33 134 1 226 19
306 60 72 36 106 28 174 -40 53 -53 99 -147 93 -190 -3 -24 -134 -94 -234
-125 -88 -28 -252 -44 -374 -38 -122 6 -208 30 -322 89 -76 39 -198 140 -219
182 -9 16 -3 13 22 -10 40 -37 138 -104 194 -132 206 -103 554 -103 762 1 51
25 63 35 63 55 0 19 -4 23 -17 17 -146 -61 -305 -89 -458 -81 -131 6 -203 24
-308 77 -102 51 -152 86 -208 146 -105 112 -150 219 -155 365 -3 122 14 198
68 308 34 67 62 104 133 176 75 75 188 160 218 163 4 1 7 -34 7 -78z m7238 44
c100 -60 205 -159 268 -255 46 -70 86 -198 91 -295 10 -183 -39 -309 -171
-440 -157 -155 -357 -223 -624 -213 -98 4 -133 10 -212 37 -129 44 -214 90
-218 119 -4 29 9 28 89 -4 124 -52 196 -66 344 -71 250 -8 410 42 538 170 61
61 117 148 117 185 0 21 -18 13 -24 -10 -11 -43 -108 -148 -183 -198 -85 -57
-159 -82 -291 -100 -157 -22 -369 15 -487 85 -51 29 -50 42 7 71 27 14 34 13
91 -10 127 -50 177 -60 297 -60 172 0 284 40 386 136 72 68 98 134 92 238 -6
91 -35 154 -109 236 -57 63 -59 80 -4 37 35 -26 129 -140 138 -166 2 -7 8 -9
12 -5 10 10 -21 126 -47 174 l-20 37 34 -28 c44 -37 82 -95 110 -169 l23 -61
3 38 c9 109 -70 237 -216 351 l-102 80 0 63 c0 35 2 63 4 63 3 0 31 -16 64
-35z m-6908 -422 c0 -360 -2 -413 -15 -413 -8 0 -17 -1 -20 -2 -8 -4 -17 780
-9 825 6 37 7 38 25 21 18 -16 19 -37 19 -431z m6522 10 c-1 -225 -4 -414 -7
-420 -2 -7 -11 -13 -20 -13 -13 0 -15 48 -15 406 0 376 1 408 18 420 9 7 19
14 22 14 3 0 4 -183 2 -407z m-4718 355 c-9 -24 -18 -85 -21 -135 -3 -51 -10
-93 -16 -93 -18 0 -3 171 21 223 26 59 37 62 16 5z m-1654 -410 c0 -353 -1
-368 -19 -368 -13 0 -20 10 -25 31 -8 41 -8 657 0 697 6 27 8 29 25 19 18 -11
19 -30 19 -379z m6221 -361 c-5 -5 -17 -7 -25 -4 -14 6 -16 47 -16 349 0 341
0 342 23 366 l22 24 3 -363 c1 -218 -2 -367 -7 -372z m-711 688 c0 -22 -20
-39 -135 -113 -220 -142 -284 -182 -295 -182 -5 0 -10 13 -10 28 0 26 11 35
103 91 56 33 152 92 212 130 61 38 113 69 118 70 4 1 7 -10 7 -24z m-5350
-274 c0 -234 -4 -273 -31 -289 -18 -12 -19 -5 -19 258 l0 270 25 -16 25 -16 0
-207z m2164 -19 c19 -52 84 -169 99 -179 7 -4 8 0 3 13 -54 137 -76 265 -62
358 6 40 9 45 25 36 13 -7 20 -26 24 -72 16 -175 162 -420 316 -533 22 -16 41
-33 41 -37 1 -45 -323 36 -441 111 -76 48 -130 182 -128 317 l1 69 8 -54 c5
-29 16 -74 26 -100 22 -59 93 -168 134 -206 l33 -30 -27 45 c-100 165 -133
352 -88 495 4 11 10 -27 13 -85 4 -58 14 -124 23 -148z m3756 -27 l0 -245 -25
12 -25 11 0 223 c0 202 2 224 18 233 9 6 20 11 25 11 4 0 7 -110 7 -245z
m-572 139 c-2 -11 -55 -51 -128 -96 -69 -43 -154 -97 -190 -120 -36 -23 -75
-48 -87 -56 -22 -14 -23 -13 -23 16 0 28 9 36 113 101 308 195 325 202 315
155z m-6042 -57 c-24 -29 -56 -73 -71 -97 -15 -26 -23 -35 -19 -20 12 45 46
104 77 138 51 53 62 36 13 -21z m962 18 c23 -16 51 -25 74 -25 27 0 52 -11 96
-42 156 -111 204 -163 241 -262 21 -58 38 -186 24 -186 -5 0 -23 45 -41 100
-56 171 -166 286 -312 330 -73 22 -91 35 -115 81 -19 35 -14 36 33 4z m5370
-27 c-19 -35 -30 -45 -63 -52 -67 -14 -139 -45 -190 -81 -93 -67 -57 -7 46 75
49 40 69 50 98 50 24 0 53 10 81 29 25 15 47 27 49 25 2 -1 -8 -22 -21 -46z
m-2914 -121 c96 -116 248 -219 406 -278 70 -26 105 -32 195 -37 121 -5 118
-17 -7 -27 -100 -9 -200 13 -313 69 -158 79 -286 191 -339 298 -33 65 -36 110
-5 59 12 -19 40 -57 63 -84z m201 74 c112 -7 144 -13 230 -44 148 -53 255 -68
474 -67 102 1 204 4 226 9 22 4 54 4 71 -1 84 -22 31 -94 -125 -173 -89 -45
-140 -56 -271 -62 -145 -6 -260 13 -395 66 -145 56 -332 191 -374 269 -11 21
-10 22 11 17 13 -3 82 -10 153 -14z m-313 -161 c36 -57 68 -92 148 -160 36
-30 67 -56 69 -57 2 -2 2 -6 -2 -9 -11 -12 -91 43 -156 107 -43 43 -74 85 -97
133 -38 78 -45 120 -12 66 12 -19 34 -55 50 -80z m-586 -77 c-7 -8 -56 117
-56 143 0 19 10 1 30 -56 16 -46 28 -86 26 -87z m-2658 -65 l-3 -63 -25 35
c-19 26 -25 48 -25 85 0 36 7 61 25 90 l25 40 3 -62 c2 -35 2 -91 0 -125z
m1029 133 c73 -47 170 -166 152 -187 -12 -15 -99 -67 -103 -62 -12 13 -31 55
-31 67 0 8 -8 15 -18 17 -10 1 -36 19 -58 38 -35 32 -112 75 -161 90 -29 9
-21 21 34 49 73 38 112 35 185 -12z m5273 14 c14 -7 33 -22 43 -33 17 -19 17
-19 -20 -26 -37 -6 -113 -46 -164 -87 l-26 -21 -52 37 c-28 20 -51 43 -51 50
0 18 73 66 133 86 54 19 91 17 137 -6z m881 -40 c21 -47 14 -91 -21 -135 l-20
-25 0 108 c0 118 8 127 41 52z m-1428 -487 c-2 -728 -2 -748 -11 -748 -4 0
-15 13 -25 29 -16 27 -17 78 -17 589 l0 560 28 21 c15 11 27 21 27 21 0 0 -1
-213 -2 -472z m-3618 277 c61 -40 156 -102 213 -139 87 -56 102 -70 102 -92 0
-31 32 -50 -270 154 -238 160 -250 169 -250 190 0 17 46 -8 205 -113z m-559
94 l34 -21 0 -582 c0 -439 -3 -585 -12 -594 -20 -20 -48 -14 -58 14 -11 28
-14 1204 -4 1204 4 0 22 -9 40 -21z m3644 7 c0 -12 -487 -346 -504 -346 -3 0
-6 9 -6 20 0 15 48 52 190 145 198 131 300 194 313 195 4 0 7 -6 7 -14z m375
-1133 c-4 -57 -10 -103 -14 -103 -4 0 -14 13 -24 29 -16 27 -17 79 -17 599 l0
571 28 13 27 13 3 -510 c2 -280 0 -556 -3 -612z m429 1099 c53 -29 61 -39 47
-61 -14 -21 -130 45 -123 71 6 24 18 23 76 -10z m-5207 -7 c98 -45 181 -158
212 -288 14 -57 11 -63 -36 -82 -49 -21 -50 -20 -57 28 -20 132 -180 324 -273
328 -24 1 56 38 82 39 11 0 44 -11 72 -25z m5630 7 l33 -17 -48 -17 c-99 -36
-199 -165 -224 -291 -8 -37 -16 -68 -18 -68 -3 -1 -24 7 -47 16 -40 16 -43 20
-43 56 0 54 44 164 86 216 41 50 95 89 151 109 50 17 71 17 110 -4z m-1008
-654 c0 -321 -4 -601 -8 -623 l-7 -40 -22 35 c-22 35 -22 36 -22 597 l0 561
23 26 c12 14 25 26 30 26 4 0 7 -262 6 -582z m-3601 -39 c3 -554 3 -554 -20
-602 -43 -93 -46 -65 -49 488 -1 281 -2 557 -1 614 l2 104 33 -25 32 -26 3
-553z m-620 540 c-2 -16 -16 -31 -41 -44 -33 -17 -39 -18 -47 -5 -18 29 -10
46 33 67 46 23 60 18 55 -18z m4739 16 c41 -25 54 -47 33 -60 -13 -8 -110 43
-110 59 0 33 21 33 77 1z m-682 -1232 c-4 -29 -10 -53 -14 -53 -4 0 -15 16
-24 35 -15 32 -17 92 -17 601 l0 565 28 25 27 26 3 -574 c2 -315 0 -597 -3
-625z m-3277 561 c2 -516 1 -570 -15 -606 -19 -44 -35 -45 -44 -2 -4 16 -7
296 -8 622 l-1 594 33 -21 32 -20 3 -567z m5492 542 c0 -2 -16 -23 -35 -46
-48 -57 -118 -111 -192 -149 -146 -74 -263 -96 -481 -89 -163 6 -263 30 -372
91 -117 65 -120 88 -6 41 142 -58 226 -76 383 -81 174 -7 309 13 432 62 92 38
191 99 236 145 28 29 35 34 35 26z m-2378 -1234 l-7 -46 -20 30 c-19 28 -20
49 -23 599 -1 314 0 579 2 591 3 11 16 25 28 31 l23 10 3 -584 c1 -322 -1
-605 -6 -631z m-2981 1167 l29 -20 0 -567 -1 -567 -23 -44 c-20 -38 -24 -41
-32 -25 -10 21 -19 1244 -9 1244 4 0 20 -9 36 -21z m2318 -41 c1 -6 -116 -88
-126 -88 -2 0 -3 12 -1 27 2 20 18 38 58 66 49 34 55 36 62 20 3 -10 7 -21 7
-25z m513 -600 c-1 -326 -5 -613 -8 -637 l-6 -45 -21 35 c-22 34 -22 34 -19
619 l3 585 22 17 c12 10 24 18 27 18 3 0 4 -267 2 -592z m-3721 486 c-15 -103
-68 -182 -152 -225 l-39 -20 35 47 c45 59 70 106 85 164 7 29 23 54 43 72 18
14 33 26 34 24 1 -1 -2 -29 -6 -62z m1053 45 l26 -20 0 -564 c0 -560 0 -563
-22 -604 -12 -23 -25 -41 -29 -41 -3 0 -9 14 -13 31 -9 49 -7 1219 3 1219 4 0
20 -9 35 -21z m2510 -626 c-3 -324 -7 -612 -10 -641 l-6 -53 -21 28 c-24 30
-23 -56 -18 1053 l1 165 28 17 c15 9 28 17 28 17 1 1 0 -263 -2 -586z m-1990
515 c119 -78 227 -147 275 -174 25 -14 37 -29 39 -47 2 -15 0 -27 -5 -27 -13
0 -99 53 -263 162 -114 76 -156 109 -158 126 -2 12 1 22 6 22 6 0 53 -28 106
-62z m1636 47 c0 -20 -6 -25 -224 -169 -113 -75 -194 -122 -199 -117 -20 20
11 50 135 131 273 178 288 186 288 155z m-1992 -48 c8 -9 12 -175 13 -588 1
-534 0 -577 -17 -611 -20 -44 -29 -47 -38 -15 -10 35 -20 978 -11 1119 6 117
8 127 24 118 10 -5 23 -15 29 -23z m1672 3 c0 -23 -31 -55 -79 -83 l-31 -18 0
24 c0 18 14 33 53 60 28 20 53 36 55 36 1 1 2 -8 2 -19z m2113 -62 c16 -11 45
-29 65 -40 l37 -19 -45 6 c-69 9 -146 49 -170 87 -11 18 -20 36 -20 40 0 8 83
-39 133 -74z m-5245 40 c-29 -40 -116 -85 -178 -94 l-45 -6 55 36 c59 38 169
96 184 96 5 0 -2 -15 -16 -32z m3649 -625 c-4 -340 -11 -631 -15 -648 l-9 -30
-16 32 c-15 29 -17 91 -17 627 l0 594 28 21 c15 11 29 21 31 21 2 0 1 -278 -2
-617z m-2017 -40 c0 -522 -2 -576 -17 -613 -20 -44 -27 -49 -39 -22 -9 21 -18
1115 -9 1187 l6 53 30 -16 29 -17 0 -572z m3293 571 c69 -35 167 -102 167
-115 0 -18 -207 102 -224 130 -10 16 -1 14 57 -15z m-2053 -42 c0 -27 -28 -49
-106 -82 -72 -30 -84 -30 -84 -1 0 11 16 23 48 34 26 10 65 28 87 41 50 30 55
31 55 8z m618 -621 c-2 -346 -6 -633 -10 -637 -4 -4 -16 4 -27 17 -20 23 -20
40 -21 627 0 595 0 602 20 602 11 0 20 5 20 10 0 6 5 10 11 10 7 0 9 -193 7
-629z m-1723 563 l25 -16 0 -568 c0 -554 0 -569 -21 -615 -41 -94 -44 -65 -47
582 -2 333 -1 612 2 619 7 18 11 18 41 -2z m-2275 -68 l0 -55 -69 47 c-65 45
-67 47 -42 53 14 4 45 7 69 8 l42 1 0 -54z m6280 47 c0 -5 -28 -27 -63 -51
l-62 -43 -3 37 c-5 58 1 64 68 64 33 0 60 -3 60 -7z m-2443 -683 c-3 -311 -8
-578 -12 -593 l-8 -28 -18 28 c-18 27 -19 60 -19 628 l0 600 28 15 27 16 3
-51 c2 -27 1 -304 -1 -615z m2077 650 l38 0 -4 -82 c-2 -51 -8 -83 -15 -85 -7
-3 -78 -50 -158 -106 -81 -56 -154 -106 -163 -112 -9 -5 -53 -35 -97 -66 -44
-30 -150 -104 -235 -163 -139 -96 -363 -253 -478 -337 l-44 -31 4 76 c2 42 1
76 0 76 -2 0 -40 -26 -85 -57 -44 -32 -85 -61 -89 -64 -5 -3 -12 -42 -16 -86
l-7 -81 -147 -105 -148 -106 0 75 c0 41 -2 74 -4 74 -2 0 -80 -53 -173 -118
-92 -64 -193 -134 -223 -154 -30 -20 -134 -92 -230 -160 l-175 -123 -3 -76 -3
-76 -87 -57 c-113 -74 -199 -100 -302 -93 -131 9 -149 19 -592 320 -58 41
-126 89 -150 109 -24 19 -76 57 -117 84 -41 27 -87 58 -102 69 -29 21 -287
202 -449 315 -315 219 -486 340 -620 437 -127 92 -298 209 -550 378 l-255 170
-3 78 -3 77 58 0 c33 0 67 -6 78 -14 11 -7 43 -21 71 -30 56 -18 131 -68 594
-395 173 -123 331 -234 350 -247 19 -14 165 -116 323 -227 158 -111 345 -242
415 -290 70 -49 150 -104 177 -123 28 -19 120 -84 205 -144 225 -159 352 -246
387 -263 113 -59 296 -55 423 9 44 22 237 152 570 385 389 273 639 448 700
492 70 51 134 95 354 244 77 53 166 115 196 138 30 22 119 86 198 141 79 54
192 132 250 173 148 103 253 162 277 156 11 -3 37 -5 59 -5z m570 -55 c-27
-57 -106 -121 -375 -300 -248 -166 -344 -239 -334 -256 9 -13 290 154 585 347
41 27 81 53 88 57 22 14 -26 -71 -63 -112 -19 -21 -117 -94 -217 -162 -243
-163 -364 -259 -328 -259 25 0 310 169 493 292 31 21 57 35 57 31 0 -5 -16
-31 -35 -60 -41 -61 -98 -106 -297 -236 -80 -53 -168 -112 -194 -132 l-48 -37
-11 54 c-6 29 -18 67 -27 84 -23 42 -92 102 -144 126 -24 10 -44 20 -44 22 0
5 58 43 385 252 462 296 464 297 493 327 33 35 42 16 16 -38z m-6574 -141
c187 -134 359 -263 365 -275 4 -5 -2 -9 -13 -9 -34 0 -153 67 -291 165 -214
150 -284 218 -298 286 l-6 34 54 -52 c30 -28 115 -95 189 -149z m920 186 c-8
-5 -47 -21 -87 -36 -70 -25 -103 -27 -103 -4 0 6 4 9 9 6 4 -3 39 5 76 17 72
25 131 34 105 17z m1630 -632 c0 -570 0 -578 -21 -618 -16 -30 -25 -38 -33
-30 -8 8 -12 195 -14 641 l-3 630 35 -23 36 -23 0 -577z m917 578 c-5 -12
-114 -69 -154 -81 -19 -5 -23 -2 -23 18 0 20 9 28 48 42 26 10 65 28 87 41 34
20 41 21 43 8 2 -8 2 -21 -1 -28z m301 -658 c-2 -348 -7 -639 -12 -646 -6 -11
-13 -7 -27 15 -18 27 -19 58 -19 629 l0 602 23 15 c12 9 26 16 30 16 5 1 7
-284 5 -631z m-1087 565 l29 -17 0 -579 c0 -570 0 -580 -21 -613 -27 -44 -36
-43 -43 4 -11 68 -11 1222 0 1222 3 0 19 -8 35 -17z m927 -665 c-2 -348 -7
-641 -12 -651 -8 -17 -10 -16 -27 10 -18 27 -19 60 -19 635 0 598 0 607 20
613 11 3 20 11 20 16 0 5 5 9 10 9 8 0 10 -196 8 -632z m-3448 357 c113 -76
207 -139 210 -142 8 -8 -25 -23 -51 -23 -33 0 -341 206 -433 289 -28 26 -86
108 -86 122 0 5 35 -18 78 -50 42 -32 169 -120 282 -196z m2723 162 c16 -13
17 -55 17 -619 0 -629 0 -628 -42 -628 -42 0 -43 15 -46 674 l-3 628 28 -21
c15 -11 36 -27 46 -34z m565 -636 c-2 -352 -7 -643 -11 -648 -5 -4 -17 3 -27
17 -19 24 -20 50 -20 631 l0 607 23 15 c12 9 26 16 30 16 4 1 7 -287 5 -638z
m-328 -60 c0 -605 -1 -640 -18 -661 l-19 -23 -16 24 c-15 21 -17 82 -17 661
l0 638 35 0 35 0 0 -639z m159 -3 c0 -354 -4 -652 -8 -663 -7 -18 -10 -17 -30
15 -21 35 -21 39 -21 663 l0 627 30 0 30 0 -1 -642z m-3132 385 c105 -70 192
-131 192 -135 1 -3 -12 -11 -28 -16 -34 -12 -65 4 -216 110 -122 87 -190 150
-217 202 l-20 40 48 -37 c27 -20 135 -94 241 -164z m6451 -59 c-7 -149 -16
-161 -278 -339 -63 -43 -136 -93 -162 -112 -26 -18 -50 -33 -53 -33 -3 0 -5
60 -5 134 l0 135 30 21 30 21 0 -110 c0 -120 7 -134 50 -91 17 17 20 33 20
126 0 106 0 106 31 135 17 16 35 26 40 23 5 -3 9 -48 9 -100 l0 -95 30 18 30
17 0 104 c0 103 0 104 31 133 17 16 35 29 40 29 5 0 9 -46 9 -102 l0 -103 32
32 c31 31 32 36 36 130 l4 98 36 32 c45 38 46 36 40 -103z m-6776 71 c11 -15
10 -255 -2 -255 -5 0 -21 17 -35 37 -23 35 -25 46 -25 157 l0 119 27 -24 c15
-13 31 -28 35 -34z m1132 -116 c66 -45 125 -85 129 -89 7 -6 -170 -132 -206
-146 -8 -3 -47 18 -88 46 -41 28 -100 67 -131 88 -32 20 -58 41 -58 47 0 9
204 132 224 134 5 1 63 -36 130 -80z m4665 -2 c29 -18 72 -48 94 -68 40 -35
41 -39 48 -115 4 -43 8 -127 8 -185 l1 -105 -127 -84 c-71 -47 -131 -86 -134
-88 -3 -1 -4 86 -2 194 2 109 1 205 -2 214 -3 9 -50 45 -105 80 -55 35 -100
66 -100 70 0 3 21 21 46 38 l45 33 57 -32 c31 -18 69 -40 83 -50 26 -18 27
-18 48 5 l22 24 -33 24 c-18 14 -50 35 -70 47 -21 13 -38 24 -38 26 0 2 7 11
16 19 14 14 19 14 52 0 20 -8 61 -29 91 -47z m-5579 -158 c0 -69 -3 -128 -6
-132 -3 -3 -11 -1 -18 4 -6 5 -19 15 -30 23 -15 10 -19 30 -23 123 -3 61 -3
123 1 137 l6 26 35 -27 35 -28 0 -126z m190 -142 l0 -139 -29 24 c-20 17 -30
35 -35 67 -8 56 -8 126 0 184 l7 46 28 -22 29 -21 0 -139z m471 133 c58 -39
91 -89 97 -150 4 -42 1 -52 -21 -74 -42 -42 -88 -36 -142 18 -74 75 -86 177
-26 223 25 19 44 15 92 -17z m4539 -81 c5 -41 9 -47 70 -86 88 -58 54 -54 -45
5 -76 45 -80 49 -83 86 -2 21 -1 45 2 53 6 14 9 14 29 0 15 -10 23 -27 27 -58z
m-4070 12 l0 -49 -96 -57 c-129 -78 -134 -78 -134 -24 l0 44 107 68 c59 37
111 67 115 67 4 0 8 -22 8 -49z m4810 -143 l0 -120 -37 -36 -38 -37 -3 135
c-3 130 -2 136 20 150 12 8 27 20 32 26 21 23 26 1 26 -118z m-5567 103 l27
-14 0 -134 c0 -73 -3 -133 -6 -133 -3 0 -19 9 -35 21 l-29 20 0 131 c0 71 3
128 8 126 4 -2 19 -10 35 -17z m4637 -115 l0 -114 -212 -150 c-194 -136 -734
-500 -935 -630 -88 -56 -139 -109 -148 -152 -4 -17 -23 -40 -50 -59 -44 -31
-95 -117 -95 -159 0 -20 -41 -52 -116 -90 -169 -86 -417 -91 -574 -12 -53 27
-170 123 -170 139 0 4 36 -10 81 -31 99 -47 169 -66 277 -75 l82 -6 0 27 c0
22 -4 26 -29 26 -58 0 -206 51 -285 98 -69 42 -194 157 -183 169 3 2 25 -10
50 -27 117 -79 282 -133 390 -128 70 3 88 23 30 33 -85 15 -197 57 -278 104
-58 34 -213 176 -203 186 3 3 36 -16 74 -41 95 -64 209 -119 285 -139 121 -32
324 -10 435 48 36 19 200 135 273 194 57 47 73 46 85 -3 11 -41 30 -22 41 41
7 42 18 66 38 87 38 38 52 35 66 -12 19 -65 46 -47 53 38 4 40 12 60 33 82 16
17 33 30 38 30 15 0 36 -33 37 -57 0 -25 1 -26 24 -17 11 4 16 19 16 51 0 50
28 106 63 124 17 10 24 8 39 -11 10 -12 18 -31 18 -41 0 -10 7 -19 15 -19 15
0 18 10 30 84 6 39 51 96 75 96 6 0 19 -18 28 -40 26 -61 52 -49 52 24 0 49
18 93 48 112 25 16 26 16 49 -10 13 -15 23 -34 23 -42 0 -23 20 -16 30 12 6
14 10 43 10 66 0 32 6 46 31 69 42 39 58 37 76 -11 16 -39 36 -49 40 -19 1 8
5 36 8 63 7 51 40 96 70 96 10 0 23 -16 32 -40 26 -65 43 -50 52 44 5 55 9 62
40 83 19 13 36 23 37 23 2 0 4 -51 4 -114z m-3637 39 c8 -10 7 -131 -1 -197
l-4 -38 -29 28 c-29 27 -29 28 -29 146 l0 119 27 -24 c15 -13 31 -28 36 -34z
m-1501 -30 c36 -24 37 -27 40 -92 2 -55 6 -68 21 -71 14 -3 17 5 17 52 0 64 9
69 51 26 27 -27 30 -35 27 -87 l-3 -58 -56 -3 c-51 -3 -61 0 -100 30 -39 30
-45 40 -52 88 -8 56 -1 140 11 140 4 0 24 -11 44 -25z m6578 -63 c0 -98 -8
-117 -65 -152 -26 -16 -47 -20 -87 -18 l-53 3 -3 58 c-3 51 0 60 24 82 15 14
31 25 35 25 5 0 9 -25 9 -55 0 -30 4 -55 8 -55 21 0 32 29 32 87 0 61 1 63 38
87 59 39 62 37 62 -62z m-5656 -63 c26 -20 33 -52 17 -77 -11 -18 -75 44 -67
65 3 8 6 19 6 24 0 15 15 11 44 -12z m-174 -160 c0 -98 0 -98 -22 -90 -21 8
-23 15 -23 72 -1 35 1 83 3 107 5 41 5 42 23 26 16 -15 19 -32 19 -115z m625
50 c5 -5 1 -9 -12 -9 -33 0 -153 -66 -196 -108 -21 -20 -51 -59 -65 -87 -25
-46 -27 -61 -30 -195 l-4 -145 36 -52 36 -52 -30 -16 c-40 -20 -60 -19 -87 7
-23 21 -23 24 -23 252 0 202 3 236 19 271 46 102 224 193 311 158 19 -8 39
-18 45 -24z m509 9 c32 -21 34 -25 38 -96 5 -71 17 -97 43 -89 6 2 13 27 16
56 4 29 9 55 12 57 3 3 24 -11 46 -31 37 -34 41 -42 41 -87 0 -49 13 -86 34
-100 14 -9 24 17 25 65 1 20 4 37 9 37 4 0 24 -11 45 -25 l37 -26 0 -115 c0
-89 -3 -114 -12 -108 -42 24 -178 119 -270 187 l-108 79 0 109 c0 60 2 109 5
109 3 0 20 -10 39 -22z m3445 7 c62 -22 122 -68 161 -126 l35 -52 3 -233 3
-234 -25 -25 c-27 -27 -60 -32 -100 -14 l-25 12 40 52 39 52 0 147 c0 135 -2
150 -24 194 -35 69 -100 128 -188 171 l-77 38 32 16 c41 20 74 21 126 2z m521
-83 l0 -58 -34 0 c-23 0 -59 -15 -111 -47 l-76 -46 -10 26 c-5 14 -6 30 -2 34
15 14 218 148 226 149 4 0 7 -26 7 -58z m-4201 -137 c153 -104 388 -269 530
-373 l73 -53 -37 -19 -38 -19 -46 32 c-25 17 -120 86 -211 152 -464 341 -486
359 -460 375 8 6 19 10 24 10 5 0 79 -47 165 -105z m3631 -1 c45 -39 70 -94
70 -157 0 -62 -6 -69 -140 -164 -47 -33 -161 -114 -255 -180 -93 -67 -205
-144 -248 -173 -42 -28 -84 -64 -92 -80 -16 -32 -144 -150 -162 -150 -6 0 -14
6 -16 13 -4 8 -6 7 -6 -3 -1 -13 -91 -90 -104 -90 -3 0 -7 17 -9 38 -9 64 -69
173 -126 230 -53 52 -120 93 -176 106 l-30 7 30 20 c114 75 289 -60 350 -269
3 -10 11 -8 30 7 15 11 30 18 35 15 22 -13 6 50 -30 122 -47 94 -113 164 -185
195 l-52 23 71 47 c454 302 522 344 513 318 -5 -16 -84 -76 -261 -198 -76 -52
-137 -97 -137 -101 0 -4 18 -15 40 -25 21 -10 40 -24 42 -32 3 -16 151 81 543
358 145 102 224 149 251 149 12 0 37 -12 54 -26z m531 -19 c98 -51 35 -266
-78 -265 -108 2 -111 185 -4 257 40 27 43 28 82 8z m-4987 -29 c34 -35 56 -93
56 -145 0 -39 -47 -91 -81 -91 -79 0 -157 130 -129 215 14 42 33 54 84 55 31
0 45 -6 70 -34z m821 -213 c155 -107 347 -244 393 -279 30 -23 43 -54 23 -54
-5 0 -112 73 -237 163 -126 90 -265 187 -309 217 -111 74 -215 159 -215 177 0
14 22 0 345 -224z m2355 173 c0 -2 -8 -10 -17 -17 -16 -13 -17 -12 -4 4 13 16
21 21 21 13z m-1602 -55 c21 -18 22 -27 22 -142 l0 -123 -35 37 -35 37 0 98
c0 119 5 128 48 93z m-898 -218 c50 -34 128 -88 173 -121 45 -32 128 -91 185
-131 56 -40 102 -80 102 -88 0 -22 -19 -12 -144 75 -61 43 -199 139 -306 212
-263 181 -310 217 -310 241 0 17 18 8 105 -53 58 -40 146 -101 195 -135z m950
-208 c60 -30 71 -45 33 -45 -42 0 -120 -42 -178 -96 -32 -29 -54 -43 -62 -37
-6 4 -32 22 -57 38 -25 17 -45 35 -46 42 0 18 85 86 132 105 62 25 120 22 178
-7z m155 -167 c31 -14 33 -28 4 -28 -40 0 -110 -44 -163 -101 -59 -64 -95
-153 -97 -242 l-1 -52 -20 60 c-22 67 -20 157 6 218 46 112 183 185 271 145z
m1431 -9 c51 -24 95 -72 129 -139 20 -40 25 -64 25 -126 0 -70 -15 -144 -30
-144 -3 0 -6 31 -7 69 -1 77 -24 139 -73 201 -41 51 -144 120 -181 120 -35 0
-38 13 -6 28 36 17 97 14 143 -9z m-1860 -84 c17 -14 23 -26 19 -38 -9 -23
-15 -22 -63 13 -30 22 -42 37 -42 56 l0 25 30 -18 c17 -9 42 -27 56 -38z m554
-140 c52 -35 110 -71 129 -80 166 -84 434 -107 634 -55 99 25 175 62 301 145
55 36 105 65 113 65 8 0 34 -21 59 -46 43 -45 44 -47 27 -66 -53 -59 -278
-203 -372 -239 -68 -25 -202 -54 -294 -63 -134 -13 -342 27 -482 93 -145 69
-334 194 -335 223 0 9 18 36 39 58 48 51 52 50 181 -35z m-120 -218 c191 -114
297 -153 491 -182 84 -13 143 -15 222 -11 238 15 366 59 613 212 58 36 108 64
110 62 16 -17 -194 -172 -311 -230 -99 -50 -226 -82 -361 -92 -39 -3 -78 -8
-87 -12 -10 -3 -45 -1 -80 5 -34 6 -97 16 -140 22 -115 16 -244 60 -349 118
-111 62 -222 142 -238 172 -7 12 -8 19 -3 16 4 -2 64 -38 133 -80z"/>
<path d="M4800 9091 c-79 -24 -136 -81 -147 -144 -7 -47 22 -95 79 -127 36
-21 56 -25 128 -25 73 0 93 4 143 29 102 50 113 130 27 216 -51 51 -154 74
-230 51z m143 -95 c50 -21 73 -51 61 -83 -30 -85 -207 -99 -259 -19 -21 31
-13 59 23 85 47 33 121 40 175 17z"/>
<path d="M4944 8962 c-9 -14 -27 -17 -95 -17 -77 0 -84 -2 -87 -21 -5 -37 31
-58 101 -57 77 0 117 22 117 63 0 36 -22 55 -36 32z"/>
<path d="M4535 8927 c-72 -48 -393 -250 -416 -262 -10 -5 -19 -12 -19 -15 0
-3 347 -5 770 -5 424 0 770 2 770 5 0 3 -51 36 -113 74 -61 39 -160 100 -219
137 -59 37 -120 75 -137 84 l-31 16 0 -30 c0 -112 -95 -173 -271 -174 -89 -1
-102 2 -163 32 -72 35 -94 60 -111 127 l-11 44 -49 -33z"/>
<path d="M4170 8580 c-134 -5 -147 -7 -178 -29 -41 -31 -57 -57 -72 -111 -14
-53 -48 -84 -113 -106 -77 -25 -138 -58 -171 -93 -43 -45 -25 -55 54 -30 79
25 200 48 256 49 l42 0 6 53 c16 123 64 152 268 161 86 4 139 2 143 -4 3 -6
-1 -10 -9 -10 -9 0 -37 -21 -63 -47 -46 -46 -48 -50 -51 -113 -2 -36 -5 -73
-9 -84 -3 -12 -1 -16 6 -12 6 4 11 22 11 39 0 90 53 168 143 208 51 24 57 24
428 27 363 3 378 2 433 -18 61 -23 134 -86 154 -133 7 -15 12 -48 12 -73 0
-38 3 -45 18 -42 14 3 17 14 17 59 0 67 -33 124 -96 166 -28 18 -36 29 -27 34
21 13 249 -2 286 -19 50 -23 82 -72 89 -134 l5 -54 102 -12 c55 -6 138 -22
184 -35 l82 -24 0 23 c0 32 -49 67 -150 105 -93 36 -134 70 -145 122 -11 49
-40 91 -82 114 -38 21 -45 21 -733 25 -382 2 -760 1 -840 -2z m1309 -312 c-1
-55 -5 -50 -11 15 -2 20 0 37 4 37 4 0 7 -24 7 -52z"/>
<path d="M6658 7823 c-8 -40 4 -59 55 -87 l52 -27 -37 31 c-24 20 -38 41 -38
55 0 30 -27 54 -32 28z"/>
<path d="M3035 7793 c-24 -21 -25 -24 -8 -19 15 5 25 2 32 -11 9 -15 10 -11
11 20 0 20 -1 37 -2 37 -2 0 -16 -12 -33 -27z"/>
<path d="M2917 7669 c-62 -43 -76 -61 -26 -32 34 20 97 72 88 73 -3 0 -31 -18
-62 -41z"/>
<path d="M6875 7695 c11 -9 29 -21 40 -26 l20 -10 -20 16 c-11 9 -29 21 -40
26 l-20 10 20 -16z"/>
<path d="M6851 7659 c-1 -9 10 -21 24 -27 21 -10 25 -9 25 3 0 8 -9 15 -19 15
-11 0 -22 6 -24 13 -4 8 -6 6 -6 -4z"/>
<path d="M7024 7568 c-14 -17 -14 -19 -2 -10 15 12 17 10 21 -20 3 -29 4 -28
5 10 1 23 0 42 -1 42 -2 0 -12 -10 -23 -22z"/>
<path d="M6985 7571 c-3 -5 -1 -12 4 -15 5 -3 11 1 15 9 6 16 -9 21 -19 6z"/>
<path d="M2149 7319 c-208 -126 -217 -136 -218 -246 -1 -45 2 -53 17 -53 14 0
26 18 46 69 31 79 43 92 178 186 56 39 103 76 106 83 9 27 -49 9 -129 -39z"/>
<path d="M7472 7357 c-8 -10 12 -27 86 -77 117 -77 150 -105 167 -146 24 -57
145 -233 176 -255 32 -22 72 -22 147 2 28 9 32 15 32 45 0 20 -4 44 -10 54 -9
17 -132 98 -226 150 -23 12 -55 41 -71 64 -21 29 -61 60 -144 109 -117 69
-139 76 -157 54z"/>
<path d="M1930 6908 c-23 -38 -33 -82 -28 -123 5 -43 25 -42 26 2 1 71 10 114
28 134 10 11 12 19 5 19 -6 0 -20 -15 -31 -32z"/>
<path d="M7780 6917 c0 -8 8 -38 19 -68 10 -30 17 -66 15 -82 -3 -29 10 -37
20 -11 11 29 6 72 -13 117 -20 46 -41 69 -41 44z"/>
<path d="M1450 6840 c-119 -25 -180 -87 -180 -182 0 -132 175 -214 349 -162
30 8 69 30 89 49 32 29 37 39 37 80 0 45 0 46 18 24 39 -48 14 -118 -63 -173
-28 -20 -53 -43 -57 -51 -10 -27 7 -65 48 -110 57 -62 226 -171 272 -177 44
-5 45 1 13 73 -34 79 -45 138 -55 292 -8 118 -13 146 -36 193 -53 107 -146
155 -303 153 -53 -1 -113 -5 -132 -9z m142 -81 c57 -15 118 -76 118 -117 0
-36 -9 -62 -21 -62 -5 0 -9 9 -9 20 0 11 -6 36 -14 55 -38 90 -199 111 -278
37 -42 -39 -35 -60 7 -24 67 59 189 51 228 -15 14 -26 16 -36 7 -53 -30 -56
-139 -78 -210 -42 -39 19 -80 74 -80 107 0 26 54 79 95 92 44 14 109 15 157 2z"/>
<path d="M1435 6653 c-90 -24 -30 -89 80 -85 80 4 120 39 80 72 -16 13 -126
22 -160 13z"/>
<path d="M8006 6826 c-75 -32 -141 -95 -161 -155 -8 -25 -19 -113 -24 -196
-10 -149 -25 -225 -62 -297 -10 -21 -19 -39 -19 -40 0 -2 15 -3 33 -2 23 1 62
20 128 64 137 92 166 118 190 168 l22 44 -72 67 c-70 66 -71 67 -71 118 0 29
5 55 10 58 6 4 10 -8 10 -29 0 -69 97 -137 208 -144 119 -8 226 42 263 122 26
57 24 85 -10 138 -22 34 -44 53 -87 74 -52 25 -70 29 -178 31 -111 3 -126 2
-180 -21z m309 -75 c57 -26 97 -75 88 -109 -10 -44 -32 -69 -74 -86 -50 -20
-108 -20 -159 0 -65 26 -80 82 -34 125 21 19 36 24 82 23 54 0 122 -24 122
-43 0 -4 -35 -6 -78 -3 -85 5 -122 -6 -122 -37 0 -66 199 -70 224 -6 30 78
-65 140 -183 120 -68 -11 -121 -68 -121 -132 -1 -27 -1 -27 -15 -9 -8 11 -15
36 -14 55 2 90 174 152 284 102z"/>
<path d="M1420 6146 c0 -57 3 -65 21 -71 11 -4 35 -19 52 -35 l32 -28 2 59 c2
57 2 59 -40 92 -69 55 -67 56 -67 -17z"/>
<path d="M1667 5983 c4 -55 9 -71 26 -83 12 -8 41 -30 64 -47 l43 -33 0 70 0
69 -64 45 c-35 26 -66 46 -69 46 -3 0 -3 -30 0 -67z"/>
<path d="M1414 5988 c3 -13 6 -39 6 -59 0 -33 5 -39 78 -89 86 -60 670 -452
690 -464 9 -5 12 7 12 52 l0 60 -287 195 c-387 262 -485 327 -496 327 -5 0 -7
-10 -3 -22z"/>
<path d="M1928 5808 c2 -35 9 -69 14 -76 13 -15 222 -160 243 -168 12 -5 15 6
15 63 l0 70 -135 87 c-75 47 -137 86 -138 86 -1 0 0 -28 1 -62z"/>
<path d="M7660 5560 c-113 -80 -110 -76 -102 -136 l7 -51 98 65 97 64 0 59 c0
33 -3 59 -7 59 -5 -1 -46 -28 -93 -60z"/>
<path d="M4755 6379 c-211 -30 -403 -142 -455 -265 -26 -61 -27 -164 0 -221
44 -99 189 -191 344 -220 127 -24 379 -21 481 6 116 31 182 67 251 135 47 48
64 73 78 119 63 202 -131 395 -443 442 -105 16 -165 17 -256 4z"/>
<path d="M4301 5800 c0 -21 35 -85 46 -84 4 1 49 -37 98 -84 50 -47 83 -81 75
-77 -59 33 -90 57 -84 67 4 6 3 8 -3 5 -6 -4 -28 10 -48 31 -36 35 -37 35 -17
6 56 -82 129 -123 274 -154 77 -17 123 -19 268 -17 157 3 183 7 255 30 82 27
152 64 141 74 -8 8 11 41 66 111 28 34 53 60 58 57 7 -4 23 35 17 42 -2 1 -29
-22 -61 -52 -60 -55 -123 -90 -224 -124 -184 -62 -502 -47 -654 30 -79 40
-167 100 -187 127 -13 17 -20 21 -20 12z"/>
<path d="M4943 5325 c0 -27 2 -38 4 -22 2 15 2 37 0 50 -2 12 -4 0 -4 -28z"/>
<path d="M2730 5261 c0 -30 6 -44 22 -55 36 -26 48 -20 41 17 -7 36 -18 54
-45 68 -16 9 -18 5 -18 -30z"/>
<path d="M3150 5145 c0 -17 107 -88 121 -80 5 4 8 1 7 -5 -2 -6 17 -23 42 -37
25 -14 54 -33 65 -42 43 -38 116 -82 125 -76 6 4 9 1 8 -5 -2 -6 20 -25 48
-43 28 -18 91 -59 140 -93 49 -33 111 -73 138 -89 28 -15 68 -45 90 -65 89
-81 649 -451 749 -495 62 -26 87 -31 167 -34 165 -4 200 13 658 316 144 96
268 183 275 194 6 10 16 19 21 19 7 0 299 191 531 347 113 76 153 102 208 134
50 29 74 59 48 59 -6 0 -170 -107 -367 -237 -480 -320 -440 -297 -587 -336
-88 -24 -141 -43 -170 -64 -149 -108 -427 -275 -485 -293 -161 -50 -219 -28
-587 215 -166 110 -173 114 -289 144 -67 17 -138 43 -162 58 -24 16 -204 135
-400 267 -331 222 -394 260 -394 241z"/>
<path d="M4760 4477 c-53 -27 -95 -95 -85 -137 16 -62 87 -99 191 -100 120 0
215 66 199 139 -7 32 -55 81 -102 105 -48 24 -147 21 -203 -7z m192 -25 c54
-31 58 -82 10 -126 -48 -43 -164 -37 -202 11 -42 54 -19 103 62 128 47 15 89
11 130 -13z"/>
<path d="M4776 4404 c-21 -21 -20 -27 8 -53 48 -45 186 -24 186 29 0 29 -31
40 -109 40 -50 0 -74 -4 -85 -16z"/>
<path d="M4932 4918 c6 -17 120 -83 188 -109 30 -11 88 -27 128 -35 85 -16
278 -19 287 -4 3 6 17 10 30 10 13 0 26 4 29 8 2 4 -39 9 -92 10 -188 4 -340
37 -501 108 -61 27 -74 29 -69 12z"/>
<path d="M2387 4753 c-3 -5 6 -9 19 -9 13 -1 21 2 18 7 -6 11 -31 12 -37 2z"/>
<path d="M2355 3635 c22 -20 49 -41 60 -47 25 -13 13 -2 -50 46 l-50 38 40
-37z"/>
<path d="M7455 3649 c-10 -30 -2 -32 12 -3 6 13 7 24 3 24 -5 0 -12 -9 -15
-21z"/>
<path d="M7387 3613 c-3 -5 -1 -28 3 -53 l7 -45 2 53 c1 49 -2 62 -12 45z"/>
<path d="M4980 2008 c-25 -5 -91 -7 -147 -4 l-103 6 0 -58 c0 -67 4 -73 51
-90 38 -13 181 -17 193 -4 4 4 24 12 44 17 l37 11 3 67 c3 75 6 73 -78 55z"/>
<path d="M7307 2934 c-46 -46 -48 -119 -3 -143 32 -17 61 -7 92 34 66 87 -14
184 -89 109z"/>
<path d="M2326 2948 c-30 -42 -11 -117 40 -157 35 -27 61 -24 87 11 l20 27
-27 54 c-19 39 -36 59 -60 71 -43 20 -42 20 -60 -6z"/>
<path d="M2810 2895 c-7 -9 -8 -15 -2 -15 5 0 12 7 16 15 3 8 4 15 2 15 -2 0
-9 -7 -16 -15z"/>
<path d="M5095 1659 c-58 -44 -62 -49 -36 -49 12 0 35 13 51 29 16 16 32 26
35 23 3 -3 5 0 5 6 0 22 -16 20 -55 -9z"/>
<path d="M5140 1521 c0 -5 -9 -13 -20 -16 -11 -3 -20 -13 -20 -21 0 -8 -9 -14
-20 -14 -11 0 -20 -4 -20 -9 0 -12 56 3 77 20 8 7 19 21 24 31 7 14 6 18 -6
18 -8 0 -15 -4 -15 -9z"/>
<path d="M1571 2704 c0 -11 3 -14 6 -6 3 7 2 16 -1 19 -3 4 -6 -2 -5 -13z"/>
<path d="M1572 2630 c0 -14 2 -19 5 -12 2 6 2 18 0 25 -3 6 -5 1 -5 -13z"/>
<path d="M6535 1964 c-99 -69 -201 -139 -227 -157 -52 -35 -55 -42 -33 -71 15
-19 20 -17 138 63 228 155 336 236 337 252 0 15 -19 39 -29 39 -4 -1 -87 -57
-186 -126z"/>
<path d="M5886 1862 c-6 -9 93 -66 101 -58 10 9 -20 38 -54 53 -38 15 -40 16
-47 5z"/>
<path d="M7334 2235 c-28 -30 -34 -44 -34 -79 0 -69 35 -86 89 -41 40 35 57
85 39 122 -20 42 -53 42 -94 -2z"/>
<path d="M2324 2245 c-33 -51 20 -155 80 -155 64 0 59 118 -6 164 -32 23 -55
20 -74 -9z"/>
<path d="M5230 1209 c-53 -27 -68 -38 -51 -39 29 0 122 43 141 65 21 25 -7 17
-90 -26z"/>
<path d="M4450 1221 c0 -16 41 -40 58 -34 9 4 13 2 9 -4 -4 -6 0 -14 9 -17 10
-4 13 -2 8 6 -5 8 -2 9 11 4 10 -3 34 -9 54 -12 20 -3 39 -8 44 -11 4 -2 7 0
7 5 0 6 -15 13 -34 16 -18 4 -61 18 -95 31 -68 28 -71 29 -71 16z"/>
<path d="M5133 1154 c-3 -8 -12 -13 -19 -10 -8 3 -14 1 -14 -4 0 -22 43 -6 48
18 3 17 -7 15 -15 -4z"/>
</g>
</svg>
