<?xml version="1.0" standalone="no"?>
<!DOCTYPE svg PUBLIC "-//W3C//DTD SVG 20010904//EN"
 "http://www.w3.org/TR/2001/REC-SVG-20010904/DTD/svg10.dtd">
<svg version="1.0" xmlns="http://www.w3.org/2000/svg"
 width="1024.000000pt" height="1024.000000pt" viewBox="0 0 1024.000000 1024.000000"
 preserveAspectRatio="xMidYMid meet">
<metadata>
Created by potrace 1.16, written by Peter Selinger 2001-2019
</metadata>
<g transform="translate(0.000000,1024.000000) scale(0.100000,-0.100000)"
fill="#000000" stroke="none">
<path d="M6820 10235 c0 -5 5 -17 10 -25 5 -8 10 -10 10 -5 0 6 -5 17 -10 25
-5 8 -10 11 -10 5z"/>
<path d="M6841 10185 c0 -5 8 -26 19 -45 11 -19 19 -30 19 -25 0 6 -8 26 -19
45 -11 19 -19 31 -19 25z"/>
<path d="M6950 9970 c6 -11 13 -20 16 -20 2 0 0 9 -6 20 -6 11 -13 20 -16 20
-2 0 0 -9 6 -20z"/>
<path d="M7065 9755 c80 -157 177 -325 189 -325 13 0 1 25 -112 222 -132 233
-164 274 -77 103z"/>
<path d="M6210 9660 c0 -11 7 -23 16 -27 8 -3 13 -12 10 -20 -4 -10 0 -13 11
-11 24 5 27 25 5 32 -14 5 -18 13 -15 26 4 14 0 20 -11 20 -9 0 -16 -8 -16
-20z"/>
<path d="M6180 9660 c0 -8 9 -26 20 -40 l21 -25 -13 30 c-15 38 -28 54 -28 35z"/>
<path d="M7995 9651 c-48 -8 -161 -61 -193 -91 -12 -11 -27 -18 -32 -15 -6 3
-10 2 -10 -3 0 -5 -14 -7 -30 -4 -29 4 -30 3 -26 -23 6 -34 74 -123 139 -181
44 -39 54 -44 98 -44 34 0 49 4 49 13 0 17 91 50 114 41 13 -5 -4 -17 -64 -45
-46 -22 -93 -39 -105 -39 -31 0 -93 48 -156 121 -30 34 -68 78 -85 97 l-31 35
-23 -38 c-18 -29 -24 -56 -28 -130 -4 -87 -3 -97 21 -137 46 -78 203 -235 273
-274 36 -20 72 -43 80 -52 14 -13 21 -12 74 13 65 31 114 29 145 -5 18 -20 18
-20 -19 -5 -44 19 -65 14 -126 -29 -25 -18 -89 -57 -144 -86 l-98 -55 42 -37
c23 -20 47 -35 54 -32 7 3 29 -10 49 -28 70 -66 98 -88 107 -88 6 0 10 -3 10
-7 0 -5 20 -21 45 -36 47 -30 61 -46 23 -26 -36 19 -87 58 -160 121 -67 59
-97 76 -62 36 20 -23 -50 28 -99 72 -28 25 -29 25 -43 5 -23 -31 -34 -84 -34
-164 0 -81 17 -122 68 -162 15 -11 56 -47 92 -79 107 -95 210 -168 340 -243
83 -47 228 -75 245 -47 3 6 13 10 22 10 25 0 78 63 91 108 7 22 12 59 12 83 0
24 7 101 15 171 10 84 12 135 6 151 -6 14 -81 84 -169 156 -88 71 -181 150
-207 173 l-47 43 20 35 c24 42 27 61 47 268 13 139 13 167 1 196 -16 38 -186
240 -215 256 -11 5 -23 9 -28 8 -4 0 -26 -4 -48 -7z m112 -47 c61 -63 83 -102
83 -147 l0 -38 -97 -46 c-129 -60 -192 -67 -244 -26 -41 31 -79 82 -79 104 0
12 2 12 9 0 5 -8 15 -11 23 -8 8 3 22 -6 33 -22 46 -70 121 -88 198 -50 62 31
97 68 97 101 0 36 -65 161 -88 170 -15 6 -15 7 2 7 11 1 39 -20 63 -45z m497
-1053 c11 -18 -5 -38 -48 -58 -33 -17 -43 -18 -43 -7 0 8 4 14 9 14 16 0 67
43 62 52 -3 4 -1 8 5 8 5 0 12 -4 15 -9z m-104 -85 c0 -2 -7 -7 -16 -10 -8 -3
-12 -2 -9 4 6 10 25 14 25 6z m-290 -20 c0 -11 -19 -15 -25 -6 -3 5 1 10 9 10
9 0 16 -2 16 -4z m235 -10 c-84 -57 -153 -77 -200 -56 -13 6 -5 7 24 3 29 -4
42 -2 38 4 -4 6 4 9 21 6 23 -3 24 -2 7 6 -14 7 -16 10 -5 11 46 5 58 8 85 22
38 20 56 22 30 4z m-225 -43 c0 -7 -39 17 -46 28 -3 6 5 3 20 -6 14 -10 26
-19 26 -22z m35 20 c18 -14 18 -15 2 -9 -10 3 -23 6 -28 6 -5 0 -9 5 -9 10 0
14 12 12 35 -7z"/>
<path d="M8110 9561 c0 -6 4 -13 10 -16 6 -3 7 1 4 9 -7 18 -14 21 -14 7z"/>
<path d="M8140 9510 c6 -11 13 -20 16 -20 2 0 0 9 -6 20 -6 11 -13 20 -16 20
-2 0 0 -9 6 -20z"/>
<path d="M5448 9603 c-10 -2 -18 -8 -18 -13 0 -5 8 -14 18 -19 16 -10 16 -10
0 -11 -11 0 -15 -5 -12 -15 5 -13 9 -13 21 -3 12 10 18 9 29 -7 8 -10 14 -24
14 -29 0 -14 20 15 20 29 0 6 -14 19 -32 30 -18 10 -27 20 -20 23 7 2 12 8 12
13 0 9 -4 10 -32 2z"/>
<path d="M6080 9581 c0 -5 5 -13 10 -16 6 -3 10 -2 10 4 0 5 -4 13 -10 16 -5
3 -10 2 -10 -4z"/>
<path d="M5976 9545 c4 -8 10 -15 15 -15 4 0 6 7 3 15 -4 8 -10 15 -15 15 -4
0 -6 -7 -3 -15z"/>
<path d="M5860 9521 c0 -5 5 -13 10 -16 6 -3 10 -2 10 4 0 5 -4 13 -10 16 -5
3 -10 2 -10 -4z"/>
<path d="M5750 9491 c0 -5 5 -13 10 -16 6 -3 10 -2 10 4 0 5 -4 13 -10 16 -5
3 -10 2 -10 -4z"/>
<path d="M5350 9370 c-311 -96 -559 -171 -860 -260 -213 -63 -1208 -363 -1520
-458 -660 -201 -1532 -466 -1935 -588 -563 -169 -556 -167 -542 -180 7 -7 43
4 462 131 121 37 324 98 450 135 127 38 410 123 630 190 220 67 501 153 625
190 124 37 277 84 340 103 63 20 288 88 500 152 212 63 511 154 665 200 154
47 489 148 745 224 657 197 760 231 760 246 0 11 -51 -2 -320 -85z"/>
<path d="M8825 9403 c-52 -6 -73 -13 -87 -26 -7 -7 -33 -23 -58 -35 -62 -30
-76 -43 -82 -75 -3 -15 -3 -26 -1 -23 3 3 20 -15 39 -40 58 -76 94 -103 137
-104 44 0 98 21 145 56 31 24 33 31 32 73 -4 75 -2 84 17 77 15 -6 15 -4 -2
14 -22 25 -26 25 -19 3 4 -12 -1 -9 -15 7 -11 14 -19 31 -16 37 4 13 -32 44
-50 42 -5 -1 -23 -4 -40 -6z"/>
<path d="M7306 9368 l19 -22 -27 17 c-42 26 -75 20 -173 -31 -119 -62 -121
-73 -28 -170 79 -83 95 -87 183 -46 99 46 114 72 86 152 -8 23 -11 44 -7 47 5
3 25 -13 45 -35 28 -31 36 -48 36 -78 0 -20 -4 -42 -8 -48 -11 -16 -51 -36
-61 -29 -5 3 -31 -6 -58 -19 -26 -14 -60 -28 -75 -31 -16 -4 -28 -11 -28 -17
0 -5 -8 -7 -17 -5 -50 14 -95 18 -88 7 3 -5 11 -7 17 -4 7 5 8 2 3 -6 -6 -10
-4 -12 8 -7 11 4 14 2 10 -9 -5 -13 1 -15 28 -13 19 2 41 10 49 19 15 15 121
70 136 70 4 0 -1 -9 -11 -20 -17 -18 -17 -20 -2 -14 9 3 17 3 17 0 0 -15 -169
-88 -189 -81 -11 3 -48 37 -83 74 -55 61 -71 88 -103 176 -5 13 -9 15 -12 7
-3 -7 0 -27 6 -44 l11 -32 -25 24 c-14 13 -25 31 -25 39 0 11 -9 6 -29 -15
-26 -29 -29 -40 -36 -137 -5 -84 -4 -110 8 -133 25 -47 221 -248 263 -269 22
-11 47 -26 57 -34 9 -8 17 -10 17 -5 0 5 4 5 8 -1 14 -20 70 -44 106 -47 32
-2 43 -9 66 -43 46 -68 138 -224 355 -605 114 -201 258 -453 320 -560 252
-436 542 -943 710 -1240 97 -173 218 -387 268 -475 49 -88 128 -227 175 -310
46 -82 131 -231 187 -330 56 -99 173 -306 260 -460 87 -154 224 -397 305 -540
226 -401 255 -448 258 -427 2 11 -10 41 -26 68 -16 27 -92 159 -167 294 -76
135 -175 310 -220 390 -45 80 -124 219 -175 310 -51 91 -166 293 -255 450
-220 388 -284 501 -460 815 -175 312 -197 350 -376 660 -73 127 -201 349 -284
495 -84 146 -285 497 -447 780 -163 283 -326 567 -362 630 -45 77 -62 116 -54
119 38 12 91 56 103 85 18 42 22 85 30 268 8 168 8 165 -74 253 -31 33 -77 84
-103 113 -26 28 -55 52 -64 52 -15 0 -15 -2 2 -22z"/>
<path d="M8999 9263 c6 -12 11 -39 11 -61 0 -33 -5 -42 -37 -65 -21 -15 -39
-23 -41 -18 -2 5 -29 -2 -60 -16 -79 -35 -158 -37 -204 -3 l-33 24 16 -24 c9
-14 35 -40 58 -57 47 -37 45 -45 -4 -12 -48 33 -145 179 -145 219 0 10 -3 11
-11 3 -8 -8 -5 -23 11 -54 l21 -44 -35 40 c-22 25 -33 47 -30 57 7 24 -16 14
-38 -16 -20 -27 -38 -126 -38 -206 0 -68 11 -86 127 -203 136 -138 236 -195
356 -201 37 -2 67 1 67 6 0 5 5 6 11 3 14 -10 47 22 72 70 15 28 23 69 28 140
4 55 11 141 14 190 9 108 2 125 -75 200 -29 28 -47 40 -41 28z m-139 -218 c0
-6 -48 -30 -77 -39 -14 -4 -23 -3 -23 3 0 5 16 13 35 17 19 3 38 10 41 15 5 9
24 13 24 4z"/>
<path d="M5626 9159 c-9 -13 -16 -29 -16 -36 0 -22 43 -40 106 -46 81 -8 206
-54 278 -102 96 -64 104 -76 473 -745 118 -214 363 -661 438 -800 68 -125 197
-358 239 -430 14 -25 26 -50 26 -57 0 -7 -17 -15 -37 -19 -21 -4 -46 -11 -56
-16 -13 -7 -19 -4 -24 9 -4 10 -39 74 -78 143 -39 69 -93 166 -120 215 -179
333 -584 1070 -677 1235 -36 63 -86 156 -112 206 -82 160 -202 251 -401 305
-64 18 -109 22 -220 22 l-140 1 -170 -53 c-93 -29 -289 -88 -435 -133 -146
-44 -348 -106 -450 -138 -102 -33 -237 -74 -300 -94 -63 -19 -196 -60 -295
-91 -223 -69 -423 -132 -580 -180 -66 -21 -139 -47 -163 -58 -75 -35 -95 -111
-43 -169 48 -53 104 -47 396 45 1062 334 2053 640 2155 664 122 28 284 -3 345
-67 50 -52 33 -127 -38 -170 -39 -24 -95 -25 -174 -5 -74 19 -203 19 -278 0
-33 -9 -136 -40 -230 -69 -93 -30 -244 -77 -335 -106 -166 -52 -221 -77 -281
-127 -43 -37 -105 -134 -113 -178 l-7 -35 -97 0 -97 0 -34 66 c-34 65 -34 66
-69 59 -56 -10 -149 -62 -193 -106 -55 -55 -89 -130 -89 -197 0 -46 4 -58 30
-84 24 -23 30 -38 30 -72 0 -103 76 -215 184 -269 31 -16 56 -30 56 -33 0 -7
-70 -33 -127 -48 -50 -13 -61 -13 -113 3 -85 27 -146 72 -154 115 -13 67 -86
195 -143 252 -115 113 -320 174 -486 145 -63 -11 -231 -61 -567 -169 -85 -27
-238 -76 -340 -107 -102 -32 -213 -70 -247 -86 -71 -31 -148 -99 -193 -169
-36 -56 -66 -70 -154 -70 -65 0 -111 20 -147 63 -61 74 -10 191 109 251 26 13
261 89 522 170 261 81 495 154 520 163 88 31 126 92 96 152 -29 56 -97 76
-186 55 -32 -7 -107 -29 -167 -48 -59 -19 -241 -75 -403 -126 -362 -112 -450
-143 -519 -183 -70 -42 -162 -141 -197 -214 -25 -50 -29 -69 -29 -143 1 -93 1
-92 143 -425 32 -77 101 -241 152 -365 51 -124 171 -414 268 -645 251 -602
261 -628 834 -2060 286 -715 542 -1356 570 -1425 28 -69 81 -201 118 -295 161
-407 188 -460 258 -508 113 -79 211 -90 352 -43 47 16 261 92 475 168 215 77
496 177 625 223 129 46 363 129 520 185 157 56 293 104 302 107 12 4 24 -10
47 -55 17 -34 27 -63 23 -65 -6 -4 -343 -126 -867 -312 -66 -24 -266 -96 -445
-160 -740 -266 -755 -270 -895 -242 -157 32 -289 124 -353 245 -16 31 -177
428 -357 882 -180 454 -375 947 -435 1095 -60 149 -124 311 -143 360 -78 202
-427 1070 -605 1500 -339 820 -483 1167 -549 1325 -36 85 -90 220 -120 300
-51 132 -55 149 -50 206 6 77 53 170 111 219 85 72 88 74 80 98 -11 36 -25 47
-60 47 -52 0 -163 -110 -210 -207 -41 -84 -55 -190 -36 -266 11 -40 103 -267
370 -912 484 -1167 522 -1260 857 -2100 334 -839 358 -898 600 -1515 103 -261
224 -569 270 -685 46 -115 95 -241 110 -280 101 -271 312 -427 600 -442 117
-7 164 4 414 93 86 31 210 76 276 99 293 105 494 177 545 196 30 12 129 47
220 79 91 32 246 88 345 123 99 36 306 110 460 165 154 55 339 121 410 147 72
26 238 85 370 131 132 47 295 105 362 130 66 26 126 43 132 40 6 -4 31 7 55
24 64 46 118 44 223 -9 86 -43 126 -81 215 -202 56 -75 114 -179 101 -179 -4
0 -2 -5 5 -12 7 -7 12 -19 12 -27 0 -9 7 -29 15 -45 8 -15 12 -32 9 -37 -3 -5
-1 -9 4 -9 10 0 9 -55 -1 -85 -5 -15 0 -25 24 -40 17 -11 97 -94 177 -184 145
-162 262 -265 341 -298 19 -8 60 -15 90 -16 48 -2 64 3 108 31 28 18 59 34 69
36 11 2 32 7 48 12 20 4 27 3 22 -4 -3 -6 0 -12 6 -14 17 -6 -38 -79 -64 -86
-10 -2 -18 -8 -18 -13 0 -5 -1 -12 -2 -16 -2 -4 11 -10 27 -13 17 -4 29 -10
28 -16 -1 -5 12 -10 28 -11 17 -1 27 2 24 7 -4 6 -2 10 4 10 5 0 12 -6 14 -12
4 -9 6 -9 6 -1 1 6 10 9 23 5 14 -3 19 -1 14 6 -5 8 -1 10 11 5 15 -6 13 -9
-12 -20 -18 -8 -21 -12 -9 -10 12 3 29 0 39 -5 14 -8 15 -12 4 -19 -10 -6 -4
-9 19 -9 17 0 32 -4 32 -10 0 -5 8 -10 18 -10 15 -1 15 -2 -3 -16 -19 -15 -18
-16 14 -9 51 11 111 -31 69 -48 -8 -4 -6 -6 5 -7 9 -2 22 -4 27 -5 6 -1 13 -3
16 -4 4 0 0 -9 -7 -18 -12 -14 -12 -16 2 -11 12 5 15 1 11 -18 -3 -16 0 -24 9
-24 11 0 11 -2 -1 -10 -13 -9 -13 -10 0 -10 9 0 16 -10 18 -25 1 -21 -3 -25
-26 -26 -17 -1 -20 -3 -9 -6 9 -2 17 -9 17 -14 0 -5 7 -9 15 -9 8 0 15 -4 15
-10 0 -5 -6 -10 -14 -10 -19 0 -29 -29 -16 -45 9 -11 7 -12 -9 -8 -12 3 -21 1
-21 -6 0 -6 5 -11 10 -11 6 0 10 -4 10 -10 0 -5 -8 -6 -17 -3 -16 6 -17 5 -3
-12 8 -10 10 -16 3 -12 -6 4 -15 3 -18 -3 -4 -6 -16 -8 -28 -5 -12 2 -16 2 -9
-1 20 -9 14 -27 -8 -21 -11 3 -18 1 -14 -4 3 -5 12 -9 20 -9 8 0 14 -8 14 -17
0 -15 -2 -15 -9 -4 -8 12 -12 12 -26 -2 -9 -10 -26 -17 -38 -16 -21 0 -21 1
-2 9 18 8 17 9 -8 9 -16 1 -26 -3 -23 -8 10 -16 -46 -19 -85 -6 -29 10 -39 11
-43 2 -3 -9 -7 -9 -13 0 -5 7 -19 11 -31 8 -12 -2 -24 0 -27 6 -4 5 -1 9 5 9
6 0 8 5 5 11 -5 6 -12 4 -20 -8 -7 -10 -17 -14 -21 -10 -5 4 -2 12 5 16 11 7
9 10 -6 15 -11 4 -28 4 -37 0 -9 -3 -16 -1 -16 6 0 6 5 8 11 4 7 -4 10 -1 7 7
-3 8 -12 13 -20 11 -9 -1 -19 5 -22 14 -4 10 -12 14 -23 10 -14 -6 -14 -3 3
15 17 20 17 22 2 16 -12 -4 -18 -1 -18 9 0 21 -62 75 -79 69 -9 -3 -11 0 -7
10 6 17 -9 21 -19 5 -5 -8 -11 -8 -20 0 -10 8 -18 7 -34 -6 -11 -10 -30 -19
-43 -20 -13 -2 -35 -5 -51 -8 -15 -2 -25 -1 -23 2 2 4 -18 7 -45 7 -27 0 -49
-3 -49 -7 0 -5 7 -8 17 -8 9 0 13 -3 10 -6 -8 -9 -126 16 -133 28 -3 4 -11 5
-17 1 -8 -4 -8 -2 1 9 11 13 9 17 -13 22 -14 4 -23 11 -20 16 4 6 11 8 16 5 5
-4 9 -1 9 5 0 6 -9 14 -19 18 -19 7 -21 10 -21 32 0 6 -8 10 -17 11 -15 0 -15
2 2 9 19 9 19 9 -3 16 -18 5 -20 9 -10 15 9 6 6 9 -11 9 -20 0 -21 2 -11 15
10 12 10 15 0 15 -7 0 -10 7 -7 15 4 8 1 17 -5 21 -7 4 -8 3 -4 -4 4 -7 1 -12
-9 -12 -9 0 -13 5 -10 10 3 6 2 10 -4 10 -6 0 -8 7 -5 15 4 9 0 15 -10 15 -9
0 -16 7 -16 16 0 9 5 12 12 8 6 -4 8 -3 5 4 -4 5 -17 8 -30 5 -18 -4 -19 -3
-7 6 13 9 12 12 -7 17 -12 3 -19 12 -17 19 3 7 -2 15 -11 19 -9 3 -13 10 -10
16 6 9 -7 14 -27 11 -4 0 -5 6 -2 14 4 10 0 15 -11 15 -14 0 -15 3 -5 15 11
13 8 15 -14 15 -14 0 -26 5 -26 11 0 5 5 7 12 3 7 -4 8 -3 4 4 -4 7 -19 12
-34 13 l-27 1 25 7 25 7 -25 9 c-27 10 -35 12 -50 14 -5 0 -10 6 -10 12 0 5 6
7 13 4 6 -4 3 1 -8 9 -11 9 -26 14 -33 11 -11 -4 -13 1 -10 20 4 19 2 23 -7
15 -9 -8 -14 -6 -19 5 -3 9 -2 13 4 10 5 -3 7 1 4 9 -3 9 -11 14 -17 13 -7 -1
-12 7 -12 18 0 16 -7 20 -33 19 -21 -1 -30 2 -25 10 4 6 18 29 31 51 15 23 18
34 9 27 -13 -11 -20 -11 -41 3 -20 13 -29 14 -47 5 -19 -11 -21 -10 -15 5 4
12 2 16 -8 12 -8 -3 -17 1 -20 10 -5 12 -9 13 -21 3 -18 -15 -20 1 -3 18 17
17 3 15 -33 -4 -17 -8 -36 -13 -42 -11 -7 2 -17 -6 -22 -17 -8 -15 -19 -20
-38 -18 -15 1 -27 -2 -27 -8 0 -5 -3 -9 -7 -9 -52 8 -40 -65 28 -172 30 -47
30 -47 12 -83 -9 -20 -21 -36 -26 -36 -5 0 -7 -9 -4 -21 5 -17 3 -18 -10 -7
-26 21 10 -42 39 -69 36 -33 120 -57 178 -50 l49 6 89 -102 c48 -56 111 -131
138 -167 64 -83 176 -250 168 -250 -3 0 4 -8 17 -19 22 -17 22 -19 6 -35 -21
-22 -22 -30 -1 -22 13 5 15 2 11 -15 -4 -15 -2 -19 9 -15 8 3 14 1 14 -4 0 -5
7 -7 15 -4 16 7 21 -11 5 -21 -5 -3 -7 -12 -3 -20 3 -8 1 -15 -5 -15 -6 0 -13
6 -15 13 -3 7 -6 4 -6 -7 -1 -14 4 -17 24 -12 23 6 24 4 19 -31 -2 -20 -3 -35
-1 -32 1 2 9 13 17 23 10 13 10 17 3 12 -7 -4 -13 -3 -13 2 0 12 26 23 34 15
3 -3 1 -14 -5 -25 -8 -15 -5 -26 15 -52 15 -20 23 -43 22 -59 -2 -15 0 -24 5
-22 4 3 10 1 14 -5 4 -6 12 -7 18 -4 7 4 9 4 5 -1 -4 -4 0 -14 10 -21 15 -12
14 -12 -8 -7 -22 6 -23 5 -12 -10 8 -9 10 -22 6 -29 -5 -10 -4 -11 7 0 25 23
36 6 16 -25 -5 -8 -3 -13 7 -13 9 0 16 5 16 11 0 5 5 7 11 3 8 -4 7 -9 -2 -14
-10 -7 -10 -12 -1 -22 9 -11 9 -17 0 -26 -9 -9 -9 -12 1 -12 8 0 11 -6 7 -16
-3 -9 -2 -12 5 -9 5 4 7 15 4 26 -8 23 1 24 22 3 13 -12 14 -17 3 -24 -9 -5
-4 -14 19 -31 30 -22 30 -24 15 -47 -9 -13 -13 -26 -10 -30 3 -3 6 0 6 7 0 7
5 9 10 6 6 -3 10 1 10 10 0 9 4 14 9 11 5 -3 7 -15 4 -26 -4 -14 0 -20 10 -20
9 0 19 -5 23 -12 4 -7 3 -8 -5 -4 -6 4 -19 0 -28 -9 -15 -16 -15 -17 3 -14 10
2 21 -1 23 -6 9 -20 26 -33 36 -27 6 3 7 2 3 -3 -4 -4 -2 -15 5 -23 8 -10 8
-13 1 -9 -12 7 -29 -21 -19 -31 3 -3 5 0 5 6 0 7 5 12 10 12 6 0 10 -6 9 -13
-3 -27 2 -37 20 -37 10 0 21 -7 25 -15 5 -13 119 -15 946 -15 l940 0 0 743 c0
555 -4 796 -15 957 -8 118 -15 307 -15 420 -1 284 -20 383 -69 353 -12 -7 -26
-13 -32 -13 -7 0 -17 -7 -23 -15 -6 -9 -21 -17 -33 -18 -12 0 -21 -6 -20 -12
1 -5 -5 -9 -14 -9 -9 1 -16 -5 -16 -12 0 -7 5 -10 10 -7 6 4 7 1 3 -6 -5 -7
-14 -10 -21 -7 -7 2 -18 -6 -24 -18 -12 -22 -51 -31 -51 -11 0 5 -4 5 -8 -2
-5 -9 -26 5 -66 45 -34 33 -61 52 -63 45 -3 -7 -20 -15 -39 -19 -28 -5 -32 -9
-23 -20 9 -11 8 -14 -5 -14 -9 0 -16 -4 -16 -10 0 -5 -6 -10 -13 -10 -8 0 -22
-9 -32 -20 -10 -11 -26 -20 -36 -20 -13 0 -16 -5 -12 -17 5 -12 2 -15 -10 -10
-8 3 -21 -1 -27 -9 -7 -8 -23 -14 -35 -14 -13 0 -26 -7 -29 -15 -3 -9 -11 -15
-18 -14 -29 3 -49 -2 -43 -11 3 -5 0 -7 -8 -4 -8 3 -20 -2 -27 -11 -7 -8 -24
-15 -39 -15 -20 0 -23 -2 -11 -10 12 -8 12 -10 -3 -16 -9 -3 -14 -10 -11 -16
3 -5 -1 -8 -9 -6 -8 2 -37 -23 -65 -54 -30 -34 -53 -52 -55 -45 -3 7 -6 6 -6
-4 -1 -9 -8 -20 -17 -23 -8 -3 -12 -11 -9 -17 4 -6 -3 -20 -15 -31 -30 -28
-93 -20 -157 19 -40 25 -49 35 -51 63 -2 19 -11 46 -21 60 -10 14 -21 33 -24
43 -9 23 14 118 26 110 5 -3 7 3 5 13 -3 11 2 31 9 46 12 25 12 27 -4 21 -16
-6 -16 -5 -5 10 12 14 12 21 1 47 -8 16 -17 30 -21 30 -5 0 -8 9 -8 20 0 11
-5 20 -11 20 -5 0 -7 5 -4 10 3 6 0 10 -7 10 -7 0 -14 12 -15 26 0 15 -6 30
-13 34 -6 4 -11 10 -11 14 3 20 -1 26 -14 26 -8 0 -17 11 -21 25 -3 14 -11 25
-18 25 -16 0 -48 39 -41 51 4 5 1 8 -7 7 -7 -2 -12 3 -10 11 2 9 -3 11 -13 7
-11 -4 -17 3 -22 25 -3 17 -13 33 -22 37 -24 9 -38 26 -34 39 2 6 -5 14 -17
18 -17 5 -19 10 -9 21 9 11 8 14 -5 14 -9 0 -16 6 -16 13 0 19 -35 49 -45 40
-4 -5 -5 -2 -1 5 9 15 -12 45 -25 36 -5 -3 -9 0 -9 6 0 18 -29 42 -41 34 -7
-4 -9 -3 -6 3 8 13 -41 39 -79 42 -8 0 -12 6 -9 11 3 6 2 10 -4 10 -6 0 -13
10 -16 23 -5 18 -13 23 -36 23 -16 0 -29 -3 -29 -8 0 -4 -7 -5 -15 -2 -8 4
-15 2 -15 -4 0 -5 -6 -9 -12 -9 -25 2 -98 -35 -91 -47 3 -6 3 -8 -2 -4 -4 4
-24 -1 -44 -11 -20 -11 -44 -22 -54 -25 -10 -3 -15 -10 -12 -16 4 -6 -1 -7
-10 -3 -10 3 -20 0 -25 -6 -4 -7 -13 -13 -21 -14 -8 -2 -18 -5 -24 -8 -9 -6
-65 -18 -110 -24 -64 -9 -147 -36 -206 -66 -20 -10 -48 -21 -63 -24 -14 -3
-38 -7 -53 -11 -41 -8 -137 -36 -148 -43 -12 -7 -18 -8 -44 -10 -17 -1 -18 -5
-10 -33 5 -18 9 -34 9 -35 0 -7 -44 -2 -85 9 -26 7 -45 18 -45 26 0 20 65 82
85 82 13 0 16 6 12 22 -9 31 18 73 55 88 68 26 425 205 478 239 61 39 253 132
387 187 49 20 131 59 183 86 146 76 209 77 286 6 24 -22 47 -38 50 -35 16 16
15 100 0 149 -10 29 -75 159 -145 288 -118 216 -291 536 -487 900 -317 590
-308 575 -385 613 -80 40 -196 31 -233 -18 -10 -13 -18 -13 -71 2 -88 25 -301
25 -375 -1 -187 -64 -287 -174 -311 -340 -18 -128 34 -266 140 -371 100 -99
206 -147 354 -161 106 -9 180 6 436 92 123 41 226 72 229 70 18 -19 79 -132
74 -138 -7 -7 -208 -72 -392 -128 -138 -42 -213 -81 -271 -141 -61 -63 -97
-137 -108 -225 -17 -139 25 -257 137 -376 75 -79 134 -119 219 -147 269 -90
551 -6 655 196 89 173 53 351 -100 501 -41 40 -73 74 -71 75 2 2 38 13 79 26
41 13 80 26 87 28 7 3 31 -33 59 -89 26 -51 78 -150 115 -220 l69 -128 0 -83
c0 -143 -44 -258 -135 -352 -37 -38 -61 -49 -335 -147 -162 -59 -385 -138
-495 -176 -413 -144 -435 -154 -446 -208 -8 -42 -17 -54 -40 -54 -10 0 -19 -4
-19 -8 0 -4 28 -36 62 -70 37 -38 58 -66 52 -72 -5 -5 -90 -37 -189 -70 -156
-54 -525 -185 -893 -319 l-112 -40 -29 58 -30 58 21 20 c12 12 22 39 25 65 10
83 -65 136 -176 125 -35 -3 -182 -50 -391 -125 -184 -66 -497 -177 -695 -247
-198 -70 -416 -148 -485 -172 -344 -123 -470 -163 -513 -163 -69 0 -144 29
-193 74 -53 48 10 -103 -779 1866 -299 745 -573 1425 -608 1510 -339 818 -777
1880 -777 1886 0 2 18 -5 41 -16 46 -24 179 -60 219 -60 26 0 27 -2 33 -74 8
-91 35 -161 93 -242 56 -80 112 -127 199 -170 147 -72 295 -80 480 -26 55 16
106 31 114 33 10 3 21 -13 33 -46 11 -27 26 -56 35 -62 25 -19 68 -15 89 8 18
20 18 22 -3 80 -16 43 -19 61 -10 64 7 2 56 18 110 35 54 18 99 30 100 29 1
-2 12 -25 25 -52 27 -59 61 -78 100 -56 35 19 39 50 12 101 -12 22 -18 44 -13
49 4 4 69 26 143 49 74 23 145 45 157 50 19 8 24 2 50 -48 33 -68 63 -78 108
-39 l28 24 -26 56 -26 57 32 16 c54 28 113 82 153 139 20 30 40 55 43 55 3 0
35 -9 70 -20 88 -28 195 -36 262 -20 30 7 117 32 193 56 77 24 140 43 142 41
21 -24 114 -211 108 -216 -5 -4 -146 -52 -314 -106 -266 -85 -589 -191 -1385
-452 -275 -90 -336 -122 -396 -209 -37 -54 -62 -146 -53 -199 5 -32 76 -200
214 -510 67 -151 219 -221 402 -186 35 7 379 118 765 247 386 129 708 234 716
234 14 0 116 -204 307 -613 124 -265 164 -308 308 -338 50 -10 77 -11 133 -1
76 13 540 162 602 194 130 66 201 210 162 330 -26 76 -241 512 -272 548 -49
59 -112 75 -176 44 -38 -18 -51 -36 -61 -80 -6 -26 12 -69 119 -283 69 -138
125 -262 125 -276 0 -37 -21 -75 -49 -90 -15 -7 -127 -45 -251 -85 -302 -97
-294 -100 -404 130 -225 472 -286 604 -279 611 4 4 322 111 705 237 383 127
719 242 748 257 97 49 165 129 190 223 17 64 -4 123 -138 385 -156 307 -197
350 -365 377 -89 14 -129 5 -517 -118 -398 -126 -572 -182 -585 -188 -5 -2
-15 6 -21 19 -46 94 -197 393 -200 396 -1 2 -18 -2 -36 -9 -61 -22 -132 -28
-198 -18 -161 25 -270 128 -270 256 0 68 18 109 67 153 56 51 101 64 218 64
151 0 209 -30 257 -132 49 -101 129 -170 240 -206 10 -4 33 -37 52 -74 57
-114 84 -124 207 -83 34 12 62 20 64 18 1 -2 10 -19 20 -38 10 -19 24 -43 33
-52 20 -24 74 -23 96 1 19 21 17 40 -15 102 l-18 37 36 7 c21 4 50 13 65 21
27 14 28 14 49 -28 30 -60 48 -78 79 -78 30 0 60 27 60 54 0 9 -9 34 -20 55
l-19 39 47 15 c368 114 568 184 593 208 53 50 32 142 -41 179 -47 24 -89 25
-156 5 -27 -8 -57 -15 -67 -15 -11 0 -39 -17 -63 -39 -114 -101 -330 -93 -455
17 -69 60 -105 178 -79 256 35 108 221 167 371 119 73 -24 150 -99 175 -170
21 -61 1 -60 198 -2 71 22 134 39 140 39 14 0 20 -11 386 -675 163 -297 312
-564 329 -594 18 -29 30 -56 27 -58 -8 -8 -85 25 -131 57 -76 52 -118 113
-239 346 -146 280 -158 300 -199 324 -58 36 -161 19 -187 -29 -21 -41 -10 -84
54 -205 35 -67 96 -184 136 -261 114 -218 180 -301 302 -378 107 -67 245 -107
370 -107 l63 0 26 -48 c139 -256 310 -574 374 -695 85 -161 120 -201 184 -212
46 -8 124 14 164 45 l23 18 64 -116 c35 -64 100 -182 145 -262 45 -80 162
-293 260 -475 98 -181 244 -451 325 -600 411 -753 410 -751 393 -872 l-10 -64
51 -40 c56 -45 56 -45 76 40 17 74 7 170 -28 267 -16 44 -98 206 -182 360
-153 279 -228 416 -440 809 -62 116 -199 370 -305 565 -106 195 -204 378 -219
407 -14 28 -39 61 -57 73 -26 19 -39 22 -88 17 l-58 -6 -60 112 c-34 62 -120
225 -193 362 -73 138 -159 298 -191 357 -33 58 -59 109 -59 112 0 3 6 6 13 6
59 0 147 55 147 92 0 19 -63 140 -213 408 -98 174 -410 744 -655 1195 -200
366 -210 382 -287 461 -64 65 -97 89 -165 122 -99 49 -177 71 -276 79 -66 5
-72 4 -88 -18z m330 -734 c20 -30 34 -60 31 -68 -5 -12 -184 -74 -191 -66 -2
2 -9 15 -16 28 -12 23 -10 26 11 40 13 8 47 38 74 67 28 29 51 53 52 53 2 1
19 -24 39 -54z m-973 -255 c27 -13 50 -28 53 -34 36 -106 51 -135 99 -182 28
-29 71 -62 96 -74 l44 -23 -85 -25 c-47 -13 -100 -35 -118 -49 -65 -48 -121
-67 -207 -66 -141 0 -246 58 -299 166 -48 95 -31 186 47 253 59 50 113 64 227
61 75 -3 105 -8 143 -27z m-1766 -503 c94 -50 166 -160 167 -257 1 -71 -34
-143 -91 -186 -41 -31 -203 -88 -783 -276 -252 -81 -256 -82 -360 -83 -89 0
-111 3 -145 22 -131 70 -197 250 -135 363 37 66 92 102 221 144 317 103 812
260 874 277 85 23 203 21 252 -4z m2524 -484 c31 -34 229 -424 229 -453 0 -34
-39 -83 -77 -98 -16 -6 -127 -43 -249 -83 -155 -51 -228 -70 -247 -65 -32 8
-53 44 -182 314 -53 111 -94 209 -91 217 12 32 27 38 456 171 82 26 134 25
161 -3z m-743 -530 c126 -252 127 -253 107 -272 -11 -11 -141 -59 -296 -110
-221 -73 -281 -90 -301 -82 -15 5 -36 32 -55 68 -59 111 -213 449 -213 466 0
29 45 48 323 138 l272 88 18 -21 c10 -12 75 -135 145 -275z m-916 -223 c148
-298 165 -339 147 -351 -28 -18 -559 -189 -587 -189 -16 0 -36 8 -45 18 -15
17 -237 504 -237 521 0 25 67 60 166 90 60 17 177 54 259 81 83 27 159 49 170
47 15 -1 45 -53 127 -217z m-984 -83 c26 -31 242 -501 242 -526 0 -41 -23 -55
-150 -96 -63 -20 -169 -54 -235 -75 -66 -21 -129 -39 -140 -40 -40 -4 -72 0
-88 13 -19 14 -227 462 -227 490 0 29 30 67 69 86 20 10 110 42 201 70 91 29
190 61 220 72 66 22 94 24 108 6z m4272 -1214 c144 -50 209 -233 117 -331
-109 -117 -345 -83 -427 62 -77 134 -2 260 170 289 35 6 87 -2 140 -20z m475
-1007 c53 -24 112 -83 141 -138 37 -72 11 -187 -55 -235 -61 -45 -177 -57
-263 -27 -82 27 -161 112 -178 191 -11 46 10 126 41 160 67 73 215 96 314 49z
m-578 -1252 c20 -6 17 -10 -32 -51 -61 -49 -90 -51 -101 -7 -13 51 53 79 133
58z m-169 -31 c5 -18 -23 -16 -39 3 -11 14 -10 15 11 12 13 -1 25 -9 28 -15z
m961 -423 c29 -11 75 -32 102 -45 55 -28 72 -32 43 -10 -18 15 98 -38 302
-136 55 -27 106 -49 113 -49 14 0 91 -38 91 -45 0 -3 -16 2 -36 10 -67 28 -50
14 31 -25 48 -23 84 -35 89 -30 6 6 15 2 23 -8 8 -9 12 -11 8 -4 -3 6 -3 12 0
12 10 0 87 -44 155 -89 36 -23 137 -79 225 -123 219 -110 368 -188 510 -266
66 -36 148 -80 183 -99 l63 -34 -39 -29 c-21 -15 -48 -40 -59 -54 -25 -31 -37
-34 -30 -6 6 25 -8 27 -18 3 -6 -17 -8 -16 -23 3 -15 18 -99 77 -112 79 -18 3
-80 30 -80 35 0 4 -6 7 -12 8 -47 6 -60 10 -70 20 -7 7 -18 12 -25 12 -16 0
-16 10 -3 44 11 31 -4 36 -20 6 -13 -25 -28 -25 -60 0 -22 17 -23 22 -12 40 7
11 9 20 4 20 -4 0 -13 -9 -20 -20 -7 -11 -17 -20 -22 -20 -5 0 -47 21 -92 46
-46 26 -110 61 -143 80 -33 18 -71 44 -85 57 -14 14 -43 28 -66 32 -39 6 -114
46 -174 93 -14 10 -43 29 -65 41 -22 12 -47 25 -55 30 -8 6 -30 16 -47 23 -26
10 -32 17 -27 33 4 15 3 16 -4 6 -10 -14 -18 -12 -87 26 -11 6 -36 18 -55 27
-19 9 -53 27 -75 41 -22 14 -47 27 -55 31 -8 3 -23 10 -32 15 -10 5 -25 9 -33
9 -8 0 -14 5 -12 11 1 7 -20 17 -48 24 -59 14 -84 26 -191 97 l-82 53 14 28
c17 31 27 31 113 -3z m121 -36 c0 -2 -13 2 -30 11 -16 9 -30 18 -30 21 0 2 14
-2 30 -11 17 -9 30 -18 30 -21z m600 -274 c8 -5 12 -11 9 -14 -3 -3 -14 1 -25
9 -21 16 -8 20 16 5z m1281 -692 c45 -25 48 -34 16 -42 -12 -3 -41 -21 -63
-40 l-41 -35 -41 24 c-22 13 -44 20 -48 17 -4 -4 -2 3 4 14 19 36 81 84 108
84 15 0 44 -10 65 -22z m-991 -228 c0 -5 -2 -10 -4 -10 -3 0 -8 5 -11 10 -3 6
-1 10 4 10 6 0 11 -4 11 -10z m-593 -136 c-3 -3 -12 -4 -19 -1 -8 3 -5 6 6 6
11 1 17 -2 13 -5z m548 -134 c3 -5 1 -10 -4 -10 -6 0 -11 5 -11 10 0 6 2 10 4
10 3 0 8 -4 11 -10z m-150 -80 c-3 -5 -12 -10 -18 -10 -7 0 -6 4 3 10 19 12
23 12 15 0z m-924 -67 c13 -16 12 -17 -3 -4 -10 7 -18 15 -18 17 0 8 8 3 21
-13z m32 -64 c-8 -8 -13 -7 -18 2 -5 8 -4 10 3 5 7 -4 12 -2 12 5 0 7 3 9 7 6
4 -4 2 -12 -4 -18z m56 -43 c-3 -3 -11 5 -18 17 -13 21 -12 21 5 5 10 -10 16
-20 13 -22z m11 -70 c0 -3 -4 -8 -10 -11 -5 -3 -10 -1 -10 4 0 6 5 11 10 11 6
0 10 -2 10 -4z"/>
<path d="M4758 8045 c-49 -28 -63 -83 -32 -131 66 -100 266 -49 238 61 -3 12
-19 35 -35 51 -24 22 -40 28 -86 31 -39 2 -67 -2 -85 -12z"/>
<path d="M2985 7521 c-31 -13 -55 -45 -61 -83 -22 -133 197 -179 259 -55 18
36 18 38 0 75 -11 21 -34 44 -54 54 -35 19 -109 23 -144 9z"/>
<path d="M2530 7372 c-26 -12 -39 -28 -50 -60 -13 -38 -13 -45 3 -75 24 -45
65 -67 122 -67 150 0 196 143 68 209 -32 16 -103 13 -143 -7z"/>
<path d="M2104 7236 c-43 -19 -64 -53 -64 -102 0 -81 82 -130 176 -104 26 8
55 25 69 42 80 95 -56 218 -181 164z"/>
<path d="M5474 6996 c-60 -26 -89 -89 -64 -137 25 -45 123 -65 168 -33 13 9
26 13 30 10 12 -13 -15 -41 -41 -44 -15 -2 -36 -15 -47 -29 -40 -50 -19 -68
61 -53 62 12 102 39 119 81 13 29 11 36 -26 106 -32 62 -46 79 -79 94 -47 22
-79 23 -121 5z m84 -87 c3 -22 -2 -28 -24 -33 -19 -5 -32 -2 -43 9 -15 15 -14
18 8 36 31 26 55 21 59 -12z"/>
<path d="M4590 6704 c-41 -14 -79 -29 -83 -34 -10 -9 19 -70 32 -70 5 0 31 10
59 21 28 12 58 19 66 16 14 -5 14 -11 1 -48 -9 -23 -29 -67 -45 -98 l-30 -55
25 -25 25 -25 119 39 120 39 -20 38 c-22 42 -23 42 -98 12 -19 -8 -36 -13 -38
-11 -2 2 6 25 18 52 28 64 27 111 -2 141 -36 35 -66 37 -149 8z"/>
<path d="M3720 6424 c-52 -19 -99 -35 -105 -37 -13 -5 54 -146 74 -157 10 -5
29 -1 53 11 46 24 96 25 105 3 11 -28 -26 -46 -78 -40 -37 4 -50 1 -63 -13
-69 -76 123 -99 206 -24 32 29 40 59 24 98 -28 65 -99 89 -179 61 -34 -13 -38
-12 -35 2 2 11 27 25 67 38 36 11 66 25 68 30 2 5 -7 21 -20 35 l-22 26 -95
-33z"/>
<path d="M2863 6127 c-71 -23 -68 -18 -79 -160 -6 -83 -5 -90 17 -113 28 -30
51 -30 123 -2 54 20 57 20 70 3 12 -17 17 -17 60 -5 25 7 46 15 46 18 0 3 -10
27 -22 54 -14 32 -27 47 -35 43 -10 -3 -28 26 -58 90 -24 52 -47 95 -52 94 -4
0 -36 -10 -70 -22z m51 -127 c22 -56 20 -67 -11 -73 -16 -3 -29 -4 -31 -2 -7
7 10 115 18 115 4 0 15 -18 24 -40z"/>
<path d="M7212 5000 c-25 -23 -29 -75 -9 -101 61 -80 203 -27 166 62 -23 56
-114 79 -157 39z"/>
<path d="M7700 4013 c-34 -13 -50 -37 -50 -74 0 -68 87 -117 150 -84 58 30 63
97 9 137 -26 20 -84 31 -109 21z"/>
<path d="M8216 2298 l-17 -33 20 24 c18 20 27 41 18 41 -1 0 -11 -15 -21 -32z"/>
<path d="M8315 2240 c-21 -23 -9 -26 18 -6 10 8 14 17 9 20 -5 3 -17 -3 -27
-14z"/>
<path d="M8390 2186 c0 -9 7 -16 16 -16 17 0 14 22 -4 28 -7 2 -12 -3 -12 -12z"/>
<path d="M8473 2164 c-15 -15 -17 -34 -4 -34 8 0 24 41 18 46 -1 1 -8 -4 -14
-12z"/>
<path d="M8520 2135 c-7 -9 -8 -15 -2 -15 5 0 12 7 16 15 3 8 4 15 2 15 -2 0
-9 -7 -16 -15z"/>
<path d="M9080 1810 c0 -5 5 -10 11 -10 5 0 7 5 4 10 -3 6 -8 10 -11 10 -2 0
-4 -4 -4 -10z"/>
<path d="M9143 1778 c-7 -8 -8 -19 -3 -28 8 -12 10 -12 15 2 10 26 2 43 -12
26z"/>
<path d="M9190 1750 c0 -5 6 -10 14 -10 8 0 16 -7 20 -15 3 -8 12 -15 20 -15
7 0 16 -7 20 -15 6 -16 26 -21 26 -7 0 9 -83 72 -94 72 -3 0 -6 -4 -6 -10z"/>
<path d="M5585 8758 c-43 -25 -47 -67 -9 -97 38 -30 87 -28 113 5 27 35 27 40
-8 75 -31 30 -62 36 -96 17z"/>
<path d="M9255 8610 c-34 -5 -77 -23 -128 -54 -43 -26 -82 -44 -87 -41 -6 3
-10 1 -10 -5 0 -6 -4 -8 -10 -5 -5 3 -18 1 -27 -5 -16 -10 -16 -11 2 -6 18 6
18 4 -2 -13 -13 -11 -23 -23 -23 -28 0 -4 42 -52 94 -105 l94 -98 50 0 c28 0
62 4 76 10 39 15 31 3 -14 -20 -74 -38 -87 -32 -235 119 -54 56 -102 101 -107
101 -30 0 -62 -201 -44 -275 9 -36 185 -217 261 -268 72 -48 175 -98 187 -91
4 3 8 0 8 -7 0 -7 4 -8 13 -2 6 5 23 8 37 7 14 -1 42 7 63 19 53 29 85 99 93
202 3 44 12 122 19 174 16 123 9 147 -68 230 -34 36 -80 88 -101 114 -24 29
-45 46 -53 43 -8 -3 -11 -1 -8 4 7 11 -6 11 -80 0z m183 -117 c14 -20 22 -45
21 -70 l-1 -38 -11 35 c-15 45 -54 117 -67 125 -5 3 -10 11 -10 18 0 13 34
-22 68 -70z m-19 -38 c12 -25 21 -52 21 -60 0 -36 -165 -105 -250 -105 -29 0
-44 9 -90 56 -30 30 -66 66 -80 79 -14 14 -20 25 -13 25 6 0 20 -11 31 -25 20
-26 39 -35 26 -12 -4 6 18 -12 49 -40 52 -50 59 -53 107 -53 91 0 199 73 186
126 -3 12 -9 29 -12 38 -13 35 5 13 25 -29z"/>
<path d="M1245 8320 c-8 -12 20 -24 35 -15 5 3 10 10 10 16 0 12 -37 12 -45
-1z"/>
<path d="M1260 8280 c0 -3 4 -11 9 -18 7 -12 12 -12 30 -1 30 19 26 30 -9 27
-16 -1 -30 -5 -30 -8z"/>
<path d="M5393 8249 c-64 -19 -93 -96 -57 -148 35 -50 125 -65 182 -31 46 28
57 63 35 108 -31 62 -94 90 -160 71z"/>
<path d="M8473 7884 c-46 -20 -60 -48 -68 -134 -10 -104 -23 -173 -36 -180
-12 -8 -29 -114 -29 -188 0 -50 3 -55 66 -130 82 -95 129 -140 219 -207 108
-79 185 -107 249 -91 25 6 96 64 96 78 0 4 5 19 12 35 6 15 12 30 13 33 1 3 5
48 9 100 4 52 16 169 27 260 34 293 34 272 9 303 -36 45 -92 66 -243 92 -78
13 -162 28 -187 34 -59 14 -98 12 -137 -5z m255 -161 c-16 -2 -40 -2 -55 0
-16 2 -3 4 27 4 30 0 43 -2 28 -4z m269 -130 c-3 -10 -5 -2 -5 17 0 19 2 27 5
18 2 -10 2 -26 0 -35z m-120 -15 c-3 -7 -5 -2 -5 12 0 14 2 19 5 13 2 -7 2
-19 0 -25z m-254 -87 c41 -25 124 -28 166 -6 16 8 40 28 55 45 35 42 33 23 -3
-27 -32 -44 -79 -63 -155 -63 -69 0 -130 39 -132 85 -1 11 -5 29 -9 40 -4 11
4 4 18 -16 15 -21 42 -46 60 -58z m-15 -98 c7 -7 10 -13 5 -13 -5 0 -35 28
-68 62 l-60 63 54 -50 c30 -28 61 -56 69 -62z m272 52 c0 -10 -164 -85 -184
-84 -14 0 -7 6 19 16 22 8 67 28 100 44 69 32 65 31 65 24z"/>
<path d="M4150 7849 c-91 -36 -91 -146 0 -183 22 -9 50 -16 63 -16 34 1 104
36 116 58 46 87 -76 182 -179 141z"/>
<path d="M300 7830 c0 -5 5 -10 11 -10 5 0 7 5 4 10 -3 6 -8 10 -11 10 -2 0
-4 -4 -4 -10z"/>
<path d="M180 7806 c0 -8 5 -18 10 -21 6 -3 10 1 10 9 0 8 -4 18 -10 21 -5 3
-10 -1 -10 -9z"/>
<path d="M70 7765 c0 -8 4 -15 10 -15 5 0 7 7 4 15 -4 8 -8 15 -10 15 -2 0 -4
-7 -4 -15z"/>
<path d="M1452 7513 c-33 -29 -36 -58 -10 -86 32 -35 67 -40 106 -17 26 16 32
26 32 55 0 28 -5 37 -30 50 -38 20 -73 19 -98 -2z"/>
<path d="M22 7227 c-20 -21 -22 -34 -22 -154 l0 -131 45 -114 c25 -62 61 -138
80 -170 19 -31 35 -59 35 -63 0 -3 12 -32 26 -63 14 -31 35 -79 46 -107 10
-27 25 -64 33 -82 8 -17 15 -34 15 -37 0 -3 15 -38 34 -78 18 -40 50 -113 71
-163 21 -49 43 -103 51 -120 7 -16 31 -75 54 -130 23 -55 46 -105 51 -111 5
-6 11 -26 13 -45 8 -58 22 -108 80 -273 31 -88 63 -167 71 -176 8 -9 27 -52
43 -95 25 -68 50 -132 93 -240 4 -11 17 -46 28 -77 11 -32 25 -66 30 -75 23
-43 66 -144 92 -218 16 -44 34 -89 39 -100 5 -11 12 -31 16 -44 3 -13 25 -65
49 -115 23 -50 46 -102 50 -116 4 -14 38 -88 76 -165 54 -112 80 -153 129
-205 34 -36 84 -93 112 -128 28 -34 58 -67 67 -72 19 -9 20 -6 22 53 0 28 1
28 20 11 36 -32 42 -6 24 112 -9 60 -20 125 -24 145 -6 26 -4 41 6 55 18 24
13 77 -17 176 l-24 77 30 42 c43 62 39 115 -18 254 -25 61 -96 234 -157 385
-128 317 -126 312 -152 328 -20 13 -20 13 0 -15 12 -15 34 -64 50 -108 33 -90
203 -500 226 -544 18 -35 58 -178 46 -165 -4 5 -14 31 -20 58 -7 27 -22 69
-35 95 -13 25 -56 125 -96 221 -39 96 -78 189 -85 205 -8 17 -28 68 -46 115
-39 104 -81 150 -138 150 l-37 0 -74 171 c-41 94 -89 204 -105 244 -40 95 -57
119 -94 134 -26 11 -38 32 -102 184 -40 95 -142 334 -227 532 -85 198 -156
374 -158 391 -4 28 -36 106 -113 276 -12 26 -33 61 -47 78 -23 27 -31 30 -83
30 -47 0 -61 -4 -79 -23z m105 1 c20 -32 128 -297 122 -302 -2 -2 -16 -6 -31
-10 -25 -6 -28 -3 -34 31 -4 21 -27 85 -51 141 -25 57 -42 110 -39 118 4 9 -2
14 -15 14 -11 0 -17 5 -14 10 9 14 52 12 62 -2z m210 -508 c30 -63 77 -169
105 -235 113 -272 212 -505 249 -593 40 -93 43 -116 12 -96 -19 12 -21 16 -53
94 -59 146 -133 319 -160 376 -16 35 -30 67 -30 70 0 4 -9 25 -19 48 -50 109
-81 184 -81 197 0 8 -23 61 -51 118 -53 107 -78 197 -44 156 10 -11 42 -72 72
-135z m467 -979 c3 -5 -11 -11 -32 -15 -20 -3 -48 -8 -62 -11 -14 -3 -5 3 20
14 51 22 66 25 74 12z m15 -75 c-2 -2 -20 -6 -39 -10 -25 -4 -31 -3 -20 4 14
9 69 15 59 6z m-6 -83 c-7 -2 -19 -2 -25 0 -7 3 -2 5 12 5 14 0 19 -2 13 -5z
m86 -57 c-2 -2 -29 -6 -59 -10 -38 -4 -50 -3 -40 4 13 9 109 15 99 6z m-16
-73 c-7 -2 -21 -2 -30 0 -10 3 -4 5 12 5 17 0 24 -2 18 -5z m53 -60 c-7 -8
-96 -32 -96 -27 0 2 12 10 28 18 27 15 81 22 68 9z m14 -77 c-30 -7 -64 -17
-75 -21 -28 -11 -15 1 20 19 17 9 48 16 70 15 40 -1 39 -1 -15 -13z m27 -67
c-21 -5 -47 -14 -58 -19 -12 -7 -19 -7 -19 -1 0 17 34 30 75 30 l40 -1 -38 -9z
m9 -75 c-21 -8 -45 -19 -53 -25 -7 -7 -16 -9 -19 -6 -10 10 59 47 86 46 21 0
18 -3 -14 -15z m87 -61 c-7 -2 -21 -2 -30 0 -10 3 -4 5 12 5 17 0 24 -2 18 -5z
m116 -11 c5 -10 62 -148 126 -307 65 -160 135 -330 157 -378 22 -49 37 -95 34
-103 -4 -12 -2 -12 14 -4 13 7 20 7 20 1 0 -12 -59 -45 -67 -38 -2 3 1 14 9
26 11 18 9 28 -14 73 -14 29 -63 141 -108 248 -137 326 -192 450 -212 476
l-19 24 25 0 c14 0 30 -8 35 -18z m-170 4 c-2 -1 -20 -8 -39 -14 -32 -11 -33
-10 -16 3 16 12 69 23 55 11z m101 -56 c12 -8 10 -10 -10 -10 -14 0 -49 -7
-79 -14 -60 -17 -60 -9 2 15 50 20 67 22 87 9z m8 -80 c-25 -5 -57 -11 -70
-14 -16 -4 -14 -2 7 9 17 8 48 14 70 13 l40 0 -47 -8z m-18 -67 c-8 -3 -28
-12 -44 -20 -17 -9 -25 -10 -21 -3 8 13 43 29 65 29 13 -1 13 -1 0 -6z m89
-67 c-11 -9 -90 -16 -84 -6 3 5 25 10 47 10 23 0 39 -2 37 -4z m-24 -71 c-27
-8 -51 -12 -53 -10 -6 5 58 23 83 23 11 0 -2 -6 -30 -13z m81 -62 c-4 -5 -30
-13 -57 -19 -54 -12 -57 -6 -6 13 37 13 74 17 63 6z m14 -67 c0 -2 -27 -13
-60 -25 -62 -20 -73 -10 -16 15 29 12 76 19 76 10z m25 -80 c-62 -20 -101 -28
-93 -21 12 12 83 34 108 34 19 -1 16 -4 -15 -13z m55 -65 c0 -5 -21 -12 -46
-16 -26 -3 -54 -9 -63 -11 -9 -2 2 5 24 16 42 20 85 26 85 11z m-25 -87 c-38
-8 -74 -12 -80 -10 -18 6 59 24 105 24 41 0 40 -1 -25 -14z m54 -68 c-2 -2
-24 -6 -48 -9 -29 -4 -40 -2 -30 4 13 8 88 14 78 5z m66 -133 c5 -28 13 -55
18 -59 4 -4 7 -18 7 -31 0 -14 5 -33 11 -45 13 -24 13 -24 -33 -31 -31 -5 -38
-3 -38 11 0 9 -14 53 -31 99 -21 55 -37 83 -48 84 -9 0 -3 7 14 15 17 7 43 13
60 11 27 -2 30 -6 40 -54z m135 -443 c0 -5 -8 -10 -17 -10 -15 0 -16 2 -3 10
19 12 20 12 20 0z"/>
<path d="M6501 6445 c-120 -34 -500 -164 -556 -190 -124 -59 -196 -172 -181
-284 9 -65 228 -500 283 -561 78 -87 226 -133 352 -111 86 16 453 140 524 178
78 42 150 118 175 186 39 103 36 111 -121 425 -121 242 -163 301 -241 340 -59
30 -162 37 -235 17z m117 -242 c11 -10 66 -105 121 -210 112 -213 119 -240 75
-292 -21 -26 -57 -41 -243 -102 -247 -81 -271 -83 -326 -25 -16 18 -70 117
-119 220 -99 207 -101 222 -40 258 29 17 476 167 500 168 7 0 21 -8 32 -17z"/>
<path d="M6331 5999 c-46 -16 -86 -31 -89 -34 -3 -3 4 -15 16 -28 12 -13 22
-29 22 -35 0 -17 10 -15 66 10 27 12 76 29 109 38 39 11 61 23 63 34 3 11 -4
16 -21 16 -14 0 -30 7 -37 15 -17 20 -31 18 -129 -16z"/>
<path d="M6433 5920 c-28 -12 -57 -55 -49 -76 5 -14 8 -14 28 0 28 20 52 20
68 1 10 -12 10 -18 0 -30 -10 -12 -24 -14 -56 -9 -35 5 -46 2 -63 -15 -12 -12
-21 -25 -21 -29 0 -14 69 -42 106 -42 68 0 144 56 144 106 0 33 -46 82 -88 94
-43 11 -40 11 -69 0z"/>
<path d="M1892 6260 c-12 -12 -22 -28 -22 -38 0 -9 36 -100 79 -202 44 -102
134 -315 201 -475 67 -159 128 -296 137 -302 28 -21 70 -16 91 12 23 29 21 44
-21 135 -14 30 -100 233 -191 450 -166 394 -191 440 -235 440 -9 0 -27 -9 -39
-20z"/>
<path d="M20 5723 c0 -5 48 -148 106 -319 58 -170 124 -362 146 -426 22 -65
44 -118 49 -118 5 0 9 6 9 13 0 11 -125 384 -264 786 -12 36 -28 67 -34 69 -7
2 -12 0 -12 -5z"/>
<path d="M5070 5642 c-19 -9 -43 -32 -53 -50 -17 -28 -17 -37 -7 -63 7 -17 23
-37 36 -46 13 -8 20 -21 17 -29 -19 -51 41 -104 120 -104 121 0 182 98 104
167 -18 16 -31 35 -29 41 9 27 -10 63 -41 82 -40 25 -101 26 -147 2z m90 -62
c22 -14 0 -44 -34 -48 -20 -3 -26 1 -26 17 0 11 8 25 18 30 21 13 24 13 42 1z
m64 -112 c22 -36 -38 -65 -65 -32 -11 14 -10 19 10 35 27 22 40 21 55 -3z"/>
<path d="M4128 5539 c-22 -16 -28 -29 -28 -58 0 -47 33 -81 87 -88 32 -4 45 0
71 22 49 41 41 100 -18 130 -40 21 -80 18 -112 -6z"/>
<path d="M3673 5455 c-35 -15 -63 -60 -63 -101 0 -15 27 -86 61 -158 34 -72
85 -183 115 -247 61 -129 67 -173 32 -206 -13 -12 -96 -43 -188 -72 -91 -29
-198 -63 -238 -77 -100 -33 -156 -32 -190 4 -15 16 -54 94 -87 173 -152 369
-149 363 -184 386 -40 27 -107 31 -151 8 -37 -19 -60 -62 -60 -111 0 -47 229
-576 271 -628 17 -19 59 -50 97 -68 62 -31 73 -33 167 -33 98 1 106 3 355 84
140 46 282 96 315 112 76 35 130 88 163 158 45 97 40 122 -87 411 -62 140
-121 274 -133 298 -34 71 -119 100 -195 67z"/>
<path d="M4266 5249 c-26 -20 -34 -57 -20 -94 9 -22 57 -45 94 -45 37 0 90 47
90 80 0 12 -13 35 -29 51 -37 36 -94 40 -135 8z"/>
<path d="M3340 5079 c-39 -12 -70 -38 -90 -74 -12 -22 -11 -27 5 -45 25 -28
42 -25 87 15 32 29 42 34 58 25 11 -6 20 -15 20 -20 0 -4 -25 -45 -55 -90 -30
-45 -55 -85 -55 -88 1 -4 11 -20 24 -36 l24 -29 118 38 c66 20 123 41 128 46
15 14 -25 81 -44 73 -64 -28 -110 -43 -110 -37 0 4 14 35 32 69 27 52 31 67
23 90 -20 56 -94 84 -165 63z"/>
<path d="M6412 5068 c-7 -7 -12 -25 -12 -40 0 -36 282 -584 316 -615 35 -32
79 -30 101 3 17 26 16 28 -16 88 -18 33 -87 167 -153 296 -67 129 -130 245
-141 258 -23 24 -75 30 -95 10z"/>
<path d="M2424 5040 c-27 -10 -54 -48 -54 -73 0 -10 49 -139 109 -285 60 -147
170 -420 244 -607 75 -187 175 -434 222 -550 101 -245 351 -869 455 -1135 40
-102 80 -193 89 -204 28 -33 79 -48 135 -41 81 12 1151 372 1249 422 59 29
119 88 149 145 17 33 22 59 22 113 0 66 -5 81 -93 280 -134 303 -128 293 -172
315 -67 34 -133 21 -178 -36 -37 -48 -29 -84 74 -306 52 -113 95 -215 95 -227
0 -33 -26 -76 -53 -88 -60 -28 -477 -163 -501 -163 -15 0 -42 6 -61 14 -41 17
-56 45 -150 276 -78 190 -92 214 -141 230 -109 36 -214 -70 -214 -217 0 -38
-3 -43 -22 -43 -13 0 -50 -12 -83 -25 -33 -14 -61 -25 -61 -25 -3 0 -105 242
-167 395 -35 88 -89 219 -120 290 -30 72 -119 288 -197 480 -78 193 -179 438
-225 545 -45 107 -111 262 -145 344 -61 143 -64 149 -104 167 -45 20 -69 22
-102 9z m1363 -2410 c105 -47 110 -175 10 -221 -55 -24 -91 -24 -145 2 -102
50 -100 174 3 220 51 24 79 23 132 -1z"/>
<path d="M3685 2578 c-27 -16 -35 -28 -35 -60 0 -32 41 -68 77 -68 29 0 73 41
73 68 0 48 -72 86 -115 60z"/>
<path d="M5502 4869 c-492 -164 -515 -174 -528 -246 -15 -77 55 -142 140 -130
23 4 225 67 449 142 224 74 423 135 442 135 21 0 41 -7 52 -20 10 -10 51 -84
91 -163 73 -143 74 -144 58 -175 -14 -27 -28 -34 -118 -62 -57 -17 -347 -113
-645 -211 -588 -195 -583 -193 -583 -265 0 -46 49 -100 103 -115 31 -8 55 -8
91 0 103 24 1211 395 1277 428 82 41 133 96 156 170 23 74 14 104 -107 350
-136 277 -176 313 -349 313 -71 0 -105 -10 -529 -151z"/>
<path d="M4424 4980 c-28 -11 -54 -48 -54 -78 0 -13 13 -37 29 -53 23 -23 38
-29 72 -29 80 0 128 81 79 130 -37 37 -83 48 -126 30z"/>
<path d="M355 4730 c-3 -5 1 -10 9 -10 8 0 18 5 21 10 3 6 -1 10 -9 10 -8 0
-18 -4 -21 -10z"/>
<path d="M390 4620 c-13 -9 -13 -10 0 -10 8 0 22 5 30 10 13 9 13 10 0 10 -8
0 -22 -5 -30 -10z"/>
<path d="M4640 4523 c-74 -27 -79 -112 -10 -148 60 -31 130 -6 144 51 15 58
-71 120 -134 97z"/>
<path d="M440 4510 c-8 -5 -12 -11 -9 -14 3 -3 14 1 25 9 21 16 8 20 -16 5z"/>
<path d="M4125 4414 c-11 -3 -189 -61 -396 -130 -379 -125 -447 -155 -487
-211 -33 -46 -55 -128 -48 -174 4 -23 45 -135 93 -250 95 -230 123 -273 207
-316 44 -23 63 -27 141 -27 89 -1 94 0 472 127 404 135 436 151 493 229 41 56
54 109 39 156 -13 44 -125 304 -180 419 -42 88 -89 135 -161 160 -44 15 -142
25 -173 17z m96 -304 c16 -30 29 -60 29 -65 0 -6 -107 -46 -237 -89 -131 -42
-295 -96 -365 -120 l-126 -42 -17 36 c-28 58 -34 87 -21 105 12 16 670 236
695 232 8 -1 27 -27 42 -57z m104 -240 c28 -55 31 -82 13 -98 -21 -16 -658
-222 -689 -222 -23 0 -31 8 -53 52 -14 29 -26 58 -26 65 0 8 138 58 363 132
199 65 363 120 364 120 2 1 14 -21 28 -49z"/>
<path d="M5026 4304 c-153 -51 -285 -99 -292 -105 -20 -16 -17 -63 5 -83 10
-10 32 -18 48 -18 41 -1 582 181 604 203 11 11 19 28 19 38 0 26 -46 61 -79
60 -14 -1 -151 -43 -305 -95z"/>
<path d="M555 4130 c3 -5 8 -10 11 -10 2 0 4 5 4 10 0 6 -5 10 -11 10 -5 0 -7
-4 -4 -10z"/>
<path d="M6870 4090 c-11 -11 -20 -28 -20 -37 0 -10 71 -155 158 -323 130
-252 162 -306 183 -314 37 -13 78 0 91 29 9 21 5 33 -29 92 -22 37 -95 176
-161 309 -95 188 -127 243 -147 252 -36 17 -52 15 -75 -8z"/>
<path d="M6447 4039 c-42 -7 -609 -195 -699 -233 -91 -38 -148 -120 -148 -209
0 -49 12 -78 126 -308 69 -140 137 -269 151 -288 14 -18 49 -44 77 -57 87 -41
120 -35 427 70 494 169 510 176 562 274 37 69 38 136 3 220 -55 129 -197 409
-226 444 -55 66 -167 102 -273 87z m66 -269 c31 -25 177 -300 177 -334 0 -54
-31 -69 -335 -170 -175 -58 -306 -96 -330 -96 -72 0 -99 27 -165 161 -33 67
-60 133 -60 148 0 36 33 87 69 105 33 18 590 206 607 206 6 0 23 -9 37 -20z"/>
<path d="M6050 3464 c-41 -14 -76 -27 -78 -29 -6 -6 50 -105 59 -105 8 0 152
50 157 55 2 2 -59 106 -62 105 -1 0 -35 -12 -76 -26z"/>
<path d="M610 3950 c0 -5 5 -10 10 -10 6 0 10 5 10 10 0 6 -4 10 -10 10 -5 0
-10 -4 -10 -10z"/>
<path d="M670 3760 c0 -13 11 -13 30 0 12 8 11 10 -7 10 -13 0 -23 -4 -23 -10z"/>
<path d="M720 3640 c-8 -5 -12 -11 -9 -14 3 -3 14 1 25 9 21 16 8 20 -16 5z"/>
<path d="M770 3530 c-8 -5 -12 -11 -9 -14 2 -3 11 -1 19 4 8 5 12 11 9 14 -2
3 -11 1 -19 -4z"/>
<path d="M5405 3375 c-44 -43 -24 -104 41 -131 37 -15 58 -11 92 19 32 29 28
63 -12 103 -42 42 -85 46 -121 9z"/>
<path d="M5120 3303 c-59 -76 47 -172 124 -112 35 27 36 86 3 117 -35 33 -99
30 -127 -5z"/>
<path d="M901 3146 c-10 -12 -8 -13 8 -9 12 3 21 9 21 14 0 14 -16 11 -29 -5z"/>
<path d="M4252 3114 c-78 -40 -89 -98 -40 -205 32 -70 69 -105 116 -113 84
-13 182 48 182 114 0 39 -59 168 -89 194 -30 27 -124 33 -169 10z m136 -133
c30 -61 31 -65 15 -83 -25 -28 -63 -19 -90 21 -47 69 -39 135 16 129 21 -2 33
-16 59 -67z"/>
<path d="M5545 3095 c-14 -13 -25 -34 -25 -45 0 -38 28 -78 63 -89 89 -30 144
63 78 130 -38 37 -82 39 -116 4z"/>
<path d="M5261 3014 c-31 -40 -28 -87 10 -118 35 -30 58 -32 98 -11 51 26 56
82 12 126 -39 39 -91 40 -120 3z"/>
<path d="M935 2968 c4 -18 32 -109 62 -203 30 -93 80 -249 110 -345 31 -96 60
-179 64 -184 23 -26 20 14 -8 102 -169 523 -216 662 -225 662 -6 0 -7 -13 -3
-32z"/>
<path d="M6435 2771 c-82 -31 -199 -74 -260 -95 -143 -49 -175 -85 -121 -135
20 -18 33 -22 63 -18 52 6 524 177 551 199 20 17 15 66 -10 82 -46 30 -70 26
-223 -33z"/>
<path d="M7055 2160 c-82 -31 -223 -83 -313 -115 -94 -34 -161 -63 -159 -69 3
-6 8 -10 13 -9 10 2 306 107 492 175 97 35 136 58 121 72 -2 2 -71 -22 -154
-54z"/>
<path d="M1250 1930 c0 -5 5 -10 10 -10 6 0 10 5 10 10 0 6 -4 10 -10 10 -5 0
-10 -4 -10 -10z"/>
<path d="M6290 1851 c0 -5 5 -13 10 -16 6 -3 10 -2 10 4 0 5 -4 13 -10 16 -5
3 -10 2 -10 -4z"/>
<path d="M6150 1809 c0 -5 4 -8 9 -5 5 4 12 0 14 -6 3 -8 6 -6 6 5 1 9 -6 17
-14 17 -8 0 -15 -5 -15 -11z"/>
<path d="M6030 1768 c0 -9 5 -20 10 -23 13 -8 13 5 0 25 -8 13 -10 13 -10 -2z"/>
<path d="M5685 1669 c-77 -27 -171 -60 -210 -74 -38 -13 -218 -76 -400 -140
-181 -64 -420 -148 -530 -187 -851 -298 -915 -322 -915 -336 0 -17 -16 -22
260 78 124 45 371 133 550 195 179 62 388 136 465 163 185 65 926 323 943 328
16 5 6 24 -11 23 -7 0 -75 -22 -152 -50z"/>
<path d="M1340 1690 c-8 -5 -12 -11 -9 -14 2 -3 11 -1 19 4 8 5 12 11 9 14 -2
3 -11 1 -19 -4z"/>
<path d="M1386 1560 c-11 -3 -15 -9 -10 -13 10 -6 42 9 34 16 -3 3 -14 1 -24
-3z"/>
<path d="M1420 1420 c0 -13 11 -13 30 0 12 8 11 10 -7 10 -13 0 -23 -4 -23
-10z"/>
<path d="M8778 1358 c5 -5 16 -8 23 -6 8 3 3 7 -10 11 -17 4 -21 3 -13 -5z"/>
<path d="M1470 1300 c-8 -5 -12 -12 -9 -15 8 -8 39 5 39 16 0 11 -11 11 -30
-1z"/>
<path d="M7592 1216 c7 -8 15 -12 17 -11 5 6 -10 25 -20 25 -5 0 -4 -6 3 -14z"/>
<path d="M1510 1170 c-8 -5 -12 -12 -9 -15 8 -8 39 5 39 16 0 11 -11 11 -30
-1z"/>
<path d="M9035 1130 c3 -5 11 -10 16 -10 6 0 7 5 4 10 -3 6 -11 10 -16 10 -6
0 -7 -4 -4 -10z"/>
<path d="M7697 1081 c-3 -13 -1 -18 9 -14 7 2 10 11 7 19 -7 19 -10 18 -16 -5z"/>
<path d="M7685 1040 c-3 -6 1 -7 9 -4 18 7 21 14 7 14 -6 0 -13 -4 -16 -10z"/>
<path d="M1550 1025 c0 -9 5 -15 11 -13 6 2 11 8 11 13 0 5 -5 11 -11 13 -6 2
-11 -4 -11 -13z"/>
<path d="M7740 1010 c8 -5 20 -10 25 -10 6 0 3 5 -5 10 -8 5 -19 10 -25 10 -5
0 -3 -5 5 -10z"/>
<path d="M7779 973 c6 -12 16 -25 21 -28 17 -11 11 5 -11 28 l-21 22 11 -22z"/>
<path d="M8710 900 c-8 -5 -12 -12 -9 -15 4 -3 12 1 19 10 14 17 11 19 -10 5z"/>
<path d="M8835 891 c4 -8 2 -17 -6 -22 -9 -6 -10 -9 -2 -9 19 0 27 21 13 33
-10 9 -11 9 -5 -2z"/>
<path d="M3490 881 c0 -5 5 -13 10 -16 6 -3 10 -2 10 4 0 5 -4 13 -10 16 -5 3
-10 2 -10 -4z"/>
<path d="M7836 882 c-3 -6 -1 -14 5 -17 14 -9 20 -2 10 14 -6 8 -11 9 -15 3z"/>
<path d="M3360 836 c0 -8 5 -18 10 -21 6 -3 10 1 10 9 0 8 -4 18 -10 21 -5 3
-10 -1 -10 -9z"/>
<path d="M7873 825 c0 -8 4 -12 9 -9 4 3 8 9 8 15 0 5 -4 9 -8 9 -5 0 -9 -7
-9 -15z"/>
<path d="M3230 791 c0 -6 5 -13 10 -16 6 -3 10 1 10 9 0 9 -4 16 -10 16 -5 0
-10 -4 -10 -9z"/>
<path d="M3106 735 c4 -8 10 -15 15 -15 4 0 6 7 3 15 -4 8 -10 15 -15 15 -4 0
-6 -7 -3 -15z"/>
<path d="M1692 526 c27 -41 30 -40 22 2 -5 22 -12 32 -25 32 -18 0 -18 -2 3
-34z"/>
<path d="M1740 519 c0 -5 5 -7 10 -4 6 3 10 8 10 11 0 2 -4 4 -10 4 -5 0 -10
-5 -10 -11z"/>
<path d="M1663 503 c-15 -5 -17 -23 -4 -23 5 0 11 7 15 15 3 8 4 15 3 14 -1 0
-8 -3 -14 -6z"/>
<path d="M8170 253 c0 -10 4 -14 8 -8 4 6 11 13 16 18 5 4 2 7 -7 7 -10 0 -17
-8 -17 -17z"/>
</g>
</svg>
