<?xml version="1.0" standalone="no"?>
<!DOCTYPE svg PUBLIC "-//W3C//DTD SVG 20010904//EN"
 "http://www.w3.org/TR/2001/REC-SVG-20010904/DTD/svg10.dtd">
<svg version="1.0" xmlns="http://www.w3.org/2000/svg"
 width="1024.000000pt" height="1024.000000pt" viewBox="0 0 1024.000000 1024.000000"
 preserveAspectRatio="xMidYMid meet">
<metadata>
Created by potrace 1.16, written by Peter Selinger 2001-2019
</metadata>
<g transform="translate(0.000000,1024.000000) scale(0.100000,-0.100000)"
fill="#000000" stroke="none">
<path d="M5950 9170 c-188 -40 -333 -113 -466 -233 -65 -60 -139 -148 -350
-417 -253 -324 -527 -671 -892 -1129 -406 -508 -467 -590 -524 -704 -119 -239
-121 -578 -3 -822 217 -451 695 -682 1159 -560 32 8 61 14 63 11 7 -7 -151
-102 -207 -124 -174 -69 -421 -69 -609 0 -158 58 -351 218 -456 378 -101 154
-210 403 -240 544 -43 209 6 490 111 643 l36 53 -19 32 c-56 95 -176 105 -254
21 -66 -71 -64 -50 -63 -568 0 -453 1 -473 22 -549 99 -356 399 -698 730 -832
150 -60 229 -76 402 -81 140 -4 179 -2 256 15 248 55 455 180 624 377 202 234
317 445 363 665 13 61 22 75 158 246 79 100 279 351 444 559 165 208 400 504
523 658 122 154 240 310 262 346 121 204 163 487 106 714 -52 205 -121 330
-261 473 -112 115 -200 175 -331 230 -178 73 -399 94 -584 54z m315 -281 c68
-12 195 -66 195 -83 0 -12 -85 -119 -98 -124 -4 -1 -31 17 -58 40 -28 24 -85
70 -127 103 -42 33 -76 63 -77 68 0 11 98 9 165 -4z m-380 -134 c44 -38 290
-236 323 -261 2 -1 -13 -25 -34 -53 -23 -31 -42 -47 -48 -42 -92 71 -417 343
-414 347 29 28 95 71 103 67 5 -4 37 -30 70 -58z m813 -127 c41 -45 93 -145
123 -237 16 -51 28 -95 26 -97 -5 -5 -32 16 -175 134 l-113 94 35 38 c19 21
42 50 51 64 21 32 26 32 53 4z m-1127 -74 c10 -12 241 -205 401 -334 18 -15
17 -17 -19 -66 l-37 -50 -170 139 c-94 76 -195 159 -223 183 l-53 45 37 49
c41 55 45 57 64 34z m1122 -445 c75 -61 137 -112 137 -114 0 -1 -13 -28 -28
-58 l-29 -57 -194 156 c-107 85 -204 166 -217 178 l-24 23 38 51 38 50 70 -59
c39 -33 133 -110 209 -170z m-1253 77 c47 -37 138 -111 203 -163 l117 -96 -17
-27 c-10 -14 -26 -37 -35 -50 l-17 -23 -123 93 c-179 137 -318 251 -318 262 0
5 17 29 37 53 32 39 39 43 52 31 9 -7 54 -44 101 -80z m815 -194 c33 -26 116
-93 184 -148 68 -54 140 -112 160 -127 20 -16 35 -33 33 -39 -5 -18 -56 -88
-64 -88 -13 0 -339 258 -437 346 -11 10 -7 20 20 58 19 25 36 45 39 46 3 0 32
-22 65 -48z m-1060 -94 c55 -44 159 -126 230 -182 72 -56 196 -154 275 -218
215 -172 463 -368 480 -378 11 -7 7 -17 -23 -52 -21 -23 -99 -124 -174 -223
-75 -99 -139 -180 -142 -180 -3 0 -60 44 -126 97 -174 141 -605 484 -789 628
-87 69 -165 130 -173 137 -14 11 -13 15 3 36 112 145 330 417 334 417 3 0 50
-37 105 -82z m1038 -347 c97 -79 177 -147 177 -153 0 -5 -15 -29 -34 -53 l-33
-44 -190 152 c-221 177 -253 204 -253 211 0 3 16 29 36 56 l36 50 42 -37 c22
-21 121 -103 219 -182z m-1561 -314 c129 -104 645 -513 841 -667 80 -63 145
-120 144 -125 -2 -13 -351 -461 -457 -589 -169 -203 -323 -280 -565 -280 -141
0 -213 17 -326 75 -222 116 -367 338 -386 593 -6 73 9 189 30 239 l12 28 174
-137 c96 -75 190 -143 208 -151 74 -30 168 31 168 110 0 59 -27 92 -153 188
-176 135 -261 204 -262 211 0 5 97 138 136 186 1 2 31 -20 66 -50 35 -29 114
-94 176 -143 200 -158 211 -163 284 -123 66 37 87 107 51 170 -10 17 -98 92
-197 167 -98 75 -187 143 -198 152 -20 16 -19 18 58 122 44 58 82 106 86 106
3 1 53 -36 110 -82z"/>
<path d="M4353 8218 c-18 -13 -98 -108 -179 -213 -81 -104 -191 -244 -244
-310 -53 -66 -102 -130 -109 -142 -16 -32 -14 -69 9 -113 45 -89 151 -114 227
-54 45 36 495 593 519 643 31 65 -5 159 -76 196 -44 23 -110 19 -147 -7z"/>
<path d="M6373 6618 c-31 -17 -90 -84 -228 -258 -103 -129 -201 -253 -219
-275 -89 -110 -106 -137 -106 -172 0 -117 133 -194 233 -136 17 11 85 86 150
169 65 82 164 207 220 277 166 209 169 214 164 270 -10 113 -120 177 -214 125z"/>
<path d="M2685 6141 c-83 -51 -85 -64 -85 -476 0 -397 8 -509 50 -669 147
-568 611 -1050 1200 -1247 212 -71 273 -80 553 -86 l247 -5 -2 -705 -3 -705
-61 -22 c-128 -47 -264 -137 -365 -243 -48 -50 -145 -175 -152 -196 -3 -9
-150 -14 -578 -18 -537 -5 -579 -7 -659 -27 -284 -70 -467 -168 -631 -338 -95
-99 -123 -151 -117 -218 5 -63 33 -107 82 -130 31 -15 279 -16 2937 -16 l2903
0 43 21 c49 24 83 77 83 131 0 106 -232 339 -445 446 -68 34 -210 80 -318 104
-97 21 -131 22 -668 28 l-567 5 -59 80 c-136 182 -309 312 -510 385 l-63 23 0
698 0 699 148 0 c319 0 552 68 810 237 274 180 482 467 581 802 63 210 66 253
66 833 0 519 0 527 -21 555 -72 97 -186 97 -258 0 -21 -28 -21 -41 -27 -580
-6 -597 -4 -572 -65 -762 -98 -301 -332 -562 -615 -687 -115 -51 -220 -77
-359 -88 -188 -16 -174 -19 -187 48 -9 48 -29 102 -61 165 -2 4 52 7 121 7
244 0 452 86 627 260 130 129 229 288 294 468 32 90 33 136 3 193 -52 99 -176
111 -249 25 -10 -12 -32 -64 -48 -117 -77 -241 -257 -437 -465 -502 -69 -22
-76 -22 -760 -22 -548 0 -704 3 -760 14 -342 68 -614 262 -754 538 -40 80 -83
129 -127 143 -101 34 -206 -60 -191 -170 6 -44 61 -157 120 -245 56 -84 257
-282 347 -342 159 -107 373 -195 551 -227 46 -8 155 -17 241 -18 87 -2 158 -4
158 -5 0 -1 -13 -42 -30 -91 -16 -50 -30 -100 -30 -112 l0 -23 -167 7 c-206 9
-304 25 -458 77 -514 175 -890 578 -1002 1074 -12 55 -17 163 -22 507 -6 422
-7 438 -27 465 -52 70 -136 93 -199 54z m2495 -1999 c85 -52 130 -168 100
-257 -16 -48 -74 -112 -118 -131 -51 -21 -138 -18 -189 7 -82 40 -133 134
-119 220 26 164 190 245 326 161z m-110 -707 c25 0 64 3 88 8 l42 7 0 -691 0
-691 29 -28 c16 -16 39 -31 52 -33 13 -3 53 -10 89 -17 111 -20 285 -114 359
-194 l24 -26 -663 0 -664 0 30 31 c80 85 231 168 344 189 36 7 77 19 92 26 61
31 58 -6 58 746 l0 687 38 -7 c20 -4 57 -7 82 -7z m2235 -1978 c109 -27 224
-65 289 -95 l58 -27 -2550 0 c-1403 0 -2548 3 -2544 7 31 31 277 109 398 127
33 5 1009 8 2169 7 1961 -2 2115 -3 2180 -19z"/>
<path d="M4999 4021 c-57 -58 -22 -154 62 -167 30 -5 41 -1 72 26 31 27 37 39
37 72 0 56 -42 98 -100 98 -33 0 -48 -6 -71 -29z"/>
</g>
</svg>
