<?xml version="1.0" standalone="no"?>
<!DOCTYPE svg PUBLIC "-//W3C//DTD SVG 20010904//EN"
 "http://www.w3.org/TR/2001/REC-SVG-20010904/DTD/svg10.dtd">
<svg version="1.0" xmlns="http://www.w3.org/2000/svg"
 width="1024.000000pt" height="1024.000000pt" viewBox="0 0 1024.000000 1024.000000"
 preserveAspectRatio="xMidYMid meet">
<metadata>
Created by potrace 1.16, written by Peter Selinger 2001-2019
</metadata>
<g transform="translate(0.000000,1024.000000) scale(0.100000,-0.100000)"
fill="#000000" stroke="none">
<path d="M3329 9074 c-86 -18 -195 -63 -264 -109 -110 -73 -211 -214 -252
-351 -17 -56 -18 -229 -21 -3354 -3 -3684 -9 -3363 69 -3520 48 -96 144 -198
219 -232 l50 -23 -2 -145 -3 -145 -60 -3 c-82 -3 -99 -8 -134 -38 -27 -22 -31
-32 -31 -76 0 -41 5 -54 28 -78 26 -25 37 -28 123 -34 52 -4 993 -6 2091 -4
l1997 3 28 21 c15 11 34 39 42 61 12 34 12 45 1 73 -21 50 -62 70 -148 70
l-73 0 3 157 3 157 48 12 c171 44 302 179 337 348 7 35 9 954 8 2921 l-3 2870
-30 65 c-31 68 -88 143 -265 350 -59 69 -183 215 -276 326 -466 554 -499 585
-701 658 l-88 31 -1315 2 c-1111 1 -1325 -1 -1381 -13z m2550 -303 c83 -26
137 -60 198 -123 58 -62 95 -129 113 -205 9 -41 12 -744 13 -3195 1 -2980 0
-3146 -17 -3203 -54 -183 -195 -317 -374 -354 -74 -15 -2249 -15 -2324 0 -153
32 -283 135 -352 279 l-41 85 -3 3160 c-1 2228 1 3175 9 3212 24 120 121 253
220 304 120 61 40 58 1326 58 1120 1 1174 0 1232 -18z m1029 -1311 c139 -169
172 -218 172 -257 0 -34 -29 -73 -53 -73 -21 0 -40 19 -149 150 -154 186 -158
192 -158 233 0 43 30 80 63 75 13 -2 61 -51 125 -128z m10 -550 c56 -69 116
-144 132 -167 34 -47 39 -96 14 -131 -31 -45 -55 -30 -176 110 -139 162 -168
203 -168 240 0 36 42 81 72 76 14 -2 60 -49 126 -128z m-42 -492 c117 -124
204 -230 205 -252 3 -43 -3 -62 -26 -85 -18 -19 -26 -21 -42 -12 -25 13 -275
285 -285 309 -12 31 -8 59 13 86 34 43 59 34 135 -46z m62 -621 c145 -146 162
-177 127 -231 -31 -46 -54 -35 -185 88 -132 123 -160 157 -160 197 0 35 36 79
63 79 15 0 65 -43 155 -133z m-20 -1236 c64 -54 125 -107 135 -118 27 -31 33
-85 12 -117 -22 -33 -40 -33 -90 1 -66 44 -235 185 -245 204 -15 27 -12 82 6
107 28 41 57 29 182 -77z m5 -507 c155 -105 177 -136 142 -204 -10 -20 -23
-30 -38 -30 -26 0 -225 125 -274 173 -42 39 -45 86 -8 122 13 14 30 25 37 25
7 0 70 -39 141 -86z m-18 -483 c144 -85 170 -109 170 -161 0 -55 -32 -84 -73
-69 -47 18 -238 128 -256 148 -28 31 -31 82 -6 114 12 15 31 27 43 27 12 0 67
-27 122 -59z m21 -508 c97 -44 129 -63 140 -84 18 -36 18 -55 -3 -90 -24 -40
-48 -38 -183 21 -122 53 -160 84 -160 129 0 35 35 81 61 81 11 0 76 -26 145
-57z m103 -511 c51 -37 62 -90 28 -136 -14 -19 -16 -19 -73 -3 -33 9 -67 26
-76 38 -23 27 -23 87 -1 112 22 24 83 18 122 -11z m23 -619 c26 -23 24 -85 -4
-118 -20 -22 -66 -37 -353 -110 -181 -47 -331 -85 -333 -85 -2 0 12 19 31 43
19 23 51 68 71 99 21 33 46 60 59 64 369 95 475 122 491 123 11 0 28 -6 38
-16z m-342 -617 l0 -105 -140 -3 -140 -3 0 71 0 72 63 16 c34 9 94 25 132 35
39 11 73 20 78 20 4 1 7 -46 7 -103z m-2800 66 c0 -10 -105 -119 -136 -139
-31 -22 -43 -23 -203 -23 l-171 0 0 78 c0 43 2 81 4 83 6 6 506 7 506 1z
m1518 -92 l75 -95 -352 -3 c-193 -1 -509 -1 -702 0 l-351 3 71 92 72 92 112 4
c62 2 312 3 556 3 l444 -1 75 -95z m654 90 l78 0 0 -42 c0 -24 -3 -60 -6 -80
l-7 -38 -152 0 c-177 0 -179 1 -274 109 l-56 64 169 -6 c93 -4 204 -7 248 -7z"/>
<path d="M3509 8576 c-86 -30 -145 -83 -181 -161 l-23 -50 -3 -3095 c-2 -3074
-2 -3095 18 -3161 25 -83 87 -156 165 -195 l55 -26 1093 0 c1243 -1 1153 -7
1251 83 67 61 94 122 107 237 5 53 8 1291 6 3122 l-2 3035 -24 53 c-29 65
-100 131 -167 155 -46 16 -125 17 -1154 17 -877 -1 -1112 -4 -1141 -14z m2162
-324 c39 -43 41 -107 4 -144 l-25 -25 -397 -6 c-514 -9 -1610 1 -1634 14 -27
14 -40 45 -42 95 -3 63 25 87 106 95 34 3 489 6 1010 5 l949 -1 29 -33z m-15
-369 c34 -19 49 -67 34 -103 -7 -17 -21 -35 -32 -41 -12 -7 -291 -10 -810 -10
l-792 1 -23 22 c-51 48 -18 131 57 141 19 3 375 4 790 3 571 -1 760 -4 776
-13z m-1982 -45 c9 -12 16 -33 16 -45 0 -28 -33 -63 -60 -63 -28 0 -60 35 -60
67 0 58 72 86 104 41z m1996 -328 c44 -44 35 -107 -19 -135 -27 -14 -140 -15
-1025 -13 l-994 3 -26 24 c-33 31 -36 91 -6 121 20 20 33 20 1035 20 997 0
1015 0 1035 -20z m1 -369 c16 -16 29 -40 29 -53 0 -38 -35 -85 -67 -89 -15 -2
-396 -2 -845 1 -801 5 -818 5 -837 25 -11 11 -23 34 -27 52 -5 27 -1 37 24 63
l30 30 832 0 832 0 29 -29z m-2004 -23 c42 -39 22 -110 -31 -110 -59 0 -88 70
-46 112 26 26 48 25 77 -2z m732 -333 c33 -29 41 -56 28 -98 -18 -55 -32 -57
-432 -57 l-366 0 -24 25 c-17 16 -25 35 -25 59 0 94 3 95 432 96 l356 0 31
-25z m1231 19 c35 -8 70 -53 70 -92 0 -13 -13 -37 -29 -53 l-29 -29 -391 0
-390 0 -26 23 c-59 51 -37 132 41 147 48 9 709 12 754 4z m-885 -359 c98 -21
200 -74 277 -145 83 -76 134 -152 170 -254 38 -112 40 -258 3 -373 -77 -242
-308 -412 -562 -413 -179 0 -333 66 -449 192 -127 140 -178 326 -140 518 67
339 370 545 701 475z m-851 -26 c14 -17 26 -36 26 -43 0 -7 -18 -49 -40 -94
-50 -103 -70 -179 -81 -307 -10 -115 -23 -135 -89 -135 -30 0 -43 6 -60 28
-21 25 -22 35 -17 142 3 95 10 132 36 209 33 99 90 204 119 221 35 20 79 12
106 -21z m1590 10 c37 -29 113 -191 132 -280 9 -41 16 -115 17 -166 2 -84 0
-93 -22 -117 -18 -19 -35 -26 -61 -26 -58 0 -76 28 -85 129 -10 118 -38 222
-85 307 -46 85 -50 115 -15 149 31 31 82 33 119 4z m186 -875 l25 -24 0 -591
0 -591 -28 -24 c-37 -32 -86 -32 -121 1 l-26 24 0 588 c0 524 2 591 16 611 33
48 90 50 134 6z m-1793 -28 l28 -24 0 -1394 c0 -766 -4 -1406 -8 -1421 -5 -19
-19 -33 -42 -43 -41 -17 -73 -7 -104 32 l-21 27 2 1399 3 1400 28 24 c36 31
78 31 114 0z m-297 -1387 c0 -864 -3 -1298 -10 -1294 -7 4 -10 423 -10 1224 0
1076 4 1371 16 1371 2 0 4 -585 4 -1301z m1717 1061 c40 -24 47 -55 41 -194
-4 -112 -15 -137 -66 -157 -29 -11 -86 11 -101 39 -6 12 -11 75 -11 144 0 132
8 160 54 178 33 13 48 12 83 -10z m-1088 -134 c15 -8 32 -26 39 -41 9 -19 12
-178 12 -606 l0 -581 -29 -29 c-41 -41 -90 -40 -125 2 l-26 31 0 591 0 591 27
28 c30 31 60 35 102 14z m733 -85 l33 -29 0 -326 c0 -315 -1 -326 -21 -346
-11 -11 -37 -23 -57 -27 -31 -5 -40 -1 -67 25 l-30 30 0 319 c0 343 1 352 54
373 36 15 55 11 88 -19z m-351 -17 l24 -26 3 -331 c2 -360 1 -370 -51 -395
-22 -10 -35 -11 -62 -2 -66 22 -65 18 -65 394 0 335 0 340 22 363 31 33 96 32
129 -3z m701 -305 c49 -26 48 -14 48 -1001 0 -609 -4 -936 -11 -960 -19 -69
-92 -86 -145 -33 l-24 24 0 961 0 962 29 29 c31 31 67 37 103 18z m373 -562
c24 -20 27 -30 32 -119 7 -111 -4 -151 -48 -173 -41 -22 -65 -18 -100 13 l-31
28 1 114 c1 110 2 116 27 138 33 29 85 29 119 -1z m-746 -38 c17 -6 37 -21 44
-33 9 -16 13 -178 15 -666 2 -600 1 -647 -15 -679 -32 -62 -108 -67 -143 -8
-19 31 -20 53 -20 674 0 486 3 649 12 669 10 21 32 37 74 54 1 0 15 -5 33 -11z
m-355 -50 c57 -27 57 -21 54 -703 l-3 -625 -23 -23 c-32 -32 -94 -31 -127 2
l-25 25 -1 645 -1 644 27 23 c29 25 61 29 99 12z m1107 -435 c24 -25 24 -29
24 -204 0 -173 -1 -179 -23 -203 -13 -14 -36 -27 -50 -30 -31 -6 -77 15 -92
42 -6 12 -10 94 -10 194 l0 174 26 27 c36 36 91 36 125 0z m-1456 0 c43 -17
45 -42 45 -473 l0 -410 -22 -25 c-13 -15 -38 -29 -55 -32 -28 -6 -38 -1 -68
29 l-35 35 0 407 c0 415 2 433 39 462 17 13 69 17 96 7z m1437 -635 c32 -17
48 -71 48 -164 0 -82 -1 -88 -29 -116 -37 -37 -79 -38 -120 -3 l-31 26 0 108
0 108 31 26 c32 28 67 33 101 15z m-1421 -518 c28 -28 29 -33 29 -126 0 -89
-2 -98 -25 -120 -34 -35 -93 -34 -126 1 -20 21 -24 38 -27 100 -6 103 3 141
36 159 43 23 80 19 113 -14z m357 7 c42 -46 42 -219 -1 -258 -30 -29 -87 -26
-121 5 -25 23 -26 28 -26 129 0 101 1 105 26 125 37 29 94 28 122 -1z m347 16
c30 -12 45 -60 45 -144 0 -118 -20 -150 -95 -150 -25 0 -40 8 -60 32 -26 30
-27 36 -23 131 3 90 5 101 27 118 23 19 74 25 106 13z m371 -18 c27 -23 28
-26 28 -130 1 -102 0 -109 -23 -127 -14 -11 -39 -19 -61 -19 -30 0 -44 6 -64
31 -24 28 -26 38 -25 117 1 100 6 119 40 138 36 20 75 17 105 -10z m358 1 c27
-27 41 -120 30 -193 -12 -79 -96 -113 -149 -59 -23 22 -25 31 -25 125 0 94 2
103 25 125 32 33 87 34 119 2z m-2051 -123 c60 -51 115 -43 160 24 29 44 58
53 96 32 46 -24 52 -122 10 -166 -20 -22 -31 -24 -114 -24 -79 0 -97 3 -126
23 -55 37 -79 81 -78 146 l1 56 12 -34 c6 -18 24 -44 39 -57z"/>
<path d="M4574 6269 c-152 -19 -257 -96 -327 -239 -30 -61 -32 -72 -32 -175 0
-105 1 -113 33 -174 62 -117 156 -195 276 -227 188 -50 392 47 477 229 32 68
34 78 34 177 0 99 -2 110 -33 172 -40 82 -124 168 -198 203 -62 30 -156 43
-230 34z m131 -213 c86 -40 135 -115 135 -206 0 -87 -40 -149 -124 -192 -57
-29 -149 -22 -205 15 -123 82 -136 248 -26 345 74 65 139 76 220 38z"/>
<path d="M2555 1168 c-35 -19 -55 -52 -55 -90 0 -52 17 -83 56 -104 69 -37
154 20 154 103 0 72 -92 126 -155 91z"/>
<path d="M7434 1146 c-38 -38 -44 -77 -19 -126 17 -32 61 -60 95 -60 31 0 75
28 94 60 32 55 14 115 -44 145 -49 25 -88 19 -126 -19z"/>
</g>
</svg>
