<?xml version="1.0" standalone="no"?>
<!DOCTYPE svg PUBLIC "-//W3C//DTD SVG 20010904//EN"
 "http://www.w3.org/TR/2001/REC-SVG-20010904/DTD/svg10.dtd">
<svg version="1.0" xmlns="http://www.w3.org/2000/svg"
 width="1024.000000pt" height="1024.000000pt" viewBox="0 0 1024.000000 1024.000000"
 preserveAspectRatio="xMidYMid meet">
<metadata>
Created by potrace 1.16, written by Peter Selinger 2001-2019
</metadata>
<g transform="translate(0.000000,1024.000000) scale(0.100000,-0.100000)"
fill="#000000" stroke="none">
<path d="M3366 8798 c-52 -11 -90 -40 -112 -85 -17 -35 -18 -79 -21 -588 -1
-302 -3 -553 -3 -556 0 -12 -56 -27 -121 -33 -81 -8 -208 -40 -261 -67 -22
-11 -43 -19 -48 -17 -8 3 -289 277 -344 336 l-28 30 16 71 c20 89 20 153 0
244 -25 110 -84 215 -163 289 -81 76 -145 112 -247 138 -141 36 -254 24 -394
-42 -103 -49 -209 -150 -252 -240 -79 -161 -77 -351 3 -511 41 -80 162 -201
245 -245 144 -75 337 -80 489 -13 l49 22 163 -163 c90 -90 163 -166 163 -171
0 -4 -19 -35 -41 -69 -73 -107 -119 -251 -119 -372 0 -35 -5 -78 -11 -96 -19
-53 -51 -60 -272 -60 l-193 0 -45 29 c-24 15 -60 45 -79 66 -61 65 -63 65
-340 65 -230 0 -254 -2 -290 -20 -51 -26 -82 -72 -88 -131 -7 -70 5 -115 41
-156 50 -57 75 -63 267 -63 189 0 201 -3 260 -65 80 -84 58 -79 408 -85 l314
-5 29 -33 29 -32 0 -249 0 -248 -25 -25 c-23 -23 -33 -25 -157 -31 -175 -7
-347 3 -374 23 -12 8 -122 112 -246 230 -176 170 -233 218 -265 228 -139 41
-282 -40 -283 -161 0 -56 21 -97 76 -146 27 -24 149 -140 271 -258 122 -118
241 -230 264 -248 l41 -35 307 0 c304 0 308 0 342 -23 18 -12 39 -34 46 -47
18 -35 16 -106 -4 -147 -30 -64 -21 -63 -643 -63 -596 0 -601 0 -653 -48 -79
-71 -61 -227 33 -285 35 -22 39 -22 622 -27 576 -5 587 -5 615 -26 60 -45 67
-161 13 -216 l-28 -28 -310 0 c-301 0 -310 -1 -350 -22 -23 -13 -144 -122
-269 -243 -125 -121 -254 -244 -285 -273 -86 -81 -106 -140 -73 -220 47 -112
178 -157 280 -97 25 14 144 123 264 240 121 117 233 221 250 230 28 14 65 16
262 13 l231 -3 24 -28 24 -28 0 -260 0 -261 -29 -29 -29 -29 -307 0 c-345 0
-328 3 -421 -81 -30 -27 -67 -54 -80 -59 -14 -6 -103 -10 -198 -10 -163 0
-175 -1 -207 -23 -56 -37 -79 -81 -79 -149 0 -69 16 -113 56 -150 48 -45 71
-48 320 -48 267 0 259 -2 360 86 33 29 73 58 88 64 16 6 113 10 231 10 180 0
205 -2 225 -18 24 -20 39 -78 40 -158 1 -123 55 -290 129 -398 l32 -46 -164
-167 -164 -167 -59 26 c-109 49 -214 59 -341 32 -209 -43 -371 -196 -423 -399
-46 -181 -14 -336 103 -490 83 -109 197 -176 344 -202 294 -50 568 130 643
423 24 94 25 162 4 255 l-16 71 28 30 c16 16 100 97 186 180 l157 149 90 -31
c50 -17 128 -35 173 -41 46 -6 101 -14 123 -17 l40 -7 5 -545 5 -545 27 -47
c70 -118 241 -115 306 7 14 27 16 103 17 692 0 652 0 662 21 690 50 68 135 78
197 23 l32 -28 5 -299 c4 -261 7 -302 23 -331 20 -37 77 -77 124 -87 74 -15
173 43 193 113 5 21 10 157 10 314 l0 276 26 31 c51 61 150 64 205 5 l24 -26
5 -676 c4 -489 8 -683 17 -697 14 -26 62 -69 90 -84 65 -33 184 10 226 84 9
14 13 209 17 690 6 754 0 707 83 740 65 26 135 2 170 -58 9 -17 13 -181 17
-677 5 -640 5 -656 26 -695 62 -119 224 -125 308 -12 21 28 21 38 26 700 4
499 8 677 17 693 31 53 116 77 172 47 67 -35 71 -54 71 -361 0 -208 3 -280 14
-305 27 -65 119 -116 183 -101 53 12 110 52 129 91 17 34 20 70 24 323 6 319
7 327 75 356 64 26 122 11 164 -42 21 -26 21 -32 21 -692 l0 -665 25 -43 c54
-93 189 -111 268 -37 59 57 57 36 57 605 0 288 3 533 6 545 7 27 41 40 129 48
84 8 198 37 263 65 l47 21 183 -188 c148 -152 182 -191 177 -208 -19 -62 -25
-98 -25 -170 -1 -338 297 -602 627 -556 159 22 251 68 352 176 91 98 151 244
151 370 0 75 -26 182 -61 253 -38 77 -125 173 -203 224 -148 96 -369 113 -525
42 l-54 -24 -31 27 c-71 63 -220 211 -258 255 l-40 48 27 31 c72 86 130 268
142 441 6 93 8 100 35 123 29 25 31 25 244 25 l215 0 68 -64 c107 -101 94 -97
376 -94 l243 3 44 30 c55 39 78 85 78 155 0 70 -31 126 -85 157 -37 21 -53 23
-200 23 -88 0 -176 5 -196 10 -19 6 -62 34 -95 63 -32 30 -69 59 -81 65 -15 8
-113 12 -321 12 l-299 0 -27 26 -26 27 0 264 0 265 29 29 29 29 224 0 c202 0
226 -2 254 -19 18 -11 132 -118 255 -239 123 -120 238 -227 256 -236 18 -9 55
-16 83 -16 142 0 243 143 182 257 -10 18 -103 114 -207 214 -105 100 -230 222
-280 269 -49 48 -108 99 -129 114 l-39 26 -304 0 -305 0 -34 34 c-30 30 -34
40 -34 88 0 36 7 64 20 86 38 63 32 62 642 62 620 0 590 -3 652 73 61 76 41
202 -41 257 l-37 25 -577 5 c-567 5 -578 5 -606 26 -59 44 -66 158 -12 218
l27 31 308 3 308 3 37 28 c21 15 166 150 323 300 306 292 317 305 302 385 -9
46 -59 104 -111 127 -49 23 -133 24 -181 4 -21 -9 -118 -95 -237 -213 -111
-109 -218 -212 -238 -229 l-37 -30 -175 -8 c-221 -9 -292 -2 -324 33 -23 25
-23 27 -23 273 0 244 0 248 23 274 33 39 79 44 375 44 l264 0 51 41 c29 22 69
55 90 73 l39 32 188 5 188 5 39 31 c21 17 46 45 56 62 23 39 24 129 4 169 -20
37 -65 79 -100 92 -37 14 -486 15 -523 1 -15 -6 -52 -33 -82 -61 -95 -87 -82
-83 -307 -87 -273 -6 -285 1 -285 154 0 132 -51 288 -132 401 l-33 45 165 159
c102 98 171 157 180 154 8 -2 41 -13 72 -25 81 -29 214 -36 306 -16 113 24
196 69 283 156 153 153 202 339 144 555 -47 175 -218 335 -406 380 -300 70
-608 -109 -684 -401 -19 -73 -19 -210 0 -289 l14 -60 -184 -184 -183 -184 -59
25 c-72 31 -164 54 -267 67 -48 6 -85 16 -95 26 -14 14 -17 78 -21 574 l-5
558 -28 36 c-38 50 -75 67 -143 67 -70 0 -123 -28 -153 -80 -21 -37 -21 -44
-21 -724 0 -759 3 -728 -64 -760 -67 -32 -140 -13 -176 47 -19 30 -20 52 -20
343 0 305 0 312 -23 354 -48 91 -179 119 -262 56 -63 -49 -65 -59 -65 -408 0
-293 -1 -315 -20 -345 -43 -72 -144 -84 -204 -24 l-31 31 -5 704 c-5 695 -5
705 -26 733 -11 15 -36 39 -55 51 -29 21 -44 23 -106 20 -85 -4 -117 -23 -150
-88 l-23 -44 0 -676 c0 -652 -1 -676 -20 -707 -52 -86 -184 -81 -232 8 -17 32
-18 74 -18 706 0 451 -3 681 -11 700 -50 132 -258 144 -319 18 -19 -40 -20
-62 -20 -721 0 -523 -3 -685 -13 -704 -20 -39 -74 -70 -124 -70 -35 0 -50 6
-81 34 l-37 34 -5 334 c-6 380 -6 383 -90 426 -84 42 -186 18 -231 -54 -24
-39 -24 -42 -29 -371 l-5 -333 -32 -31 c-26 -26 -42 -33 -85 -37 -47 -4 -58
-1 -86 23 -19 16 -36 43 -43 68 -8 30 -9 215 -4 661 3 340 3 643 -1 673 -14
115 -103 177 -218 151z m-1424 -618 c41 -12 104 -75 114 -115 11 -43 -2 -121
-24 -152 -63 -89 -216 -82 -280 11 -44 65 -25 181 37 225 54 39 95 47 153 31z
m6090 0 c79 -22 130 -90 130 -172 -1 -92 -70 -158 -167 -158 -99 0 -169 69
-169 166 0 78 49 139 132 164 36 11 32 11 74 0z m-1633 -1335 c72 -17 184 -71
253 -121 119 -88 230 -239 271 -369 35 -110 37 -193 37 -1605 0 -1535 2 -1474
-61 -1625 -81 -195 -243 -345 -446 -411 l-88 -29 -1420 0 -1420 0 -80 27
c-114 39 -197 91 -286 179 -88 88 -146 179 -186 294 l-28 80 0 1500 0 1500 29
89 c60 182 207 347 390 436 55 27 124 53 151 58 29 6 630 10 1435 11 1198 1
1394 -1 1449 -14z m-4411 -5182 c73 -54 94 -147 50 -225 -34 -60 -76 -81 -153
-76 -55 3 -69 8 -96 33 -43 42 -59 77 -59 130 0 70 28 114 95 150 40 21 126
15 163 -12z m6081 12 c121 -62 126 -243 7 -299 -133 -63 -284 53 -247 191 26
94 155 153 240 108z"/>
<path d="M4860 6570 l-1235 -5 -60 -24 c-157 -62 -267 -178 -317 -331 -21 -65
-21 -65 -18 -1445 2 -1319 3 -1382 21 -1440 45 -145 182 -281 339 -337 l65
-23 1295 0 1295 0 68 23 c166 58 295 192 347 361 19 61 20 99 20 1430 l0 1366
-24 68 c-64 181 -215 312 -407 352 -39 8 -89 14 -112 13 -23 -2 -598 -5 -1277
-8z m1253 -388 c70 -29 153 -106 187 -177 l25 -50 0 -1185 0 -1185 -28 -57
c-36 -73 -119 -150 -189 -175 -50 -17 -112 -18 -1163 -18 l-1110 0 -57 27
c-70 32 -133 96 -167 168 l-26 55 0 1190 0 1190 23 47 c46 93 147 172 241 188
25 4 532 7 1126 6 l1080 -1 58 -23z"/>
<path d="M3981 5928 c-52 -15 -78 -36 -101 -82 -18 -38 -20 -61 -20 -232 0
-177 2 -192 23 -229 14 -26 37 -48 67 -62 41 -21 58 -23 215 -23 190 0 228 10
277 68 30 36 36 75 37 242 0 208 -22 274 -103 311 -35 16 -65 18 -201 18 -88
0 -175 -5 -194 -11z"/>
<path d="M4794 5931 c-40 -10 -72 -33 -95 -68 -17 -25 -19 -50 -19 -232 0
-200 1 -205 25 -247 17 -28 39 -49 70 -64 42 -20 57 -21 223 -18 170 3 180 4
214 28 67 45 73 64 76 261 4 194 -3 240 -45 290 -44 52 -74 59 -255 58 -90 -1
-177 -4 -194 -8z"/>
<path d="M5605 5931 c-45 -11 -74 -32 -98 -71 -21 -33 -22 -46 -22 -242 l0
-206 31 -39 c50 -62 70 -68 244 -71 196 -4 231 1 277 41 57 50 63 75 63 265 0
219 -17 269 -105 312 -36 18 -61 20 -201 19 -87 -1 -172 -4 -189 -8z"/>
<path d="M3940 5048 c-76 -39 -81 -60 -78 -295 3 -224 5 -231 78 -280 31 -22
42 -23 222 -23 209 0 222 3 275 64 l31 34 7 174 c8 191 1 237 -41 288 -48 56
-65 60 -266 60 -171 0 -187 -2 -228 -22z"/>
<path d="M4763 5050 c-77 -34 -83 -55 -83 -286 0 -193 1 -202 23 -235 12 -18
38 -44 57 -57 34 -23 39 -23 230 -20 186 3 197 4 228 26 62 45 67 65 67 283
l0 196 -28 41 c-46 66 -69 72 -274 72 -154 0 -184 -3 -220 -20z"/>
<path d="M5590 5063 c-38 -15 -74 -49 -91 -87 -16 -35 -19 -67 -19 -215 0
-200 11 -241 78 -286 36 -24 41 -25 225 -25 213 0 238 6 285 68 27 35 27 37
30 220 4 213 -5 253 -66 300 l-35 27 -196 2 c-108 1 -203 -1 -211 -4z"/>
<path d="M4000 4221 c-56 -11 -99 -42 -120 -86 -18 -37 -20 -62 -20 -221 0
-203 6 -224 73 -278 l39 -31 176 -3 c108 -2 191 1 213 7 21 6 53 29 72 50 33
36 36 45 42 127 4 48 5 138 3 199 -6 133 -25 178 -92 216 -38 22 -53 24 -196
26 -85 1 -171 -2 -190 -6z"/>
<path d="M4840 4221 c-74 -7 -112 -27 -140 -74 -18 -29 -20 -51 -20 -230 0
-221 3 -236 67 -284 l36 -28 184 -3 c171 -3 187 -2 228 18 27 13 53 36 67 58
21 34 23 50 26 207 5 219 -13 281 -91 322 -35 19 -234 27 -357 14z"/>
<path d="M5665 4221 c-81 -7 -127 -30 -158 -81 -21 -33 -22 -47 -22 -230 0
-186 1 -197 23 -232 41 -66 82 -78 279 -78 192 0 221 7 271 64 39 45 45 82 40
283 -3 153 -4 161 -30 200 -41 62 -82 77 -218 79 -63 1 -146 -1 -185 -5z"/>
</g>
</svg>
