<?xml version="1.0" standalone="no"?>
<!DOCTYPE svg PUBLIC "-//W3C//DTD SVG 20010904//EN"
 "http://www.w3.org/TR/2001/REC-SVG-20010904/DTD/svg10.dtd">
<svg version="1.0" xmlns="http://www.w3.org/2000/svg"
 width="1024.000000pt" height="1024.000000pt" viewBox="0 0 1024.000000 1024.000000"
 preserveAspectRatio="xMidYMid meet">
<metadata>
Created by potrace 1.16, written by Peter Selinger 2001-2019
</metadata>
<g transform="translate(0.000000,1024.000000) scale(0.100000,-0.100000)"
fill="#000000" stroke="none">
<path d="M4930 8694 c-328 -60 -537 -168 -743 -384 -94 -98 -141 -163 -205
-280 -48 -87 -106 -257 -121 -350 -7 -41 -11 -353 -11 -852 l0 -788 -100 0
-100 0 0 38 c0 64 -18 108 -60 145 -21 20 -54 39 -73 42 -46 9 -111 -10 -150
-44 -18 -16 -55 -34 -84 -40 -117 -28 -231 -124 -287 -241 -29 -61 -31 -73
-31 -175 0 -92 4 -118 22 -158 58 -125 152 -209 278 -248 l75 -24 0 -367 c0
-336 2 -377 21 -465 46 -212 147 -439 277 -623 100 -142 311 -348 452 -442
133 -89 279 -161 421 -209 l99 -34 0 -330 0 -330 -288 -1 c-327 -1 -371 -8
-510 -75 -133 -64 -260 -201 -314 -338 -33 -84 -33 -247 1 -313 32 -66 93
-125 159 -156 l57 -27 1385 0 1385 0 67 33 c102 50 168 144 184 261 8 63 -16
175 -57 261 -44 93 -186 232 -289 282 -134 66 -159 70 -497 69 l-303 -1 0 333
0 332 73 23 c396 125 741 392 959 744 102 164 167 324 214 528 23 101 24 120
24 476 l0 372 33 6 c51 10 168 70 208 107 50 48 97 120 120 187 30 83 23 215
-14 293 -60 125 -157 210 -284 249 -36 11 -78 31 -95 45 -118 100 -278 15
-278 -147 l0 -38 -100 0 -100 0 0 795 c0 685 -2 807 -16 873 -45 221 -154 430
-316 608 -108 117 -328 259 -487 313 -151 52 -219 63 -401 66 -96 2 -186 1
-200 -1z m405 -314 c163 -42 322 -135 447 -262 127 -129 201 -254 246 -416
l27 -97 0 -1400 c0 -1148 -2 -1411 -14 -1460 -67 -294 -259 -544 -514 -670
-116 -57 -223 -84 -362 -92 -300 -16 -551 81 -751 288 -86 90 -125 146 -174
252 -74 158 -81 204 -87 545 l-5 302 681 0 c752 0 720 -3 779 64 55 63 38 151
-41 210 -28 21 -36 21 -716 24 l-688 2 -6 83 c-4 45 -7 121 -7 170 l0 87 685
0 c671 0 687 0 726 20 105 54 105 192 -1 254 -34 21 -49 21 -718 23 l-683 2
-6 165 -5 166 679 0 679 0 50 25 c27 13 57 38 67 54 36 62 13 144 -56 195 -28
21 -38 21 -720 26 l-692 5 -3 163 -3 162 684 0 684 0 43 23 c82 43 103 137 46
211 -52 68 -35 67 -779 64 l-667 -3 0 44 c0 86 66 257 143 371 150 221 395
379 654 420 90 14 286 4 378 -20z m-1997 -2671 l-3 -63 -37 36 c-34 31 -38 41
-38 83 0 42 4 52 38 83 l37 36 3 -57 c2 -31 2 -84 0 -118z m3554 149 c57 -47
64 -119 17 -173 -17 -19 -35 -35 -40 -35 -5 0 -9 50 -9 110 0 61 4 110 8 110
5 0 15 -6 24 -12z m-3044 -145 l3 -103 -101 0 -100 0 0 105 0 106 98 -3 97 -3
3 -102z m2702 8 c0 -115 5 -111 -122 -111 l-78 0 0 105 0 105 100 0 100 0 0
-99z m-77 -341 l77 0 0 -387 c0 -348 -2 -396 -19 -468 -78 -321 -266 -598
-556 -816 -162 -122 -343 -200 -577 -251 -86 -18 -134 -22 -293 -21 -205 0
-300 14 -478 69 -112 36 -315 141 -418 218 -231 174 -415 423 -508 690 -54
155 -61 221 -61 612 l0 354 104 0 104 0 5 -337 c4 -326 5 -341 29 -423 146
-491 497 -824 969 -920 131 -27 363 -30 484 -6 391 77 718 324 893 672 52 104
79 184 103 307 16 83 19 144 19 409 l0 310 23 -6 c12 -3 57 -6 100 -6z m-1183
-2545 l0 -301 -190 0 -190 0 0 300 0 301 190 0 190 0 0 -300z m905 -620 c70
-24 107 -49 159 -106 45 -50 92 -150 82 -176 -4 -11 -233 -13 -1336 -13
l-1330 1 0 30 c0 37 40 124 74 161 40 42 89 76 137 95 56 22 440 29 1464 26
628 -1 705 -3 750 -18z"/>
</g>
</svg>
