<?xml version="1.0" standalone="no"?>
<!DOCTYPE svg PUBLIC "-//W3C//DTD SVG 20010904//EN"
 "http://www.w3.org/TR/2001/REC-SVG-20010904/DTD/svg10.dtd">
<svg version="1.0" xmlns="http://www.w3.org/2000/svg"
 width="1024.000000pt" height="1024.000000pt" viewBox="0 0 1024.000000 1024.000000"
 preserveAspectRatio="xMidYMid meet">
<metadata>
Created by potrace 1.16, written by Peter Selinger 2001-2019
</metadata>
<g transform="translate(0.000000,1024.000000) scale(0.100000,-0.100000)"
fill="#000000" stroke="none">
<path d="M5291 9080 c-58 -12 -174 -67 -250 -119 -33 -23 -62 -41 -64 -41 -3
0 -218 -122 -478 -271 -1050 -602 -1496 -860 -1819 -1051 -222 -131 -682 -401
-820 -482 -30 -17 -75 -42 -100 -55 -91 -48 -256 -151 -284 -177 -42 -40 -85
-112 -102 -173 -14 -47 -16 -219 -16 -1521 0 -806 3 -1482 7 -1501 12 -55 65
-146 109 -187 23 -21 113 -79 201 -129 88 -50 203 -116 255 -147 110 -66 142
-76 232 -76 l66 0 17 -50 c23 -69 93 -160 151 -197 144 -90 623 -358 663 -370
33 -10 71 -13 134 -9 l88 6 -3 -77 -3 -76 -40 -23 c-25 -14 -48 -38 -62 -65
-21 -39 -23 -55 -23 -210 0 -145 3 -176 21 -223 28 -76 94 -145 192 -202 45
-26 152 -88 237 -139 380 -224 449 -254 552 -241 87 12 146 41 569 283 1244
710 1474 840 1684 958 127 70 502 283 835 473 333 190 666 379 740 421 74 42
254 144 399 226 280 159 349 210 393 292 47 88 50 120 46 688 l-3 530 -25 44
c-32 57 -78 84 -140 84 -73 -1 -135 -42 -159 -106 -7 -18 -11 -141 -11 -332
l0 -303 -77 -45 c-43 -25 -95 -55 -115 -67 -21 -12 -38 -18 -38 -13 0 6 11 15
25 21 14 6 24 17 23 24 -2 7 4 13 12 14 35 3 40 4 38 12 0 4 4 18 10 32 6 14
11 19 11 11 1 -10 4 -11 15 -2 8 7 27 14 43 15 21 3 27 8 25 22 -2 11 -6 35
-10 54 -5 33 -6 34 -13 10 -5 -19 -7 -12 -8 28 -1 45 -3 51 -15 40 -8 -7 -12
-21 -10 -30 1 -10 -1 -18 -7 -18 -5 0 -8 -3 -7 -7 3 -13 -14 -56 -27 -69 -9
-10 -15 -10 -24 -1 -8 8 -11 7 -11 -7 0 -9 -5 -14 -10 -11 -6 4 -17 2 -23 -4
-9 -7 -21 -6 -40 4 -22 11 -28 11 -38 -1 -10 -12 -14 -12 -20 -2 -5 7 -2 20 7
30 41 45 43 70 44 658 0 365 -4 578 -11 603 -13 50 -61 103 -106 118 -79 26
-124 11 -328 -108 -105 -60 -266 -153 -360 -205 -93 -52 -244 -138 -335 -190
-91 -52 -222 -126 -292 -163 -69 -37 -142 -81 -162 -97 -66 -54 -70 -71 -74
-289 l-4 -196 -93 -56 c-52 -31 -96 -57 -99 -57 -3 0 -6 43 -6 95 0 76 -4 104
-20 135 -28 56 -72 83 -141 88 -57 4 -60 3 -191 -73 -73 -43 -185 -108 -248
-143 -63 -36 -207 -118 -320 -182 -113 -64 -241 -136 -285 -160 -150 -81 -480
-272 -499 -288 -10 -10 -27 -35 -37 -57 -16 -34 -19 -67 -19 -236 l0 -196
-121 -69 c-66 -38 -147 -86 -180 -107 -33 -20 -62 -37 -64 -37 -3 0 -5 141 -5
313 l0 312 58 35 c31 19 118 69 192 110 176 99 172 91 170 322 0 95 2 222 6
281 6 96 9 109 28 119 20 11 21 10 3 -9 -16 -18 -18 -43 -17 -237 0 -203 1
-218 20 -238 15 -17 17 -24 8 -30 -10 -6 -9 -8 3 -8 23 0 32 -29 17 -48 -11
-13 -10 -15 4 -9 32 12 98 57 98 68 0 5 4 7 10 4 5 -3 42 12 82 34 40 21 83
42 95 46 24 7 296 162 342 194 50 36 67 151 32 219 -43 83 -116 124 -219 123
-63 0 -132 -25 -188 -66 -17 -12 -22 -13 -21 -3 1 34 -5 44 -34 55 -22 9 -38
9 -53 2 -16 -7 -14 -4 6 13 15 13 177 108 360 212 183 105 407 233 498 285 91
52 194 111 230 131 36 20 220 126 410 235 190 109 386 221 435 249 200 110
296 164 415 234 69 40 271 156 450 258 l325 184 5 -213 c5 -202 6 -214 28
-245 30 -42 70 -62 124 -62 35 0 69 14 178 75 l135 74 5 -357 c5 -334 6 -359
25 -391 29 -49 67 -73 122 -78 73 -7 130 27 166 96 l27 55 0 412 c0 389 -1
416 -21 479 -26 86 -90 154 -162 174 -80 23 -148 7 -289 -67 -4 -2 -8 97 -10
220 -3 217 -4 224 -30 280 -39 83 -86 122 -284 235 -307 174 -311 176 -410
180 -101 3 -132 -9 -316 -116 l-117 -69 -3 222 -3 221 -30 59 c-16 32 -48 74
-71 95 -23 20 -145 93 -271 163 -255 141 -300 157 -412 139 -65 -11 -80 -17
-202 -91 -46 -27 -86 -50 -89 -50 -3 0 -4 82 -4 182 2 206 -8 264 -58 341 -17
26 -49 60 -72 76 -57 39 -401 240 -456 267 -52 26 -155 37 -219 24z m221 -398
c37 -23 89 -52 115 -65 27 -14 59 -34 72 -44 l24 -19 -219 -124 c-284 -160
-799 -454 -1034 -590 -102 -59 -374 -214 -605 -345 -420 -238 -730 -415 -965
-550 -69 -40 -219 -125 -333 -191 -274 -157 -291 -170 -344 -272 -34 -66 -43
-93 -43 -133 0 -60 4 -61 -116 11 -89 55 -107 59 -144 33 -48 -33 -49 -38 -50
-232 0 -101 2 -182 4 -180 2 2 6 42 9 89 7 100 5 90 16 90 5 0 12 -20 15 -45
4 -25 10 -45 14 -45 4 0 7 -12 8 -27 3 -94 14 -194 24 -212 6 -12 8 -21 5 -21
-3 0 2 -16 10 -36 15 -37 58 -84 76 -84 6 0 8 -3 5 -8 -2 -4 1 -14 7 -23 13
-17 99 -74 107 -70 2 1 6 -2 8 -8 2 -6 -1 -11 -7 -11 -14 0 -339 166 -434 222
l-68 40 3 346 3 347 34 63 c40 73 75 103 192 165 47 25 146 80 220 122 73 43
397 228 719 413 322 184 590 338 595 342 6 4 132 77 280 162 304 174 457 263
690 398 344 199 914 521 945 533 35 15 97 -1 162 -41z m258 -725 l0 -103 -42
-24 c-24 -13 -74 -42 -113 -65 -38 -23 -157 -90 -264 -151 -106 -60 -206 -122
-222 -138 -51 -52 -50 -127 3 -171 16 -14 39 -25 50 -25 19 0 213 107 618 340
332 191 594 339 623 349 71 27 112 14 310 -102 81 -48 103 -67 76 -67 -13 0
-355 -192 -1314 -738 -389 -221 -417 -237 -645 -369 -219 -128 -920 -528
-1330 -762 -116 -66 -220 -132 -242 -154 -47 -49 -96 -145 -104 -208 -4 -27
-9 -49 -13 -49 -3 0 -40 21 -81 45 -86 52 -124 57 -164 20 l-26 -24 0 -228 c0
-130 4 -234 10 -243 7 -10 10 36 12 140 2 201 2 197 11 206 4 4 7 -19 7 -52 0
-42 3 -55 10 -44 8 12 10 11 10 -7 0 -12 4 -24 9 -27 4 -3 6 -17 3 -31 -2 -14
1 -32 8 -40 10 -12 10 -15 -1 -16 -10 0 -11 -2 -1 -6 6 -2 12 -20 12 -39 0
-19 4 -34 8 -34 5 0 9 -7 9 -15 0 -40 47 -113 89 -140 46 -29 52 -42 32 -64
-11 -11 -10 -13 5 -8 9 4 17 2 17 -4 0 -6 4 -8 9 -5 10 7 25 -24 15 -33 -10
-10 -254 123 -254 139 0 12 -2 13 -9 1 -7 -10 -26 -3 -92 36 l-84 50 -3 319
c-2 284 0 324 15 368 20 55 85 133 129 156 36 18 547 310 1184 675 806 462
780 445 780 507 0 18 -6 40 -13 48 -47 60 -123 66 -208 17 -272 -156 -1229
-702 -1284 -732 -38 -21 -200 -113 -360 -203 -267 -152 -354 -203 -428 -254
l-27 -19 2 178 c1 114 4 154 7 111 l6 -66 150 85 c83 47 204 117 270 156 156
92 350 203 500 287 66 37 176 100 245 140 69 40 172 98 230 130 150 82 168 92
340 195 85 51 220 128 300 172 152 84 287 163 330 193 14 10 75 44 135 77 121
66 160 88 380 218 132 78 356 204 363 205 1 0 2 -46 2 -103z m-440 18 c-7 -8
-18 -15 -24 -15 -6 0 -2 7 8 15 25 19 32 19 16 0z m-40 -20 c0 -2 -13 -11 -30
-20 -38 -19 -40 -11 -2 9 31 17 32 18 32 11z m-215 -129 c-60 -34 -150 -87
-200 -115 -49 -29 -115 -67 -145 -84 -30 -16 -73 -42 -95 -56 -22 -14 -53 -33
-70 -42 -16 -9 -46 -26 -65 -38 -19 -11 -44 -25 -56 -30 -11 -5 -53 -30 -92
-55 -39 -25 -77 -46 -84 -46 -8 0 -31 -16 -52 -35 -21 -19 -42 -32 -47 -29 -5
3 -9 1 -9 -3 0 -5 -13 -14 -30 -20 -35 -13 -40 -4 -7 16 26 17 215 126 412
239 77 43 250 143 385 220 135 78 250 142 255 142 6 0 -39 -29 -100 -64z
m1775 -545 l0 -198 -62 -33 c-125 -67 -334 -192 -360 -218 -39 -36 -53 -83
-38 -127 13 -39 53 -75 83 -75 11 0 118 56 236 124 119 67 366 209 550 315
278 159 340 191 373 191 45 0 58 -6 225 -103 105 -60 120 -72 105 -82 -28 -19
-1229 -702 -1467 -835 -71 -39 -170 -96 -220 -125 -49 -29 -353 -202 -675
-385 -1032 -587 -1139 -649 -1177 -693 -17 -19 -43 -61 -58 -93 -26 -54 -29
-73 -35 -209 -5 -105 -7 -125 -8 -67 -1 45 -6 82 -11 82 -6 0 -54 29 -107 65
l-98 65 -37 -24 c-22 -15 -41 -38 -48 -58 -7 -22 -10 -121 -9 -280 3 -215 1
-245 -12 -239 -8 3 -48 26 -88 50 l-73 44 3 316 c3 305 4 318 26 367 13 28 42
69 65 91 26 26 203 133 477 289 726 413 733 417 738 475 6 65 -67 126 -140
116 -23 -3 -88 -34 -161 -77 -205 -121 -344 -202 -787 -453 -364 -207 -434
-251 -487 -304 l-63 -61 0 140 c0 86 4 137 10 133 5 -3 7 -12 4 -20 -3 -8 27
7 68 34 96 63 226 141 488 291 118 68 332 192 475 275 143 83 287 166 320 185
33 18 101 57 150 85 50 29 203 117 340 195 138 79 324 187 415 240 91 53 244
141 340 195 96 54 256 146 355 205 99 58 202 117 228 130 55 28 99 68 91 81
-3 5 0 8 8 7 8 -2 12 4 10 17 -5 26 14 8 21 -20 3 -11 5 0 6 25 0 29 -2 40 -8
31 -5 -8 -11 -9 -15 -3 -3 6 -23 8 -44 5 -20 -3 -45 -6 -54 -6 -10 -1 -18 -5
-18 -9 0 -4 -8 -8 -19 -8 -10 0 -24 -7 -31 -15 -7 -8 -17 -12 -22 -9 -6 4 -14
1 -18 -5 -4 -7 -17 -13 -28 -14 -12 -1 -22 -5 -22 -10 0 -4 -4 -6 -9 -2 -5 3
-16 -2 -24 -10 -9 -8 -23 -15 -31 -15 -9 0 -16 -5 -16 -11 0 -5 -4 -8 -9 -4
-5 3 -15 0 -23 -7 -7 -7 -35 -24 -61 -37 -26 -13 -47 -28 -47 -33 0 -5 -4 -6
-10 -3 -5 3 -10 2 -10 -4 0 -6 -7 -7 -17 -4 -9 4 -14 2 -10 -3 3 -5 -3 -10
-14 -10 -26 0 -17 7 86 64 198 109 396 222 432 246 21 14 41 25 46 25 4 1 7
-88 7 -198z m-2790 -40 c0 -5 -10 -11 -22 -14 -22 -6 -22 -6 -4 8 23 17 26 18
26 6z m-90 -45 c0 -2 -8 -10 -17 -17 -16 -13 -17 -12 -4 4 13 16 21 21 21 13z
m-44 -25 c-6 -10 -108 -71 -141 -84 -34 -14 -6 7 68 50 82 47 80 46 73 34z
m2304 -46 c0 -2 -10 -9 -22 -15 -22 -11 -22 -10 -4 4 21 17 26 19 26 11z
m-2660 -1528 c0 -2 -12 -14 -27 -28 l-28 -24 24 28 c23 25 31 32 31 24z m4340
-457 c0 -363 -2 -401 -16 -407 -25 -9 -307 -172 -318 -183 -6 -6 -12 -10 -15
-10 -4 0 -6 180 -6 400 l0 401 34 22 c45 29 304 175 314 176 4 1 7 -179 7
-399z m-5877 143 l147 -85 0 -569 c0 -313 -1 -569 -3 -569 -6 0 -330 171 -414
219 l-93 52 0 576 0 575 108 -58 c59 -31 173 -95 255 -141z m5187 -537 l0
-405 -127 -72 c-71 -39 -140 -80 -155 -91 l-28 -19 0 408 0 408 153 87 c83 47
153 87 155 87 1 1 2 -181 2 -403z m-4518 18 c78 -42 186 -102 238 -132 52 -31
116 -67 142 -81 41 -23 47 -30 53 -67 5 -37 5 -827 -1 -821 -1 1 -4 17 -7 35
-11 66 -18 45 -16 -46 1 -51 3 -92 6 -92 2 0 8 10 13 23 6 16 9 -1 9 -60 1
-46 -1 -83 -3 -83 -7 0 -446 233 -536 284 l-55 32 -3 542 c-1 326 2 542 7 542
5 0 74 -34 153 -76z m1371 49 c-4 -10 -2 -14 4 -10 6 4 13 2 15 -5 4 -10 10
-10 29 -2 19 9 29 9 43 -1 10 -8 15 -18 11 -24 -3 -7 0 -8 9 -5 9 3 16 1 16
-6 0 -6 5 -8 11 -4 8 5 10 -1 7 -20 -3 -16 -1 -29 6 -32 14 -5 19 -44 5 -44
-5 0 -9 -7 -9 -16 0 -8 -5 -12 -11 -9 -6 4 -10 1 -8 -6 1 -8 1 -25 -1 -39 -1
-23 -2 -24 -11 -5 -8 17 -9 16 -6 -7 3 -16 0 -28 -5 -28 -5 0 -12 -8 -15 -17
-12 -32 -53 -64 -74 -58 -10 4 -19 11 -19 16 0 5 -7 9 -15 9 -9 0 -15 10 -16
23 0 12 -2 31 -4 42 -7 37 -7 220 0 237 4 10 11 16 15 13 5 -3 11 -1 15 5 10
16 15 12 8 -7z m4072 -293 c-3 -5 -12 -10 -18 -10 -7 0 -6 4 3 10 19 12 23 12
15 0z m-3194 -47 c13 -16 12 -17 -3 -4 -17 13 -22 21 -14 21 2 0 10 -8 17 -17z
m1089 -392 l0 -399 -92 -53 c-93 -52 -230 -129 -232 -129 -5 0 1 788 6 796 4
6 58 40 120 76 62 36 129 74 148 86 19 11 38 21 43 21 4 1 7 -178 7 -398z
m-1740 345 c-22 -20 -192 -108 -198 -102 -3 3 3 8 12 12 9 3 14 10 11 15 -3 4
4 13 16 19 17 9 20 9 14 0 -5 -8 -3 -11 6 -8 8 3 13 10 12 16 -2 7 4 9 14 5
10 -4 14 -2 10 4 -5 7 0 9 11 6 11 -2 25 2 33 9 17 18 51 37 64 38 5 0 3 -6
-5 -14z m3905 -52 c-30 -24 -75 -45 -75 -37 1 7 77 52 90 52 3 0 -4 -7 -15
-15z m-3435 -58 c0 -11 -19 -15 -25 -6 -3 5 1 10 9 10 9 0 16 -2 16 -4z m3710
-194 l0 -108 -87 -51 c-49 -29 -118 -70 -155 -92 l-68 -40 0 112 0 112 58 35
c59 36 245 140 249 140 2 0 3 -49 3 -108z m-4977 72 c83 -42 250 -136 272
-153 11 -9 46 -30 77 -46 l58 -30 0 -315 c1 -173 3 -340 6 -371 l6 -57 -68
-33 c-71 -34 -101 -61 -121 -113 -15 -40 -16 -253 -2 -297 19 -54 72 -112 126
-138 l50 -23 6 -466 c4 -256 6 -467 4 -468 -1 -1 -52 26 -112 61 -61 35 -165
95 -232 132 -72 40 -124 75 -127 86 -2 10 -2 77 1 148 l6 129 39 40 38 41 0
385 c0 422 0 425 -60 461 l-30 17 0 518 c0 285 2 518 5 518 3 0 29 -12 58 -26z
m1887 -487 l0 -402 -112 -60 c-61 -33 -159 -89 -217 -124 -58 -35 -111 -65
-116 -67 -7 -3 -11 126 -13 398 l-3 403 128 75 c174 101 316 180 325 180 5 0
8 -181 8 -403z m987 276 c-2 -21 -4 -6 -4 32 0 39 2 55 4 38 2 -18 2 -50 0
-70z m-4576 -59 c68 -37 181 -98 252 -136 l127 -69 0 -141 0 -140 -37 22 c-21
13 -132 75 -248 138 -115 63 -213 120 -217 126 -7 10 -12 266 -5 266 2 0 59
-30 128 -66z m5933 50 c3 -8 2 -12 -4 -9 -6 3 -10 10 -10 16 0 14 7 11 14 -7z
m186 -148 l0 -134 -72 -43 c-40 -23 -84 -49 -97 -58 l-23 -15 4 145 c3 142 11
186 29 158 6 -10 24 -2 76 34 37 26 71 47 75 47 4 0 8 -60 8 -134z m-1539 55
c3 -51 4 -52 28 -48 24 5 25 4 6 -9 -11 -7 -26 -18 -32 -24 -10 -9 -13 6 -13
66 0 87 8 97 11 15z m1099 -325 l0 -114 -128 -76 c-71 -42 -132 -76 -136 -76
-4 0 -5 17 -2 38 3 20 5 71 6 113 l0 77 108 62 c59 35 116 69 127 76 11 7 21
13 23 13 1 1 2 -50 2 -113z m-4884 -155 c18 -11 132 -73 255 -139 123 -66 238
-128 256 -138 l32 -19 3 -133 c2 -74 1 -135 -2 -137 -3 -1 -69 34 -146 79 -78
44 -201 112 -273 151 -71 38 -139 76 -150 85 -17 13 -21 33 -27 143 -7 141 -6
143 52 108z m3874 -6 c0 -2 -10 -9 -22 -15 -22 -11 -22 -10 -4 4 21 17 26 19
26 11z m488 -126 l-3 -132 -93 -53 c-51 -30 -95 -54 -97 -54 -8 0 -4 228 5
295 4 33 8 48 9 34 2 -41 24 -41 93 1 35 22 69 39 76 40 10 0 12 -30 10 -131z
m-1058 -24 c0 -2 -10 -9 -22 -15 -22 -11 -22 -10 -4 4 21 17 26 19 26 11z
m-140 -80 c0 -2 -10 -9 -22 -15 -22 -11 -22 -10 -4 4 21 17 26 19 26 11z m760
-162 c0 -112 -1 -119 -23 -129 -12 -6 -50 -27 -84 -47 l-63 -36 0 114 0 113
78 51 c42 27 80 50 85 51 4 0 7 -53 7 -117z m-2405 27 c-3 -5 -11 -10 -16 -10
-6 0 -7 5 -4 10 3 6 11 10 16 10 6 0 7 -4 4 -10z m-44 -24 c-10 -12 -10 -74 1
-80 2 -1 15 -8 31 -16 37 -18 34 -33 -5 -25 -48 11 -48 11 -48 76 0 48 3 59
16 59 13 0 14 -3 5 -14z m1339 -40 c0 -6 -92 -57 -97 -53 -1 2 18 16 45 30 51
28 52 29 52 23z m509 -56 c0 -10 -3 -8 -9 5 -12 27 -12 43 0 25 5 -8 9 -22 9
-30z m179 -127 l-3 -127 -85 -52 c-47 -29 -88 -53 -92 -53 -5 -1 -8 64 -8 144
0 95 4 145 11 145 5 0 7 -5 3 -12 -4 -6 8 -2 27 9 73 46 125 73 137 73 10 0
12 -29 10 -127z m-588 53 c0 -2 -8 -10 -17 -17 -16 -13 -17 -12 -4 4 13 16 21
21 21 13z m-1253 -128 c-3 -7 -5 -2 -5 12 0 14 2 19 5 13 2 -7 2 -19 0 -25z
m21 -129 c9 -1 22 -1 27 0 6 1 -3 -10 -20 -24 -34 -29 -50 -32 -41 -9 3 9 7
41 8 72 l2 57 3 -47 c3 -36 8 -48 21 -49z m1372 -54 l0 -114 -72 -42 c-40 -23
-151 -88 -245 -145 l-173 -102 0 107 c0 60 3 144 7 187 7 75 8 76 13 32 l5
-48 115 66 c113 64 328 173 343 174 4 0 7 -52 7 -115z m-495 -5 c10 -11 16
-20 13 -20 -3 0 -13 9 -23 20 -10 11 -16 20 -13 20 3 0 13 -9 23 -20z m-896
-172 c-1 -56 -4 -72 -8 -48 -6 35 -3 130 5 130 2 0 3 -37 3 -82z m14 -332 c7
4 9 4 5 -1 -4 -4 -4 -13 2 -20 6 -7 4 -21 -6 -40 -8 -16 -14 -40 -12 -53 3
-23 4 -23 69 17 54 33 74 39 112 38 l47 -2 0 -106 0 -107 -121 -71 c-67 -40
-124 -70 -126 -67 -3 3 -1 146 3 318 5 179 10 265 12 200 2 -85 6 -111 15
-106z m637 71 l0 -113 -42 -22 c-24 -12 -62 -33 -85 -48 l-43 -26 0 114 0 114
77 47 c43 26 81 47 85 47 5 0 8 -51 8 -113z m-568 -29 c2 -21 3 -38 1 -38 -11
0 -22 45 -17 67 8 31 11 26 16 -29z"/>
<path d="M1872 5950 c0 -14 2 -19 5 -12 2 6 2 18 0 25 -3 6 -5 1 -5 -13z"/>
<path d="M1873 5880 c0 -25 2 -35 4 -22 2 12 2 32 0 45 -2 12 -4 2 -4 -23z"/>
<path d="M6005 6599 c-27 -7 -215 -114 -377 -213 -32 -19 -67 -50 -78 -68 -37
-60 -22 -135 32 -168 37 -22 55 -20 113 18 32 21 261 153 400 232 36 20 75 75
75 106 0 33 -46 82 -88 94 -42 11 -37 11 -77 -1z"/>
<path d="M1984 4265 c0 -49 1 -71 3 -48 2 23 2 64 0 90 -2 26 -3 8 -3 -42z"/>
<path d="M2150 4294 c0 -16 5 -36 11 -44 7 -11 9 -5 6 23 -6 47 -17 61 -17 21z"/>
<path d="M2942 3645 c0 -16 2 -22 5 -12 2 9 2 23 0 30 -3 6 -5 -1 -5 -18z"/>
<path d="M6004 3968 c-4 -6 -3 -8 4 -4 5 3 13 0 15 -6 3 -8 6 -6 6 5 1 19 -14
23 -25 5z"/>
<path d="M5903 3909 c-35 -22 -46 -37 -15 -20 22 13 58 40 52 41 -3 0 -20 -10
-37 -21z"/>
<path d="M5901 3854 c0 -11 3 -14 6 -6 3 7 2 16 -1 19 -3 4 -6 -2 -5 -13z"/>
<path d="M5876 3784 c-8 -21 1 -34 18 -28 8 3 12 14 9 25 -6 23 -19 25 -27 3z"/>
<path d="M5927 3788 c-10 -8 -14 -18 -8 -26 6 -10 12 -7 25 12 18 28 10 34
-17 14z"/>
<path d="M5971 3724 c0 -11 3 -14 6 -6 3 7 2 16 -1 19 -3 4 -6 -2 -5 -13z"/>
<path d="M5945 3720 c-3 -5 -1 -10 4 -10 6 0 11 5 11 10 0 6 -2 10 -4 10 -3 0
-8 -4 -11 -10z"/>
<path d="M5866 3633 c-6 -14 -5 -15 5 -6 7 7 10 15 7 18 -3 3 -9 -2 -12 -12z"/>
<path d="M3783 3240 c0 -41 2 -58 4 -37 2 20 2 54 0 75 -2 20 -4 3 -4 -38z"/>
<path d="M3782 2282 c-2 -211 4 -241 53 -280 15 -12 33 -22 39 -22 6 0 -4 9
-22 20 -18 11 -38 32 -44 48 -7 15 -14 113 -18 227 l-6 200 -2 -193z"/>
<path d="M7965 8876 c-54 -24 -68 -49 -73 -131 l-5 -75 -42 -24 c-50 -30 -107
-90 -134 -144 -20 -39 -21 -40 -87 -44 -60 -4 -70 -7 -95 -36 -43 -48 -41
-102 6 -149 34 -34 38 -36 91 -30 54 6 56 5 74 -26 43 -74 73 -107 127 -143
32 -21 61 -42 65 -48 4 -6 8 -41 8 -77 0 -64 2 -68 35 -98 41 -35 79 -40 131
-15 52 25 64 49 64 125 l0 67 70 50 c50 37 78 66 101 107 l31 55 54 0 c66 0
108 20 129 60 25 49 19 88 -19 126 -32 32 -39 34 -97 34 l-64 0 -29 56 c-29
55 -81 108 -133 135 -40 20 -43 27 -43 99 0 76 -15 105 -66 126 -41 17 -60 17
-99 0z m89 -430 c81 -34 90 -136 15 -180 -61 -36 -128 -14 -155 49 -19 47 -18
59 13 95 41 50 73 59 127 36z"/>
<path d="M3581 8774 c-41 -34 -58 -91 -42 -143 15 -52 62 -91 108 -91 111 0
179 113 120 201 -28 42 -60 59 -114 59 -30 0 -50 -7 -72 -26z"/>
<path d="M6705 8741 c-44 -26 -65 -64 -65 -113 0 -124 136 -183 217 -94 18 19
35 47 39 61 19 78 -43 165 -119 165 -23 0 -56 -8 -72 -19z"/>
<path d="M2919 8437 c-91 -61 -66 -206 41 -238 33 -10 44 -9 82 9 24 12 51 35
61 51 21 36 22 102 2 141 -31 60 -124 79 -186 37z"/>
<path d="M2243 8234 c-55 -19 -85 -45 -110 -94 -44 -86 -20 -183 58 -240 60
-43 115 -48 183 -17 116 53 149 183 74 290 -39 55 -137 84 -205 61z"/>
<path d="M8635 7800 c-45 -10 -71 -30 -94 -71 -28 -50 -28 -116 2 -159 82
-123 262 -79 274 67 9 104 -82 186 -182 163z"/>
<path d="M1503 7720 c-57 -29 -89 -70 -109 -136 -23 -81 -7 -144 55 -205 71
-72 151 -85 241 -39 72 37 110 101 110 188 0 119 -77 203 -193 210 -49 2 -71
-2 -104 -18z"/>
<path d="M7527 6336 c-88 -33 -153 -95 -181 -172 -43 -123 -22 -220 66 -299
27 -25 53 -45 57 -45 8 0 155 80 276 150 75 44 80 49 98 101 23 67 18 116 -20
178 -40 64 -96 93 -187 98 -45 2 -85 -2 -109 -11z"/>
<path d="M6879 5976 c-123 -44 -190 -143 -190 -281 0 -29 7 -70 16 -91 29 -71
115 -142 155 -129 32 10 268 141 304 168 34 27 56 80 56 138 0 39 -38 126 -66
151 -60 53 -191 74 -275 44z"/>
<path d="M5710 5303 c-27 -10 -65 -37 -97 -68 -43 -43 -55 -65 -73 -124 -34
-111 -12 -202 64 -269 59 -52 62 -51 224 38 81 45 157 91 169 102 25 23 53 97
53 140 0 38 -24 85 -68 131 -61 63 -175 84 -272 50z"/>
<path d="M8388 5024 c-16 -8 -28 -17 -28 -20 0 -2 12 2 28 9 15 8 35 13 45 12
9 -2 15 1 11 6 -7 13 -24 11 -56 -7z"/>
<path d="M8123 2951 c-63 -29 -98 -88 -98 -166 0 -49 5 -69 24 -97 94 -137
296 -105 339 54 12 45 0 108 -30 156 -41 66 -151 91 -235 53z"/>
<path d="M2130 2759 c-19 -4 -47 -21 -62 -38 -26 -29 -28 -38 -28 -114 0 -143
-42 -187 -179 -187 -70 0 -75 -2 -107 -34 -29 -29 -34 -41 -34 -81 0 -40 5
-52 34 -81 33 -33 37 -34 110 -34 80 0 116 -12 150 -49 15 -17 20 -42 25 -120
5 -76 10 -104 24 -119 46 -51 124 -52 180 -3 30 27 31 33 37 122 8 111 12 122
55 149 25 15 50 20 106 20 55 0 82 5 105 19 65 40 67 146 5 190 -22 16 -45 21
-96 21 -130 0 -175 45 -175 173 0 83 -15 128 -49 147 -41 21 -67 26 -101 19z"/>
<path d="M7434 2647 c-65 -59 -57 -167 16 -210 46 -28 103 -22 144 13 50 44
63 90 41 147 -21 55 -63 83 -123 83 -34 0 -49 -6 -78 -33z"/>
<path d="M6603 2405 c-49 -21 -66 -56 -71 -148 -3 -50 -11 -91 -20 -106 -23
-35 -72 -51 -153 -51 -67 0 -73 -2 -105 -34 -28 -28 -34 -42 -34 -75 0 -86 54
-135 137 -124 61 8 108 -4 142 -36 29 -27 31 -33 31 -103 0 -135 34 -188 119
-188 93 0 123 38 128 164 2 49 9 98 14 108 21 39 69 58 150 58 61 0 81 4 101
20 58 45 61 131 6 182 -28 26 -36 28 -107 28 -83 0 -129 19 -152 62 -7 13 -14
61 -16 107 -2 96 -19 123 -82 141 -45 12 -49 12 -88 -5z"/>
</g>
</svg>
