<?xml version="1.0" standalone="no"?>
<!DOCTYPE svg PUBLIC "-//W3C//DTD SVG 20010904//EN"
 "http://www.w3.org/TR/2001/REC-SVG-20010904/DTD/svg10.dtd">
<svg version="1.0" xmlns="http://www.w3.org/2000/svg"
 width="1024.000000pt" height="1024.000000pt" viewBox="0 0 1024.000000 1024.000000"
 preserveAspectRatio="xMidYMid meet">
<metadata>
Created by potrace 1.16, written by Peter Selinger 2001-2019
</metadata>
<g transform="translate(0.000000,1024.000000) scale(0.100000,-0.100000)"
fill="#000000" stroke="none">
<path d="M5405 8965 c-277 -52 -490 -254 -555 -527 -17 -73 -20 -119 -20 -373
l-1 -290 -162 -77 c-572 -274 -1105 -536 -1196 -589 -151 -88 -241 -157 -357
-273 -234 -234 -350 -450 -445 -831 -9 -37 -14 -269 -19 -875 l-6 -825 -32
-165 c-55 -289 -71 -519 -53 -780 21 -311 81 -544 206 -805 237 -493 607 -866
1090 -1100 393 -191 730 -269 1160 -268 513 1 1015 150 1426 425 375 250 625
526 798 883 146 300 219 596 237 958 8 173 -7 354 -56 662 l-40 250 0 740 c0
598 -3 759 -15 837 -53 353 -206 655 -458 901 -162 159 -294 239 -867 525
-516 258 -813 402 -828 402 -26 0 -31 462 -6 570 48 211 285 331 469 237 91
-46 138 -112 180 -252 39 -132 84 -207 184 -305 129 -128 266 -188 451 -197
205 -10 382 57 525 201 92 93 144 177 182 291 22 68 27 102 31 231 4 139 2
154 -18 202 -41 95 -127 144 -212 122 -59 -16 -85 -36 -116 -89 -25 -43 -27
-55 -33 -206 -6 -179 -18 -220 -85 -289 -58 -60 -107 -79 -209 -84 -74 -3
-100 0 -146 17 -104 39 -179 127 -208 241 -35 133 -86 226 -175 316 -167 167
-385 233 -621 189z m776 -2177 c-3 -127 -11 -125 -11 2 0 57 3 100 6 97 4 -4
6 -48 5 -99z m-1079 60 c50 -15 122 -78 151 -132 l22 -41 0 -696 0 -696 -30
-48 c-113 -183 -375 -175 -473 14 l-33 64 3 671 3 671 30 60 c48 95 126 144
234 145 29 0 71 -5 93 -12z m-693 -270 c9 15 24 -1250 15 -1273 -8 -20 -53
-31 -73 -18 -14 9 -16 75 -14 657 1 356 4 654 7 662 5 12 11 9 32 -13 18 -20
27 -24 33 -15z m-1009 13 c0 -5 -7 -12 -16 -15 -14 -5 -15 -4 -4 9 14 17 20
19 20 6z m2290 -659 c0 -475 -3 -631 -12 -640 -7 -7 -21 -12 -33 -12 -12 0
-26 5 -33 12 -9 9 -12 160 -12 620 0 589 1 608 20 625 10 10 30 20 45 21 l25
2 0 -628z m-2167 279 c-12 -10 -28 -33 -37 -52 -12 -29 -14 -31 -15 -11 -1 22
48 82 66 82 4 -1 -2 -9 -14 -19z m3274 -253 c-3 -8 -6 -5 -6 6 -1 11 2 17 5
13 3 -3 4 -12 1 -19z m20 -110 c-3 -8 -6 -5 -6 6 -1 11 2 17 5 13 3 -3 4 -12
1 -19z m-3340 -51 c44 -40 39 -109 -11 -149 -72 -59 -171 47 -125 133 13 26
68 50 94 42 11 -3 30 -15 42 -26z m-460 -79 c-2 -13 -4 -5 -4 17 -1 22 1 32 4
23 2 -10 2 -28 0 -40z m3810 -60 c-2 -18 -4 -4 -4 32 0 36 2 50 4 33 2 -18 2
-48 0 -65z m-3805 -606 c2 -111 0 -202 -4 -202 -5 0 -7 141 -6 313 2 311 6
275 10 -111z m3820 -59 c2 -13 8 -23 14 -23 6 0 16 -11 22 -25 10 -21 9 -27
-3 -31 -8 -4 -15 -10 -15 -15 0 -4 6 -6 14 -3 20 8 58 -14 50 -28 -5 -8 -1 -9
11 -4 15 5 16 4 5 -9 -11 -13 -10 -14 4 -9 9 3 16 10 16 15 0 4 6 6 13 4 32
-12 36 10 40 180 l3 170 2 -175 2 -175 -167 -80 c-492 -235 -847 -480 -1224
-842 -77 -74 -91 -83 -124 -83 -29 0 -44 7 -71 34 -29 29 -34 41 -34 81 0 47
2 50 103 153 199 203 431 382 735 566 148 90 432 239 525 277 l57 23 2 225 2
226 7 -215 c4 -118 9 -225 11 -237z m175 235 c-3 -8 -6 -5 -6 6 -1 11 2 17 5
13 3 -3 4 -12 1 -19z m-27 -264 c0 -2 -7 -4 -15 -4 -8 0 -15 4 -15 10 0 5 7 7
15 4 8 -4 15 -8 15 -10z m-3560 -78 c69 -35 149 -77 178 -95 29 -17 55 -31 57
-31 18 0 342 -209 451 -290 225 -168 473 -394 500 -457 18 -42 9 -86 -26 -123
-22 -24 -36 -30 -69 -30 -39 0 -48 7 -179 129 -175 165 -245 223 -413 343
-216 154 -426 281 -694 420 -140 72 -190 104 -91 57 25 -11 51 -21 58 -23 7
-1 18 -4 23 -7 6 -3 16 -4 23 -3 6 1 16 2 22 3 5 0 7 7 4 15 -4 10 3 16 23 18
21 2 27 8 25 22 -2 11 4 26 13 32 16 12 16 15 2 28 -8 8 -18 12 -22 8 -5 -4
-5 -1 -1 6 5 8 -2 16 -22 23 -17 6 -33 17 -36 24 -7 19 20 9 174 -69z m-360
-46 c8 -5 11 -10 5 -10 -5 0 -17 5 -25 10 -8 5 -10 10 -5 10 6 0 17 -5 25 -10z
m51 -242 c93 -48 99 -53 99 -82 0 -17 -21 -128 -46 -246 -68 -321 -84 -444
-84 -660 0 -206 14 -322 59 -496 67 -254 215 -528 406 -749 77 -88 92 -116 28
-50 -26 28 -60 60 -74 73 -24 21 -27 22 -40 5 -9 -11 -10 -14 -1 -9 6 4 12 3
12 -2 0 -17 -12 -21 -36 -12 -20 8 -24 6 -24 -9 0 -17 -31 -23 -46 -8 -4 4
-18 7 -31 7 l-24 0 27 -35 c48 -64 16 -36 -44 38 -130 159 -217 318 -295 538
-79 221 -107 391 -107 649 0 205 14 360 46 515 47 226 55 280 61 433 3 83 8
152 11 152 2 0 49 -23 103 -52z m3902 -95 c4 -111 16 -202 46 -364 55 -294 65
-404 58 -633 -8 -295 -60 -533 -165 -764 -79 -174 -237 -412 -263 -396 -13 8
0 26 14 18 7 -3 3 2 -8 11 -11 9 -32 15 -47 12 -16 -2 -29 2 -32 10 -3 7 -17
13 -31 13 -14 0 -25 6 -25 13 0 8 -4 7 -10 -3 -5 -8 -10 -11 -10 -7 0 4 -10 3
-21 -4 -26 -13 -21 -4 27 56 17 22 60 83 94 135 270 412 359 934 250 1460 -41
195 -86 418 -94 458 l-6 33 102 49 c56 28 104 50 108 50 4 0 10 -66 13 -147z
m-3530 -251 c9 -10 22 -32 28 -49 10 -30 13 -31 82 -38 62 -7 76 -12 104 -40
55 -55 56 -114 3 -166 -51 -52 -134 -30 -166 45 -7 18 -30 41 -53 54 l-41 23
-11 -28 c-26 -63 -39 -119 -39 -159 0 -37 4 -45 27 -56 42 -20 53 -52 53 -163
1 -171 37 -376 95 -528 134 -356 399 -655 732 -825 139 -71 227 -102 394 -137
544 -115 1129 87 1491 515 114 134 230 341 283 505 54 168 68 279 69 544 l2
243 27 24 c40 34 100 33 132 -2 13 -14 27 -34 29 -43 18 -61 26 -158 26 -308
0 -259 -30 -433 -111 -635 -98 -247 -222 -424 -446 -638 -230 -219 -527 -368
-869 -434 -171 -32 -301 -40 -464 -27 -535 43 -1037 336 -1323 771 -276 421
-362 997 -216 1448 29 86 60 122 108 122 24 0 44 -7 54 -18z m744 -439 c153
-161 174 -214 109 -279 -39 -39 -76 -44 -117 -16 -26 17 -171 177 -202 222
-46 67 4 159 88 160 37 0 45 -6 122 -87z m1949 24 c34 -30 42 -82 32 -207 -20
-252 -98 -469 -233 -645 -54 -70 -132 -152 -140 -147 -3 1 -5 -1 -6 -5 -2 -16
-22 -33 -32 -26 -5 3 -7 1 -3 -5 14 -23 -300 -220 -320 -200 -3 4 13 15 35 25
23 11 38 23 34 27 -5 4 -3 7 2 6 31 -7 57 1 52 15 -4 8 -1 17 5 21 7 4 8 3 4
-4 -4 -7 -2 -12 3 -12 6 0 11 4 11 10 0 5 3 9 8 9 4 -1 14 -1 22 1 11 1 9 4
-5 10 -18 8 -17 9 6 7 14 0 40 9 57 22 41 29 41 36 0 16 -30 -15 -31 -15 -13
0 11 9 19 18 18 20 -2 3 0 5 3 4 4 0 11 5 15 13 7 11 11 10 19 -2 5 -8 10 -10
10 -4 0 18 -28 37 -45 30 -8 -3 -15 -1 -15 5 0 6 -9 8 -21 4 -14 -5 -25 -2
-30 6 -7 11 -9 10 -9 -4 0 -11 -5 -17 -12 -14 -7 2 -21 0 -30 -4 -12 -7 -18
-4 -23 12 -4 12 -12 18 -21 15 -8 -3 -14 1 -15 12 -1 16 -2 16 -6 -1 -2 -9 -9
-15 -14 -12 -5 4 -9 2 -9 -3 0 -12 -49 -22 -55 -12 -3 5 32 33 77 63 46 30
119 93 164 139 179 184 262 364 294 633 15 126 25 160 57 185 36 28 94 26 129
-3z m-2233 -267 c27 -22 83 -114 165 -275 98 -191 240 -348 400 -441 34 -20
60 -39 58 -41 -8 -8 -186 84 -178 92 4 5 -1 5 -10 2 -10 -4 -18 -2 -18 3 0 17
-21 11 -41 -12 -21 -26 -25 -43 -6 -32 8 5 7 2 -2 -10 -13 -15 -12 -18 7 -22
21 -6 39 -34 22 -34 -6 0 -10 5 -10 12 0 6 -6 3 -14 -7 -11 -16 -16 -17 -29
-7 -13 11 -15 10 -13 -4 3 -22 23 -29 40 -15 7 6 16 7 20 3 7 -7 11 -8 39 -11
8 -1 7 -4 -3 -11 -19 -12 -43 -13 -35 -1 9 16 -9 20 -23 5 -10 -11 -10 -14 2
-14 8 0 16 -5 18 -12 3 -7 9 -8 19 -3 28 18 42 15 24 -6 -17 -18 -16 -19 11
-30 16 -7 32 -12 36 -11 5 1 7 -3 5 -10 -1 -7 13 -17 31 -23 19 -6 37 -17 42
-25 4 -7 13 -9 19 -6 6 4 11 2 11 -3 0 -6 6 -11 14 -11 8 0 21 -6 28 -13 11
-10 85 -34 130 -41 7 -1 18 -5 24 -9 6 -3 25 -8 43 -9 17 -1 31 -6 31 -10 0
-4 9 -5 20 -3 11 2 20 0 20 -6 0 -13 -20 -11 -103 7 -279 61 -533 226 -709
458 -99 131 -218 407 -218 506 0 44 51 97 96 99 6 1 23 -8 37 -19z m1326 -335
c25 -29 31 -45 31 -81 0 -39 -5 -51 -34 -80 l-34 -34 -227 0 -227 0 -29 31
c-39 42 -47 93 -23 138 31 58 45 61 290 61 l222 0 31 -35z m-659 -435 c8 -5
11 -10 5 -10 -5 0 -17 5 -25 10 -8 5 -10 10 -5 10 6 0 17 -5 25 -10z m790 0
c-8 -5 -19 -10 -25 -10 -5 0 -3 5 5 10 8 5 20 10 25 10 6 0 3 -5 -5 -10z m240
-10 c0 -5 -5 -10 -11 -10 -5 0 -7 5 -4 10 3 6 8 10 11 10 2 0 4 -4 4 -10z
m-320 -20 c-8 -5 -19 -10 -25 -10 -5 0 -3 5 5 10 8 5 20 10 25 10 6 0 3 -5 -5
-10z m-53 -16 c-3 -3 -12 -4 -19 -1 -8 3 -5 6 6 6 11 1 17 -2 13 -5z m-837
-44 c0 -5 -4 -10 -10 -10 -5 0 -10 5 -10 10 0 6 5 10 10 10 6 0 10 -4 10 -10z
m1030 -114 c0 -7 -133 -54 -185 -65 -49 -10 -147 -22 -112 -14 9 2 17 7 17 11
0 4 16 8 36 9 19 1 41 6 47 10 7 5 27 10 45 12 18 1 56 11 85 21 58 20 67 22
67 16z m-522 -91 c3 -3 -16 -5 -41 -5 -26 0 -47 4 -47 8 0 9 80 6 88 -3z m192
3 c0 -4 -19 -8 -42 -7 -34 1 -38 2 -18 8 32 9 60 9 60 -1z m-1715 -278 c10
-11 16 -20 13 -20 -3 0 -13 9 -23 20 -10 11 -16 20 -13 20 3 0 13 -9 23 -20z"/>
<path d="M6774 4958 c-3 -4 4 -8 15 -8 12 0 21 4 21 8 0 5 -7 9 -15 9 -9 0
-18 -4 -21 -9z"/>
<path d="M6822 4945 c0 -16 2 -22 5 -12 2 9 2 23 0 30 -3 6 -5 -1 -5 -18z"/>
<path d="M6896 4838 c3 -4 9 -8 15 -8 5 0 9 4 9 8 0 5 -7 9 -15 9 -8 0 -12 -4
-9 -9z"/>
<path d="M3260 4760 c0 -5 5 -10 10 -10 6 0 10 5 10 10 0 6 -4 10 -10 10 -5 0
-10 -4 -10 -10z"/>
<path d="M3101 3036 c-2 -16 23 -80 34 -88 5 -4 17 -8 25 -8 11 1 10 4 -5 16
-11 8 -19 24 -17 34 2 13 -2 20 -12 20 -8 0 -17 8 -19 18 -3 9 -5 13 -6 8z"/>
<path d="M6886 2894 c-4 -10 -1 -14 6 -12 15 5 23 28 10 28 -5 0 -13 -7 -16
-16z"/>
<path d="M6486 2887 c3 -10 9 -15 12 -12 3 3 0 11 -7 18 -10 9 -11 8 -5 -6z"/>
<path d="M3657 2873 c3 -7 9 -13 14 -13 5 0 9 6 9 13 0 8 -6 14 -14 14 -8 0
-12 -6 -9 -14z"/>
<path d="M3617 2839 c7 -7 15 -10 18 -7 3 3 -2 9 -12 12 -14 6 -15 5 -6 -5z"/>
<path d="M3659 2838 c0 -7 -2 -21 -4 -31 -3 -14 2 -17 18 -15 20 3 23 10 18
48 -2 15 -31 12 -32 -2z"/>
<path d="M6475 2839 c-4 -6 -4 -13 -1 -16 3 -4 6 -1 6 6 0 7 5 9 12 5 7 -4 8
-3 4 4 -9 15 -13 15 -21 1z"/>
<path d="M6400 2821 c0 -4 9 -16 20 -26 19 -17 19 -17 15 4 -4 24 11 29 18 6
4 -11 5 -10 3 2 -1 12 -11 18 -29 20 -15 1 -27 -2 -27 -6z"/>
<path d="M3705 2800 c-3 -5 -3 -15 0 -20 4 -6 3 -9 -2 -8 -8 3 -13 -5 -13 -22
0 -22 45 12 46 35 2 25 -19 35 -31 15z"/>
<path d="M6337 2793 c-4 -3 -7 -11 -7 -17 0 -6 4 -5 9 3 5 7 14 10 20 7 6 -4
9 -12 6 -17 -4 -5 1 -9 9 -9 21 0 31 -20 16 -33 -10 -9 -12 -8 -7 6 8 20 -11
23 -19 3 -10 -25 8 -45 33 -35 16 6 21 16 21 45 0 24 -3 32 -9 23 -6 -11 -12
-9 -29 9 -22 23 -32 27 -43 15z"/>
<path d="M6285 2751 c-3 -6 4 -9 15 -8 11 1 20 5 20 9 0 11 -28 10 -35 -1z"/>
<path d="M3750 2741 c0 -6 4 -12 8 -15 5 -3 9 1 9 9 0 8 -4 15 -9 15 -4 0 -8
-4 -8 -9z"/>
</g>
</svg>
