<?xml version="1.0" standalone="no"?>
<!DOCTYPE svg PUBLIC "-//W3C//DTD SVG 20010904//EN"
 "http://www.w3.org/TR/2001/REC-SVG-20010904/DTD/svg10.dtd">
<svg version="1.0" xmlns="http://www.w3.org/2000/svg"
 width="1024.000000pt" height="1024.000000pt" viewBox="0 0 1024.000000 1024.000000"
 preserveAspectRatio="xMidYMid meet">
<metadata>
Created by potrace 1.16, written by Peter Selinger 2001-2019
</metadata>
<g transform="translate(0.000000,1024.000000) scale(0.100000,-0.100000)"
fill="#000000" stroke="none">
<path d="M2155 7910 c-88 -10 -162 -35 -234 -77 -86 -51 -192 -166 -236 -256
-71 -145 -65 68 -63 -2623 3 -2342 4 -2431 22 -2479 70 -188 207 -324 398
-393 l73 -27 3116 -3 3116 -2 54 28 c34 17 65 44 84 71 l30 43 0 478 0 478
-30 43 c-16 23 -50 53 -74 66 l-44 23 -3209 0 -3208 0 0 2046 c0 1552 3 2056
12 2086 17 56 87 131 150 159 51 23 63 24 363 29 334 5 340 6 393 62 73 79 27
216 -83 247 -44 12 -529 13 -630 1z m285 -5100 c0 -256 4 -260 256 -260 l166
0 34 34 34 34 0 176 0 176 201 0 202 0 -7 -127 c-8 -167 2 -228 43 -265 l31
-28 165 0 c90 0 175 4 189 10 14 5 35 24 46 42 18 30 20 51 20 201 l0 167 195
0 195 0 0 -176 0 -176 34 -34 34 -34 177 0 177 0 34 34 34 34 0 176 0 176 200
0 200 0 0 -162 c0 -135 3 -169 18 -198 27 -55 47 -60 240 -60 l174 0 34 34 34
34 0 176 0 176 200 0 200 0 0 -176 0 -176 35 -35 34 -34 181 3 182 3 29 33 29
32 0 175 0 175 196 0 196 0 -2 -142 c-3 -216 -4 -206 34 -244 l34 -34 165 0
c91 0 177 4 191 10 14 5 35 24 46 42 18 30 20 51 20 201 l0 167 319 0 319 0 6
-22 c8 -30 8 -72 0 -92 -5 -13 -22 -16 -83 -16 -97 0 -140 -12 -176 -50 -38
-40 -46 -119 -16 -168 37 -58 73 -72 184 -72 l98 0 -3 -92 -3 -93 -2865 -2
c-1720 -1 -2896 2 -2942 7 -92 11 -120 24 -176 82 -80 82 -88 116 -84 376 l2
142 245 0 245 0 0 -160z"/>
<path d="M7793 7911 c-79 -20 -156 -87 -189 -166 -37 -89 -6 -216 70 -283 61
-53 95 -66 171 -67 59 0 78 5 123 30 154 85 187 267 71 399 -62 71 -165 107
-246 87z"/>
<path d="M4670 7723 c-327 -42 -591 -118 -855 -248 -259 -127 -464 -273 -665
-476 -452 -454 -709 -1067 -710 -1689 0 -497 166 -996 469 -1405 85 -115 303
-335 361 -365 22 -11 54 -20 72 -20 47 1 111 33 137 69 56 78 31 153 -79 246
-204 169 -418 491 -519 779 -57 163 -110 413 -111 524 l0 32 118 0 c95 0 124
4 152 19 76 40 101 126 59 200 -38 68 -59 76 -201 79 -150 4 -137 -17 -108
177 114 764 761 1479 1530 1691 131 36 328 74 386 74 l34 0 0 -112 c0 -88 4
-121 18 -148 39 -79 136 -103 219 -55 63 38 73 64 73 200 l0 115 33 0 c49 0
211 -28 318 -55 315 -79 602 -227 861 -443 292 -242 507 -534 639 -867 72
-183 103 -310 123 -517 l6 -58 -104 0 c-133 0 -160 -6 -201 -44 -59 -56 -59
-150 0 -214 l33 -37 137 -3 136 -4 -6 -61 c-19 -189 -61 -373 -125 -536 -107
-275 -248 -483 -476 -700 -125 -119 -150 -158 -139 -223 14 -78 98 -136 181
-123 59 8 114 48 231 167 123 124 184 199 276 338 230 348 364 766 384 1195
29 661 -261 1352 -769 1830 -149 140 -401 316 -583 408 -143 71 -364 155 -510
193 -188 49 -326 66 -560 69 -126 2 -246 1 -265 -2z"/>
<path d="M2455 7331 c-111 -27 -195 -135 -195 -251 0 -100 60 -191 155 -236
138 -65 308 14 351 164 20 69 13 127 -23 194 -58 106 -172 157 -288 129z"/>
<path d="M8026 7168 c-51 -11 -90 -40 -110 -82 -25 -53 -23 -254 4 -305 27
-53 78 -83 140 -83 57 1 98 19 134 62 35 42 38 60 34 193 -2 98 -6 120 -24
143 -46 62 -108 87 -178 72z"/>
<path d="M7400 7152 c-20 -11 -44 -37 -57 -62 -20 -38 -23 -58 -23 -154 0 -87
5 -120 19 -152 49 -109 217 -115 289 -10 20 29 22 44 22 158 0 137 -10 165
-72 211 -40 30 -132 34 -178 9z"/>
<path d="M4455 7111 c-477 -131 -841 -393 -1116 -802 -152 -226 -269 -525
-269 -688 0 -49 3 -57 38 -91 86 -87 232 -51 263 63 72 274 158 454 301 635
l50 62 26 -20 c15 -11 56 -46 91 -78 l64 -58 -39 -51 c-110 -146 -204 -360
-204 -466 0 -69 74 -137 149 -137 43 0 117 35 136 64 8 12 23 50 34 86 78 251
324 494 601 594 103 38 125 52 150 102 41 80 12 179 -63 215 -44 22 -46 22
-113 5 -95 -24 -254 -93 -351 -154 l-81 -50 -89 84 -88 84 30 26 c131 113 407
242 607 283 135 28 198 126 150 234 -41 92 -106 105 -277 58z"/>
<path d="M5089 7101 c-37 -37 -39 -42 -39 -100 0 -118 36 -158 170 -187 175
-39 384 -128 522 -223 128 -89 125 -72 33 -157 -44 -41 -87 -77 -96 -79 -9 -3
-49 14 -89 39 -155 96 -377 174 -441 156 -91 -26 -127 -99 -99 -202 17 -60 55
-92 150 -123 291 -95 517 -310 615 -585 34 -98 45 -114 98 -139 53 -26 89 -26
144 -1 51 22 83 70 83 122 0 81 -84 280 -176 413 l-66 98 30 26 c17 14 55 48
86 75 56 48 57 49 77 30 37 -34 125 -157 177 -249 61 -107 113 -238 143 -361
18 -74 29 -95 59 -126 64 -64 156 -64 222 2 48 48 49 77 8 239 -92 365 -348
749 -663 995 -112 88 -309 202 -446 260 -144 61 -338 116 -408 116 -51 0 -58
-3 -94 -39z"/>
<path d="M4824 6881 c-47 -29 -63 -57 -57 -99 4 -25 3 -33 -5 -28 -9 5 -12
-17 -12 -83 0 -49 4 -92 8 -95 5 -3 7 9 5 27 l-4 32 16 -34 c8 -19 21 -41 28
-50 10 -12 9 -14 -5 -8 -34 12 -18 -3 24 -23 63 -30 94 -26 139 19 52 52 76
71 64 52 -5 -10 -4 -12 3 -7 16 9 17 216 1 216 -5 0 -8 4 -5 9 8 13 -31 59
-64 76 -40 21 -99 19 -136 -4z"/>
<path d="M4790 5984 c-56 -11 -159 -48 -215 -77 -91 -47 -214 -175 -258 -268
-54 -117 -71 -189 -70 -314 0 -125 15 -191 69 -297 67 -134 237 -279 380 -326
l44 -14 0 -110 c0 -119 10 -157 54 -197 41 -38 122 -41 181 -7 65 39 75 64 75
200 l0 115 42 12 c61 16 144 60 215 113 96 72 178 192 214 314 l12 42 129 0
c147 0 177 9 226 64 55 63 38 151 -41 210 -25 18 -47 22 -169 26 l-140 5 -24
77 c-58 182 -196 321 -399 399 -69 27 -95 32 -190 35 -60 1 -121 0 -135 -2z
m235 -345 c71 -27 147 -100 183 -176 21 -46 26 -73 27 -133 0 -66 -5 -85 -33
-142 -36 -74 -95 -133 -170 -169 -72 -35 -186 -33 -269 5 -197 90 -263 328
-138 498 37 51 104 101 163 123 58 21 172 19 237 -6z"/>
<path d="M3464 5461 c-86 -7 -119 -27 -146 -88 -23 -52 -19 -97 13 -137 35
-44 70 -56 166 -56 98 0 142 16 176 62 26 34 26 106 0 149 -37 65 -83 80 -209
70z m-94 -239 c-7 -3 -16 2 -21 9 -16 25 -9 32 12 13 13 -12 16 -20 9 -22z"/>
<path d="M6212 5460 c-96 -23 -140 -160 -75 -232 34 -38 69 -48 162 -48 49 0
93 4 96 10 3 5 21 17 40 26 39 18 55 54 55 124 0 56 -26 95 -76 116 -36 15
-147 17 -202 4z"/>
<path d="M3166 5140 c-38 -12 -75 -47 -93 -88 -18 -42 -6 -113 47 -273 104
-317 277 -583 528 -812 219 -200 497 -341 811 -413 134 -30 178 -31 222 -1 67
45 86 136 44 216 -21 41 -51 55 -196 90 -196 47 -352 114 -494 212 -97 67
-108 76 -101 87 3 5 44 43 92 83 l86 73 47 -28 c146 -87 371 -176 446 -176 76
0 145 72 145 152 -1 44 -33 113 -63 132 -13 9 -62 29 -110 45 -288 98 -497
296 -598 569 -31 85 -60 116 -123 133 -59 16 -111 3 -157 -40 -35 -34 -39 -43
-39 -87 0 -27 5 -67 11 -89 16 -59 114 -250 165 -322 24 -34 44 -65 44 -70 0
-11 -159 -158 -170 -158 -5 0 -32 29 -61 65 -131 163 -197 303 -274 582 -17
64 -53 101 -113 118 -43 11 -56 12 -96 0z"/>
<path d="M5939 5140 c-44 -13 -79 -42 -100 -81 -10 -21 -19 -43 -19 -49 0 -25
-86 -180 -136 -246 -124 -163 -260 -255 -484 -329 -96 -32 -133 -62 -149 -121
-28 -108 37 -204 138 -204 82 0 320 94 431 170 l58 39 77 -68 c101 -89 106
-98 69 -129 -139 -115 -374 -223 -582 -267 -162 -34 -197 -68 -190 -185 4 -79
25 -111 86 -131 90 -30 455 76 682 198 399 214 714 596 861 1044 48 146 59
240 35 286 -33 66 -106 95 -184 74 -61 -17 -94 -62 -121 -167 -32 -121 -93
-273 -148 -367 -57 -98 -160 -237 -175 -237 -10 0 -169 145 -176 162 -2 4 16
31 40 60 83 101 188 332 188 411 0 99 -101 168 -201 137z"/>
<path d="M4835 4166 c-46 -21 -78 -60 -70 -86 5 -14 3 -20 -3 -16 -6 4 -12
-16 -14 -51 -4 -80 1 -145 13 -138 5 4 9 1 9 -5 0 -6 7 -18 15 -26 21 -22 19
-40 -2 -23 -16 11 -16 11 -5 -1 7 -8 17 -15 23 -15 5 0 9 -4 10 -10 1 -15 40
-34 72 -35 38 0 100 27 92 40 -6 10 41 60 58 60 4 0 7 50 7 110 0 71 -4 110
-11 110 -5 0 -7 4 -4 10 9 14 -38 58 -80 76 -42 17 -71 17 -110 0z"/>
<path d="M7400 4158 c-67 -46 -75 -66 -78 -206 -3 -117 -1 -130 20 -171 55
-103 194 -110 278 -15 l30 35 0 133 c0 122 -2 136 -23 167 -53 79 -156 105
-227 57z"/>
<path d="M7974 4155 c-64 -38 -76 -77 -72 -228 3 -109 6 -129 24 -154 56 -76
149 -96 229 -48 66 38 77 72 73 225 -3 112 -6 132 -24 157 -56 76 -151 96
-230 48z"/>
<path d="M2093 1693 c-49 -5 -98 -44 -109 -88 -11 -43 15 -105 55 -132 31 -21
46 -23 150 -23 134 0 174 14 203 71 23 43 23 66 0 108 -36 66 -106 81 -299 64z"/>
<path d="M2964 1691 c-69 -7 -98 -26 -121 -79 -19 -44 -3 -102 38 -136 l31
-26 2346 0 c2254 0 2349 1 2381 18 35 19 71 72 71 105 0 41 -33 89 -74 108
-40 18 -122 19 -2326 17 -1257 0 -2313 -4 -2346 -7z"/>
<path d="M8012 1680 c-63 -39 -78 -126 -32 -190 59 -83 217 -47 236 54 20 109
-108 194 -204 136z"/>
</g>
</svg>
