<?xml version="1.0" standalone="no"?>
<!DOCTYPE svg PUBLIC "-//W3C//DTD SVG 20010904//EN"
 "http://www.w3.org/TR/2001/REC-SVG-20010904/DTD/svg10.dtd">
<svg version="1.0" xmlns="http://www.w3.org/2000/svg"
 width="1024.000000pt" height="1024.000000pt" viewBox="0 0 1024.000000 1024.000000"
 preserveAspectRatio="xMidYMid meet">
<metadata>
Created by potrace 1.16, written by Peter Selinger 2001-2019
</metadata>
<g transform="translate(0.000000,1024.000000) scale(0.100000,-0.100000)"
fill="#000000" stroke="none">
<path d="M1363 7505 c-33 -33 -35 -39 -31 -85 5 -52 27 -86 64 -100 12 -5 87
-10 168 -11 l146 -3 1 -100 c0 -56 2 -208 5 -338 l5 -238 -176 0 c-173 0 -176
0 -200 -25 -22 -21 -25 -33 -25 -94 l0 -70 -54 6 c-46 5 -57 2 -75 -16 -20
-20 -21 -30 -21 -236 l0 -215 25 -16 c17 -11 40 -15 75 -12 l50 3 0 -61 c0
-47 5 -68 21 -88 20 -25 23 -26 132 -26 62 0 142 -3 179 -6 l66 -7 -1 -116 -2
-116 -180 -3 c-217 -3 -215 -1 -215 -118 l0 -74 -58 0 c-93 0 -92 2 -92 -248
0 -199 1 -213 20 -232 15 -15 33 -20 75 -20 l55 0 0 -64 c0 -54 4 -70 24 -93
l24 -28 171 -4 171 -3 0 -120 0 -119 -176 3 c-174 3 -176 3 -195 -21 -15 -18
-19 -39 -19 -98 l0 -74 -52 6 c-45 6 -56 3 -75 -15 -22 -20 -23 -26 -23 -226
l0 -205 26 -26 c23 -23 31 -25 74 -20 l48 6 4 -71 c6 -102 8 -103 208 -112 88
-4 165 -4 169 -2 12 8 22 -299 20 -609 l-2 -270 101 -144 c103 -148 126 -170
175 -171 51 0 83 26 142 120 32 51 77 118 101 151 l44 59 0 135 0 135 465 0
465 0 0 -147 c0 -158 5 -175 57 -202 15 -8 280 -11 927 -11 l906 0 32 29 33
29 3 151 3 151 1647 0 c1593 0 1649 1 1721 20 127 32 196 73 296 174 76 76 99
107 142 192 95 188 88 49 88 1769 0 1648 4 1517 -54 1664 -57 142 -188 284
-325 352 -165 81 182 73 -3299 76 l-3109 3 2 33 c1 17 2 37 1 43 -1 13 -162
200 -200 231 -26 22 -30 22 -354 23 l-329 0 -35 -35z m684 -262 c38 -49 79
-102 91 -120 l22 -31 2 -2074 c3 -1796 1 -2078 -12 -2108 -8 -19 -43 -90 -78
-158 -50 -97 -67 -120 -77 -112 -7 6 -29 45 -49 86 l-36 76 0 2257 c0 1242 3
2261 7 2264 3 4 19 7 34 7 23 0 39 -15 96 -87z m6435 -254 c81 -17 153 -55
218 -115 71 -67 116 -134 141 -215 18 -59 19 -117 19 -1563 0 -1652 4 -1555
-61 -1677 -57 -107 -160 -194 -278 -235 l-66 -24 -3041 0 c-2884 0 -3042 1
-3056 18 -28 31 -30 57 -7 85 l20 27 3047 2 3047 3 56 28 c116 57 192 178 210
333 6 56 8 626 7 1515 l-3 1425 -34 67 c-40 80 -101 139 -179 175 l-57 27
-3052 3 -3053 2 -16 25 c-17 26 -12 58 14 88 14 16 172 17 3043 17 2188 0
3043 -3 3081 -11z m-5795 -296 c19 -9 46 -33 60 -55 23 -34 25 -45 20 -99 -7
-80 -27 -103 -27 -31 l0 52 -33 0 c-22 0 -44 10 -67 30 -38 32 -59 37 -78 18
-19 -19 -14 -44 12 -62 20 -12 26 -26 28 -63 3 -48 3 -48 42 -53 35 -4 38 -6
23 -19 -12 -9 -33 -12 -69 -9 -43 5 -57 11 -84 41 -120 131 15 326 173 250z
m5739 1 c55 -26 75 -70 72 -155 -2 -47 -7 -74 -15 -77 -9 -2 -13 12 -13 50 l0
54 -34 -4 c-29 -3 -40 2 -71 32 -29 29 -39 34 -54 26 -17 -9 -31 -31 -31 -49
0 -4 14 -15 30 -24 27 -16 30 -23 30 -68 l0 -49 36 0 c31 0 35 -2 24 -15 -18
-22 -89 -19 -128 5 -53 32 -74 75 -69 143 2 37 10 67 23 85 43 58 132 78 200
46z m-5061 -125 l109 -110 -105 -105 c-84 -83 -112 -104 -134 -104 -39 0 -65
26 -65 65 0 27 10 42 65 90 l66 57 -66 68 c-69 73 -78 97 -45 130 38 38 59 27
175 -91z m529 2 l109 -109 -108 -106 c-114 -111 -139 -124 -177 -89 -10 9 -18
30 -18 48 0 26 11 41 60 85 33 30 60 57 60 61 0 4 -27 37 -60 73 -63 70 -70
88 -44 124 31 45 61 31 178 -87z m452 82 c17 -16 66 -65 109 -111 l79 -83
-104 -104 c-115 -115 -138 -125 -179 -81 -33 35 -23 62 49 130 33 32 60 60 60
62 0 3 -29 36 -65 74 -36 38 -65 72 -65 75 0 3 7 19 15 35 20 39 60 40 101 3z
m616 -79 c57 -58 103 -110 103 -114 0 -5 -45 -54 -99 -110 -107 -108 -135
-121 -176 -80 -35 35 -26 64 45 131 l64 62 -64 70 c-36 39 -65 76 -65 83 0 6
9 23 21 38 36 46 59 36 171 -80z m537 2 c57 -57 102 -109 100 -115 -2 -5 -49
-55 -103 -111 -111 -112 -137 -123 -175 -73 -29 36 -21 57 50 126 l58 58 -64
74 c-67 77 -70 89 -37 128 33 37 62 22 171 -87z m447 77 c17 -16 66 -65 109
-111 l79 -83 -104 -104 c-116 -116 -141 -127 -179 -79 -12 15 -21 34 -21 42 0
8 29 45 65 80 36 36 65 67 65 69 0 2 -27 33 -60 68 -63 68 -72 95 -43 127 23
26 54 22 89 -9z m616 -79 c56 -58 104 -108 106 -112 1 -5 -44 -54 -101 -110
-110 -108 -139 -122 -179 -85 -37 33 -24 71 47 137 l65 61 -65 68 c-69 73 -77
95 -45 127 38 38 61 27 172 -86z m496 34 c37 -39 82 -87 100 -106 42 -44 41
-47 -84 -164 -98 -94 -125 -105 -159 -68 -34 37 -23 69 45 132 71 65 72 54
-12 145 -26 28 -48 60 -48 70 0 33 29 63 61 63 24 0 43 -14 97 -72z m521 5
c38 -38 86 -87 106 -111 l38 -43 -104 -105 c-115 -115 -140 -126 -178 -77 -29
36 -20 58 50 124 32 31 59 60 59 65 0 5 -27 36 -60 69 -63 62 -71 85 -44 123
27 39 58 28 133 -45z m-5866 -249 c4 -36 4 -108 0 -160 -5 -83 -8 -94 -25 -94
-14 0 -18 8 -18 38 0 35 -2 38 -30 40 l-30 2 0 -120 c0 -99 -3 -120 -15 -120
-12 0 -15 22 -17 118 l-3 117 -27 3 c-25 3 -27 0 -33 -43 l-7 -45 -54 2 -54 3
0 163 0 162 154 0 153 0 6 -66z m6779 -161 c26 -23 23 -75 -4 -99 -13 -11 -50
-36 -83 -56 -56 -33 -131 -81 -572 -367 -95 -61 -201 -127 -236 -146 l-64 -35
-316 0 -317 0 -16 26 c-23 34 -10 71 35 101 33 23 39 23 320 23 l286 0 270
173 c149 95 347 223 440 284 179 117 218 132 257 96z m-5752 -58 l69 -65 199
0 c187 0 201 -1 226 -21 40 -31 50 -56 36 -89 -6 -15 -21 -31 -33 -34 -29 -8
-392 -7 -439 0 -31 5 -63 30 -170 131 -73 69 -134 129 -136 134 -2 5 37 9 88
9 l91 0 69 -65z m1974 -90 c14 -13 26 -31 26 -39 0 -31 -24 -65 -53 -76 -20
-6 -228 -10 -602 -10 -564 0 -573 0 -599 21 -36 28 -36 80 0 108 26 21 35 21
614 21 l587 0 27 -25z m2596 16 c0 -11 -116 -114 -147 -130 -24 -12 -2128 -15
-2173 -2 -32 9 -55 50 -46 84 14 59 -44 56 1214 57 690 0 1152 -4 1152 -9z
m346 -3 c10 -16 -120 -138 -147 -138 -34 0 -59 19 -59 45 0 26 68 91 104 98
45 9 95 7 102 -5z m854 -326 c0 -103 -10 -112 -120 -112 -136 0 -153 16 -73
71 58 40 175 109 185 109 5 0 8 -30 8 -68z m-5686 -101 c6 -9 -51 -65 -114
-113 -33 -25 -41 -27 -170 -29 -93 -2 -142 1 -157 9 -45 25 -41 105 7 129 29
15 425 19 434 4z m576 -5 c0 -12 -18 -30 -107 -108 -30 -26 -37 -27 -157 -29
-109 -2 -129 0 -146 16 -11 10 -20 27 -20 38 0 24 62 84 92 90 13 2 94 5 181
6 128 1 157 -2 157 -13z m1724 5 c4 -5 -26 -39 -66 -75 l-72 -66 -710 0 c-646
0 -711 1 -728 17 -10 9 -18 26 -18 38 0 24 55 81 85 88 38 9 1504 7 1509 -2z
m616 -1 c0 -16 -40 -58 -96 -101 l-51 -39 -157 0 -156 0 -12 26 c-15 33 3 69
51 101 32 22 43 23 227 23 122 0 194 -4 194 -10z m954 -6 c25 -25 19 -39 -35
-88 l-51 -46 -354 0 c-339 0 -354 1 -364 19 -5 11 -10 24 -10 30 0 16 61 82
84 91 12 5 177 9 368 9 302 1 349 -1 362 -15z m1800 -255 c35 -28 36 -80 1
-114 -24 -25 -26 -25 -210 -25 l-187 0 -29 29 c-34 35 -37 68 -8 105 l20 26
193 0 c180 0 195 -1 220 -21z m-6780 -139 c-2 -249 -2 -250 -24 -250 -17 0
-20 7 -20 40 0 38 -2 40 -30 40 l-30 0 0 -120 c0 -100 -2 -120 -15 -120 -12 0
-15 20 -15 119 l0 119 -27 5 c-39 7 -43 2 -43 -50 0 -37 -3 -44 -16 -39 -9 3
-33 6 -55 6 l-39 0 0 176 0 176 158 -4 157 -3 -1 -95z m2137 47 c67 -32 147
-113 183 -185 96 -190 2 -450 -190 -521 -52 -20 -76 -21 -428 -21 -353 0 -375
1 -397 19 l-24 19 -3 336 -3 336 26 26 25 25 378 -3 377 -3 56 -28z m3644 13
c77 -37 80 -49 83 -352 3 -253 2 -269 -18 -307 -39 -78 -28 -76 -445 -76 -409
0 -413 1 -455 62 l-25 37 0 287 c0 400 -38 369 459 369 338 0 362 -1 401 -20z
m-4668 -34 c15 -32 15 -37 -1 -60 -20 -32 -67 -35 -96 -6 -41 41 -13 100 47
100 28 0 36 -5 50 -34z m3270 -2 c4 -13 -57 -76 -108 -110 l-36 -25 -522 3
-523 3 -24 28 c-31 36 -30 62 1 93 l24 24 592 -2 c421 -2 593 -6 596 -14z
m236 5 c28 -15 37 -28 37 -58 0 -33 -27 -61 -59 -61 -32 0 -44 8 -60 37 -16
31 -14 41 14 68 27 28 37 30 68 14z m1453 -161 l53 -33 0 -135 0 -135 -44 -33
c-77 -56 -72 -67 -73 162 0 113 2 206 5 206 3 0 29 -15 59 -32z m-4984 -66
l39 -25 -23 -26 c-13 -14 -24 -28 -25 -29 -1 -2 -18 2 -38 9 -35 13 -38 12
-56 -10 -26 -32 -21 -65 11 -69 13 -2 33 -10 44 -18 11 -8 34 -14 51 -14 l30
-1 -42 -39 c-50 -47 -92 -52 -144 -17 -96 64 -90 204 11 255 52 26 84 23 142
-16z m5697 -78 c27 -34 27 -74 1 -102 -24 -26 -15 -25 -240 -23 -173 2 -175 2
-197 27 -29 31 -29 64 -2 98 l20 26 199 0 199 0 20 -26z m-3991 -76 c7 -7 12
-28 12 -48 0 -29 -8 -44 -40 -75 l-40 -39 0 -403 0 -404 40 -39 c91 -89 15
-169 -80 -84 -22 20 -49 51 -60 69 -21 33 -21 44 -18 467 l3 433 23 37 c48 77
127 119 160 86z m1504 -5 c26 -23 23 -65 -8 -94 l-26 -24 -631 -3 -632 -2 -29
23 c-22 18 -29 32 -29 57 0 62 -28 60 687 60 590 0 651 -2 668 -17z m253 1
c14 -9 41 -38 60 -64 l35 -48 0 -451 0 -451 -52 -54 c-81 -83 -138 -86 -138
-6 0 32 6 43 38 69 l39 30 2 408 2 408 -40 39 c-45 43 -56 73 -41 110 11 31
56 36 95 10z m-3440 -247 c20 -28 19 -50 -3 -77 -36 -44 -112 -17 -112 40 0
61 80 86 115 37z m2935 -37 c12 -8 10 -14 -15 -40 l-29 -30 -368 0 c-355 0
-369 1 -388 20 -25 25 -25 36 -2 49 22 13 781 14 802 1z m-1080 -286 l0 -202
-45 -25 -45 -26 0 260 0 260 45 -32 45 -32 0 -203z m1416 -241 c-2 -3 -23 6
-45 19 l-41 23 0 205 0 205 43 26 42 25 3 -249 c1 -138 0 -252 -2 -254z m2399
482 c32 -31 33 -80 3 -112 -21 -23 -25 -23 -219 -23 l-198 0 -20 26 c-27 35
-27 81 1 111 21 23 26 23 215 23 193 0 194 0 218 -25z m-3615 -171 l40 -27 0
-82 0 -83 -45 -25 -45 -26 0 135 c0 74 2 134 5 134 3 0 23 -12 45 -26z m980
-102 c0 -65 -3 -121 -6 -125 -10 -10 -74 37 -80 58 -3 12 -4 47 -2 80 3 55 6
61 37 82 19 13 38 23 42 23 5 0 9 -53 9 -118z m-240 59 c12 -24 13 -210 1
-229 -7 -11 -63 -14 -277 -15 l-269 -1 -3 119 c-1 65 0 125 2 132 4 10 61 13
270 13 252 0 266 -1 276 -19z m-1788 -19 c80 -32 169 -120 210 -208 28 -61 32
-79 32 -154 0 -108 -27 -180 -94 -253 -60 -65 -127 -103 -205 -115 -33 -5
-215 -7 -404 -4 -319 4 -345 6 -362 23 -18 18 -19 39 -19 350 l0 331 30 29 30
30 362 -3 c351 -3 365 -4 420 -26z m3664 12 c19 -9 44 -31 57 -48 21 -30 22
-41 25 -296 2 -166 0 -278 -7 -300 -6 -20 -24 -49 -41 -65 l-31 -30 -380 -3
c-370 -3 -381 -2 -414 18 -19 11 -43 40 -54 64 -20 39 -21 60 -21 296 0 237 1
256 21 297 40 82 42 82 452 83 311 0 364 -2 393 -16z m-4681 -19 c14 -13 25
-30 25 -38 0 -25 -40 -67 -64 -67 -31 0 -66 36 -66 67 0 60 62 82 105 38z
m4978 -123 l47 -34 0 -161 -1 -162 -54 -37 c-30 -20 -55 -36 -56 -35 0 1 -3
109 -5 240 -4 194 -3 237 8 231 7 -4 34 -23 61 -42z m-6083 -143 c0 -147 -1
-160 -17 -157 -13 2 -19 14 -21 41 -3 34 -6 37 -33 37 l-29 0 0 -115 c0 -96
-3 -115 -15 -115 -12 0 -15 19 -15 115 l0 115 -35 0 c-35 0 -35 0 -35 -46 0
-38 -3 -45 -16 -40 -9 3 -33 6 -55 6 l-39 0 0 160 0 160 155 0 155 0 0 -161z
m6785 96 c33 -32 33 -75 -1 -109 l-27 -26 -178 0 c-190 0 -219 6 -238 47 -17
37 -13 62 14 88 24 25 26 25 215 25 189 0 191 0 215 -25z m-5716 -59 c49 -26
56 -41 31 -76 -21 -29 -22 -29 -51 -15 -42 22 -79 -1 -79 -51 0 -7 30 -28 67
-45 l67 -31 -27 -24 c-50 -43 -99 -44 -152 -3 -54 44 -71 128 -35 187 39 64
118 89 179 58z m3220 -212 c34 -28 42 -73 17 -93 -9 -8 -196 -10 -682 -9
l-669 3 -3 36 c-3 30 2 41 28 63 l32 26 623 0 623 0 31 -26z m2440 -143 c35
-25 71 -88 71 -123 0 -13 -9 -41 -19 -63 l-19 -40 -1 53 -1 52 -45 0 c-41 0
-48 4 -63 30 -20 35 -44 38 -72 10 -27 -27 -26 -30 16 -64 32 -25 35 -32 32
-70 -3 -41 -3 -41 36 -46 35 -4 38 -6 23 -19 -24 -19 -89 -9 -133 21 -19 12
-44 42 -55 65 -18 38 -19 48 -9 96 11 57 42 96 90 116 39 16 113 7 149 -18z
m-5620 -57 c12 -15 21 -32 21 -39 0 -21 -40 -65 -59 -65 -29 0 -71 39 -71 65
0 30 36 65 66 65 12 0 32 -12 43 -26z m2681 -94 c22 -22 26 -60 8 -78 -7 -7
-31 -12 -55 -12 -32 0 -45 5 -53 19 -15 30 -12 48 12 71 28 25 62 26 88 0z
m658 -6 c12 -8 22 -23 22 -33 0 -41 -24 -46 -231 -49 -189 -3 -198 -3 -218 17
-26 26 -26 35 1 61 20 19 34 20 213 20 156 0 195 -3 213 -16z m-2633 -694 l0
-85 -62 -3 -63 -3 0 59 c0 33 3 73 6 90 6 29 7 30 63 28 l56 -1 0 -85z m264
84 l31 -6 0 -84 0 -84 -60 0 -60 0 0 84 c0 72 3 85 18 89 27 7 37 7 71 1z
m611 -84 l0 -90 -60 0 -60 0 0 83 c0 46 3 87 7 90 3 4 30 7 60 7 l53 0 0 -90z
m290 0 l0 -90 -61 0 -62 0 6 81 c6 92 11 99 75 99 l42 0 0 -90z m290 0 l0 -90
-60 0 -60 0 0 85 0 84 58 4 c31 2 58 4 60 5 1 1 2 -38 2 -88z m-870 -5 l0 -85
-60 0 -60 0 0 85 0 85 60 0 60 0 0 -85z"/>
<path d="M2040 6640 c-20 -20 -20 -33 -20 -657 0 -351 4 -643 8 -649 4 -6 17
-16 30 -23 19 -10 28 -10 48 4 l24 15 0 643 c0 565 -2 645 -16 665 -19 27 -48
28 -74 2z"/>
<path d="M2040 4998 c-20 -22 -20 -29 -20 -995 l0 -973 -41 -110 c-42 -116
-43 -129 -8 -186 11 -17 19 -39 19 -48 0 -38 21 -8 79 114 l61 130 0 1028 c0
984 -1 1030 -18 1045 -25 23 -47 21 -72 -5z"/>
<path d="M3369 5192 l-257 -2 -4 -23 c-2 -12 -2 -124 0 -249 l4 -228 199 0
c190 0 202 -1 259 -25 80 -34 119 -32 206 10 205 99 245 314 84 459 -42 38
-77 56 -110 56 -15 0 -19 -9 -22 -47 -3 -44 -5 -48 -36 -57 -53 -15 -92 -57
-92 -101 0 -47 13 -71 50 -90 40 -21 58 -19 95 10 31 23 34 23 48 7 38 -43 24
-83 -41 -116 -53 -27 -94 -27 -148 -2 -150 70 -162 274 -22 362 50 31 53 33
47 37 -2 1 -119 1 -260 -1z m-11 -209 c17 -24 15 -73 -5 -95 -36 -40 -113 -8
-113 47 0 39 44 79 78 70 15 -3 33 -13 40 -22z"/>
<path d="M6745 5168 c-3 -13 -2 -124 2 -248 l8 -225 335 -3 c184 -1 345 0 358
3 l22 5 -2 243 -3 242 -357 3 -358 2 -5 -22z m240 -183 c31 -30 32 -62 3 -92
-29 -31 -71 -30 -97 3 -27 35 -26 59 4 89 31 32 59 32 90 0z m339 4 c32 -25
34 -64 4 -96 -43 -46 -118 -16 -118 46 0 32 39 71 70 71 10 0 29 -9 44 -21z"/>
<path d="M3115 4209 c-4 -5 -6 -117 -6 -247 1 -172 5 -238 14 -244 7 -4 103
-8 213 -8 180 0 207 -2 245 -20 61 -27 106 -25 186 11 201 89 254 287 118 437
-36 40 -106 82 -137 82 -11 0 -17 -14 -22 -50 -5 -34 -11 -50 -21 -50 -24 0
-83 -43 -95 -68 -24 -55 -6 -106 45 -128 45 -18 46 -18 87 10 38 25 48 24 67
-11 24 -46 -31 -102 -117 -119 -32 -6 -111 23 -145 54 -92 83 -73 258 35 325
26 16 48 32 48 33 0 10 -509 3 -515 -7z m244 -195 c12 -15 21 -34 21 -44 0
-29 -39 -70 -66 -70 -32 0 -74 42 -74 75 0 61 81 87 119 39z"/>
<path d="M6755 4208 c-3 -7 -6 -116 -8 -241 -3 -219 -2 -229 17 -243 27 -19
664 -20 690 -1 15 11 16 37 14 252 l-3 240 -353 3 c-277 2 -354 0 -357 -10z
m232 -190 c13 -12 23 -32 23 -45 0 -30 -42 -73 -70 -73 -26 0 -70 43 -70 68 0
11 9 31 21 46 25 32 64 34 96 4z m340 0 c29 -27 29 -65 1 -95 -27 -29 -57 -29
-92 -2 -33 26 -34 62 -1 94 30 31 62 32 92 3z"/>
<path d="M1560 2301 c-111 -6 -137 -15 -164 -55 -19 -30 -20 -51 -5 -95 21
-59 35 -61 376 -61 l308 0 43 -30 c24 -16 62 -32 85 -35 23 -3 1235 -5 2692
-3 l2650 3 45 25 c54 31 87 96 76 153 -8 45 -54 92 -97 101 -39 7 -5862 5
-6009 -3z"/>
<path d="M8453 2289 c-78 -22 -96 -116 -33 -171 29 -27 35 -28 136 -28 119 0
154 12 180 62 13 26 14 38 5 70 -19 61 -56 78 -166 77 -49 0 -104 -5 -122 -10z"/>
<path d="M8018 2274 c-54 -29 -66 -102 -24 -151 47 -55 152 -29 170 43 9 35
-18 90 -53 108 -37 20 -58 20 -93 0z"/>
<path d="M1090 2230 c-11 -11 -20 -29 -20 -40 0 -27 35 -60 63 -60 29 0 57 29
57 58 0 28 -34 62 -60 62 -11 0 -29 -9 -40 -20z"/>
<path d="M8960 2230 c-24 -24 -25 -48 -4 -78 19 -27 64 -29 87 -4 24 26 21 68
-5 86 -30 21 -54 20 -78 -4z"/>
</g>
</svg>
