<?xml version="1.0" standalone="no"?>
<!DOCTYPE svg PUBLIC "-//W3C//DTD SVG 20010904//EN"
 "http://www.w3.org/TR/2001/REC-SVG-20010904/DTD/svg10.dtd">
<svg version="1.0" xmlns="http://www.w3.org/2000/svg"
 width="1024.000000pt" height="1024.000000pt" viewBox="0 0 1024.000000 1024.000000"
 preserveAspectRatio="xMidYMid meet">
<metadata>
Created by potrace 1.16, written by Peter Selinger 2001-2019
</metadata>
<g transform="translate(0.000000,1024.000000) scale(0.100000,-0.100000)"
fill="#000000" stroke="none">
<path d="M1738 8609 c-117 -9 -253 -52 -353 -111 -44 -26 -108 -79 -171 -142
-82 -83 -108 -116 -142 -186 -58 -115 -80 -202 -93 -350 -7 -83 -9 -1046 -7
-2890 4 -3103 -4 -2803 79 -2979 102 -219 292 -382 519 -447 63 -18 185 -19
3588 -22 l3523 -2 81 20 c166 43 325 145 431 275 65 81 110 164 149 276 l33
94 3 2865 3 2865 -21 92 c-37 163 -127 321 -248 435 -120 113 -279 185 -457
207 -107 13 -6759 13 -6917 0z m832 -294 c25 -23 25 -33 -2 -62 l-21 -23 -387
0 c-219 0 -410 -4 -441 -10 -130 -25 -254 -113 -308 -219 -28 -54 -63 -72 -91
-46 -41 37 -15 106 74 202 93 100 212 158 356 173 41 5 238 7 437 6 335 -2
364 -4 383 -21z m350 -7 c13 -25 13 -31 0 -55 -30 -53 -110 -34 -110 25 0 63
79 84 110 30z m4000 -63 c94 -24 256 -106 321 -162 61 -53 176 -183 384 -433
76 -91 148 -177 161 -192 l23 -27 -42 -33 c-23 -19 -109 -83 -191 -144 -327
-241 -762 -567 -784 -587 l-23 -21 -27 34 c-101 133 -243 246 -406 325 -132
64 -223 91 -368 107 -238 26 -478 -34 -682 -172 -75 -50 -466 -360 -686 -543
-57 -48 -170 -131 -250 -184 -192 -127 -300 -214 -410 -330 -252 -267 -381
-578 -397 -963 -17 -411 114 -765 386 -1041 183 -184 411 -303 701 -365 132
-28 393 -26 529 4 310 70 513 181 717 394 106 112 153 180 269 393 140 257
103 221 629 608 185 137 268 229 338 380 78 167 91 232 92 437 1 154 -2 185
-23 260 -33 121 -117 290 -197 394 -53 69 -65 90 -53 96 8 5 134 98 280 207
458 340 747 553 753 553 2 0 88 -101 191 -225 103 -124 246 -294 317 -378 188
-221 276 -340 325 -443 154 -324 112 -706 -104 -960 -60 -70 -205 -185 -508
-402 -55 -40 -163 -118 -240 -174 -144 -104 -423 -306 -1095 -788 -212 -152
-473 -340 -580 -418 -107 -77 -247 -178 -310 -224 -341 -244 -987 -714 -1230
-894 -284 -209 -477 -300 -710 -335 -99 -14 -284 -7 -385 15 -168 37 -351 117
-470 207 -68 51 -228 225 -357 387 -503 631 -714 906 -800 1043 -60 95 -131
264 -155 367 -21 91 -29 439 -13 541 40 249 196 538 379 702 38 34 136 109
217 168 82 59 302 217 489 352 413 298 1082 774 1750 1248 173 122 662 471
1238 884 164 118 329 231 365 251 75 42 183 81 264 95 78 14 301 6 378 -14z
m-1371 -278 c-19 -16 -61 -47 -94 -70 -33 -22 -134 -95 -225 -162 -157 -115
-590 -425 -1230 -880 -138 -98 -717 -512 -995 -711 -110 -79 -292 -211 -405
-294 -113 -83 -239 -174 -280 -204 -350 -248 -553 -500 -669 -831 -50 -142
-72 -291 -73 -495 -1 -405 84 -647 357 -1009 219 -289 829 -1061 908 -1147
l37 -42 -212 -7 c-117 -4 -348 -5 -513 -3 -288 3 -302 4 -360 27 -109 44 -207
163 -233 286 -6 28 -13 92 -16 143 l-5 92 55 0 c66 0 104 29 104 80 0 50 -38
80 -102 80 l-53 0 0 1420 0 1420 54 0 c42 0 60 5 78 22 32 30 31 81 -2 114
-22 22 -33 25 -78 22 l-52 -3 0 220 0 220 56 3 c45 2 61 8 79 27 30 32 30 78
0 110 -20 21 -33 25 -79 25 l-56 0 -1 335 -1 335 54 0 c44 0 58 5 78 25 32 31
33 82 4 120 -20 24 -27 26 -78 23 l-56 -3 4 195 c2 124 9 215 18 250 30 117
112 212 233 269 l55 26 443 3 442 3 0 -75 c0 -69 2 -76 26 -95 36 -29 76 -27
108 5 23 24 26 35 26 95 l0 69 200 0 200 0 0 -69 c0 -54 4 -74 21 -95 26 -33
75 -35 113 -5 24 19 26 26 26 95 l0 74 200 0 200 0 0 -72 c0 -60 4 -76 22 -95
27 -29 77 -30 109 -4 20 16 24 30 27 95 l4 76 198 0 198 0 4 -76 c3 -65 7 -79
27 -95 30 -25 72 -24 105 2 24 19 26 26 26 95 l0 74 195 0 195 0 0 -70 c0 -62
3 -74 25 -95 30 -31 73 -32 109 -4 24 19 26 26 26 95 l0 74 218 2 c119 2 221
1 226 -1 5 -2 -6 -18 -25 -34z m2899 20 c72 -20 88 -3 -251 -257 -104 -77
-190 -140 -192 -140 -5 0 -251 298 -303 366 l-34 44 369 -1 c247 0 382 -4 411
-12z m-7120 -173 c44 -31 17 -104 -39 -104 -53 0 -73 64 -33 105 20 19 44 19
72 -1z m7430 -84 c17 -36 37 -89 42 -119 6 -31 10 -256 10 -523 l0 -469 -46
52 c-25 28 -145 171 -267 317 -122 147 -250 300 -285 341 l-62 75 52 35 c28
20 128 93 222 162 267 196 270 198 286 196 8 -1 30 -31 48 -67z m-2696 -859
c32 -12 60 -25 62 -29 2 -4 -64 -7 -147 -7 -176 -1 -238 -13 -362 -74 -76 -38
-226 -154 -781 -604 -60 -49 -176 -134 -259 -189 -82 -56 -178 -123 -212 -150
-169 -134 -320 -348 -389 -554 -38 -115 -54 -224 -54 -374 0 -164 21 -263 84
-396 61 -128 111 -197 208 -289 205 -194 516 -285 819 -242 139 20 214 43 338
104 183 90 338 232 453 414 155 247 163 254 573 567 260 199 347 273 383 329
18 27 32 53 32 57 0 4 -14 5 -30 1 -22 -5 -42 -1 -71 14 -22 12 -44 21 -49 21
-5 0 -77 -55 -160 -122 -197 -160 -185 -152 -208 -139 -27 14 -34 38 -19 66 6
12 80 76 162 140 83 65 168 133 189 152 49 41 92 44 126 7 28 -29 60 -26 98 9
39 36 53 108 59 291 7 191 14 196 54 29 17 -72 20 -107 16 -193 -3 -58 -13
-132 -22 -165 -36 -135 -126 -276 -238 -374 -31 -27 -167 -134 -304 -239 -136
-105 -275 -219 -309 -254 -38 -40 -94 -120 -155 -222 -168 -285 -338 -433
-629 -551 -203 -82 -510 -98 -735 -40 -191 50 -348 138 -481 270 -115 115
-181 209 -230 331 -179 443 -62 955 301 1320 113 114 206 186 389 300 70 43
205 142 299 220 557 455 669 534 819 574 103 28 297 23 380 -9z m478 -326 c0
-10 -105 -101 -137 -119 -9 -5 -19 -4 -26 3 -17 17 -143 14 -178 -4 -38 -20
-287 -222 -314 -254 -38 -46 -44 -66 -45 -137 l0 -71 -47 -44 c-27 -24 -70
-62 -98 -84 -122 -96 -137 -124 -94 -179 15 -19 29 -26 56 -26 40 0 56 11 194
127 l86 72 74 -6 c110 -8 103 -12 387 225 78 65 104 110 111 189 l6 67 74 64
74 65 19 -24 c10 -13 37 -46 59 -72 40 -47 41 -48 23 -69 -27 -29 -514 -435
-618 -513 -22 -17 -111 -89 -199 -161 -180 -149 -225 -172 -323 -160 -110 13
-187 71 -219 165 -29 85 -17 172 34 253 36 56 296 283 686 598 65 52 156 128
204 167 l86 73 62 -68 c35 -37 63 -71 63 -77z m-228 -282 c10 -9 18 -22 18
-29 0 -17 -260 -244 -279 -244 -23 0 -51 31 -51 56 0 16 25 43 88 96 179 151
187 155 224 121z m2498 -1683 l0 -400 -62 0 c-74 0 -108 -24 -108 -75 0 -60
44 -84 143 -76 l27 2 0 -180 0 -181 -51 0 c-77 0 -118 -29 -119 -83 0 -17 10
-38 25 -52 20 -21 34 -25 85 -25 l60 0 0 -220 0 -220 -64 0 c-58 0 -67 -3 -85
-26 -12 -15 -21 -37 -21 -49 0 -12 9 -34 21 -49 18 -23 27 -26 86 -26 l65 0
-4 -237 c-4 -212 -7 -244 -26 -296 -42 -114 -130 -212 -227 -253 -38 -16 -55
-12 -55 12 0 26 -40 95 -83 141 -52 57 -99 87 -176 113 -58 19 -83 20 -645 20
-555 0 -587 -1 -648 -20 -111 -34 -197 -111 -251 -223 l-32 -67 -903 2 -902 2
28 23 c56 43 269 198 366 266 55 38 125 88 155 111 31 24 178 131 326 238 149
107 385 277 525 379 140 101 305 220 365 263 208 149 810 582 1000 720 105 75
289 207 410 293 252 180 748 551 753 564 2 5 8 9 13 9 5 0 9 -164 9 -400z
m-7485 -2140 c51 -57 -20 -135 -77 -83 -22 20 -23 51 -2 81 19 27 55 28 79 2z
m24 -249 c11 -11 25 -39 31 -63 17 -65 55 -122 111 -170 42 -35 49 -47 47 -71
-7 -67 -65 -60 -144 15 -97 92 -152 240 -107 290 21 23 38 23 62 -1z m6838
-12 c53 -26 99 -87 113 -152 17 -81 -8 -163 -67 -219 -61 -59 -54 -58 -635
-58 -341 0 -547 4 -571 11 -83 23 -147 115 -147 211 0 94 59 184 140 217 15 6
238 10 574 10 536 1 551 0 593 -20z m-6447 -351 c13 -25 13 -31 0 -55 -19 -34
-63 -42 -91 -17 -25 22 -24 45 2 78 28 35 67 32 89 -6z"/>
<path d="M8573 5442 c-34 -26 -47 -80 -26 -111 9 -15 24 -31 32 -38 59 -46
147 41 116 114 -22 53 -79 69 -122 35z"/>
<path d="M2320 5203 c-28 -10 -63 -48 -122 -136 -91 -136 -105 -180 -68 -217
20 -20 63 -26 94 -14 9 3 32 34 53 68 20 33 61 92 90 130 57 73 66 109 36 144
-19 21 -59 33 -83 25z"/>
<path d="M8202 5134 c-50 -35 -13 -134 50 -134 37 0 81 54 73 89 -13 55 -76
78 -123 45z"/>
<path d="M2057 4700 c-31 -24 -43 -59 -57 -163 -29 -220 1 -436 96 -691 65
-175 98 -227 349 -551 572 -739 688 -873 858 -985 188 -124 417 -190 662 -190
114 0 155 20 155 74 0 57 -31 73 -158 81 -259 17 -469 96 -656 247 -128 104
-233 230 -751 903 -246 320 -311 435 -367 654 -39 152 -49 354 -24 479 18 90
14 125 -17 147 -29 21 -60 19 -90 -5z"/>
<path d="M2963 3118 c-50 -24 -31 -108 26 -108 34 0 61 27 61 62 0 41 -46 65
-87 46z"/>
<path d="M3202 2847 c-14 -15 -22 -36 -22 -57 0 -29 10 -44 68 -100 173 -168
353 -265 589 -316 115 -24 357 -22 489 5 241 49 463 156 495 239 13 33 -6 70
-45 89 -33 15 -36 15 -83 -11 -119 -66 -256 -128 -329 -148 -68 -19 -106 -22
-279 -22 -230 -1 -280 8 -431 78 -125 59 -195 106 -285 192 -65 62 -83 74
-112 74 -22 0 -41 -8 -55 -23z"/>
<path d="M2180 7714 c-164 -44 -286 -182 -310 -349 -11 -78 -12 -1695 -1
-1734 3 -13 18 -33 33 -44 32 -24 68 -17 104 18 l24 24 0 849 c0 929 -1 906
59 989 19 26 50 51 88 69 l58 29 237 3 237 3 25 26 c34 34 33 68 -3 104 l-29
29 -234 -1 c-172 0 -247 -4 -288 -15z"/>
<path d="M4459 7671 c-57 -58 -24 -151 54 -151 89 0 124 125 46 165 -42 22
-67 18 -100 -14z"/>
<path d="M3055 7564 c-38 -26 -113 -77 -165 -114 -52 -36 -208 -144 -346 -239
-265 -181 -285 -200 -265 -253 12 -31 47 -58 78 -58 22 0 233 138 513 335 80
57 184 128 232 159 100 65 118 86 118 137 0 41 -22 66 -66 74 -23 5 -43 -3
-99 -41z"/>
<path d="M3724 7596 c-35 -15 -60 -69 -48 -102 28 -79 121 -87 160 -13 39 76
-33 150 -112 115z"/>
<path d="M4129 7452 c-46 -32 -142 -99 -214 -148 -195 -135 -512 -355 -669
-463 -141 -97 -653 -457 -848 -596 -117 -83 -135 -109 -113 -161 16 -38 61
-59 96 -46 24 10 81 48 379 257 204 143 346 242 505 352 72 49 213 148 315
218 102 71 255 177 340 235 314 216 346 238 378 268 41 39 42 74 3 113 -44 43
-73 39 -172 -29z"/>
<path d="M3444 7402 c-32 -18 -271 -183 -477 -330 -64 -46 -122 -92 -127 -102
-17 -31 -11 -65 15 -90 41 -39 74 -31 186 45 187 126 474 327 496 347 49 45
34 115 -29 137 -17 6 -31 11 -32 11 -1 -1 -15 -9 -32 -18z"/>
<path d="M2574 6797 c-287 -194 -317 -222 -295 -279 13 -36 54 -62 85 -54 13
3 52 26 87 50 35 25 107 74 160 110 104 70 128 102 110 149 -10 26 -56 57 -84
57 -8 0 -37 -15 -63 -33z"/>
<path d="M1893 2996 c-27 -24 -28 -28 -31 -138 -3 -96 0 -124 18 -178 55 -165
190 -261 368 -264 77 -1 85 1 103 23 30 36 25 84 -12 115 -25 21 -41 26 -85
26 -63 0 -105 15 -153 56 -55 46 -71 93 -71 217 0 106 -1 109 -29 138 -36 36
-70 37 -108 5z"/>
<path d="M8479 4456 c-15 -7 -132 -90 -260 -183 -129 -93 -376 -270 -549 -393
-173 -123 -394 -280 -490 -350 -96 -70 -236 -169 -310 -220 -74 -52 -272 -193
-440 -314 -168 -121 -365 -263 -439 -315 -225 -161 -236 -171 -239 -218 -3
-35 1 -44 28 -67 17 -14 39 -26 49 -26 17 0 226 144 551 380 96 69 396 284
665 475 1168 832 1521 1086 1542 1114 15 19 17 66 3 91 -5 10 -24 23 -41 29
-40 14 -39 14 -70 -3z"/>
<path d="M8383 3955 c-36 -15 -53 -41 -53 -80 0 -81 89 -115 152 -58 44 40 25
122 -33 142 -18 6 -32 11 -33 11 -1 -1 -15 -7 -33 -15z"/>
<path d="M8064 3735 c-41 -32 -347 -253 -509 -367 -203 -143 -215 -153 -215
-194 0 -44 37 -84 78 -84 29 0 59 20 592 400 188 134 200 145 200 187 0 75
-83 108 -146 58z"/>
<path d="M8393 3521 c-17 -11 -116 -80 -220 -154 -103 -73 -267 -189 -363
-257 -381 -269 -526 -374 -557 -403 -41 -38 -43 -77 -8 -112 31 -32 72 -32
116 -2 71 49 625 438 899 632 69 49 144 101 167 117 47 32 93 83 93 103 0 30
-24 65 -55 80 -40 18 -34 19 -72 -4z"/>
<path d="M6764 2814 c-192 -135 -364 -260 -381 -277 -45 -42 -45 -85 -1 -122
42 -36 59 -30 193 64 60 43 228 160 371 260 269 187 295 211 279 261 -4 11
-16 30 -28 40 -46 44 -61 36 -433 -226z"/>
<path d="M8373 2970 c-27 -11 -379 -260 -416 -294 -16 -15 -27 -36 -27 -51 0
-38 42 -75 83 -75 33 0 75 26 420 264 68 47 74 110 14 146 -35 22 -42 23 -74
10z"/>
<path d="M7811 2034 c-61 -51 -26 -144 54 -144 90 0 118 116 38 158 -33 18
-59 14 -92 -14z"/>
<path d="M7251 2024 c-28 -35 -26 -67 3 -101 24 -28 25 -28 163 -31 139 -3
140 -3 171 23 40 34 44 81 9 113 -22 21 -33 22 -174 22 l-152 0 -20 -26z"/>
</g>
</svg>
