<?xml version="1.0" standalone="no"?>
<!DOCTYPE svg PUBLIC "-//W3C//DTD SVG 20010904//EN"
 "http://www.w3.org/TR/2001/REC-SVG-20010904/DTD/svg10.dtd">
<svg version="1.0" xmlns="http://www.w3.org/2000/svg"
 width="1024.000000pt" height="1024.000000pt" viewBox="0 0 1024.000000 1024.000000"
 preserveAspectRatio="xMidYMid meet">
<metadata>
Created by potrace 1.16, written by Peter Selinger 2001-2019
</metadata>
<g transform="translate(0.000000,1024.000000) scale(0.100000,-0.100000)"
fill="#000000" stroke="none">
<path d="M7105 8974 c-16 -2 -136 -15 -265 -29 -591 -63 -924 -101 -1445 -165
-204 -25 -769 -90 -915 -105 -25 -3 -187 -21 -360 -40 -173 -19 -400 -43 -505
-55 -104 -11 -314 -34 -465 -50 -151 -17 -421 -46 -600 -65 -413 -43 -853 -93
-942 -105 -184 -26 -322 -121 -398 -275 -64 -129 -60 87 -58 -3142 l3 -2938
21 -56 c49 -128 110 -211 195 -268 108 -72 139 -78 584 -106 220 -14 492 -32
605 -40 266 -19 756 -51 1090 -70 146 -9 418 -26 605 -40 187 -13 529 -36 760
-50 647 -39 1193 -75 1821 -120 448 -33 482 -32 581 4 43 15 96 31 117 35 117
22 259 139 315 261 l32 70 181 -3 c153 -3 188 -1 226 14 56 21 115 73 150 133
26 44 27 51 27 191 0 80 -4 162 -8 182 -9 43 -74 119 -158 184 -33 25 -59 49
-59 53 0 13 237 104 254 98 16 -6 20 -128 21 -545 0 -34 2 -62 5 -62 3 0 29
14 58 30 63 37 132 125 153 196 12 42 14 474 14 2884 l0 2835 -31 65 c-17 36
-46 82 -63 103 -31 35 -122 107 -135 107 -3 0 -6 -130 -6 -290 0 -212 -3 -290
-12 -290 -6 0 -45 20 -87 44 -42 24 -100 56 -130 71 l-54 27 102 95 c56 52
109 109 118 127 13 24 17 58 18 146 0 126 -11 161 -76 234 -68 78 -152 98
-321 77 -40 -5 -94 -12 -119 -15 l-46 -5 -7 84 c-14 166 -49 250 -143 343 -58
56 -121 93 -193 112 -25 6 -74 29 -110 50 -36 22 -91 46 -122 54 -63 16 -176
26 -223 20z m-17 -118 c7 -37 28 -32 -388 -81 -118 -14 -403 -45 -634 -70
-388 -42 -420 -44 -437 -29 -18 17 -16 39 5 47 7 3 161 21 342 41 181 20 482
54 669 75 382 44 438 46 443 17z m576 -137 c137 -128 147 -165 153 -599 l6
-336 56 -30 c31 -17 143 -80 248 -140 247 -140 441 -248 453 -252 6 -2 10 97
10 268 0 252 1 271 17 259 45 -38 43 89 43 -2921 0 -2802 -1 -2844 -20 -2886
-11 -24 -24 -41 -30 -37 -6 4 -10 120 -10 327 0 252 -3 319 -12 315 -7 -3
-168 -69 -358 -146 -190 -78 -358 -147 -374 -154 l-28 -13 1 -194 c2 -297 -13
-513 -38 -580 -29 -75 -66 -126 -129 -177 -66 -53 -86 -56 -39 -4 45 50 101
152 121 220 15 50 16 375 16 3448 l0 3394 -21 62 c-26 78 -61 139 -112 194
-59 64 -28 52 47 -18z m-766 -34 c26 -31 28 -55 7 -95 -32 -62 -109 -77 -156
-31 -35 36 -39 89 -9 131 33 47 114 44 158 -5z m312 -46 c25 -11 62 -37 83
-57 117 -112 120 -269 8 -381 -89 -89 -209 -118 -297 -73 -58 30 -121 105
-139 165 -20 66 -19 82 6 163 17 56 31 77 77 124 82 81 170 101 262 59z
m-2042 -18 c39 -20 76 -57 131 -129 37 -47 183 -160 401 -307 632 -428 742
-518 1104 -903 183 -195 436 -506 436 -536 0 -17 -21 -36 -39 -36 -9 1 -88 91
-176 202 -88 110 -208 253 -266 317 -147 161 -400 405 -489 472 -170 127 -376
273 -550 389 -277 185 -411 290 -482 378 -43 52 -75 81 -105 94 -42 19 -45 19
-225 -2 -391 -43 -558 -62 -958 -105 -594 -65 -581 -63 -607 -80 -34 -23 -61
-72 -69 -125 -4 -25 -11 -53 -15 -62 -5 -10 -70 -47 -144 -84 -280 -137 -474
-283 -849 -637 l-60 -56 -1 -74 c-2 -81 -7 -97 -35 -97 -23 0 -30 19 -30 82
l0 51 -52 -7 c-29 -3 -72 -6 -95 -6 l-43 0 -2 -197 -3 -198 -30 0 -30 0 -3
233 c-2 196 -5 232 -17 232 -8 0 -35 19 -60 43 -47 46 -55 74 -34 119 11 25
67 68 87 68 9 0 12 38 12 136 l0 137 -35 38 c-51 57 -48 103 12 166 16 16 33
36 38 45 8 13 37 19 130 28 66 6 181 17 255 25 74 8 171 16 215 17 l80 3 3
-74 c3 -85 13 -71 -128 -186 -289 -235 -423 -361 -485 -454 l-43 -65 21 -28
c19 -24 27 -27 57 -23 19 3 58 5 85 5 46 0 55 4 100 46 193 179 525 464 595
511 71 48 277 162 357 199 61 27 73 37 73 56 0 24 -1 24 -67 16 -38 -4 -98
-11 -135 -14 l-67 -7 -132 -133 c-113 -116 -133 -132 -150 -124 -10 6 -19 18
-19 28 0 17 220 249 264 277 23 16 290 50 306 40 5 -3 24 17 43 44 45 62 97
87 212 101 210 24 809 90 910 100 61 6 220 24 355 39 303 36 397 38 448 12z
m651 -143 c154 -132 431 -341 718 -542 54 -37 85 -66 89 -82 6 -22 11 -24 63
-23 113 1 130 8 162 69 36 69 36 92 0 123 -16 13 -186 118 -378 232 -191 114
-357 216 -368 227 -15 14 -17 22 -9 35 6 9 15 18 20 20 6 2 133 -70 284 -161
464 -276 523 -314 540 -346 19 -36 11 -86 -27 -156 l-37 -69 -6 -189 c-4 -164
-7 -190 -22 -200 -36 -22 -43 5 -43 179 0 90 -3 166 -7 170 -3 4 -43 3 -87 -1
l-81 -7 0 -62 c0 -65 -7 -76 -42 -67 -22 5 -28 32 -28 128 l0 82 -82 59 c-351
252 -473 342 -543 397 -128 102 -335 287 -335 300 0 14 20 36 33 36 5 0 89
-69 186 -152z m-1134 -198 c233 -20 551 -97 787 -190 165 -66 468 -233 468
-258 0 -5 -32 -12 -71 -16 -71 -6 -99 -16 -131 -44 -25 -21 -23 -92 2 -142 11
-22 19 -40 17 -40 -2 0 -35 20 -73 46 -93 61 -233 127 -257 120 -12 -3 -60 20
-134 65 -247 148 -489 181 -554 75 -36 -59 -22 -109 64 -223 175 -230 285
-476 322 -713 17 -115 13 -397 -9 -512 -14 -78 -63 -238 -73 -238 -2 0 -23 11
-46 24 -55 31 -171 72 -230 81 -37 6 -48 12 -52 29 -44 219 -115 397 -232 584
-146 233 -383 437 -634 546 -242 105 -457 99 -708 -19 -116 -56 -201 -116
-274 -195 -73 -78 -99 -129 -95 -182 2 -31 10 -46 31 -61 26 -20 32 -20 150
-9 67 7 154 12 193 12 77 0 81 -3 104 -82 11 -37 5 -39 -43 -17 -63 28 -327
27 -327 -2 0 -5 9 -9 20 -9 11 0 20 -4 20 -10 0 -5 -34 -51 -75 -102 -67 -84
-184 -264 -201 -312 -6 -16 -4 -18 12 -11 10 4 31 10 45 14 19 4 45 33 95 109
38 56 101 140 139 187 l70 86 67 -6 c37 -3 79 -10 93 -15 l27 -10 -81 -85
c-79 -85 -158 -181 -178 -220 -10 -19 -8 -20 38 -21 27 0 49 3 49 7 0 14 93
125 179 211 l86 88 57 -57 57 -57 -104 -104 c-58 -57 -105 -108 -105 -112 0
-5 15 -14 34 -20 34 -11 36 -10 77 35 23 25 69 69 101 97 l59 51 24 -23 24
-22 -85 -80 c-46 -44 -84 -83 -84 -87 0 -5 12 -13 26 -20 25 -11 32 -7 123 67
l97 78 69 -37 c38 -21 71 -42 72 -46 1 -4 -15 -20 -35 -35 -21 -15 -62 -48
-90 -74 -55 -49 -56 -60 -10 -85 15 -8 29 -1 76 38 108 92 149 115 185 108 80
-18 304 -122 350 -162 26 -24 21 -31 -25 -43 -128 -32 -284 -104 -358 -166
l-29 -25 -68 66 c-72 70 -222 174 -323 225 -161 81 -384 129 -540 115 -150
-13 -313 -73 -433 -159 -221 -157 -395 -467 -400 -710 -1 -55 3 -80 16 -100
21 -32 61 -49 91 -40 11 4 70 55 131 113 153 149 263 221 402 264 44 14 105
29 135 32 29 3 63 8 76 11 20 4 22 1 22 -45 l0 -50 -52 -19 c-29 -11 -76 -23
-105 -27 -50 -6 -52 -6 -55 19 l-3 26 -100 -49 c-59 -29 -119 -67 -146 -94
-43 -41 -46 -47 -45 -93 0 -27 -5 -95 -13 -152 -14 -106 -13 -553 1 -567 4 -4
19 7 34 24 l27 32 2 232 c3 277 31 487 65 487 5 0 15 3 24 6 21 8 21 -27 0
-154 -17 -96 -26 -453 -13 -467 4 -3 20 7 36 24 l30 29 6 174 c6 165 21 293
46 386 11 40 14 42 49 42 20 0 52 4 70 9 38 11 38 13 12 -89 -34 -134 -50
-231 -57 -344 l-6 -110 30 22 c17 12 35 22 41 22 5 0 12 37 15 83 6 87 45 294
72 385 13 43 20 52 39 52 21 0 24 -6 30 -62 17 -159 83 -355 115 -342 9 3 30
11 46 17 17 5 31 11 33 12 1 1 -5 18 -13 38 -19 47 -19 57 3 57 15 0 27 31 66
168 27 92 53 175 58 186 12 21 3 31 -35 40 -26 6 -29 3 -52 -46 -13 -29 -36
-102 -51 -163 -27 -115 -38 -140 -48 -109 -13 45 -35 208 -42 307 -7 124 -22
114 131 92 107 -15 208 -46 292 -89 l52 -26 -40 -74 c-47 -88 -93 -211 -119
-318 -21 -90 -25 -98 -49 -98 -50 0 -287 -77 -386 -125 -150 -73 -220 -120
-321 -217 -312 -299 -432 -690 -333 -1081 40 -159 137 -320 208 -345 34 -12
83 6 105 40 9 15 18 70 25 155 29 359 127 589 352 828 120 126 253 223 359
260 l38 13 32 -91 c41 -116 90 -214 146 -294 34 -50 41 -65 31 -75 -43 -45
-162 -229 -210 -324 -36 -72 -96 -246 -114 -334 -20 -102 -29 -383 -14 -493
31 -231 144 -479 294 -644 143 -156 389 -283 548 -283 130 1 202 87 153 183
-9 18 -61 78 -115 134 -241 252 -358 503 -376 808 -9 164 31 385 93 508 14 26
28 47 33 47 4 0 52 -25 106 -56 95 -55 205 -104 232 -104 8 0 13 13 13 38 0
37 0 37 -103 90 -96 50 -165 97 -155 108 3 2 38 -11 79 -29 41 -19 111 -45
155 -58 l82 -24 7 -80 c24 -285 111 -538 266 -775 196 -299 632 -571 957 -597
40 -3 75 -10 78 -14 12 -21 -97 -194 -201 -319 -25 -30 -50 -71 -55 -91 -10
-35 -14 -37 -74 -53 -274 -68 -685 -78 -986 -22 -626 116 -1236 506 -1647
1051 -361 480 -554 980 -650 1685 -23 168 -25 637 -4 830 16 154 69 423 115
591 85 309 219 598 412 889 198 299 499 600 748 747 l68 41 52 -16 c39 -13 84
-16 196 -14 141 2 145 1 182 -24 42 -30 78 -81 78 -112 0 -18 14 -24 108 -45
59 -14 154 -33 212 -42 58 -10 107 -19 108 -20 2 -2 -29 -13 -69 -25 -62 -19
-70 -24 -53 -32 10 -6 29 -20 41 -31 21 -18 24 -19 60 -5 21 9 80 24 132 34
85 16 113 16 280 7 102 -7 197 -16 211 -21 25 -10 24 -10 -10 -15 -19 -3 -71
-9 -115 -12 -44 -3 -109 -10 -145 -16 -93 -14 -280 -60 -280 -68 0 -4 12 -19
28 -33 l27 -26 73 19 c133 34 297 51 435 47 70 -3 127 -2 127 1 0 6 -32 64
-91 168 -22 39 -28 43 -64 43 -145 2 -382 21 -445 35 -41 10 -102 23 -135 29
-33 7 -55 15 -50 18 43 26 350 78 459 78 71 0 75 4 56 56 l-11 27 -87 -7
c-136 -11 -340 -52 -453 -92 -183 -63 -231 -57 -304 40 -74 99 -153 133 -276
118 -78 -10 -146 -6 -155 9 -20 33 420 205 700 275 238 58 350 76 531 83 l170
7 -90 9 c-121 13 -368 11 -485 -4 -442 -56 -922 -262 -1270 -545 -345 -280
-635 -632 -839 -1018 -34 -64 -68 -119 -75 -121 -8 -3 -22 3 -31 13 -17 18
-14 26 59 160 299 556 790 1055 1286 1309 211 108 447 191 685 241 231 48 418
59 650 40z m3504 -48 c50 -36 71 -80 71 -144 0 -81 -19 -122 -75 -157 -83 -52
-150 -47 -219 17 -68 64 -75 186 -13 257 47 55 179 70 236 27z m-638 -18 l24
-26 3 -593 3 -594 -22 -12 c-49 -26 -49 -21 -49 603 0 634 1 624 -56 538 l-27
-40 7 -225 7 -226 -85 -105 -86 -106 0 -164 0 -165 53 -56 c28 -30 94 -91 145
-136 72 -62 94 -88 102 -117 7 -25 9 -584 8 -1635 l-3 -1597 -85 -76 c-47 -42
-116 -106 -153 -143 l-68 -67 3 -183 3 -184 81 -96 80 -96 2 -304 c2 -298 2
-304 23 -322 12 -10 27 -16 33 -14 8 3 13 187 16 628 3 343 6 625 8 627 9 9
51 -1 56 -14 9 -23 6 -1169 -3 -1232 -9 -60 -29 -81 -79 -82 -28 0 -46 12
-110 72 -43 40 -127 116 -187 168 -60 52 -135 119 -167 149 l-58 54 2 236 3
236 28 3 27 3 0 -218 c0 -161 3 -223 13 -235 12 -15 153 -141 265 -237 l62
-53 0 257 0 257 -86 95 -86 96 4 214 4 215 49 47 c28 25 96 89 153 141 l103
95 -1 1590 0 1590 -67 65 c-38 36 -108 101 -156 145 l-87 80 0 182 c0 100 4
193 10 207 5 14 43 64 85 110 l75 85 0 190 c0 104 -4 192 -8 195 -9 5 -163
-125 -269 -226 l-63 -60 0 -213 c0 -176 -3 -215 -15 -225 -8 -7 -22 -10 -30
-6 -13 5 -15 40 -15 244 l0 240 68 63 c37 35 108 98 157 138 50 41 124 107
165 146 121 115 147 126 191 79z m-5870 -64 c10 -6 19 -20 19 -30 0 -17 -7
-20 -54 -20 -90 0 -170 -43 -211 -114 -46 -81 -41 -156 16 -221 56 -63 155
-70 205 -14 l19 22 -34 -18 c-91 -46 -208 59 -187 169 14 73 90 132 158 123
76 -10 168 -114 168 -189 0 -128 -134 -238 -252 -208 -68 17 -132 70 -163 135
-24 47 -27 64 -22 114 10 117 91 219 197 252 37 11 119 10 141 -1z m6709 -19
c5 -11 10 -58 10 -105 l0 -85 -51 -50 c-27 -27 -76 -69 -107 -92 -31 -24 -69
-54 -84 -67 -26 -24 -28 -24 -53 -8 -14 9 -25 22 -25 29 0 6 48 45 106 86 57
41 118 89 134 108 28 32 30 39 30 118 0 68 3 85 15 85 8 0 19 -9 25 -19z
m-2218 -459 c258 -193 579 -531 752 -792 116 -175 236 -408 306 -594 33 -86
33 -89 14 -102 -10 -8 -36 -31 -57 -51 l-38 -38 -6 25 c-9 36 -117 243 -129
247 -18 6 6 -138 41 -243 33 -99 33 -101 14 -125 -10 -13 -44 -66 -75 -117
-54 -88 -58 -92 -78 -78 -25 17 -25 13 9 141 54 207 50 414 -10 591 -66 194
-167 367 -243 419 -51 35 -119 35 -161 0 -40 -35 -59 -92 -66 -205 -7 -119
-26 -251 -36 -248 -3 2 -31 35 -60 75 -79 105 -232 276 -272 303 -33 23 -34
26 -41 108 -3 47 -4 87 -2 89 6 7 275 -256 307 -301 19 -25 30 -34 33 -25 15
47 14 67 -5 97 -31 52 -186 208 -281 284 -75 60 -89 77 -98 112 -6 22 -15 53
-20 69 -11 34 -6 34 34 1 17 -14 76 -60 131 -103 55 -43 142 -122 194 -175 51
-54 94 -96 95 -94 0 2 9 17 18 34 l17 31 -62 69 c-94 105 -216 211 -334 291
-59 40 -114 75 -123 78 -9 3 -26 27 -38 53 -12 26 -37 82 -56 124 -47 106 -45
108 122 108 l127 0 77 -58z m-4759 -40 c23 -16 87 -54 143 -85 149 -84 237
-148 245 -177 4 -14 7 -148 8 -297 l1 -273 -25 0 c-14 0 -28 6 -31 13 -2 7 -8
134 -12 282 l-7 269 -105 63 c-58 34 -107 63 -110 63 -3 0 -4 -64 -2 -142 l3
-141 75 -86 74 -86 0 -161 0 -161 -150 -154 -150 -154 0 -1316 0 -1316 128
-139 c191 -208 172 -169 172 -358 l0 -162 -31 -30 c-17 -16 -53 -54 -79 -85
l-47 -56 -2 -192 -2 -192 58 46 c32 26 84 67 116 93 l57 45 0 182 c0 150 3
185 15 195 12 10 15 47 15 216 l0 204 -44 0 c-42 0 -46 3 -120 85 -56 61 -77
91 -74 106 6 41 29 31 104 -45 73 -75 104 -92 104 -58 0 9 -27 150 -59 312
-116 578 -131 704 -131 1090 0 286 15 531 46 740 34 230 188 975 206 998 9 10
15 9 29 -4 24 -22 24 -43 -2 -157 -84 -376 -151 -733 -183 -988 -36 -278 -46
-712 -21 -932 27 -248 135 -850 190 -1068 9 -34 17 -140 21 -280 6 -201 5
-225 -9 -238 -15 -12 -17 -39 -17 -198 l0 -185 -38 -35 c-40 -37 -320 -253
-378 -291 -40 -26 -71 -22 -79 11 -3 12 -4 279 -3 592 l3 570 28 3 27 3 0
-550 c0 -302 3 -552 8 -554 4 -3 20 5 35 17 l28 22 6 240 6 239 74 76 73 75 0
146 c0 165 11 139 -114 268 -40 41 -96 102 -125 134 l-51 59 0 1351 0 1351
145 145 145 145 0 138 0 139 -75 89 -75 89 0 163 c0 174 -1 180 -52 212 l-28
17 -2 -498 -3 -499 -25 0 -25 0 0 528 c0 458 2 529 15 537 24 15 39 12 83 -18z
m4273 -98 l140 -84 31 -80 c17 -44 29 -80 27 -80 -2 0 -43 21 -90 46 -47 26
-87 45 -89 42 -2 -2 2 -22 9 -43 10 -29 28 -49 63 -73 26 -19 71 -51 99 -72
l52 -39 7 -71 c4 -39 5 -73 3 -75 -2 -2 -32 19 -67 46 -35 27 -67 49 -71 49
-9 0 -1 -78 9 -96 3 -6 37 -37 74 -69 l69 -58 -7 -71 c-9 -94 -23 -187 -30
-194 -3 -3 -22 13 -43 36 -21 23 -40 42 -43 42 -2 0 -6 -25 -7 -56 -3 -51 0
-60 27 -88 l29 -31 -54 -125 c-31 -69 -78 -190 -105 -270 -28 -79 -52 -147
-55 -150 -8 -8 -63 63 -64 82 0 9 15 52 34 95 41 93 88 249 107 353 19 101 19
455 0 530 -68 277 -137 442 -246 584 l-35 47 42 -22 c24 -12 106 -59 184 -105z
m-2106 -174 c74 -14 100 -27 100 -50 0 -30 -21 -34 -92 -17 -35 9 -84 18 -110
22 -36 5 -48 10 -48 24 0 41 26 45 150 21z m1864 -18 c21 -41 63 -176 82 -262
25 -120 30 -337 10 -459 -24 -142 -37 -176 -67 -176 -29 0 -30 11 -4 150 38
207 18 453 -53 665 -16 47 -27 91 -25 98 8 22 42 13 57 -16z m-1532 -124 c270
-180 460 -451 520 -738 14 -68 7 -93 -24 -88 -18 2 -24 13 -34 63 -25 122 -97
292 -167 394 -88 129 -239 269 -379 352 -53 31 -69 54 -51 72 16 16 47 3 135
-55z m-424 -244 c238 -77 437 -224 599 -441 78 -105 107 -157 66 -120 -24 21
-171 87 -194 87 -26 0 -24 17 4 31 12 6 24 13 26 16 3 2 -10 19 -29 38 l-33
34 -31 -24 c-50 -38 -86 -48 -106 -30 -9 8 -34 21 -55 28 -21 8 -40 18 -42 24
-2 5 25 27 59 48 35 21 65 40 68 42 3 3 -7 15 -23 29 l-27 23 -53 -31 c-28
-17 -61 -37 -72 -44 -27 -19 -36 -18 -73 9 l-31 24 65 41 c36 23 69 42 75 42
22 0 6 18 -31 35 l-39 18 -61 -37 c-34 -20 -65 -36 -70 -36 -30 0 -130 159
-130 207 0 20 4 22 33 16 17 -3 65 -17 105 -29z m2714 -344 c34 -41 81 -106
106 -145 25 -38 54 -83 64 -98 19 -28 19 -31 3 -105 -51 -228 -175 -481 -299
-610 -60 -63 -192 -161 -261 -194 -64 -30 -85 -34 -85 -17 0 6 -23 58 -51 116
l-52 105 23 46 c21 45 23 46 37 27 21 -28 103 -196 103 -211 0 -9 11 -7 36 8
30 18 35 25 29 47 -10 42 -83 192 -111 228 l-25 33 38 105 c21 57 40 105 43
105 11 0 115 -172 162 -269 l51 -105 23 30 c13 16 24 35 24 43 0 20 -97 201
-164 307 -31 48 -56 95 -56 103 0 15 88 229 100 243 13 17 260 -352 260 -389
0 -30 19 -9 29 32 10 40 9 52 -8 90 -33 74 -154 255 -219 327 l-25 27 26 93
c14 51 29 117 32 147 l7 53 50 -48 c27 -27 77 -83 110 -124z m338 -255 c28
-33 -50 -306 -138 -480 -80 -160 -192 -305 -226 -292 -27 11 -18 36 38 105
107 133 188 305 241 507 14 54 25 106 25 117 0 48 35 73 60 43z m-3452 -155
c124 -35 308 -136 375 -208 26 -27 27 -31 12 -45 -14 -14 -22 -11 -92 39 -168
121 -324 174 -507 174 -128 0 -211 -17 -309 -62 -52 -24 -70 -29 -80 -19 -20
20 4 43 83 83 45 23 107 44 155 53 104 19 265 13 363 -15z m1804 -37 c32 -14
63 -33 70 -41 15 -18 21 -20 -97 32 -44 20 -85 36 -92 36 -6 0 -14 4 -17 9 -9
14 73 -8 136 -36z m-222 -33 c193 -55 347 -148 490 -296 101 -105 173 -210
220 -321 97 -231 124 -506 70 -730 -53 -220 -158 -419 -292 -553 -176 -174
-351 -261 -603 -297 -93 -14 -125 -14 -207 -4 -364 45 -677 262 -837 580 -56
110 -109 285 -122 404 -29 264 48 571 202 798 150 224 424 397 694 439 98 15
299 5 385 -20z m2647 -134 c48 -145 93 -394 112 -631 13 -152 5 -542 -14 -710
-36 -322 -91 -556 -195 -839 -42 -114 -137 -312 -169 -355 l-19 -25 -41 85
-41 85 0 128 0 128 34 41 c144 179 254 515 201 617 -22 43 -62 70 -105 70 -42
0 -74 -21 -210 -135 -47 -39 -103 -85 -125 -102 -53 -40 -195 -126 -200 -121
-3 3 -7 18 -11 34 -5 27 -1 32 62 74 81 53 112 97 147 205 90 273 152 679 132
861 l-7 69 -15 -30 c-9 -17 -24 -41 -34 -54 -15 -18 -19 -41 -19 -100 0 -193
-57 -505 -128 -709 -44 -123 -65 -162 -87 -162 -20 0 -19 21 10 120 62 209
105 484 105 669 0 87 2 95 28 126 15 17 65 87 111 153 46 67 86 122 90 122 9
0 25 -68 43 -180 7 -44 12 -181 12 -330 1 -251 -8 -345 -43 -467 -11 -38 -8
-40 26 -13 14 11 34 20 44 20 11 0 19 3 19 7 0 4 9 75 21 158 18 128 20 183
16 370 -5 228 -17 327 -58 456 l-21 67 24 34 c14 18 42 62 63 97 l38 63 14
-33 c21 -51 70 -260 88 -379 36 -236 30 -547 -15 -750 l-17 -80 30 -15 c17 -8
32 -15 34 -15 8 0 23 55 39 142 54 312 27 744 -69 1095 l-33 122 45 45 c25 26
50 45 55 43 5 -2 20 -34 33 -71z m-2041 -84 c151 -110 290 -362 340 -617 25
-125 25 -379 1 -495 -41 -195 -118 -371 -208 -472 -28 -32 -55 -58 -60 -58 -5
0 20 56 56 124 130 246 169 396 168 651 0 193 -19 303 -79 458 -50 131 -161
311 -252 410 -33 35 -16 35 34 -1z m313 -20 l30 -38 -26 -52 -26 -52 -37 57
-38 57 26 32 c15 18 30 33 34 33 3 1 20 -16 37 -37z m1251 -232 c0 -29 -140
-233 -242 -352 -67 -78 -246 -214 -254 -193 -4 10 4 24 22 38 142 110 264 244
391 429 58 85 83 109 83 78z m-230 -655 c-14 -132 -49 -302 -91 -445 -74 -253
-64 -228 -81 -200 -8 14 -38 68 -66 120 l-50 95 20 39 c24 47 62 192 79 305
11 70 11 84 -2 92 -11 7 -4 18 36 52 28 23 75 65 105 94 l55 52 3 -47 c2 -26
-2 -96 -8 -157z m-3342 -31 c3 -19 -8 -24 -92 -48 -290 -80 -537 -269 -681
-521 -34 -60 -45 -69 -65 -49 -13 13 -11 23 23 87 84 159 252 331 415 423 195
112 392 165 400 108z m2922 -51 c-11 -26 -28 -58 -36 -71 l-15 -23 -35 45
c-19 25 -34 47 -34 50 0 3 26 13 58 22 31 9 61 20 66 25 19 17 17 0 -4 -48z
m141 -69 c-16 -82 -52 -214 -60 -214 -3 0 -22 26 -42 58 -32 53 -35 61 -22 78
8 10 40 62 71 114 l57 95 3 -37 c2 -21 -2 -63 -7 -94z m-411 14 c0 -12 -5 -85
-11 -163 -8 -103 -16 -145 -28 -159 -32 -37 -177 -139 -253 -177 -43 -22 -78
-37 -78 -34 0 3 21 33 47 67 65 85 115 189 158 327 20 64 40 123 44 131 5 9
29 17 57 21 27 3 52 7 57 7 4 1 7 -8 7 -20z m129 -79 l33 -39 -42 -55 c-47
-60 -55 -66 -47 -32 4 12 7 55 8 95 1 39 5 72 8 71 3 0 21 -18 40 -40z m139
-203 c32 -48 33 -52 21 -90 -7 -21 -44 -99 -81 -174 -37 -74 -68 -136 -68
-138 0 -2 18 -4 39 -4 37 0 41 3 75 58 19 32 52 93 72 136 l37 78 36 -69 c21
-37 51 -93 69 -124 l32 -56 -27 -11 c-16 -6 -68 -24 -118 -39 -85 -26 -101
-27 -280 -27 -206 0 -281 13 -404 70 l-56 25 81 38 c45 21 115 62 158 90 42
28 76 46 76 40 0 -7 -21 -50 -46 -97 -25 -46 -43 -86 -41 -88 3 -3 20 -7 40
-11 34 -5 35 -4 70 58 33 61 107 236 107 255 0 5 35 44 77 86 66 66 80 75 88
61 6 -9 25 -39 43 -67z m420 -454 c4 -27 -19 -41 -138 -85 -190 -71 -422 -100
-618 -78 -113 12 -145 23 -140 49 3 14 15 17 68 16 306 -6 350 -5 440 10 85
15 252 66 335 102 37 16 49 13 53 -14z m-1558 -179 c39 -29 47 -40 38 -50 -19
-23 -89 -59 -166 -87 l-73 -26 -45 37 c-27 23 -40 41 -35 46 6 6 38 22 73 37
35 15 83 39 108 53 25 15 46 27 48 27 1 0 25 -17 52 -37z m260 -188 c135 -84
274 -156 339 -176 31 -9 49 -22 60 -42 57 -104 158 -148 371 -163 l94 -7 -59
-54 c-76 -68 -199 -151 -290 -194 -38 -19 -72 -35 -74 -36 -8 -5 42 -53 54
-53 7 0 52 20 101 44 103 50 207 127 314 231 l75 73 75 7 c76 7 254 40 271 51
5 3 9 0 9 -5 0 -29 -337 -372 -417 -426 -24 -15 -43 -29 -43 -32 0 -2 10 -17
21 -33 l22 -29 59 41 c109 73 370 347 461 482 14 22 48 51 76 66 l50 28 21
-53 c11 -28 34 -66 50 -84 17 -18 30 -38 30 -46 0 -17 -122 -203 -218 -330
-215 -286 -550 -607 -726 -695 -104 -53 -244 -37 -311 36 -14 15 -25 32 -25
38 0 7 22 20 49 30 181 65 431 297 431 401 0 43 -32 97 -71 120 -32 19 -49 20
-244 17 -288 -4 -419 21 -619 120 -191 93 -378 274 -467 450 -33 65 -83 208
-75 215 7 7 33 -13 109 -83 65 -60 72 -74 35 -74 -23 0 -23 -5 3 -47 21 -33
24 -35 66 -28 41 6 46 4 94 -39 27 -25 93 -77 145 -117 86 -66 94 -74 78 -86
-10 -7 -32 -16 -51 -19 -44 -8 -51 -23 -22 -45 31 -24 55 -24 118 3 l52 21 32
-30 c46 -43 188 -140 239 -163 59 -27 88 -26 88 3 0 12 -4 27 -8 33 -9 12
-190 147 -220 163 -37 20 -25 38 55 81 85 46 203 135 203 154 0 6 -14 20 -30
30 l-30 17 -49 -43 c-26 -24 -94 -69 -150 -100 l-102 -58 -117 94 c-174 139
-169 125 -68 174 47 22 101 51 120 64 l35 24 -35 28 -36 28 -22 -21 c-24 -23
-120 -71 -179 -90 l-38 -13 -54 57 -55 57 32 11 c18 7 76 33 128 59 52 26 101
45 108 43 6 -3 66 -38 132 -80z m1540 -63 c0 -68 -6 -76 -95 -120 -145 -72
-365 -115 -590 -115 -165 -1 -248 15 -301 58 l-29 23 50 -10 c28 -6 129 -11
225 -12 155 0 188 3 290 27 121 28 312 113 395 175 22 17 43 31 48 31 4 1 7
-25 7 -57z m-4760 -151 c222 -441 483 -791 795 -1068 423 -375 888 -601 1385
-673 138 -20 183 -22 400 -17 257 5 404 23 552 67 64 19 68 19 97 3 17 -10 31
-21 31 -24 0 -21 -263 -87 -430 -108 -119 -15 -577 -7 -695 13 -548 90 -1103
390 -1526 823 -184 188 -288 319 -432 539 -83 128 -277 478 -277 501 0 6 7 19
16 28 23 22 38 7 84 -84z m5162 -48 c25 -23 23 -34 -16 -79 -18 -21 -80 -103
-137 -180 -362 -492 -506 -656 -794 -898 -195 -164 -332 -264 -660 -479 -222
-145 -312 -214 -298 -227 4 -5 79 -14 165 -21 l157 -12 103 90 c120 104 163
137 278 219 87 62 476 330 496 342 7 4 14 51 17 121 4 97 7 117 23 128 17 12
21 11 38 -9 15 -19 30 -24 97 -28 l79 -5 0 106 c0 148 5 169 41 169 l29 0 0
-156 0 -156 37 -59 c27 -44 38 -74 41 -114 6 -70 -7 -89 -95 -145 -37 -24
-106 -68 -153 -98 -69 -45 -243 -151 -541 -330 -31 -18 -59 -10 -59 17 0 24
29 45 265 186 290 173 515 319 521 338 5 17 -41 125 -68 158 -9 11 -39 18
-100 23 l-88 7 0 -84 c0 -98 12 -82 -150 -193 -63 -43 -176 -121 -250 -173
-74 -52 -168 -117 -209 -145 -41 -28 -116 -89 -168 -136 -52 -47 -112 -98
-133 -114 l-39 -29 -174 13 -175 12 -43 -47 c-75 -81 -105 -89 -302 -75 -78 5
-209 14 -292 20 -82 5 -244 17 -360 25 -115 9 -370 27 -565 40 -195 14 -372
30 -393 36 -52 14 -116 74 -143 134 -28 63 -55 88 -239 220 -259 186 -332 249
-726 632 l-116 113 -94 0 -94 0 -27 -44 c-16 -24 -28 -48 -28 -53 0 -15 269
-274 475 -458 96 -86 177 -167 180 -178 3 -12 6 -49 7 -82 l3 -60 55 -3 c78
-3 100 -10 100 -30 -1 -45 -3 -45 -251 -27 -504 36 -588 43 -598 49 -6 4 -11
30 -11 58 0 42 -4 53 -26 70 -52 41 -51 115 2 157 23 18 24 22 24 165 0 125
-2 146 -15 146 -31 0 -72 30 -85 60 -17 40 1 106 30 115 11 4 27 22 35 41 8
19 21 42 30 50 12 13 15 47 15 199 0 160 2 185 16 193 9 5 25 7 35 5 17 -5 19
-18 19 -157 l0 -151 95 -2 94 -2 3 42 c3 36 7 43 27 45 31 5 43 -15 35 -61 -6
-37 -4 -40 88 -131 285 -284 537 -504 728 -636 196 -136 221 -158 265 -239 22
-40 53 -82 69 -94 32 -23 128 -34 546 -62 399 -26 790 -53 1026 -71 l222 -17
44 26 c52 30 68 52 92 125 11 31 32 67 53 87 37 36 44 41 303 211 485 319 753
539 1010 831 102 116 320 400 460 598 61 87 109 145 119 145 2 0 13 -7 23 -17z
m-2291 -341 c135 -119 290 -197 504 -254 43 -12 50 -17 53 -41 3 -23 0 -27
-21 -27 -38 0 -192 47 -278 85 -132 58 -325 191 -335 230 -14 56 18 58 77 7z
m-3318 -795 c124 -52 177 -193 113 -301 -35 -60 -77 -89 -140 -94 -64 -5 -111
24 -143 88 -28 55 -29 89 -3 140 27 53 68 80 121 80 34 0 40 3 30 13 -6 6 -34
12 -60 12 -86 0 -161 -78 -161 -169 0 -145 87 -236 225 -236 63 0 66 -1 63
-22 -2 -17 -14 -25 -48 -35 -97 -29 -209 33 -267 146 -28 52 -33 74 -33 129 0
177 160 308 303 249z m4036 -86 c42 -42 82 -58 173 -68 l57 -6 -62 -38 c-131
-82 -403 -209 -448 -209 -21 0 -5 29 59 107 37 45 92 120 122 166 30 47 56 86
58 86 1 1 20 -17 41 -38z m2551 -45 c173 -137 164 -123 168 -282 3 -114 1
-139 -13 -161 -27 -41 -35 -12 -35 133 l0 132 -97 78 c-164 134 -179 149 -164
168 7 9 19 16 25 16 6 0 58 -38 116 -84z m-1036 -156 c26 -11 68 -40 96 -66
183 -171 66 -489 -180 -489 -92 1 -163 38 -141 74 6 8 18 7 52 -5 144 -51 319
89 295 238 -26 164 -198 250 -316 159 l-25 -20 47 16 c64 21 109 11 160 -35
70 -63 86 -135 45 -207 -76 -134 -260 -117 -328 30 -21 45 -25 138 -8 182 26
70 136 143 216 143 23 0 62 -9 87 -20z m-4365 -170 c153 -177 167 -200 128
-224 -15 -9 -22 -6 -40 19 -12 17 -53 64 -91 105 -120 130 -196 222 -196 240
0 20 21 42 36 38 6 -2 79 -82 163 -178z m5357 145 c59 -35 74 -70 74 -177 0
-97 -18 -142 -68 -171 -36 -21 -61 -22 -193 -12 l-89 7 0 122 c0 156 17 196
100 239 66 34 108 32 176 -8z m-1386 -245 c6 -21 22 -52 35 -68 13 -16 29 -40
34 -54 18 -49 -35 -118 -92 -118 -53 0 -113 79 -100 131 3 13 23 43 45 66 21
24 38 52 38 63 0 36 29 22 40 -20z m-495 -260 c408 -28 545 -42 545 -55 0 -7
-9 -20 -20 -30 -19 -17 -31 -17 -208 -7 -356 22 -635 43 -643 48 -22 13 -1 64
26 64 5 0 141 -9 300 -20z"/>
<path d="M7820 5082 l0 -2600 33 12 c17 6 38 15 45 19 9 7 12 531 12 2566 l0
2557 -37 19 c-21 11 -41 21 -45 23 -5 2 -8 -1166 -8 -2596z"/>
<path d="M7980 5071 c0 -1387 2 -2521 4 -2521 2 0 25 9 50 20 l46 19 0 2478 0
2478 -43 19 c-23 11 -45 22 -49 24 -5 2 -8 -1131 -8 -2517z"/>
<path d="M8147 7213 c-3 -159 -6 -1257 -5 -2441 l2 -2153 25 6 c15 4 37 12 50
18 l24 12 -2 2399 c-1 1320 -2 2400 -4 2401 -35 20 -79 45 -81 45 -2 0 -6
-129 -9 -287z"/>
<path d="M8310 5044 l0 -2365 21 6 c12 4 74 29 138 55 l116 48 0 2238 0 2238
-130 73 c-71 39 -133 72 -137 73 -5 0 -8 -1065 -8 -2366z"/>
<path d="M6784 8644 c-10 -38 17 -61 51 -46 42 20 27 72 -22 72 -16 0 -25 -8
-29 -26z"/>
<path d="M7043 8570 c-24 -12 -43 -26 -43 -31 0 -6 8 -5 19 1 11 5 46 10 77
10 55 0 59 -2 100 -45 67 -69 71 -138 13 -208 -62 -76 -148 -96 -213 -52 -45
30 -47 19 -3 -22 65 -61 113 -68 195 -27 61 30 94 66 117 128 32 82 4 164 -77
229 -51 41 -125 47 -185 17z"/>
<path d="M7045 8485 c-66 -35 -85 -106 -44 -159 32 -41 64 -49 105 -30 76 36
97 109 47 163 -35 38 -69 46 -108 26z"/>
<path d="M2335 8175 c-55 -7 -164 -19 -242 -26 l-142 -13 25 -29 c35 -42 32
-88 -10 -134 l-33 -38 0 -147 0 -147 101 92 c135 125 232 208 357 307 114 91
123 101 114 130 -7 23 -23 24 -170 5z"/>
<path d="M1870 8075 c-15 -18 -6 -61 16 -69 25 -9 54 12 54 40 0 17 -8 27 -26
34 -32 12 -29 13 -44 -5z"/>
<path d="M1830 7575 c-20 -24 -8 -50 24 -50 36 0 56 26 37 49 -17 20 -45 21
-61 1z"/>
<path d="M4473 7148 c-29 -5 -53 -13 -53 -17 0 -4 13 -19 28 -34 l28 -27 105
8 c57 5 136 7 174 5 65 -4 216 -27 259 -40 17 -5 18 -1 12 38 -4 24 -9 45 -11
47 -2 2 -45 10 -97 18 -104 16 -365 17 -445 2z"/>
<path d="M4593 6922 l-22 -7 20 -31 19 -31 138 -6 c75 -3 177 -14 225 -24 l88
-19 -3 40 -3 41 -85 17 c-91 19 -341 32 -377 20z"/>
<path d="M4690 6692 c0 -5 5 -23 11 -41 12 -33 13 -34 115 -51 34 -6 99 -21
145 -35 46 -14 88 -25 92 -25 5 0 7 19 5 43 -3 41 -4 42 -58 60 -49 15 -127
31 -267 52 -25 4 -43 3 -43 -3z"/>
<path d="M4745 6503 c4 -10 10 -28 12 -40 4 -18 12 -23 37 -23 33 -1 191 -32
217 -44 13 -5 19 1 28 25 6 18 11 33 11 34 0 16 -209 65 -277 65 -30 0 -34 -3
-28 -17z"/>
<path d="M2249 5435 l-46 -44 -12 -108 c-22 -217 -10 -508 30 -692 l11 -53 25
43 25 44 -18 202 c-15 173 -16 222 -6 350 7 81 19 181 28 222 8 40 14 75 12
76 -2 2 -24 -16 -49 -40z"/>
<path d="M3187 4626 l-28 -23 32 -84 c30 -80 119 -246 159 -299 l18 -24 21 24
c11 14 20 30 21 37 0 6 -22 48 -49 92 -46 76 -114 224 -127 277 -8 29 -12 29
-47 0z"/>
<path d="M3063 4525 c-13 -19 -23 -37 -23 -41 0 -15 134 -269 183 -347 l55
-87 21 26 c26 33 26 41 1 79 -44 65 -131 226 -165 306 -20 46 -39 87 -43 91
-4 4 -17 -8 -29 -27z"/>
<path d="M2903 4363 c-13 -19 -23 -40 -23 -46 0 -19 124 -268 165 -333 55 -86
126 -186 131 -182 2 2 10 20 18 40 15 35 15 36 -20 84 -70 98 -135 214 -189
340 -30 70 -56 128 -58 130 -1 1 -12 -14 -24 -33z"/>
<path d="M2785 4186 c-73 -131 -125 -321 -125 -457 0 -38 -6 -78 -12 -89 -11
-17 -8 -24 18 -52 21 -23 41 -65 64 -138 63 -195 171 -385 324 -568 82 -98
218 -221 224 -203 6 18 -56 126 -101 176 -128 143 -293 406 -313 500 -6 25 13
10 120 -97 69 -71 131 -128 137 -128 8 0 9 13 5 38 -3 20 -6 42 -6 48 0 6 -47
62 -105 125 -129 139 -202 233 -248 319 -34 64 -35 66 -24 128 6 34 14 62 17
62 3 0 16 -20 28 -45 37 -76 172 -262 252 -347 l76 -82 -1 56 c0 49 -5 60 -37
96 -85 94 -208 273 -263 382 -35 70 -36 75 -25 116 7 24 16 44 19 44 4 0 29
-39 55 -86 65 -116 176 -281 229 -340 l44 -48 7 52 c7 51 5 54 -33 100 -90
108 -214 323 -278 482 -9 23 -11 21 -48 -44z"/>
<path d="M3820 3744 c-6 -14 -10 -29 -10 -34 0 -14 93 -78 168 -115 79 -39
221 -89 229 -81 3 3 3 20 -1 39 -6 31 -12 36 -79 62 -78 30 -177 82 -244 127
-23 15 -44 28 -48 28 -3 0 -10 -12 -15 -26z"/>
<path d="M3788 3580 c-3 -37 -1 -42 33 -64 100 -67 250 -128 369 -150 l72 -14
-6 31 c-8 41 -12 45 -79 62 -121 31 -255 91 -360 160 -25 16 -25 16 -29 -25z"/>
<path d="M3776 3343 c3 -27 7 -48 8 -49 17 -13 228 -102 302 -128 100 -34 270
-73 279 -64 3 2 -4 23 -15 46 -17 34 -26 42 -58 48 -130 22 -305 84 -428 150
-45 24 -84 44 -88 44 -4 0 -4 -21 0 -47z"/>
<path d="M3857 2993 c-3 -3 6 -27 20 -53 24 -45 34 -52 122 -93 119 -56 226
-90 369 -117 99 -19 328 -41 337 -32 2 2 -16 21 -38 41 -40 37 -46 39 -147 50
-201 23 -374 73 -534 153 -94 47 -122 58 -129 51z"/>
<path d="M4009 2733 c57 -77 65 -82 176 -117 149 -48 268 -66 470 -73 164 -6
171 -7 210 -33 22 -15 60 -37 84 -50 75 -37 38 -45 -214 -45 -173 1 -239 5
-310 19 -141 29 -165 31 -165 13 0 -44 18 -63 72 -75 177 -39 415 -51 613 -32
120 12 287 48 279 61 -3 5 -11 9 -18 9 -26 0 -328 157 -376 196 -10 7 -74 14
-180 17 -205 6 -314 25 -503 88 -81 27 -150 49 -153 49 -3 0 4 -12 15 -27z"/>
<path d="M8033 8181 c-41 -26 -53 -49 -53 -105 0 -36 6 -52 29 -78 25 -28 36
-33 71 -32 51 2 89 27 113 77 15 31 17 43 8 70 -25 75 -106 107 -168 68z"/>
<path d="M1558 7975 c-70 -38 -42 -165 36 -165 29 0 75 35 87 67 13 34 -13 90
-46 103 -34 13 -44 12 -77 -5z"/>
<path d="M6097 6539 c-9 -6 -17 -16 -17 -24 0 -21 181 -265 192 -259 24 15
-13 113 -84 216 -44 65 -65 81 -91 67z"/>
<path d="M5988 6058 c-3 -7 10 -35 27 -63 18 -27 44 -74 59 -102 14 -29 31
-53 36 -53 5 0 17 11 26 25 15 23 15 27 -11 72 -61 106 -124 161 -137 121z"/>
<path d="M4360 6114 c-93 -15 -153 -28 -210 -46 -338 -108 -597 -401 -676
-763 -22 -99 -29 -304 -15 -406 52 -362 295 -684 620 -820 232 -97 513 -90
756 20 460 209 699 821 518 1326 -96 267 -282 475 -542 605 -112 56 -348 99
-451 84z m279 -247 c163 -57 350 -205 430 -340 49 -83 97 -210 117 -307 21
-106 15 -270 -15 -385 -77 -290 -293 -519 -561 -592 -99 -27 -282 -24 -380 6
-151 46 -275 127 -380 246 -226 258 -272 634 -116 950 89 180 206 300 372 381
124 61 191 75 339 70 96 -3 135 -9 194 -29z"/>
<path d="M4335 5829 c-255 -32 -476 -217 -575 -482 -88 -234 -59 -507 75 -723
59 -94 180 -209 272 -257 192 -101 427 -103 619 -7 345 174 499 626 344 1015
-97 245 -316 423 -560 455 -84 11 -80 11 -175 -1z m109 -201 c3 -13 6 -42 6
-65 0 -38 3 -43 23 -43 44 0 140 -40 184 -76 l45 -37 43 43 c44 44 69 49 89
18 9 -15 3 -26 -35 -63 l-45 -46 39 -78 c34 -69 40 -90 44 -168 6 -104 -12
-190 -58 -272 l-31 -54 48 -48 c47 -47 47 -49 29 -69 -10 -11 -22 -20 -27 -20
-5 0 -29 19 -54 42 l-45 41 -32 -31 c-36 -35 -123 -77 -179 -87 l-37 -7 -3
-62 c-3 -61 -3 -61 -35 -64 l-33 -3 0 64 0 64 -45 6 c-62 9 -149 52 -180 89
l-27 31 -21 -25 c-36 -43 -74 -63 -92 -48 -24 20 -18 46 18 75 48 41 49 49 22
97 -88 152 -85 355 8 491 l19 28 -41 42 c-46 47 -51 71 -20 88 19 9 27 6 63
-30 l42 -41 25 26 c35 39 136 84 187 84 l42 0 0 65 c0 65 0 65 29 65 21 0 30
-6 35 -22z"/>
<path d="M4294 5444 c-23 -8 -58 -29 -79 -47 l-36 -32 97 -97 c54 -54 99 -98
101 -98 2 0 3 65 3 145 0 164 3 160 -86 129z"/>
<path d="M4440 5315 c0 -110 3 -145 13 -144 6 1 52 44 102 96 74 77 88 97 79
111 -14 24 -131 82 -166 82 l-28 0 0 -145z"/>
<path d="M4098 5253 c-14 -32 -29 -78 -33 -101 l-7 -42 129 0 c72 0 133 3 136
6 6 6 -174 185 -193 192 -4 1 -18 -23 -32 -55z"/>
<path d="M4593 5212 c-51 -52 -93 -96 -93 -98 0 -2 61 -4 136 -4 l137 0 -5 38
c-6 44 -58 156 -73 158 -5 0 -52 -42 -102 -94z"/>
<path d="M4121 5043 l-63 -4 6 -42 c4 -23 20 -71 37 -107 l30 -65 100 102 c54
57 99 107 99 113 0 10 -66 11 -209 3z"/>
<path d="M4495 5040 c-2 -3 41 -51 95 -105 81 -81 101 -96 113 -86 21 17 56
103 63 153 l6 43 -136 1 c-75 1 -139 -2 -141 -6z"/>
<path d="M4278 4879 c-51 -55 -94 -106 -96 -112 -3 -16 114 -83 161 -91 l37
-7 0 156 c0 85 -2 155 -4 155 -3 0 -46 -45 -98 -101z"/>
<path d="M4444 4888 c3 -50 6 -119 6 -154 l0 -63 46 14 c44 13 154 74 154 85
0 9 -196 210 -205 210 -4 0 -5 -41 -1 -92z"/>
<path d="M1831 2508 c-18 -49 36 -79 63 -36 8 13 6 22 -8 37 -25 27 -45 27
-55 -1z"/>
<path d="M1937 2423 c-4 -3 -7 -80 -7 -169 0 -153 1 -163 20 -169 29 -9 60
-58 60 -96 0 -25 -9 -40 -40 -69 -65 -60 -59 -65 95 -75 189 -11 380 -25 408
-30 27 -4 27 -4 27 54 l0 59 -97 88 c-54 49 -178 162 -275 251 -97 90 -179
163 -181 163 -2 0 -7 -3 -10 -7z"/>
<path d="M1874 2015 c-8 -34 1 -55 25 -55 22 0 51 25 51 44 0 40 -66 50 -76
11z"/>
<path d="M1538 2210 c-26 -27 -30 -36 -25 -68 7 -40 54 -92 85 -92 19 0 60 26
79 50 7 8 13 32 13 53 0 83 -91 117 -152 57z"/>
<path d="M7028 1934 c-35 -19 -48 -43 -48 -92 0 -33 6 -45 35 -71 40 -35 78
-40 115 -14 40 27 49 45 50 91 0 82 -78 127 -152 86z"/>
<path d="M8044 2010 c-42 -17 -64 -58 -64 -120 0 -68 22 -102 76 -120 44 -15
83 -1 119 42 49 58 26 166 -40 194 -38 16 -60 17 -91 4z"/>
<path d="M6757 1735 c-21 -15 -22 -61 -1 -69 27 -11 43 -7 54 14 20 38 -20 80
-53 55z"/>
</g>
</svg>
