<?xml version="1.0" standalone="no"?>
<!DOCTYPE svg PUBLIC "-//W3C//DTD SVG 20010904//EN"
 "http://www.w3.org/TR/2001/REC-SVG-20010904/DTD/svg10.dtd">
<svg version="1.0" xmlns="http://www.w3.org/2000/svg"
 width="1024.000000pt" height="1024.000000pt" viewBox="0 0 1024.000000 1024.000000"
 preserveAspectRatio="xMidYMid meet">
<metadata>
Created by potrace 1.16, written by Peter Selinger 2001-2019
</metadata>
<g transform="translate(0.000000,1024.000000) scale(0.100000,-0.100000)"
fill="#000000" stroke="none">
<path d="M4523 8691 c-104 -38 -187 -121 -230 -231 -17 -42 -18 -113 -21
-1022 l-2 -978 -643 0 c-380 0 -667 -4 -704 -10 -286 -47 -588 -221 -778 -450
-164 -198 -258 -385 -311 -620 -23 -99 -27 -141 -28 -295 l-2 -180 -60 -6
c-209 -20 -387 -176 -424 -370 -13 -65 -13 -832 0 -917 18 -126 111 -267 218
-329 62 -37 155 -63 223 -63 49 0 59 -3 59 -17 0 -36 80 -253 126 -344 107
-215 287 -422 481 -556 l55 -38 -475 -5 c-461 -5 -476 -6 -504 -26 -42 -31
-65 -81 -60 -133 5 -49 29 -86 77 -118 l33 -23 512 0 513 0 98 53 99 52 2319
3 2319 2 97 -55 97 -56 516 3 c505 3 516 3 544 24 71 52 93 136 53 201 -42 70
-21 67 -558 73 l-484 5 88 60 c113 76 271 233 358 355 84 118 175 303 214 435
l30 100 68 7 c78 7 150 29 209 63 63 36 152 137 188 212 l32 68 3 475 c3 536
3 540 -73 654 -73 110 -176 175 -325 203 l-90 17 0 56 c-1 30 -5 125 -9 210
-8 133 -14 172 -45 279 -46 157 -97 266 -191 408 -174 260 -426 451 -720 546
-145 46 -154 47 -845 47 l-660 0 -2 978 -3 977 -24 60 c-18 45 -42 78 -95 131
-110 109 -75 104 -690 104 -484 -1 -525 -2 -573 -19z m865 -453 l-3 -113 -297
-2 -298 -2 0 115 0 114 300 0 301 0 -3 -112z m2 -508 l0 -120 -300 0 -300 0 0
120 0 120 300 0 300 0 0 -120z m0 -515 c0 -103 -2 -115 -17 -116 -10 0 -145
-1 -300 -2 l-283 -2 0 118 0 117 300 0 300 0 0 -115z m148 -490 c21 -15 22
-23 22 -141 l0 -124 -472 0 -473 0 -3 109 c-4 117 4 146 41 161 12 4 211 9
442 9 367 1 423 -1 443 -14z m1631 -668 c183 -53 335 -139 474 -268 145 -133
259 -316 309 -494 23 -80 23 -83 26 -950 2 -589 -1 -897 -8 -953 -50 -383
-365 -748 -750 -871 -185 -59 -30 -55 -2095 -59 -2063 -3 -1970 -5 -2151 54
-368 119 -663 422 -756 776 -21 81 -22 99 -26 898 -4 863 1 1014 39 1136 30
97 97 224 173 325 172 228 406 374 681 423 68 12 373 14 2035 13 l1955 -2 94
-28z m-5361 -2001 l2 -449 -37 6 c-26 4 -49 18 -70 42 l-33 35 0 365 c0 425
-1 418 90 449 46 15 45 29 48 -448z m6660 428 c49 -32 52 -57 52 -428 0 -297
-2 -350 -16 -379 -17 -36 -50 -60 -96 -71 -22 -5 -28 -3 -29 11 0 21 0 886 1
892 1 8 65 -10 88 -25z"/>
<path d="M3170 5883 c-124 -21 -280 -82 -378 -148 -77 -51 -203 -176 -255
-251 -123 -178 -185 -423 -131 -514 33 -57 80 -83 140 -78 83 7 139 63 159
158 3 19 27 78 52 130 39 82 58 107 137 185 102 102 160 137 272 165 76 20
116 20 1918 20 1556 0 1850 -2 1901 -15 215 -50 378 -203 461 -430 15 -42 19
-93 24 -325 5 -261 6 -277 27 -310 67 -108 223 -103 281 10 23 45 23 48 19
340 -4 315 -7 337 -63 480 -97 245 -299 437 -565 537 -48 18 -118 37 -156 43
-66 9 -3787 12 -3843 3z"/>
<path d="M3267 5135 c-69 -24 -97 -65 -97 -144 0 -122 142 -182 235 -100 44
39 62 93 46 140 -29 86 -109 131 -184 104z"/>
<path d="M6245 5139 c-17 -4 -46 -24 -64 -43 -28 -29 -35 -45 -39 -88 -5 -65
23 -113 81 -141 97 -48 225 49 202 154 -9 39 -61 98 -102 115 -36 16 -36 16
-78 3z"/>
<path d="M6815 5135 c-48 -17 -80 -52 -96 -105 -16 -52 9 -120 54 -152 43 -31
124 -32 164 -2 39 29 73 82 73 113 0 41 -41 113 -75 133 -46 26 -76 29 -120
13z"/>
<path d="M3830 5133 c-23 -9 -60 -45 -76 -75 -65 -124 94 -263 206 -180 36 27
70 81 70 110 0 41 -39 110 -74 132 -32 19 -92 25 -126 13z"/>
<path d="M4495 5030 c-17 -5 -46 -25 -65 -45 -30 -31 -35 -43 -38 -98 -3 -52
0 -67 20 -96 13 -19 37 -43 55 -54 30 -17 63 -18 608 -17 464 0 583 3 610 14
41 18 84 74 92 120 8 52 -21 120 -65 154 l-35 27 -576 2 c-317 1 -590 -3 -606
-7z"/>
<path d="M2462 4680 c-70 -43 -97 -132 -62 -205 40 -82 132 -109 214 -62 98
56 100 209 3 267 -42 26 -112 26 -155 0z"/>
<path d="M4017 4649 c-50 -26 -77 -72 -77 -129 0 -61 29 -106 85 -131 38 -17
51 -18 87 -9 138 37 159 209 33 270 -51 25 -79 25 -128 -1z"/>
<path d="M6036 4660 c-85 -26 -124 -139 -76 -218 25 -41 98 -76 138 -67 72 15
132 81 132 144 0 51 -37 108 -85 131 -44 21 -64 23 -109 10z"/>
<path d="M3270 4642 c-85 -22 -143 -58 -207 -124 -76 -81 -107 -152 -128 -294
-3 -22 1 -72 9 -112 50 -241 277 -403 508 -364 185 32 338 171 377 343 57 246
-106 507 -347 558 -72 15 -135 13 -212 -7z m201 -235 c23 -18 41 -55 35 -75
-3 -9 -59 -70 -124 -135 -101 -100 -123 -118 -151 -119 -42 -1 -74 30 -74 73
0 28 16 48 120 150 98 97 126 119 150 119 15 0 35 -6 44 -13z"/>
<path d="M6691 4649 c-112 -22 -225 -102 -291 -206 -80 -125 -93 -306 -32
-436 39 -85 125 -173 210 -216 170 -86 364 -57 504 76 101 97 148 204 148 337
0 284 -261 500 -539 445z m164 -235 c18 -7 45 -55 45 -79 0 -9 -52 -70 -117
-136 -103 -105 -120 -119 -150 -119 -43 0 -73 30 -73 73 0 29 15 48 118 150
116 114 136 126 177 111z"/>
<path d="M4548 3831 c-110 -12 -158 -61 -158 -162 0 -66 25 -111 80 -143 34
-21 47 -21 605 -20 637 1 617 -1 673 72 39 51 39 133 -1 185 -57 75 -31 72
-612 73 -286 1 -550 -2 -587 -5z"/>
<path d="M2484 3661 c-93 -43 -116 -140 -70 -300 81 -285 302 -525 581 -632
166 -64 37 -61 2096 -60 1031 0 1889 3 1905 6 152 34 292 94 399 170 80 56
205 189 261 276 120 185 167 401 105 487 -67 95 -219 85 -270 -17 -10 -20 -30
-74 -44 -121 -70 -227 -280 -414 -514 -455 -58 -11 -180 -14 -468 -15 -367 0
-392 -1 -421 -19 -21 -13 -36 -33 -44 -58 -19 -60 -37 -82 -74 -88 -53 -11
-91 15 -111 75 -9 27 -28 59 -42 70 -25 20 -39 20 -672 20 -737 0 -683 7 -729
-90 -32 -65 -67 -87 -116 -74 -25 7 -37 21 -62 73 -17 35 -39 68 -50 75 -13 7
-154 13 -449 17 -392 5 -436 7 -502 26 -232 66 -421 257 -478 483 -20 81 -53
132 -98 153 -45 22 -82 21 -133 -2z"/>
</g>
</svg>
