<?xml version="1.0" standalone="no"?>
<!DOCTYPE svg PUBLIC "-//W3C//DTD SVG 20010904//EN"
 "http://www.w3.org/TR/2001/REC-SVG-20010904/DTD/svg10.dtd">
<svg version="1.0" xmlns="http://www.w3.org/2000/svg"
 width="1024.000000pt" height="1024.000000pt" viewBox="0 0 1024.000000 1024.000000"
 preserveAspectRatio="xMidYMid meet">
<metadata>
Created by potrace 1.16, written by Peter Selinger 2001-2019
</metadata>
<g transform="translate(0.000000,1024.000000) scale(0.100000,-0.100000)"
fill="#000000" stroke="none">
<path d="M4770 9164 c-639 -46 -1249 -234 -1810 -557 -329 -189 -618 -415
-948 -740 -182 -180 -198 -205 -167 -271 30 -62 96 -85 162 -56 23 10 43 17
43 16 0 -2 -7 -20 -15 -39 -34 -82 -6 -164 68 -201 71 -34 97 -21 227 117 261
278 422 418 690 599 310 209 688 372 1108 477 354 89 605 116 987 108 268 -6
386 -18 619 -63 656 -126 1356 -455 1846 -868 189 -160 416 -402 568 -608 346
-467 537 -1025 561 -1636 9 -231 18 -262 99 -313 42 -27 54 -30 108 -27 79 5
133 38 163 102 20 41 22 60 22 202 -4 623 -201 1294 -539 1833 -321 510 -779
957 -1302 1268 -103 61 -390 215 -444 237 -60 25 -118 21 -150 -10 -22 -23
-26 -35 -26 -86 0 -52 -3 -63 -29 -89 -16 -16 -38 -29 -49 -29 -11 0 -56 15
-99 33 -43 19 -109 44 -148 57 -98 31 -115 44 -115 84 0 49 28 70 84 63 38 -6
49 -3 74 18 38 32 46 66 28 109 -18 42 -49 59 -186 101 -141 44 -162 47 -193
36 -56 -22 -78 -109 -42 -165 23 -34 22 -82 -2 -108 -21 -23 -44 -22 -216 11
-157 30 -321 50 -491 60 -127 7 -151 11 -163 27 -19 26 -16 68 7 89 18 16 33
17 147 12 71 -4 180 -12 244 -18 113 -12 117 -12 147 10 56 40 51 129 -9 158
-53 26 -337 54 -574 57 -126 2 -255 2 -285 0z m-486 -285 c34 -27 35 -70 2
-97 -14 -10 -64 -27 -111 -36 -137 -27 -319 -80 -467 -135 -75 -28 -146 -51
-157 -51 -23 0 -61 33 -61 53 0 23 31 57 70 77 93 47 586 197 691 209 4 1 18
-8 33 -20z"/>
<path d="M4695 8306 c-621 -75 -1173 -287 -1566 -602 -250 -200 -457 -411
-637 -651 -105 -139 -136 -150 -223 -82 -74 59 -138 69 -209 34 -57 -29 -99
-104 -193 -340 -109 -275 -179 -542 -226 -860 -29 -198 -39 -332 -47 -630 -7
-292 -2 -329 50 -381 82 -82 214 -63 273 41 21 37 23 52 23 220 1 290 18 630
40 775 11 74 39 211 62 305 50 202 67 230 142 230 66 0 93 -30 105 -117 11
-81 36 -119 94 -147 52 -25 75 -26 125 -6 72 31 90 56 147 210 75 200 162 357
305 550 125 169 220 276 343 386 370 332 763 519 1281 608 567 99 1148 5 1706
-274 142 -70 197 -102 388 -219 52 -32 109 -60 127 -63 43 -7 99 20 124 61 11
17 31 42 45 55 34 32 82 24 153 -25 67 -46 299 -285 320 -330 16 -32 16 -36
-4 -62 -39 -53 -53 -46 -202 107 -130 135 -138 141 -175 141 -52 0 -102 -38
-117 -89 -15 -49 -1 -75 96 -188 170 -197 329 -445 421 -653 84 -190 129 -349
175 -613 25 -146 120 -207 253 -162 64 22 113 15 147 -21 l24 -26 5 -311 c4
-270 7 -316 22 -343 69 -126 240 -123 306 6 l23 45 -4 345 c-5 361 -9 412 -62
676 -50 250 -152 532 -259 721 -133 235 -323 480 -541 699 -147 148 -151 151
-201 158 -43 5 -66 17 -145 78 -505 384 -1083 632 -1702 729 -170 27 -641 35
-812 15z m-881 -397 c29 -23 35 -69 12 -88 -8 -7 -76 -43 -150 -81 -75 -38
-185 -100 -244 -139 -60 -39 -117 -71 -128 -71 -46 0 -74 41 -58 85 12 30 239
172 419 263 120 60 114 58 149 31z m4074 -1290 c26 -23 72 -112 132 -252 37
-88 40 -99 28 -124 -7 -15 -25 -32 -40 -37 -39 -14 -59 8 -103 112 -21 48 -55
121 -76 163 -45 87 -49 121 -17 143 30 21 50 20 76 -5z"/>
<path d="M4780 7589 c-173 -16 -252 -31 -271 -50 -27 -27 -24 -71 6 -99 l24
-23 133 27 c73 14 144 26 158 26 38 0 70 -27 70 -58 0 -46 -25 -70 -78 -77
-226 -30 -495 -97 -529 -131 -46 -46 -14 -142 52 -158 14 -4 74 6 143 24 202
51 306 64 532 64 170 0 227 -4 334 -23 286 -50 533 -153 772 -322 478 -337
755 -771 851 -1337 14 -82 17 -181 17 -628 l1 -531 29 -37 c30 -40 94 -75 136
-76 89 0 169 62 189 147 41 180 63 958 33 1173 -78 554 -281 970 -667 1368
-249 257 -540 450 -865 572 -340 129 -724 182 -1070 149z"/>
<path d="M3855 7331 c-48 -23 -200 -128 -309 -213 -128 -101 -342 -346 -454
-518 -100 -153 -135 -232 -139 -313 -4 -66 -2 -76 25 -118 66 -102 232 -119
314 -31 14 15 58 75 98 134 149 220 283 362 501 528 64 49 119 96 123 105 30
79 -38 145 -116 112 -51 -21 -192 -125 -281 -206 -83 -76 -118 -88 -150 -53
-35 39 -22 66 72 152 114 105 192 162 316 235 55 32 110 68 123 79 37 33 28
87 -19 111 -37 19 -55 19 -104 -4z"/>
<path d="M1490 7218 c-26 -14 -56 -40 -72 -64 -43 -64 -203 -389 -247 -502
-164 -413 -248 -830 -254 -1253 l-2 -167 30 -43 c41 -58 74 -80 128 -86 77 -9
115 4 166 55 60 60 71 102 71 259 0 480 152 1091 394 1580 14 29 26 66 26 81
0 49 -41 113 -90 139 -54 29 -94 29 -150 1z"/>
<path d="M4806 6839 c-364 -38 -710 -189 -972 -423 -147 -130 -296 -315 -324
-400 -43 -133 52 -276 185 -276 73 0 117 31 213 145 167 201 282 297 465 388
277 138 600 184 907 129 321 -58 611 -228 858 -504 123 -137 147 -153 232
-153 59 0 70 3 115 35 87 63 116 157 76 246 -10 23 -45 72 -76 110 -431 517
-1037 771 -1679 703z"/>
<path d="M4905 6154 c-315 -32 -559 -139 -759 -333 -247 -240 -311 -461 -171
-590 103 -95 215 -72 316 66 136 187 213 257 355 324 118 56 225 79 366 79
188 0 320 -37 465 -132 96 -63 156 -119 260 -246 92 -112 138 -144 208 -144
51 0 111 24 148 60 130 123 78 310 -149 536 -186 185 -426 311 -683 360 -82
16 -285 27 -356 20z m-149 -192 c33 -22 34 -74 3 -98 -8 -6 -52 -23 -98 -38
-160 -51 -334 -178 -422 -308 -49 -72 -77 -88 -114 -64 -41 27 -34 72 22 146
89 120 212 228 323 285 129 67 252 100 286 77z"/>
<path d="M2925 5946 c-42 -19 -78 -61 -109 -128 -22 -46 -35 -60 -70 -77 -70
-34 -115 -25 -181 39 -48 47 -80 60 -146 60 -88 0 -160 -52 -184 -134 -12 -41
-15 -141 -15 -575 0 -353 4 -539 11 -566 14 -51 73 -109 126 -125 96 -29 200
34 223 136 5 21 10 155 10 296 0 163 4 266 11 281 26 58 126 74 173 27 21 -20
21 -30 26 -438 4 -364 7 -421 22 -447 35 -64 114 -115 175 -115 67 1 162 74
180 138 11 36 10 1457 0 1505 -10 45 -60 105 -104 123 -41 18 -109 17 -148 0z"/>
<path d="M4917 5450 c-90 -23 -178 -85 -231 -164 -69 -101 -66 -56 -66 -1108
l0 -949 25 -24 c57 -58 174 -9 227 94 l28 53 0 718 c0 711 0 718 21 744 24 30
59 34 83 7 15 -17 16 -77 14 -767 l-3 -749 -26 -55 c-14 -30 -43 -72 -64 -92
-79 -76 46 -70 -1452 -71 l-1346 -2 -20 27 -20 27 24 48 c32 62 114 128 182
147 44 13 198 16 1003 20 937 4 953 5 992 25 23 12 53 37 69 58 28 36 28 38
31 197 3 152 2 164 -20 205 -13 25 -36 54 -51 65 -28 21 -37 21 -1003 24
-1047 2 -1019 4 -1158 -48 -86 -33 -225 -131 -301 -212 -120 -130 -210 -303
-241 -466 -11 -59 -14 -201 -14 -701 0 -734 1 -742 92 -926 126 -253 314 -411
587 -494 l86 -26 2155 -3 c1185 -2 2178 0 2207 3 57 7 104 34 137 78 20 27 21
40 21 300 0 265 -1 273 -23 308 -43 70 -58 72 -393 67 -320 -6 -353 -2 -364
44 -3 13 -7 273 -8 578 l-2 555 -27 47 c-65 110 -224 116 -289 12 l-24 -39 -5
-577 c-5 -537 -6 -579 -23 -595 -16 -16 -47 -18 -320 -23 -328 -5 -344 -8
-381 -64 -23 -37 -21 -107 6 -141 44 -56 25 -55 815 -55 643 0 731 -2 751 -16
26 -18 29 -59 6 -92 l-15 -22 -984 0 -984 0 -20 27 c-35 44 -3 103 56 103 74
0 125 51 125 126 0 90 -47 126 -173 132 -133 7 -193 -4 -234 -40 -39 -33 -44
-54 -48 -179 -2 -62 -8 -94 -21 -113 -37 -58 -8 -56 -963 -56 -973 0 -941 -2
-1077 66 -118 59 -162 118 -124 166 25 31 46 27 124 -23 44 -27 95 -55 114
-61 26 -9 241 -13 820 -15 747 -3 787 -3 819 15 102 55 84 201 -28 232 -23 6
-361 10 -899 10 -837 0 -864 1 -901 20 -95 48 -128 143 -71 200 19 19 34 20
225 20 234 0 251 4 307 70 78 91 51 222 -56 271 -36 16 -68 19 -244 19 l-204
0 -34 34 c-30 30 -34 40 -34 85 0 42 5 56 29 83 l29 33 1459 5 1458 5 53 22
c155 63 264 180 325 348 l22 60 3 989 c2 665 -1 1006 -8 1040 -27 131 -114
242 -237 303 -68 34 -84 37 -167 40 -50 1 -108 -2 -129 -7z m220 -171 c50 -24
113 -91 113 -119 0 -21 -41 -70 -59 -70 -5 0 -30 18 -55 40 -78 67 -161 67
-227 -1 -43 -44 -57 -47 -89 -21 -28 23 -29 71 -4 105 67 89 212 119 321 66z
m-2176 -1578 c24 -29 24 -63 1 -84 -15 -14 -55 -16 -285 -18 -243 -1 -270 1
-288 17 -26 24 -24 60 6 90 l25 25 261 -3 c260 -3 261 -3 280 -27z m1184 4
c29 -28 32 -61 8 -87 -14 -16 -34 -18 -179 -18 -179 0 -194 5 -194 59 0 30 23
56 55 64 11 2 80 5 153 6 129 1 134 0 157 -24z"/>
<path d="M5810 3919 c-14 -6 -36 -20 -48 -32 -49 -45 -54 -69 -55 -247 -1
-165 -1 -168 25 -207 54 -81 0 -77 921 -80 771 -3 821 -4 872 -22 143 -50 252
-177 284 -329 18 -84 14 -749 -4 -837 -31 -147 -115 -260 -238 -319 -69 -33
-78 -35 -204 -39 -146 -5 -168 -13 -203 -70 -18 -30 -20 -52 -20 -303 0 -265
1 -272 23 -304 12 -19 38 -43 57 -54 33 -20 51 -21 255 -21 197 1 228 3 300
24 212 59 388 186 515 371 81 118 130 253 149 405 14 115 15 1202 1 1300 -25
174 -88 320 -197 455 -111 138 -240 227 -423 292 l-65 23 -960 2 c-629 1 -969
-1 -985 -8z m1885 -213 c243 -71 435 -281 465 -509 21 -166 9 -227 -46 -227
-40 0 -64 44 -64 119 0 235 -163 442 -391 496 -50 11 -132 15 -366 15 -330 0
-333 0 -333 59 0 34 25 58 65 63 17 2 161 3 320 2 244 -1 299 -4 350 -18z
m458 -1739 c43 -90 -64 -315 -200 -422 -122 -95 -222 -125 -425 -125 -125 0
-140 2 -158 20 -26 26 -25 62 3 88 20 19 35 21 187 24 164 3 166 3 232 36 46
23 85 53 133 104 72 76 98 123 116 209 15 73 33 99 68 99 23 0 32 -7 44 -33z"/>
<path d="M6490 3113 c-57 -20 -83 -40 -106 -78 l-25 -43 3 -420 c3 -407 4
-421 24 -448 11 -15 32 -36 45 -47 84 -62 223 -19 266 82 20 48 20 806 -1 855
-32 75 -136 124 -206 99z"/>
<path d="M7155 2831 c-105 -47 -159 -132 -159 -251 -1 -85 19 -135 78 -193
136 -136 359 -94 440 82 29 65 28 171 -2 229 -32 60 -95 118 -149 136 -63 22
-158 20 -208 -3z"/>
<path d="M3025 2403 c-35 -9 -87 -54 -101 -89 -18 -43 -18 -127 0 -163 22 -41
81 -89 118 -96 18 -3 353 -5 744 -3 l710 3 42 28 c70 46 100 137 71 214 -15
42 -68 92 -109 103 -35 10 -1435 13 -1475 3z"/>
<path d="M4946 2400 c-61 -19 -116 -100 -116 -170 0 -41 29 -108 56 -132 47
-42 85 -48 292 -48 188 0 201 1 242 23 109 58 123 245 23 313 -25 17 -50 19
-248 21 -121 1 -233 -2 -249 -7z"/>
</g>
</svg>
