<?xml version="1.0" standalone="no"?>
<!DOCTYPE svg PUBLIC "-//W3C//DTD SVG 20010904//EN"
 "http://www.w3.org/TR/2001/REC-SVG-20010904/DTD/svg10.dtd">
<svg version="1.0" xmlns="http://www.w3.org/2000/svg"
 width="1024.000000pt" height="1024.000000pt" viewBox="0 0 1024.000000 1024.000000"
 preserveAspectRatio="xMidYMid meet">
<metadata>
Created by potrace 1.16, written by Peter Selinger 2001-2019
</metadata>
<g transform="translate(0.000000,1024.000000) scale(0.100000,-0.100000)"
fill="#000000" stroke="none">
<path d="M2170 8105 c-135 -17 -249 -41 -304 -64 -50 -22 -98 -76 -114 -129
-10 -34 -16 -38 -69 -54 -74 -22 -135 -65 -157 -113 -10 -21 -28 -100 -41
-177 -12 -76 -24 -139 -26 -141 -59 -42 -190 -163 -251 -232 -236 -268 -349
-546 -388 -955 -16 -167 -74 -658 -120 -1015 -22 -170 -47 -368 -55 -440 -9
-71 -27 -209 -40 -305 -87 -629 -145 -1138 -145 -1278 0 -590 361 -1102 878
-1244 115 -32 361 -31 487 1 298 75 562 297 712 596 51 102 91 226 193 600 91
335 175 641 215 787 l27 96 66 -53 c168 -135 398 -215 621 -215 252 0 478 92
667 273 l92 87 637 0 638 0 77 -73 c136 -131 287 -216 456 -259 126 -32 349
-32 479 0 112 28 267 103 364 177 40 31 75 55 76 53 3 -4 4 -7 184 -670 167
-614 189 -685 248 -803 157 -312 392 -510 711 -597 63 -18 105 -21 232 -21
135 0 168 3 254 26 346 92 632 360 791 742 35 84 75 268 87 397 10 113 9 157
-5 293 -34 333 -101 877 -168 1375 -52 392 -104 793 -149 1165 -27 226 -57
462 -65 525 -45 326 -230 651 -506 885 -57 48 -107 95 -111 104 -4 9 -14 71
-22 139 -9 67 -23 139 -32 158 -21 43 -85 88 -157 111 -51 15 -57 20 -72 61
-37 97 -113 138 -319 174 -95 17 -163 22 -316 22 -182 1 -198 0 -236 -21 -50
-27 -102 -84 -110 -121 -3 -15 -7 -32 -9 -38 -2 -8 -53 -13 -147 -16 -157 -5
-185 -13 -231 -68 -15 -17 -30 -53 -37 -87 -6 -32 -16 -75 -21 -95 l-10 -38
-1868 0 -1869 0 -10 28 c-6 15 -14 47 -17 72 -4 25 -15 63 -25 85 -37 85 -86
104 -266 105 l-131 0 -7 32 c-10 53 -52 105 -109 138 -52 30 -53 30 -202 29
-82 -1 -197 -7 -255 -14z m240 -223 c31 -25 21 -64 -22 -90 -18 -11 -118 -41
-221 -67 -104 -25 -219 -59 -257 -74 l-68 -28 -6 30 c-3 16 -6 49 -6 72 0 34
5 46 25 59 34 22 181 63 327 91 154 29 199 31 228 7z m5569 -12 c129 -26 285
-75 301 -95 9 -10 10 -32 5 -72 -4 -32 -9 -61 -11 -65 -2 -3 -30 4 -62 17 -31
13 -133 42 -227 65 -93 22 -189 46 -212 52 -77 19 -121 89 -75 118 24 15 155
6 281 -20z m-5045 -221 c13 -67 9 -76 -35 -82 -43 -6 -61 -21 -56 -46 5 -29
196 -108 305 -126 23 -4 42 -12 42 -19 0 -7 -15 -32 -32 -56 -18 -24 -39 -52
-45 -64 -18 -31 -17 -296 1 -339 42 -99 159 -115 225 -31 20 25 21 39 21 216
0 210 7 240 59 271 16 9 43 17 60 17 l31 0 0 -582 c0 -632 -3 -666 -55 -771
-103 -204 -290 -310 -575 -324 -112 -6 -126 -8 -147 -30 -23 -22 -23 -27 -16
-100 4 -43 8 -134 8 -203 0 -121 -2 -127 -33 -193 -71 -145 -218 -246 -373
-255 -84 -5 -103 -15 -97 -54 5 -34 75 -74 242 -138 25 -9 26 -12 26 -97 0
-160 42 -288 135 -419 25 -34 45 -70 45 -79 0 -8 -20 -109 -46 -223 -25 -114
-56 -256 -69 -317 -13 -60 -33 -143 -44 -183 -39 -148 -46 -115 -44 191 1 144
-1 270 -3 280 -8 25 -41 21 -109 -16 l-60 -32 -7 -255 c-4 -140 -13 -279 -19
-308 -29 -140 -128 -264 -253 -317 -61 -26 -69 -33 -97 -85 -16 -31 -50 -80
-75 -108 -47 -53 -154 -146 -160 -139 -3 2 7 34 21 70 56 150 53 289 -9 370
-29 38 -80 80 -109 90 -8 2 -1 27 21 74 116 251 59 565 -140 778 -40 43 -149
140 -243 215 -225 182 -307 258 -301 279 3 9 13 88 22 176 9 88 18 162 20 164
5 5 -1 13 74 -98 138 -203 362 -372 450 -339 45 17 70 48 70 89 0 40 -18 59
-133 146 -150 113 -242 310 -235 503 l3 82 60 -88 c33 -50 106 -136 165 -194
96 -96 115 -111 220 -163 76 -38 151 -67 222 -85 100 -25 109 -26 124 -10 26
26 10 58 -55 110 -65 52 -101 113 -101 171 0 37 -1 38 -77 72 -271 124 -486
363 -583 649 -101 297 -89 739 28 1008 69 160 142 264 278 401 148 149 331
256 552 324 78 24 103 27 247 27 155 1 163 0 248 -31 87 -31 89 -31 108 -12
10 10 19 23 19 28 0 18 -51 50 -120 76 -70 27 -114 65 -108 93 5 25 52 53 104
61 27 5 128 9 225 10 l177 1 6 -31z m4708 8 c47 -20 73 -58 59 -85 -11 -20
-36 -34 -136 -72 -93 -36 -124 -72 -89 -101 13 -11 28 -9 92 13 108 37 169 48
275 48 396 -1 825 -278 1028 -665 88 -167 131 -333 144 -560 7 -117 -7 -317
-30 -425 -67 -317 -294 -603 -593 -747 -54 -26 -100 -52 -104 -57 -4 -6 -8
-28 -8 -49 0 -58 -32 -109 -105 -166 -64 -51 -77 -75 -53 -99 19 -19 46 -15
169 24 238 75 385 180 535 381 48 65 92 123 97 128 6 6 7 -29 4 -95 -6 -121
-38 -236 -87 -314 -43 -67 -130 -157 -211 -217 -77 -57 -89 -83 -62 -137 33
-67 94 -68 203 -4 82 47 260 223 319 315 24 37 47 64 51 60 4 -4 17 -82 29
-173 l21 -164 -33 -34 c-17 -19 -129 -119 -248 -222 -323 -282 -402 -382 -446
-570 -18 -78 -19 -226 -3 -307 10 -46 46 -137 77 -194 2 -4 -8 -10 -22 -13
-41 -10 -102 -73 -122 -124 -28 -74 -24 -216 10 -311 15 -41 25 -76 24 -77 -5
-6 -127 104 -162 145 -20 25 -49 70 -65 101 -26 52 -32 57 -77 68 -105 27
-211 128 -253 239 -35 94 -40 144 -40 400 l0 243 -45 29 c-71 45 -102 56 -120
41 -13 -10 -15 -55 -16 -279 0 -146 -4 -275 -8 -285 -9 -24 -103 346 -160 631
l-38 192 58 81 c89 124 120 222 122 382 l2 98 83 30 c108 39 157 65 176 92 20
29 20 34 -4 58 -15 15 -33 20 -69 20 -152 0 -325 118 -401 273 -51 107 -63
174 -57 326 5 131 5 134 -18 157 -22 21 -33 24 -108 24 -208 0 -419 105 -523
261 -26 39 -58 103 -73 142 l-26 72 0 605 0 605 34 -2 c24 -1 44 -11 70 -37
l36 -36 5 -203 c3 -134 9 -209 17 -224 38 -65 119 -83 184 -39 58 39 69 75 69
219 0 68 -3 138 -6 156 -4 17 -28 56 -55 86 -27 31 -49 60 -49 65 0 5 17 12
38 15 88 14 180 42 246 75 107 53 114 87 21 98 l-47 5 6 44 c3 25 9 49 12 55
11 18 411 5 456 -15z m-3702 -741 c0 -288 -3 -532 -6 -541 -7 -18 -55 -45 -79
-45 -9 0 -30 13 -46 29 l-29 29 0 474 c0 432 2 476 18 506 22 42 68 72 110 72
l32 0 0 -524z m2320 509 c16 -8 39 -29 52 -47 l23 -33 0 -482 0 -482 -22 -23
c-31 -31 -89 -30 -114 1 -18 22 -19 50 -19 552 l0 529 25 0 c15 0 39 -7 55
-15z m-376 -86 c32 -38 33 -70 3 -104 -20 -24 -32 -27 -105 -32 l-82 -6 0 -60
c0 -77 -23 -107 -82 -107 -61 0 -88 33 -88 110 l0 60 -109 0 -109 0 1 -52 c1
-74 -9 -98 -49 -114 -29 -12 -39 -12 -68 0 -44 18 -50 29 -56 104 l-5 62 -439
3 -438 2 -24 28 c-31 36 -31 77 1 111 l24 26 800 0 799 0 26 -31z m-1937
-1194 l41 -35 1070 0 1070 0 42 35 c49 41 87 45 125 13 37 -33 43 -84 13 -127
-13 -19 -36 -44 -51 -55 l-28 -21 -1162 0 -1162 0 -39 24 c-77 48 -97 121 -47
172 40 40 77 38 128 -6z m1675 -456 c29 -12 82 -90 98 -142 12 -37 11 -39 -29
-82 -134 -146 -195 -319 -195 -556 l1 -136 -31 -12 c-50 -19 -149 -104 -191
-165 -21 -31 -49 -87 -61 -124 l-23 -67 -129 -3 -129 -3 -21 59 c-12 32 -39
85 -60 118 -42 63 -147 168 -198 199 l-32 18 0 121 c0 220 -51 368 -189 547
-24 30 -43 62 -43 71 0 45 63 142 104 158 32 13 1100 12 1128 -1z m-1796 -65
c241 -62 459 -266 538 -504 95 -288 29 -599 -174 -813 -92 -97 -183 -155 -314
-199 -84 -30 -101 -32 -226 -32 -111 0 -149 3 -214 22 -280 80 -492 309 -550
594 -20 98 -20 247 -1 346 10 48 35 115 65 177 118 238 324 389 582 425 80 11
219 4 294 -16z m2858 -6 c209 -58 404 -228 497 -434 45 -99 62 -184 63 -319 1
-218 -59 -383 -197 -545 -152 -178 -430 -277 -677 -241 -176 26 -303 91 -435
225 -149 150 -212 298 -222 523 -5 104 -2 137 17 218 72 316 335 556 647 595
92 11 221 2 307 -22z m2555 -1538 c11 -84 20 -154 18 -155 -1 -1 -40 -32 -87
-69 -47 -36 -112 -88 -145 -114 -104 -81 -206 -184 -252 -255 -43 -65 -46 -68
-81 -65 -27 2 -40 9 -49 28 -30 58 -7 197 49 302 34 65 160 194 297 305 193
156 226 182 228 180 1 -2 11 -72 22 -157z m-8169 20 c261 -202 323 -267 380
-400 32 -77 41 -231 15 -260 -22 -25 -67 -26 -87 -2 -8 9 -28 41 -44 71 -32
60 -102 125 -299 278 -194 150 -175 115 -154 284 10 79 18 148 19 153 0 5 6 4
13 -1 6 -6 77 -61 157 -123z m-189 -546 c18 -19 74 -70 124 -112 136 -117 224
-202 256 -249 67 -96 78 -199 34 -299 l-26 -59 -23 57 c-69 169 -208 291 -391
343 -33 10 -61 19 -63 20 -3 2 23 225 34 298 3 20 9 37 13 37 4 0 23 -16 42
-36z m8423 -111 c9 -76 19 -149 22 -163 4 -24 1 -27 -63 -44 -188 -49 -348
-198 -388 -359 -10 -38 -25 -30 -54 27 -63 122 -29 240 106 374 78 77 341 302
353 302 4 0 14 -62 24 -137z m-8386 -438 c116 -49 154 -187 57 -211 -30 -7
-78 18 -106 57 -36 51 -39 169 -3 169 8 0 31 -7 52 -15z m8348 4 c4 -7 7 -36
7 -65 0 -40 -6 -62 -24 -88 -44 -64 -110 -85 -149 -46 -52 52 3 162 97 195 47
17 60 18 69 4z m-1321 -247 c11 -17 36 -59 55 -94 47 -86 195 -234 282 -282
125 -70 243 -105 406 -124 34 -4 64 -11 65 -17 1 -5 -25 -23 -58 -40 -55 -28
-68 -30 -160 -29 -153 1 -248 32 -397 131 -179 118 -314 313 -353 510 l-6 32
73 -28 c54 -21 78 -36 93 -59z m-5615 64 c0 -41 -55 -180 -99 -251 -88 -141
-194 -243 -332 -318 -172 -94 -394 -113 -501 -42 -21 14 -38 29 -38 33 0 4 52
15 116 25 143 22 227 48 324 98 138 72 252 186 330 330 l45 84 70 27 c82 32
85 32 85 14z"/>
<path d="M2195 7250 c-22 -9 -61 -46 -197 -187 l-88 -90 0 -197 0 -196 151
-147 c83 -82 157 -149 165 -151 8 -2 82 62 164 144 l150 148 0 198 0 199 -121
127 c-154 162 -172 174 -224 152z m124 -434 c68 -71 81 -88 72 -103 -5 -10
-44 -52 -86 -93 l-76 -75 -85 88 c-47 48 -84 94 -82 102 4 19 148 165 163 165
6 0 49 -38 94 -84z"/>
<path d="M1583 6869 c-140 -143 -146 -150 -137 -172 8 -23 34 -26 160 -20 152
8 154 10 154 172 0 64 -4 121 -8 127 -24 35 -42 23 -169 -107z"/>
<path d="M2717 6983 c-4 -3 -7 -64 -7 -134 0 -176 -3 -173 166 -171 180 3 183
7 78 115 -44 45 -105 108 -134 140 -50 53 -84 70 -103 50z"/>
<path d="M1475 6498 c-31 -23 -163 -160 -223 -231 -41 -48 -42 -90 -4 -143 36
-49 154 -180 195 -216 l31 -28 191 0 191 0 148 149 148 150 -18 30 c-10 16
-79 91 -153 165 l-136 134 -170 7 c-168 7 -170 6 -200 -17z m338 -209 c42 -44
77 -84 77 -88 0 -4 -32 -42 -71 -84 -93 -101 -101 -101 -196 -2 -40 42 -73 79
-73 84 0 15 155 171 170 171 8 0 50 -36 93 -81z"/>
<path d="M2657 6511 c-56 -6 -61 -9 -114 -66 -30 -33 -95 -101 -144 -151 -49
-50 -89 -97 -89 -104 0 -8 66 -80 147 -162 l147 -148 206 0 205 0 138 140
c180 185 180 168 15 336 -67 69 -136 133 -153 143 -25 15 -53 18 -165 18 -74
0 -161 -3 -193 -6z m204 -223 c43 -46 79 -86 79 -89 0 -12 -142 -158 -160
-164 -27 -9 -68 16 -126 77 -88 93 -89 78 7 174 46 46 92 84 102 84 11 0 54
-37 98 -82z"/>
<path d="M2058 5952 l-148 -148 0 -193 0 -193 78 -82 c43 -44 96 -100 117
-124 54 -60 98 -85 133 -77 19 4 75 53 165 144 l137 138 0 194 0 194 -148 148
c-89 89 -155 147 -167 147 -12 0 -78 -58 -167 -148z m342 -303 c0 -22 -152
-169 -176 -169 -14 0 -45 24 -87 70 -102 107 -102 95 0 201 l88 91 87 -91 c49
-49 88 -95 88 -102z"/>
<path d="M1556 5711 c-147 -9 -147 -11 8 -173 71 -73 135 -137 143 -141 9 -6
21 -3 34 9 17 15 19 31 19 139 0 174 -5 178 -204 166z"/>
<path d="M2209 4505 c-15 -8 -56 -56 -93 -106 -75 -104 -83 -139 -43 -185 30
-35 77 -37 112 -4 45 42 145 192 145 217 0 35 -16 61 -50 78 -35 18 -38 18
-71 0z"/>
<path d="M1774 4481 c-33 -20 -74 -92 -74 -129 0 -83 92 -128 167 -82 72 43
84 148 24 202 -37 33 -73 36 -117 9z"/>
<path d="M1945 3525 c-21 -21 -25 -33 -25 -88 0 -41 -10 -98 -26 -153 -15 -49
-28 -97 -31 -106 -7 -25 40 -68 76 -68 17 0 42 11 59 25 55 46 107 207 100
308 -4 50 -9 64 -32 84 -37 31 -89 31 -121 -2z"/>
<path d="M7779 7226 c-168 -48 -279 -190 -281 -357 -1 -146 83 -277 222 -346
73 -37 195 -39 281 -5 145 57 249 220 236 368 -18 193 -164 341 -347 350 -36
2 -86 -3 -111 -10z m206 -274 c41 -44 75 -89 75 -99 0 -18 -111 -134 -159
-166 -18 -12 -29 -14 -45 -5 -34 17 -176 161 -176 178 0 9 43 58 95 109 110
108 93 110 210 -17z"/>
<path d="M8388 6989 c-15 -9 -18 -26 -18 -120 0 -151 3 -154 165 -162 114 -5
145 0 145 24 0 10 -257 269 -267 269 -4 0 -16 -5 -25 -11z"/>
<path d="M7188 6870 c-65 -66 -118 -125 -118 -133 0 -30 23 -37 114 -31 166
10 176 20 176 167 0 94 -8 117 -39 117 -9 -1 -69 -54 -133 -120z"/>
<path d="M7183 6575 c-77 -21 -124 -48 -177 -102 -185 -187 -133 -488 104
-610 50 -25 65 -28 160 -28 96 0 110 2 158 28 79 42 137 100 176 177 41 83 52
149 36 227 -17 80 -44 135 -98 194 -57 64 -106 95 -179 114 -70 18 -112 18
-180 0z m129 -188 c27 -21 168 -180 168 -190 0 -16 -129 -143 -164 -162 -22
-12 -42 -16 -60 -11 -30 7 -186 154 -186 175 0 22 183 201 205 201 11 0 28 -6
37 -13z"/>
<path d="M8402 6578 c-117 -18 -227 -103 -280 -216 -24 -50 -27 -69 -27 -162
0 -100 1 -108 34 -168 41 -75 103 -135 179 -170 49 -23 70 -27 152 -27 82 0
103 4 152 27 146 68 243 234 224 381 -30 223 -217 368 -434 335z m151 -256
c110 -111 113 -116 88 -151 -35 -49 -151 -151 -172 -151 -11 0 -32 6 -47 14
-30 16 -162 149 -162 164 0 33 165 202 198 202 10 0 53 -34 95 -78z"/>
<path d="M7790 5887 c-30 -7 -73 -23 -95 -34 -56 -29 -131 -113 -163 -181 -23
-49 -27 -70 -27 -152 0 -82 4 -103 27 -153 77 -164 249 -254 409 -212 291 74
390 414 185 633 -83 88 -214 127 -336 99z m183 -256 c55 -56 87 -96 87 -110 0
-27 -159 -191 -185 -191 -23 0 -184 158 -192 188 -5 20 8 38 83 113 49 49 96
89 104 89 9 0 55 -40 103 -89z"/>
<path d="M8397 5690 c-27 -21 -27 -23 -27 -150 0 -132 8 -158 43 -145 8 4 72
67 143 142 158 168 158 167 -13 171 -109 2 -122 1 -146 -18z"/>
<path d="M7823 4501 c-65 -41 -55 -89 48 -218 72 -91 74 -93 116 -93 36 0 83
47 83 83 0 25 -94 168 -137 209 -39 37 -71 43 -110 19z"/>
<path d="M8255 4491 c-26 -12 -61 -50 -69 -78 -11 -34 11 -99 45 -132 25 -26
39 -31 76 -31 38 0 50 5 79 34 24 24 34 43 34 65 0 86 -99 170 -165 142z"/>
<path d="M8058 3535 c-35 -20 -41 -46 -36 -153 11 -201 118 -331 201 -244 33
35 33 43 1 128 -17 46 -28 98 -31 156 -4 65 -10 92 -23 103 -26 23 -80 28
-112 10z"/>
<path d="M4701 5474 c-12 -15 -21 -30 -21 -35 0 -11 75 -98 113 -131 55 -49
139 -31 171 36 25 53 21 93 -13 127 -29 28 -32 29 -130 29 -96 0 -100 -1 -120
-26z"/>
<path d="M5185 5488 c-32 -19 -44 -40 -45 -81 0 -76 46 -127 115 -127 36 0 46
6 102 65 85 89 88 97 58 129 -23 24 -29 26 -117 26 -51 0 -102 -6 -113 -12z"/>
<path d="M4976 5141 c-63 -26 -99 -61 -126 -124 -55 -126 19 -273 157 -313
132 -39 276 79 276 227 0 160 -159 269 -307 210z"/>
<path d="M3490 5406 c-213 -60 -358 -227 -397 -454 -14 -83 -14 -101 0 -184
67 -395 491 -597 828 -395 193 115 300 367 255 598 -42 213 -186 374 -385 433
-66 19 -235 20 -301 2z m397 -428 c32 -35 46 -91 38 -151 -26 -185 -209 -305
-389 -253 -45 13 -70 29 -116 74 -32 32 -62 70 -66 86 -11 43 13 80 55 84 27
3 40 -4 80 -41 78 -73 144 -82 222 -32 53 34 82 99 73 164 -5 42 -3 55 11 71
24 27 67 25 92 -2z"/>
<path d="M6340 5406 c-183 -52 -321 -185 -381 -367 -31 -97 -34 -264 -5 -349
78 -231 255 -375 486 -395 258 -23 496 150 574 414 21 70 21 228 1 306 -48
182 -207 342 -390 391 -62 17 -225 17 -285 0z m-23 -421 c19 -13 22 -24 21
-78 -2 -101 38 -163 121 -188 55 -16 113 3 171 57 53 50 84 55 119 23 61 -57
-33 -186 -162 -224 -64 -19 -110 -19 -174 0 -172 51 -281 282 -187 395 28 33
58 38 91 15z"/>
</g>
</svg>
