<?xml version="1.0" standalone="no"?>
<!DOCTYPE svg PUBLIC "-//W3C//DTD SVG 20010904//EN"
 "http://www.w3.org/TR/2001/REC-SVG-20010904/DTD/svg10.dtd">
<svg version="1.0" xmlns="http://www.w3.org/2000/svg"
 width="1024.000000pt" height="1024.000000pt" viewBox="0 0 1024.000000 1024.000000"
 preserveAspectRatio="xMidYMid meet">
<metadata>
Created by potrace 1.16, written by Peter Selinger 2001-2019
</metadata>
<g transform="translate(0.000000,1024.000000) scale(0.100000,-0.100000)"
fill="#000000" stroke="none">
<path d="M1875 9409 c-82 -10 -214 -49 -303 -89 -294 -134 -521 -417 -587
-736 -15 -71 -16 -207 -16 -1374 1 -934 4 -1304 12 -1330 26 -80 105 -140 187
-140 62 0 138 44 170 98 l27 47 2 870 c1 479 2 912 2 963 l1 92 3635 0 3635 0
1 -78 c1 -42 3 -255 4 -474 4 -375 5 -398 24 -436 24 -48 57 -75 116 -98 54
-20 92 -14 161 26 39 22 58 41 75 77 l24 48 0 825 0 825 -27 105 c-49 192
-123 323 -267 474 -95 98 -173 154 -292 211 -122 57 -218 83 -354 95 -138 12
-6130 11 -6230 -1z m6291 -402 c175 -48 308 -147 398 -295 62 -103 76 -164 79
-336 1 -85 -2 -158 -6 -163 -8 -7 -6976 -12 -7179 -5 l-88 3 0 143 c0 95 5
161 15 200 49 187 218 371 399 434 108 37 86 37 3243 37 2858 -1 3082 -2 3139
-18z"/>
<path d="M2054 8844 c-141 -50 -194 -240 -98 -352 88 -104 229 -110 326 -15
72 71 86 179 33 269 -57 97 -158 134 -261 98z"/>
<path d="M2787 8846 c-88 -32 -146 -117 -147 -214 0 -127 94 -223 220 -224 60
0 117 29 163 83 146 170 -27 429 -236 355z"/>
<path d="M3512 8847 c-51 -19 -98 -62 -122 -112 -18 -37 -21 -59 -18 -114 4
-81 35 -135 100 -178 36 -24 51 -28 118 -28 67 0 82 4 118 28 65 43 96 97 100
177 3 52 0 75 -16 106 -55 109 -173 159 -280 121z"/>
<path d="M6395 8757 c-60 -28 -101 -105 -90 -166 17 -89 66 -131 154 -131 50
0 57 3 96 43 54 53 65 98 40 163 -31 81 -126 124 -200 91z"/>
<path d="M6932 8754 c-108 -55 -113 -226 -8 -281 73 -38 169 -6 206 68 35 67
21 137 -38 193 -39 36 -110 45 -160 20z"/>
<path d="M7474 8756 c-60 -26 -98 -118 -80 -190 10 -42 64 -95 107 -106 105
-28 218 78 190 178 -32 109 -123 159 -217 118z"/>
<path d="M8014 8751 c-76 -46 -102 -135 -62 -211 57 -110 203 -112 266 -4 76
130 -78 292 -204 215z"/>
<path d="M1977 7433 c-172 -172 -197 -203 -197 -248 0 -46 25 -76 193 -242
210 -208 191 -205 342 -53 l110 110 638 0 c407 0 637 -4 635 -10 -6 -17 -949
-970 -961 -970 -6 0 -103 92 -216 205 -223 224 -238 234 -327 220 -69 -10
-127 -69 -143 -145 -8 -40 -11 -416 -9 -1370 3 -1312 3 -1315 24 -1355 47 -90
151 -123 240 -77 51 26 1931 1918 1958 1970 12 23 19 59 20 93 2 113 -90 204
-204 203 -30 -1 -68 -8 -85 -17 -28 -15 -766 -750 -1294 -1290 -128 -131 -236
-236 -239 -232 -5 5 -7 1188 -3 1423 l1 34 75 -80 c107 -114 172 -134 270 -85
16 8 251 236 522 506 l492 491 540 -539 c298 -296 547 -542 554 -547 33 -21
87 -28 134 -17 45 11 73 36 439 401 l392 390 51 -11 c29 -6 94 -11 145 -11
287 0 523 168 617 440 19 55 23 87 23 200 1 162 -19 243 -91 358 -123 199
-312 304 -548 305 -195 0 -363 -74 -490 -215 -103 -114 -145 -222 -152 -393
-7 -149 8 -241 53 -335 19 -40 34 -77 34 -83 0 -7 -116 -130 -258 -274 l-257
-263 -455 450 -455 450 142 142 c77 79 148 157 157 175 46 93 -24 232 -131
262 -25 7 -344 11 -947 11 l-910 0 -97 95 c-136 134 -120 137 -332 -72z m4193
-364 c180 -81 217 -316 68 -443 -44 -38 -118 -66 -173 -66 -86 0 -173 56 -220
141 -91 168 37 389 225 389 34 0 72 -8 100 -21z"/>
<path d="M7950 7494 c-19 -8 -50 -29 -68 -47 -69 -66 -65 16 -64 -1204 1
-1058 2 -1104 20 -1145 21 -48 78 -103 128 -124 25 -10 109 -14 353 -15 l321
-2 1 -46 c4 -241 10 -307 32 -351 63 -123 246 -139 331 -28 42 57 48 105 44
384 l-3 259 -27 52 c-31 58 -73 95 -139 120 -37 14 -94 17 -345 21 l-301 4 -6
141 c-4 78 -7 522 -7 987 0 801 -1 847 -19 885 -47 101 -158 149 -251 109z"/>
<path d="M7122 6645 c-36 -16 -91 -70 -1035 -1021 -491 -494 -662 -672 -677
-705 -51 -113 -4 -241 108 -295 50 -25 128 -22 287 9 221 44 322 52 620 52
224 0 302 -4 388 -18 277 -47 497 -119 767 -253 369 -183 663 -425 911 -750
87 -114 117 -142 171 -160 81 -27 177 11 222 89 71 123 41 192 -209 483 -359
416 -802 703 -1368 883 -280 89 -498 121 -881 130 l-288 6 608 614 c335 337
620 629 633 647 107 150 -83 365 -257 289z"/>
<path d="M8776 6325 c-21 -7 -52 -26 -68 -42 -52 -48 -58 -75 -58 -265 0 -150
3 -178 19 -208 25 -47 77 -87 133 -101 96 -26 210 41 237 138 14 50 14 268 0
334 -14 66 -63 122 -126 143 -56 19 -86 20 -137 1z"/>
<path d="M1110 5308 c-51 -14 -95 -52 -119 -101 -21 -43 -21 -45 -21 -1407 -1
-1497 -3 -1445 59 -1605 60 -155 194 -340 319 -438 123 -96 309 -177 482 -208
61 -11 301 -14 1295 -13 1218 1 1220 1 1261 22 69 35 114 106 114 179 0 12
-20 82 -44 155 -55 166 -75 268 -82 423 -7 141 -23 200 -66 244 -45 46 -86 65
-143 65 -64 0 -133 -38 -167 -91 -22 -37 -23 -45 -22 -228 1 -116 7 -222 16
-273 8 -46 11 -85 6 -88 -5 -3 -476 -5 -1048 -4 -994 1 -1043 1 -1115 20 -129
33 -200 73 -291 164 -54 54 -91 102 -112 144 -65 132 -62 68 -65 1557 -2 1490
3 1374 -64 1437 -54 52 -119 67 -193 46z"/>
<path d="M4395 4831 c-27 -12 -139 -120 -355 -342 -173 -178 -342 -352 -376
-385 l-62 -61 -114 5 c-365 16 -638 -185 -704 -518 -58 -294 87 -600 343 -725
277 -135 647 -54 821 180 111 149 158 328 133 504 -15 102 -51 209 -91 267
-16 25 -30 48 -30 52 0 13 515 522 527 520 6 -2 106 -97 223 -211 216 -213
261 -246 328 -247 105 0 201 100 202 211 0 87 -27 122 -352 446 -253 251 -310
303 -343 312 -57 16 -104 13 -150 -8z m-889 -1186 c108 -32 184 -136 183 -250
0 -112 -50 -195 -146 -241 -179 -88 -376 40 -375 243 1 81 27 138 93 197 71
64 148 80 245 51z"/>
<path d="M6082 4359 c-130 -17 -195 -54 -236 -136 -32 -63 -14 -158 41 -215
l25 -26 -84 -26 c-168 -53 -373 -166 -518 -287 -115 -95 -245 -241 -315 -352
-17 -26 -33 -47 -36 -47 -3 0 -34 18 -68 40 -75 48 -146 85 -184 94 -69 16
-174 -41 -215 -118 -22 -42 -21 -141 1 -183 25 -47 48 -66 185 -150 92 -56
122 -79 118 -91 -47 -159 -59 -277 -53 -486 8 -253 47 -419 147 -631 89 -187
265 -413 417 -535 227 -183 468 -299 739 -357 117 -24 149 -27 339 -27 177 0
227 3 320 22 679 136 1181 613 1324 1258 80 359 29 759 -140 1097 -32 65 -59
120 -59 122 0 3 25 5 55 5 153 0 248 145 183 279 -64 133 -425 409 -722 552
-210 101 -471 174 -706 197 -119 12 -474 13 -558 1z m521 -704 c402 -61 777
-329 947 -679 149 -305 156 -651 20 -988 -66 -164 -121 -249 -245 -374 -125
-126 -205 -185 -333 -249 -247 -123 -522 -164 -815 -120 -448 66 -823 372
-978 796 -48 131 -63 235 -63 419 1 152 3 174 32 285 37 140 115 304 193 408
196 260 499 444 824 501 107 19 297 19 418 1z"/>
<path d="M5865 3120 c-33 -11 -82 -37 -110 -58 -88 -67 -110 -117 -271 -627
-26 -82 -69 -216 -95 -298 -27 -81 -49 -164 -49 -184 0 -53 33 -99 85 -119 43
-16 45 -16 92 7 59 29 72 53 116 198 29 95 39 116 58 124 27 10 404 6 414 -5
4 -4 4 -39 0 -78 -5 -53 -13 -78 -30 -98 -22 -26 -28 -27 -117 -27 -80 0 -97
-3 -124 -22 -80 -57 -66 -176 25 -222 56 -28 119 -34 200 -17 131 28 215 91
270 206 l26 55 0 460 c0 455 0 461 -22 508 -34 72 -113 150 -185 182 -83 37
-198 44 -283 15z m172 -260 c60 -36 68 -65 68 -255 l0 -170 -177 -3 -177 -2 8
27 c62 216 108 350 130 375 42 51 95 61 148 28z"/>
<path d="M6621 3112 c-49 -25 -76 -65 -76 -115 0 -33 14 -65 64 -152 138 -236
202 -351 207 -370 3 -14 -31 -85 -111 -225 -151 -264 -155 -273 -155 -315 0
-75 47 -125 118 -125 80 0 114 33 201 194 54 100 109 186 119 186 4 0 50 -76
103 -168 101 -176 134 -212 191 -212 69 0 134 56 145 125 6 38 -1 52 -195 378
l-94 158 88 147 c48 81 111 187 140 236 65 108 73 142 47 193 -30 56 -65 78
-129 78 -71 0 -92 -22 -180 -185 -36 -69 -75 -137 -85 -152 -11 -14 -19 -31
-19 -37 0 -29 -21 -2 -80 102 -137 241 -168 277 -237 277 -15 0 -43 -8 -62
-18z"/>
<path d="M8595 2768 c-43 -15 -104 -77 -115 -118 -6 -19 -15 -101 -20 -182
-26 -416 -172 -805 -427 -1142 -77 -101 -112 -165 -113 -201 0 -72 55 -155
125 -186 118 -54 224 16 385 258 194 292 335 638 390 959 25 148 45 388 36
446 -19 129 -142 207 -261 166z"/>
</g>
</svg>
