<?xml version="1.0" standalone="no"?>
<!DOCTYPE svg PUBLIC "-//W3C//DTD SVG 20010904//EN"
 "http://www.w3.org/TR/2001/REC-SVG-20010904/DTD/svg10.dtd">
<svg version="1.0" xmlns="http://www.w3.org/2000/svg"
 width="1024.000000pt" height="1024.000000pt" viewBox="0 0 1024.000000 1024.000000"
 preserveAspectRatio="xMidYMid meet">
<metadata>
Created by potrace 1.16, written by Peter Selinger 2001-2019
</metadata>
<g transform="translate(0.000000,1024.000000) scale(0.100000,-0.100000)"
fill="#000000" stroke="none">
<path d="M4830 8826 c-85 -20 -129 -36 -210 -77 -156 -79 -260 -187 -343 -359
l-52 -107 -55 -5 c-59 -4 -62 -6 -500 -245 -91 -50 -268 -147 -395 -215 -126
-69 -295 -161 -375 -205 -176 -97 -276 -150 -451 -243 l-133 -70 -131 -4
c-254 -9 -431 -85 -586 -254 -156 -170 -228 -376 -216 -612 11 -190 69 -346
188 -495 121 -153 272 -243 478 -285 56 -12 62 -15 46 -26 -10 -8 -41 -21 -69
-30 -88 -29 -236 -102 -300 -148 -168 -120 -290 -309 -332 -516 -21 -104 -15
-321 11 -420 38 -140 125 -292 230 -396 l62 -63 -92 -93 c-78 -78 -99 -108
-138 -188 -71 -146 -82 -198 -82 -385 0 -140 3 -169 23 -235 117 -372 436
-599 812 -577 52 3 115 12 140 20 l45 14 95 -50 c116 -61 662 -357 1351 -730
239 -130 265 -140 345 -133 l60 5 31 -62 c43 -85 151 -216 224 -271 140 -105
286 -151 479 -149 152 1 243 22 380 90 80 39 109 60 185 137 56 57 107 120
136 169 l45 78 75 3 c61 2 85 8 139 35 73 38 529 285 840 456 227 124 544 295
690 372 l95 50 50 -15 c31 -9 100 -15 185 -15 113 -1 148 2 214 21 388 111
626 469 585 877 -20 198 -87 342 -226 485 -51 52 -93 96 -93 97 0 1 28 28 61
60 93 88 169 211 214 345 35 105 38 124 43 253 4 159 -8 236 -57 360 -100 249
-297 419 -619 531 -28 10 -49 21 -45 25 5 4 38 15 75 23 300 69 522 277 618
581 30 96 38 279 17 391 -68 361 -338 617 -698 664 -51 7 -117 9 -146 6 -51
-6 -59 -3 -185 60 -115 58 -917 492 -1418 767 -253 139 -279 152 -339 157
l-54 5 -32 77 c-90 213 -281 381 -511 449 -88 26 -302 35 -384 15z m271 -456
c163 -52 254 -181 252 -360 -1 -100 -31 -179 -94 -245 l-47 -49 -64 21 c-34
12 -83 25 -108 28 -54 8 -158 -9 -217 -35 l-41 -18 -47 45 c-26 24 -59 70 -73
101 -24 50 -27 70 -27 157 0 87 3 107 26 156 82 174 262 255 440 199z m-867
-627 c19 -62 63 -147 102 -200 l24 -31 -273 -143 c-149 -78 -299 -156 -332
-174 -191 -102 -244 -130 -385 -203 -85 -45 -213 -112 -284 -150 l-128 -68
-38 72 c-20 40 -59 100 -86 134 -45 58 -47 62 -29 73 10 7 96 53 189 102 94
50 374 199 621 332 450 241 585 312 596 313 3 0 13 -26 23 -57z m1956 -168
c162 -87 327 -174 365 -195 39 -21 173 -93 300 -160 284 -152 318 -171 328
-180 5 -4 -13 -36 -40 -71 -26 -35 -61 -93 -77 -129 -16 -36 -30 -66 -31 -68
-2 -2 -14 3 -27 11 -12 8 -203 108 -423 222 -508 264 -625 324 -705 369 -36
20 -104 57 -152 83 -49 26 -88 50 -88 54 0 3 20 41 45 85 25 43 53 104 62 134
8 30 17 58 20 63 2 4 32 -8 66 -27 34 -19 195 -105 357 -191z m-1015 -335 c66
-32 188 -96 270 -140 83 -45 341 -180 575 -302 543 -281 633 -329 643 -338 5
-4 -89 -58 -210 -120 -120 -62 -240 -125 -268 -140 -27 -15 -190 -100 -361
-188 -171 -88 -393 -204 -495 -258 -101 -53 -204 -103 -228 -111 -60 -18 -180
-16 -238 3 -26 9 -169 81 -318 159 -148 79 -483 256 -743 393 -261 137 -474
253 -475 258 -1 5 115 70 258 144 471 245 696 365 975 515 151 82 304 160 340
172 89 32 129 25 275 -47z m-2920 -401 c74 -14 125 -39 181 -91 65 -60 94
-128 104 -241 4 -52 15 -107 23 -123 31 -59 57 -75 432 -269 105 -54 280 -146
390 -205 157 -84 802 -422 984 -515 l33 -17 -45 -46 c-57 -59 -102 -144 -118
-222 -6 -33 -13 -60 -14 -60 -5 0 -805 418 -1305 682 -695 367 -690 365 -775
370 -127 9 -230 79 -287 196 -31 62 -33 73 -33 172 0 93 3 112 27 162 51 110
151 188 265 208 69 11 73 11 138 -1z m5684 -20 c73 -32 120 -69 161 -127 77
-107 88 -263 27 -396 -55 -119 -154 -185 -298 -197 -85 -7 -92 -9 -256 -94
-280 -146 -393 -205 -503 -265 -58 -31 -163 -87 -235 -125 -71 -37 -157 -82
-190 -100 -33 -18 -123 -65 -200 -105 -77 -40 -185 -96 -240 -125 -55 -29
-167 -87 -250 -130 -82 -43 -159 -84 -170 -92 -29 -20 -32 -17 -39 35 -8 64
-53 155 -111 225 -26 32 -46 60 -44 62 2 1 146 76 319 165 173 89 439 228 590
307 151 80 320 169 375 198 369 194 473 250 497 266 39 28 66 94 76 190 19
172 105 282 252 324 69 19 176 12 239 -16z m-5184 -1503 c66 -35 169 -89 229
-121 89 -47 106 -59 95 -70 -8 -7 -142 -80 -299 -163 -621 -327 -592 -308
-636 -398 -19 -40 -28 -76 -32 -130 -3 -49 -9 -74 -17 -74 -32 0 -138 66 -179
111 -68 75 -90 141 -90 269 -1 97 1 110 30 171 37 77 112 157 179 188 26 12
84 36 129 52 44 16 164 74 266 129 102 54 190 99 195 99 6 1 65 -28 130 -63z
m4823 -44 c114 -60 247 -124 295 -142 100 -38 167 -81 214 -141 116 -147 102
-384 -31 -527 -39 -42 -136 -102 -164 -102 -5 0 -12 31 -14 70 -6 84 -42 163
-96 212 -20 18 -226 134 -457 257 -231 123 -424 227 -428 231 -11 10 421 246
456 249 10 0 111 -48 225 -107z m-2427 -105 c66 -32 141 -108 172 -175 18 -38
22 -65 22 -147 0 -93 -2 -105 -33 -167 -38 -77 -91 -128 -172 -166 -46 -22
-70 -26 -140 -27 -137 0 -232 47 -306 151 -135 189 -36 477 189 550 69 23 200
13 268 -19z m-1285 -433 c163 -86 312 -158 331 -161 32 -5 38 -12 63 -69 39
-86 88 -157 162 -231 208 -213 530 -287 828 -191 210 67 364 197 458 386 47
94 47 94 102 113 30 10 129 59 220 108 91 48 215 115 277 147 l111 58 136 -69
c75 -39 136 -73 136 -76 0 -8 -205 -120 -520 -284 -300 -157 -363 -190 -610
-323 -470 -253 -496 -264 -625 -243 -68 12 -164 59 -660 326 -176 94 -446 237
-600 317 -400 209 -399 208 -357 221 9 3 67 33 127 66 61 33 113 60 117 61 4
0 141 -70 304 -156z m-995 -298 c24 -13 172 -90 329 -171 157 -82 422 -221
590 -310 793 -422 929 -493 985 -516 55 -21 75 -23 225 -23 131 0 174 3 209
17 24 9 161 80 305 156 144 76 347 184 451 239 105 54 273 143 375 197 102 53
241 127 310 163 69 36 213 112 320 169 l195 104 80 -42 c106 -56 146 -79 168
-94 21 -15 6 -23 -508 -295 -148 -79 -394 -209 -545 -290 -151 -81 -396 -212
-545 -290 -289 -152 -614 -328 -630 -341 -28 -21 -140 -49 -198 -49 -86 0
-146 22 -345 128 -92 50 -234 126 -317 169 -285 152 -741 396 -985 528 -223
121 -329 178 -667 358 -62 32 -113 65 -113 72 0 12 234 145 256 145 6 0 31
-11 55 -24z m-172 -733 c236 -124 706 -375 736 -393 17 -10 259 -140 540 -290
280 -150 520 -279 532 -288 23 -14 23 -15 -55 -91 -82 -80 -137 -157 -178
-244 -25 -55 -64 -195 -64 -230 0 -18 -2 -18 -23 -4 -25 16 -614 336 -962 522
-382 204 -421 227 -400 239 41 24 87 72 108 110 31 58 31 184 0 241 -32 61
-60 82 -220 164 l-148 76 -3 128 c-1 70 0 127 4 127 4 0 64 -30 133 -67z
m4725 -114 l-9 -82 -130 -66 c-155 -79 -173 -91 -217 -155 -30 -45 -33 -55
-33 -125 0 -96 27 -158 91 -204 24 -18 43 -35 44 -38 0 -10 -130 -82 -655
-364 -253 -136 -519 -281 -592 -321 -72 -41 -135 -74 -140 -74 -4 0 -15 38
-24 85 -30 152 -113 294 -239 407 -56 49 -67 65 -58 74 13 13 255 144 878 476
201 108 435 233 520 278 85 46 245 130 355 186 l200 103 9 -49 c5 -29 5 -84 0
-131z m-5312 -69 l3 -205 29 -53 c37 -66 88 -112 168 -153 l62 -31 -39 -21
c-55 -28 -183 -35 -257 -13 -121 35 -212 131 -244 256 -14 55 -15 75 -5 131
16 89 50 159 103 210 43 42 157 103 170 91 4 -4 8 -99 10 -212z m5853 185
c127 -60 204 -206 193 -364 -16 -216 -212 -346 -452 -301 -36 7 -73 18 -82 25
-15 11 -8 17 57 51 96 50 150 105 178 178 19 51 21 77 21 246 0 216 -5 207 85
165z m-2832 -1360 c65 -23 149 -102 184 -173 24 -50 27 -69 28 -157 0 -86 -3
-107 -25 -150 -69 -141 -227 -220 -388 -195 -148 24 -248 113 -288 258 -15 55
-16 73 -6 133 19 113 65 188 146 244 95 65 232 80 349 40z"/>
</g>
</svg>
