<?xml version="1.0" standalone="no"?>
<!DOCTYPE svg PUBLIC "-//W3C//DTD SVG 20010904//EN"
 "http://www.w3.org/TR/2001/REC-SVG-20010904/DTD/svg10.dtd">
<svg version="1.0" xmlns="http://www.w3.org/2000/svg"
 width="1024.000000pt" height="1024.000000pt" viewBox="0 0 1024.000000 1024.000000"
 preserveAspectRatio="xMidYMid meet">
<metadata>
Created by potrace 1.16, written by Peter Selinger 2001-2019
</metadata>
<g transform="translate(0.000000,1024.000000) scale(0.100000,-0.100000)"
fill="#000000" stroke="none">
<path d="M2165 8409 c-75 -11 -172 -43 -233 -77 -73 -41 -192 -166 -235 -248
-73 -141 -67 126 -65 -3166 l3 -2963 23 -62 c55 -147 165 -270 294 -332 152
-72 -117 -66 3188 -66 l2995 0 80 23 c118 34 191 77 271 158 75 76 130 167
160 269 18 57 19 185 18 3000 -1 2761 -2 2944 -18 3005 -45 168 -171 322 -326
399 -157 77 98 71 -3168 70 -1610 -1 -2954 -5 -2987 -10z m2347 -790 c91 -20
168 -115 168 -210 0 -65 -51 -186 -123 -294 -63 -93 -322 -346 -877 -855 -69
-63 -210 -194 -315 -291 -460 -427 -552 -491 -707 -492 -131 0 -226 74 -248
194 -7 37 -10 361 -8 925 3 972 -2 906 76 976 23 21 54 40 69 44 16 3 33 7 38
9 6 2 429 4 942 4 656 1 948 -2 985 -10z m3208 0 c62 -13 110 -53 139 -113 21
-42 21 -53 21 -935 0 -649 -3 -904 -12 -932 -15 -53 -69 -113 -124 -139 -39
-19 -57 -22 -125 -18 -69 4 -91 10 -172 51 -50 25 -122 70 -159 100 -65 52
-471 420 -753 682 -77 72 -278 257 -446 412 -168 155 -330 308 -358 340 -31
34 -72 98 -100 154 l-47 96 -39 -111 c-55 -159 -173 -388 -291 -562 l-101
-151 215 -199 c118 -109 279 -257 357 -329 262 -241 789 -728 932 -862 l142
-133 -422 -392 c-865 -804 -969 -905 -1123 -1098 -218 -271 -338 -481 -454
-795 -89 -242 -91 -247 -150 -307 -92 -95 -18 -89 -1131 -86 -876 3 -967 5
-994 20 -38 21 -77 63 -101 108 -18 33 -19 77 -19 980 0 1035 -3 973 58 1046
64 75 200 100 301 56 79 -35 114 -67 855 -757 330 -308 503 -468 708 -653 228
-207 279 -269 329 -406 13 -36 24 -55 28 -46 115 321 236 557 380 745 17 22
37 45 44 50 10 8 -26 47 -159 170 -95 88 -200 185 -234 215 -34 30 -187 172
-340 315 -154 143 -343 319 -420 390 -78 72 -217 199 -308 284 -92 84 -167
157 -167 161 0 4 44 47 97 96 862 788 1244 1157 1403 1355 194 241 373 554
501 874 67 170 84 202 128 248 39 42 79 66 126 78 51 12 1927 11 1985 -2z m19
-3111 c46 -14 117 -87 131 -135 8 -27 10 -310 8 -989 l-3 -950 -28 -42 c-15
-23 -46 -54 -70 -69 l-42 -28 -995 0 -995 0 -47 23 c-181 89 -147 350 79 604
37 43 194 193 349 335 154 142 384 353 509 468 126 116 301 277 390 359 232
216 364 335 410 369 93 69 197 88 304 55z"/>
<path d="M4475 1264 c-476 -6 -1475 -38 -1715 -54 -269 -19 -353 -36 -401 -81
-64 -60 -20 -150 90 -183 189 -56 1480 -106 2736 -106 906 0 1334 12 2166 60
418 24 512 40 572 98 51 49 22 133 -57 166 -93 39 -345 55 -1356 86 -323 10
-1642 19 -2035 14z"/>
</g>
</svg>
