<?xml version="1.0" standalone="no"?>
<!DOCTYPE svg PUBLIC "-//W3C//DTD SVG 20010904//EN"
 "http://www.w3.org/TR/2001/REC-SVG-20010904/DTD/svg10.dtd">
<svg version="1.0" xmlns="http://www.w3.org/2000/svg"
 width="1024.000000pt" height="1024.000000pt" viewBox="0 0 1024.000000 1024.000000"
 preserveAspectRatio="xMidYMid meet">
<metadata>
Created by potrace 1.16, written by Peter Selinger 2001-2019
</metadata>
<g transform="translate(0.000000,1024.000000) scale(0.100000,-0.100000)"
fill="#000000" stroke="none">
<path d="M5250 8963 c-441 -45 -878 -219 -1232 -490 -128 -98 -320 -292 -445
-449 l-65 -83 -97 -21 c-330 -72 -574 -201 -791 -420 -181 -181 -298 -370
-378 -611 -57 -172 -92 -369 -92 -512 l0 -44 -101 -73 c-434 -315 -746 -705
-923 -1158 -65 -165 -125 -402 -147 -582 -26 -209 -14 -577 27 -785 121 -616
520 -1253 1006 -1607 384 -280 781 -438 1280 -507 144 -21 186 -21 1793 -21
1434 0 1659 2 1757 16 497 68 957 266 1348 581 117 93 312 289 403 403 228
287 407 641 491 972 153 601 100 1175 -159 1703 -174 356 -425 661 -751 912
l-114 88 0 105 c-1 462 -152 969 -404 1354 -197 302 -408 534 -646 712 -165
123 -220 158 -374 239 -273 143 -569 236 -865 270 -113 13 -424 18 -521 8z
m520 -712 c310 -53 615 -191 861 -389 338 -272 572 -638 688 -1072 57 -211 65
-294 63 -619 l-1 -294 33 -31 c18 -17 74 -53 125 -81 272 -147 578 -447 731
-718 140 -246 212 -525 212 -827 1 -185 -10 -271 -53 -444 -168 -673 -741
-1240 -1421 -1406 -261 -64 -168 -61 -2003 -57 -1836 4 -1682 -1 -1938 66
-325 85 -632 264 -867 507 -173 179 -286 349 -385 578 -128 294 -179 589 -155
884 15 182 34 284 80 427 150 460 491 834 963 1054 94 44 106 53 115 82 6 19
11 137 12 262 0 152 6 257 16 314 58 335 323 632 649 728 70 21 122 28 235 34
80 4 155 12 167 19 12 6 44 55 72 108 71 134 149 240 271 367 186 194 374 322
617 420 116 47 297 88 493 111 74 9 310 -4 420 -23z"/>
<path d="M4045 6256 c-17 -7 -40 -26 -50 -42 -20 -28 -20 -60 -25 -1234 l-5
-1205 -22 -40 c-51 -95 -152 -157 -257 -158 -105 -1 -178 34 -241 114 -62 81
-68 109 -74 366 -7 254 -7 257 -75 307 -26 20 -43 21 -276 24 -150 2 -265 -1
-288 -7 -21 -6 -51 -25 -67 -42 l-30 -30 0 -292 c1 -265 3 -299 22 -367 53
-188 159 -376 287 -503 127 -128 270 -208 471 -264 91 -25 114 -28 265 -27
144 1 177 4 261 26 128 35 230 78 321 138 105 69 168 128 247 233 111 148 188
326 211 482 6 43 10 518 10 1243 0 1308 5 1218 -69 1268 l-36 24 -275 0 c-206
-1 -283 -4 -305 -14z"/>
<path d="M6445 6261 c-11 -5 -29 -19 -40 -31 -20 -22 -20 -40 -25 -1269 l-5
-1248 -29 -41 c-56 -82 -180 -115 -271 -73 -43 19 -103 80 -132 133 -16 29
-19 67 -23 288 -6 292 -11 315 -82 351 -37 19 -55 20 -313 17 -389 -4 -368 19
-362 -403 4 -339 9 -362 107 -560 157 -315 412 -504 756 -561 254 -42 558 39
764 203 144 115 263 300 312 483 l23 85 0 1270 0 1270 -24 32 c-45 61 -60 63
-363 62 -150 0 -282 -4 -293 -8z"/>
</g>
</svg>
