<?xml version="1.0" standalone="no"?>
<!DOCTYPE svg PUBLIC "-//W3C//DTD SVG 20010904//EN"
 "http://www.w3.org/TR/2001/REC-SVG-20010904/DTD/svg10.dtd">
<svg version="1.0" xmlns="http://www.w3.org/2000/svg"
 width="1024.000000pt" height="1024.000000pt" viewBox="0 0 1024.000000 1024.000000"
 preserveAspectRatio="xMidYMid meet">
<metadata>
Created by potrace 1.16, written by Peter Selinger 2001-2019
</metadata>
<g transform="translate(0.000000,1024.000000) scale(0.100000,-0.100000)"
fill="#000000" stroke="none">
<path d="M4154 8821 c-93 -5 -127 -11 -150 -25 -133 -85 -161 -239 -63 -350
59 -67 87 -74 303 -77 l186 -2 0 -384 0 -383 435 0 435 0 0 363 c0 199 3 372
6 384 6 21 11 22 198 25 191 3 193 3 234 31 93 61 127 180 82 285 -24 56 -60
93 -119 120 -33 15 -102 17 -731 18 -382 1 -749 -2 -816 -5z"/>
<path d="M4030 7967 c-341 -30 -559 -59 -780 -103 -299 -60 -390 -99 -447
-193 l-23 -36 0 -650 0 -650 30 -52 c51 -88 150 -133 395 -178 177 -33 367
-57 550 -70 44 -3 100 -8 125 -11 67 -7 136 -12 330 -24 195 -12 1109 -11
1265 1 55 4 147 10 205 13 312 16 670 58 908 106 210 43 294 86 337 171 l25
49 -2 654 -3 654 -30 43 c-58 82 -184 128 -530 193 -194 37 -643 86 -786 86
l-79 0 0 -33 c0 -19 3 -67 6 -108 6 -67 9 -74 28 -75 189 -6 671 -68 807 -105
208 -56 180 -115 -76 -163 -149 -28 -173 -30 -675 -78 -151 -14 -1221 -18
-1425 -5 -230 14 -627 58 -748 83 -255 51 -281 108 -74 163 134 36 508 87 720
98 l127 6 0 109 c0 101 -1 108 -20 109 -59 4 -82 3 -160 -4z"/>
<path d="M3980 4478 c0 -1425 -1 -1408 48 -1536 71 -185 236 -361 416 -442 63
-29 174 -62 247 -74 l36 -6 2 -391 2 -391 57 -73 c31 -40 62 -76 69 -79 7 -3
41 30 78 74 l65 79 0 396 0 395 33 0 c54 0 182 38 270 80 224 106 380 318 432
585 12 57 14 316 15 1394 l0 1323 -92 -6 c-51 -3 -331 -9 -622 -12 l-528 -7 6
-36 c3 -20 6 -100 6 -178 l0 -142 336 -3 336 -3 35 -39 c31 -34 35 -43 30 -79
-3 -25 -15 -50 -31 -66 l-26 -26 -343 -5 c-334 -5 -342 -5 -341 -25 1 -11 2
-104 3 -207 l1 -188 160 0 c174 0 200 -6 239 -56 33 -41 28 -89 -13 -130 l-34
-34 -174 0 c-96 0 -177 -2 -179 -4 -2 -2 -3 -50 -1 -105 l3 -101 315 0 c243 0
322 -3 347 -14 71 -29 91 -123 38 -177 -16 -16 -38 -29 -48 -30 -10 0 -142 -2
-293 -4 -151 -2 -294 -4 -317 -4 l-43 -1 0 -104 0 -104 169 -4 c193 -3 214
-11 240 -84 12 -35 12 -44 -3 -74 -27 -58 -39 -62 -232 -60 l-174 1 0 -111 0
-110 168 0 c113 0 175 -4 191 -13 40 -20 63 -61 63 -108 -1 -36 -6 -49 -32
-71 -16 -16 -40 -28 -53 -29 -52 -3 -119 -5 -224 -7 l-113 -2 0 -27 c1 -68 70
-167 142 -204 33 -17 60 -19 263 -19 224 0 227 0 270 25 43 26 117 98 149 147
10 15 28 57 42 95 l24 68 0 -50 c0 -238 -139 -437 -349 -499 -70 -21 -303 -22
-377 -2 -80 21 -153 65 -219 131 -71 72 -106 133 -134 235 -21 74 -21 90 -21
1361 l0 1286 -165 9 -165 9 0 -1337z"/>
<path d="M4848 1413 c-40 -46 -98 -155 -98 -186 0 -54 54 -107 110 -107 65 0
128 65 117 120 -6 26 -60 123 -95 168 -17 22 -19 22 -34 5z"/>
</g>
</svg>
