<?xml version="1.0" standalone="no"?>
<!DOCTYPE svg PUBLIC "-//W3C//DTD SVG 20010904//EN"
 "http://www.w3.org/TR/2001/REC-SVG-20010904/DTD/svg10.dtd">
<svg version="1.0" xmlns="http://www.w3.org/2000/svg"
 width="1024.000000pt" height="1024.000000pt" viewBox="0 0 1024.000000 1024.000000"
 preserveAspectRatio="xMidYMid meet">
<metadata>
Created by potrace 1.16, written by Peter Selinger 2001-2019
</metadata>
<g transform="translate(0.000000,1024.000000) scale(0.100000,-0.100000)"
fill="#000000" stroke="none">
<path d="M4805 8589 c-635 -77 -1257 -327 -1717 -691 -57 -44 -169 -147 -251
-228 l-147 -148 -53 25 c-125 61 -190 68 -274 29 -152 -71 -178 -296 -47 -404
21 -17 80 -49 133 -71 53 -22 267 -112 475 -201 209 -88 407 -170 440 -181 60
-19 94 -19 1771 -17 l1710 3 115 46 c160 65 815 346 873 376 71 35 123 92 141
154 20 65 20 93 2 151 -19 66 -60 114 -122 144 -74 36 -143 31 -246 -18 l-75
-36 -134 135 c-244 245 -463 405 -763 557 -409 208 -788 325 -1201 371 -141
16 -512 18 -630 4z m110 -1376 c-3 -10 -65 -13 -259 -13 -140 0 -257 3 -259 8
-8 12 66 239 110 337 94 213 233 413 356 512 l52 43 3 -438 c1 -240 0 -443 -3
-449z m504 790 c53 -54 120 -134 149 -178 100 -151 228 -439 266 -597 l6 -28
-264 0 -264 0 -7 193 c-9 237 -3 707 8 707 5 0 52 -44 106 -97z m-1018 -32
c-114 -167 -246 -478 -304 -711 l-13 -55 -187 -3 c-103 -1 -187 1 -187 5 0 20
133 275 172 330 61 87 167 204 265 293 82 74 281 215 290 206 3 -2 -14 -32
-36 -65z m1624 -95 c116 -93 253 -240 328 -353 57 -84 166 -293 167 -316 0 -4
-84 -6 -186 -5 l-186 3 -33 115 c-66 227 -154 430 -265 610 -33 53 -60 100
-60 103 0 12 153 -90 235 -157z m-2372 -128 c-4 -7 -29 -44 -54 -83 -58 -88
-131 -233 -176 -350 -19 -49 -37 -93 -39 -97 -4 -6 -272 106 -286 120 -17 17
304 273 462 370 85 53 107 62 93 40z m3068 -77 c141 -93 318 -232 381 -298
l38 -39 -136 -59 c-75 -33 -139 -61 -143 -63 -4 -1 -31 55 -61 125 -51 122
-139 289 -202 381 -16 23 -25 42 -20 42 5 0 70 -40 143 -89z"/>
<path d="M1647 8529 c-60 -14 -110 -44 -155 -92 -81 -89 -77 -55 -77 -658 l0
-536 30 -49 c43 -69 119 -114 195 -114 76 0 154 39 195 98 l30 44 5 381 c4
343 7 385 23 408 32 47 46 49 406 49 359 0 396 4 460 49 17 12 43 43 58 69 24
39 28 58 28 117 -1 100 -43 167 -139 218 -41 22 -46 22 -531 24 -269 1 -507
-3 -528 -8z"/>
<path d="M7557 8526 c-106 -29 -172 -108 -184 -219 -10 -101 57 -199 161 -234
32 -12 112 -14 391 -12 378 3 377 3 409 -52 14 -24 16 -73 16 -381 0 -218 4
-368 11 -391 13 -49 73 -115 124 -138 119 -55 280 19 314 145 9 29 11 190 9
551 -3 508 -3 510 -26 561 -29 64 -92 126 -157 156 -50 23 -52 23 -535 25
-375 2 -496 -1 -533 -11z"/>
<path d="M1590 6631 c-132 -41 -203 -166 -166 -294 42 -143 211 -209 342 -132
100 59 142 202 90 304 -50 95 -171 151 -266 122z"/>
<path d="M8520 6631 c-110 -35 -174 -119 -174 -226 0 -98 69 -195 159 -225 45
-15 130 -8 173 14 81 42 126 115 126 206 0 94 -44 169 -125 210 -42 22 -123
33 -159 21z"/>
<path d="M2376 6615 c-57 -20 -87 -45 -116 -96 -24 -42 -25 -51 -28 -255 -5
-267 7 -312 99 -386 48 -39 986 -429 1069 -445 25 -4 817 -6 1760 -3 l1715 5
145 61 c413 174 457 193 765 320 99 41 178 119 194 192 14 66 15 414 1 463
-26 93 -100 150 -194 150 -47 0 -87 -14 -318 -116 -144 -64 -324 -144 -397
-176 -74 -33 -149 -70 -167 -84 -73 -56 -86 -172 -25 -227 17 -15 31 -30 31
-32 0 -2 -39 -18 -86 -35 l-86 -31 -1641 2 -1642 3 -67 29 c-72 30 -80 39 -49
55 30 16 54 78 48 123 -12 92 -56 127 -272 218 -55 23 -210 91 -345 150 -232
102 -305 130 -340 130 -8 -1 -33 -7 -54 -15z"/>
<path d="M2360 5324 c-46 -20 -77 -50 -103 -99 -21 -38 -22 -54 -22 -270 l0
-230 28 -47 c15 -26 47 -61 71 -78 24 -16 151 -74 283 -129 131 -54 355 -147
498 -207 l260 -109 1723 -3 1723 -2 72 24 c40 13 185 72 322 129 673 282 648
270 705 327 60 60 70 108 70 339 0 185 -2 199 -24 246 -50 106 -147 149 -252
111 -38 -13 -364 -154 -657 -283 -194 -86 -227 -122 -214 -231 4 -35 12 -53
36 -74 30 -27 30 -28 10 -39 -12 -6 -46 -19 -76 -30 -54 -18 -109 -19 -1698
-19 l-1642 -1 -69 26 c-38 14 -73 30 -77 34 -5 5 5 22 22 38 39 40 49 92 26
143 -26 58 -73 97 -161 134 -43 19 -169 73 -279 121 -470 205 -496 213 -575
179z"/>
<path d="M1587 4166 c-88 -24 -149 -92 -167 -183 -40 -214 213 -359 379 -217
137 118 86 346 -91 399 -60 18 -59 18 -121 1z"/>
<path d="M8484 4156 c-77 -34 -144 -133 -144 -215 0 -79 60 -170 140 -211 128
-65 302 29 326 178 14 89 -49 206 -130 243 -49 22 -147 24 -192 5z"/>
<path d="M2394 4061 c-54 -13 -103 -51 -132 -99 l-27 -47 -3 -231 c-4 -263 3
-319 52 -419 149 -300 501 -712 814 -948 404 -306 908 -535 1403 -636 799
-164 1693 15 2414 484 395 257 796 680 998 1055 71 131 77 167 77 441 l0 237
-28 53 c-37 72 -98 110 -174 111 -59 1 -42 7 -548 -212 -168 -73 -317 -141
-333 -152 -37 -27 -67 -88 -67 -139 0 -34 6 -47 35 -76 20 -20 34 -37 33 -38
-6 -6 -84 -37 -113 -46 -17 -5 -728 -9 -1675 -10 -1769 -1 -1655 -4 -1775 47
l-38 15 31 19 c41 25 60 84 44 138 -16 52 -70 103 -139 132 -32 13 -157 66
-278 118 -499 214 -510 218 -571 203z m4868 -1018 c-70 -84 -283 -285 -397
-377 -184 -146 -319 -229 -243 -148 35 37 136 199 187 300 46 92 27 79 261
178 58 24 132 57 165 73 33 16 62 27 64 25 2 -2 -15 -25 -37 -51z m-4097 -48
l200 -82 73 -133 c40 -73 97 -168 127 -211 30 -44 52 -79 49 -79 -12 0 -225
150 -319 224 -101 79 -344 316 -365 356 -11 20 -10 21 12 14 12 -4 113 -44
223 -89z m957 -205 c65 -189 178 -421 269 -549 22 -30 37 -56 34 -59 -8 -8
-138 74 -236 150 -110 84 -232 207 -313 312 -56 73 -156 232 -156 247 0 4 82
8 183 8 l182 1 37 -110z m796 -287 c1 -235 -1 -393 -7 -393 -17 0 -106 76
-169 146 -70 76 -146 193 -215 330 -47 94 -117 273 -117 299 0 14 29 15 253
13 l252 -3 3 -392z m891 342 c-92 -259 -210 -471 -333 -602 -70 -75 -166 -153
-166 -136 0 4 0 152 -1 328 -1 176 -1 350 0 387 l1 67 68 3 c37 2 153 4 258 3
l191 0 -18 -50z m689 47 c-1 -4 -23 -45 -48 -90 -117 -217 -338 -444 -564
-580 -39 -23 -74 -42 -78 -42 -10 0 -12 -4 60 105 71 106 169 309 228 472 45
128 48 132 78 136 59 7 328 7 324 -1z"/>
<path d="M1555 3267 c-49 -23 -91 -64 -116 -114 l-24 -48 -3 -578 -3 -578 24
-53 c32 -70 84 -126 144 -156 l48 -25 509 -3 c587 -3 575 -4 650 79 114 127
66 324 -93 378 -23 7 -150 11 -388 11 l-353 0 -38 34 -37 34 -5 439 -5 438
-28 48 c-42 71 -94 101 -181 105 -44 1 -82 -3 -101 -11z"/>
<path d="M8490 3264 c-45 -20 -86 -59 -113 -109 -21 -39 -22 -53 -27 -470 -4
-332 -8 -435 -18 -453 -28 -49 -55 -52 -431 -52 l-349 0 -53 -28 c-96 -50
-145 -165 -115 -267 20 -66 64 -117 128 -149 l52 -26 501 0 c583 0 564 -3 657
90 91 91 88 70 88 721 0 604 0 603 -56 676 -55 72 -179 104 -264 67z"/>
</g>
</svg>
