<?xml version="1.0" standalone="no"?>
<!DOCTYPE svg PUBLIC "-//W3C//DTD SVG 20010904//EN"
 "http://www.w3.org/TR/2001/REC-SVG-20010904/DTD/svg10.dtd">
<svg version="1.0" xmlns="http://www.w3.org/2000/svg"
 width="1024.000000pt" height="1024.000000pt" viewBox="0 0 1024.000000 1024.000000"
 preserveAspectRatio="xMidYMid meet">
<metadata>
Created by potrace 1.16, written by Peter Selinger 2001-2019
</metadata>
<g transform="translate(0.000000,1024.000000) scale(0.100000,-0.100000)"
fill="#000000" stroke="none">
<path d="M4640 8764 c-251 -49 -443 -163 -581 -346 -66 -88 -128 -206 -149
-281 -10 -38 -18 -48 -39 -53 -81 -18 -111 -27 -161 -46 -82 -32 -129 -60
-190 -114 -172 -151 -252 -322 -253 -544 0 -126 18 -203 73 -317 80 -162 202
-285 354 -357 144 -68 103 -66 1127 -66 898 0 927 1 997 20 207 58 370 198
472 405 60 123 75 189 75 340 0 121 -3 136 -34 228 -101 292 -368 514 -645
534 l-78 6 -28 61 c-105 235 -297 410 -542 494 -95 32 -114 35 -238 38 -74 1
-146 0 -160 -2z m310 -283 c117 -36 230 -116 307 -216 57 -74 80 -125 99 -217
27 -128 63 -155 202 -145 61 5 106 2 151 -9 168 -39 314 -173 370 -342 29 -85
29 -228 0 -315 -36 -112 -146 -235 -259 -292 -87 -45 -91 -45 -1011 -45 -854
0 -879 1 -943 20 -133 41 -255 155 -307 287 -20 49 -24 76 -24 173 0 109 2
119 32 182 43 91 109 160 196 203 89 45 112 45 121 4 8 -43 64 -96 110 -104
48 -9 117 16 150 56 36 42 43 94 21 149 -26 67 -29 112 -10 177 30 102 84 192
165 273 97 97 207 155 340 180 68 13 217 3 290 -19z"/>
<path d="M8125 7356 c-61 -19 -86 -34 -135 -82 l-45 -43 -670 -3 c-750 -3
-710 1 -753 -76 -26 -46 -28 -91 -7 -132 33 -63 -6 -60 730 -60 l671 0 13 -36
c12 -33 84 -114 136 -154 20 -15 20 -29 23 -1495 2 -814 0 -1517 -3 -1562 l-7
-83 -324 0 -324 0 -2 1318 c-3 1230 -4 1321 -21 1377 -75 253 -293 473 -525
530 -68 16 -330 30 -399 20 -43 -6 -51 -10 -72 -48 -13 -22 -43 -62 -67 -87
-85 -91 -69 -100 198 -106 117 -3 235 -9 262 -15 113 -22 245 -115 309 -216
14 -23 36 -69 47 -103 20 -59 21 -80 18 -404 l-3 -341 -28 -54 c-38 -71 -104
-141 -166 -175 -107 -58 -29 -56 -1951 -56 -1151 0 -1788 4 -1830 10 -141 23
-280 130 -331 257 -23 56 -24 70 -27 372 -4 360 2 395 79 511 66 99 198 188
302 204 20 3 52 8 71 11 54 9 51 29 -15 102 -33 36 -67 80 -75 96 -15 27 -19
29 -57 24 -62 -8 -194 -79 -272 -145 -124 -106 -216 -249 -257 -401 -21 -74
-21 -97 -22 -762 l-1 -687 -110 -4 c-70 -3 -128 -11 -160 -23 -113 -40 -208
-135 -243 -244 -9 -29 -16 -107 -19 -208 l-6 -163 -193 0 -194 0 0 1039 0
1039 53 40 c30 22 68 63 86 91 l33 51 319 0 c296 0 320 1 325 18 17 51 77 162
108 199 20 22 36 44 36 47 0 3 -178 6 -396 6 l-396 0 -63 59 c-81 75 -136 95
-244 89 -60 -4 -88 -11 -131 -34 -188 -102 -214 -370 -49 -518 l50 -45 -1
-1258 c0 -1383 -2 -1340 61 -1450 63 -110 175 -196 290 -222 24 -6 107 -11
183 -11 l139 0 -6 -112 c-4 -62 -7 -179 -7 -260 l0 -148 -455 0 c-494 0 -490
0 -533 -55 -46 -58 -35 -146 22 -190 l33 -25 469 -4 469 -4 0 -71 c0 -39 -2
-309 -3 -601 l-2 -529 -370 -3 -370 -3 -31 -32 c-43 -42 -51 -120 -19 -171 42
-67 -274 -62 3699 -62 3287 0 3614 1 3651 16 73 30 103 122 60 191 -32 53 -64
63 -200 63 l-120 0 0 1000 0 1000 223 0 c259 0 276 4 315 82 20 40 22 51 12
86 -13 49 -69 102 -108 103 -15 0 -120 0 -234 -1 l-208 -1 0 1569 0 1569 39
26 c83 55 131 153 131 266 0 205 -209 359 -405 297z m-5247 -2225 c55 -38 157
-83 221 -97 52 -11 183 -14 611 -14 574 -1 593 -2 642 -47 11 -10 30 -36 42
-58 19 -37 21 -58 24 -266 2 -144 0 -241 -7 -267 -12 -44 -49 -95 -85 -115
-16 -9 -171 -13 -606 -18 -528 -5 -590 -7 -640 -23 -77 -25 -163 -70 -205
-107 l-35 -31 0 531 c0 292 3 531 6 531 3 0 18 -8 32 -19z m4312 -501 c-1
-316 -4 -510 -10 -510 -5 0 -33 15 -62 33 -29 19 -82 47 -118 62 -93 41 -117
60 -148 118 l-27 52 2 236 c1 210 3 242 20 281 30 66 76 105 187 158 56 26
110 55 121 63 11 9 23 17 27 17 4 0 8 -229 8 -510z m-2141 194 l31 -26 0 -178
0 -178 -31 -26 c-41 -35 -97 -35 -136 -2 l-28 24 -3 176 -3 176 30 30 c39 40
96 42 140 4z m692 0 c24 -25 24 -29 24 -206 l0 -180 -28 -24 c-41 -35 -99 -33
-138 5 l-29 29 0 170 c0 169 0 171 26 201 22 27 33 31 73 31 38 0 52 -5 72
-26z m701 -4 c16 -20 18 -44 18 -202 0 -177 0 -179 -25 -203 -39 -40 -141 -27
-159 20 -12 32 -6 359 7 376 35 45 126 50 159 9z m-3847 -713 l0 -472 -130 0
-130 0 -2 410 c-1 232 3 426 8 447 5 20 23 48 40 62 28 24 38 26 122 26 l92 0
0 -473z m4295 -131 c113 -38 205 -119 258 -226 l27 -55 0 -380 0 -380 -27 -55
c-61 -122 -169 -206 -297 -230 -35 -6 -683 -10 -1835 -10 -1945 0 -1849 -3
-1958 57 -70 38 -161 139 -190 210 -23 57 -23 64 -23 413 0 352 0 356 24 415
18 45 42 78 95 131 96 95 146 115 316 123 69 3 897 6 1840 6 1646 0 1717 -1
1770 -19z m-4825 -183 l-2 -147 -34 -9 c-19 -5 -73 -7 -122 -4 -105 7 -156 31
-202 95 -27 39 -30 53 -34 128 l-3 84 199 0 200 0 -2 -147z m526 -515 c1 -46
3 -412 4 -813 2 -640 5 -738 19 -795 22 -85 68 -182 117 -248 28 -37 36 -54
27 -57 -8 -3 -106 -4 -218 -3 l-205 3 -3 998 -2 997 130 0 130 0 1 -82z m5496
-473 c2 -302 0 -565 -3 -582 l-5 -33 -324 0 -325 0 0 585 0 585 328 -2 327 -3
2 -550z m-5037 -390 l85 -29 585 -6 c445 -4 590 -8 607 -18 35 -19 70 -73 83
-124 19 -73 10 -285 -14 -324 -35 -59 -34 -59 -369 -64 l-309 -5 -29 -33 c-49
-55 -35 -146 28 -188 27 -18 82 -18 1413 -21 962 -2 1403 0 1444 8 107 19 174
65 221 150 l29 53 2 213 c4 298 10 308 225 416 68 34 127 63 132 65 9 4 8
-377 -2 -624 l-7 -181 -36 -75 c-63 -127 -148 -204 -268 -245 -52 -17 -137
-18 -1817 -21 -1939 -3 -1840 -6 -1970 58 -106 52 -205 180 -232 301 -6 26
-11 205 -11 426 l0 383 63 -43 c34 -23 100 -56 147 -72z m2001 -224 l29 -29 0
-165 c0 -150 -2 -167 -20 -190 -41 -52 -136 -44 -166 15 -12 24 -15 61 -12
190 l3 160 28 24 c41 35 99 33 138 -5z m670 19 c40 -22 49 -61 49 -208 0 -76
-5 -153 -11 -171 -18 -51 -83 -75 -132 -50 -53 27 -57 42 -57 217 l0 164 29
29 c31 31 83 39 122 19z m700 -3 c34 -26 39 -55 39 -220 l0 -165 -32 -27 c-27
-23 -39 -26 -72 -22 -27 4 -49 15 -63 32 -22 25 -23 34 -23 196 l0 170 26 24
c30 28 96 34 125 12z m1663 -359 c4 -40 3 -165 -1 -278 l-8 -205 -412 -3
c-227 -1 -413 0 -413 4 0 3 15 24 34 47 81 100 135 253 143 405 l6 102 323 0
322 0 6 -72z"/>
<path d="M3210 4931 c-175 -57 -267 -230 -215 -406 22 -77 105 -164 183 -189
152 -51 316 16 390 159 34 68 36 176 3 250 -28 63 -91 129 -156 162 -53 28
-158 40 -205 24z"/>
<path d="M3807 4702 c-61 -64 -15 -177 71 -177 47 0 78 23 99 73 11 27 11 37
-1 66 -29 71 -119 91 -169 38z"/>
<path d="M3737 3696 c-52 -14 -82 -37 -103 -78 -29 -56 -7 -135 48 -168 31
-19 50 -20 328 -21 201 0 306 -4 330 -12 46 -16 80 -68 80 -121 0 -53 -17 -85
-59 -113 -34 -23 -38 -23 -345 -23 -290 0 -313 -1 -343 -20 -44 -26 -56 -54
-51 -112 8 -74 44 -106 133 -119 43 -6 589 -8 1472 -4 1343 4 1406 5 1446 23
61 27 102 66 129 120 22 45 23 57 23 257 0 209 0 210 -27 261 -34 64 -84 106
-150 128 -46 14 -183 16 -1457 15 -1108 0 -1416 -3 -1454 -13z m1314 -165 l29
-29 0 -185 c0 -171 -1 -186 -21 -211 -17 -22 -28 -26 -73 -26 -44 0 -57 4 -77
26 -23 25 -24 32 -27 194 -3 140 0 175 13 203 30 63 107 77 156 28z m662 18
c50 -22 57 -53 57 -234 0 -194 -7 -217 -70 -236 -49 -15 -94 1 -115 42 -18 33
-21 341 -5 384 10 25 58 54 92 55 9 0 28 -5 41 -11z m718 -18 l29 -29 0 -187
c0 -184 0 -186 -25 -210 -18 -19 -35 -25 -70 -25 -57 0 -95 32 -96 82 -4 163
4 335 17 356 32 49 102 55 145 13z"/>
<path d="M3193 3690 c-82 -17 -113 -55 -113 -138 0 -88 49 -122 175 -122 91 0
126 15 150 66 39 82 -3 171 -90 193 -49 12 -62 12 -122 1z"/>
<path d="M3203 3146 c-17 -8 -39 -29 -48 -47 -23 -44 -16 -121 15 -154 96
-102 275 9 213 132 -34 69 -113 99 -180 69z"/>
<path d="M3227 2320 c-96 -24 -166 -81 -209 -168 -29 -58 -33 -76 -33 -147 0
-64 5 -89 23 -125 32 -61 77 -107 137 -138 43 -23 62 -27 140 -27 81 0 95 3
144 30 111 61 178 178 167 288 -12 118 -73 210 -169 256 -69 34 -142 45 -200
31z"/>
<path d="M3809 2121 c-64 -64 -20 -171 70 -171 57 0 92 32 97 90 5 48 -3 64
-46 93 -39 27 -87 22 -121 -12z"/>
<path d="M3717 6296 c-67 -24 -97 -66 -97 -137 0 -35 6 -48 39 -80 l39 -39
306 0 c333 0 356 -3 390 -54 38 -60 29 -147 -21 -186 -24 -19 -40 -20 -320
-20 -184 0 -311 -4 -339 -11 -116 -30 -130 -180 -21 -230 41 -18 89 -19 1482
-19 l1440 0 60 29 c64 30 108 73 133 131 24 54 30 369 8 441 -18 65 -71 131
-130 162 l-41 22 -1445 2 c-1191 2 -1452 0 -1483 -11z m1334 -185 l29 -29 0
-179 c-1 -124 -4 -183 -13 -194 -34 -45 -110 -52 -154 -15 l-28 24 -3 174 c-3
187 3 212 48 235 44 22 88 16 121 -16z m668 15 c44 -23 51 -53 51 -224 0 -177
-6 -198 -62 -225 -33 -16 -40 -16 -71 -4 -63 27 -67 41 -67 235 l0 174 29 29
c33 33 75 38 120 15z m718 -21 c22 -25 23 -34 23 -206 0 -178 0 -180 -25 -204
-34 -35 -93 -34 -134 1 l-31 26 0 180 0 180 30 30 c28 27 36 30 73 25 28 -4
49 -14 64 -32z"/>
<path d="M3153 6283 c-12 -2 -34 -18 -48 -34 -42 -51 -28 -160 24 -189 11 -5
61 -10 111 -10 92 0 92 0 127 35 33 33 35 39 31 86 -4 40 -12 58 -37 82 -29
30 -36 32 -109 34 -42 0 -87 -1 -99 -4z"/>
<path d="M3213 5763 c-39 -8 -73 -59 -73 -109 0 -134 127 -179 220 -79 44 47
28 136 -32 174 -21 13 -85 21 -115 14z"/>
</g>
</svg>
