<?xml version="1.0" standalone="no"?>
<!DOCTYPE svg PUBLIC "-//W3C//DTD SVG 20010904//EN"
 "http://www.w3.org/TR/2001/REC-SVG-20010904/DTD/svg10.dtd">
<svg version="1.0" xmlns="http://www.w3.org/2000/svg"
 width="1024.000000pt" height="1024.000000pt" viewBox="0 0 1024.000000 1024.000000"
 preserveAspectRatio="xMidYMid meet">
<metadata>
Created by potrace 1.16, written by Peter Selinger 2001-2019
</metadata>
<g transform="translate(0.000000,1024.000000) scale(0.100000,-0.100000)"
fill="#000000" stroke="none">
<path d="M6430 8243 c-143 -19 -190 -28 -285 -53 -187 -48 -413 -157 -534
-258 -36 -30 -99 -87 -138 -126 l-73 -70 -92 92 c-111 109 -171 155 -298 227
-164 93 -328 146 -533 172 -119 16 -136 16 -250 0 -153 -21 -253 -47 -387
-100 -185 -73 -310 -159 -479 -325 l-104 -104 -71 21 c-71 20 -259 46 -273 38
-5 -3 -39 -8 -76 -12 -240 -23 -525 -174 -680 -360 -175 -210 -257 -432 -257
-695 0 -187 35 -341 91 -405 l31 -35 133 0 c129 0 135 1 164 26 39 32 39 59 6
149 -33 87 -58 251 -50 324 20 175 83 310 200 426 132 133 282 198 455 199
117 1 208 -25 293 -83 79 -54 117 -66 165 -51 51 17 79 45 114 115 38 77 88
143 171 226 211 210 528 319 797 275 329 -54 603 -251 737 -532 23 -50 52
-103 64 -118 44 -56 112 -70 184 -37 51 23 57 30 98 127 67 159 171 281 331
386 211 139 400 199 641 203 221 4 413 -38 599 -132 100 -50 150 -82 226 -147
28 -24 63 -47 76 -50 37 -10 83 15 172 94 73 64 82 77 82 107 0 29 -9 43 -57
89 -76 72 -175 140 -304 208 -245 129 -460 186 -724 191 -77 1 -151 0 -165 -2z"/>
<path d="M8124 7766 c-131 -25 -135 -28 -634 -461 -137 -119 -341 -292 -389
-331 l-26 -22 -145 65 c-529 236 -568 251 -685 259 -134 10 -266 -33 -377
-123 -68 -55 -126 -128 -503 -635 l-340 -457 -1525 -1 c-1614 0 -1561 1 -1649
-44 -52 -27 -101 -77 -129 -130 l-27 -51 -3 -639 c-3 -702 -3 -700 57 -784 17
-22 49 -51 71 -64 40 -23 51 -38 27 -38 -25 0 -98 -72 -125 -124 l-27 -51 -3
-515 c-4 -593 -4 -593 77 -682 24 -27 56 -54 69 -59 24 -9 24 -10 -21 -40 -53
-35 -102 -105 -116 -169 -6 -27 -11 -220 -11 -491 0 -393 2 -453 17 -499 22
-69 96 -150 165 -181 l53 -24 1783 -3 1782 -2 0 -48 c0 -53 26 -104 62 -123
48 -26 99 -15 189 38 109 65 966 582 1089 658 52 31 172 104 265 160 94 56
253 153 355 215 223 137 257 156 263 150 10 -12 229 -394 249 -434 36 -74 29
-81 -327 -300 -1012 -623 -1033 -636 -1051 -683 -14 -36 -15 -50 -5 -83 19
-65 101 -114 159 -96 24 8 133 74 532 322 448 280 719 447 770 477 121 70 188
169 197 291 8 89 -9 133 -126 345 -238 427 -250 445 -311 461 -45 12 -113 -1
-143 -28 -9 -8 -19 -13 -21 -11 -7 7 -125 268 -187 413 -108 253 -99 169 -99
960 0 761 1 747 -62 850 -31 52 -415 570 -479 647 l-38 46 162 129 c89 70 236
187 327 258 91 71 228 179 305 241 165 131 467 368 615 482 320 247 381 306
419 408 61 161 18 341 -108 457 -96 89 -221 121 -367 94z m157 -269 c67 -45
94 -115 70 -179 -17 -45 -15 -43 -752 -624 -97 -77 -269 -213 -384 -304 -114
-91 -273 -215 -352 -277 -80 -62 -174 -138 -210 -169 l-65 -57 -81 81 -80 80
34 29 c32 27 174 149 324 278 39 33 171 146 295 250 123 105 300 255 394 335
492 419 634 538 671 561 41 26 94 24 136 -4z m-1778 -576 c111 -49 235 -105
276 -124 l73 -34 -133 -114 c-180 -154 -310 -264 -380 -321 -48 -39 -59 -44
-69 -33 -7 8 -28 25 -48 37 -34 21 -35 21 -48 2 -8 -10 -79 -102 -158 -204
-251 -322 -376 -482 -444 -572 -37 -48 -71 -87 -76 -88 -6 0 -40 -18 -77 -41
-70 -42 -162 -130 -173 -166 -8 -24 -42 -33 -120 -33 -155 1 -255 150 -183
275 19 34 539 731 963 1293 124 164 162 198 246 217 80 18 131 4 351 -94z
m-227 -1272 c-50 -42 -142 -119 -205 -171 l-114 -95 -56 34 c-31 19 -66 36
-78 39 -13 4 -23 8 -23 11 0 3 93 96 208 208 l207 204 76 -76 76 -77 -91 -77z
m-1497 85 c-91 -120 -121 -205 -120 -335 0 -119 35 -203 123 -295 l39 -41 -42
-69 c-23 -38 -55 -88 -71 -112 -27 -40 -29 -47 -23 -105 7 -60 5 -66 -48 -182
-74 -163 -81 -187 -68 -228 24 -73 106 -116 175 -92 20 7 86 43 146 79 100 60
115 66 165 66 56 0 122 26 216 86 l36 23 31 -67 31 -66 -37 -11 c-67 -20 -199
-95 -242 -138 -23 -23 -53 -66 -66 -95 -24 -52 -24 -57 -24 -378 0 -359 1
-367 63 -404 53 -33 128 -20 172 30 19 21 20 40 25 340 5 303 6 320 26 347 31
42 80 71 131 79 33 5 47 3 54 -7 18 -29 140 -301 204 -454 41 -99 77 -171 95
-189 52 -53 169 -44 201 15 22 42 27 79 17 115 -5 21 -91 220 -190 443 -391
880 -383 861 -382 921 0 60 20 107 63 153 103 112 302 88 369 -44 12 -24 47
-102 78 -174 30 -71 114 -267 185 -435 177 -414 173 -407 219 -430 49 -25 71
-25 120 0 44 22 72 67 72 114 0 17 -53 155 -120 312 -66 154 -122 289 -126
300 -6 19 2 19 378 16 l385 -2 25 -31 26 -31 0 -692 0 -692 24 -70 c25 -74 57
-148 198 -457 49 -109 88 -200 86 -201 -128 -78 -233 -142 -568 -344 -536
-324 -753 -456 -879 -534 l-104 -64 -40 80 c-32 64 -63 103 -166 210 -91 94
-133 145 -148 182 -21 49 -126 457 -139 541 l-6 42 213 3 c203 3 216 4 245 25
78 56 79 157 2 211 -21 16 -171 17 -1873 22 -2052 6 -1879 -1 -1939 73 l-31
39 -5 281 c-3 155 -3 374 0 487 5 195 6 207 28 238 13 18 42 42 65 55 l42 22
1107 5 c1104 5 1107 5 1135 26 54 40 68 105 37 170 -32 67 39 63 -1175 68
-788 3 -1113 8 -1134 16 -37 14 -72 46 -92 84 -13 26 -15 102 -14 570 2 518 3
542 22 572 11 18 39 42 62 53 42 21 42 21 1414 21 l1372 0 -50 -66z m1858
-301 c58 -74 103 -133 261 -345 12 -17 -6 -18 -366 -18 l-380 0 -17 48 -16 47
38 31 c171 142 398 324 403 324 4 0 38 -39 77 -87z m-1562 -615 c33 -39 63
-76 67 -83 5 -8 -20 -31 -71 -67 l-78 -55 -51 63 c-29 34 -52 66 -52 70 0 10
110 144 118 143 4 0 34 -32 67 -71z m54 -2320 c34 -145 73 -299 86 -343 39
-129 133 -268 248 -366 l59 -49 -1729 0 c-1707 0 -1728 0 -1761 20 -18 11 -41
34 -52 52 -19 31 -20 51 -20 421 0 309 3 394 14 421 15 36 64 77 111 94 20 7
504 11 1506 11 l1475 1 63 -262z"/>
<path d="M2373 5440 c-12 -5 -26 -18 -32 -29 -15 -26 -14 -326 0 -353 20 -38
68 -48 226 -47 212 1 288 10 316 37 21 22 22 30 21 189 l0 166 -28 24 c-27 23
-30 23 -254 22 -125 0 -237 -4 -249 -9z"/>
<path d="M3078 5420 l-30 -30 4 -161 3 -161 33 -29 33 -30 644 3 643 3 26 24
c26 24 26 25 26 187 0 89 -3 170 -6 179 -17 44 -26 45 -704 45 l-642 0 -30
-30z"/>
<path d="M2450 4840 c-68 -7 -95 -21 -116 -62 -30 -58 -2 -145 57 -175 18 -10
139 -13 484 -13 429 0 463 1 495 19 19 10 41 29 47 42 28 55 4 152 -44 177
-19 11 -830 21 -923 12z"/>
<path d="M2361 3774 l-31 -26 0 -148 c0 -90 5 -159 11 -174 25 -53 -26 -51
1258 -46 l1193 5 24 28 c23 27 24 34 24 178 l0 151 -29 29 -29 29 -1195 0
-1195 0 -31 -26z"/>
<path d="M2353 2346 l-28 -24 3 -164 3 -163 30 -27 29 -28 223 0 223 0 33 28
33 27 2 164 1 163 -28 24 c-28 24 -29 24 -262 24 -233 0 -234 0 -262 -24z"/>
<path d="M3078 2339 l-31 -30 6 -157 5 -157 31 -27 31 -28 829 0 829 0 31 26
31 26 0 163 c0 162 0 162 -26 189 l-27 26 -839 0 -840 0 -30 -31z"/>
<path d="M8034 6458 c-28 -22 -219 -182 -238 -198 -5 -5 14 -50 42 -102 62
-115 117 -249 142 -349 18 -70 46 -275 52 -379 l3 -45 50 -7 c28 -3 109 -7
182 -7 151 -1 152 -1 151 85 -2 291 -82 599 -219 849 -69 125 -104 175 -123
175 -7 0 -26 -10 -42 -22z"/>
</g>
</svg>
