<?xml version="1.0" standalone="no"?>
<!DOCTYPE svg PUBLIC "-//W3C//DTD SVG 20010904//EN"
 "http://www.w3.org/TR/2001/REC-SVG-20010904/DTD/svg10.dtd">
<svg version="1.0" xmlns="http://www.w3.org/2000/svg"
 width="1024.000000pt" height="1024.000000pt" viewBox="0 0 1024.000000 1024.000000"
 preserveAspectRatio="xMidYMid meet">
<metadata>
Created by potrace 1.16, written by Peter Selinger 2001-2019
</metadata>
<g transform="translate(0.000000,1024.000000) scale(0.100000,-0.100000)"
fill="#000000" stroke="none">
<path d="M3575 8461 c-89 -22 -165 -84 -212 -173 l-28 -53 -5 -1072 c-3 -589
-7 -1073 -10 -1075 -3 -2 -31 -9 -63 -16 -101 -20 -194 -72 -274 -154 -92 -93
-106 -112 -147 -195 -75 -153 -71 -65 -71 -1418 0 -957 3 -1225 13 -1279 67
-357 386 -659 744 -706 58 -8 556 -10 1628 -8 l1545 4 82 22 c327 87 557 318
657 657 20 69 20 93 23 1270 4 1344 7 1288 -67 1440 -70 145 -184 261 -326
331 -38 19 -92 38 -120 42 l-49 7 -5 1070 -5 1070 -28 57 c-35 71 -110 140
-183 167 -54 21 -65 21 -1562 20 -829 -1 -1520 -4 -1537 -8z m549 -421 c2 -58
4 -165 5 -238 1 -133 1 -134 30 -162 37 -38 75 -47 124 -29 78 27 81 40 87
302 l5 232 104 0 105 0 1 -30 c1 -16 2 -123 3 -237 2 -206 2 -207 28 -237 45
-54 122 -51 176 6 22 24 23 30 28 261 l5 237 851 3 c723 2 853 0 870 -12 19
-14 19 -35 19 -1033 l0 -1018 -1457 -3 -1458 -2 0 1019 0 1020 22 16 c20 13
55 15 236 13 l212 -3 4 -105z m2804 -2313 c68 -36 124 -94 159 -165 25 -52 28
-69 31 -193 l4 -137 -143 -4 c-124 -3 -150 -6 -184 -25 -55 -29 -100 -78 -126
-137 l-21 -49 1 -843 c1 -464 6 -856 10 -871 15 -51 39 -89 81 -127 69 -62 98
-70 243 -68 70 1 127 -2 127 -6 0 -5 -7 -33 -16 -63 -49 -168 -208 -328 -379
-382 l-70 -22 -1545 0 -1545 0 -64 23 c-168 61 -306 199 -360 359 -33 99 -40
93 112 93 106 0 140 4 172 19 45 20 94 72 127 134 l23 42 3 843 c2 559 -1 856
-8 882 -16 58 -71 132 -125 165 -47 29 -52 30 -193 33 l-144 4 5 136 c5 163
19 210 84 282 50 56 103 87 166 99 23 4 825 7 1782 7 l1740 -1 53 -28z"/>
<path d="M4127 7352 c-15 -16 -17 -50 -17 -273 0 -185 3 -258 12 -267 9 -9 83
-12 273 -12 241 0 263 1 278 18 15 16 17 50 17 269 0 229 -1 251 -18 266 -16
15 -50 17 -274 17 -234 0 -256 -1 -271 -18z"/>
<path d="M5550 7350 c-19 -19 -20 -33 -20 -263 0 -203 3 -246 16 -265 15 -22
18 -22 278 -22 201 0 266 3 274 13 7 8 11 106 13 265 2 231 1 254 -16 272 -17
19 -31 20 -272 20 -240 0 -254 -1 -273 -20z"/>
<path d="M5080 5000 c0 -242 -3 -440 -7 -440 -3 0 -109 101 -234 225 -128 127
-236 225 -246 225 -19 0 -243 -217 -243 -235 0 -5 117 -127 261 -271 l261
-261 -218 -224 c-120 -123 -240 -248 -268 -276 l-50 -53 125 -119 c119 -115
125 -119 143 -103 11 9 120 117 241 240 l222 224 6 -84 c4 -46 7 -254 7 -463
l1 -380 364 369 365 368 -143 148 c-78 81 -177 180 -220 220 -42 40 -86 85
-98 101 l-21 29 243 248 242 247 -358 352 c-196 194 -361 353 -366 353 -5 0
-9 -187 -9 -440z"/>
<path d="M4460 1844 c-19 -2 -204 -8 -410 -14 -206 -6 -456 -15 -555 -20 -99
-5 -274 -14 -390 -20 -518 -27 -843 -66 -876 -106 -17 -20 3 -39 54 -53 268
-67 1556 -124 2817 -125 1104 0 2168 41 2705 105 197 23 249 60 136 97 -202
69 -1726 143 -2851 140 -327 -1 -611 -3 -630 -4z"/>
</g>
</svg>
