<?xml version="1.0" standalone="no"?>
<!DOCTYPE svg PUBLIC "-//W3C//DTD SVG 20010904//EN"
 "http://www.w3.org/TR/2001/REC-SVG-20010904/DTD/svg10.dtd">
<svg version="1.0" xmlns="http://www.w3.org/2000/svg"
 width="1024.000000pt" height="1024.000000pt" viewBox="0 0 1024.000000 1024.000000"
 preserveAspectRatio="xMidYMid meet">
<metadata>
Created by potrace 1.16, written by Peter Selinger 2001-2019
</metadata>
<g transform="translate(0.000000,1024.000000) scale(0.100000,-0.100000)"
fill="#000000" stroke="none">
<path d="M0 5120 l0 -5120 5120 0 5120 0 0 5120 0 5120 -5120 0 -5120 0 0
-5120z m6130 4125 c810 -30 1310 -61 1550 -96 121 -17 311 -65 412 -104 206
-80 365 -183 523 -340 419 -419 550 -940 625 -2485 52 -1065 51 -1461 -5
-2520 -41 -786 -112 -1299 -218 -1585 -195 -525 -558 -877 -1039 -1004 -264
-71 -435 -84 -1628 -132 -649 -26 -1491 -35 -1865 -20 -154 6 -406 16 -560 21
-1049 37 -1335 57 -1580 111 -687 152 -1105 654 -1249 1499 -96 562 -154 1616
-143 2600 7 636 34 1249 78 1780 60 726 167 1161 360 1460 187 288 466 516
767 624 298 107 592 137 1847 186 281 11 578 22 660 24 269 6 1071 -4 1465
-19z"/>
<path d="M4860 8724 c-223 -28 -296 -39 -421 -64 -500 -102 -1031 -338 -1478
-657 -244 -174 -425 -342 -644 -597 -275 -320 -461 -611 -617 -967 -84 -191
-192 -550 -235 -782 -67 -368 -65 -894 6 -1290 89 -496 291 -976 579 -1381
277 -388 638 -735 1000 -962 517 -324 1029 -511 1620 -589 642 -86 1374 23
1969 292 453 205 799 440 1121 763 580 579 930 1293 1036 2110 22 172 30 554
14 721 -33 371 -126 750 -264 1087 -244 595 -728 1207 -1260 1591 -401 290
-925 533 -1380 641 -276 66 -413 82 -726 85 -157 2 -301 1 -320 -1z m675 -314
c285 -43 532 -112 788 -221 403 -172 757 -390 1027 -631 223 -199 394 -387
553 -609 423 -589 637 -1288 614 -2009 -17 -523 -108 -898 -327 -1345 -180
-366 -350 -606 -630 -885 -562 -561 -1275 -900 -2095 -995 -589 -68 -1329 73
-1903 364 -217 110 -473 277 -669 434 -277 223 -561 554 -737 861 -239 415
-357 769 -423 1271 -24 183 -24 580 1 770 83 656 285 1139 698 1670 122 157
384 424 528 540 320 256 708 478 1075 617 221 83 534 157 750 178 61 5 126 12
145 14 93 11 471 -4 605 -24z"/>
<path d="M4833 8091 l-323 -6 -27 -28 -28 -27 -5 -268 -5 -267 -55 -1 c-70 -1
-97 -10 -112 -37 -12 -23 -14 -665 -1 -717 22 -92 98 -186 185 -230 60 -30 63
-30 220 -30 l158 0 0 -50 c0 -47 -2 -50 -34 -64 -89 -37 -85 -178 6 -214 26
-10 37 -20 33 -30 -3 -7 -5 -34 -5 -58 l0 -44 -615 0 -615 0 0 79 c0 79 0 79
29 86 43 9 107 69 135 128 24 49 26 61 28 235 1 180 2 182 23 182 38 0 89 42
104 86 13 37 12 44 -5 79 -24 50 -62 77 -108 78 l-36 1 0 212 c0 117 -4 224
-9 237 -6 14 -20 35 -32 46 -22 20 -32 21 -355 21 l-333 0 -28 -24 -28 -24 -5
-234 -5 -233 -56 -1 c-63 -1 -102 -22 -125 -65 -37 -73 11 -179 82 -179 22 0
22 -3 26 -182 3 -159 6 -189 24 -228 25 -55 103 -128 144 -137 l30 -5 0 -79 0
-79 -152 0 c-182 0 -261 -15 -366 -67 -85 -42 -200 -147 -245 -224 -39 -67
-76 -179 -88 -267 -6 -48 -9 -279 -6 -617 3 -451 6 -548 19 -591 48 -159 173
-311 308 -378 97 -47 220 -70 347 -64 l92 5 -6 -57 c-4 -42 -1 -64 11 -88 21
-40 44 -52 100 -52 l45 0 3 -387 4 -388 28 -90 c89 -290 328 -526 646 -640
168 -59 124 -57 1145 -62 980 -4 1126 0 1270 37 106 26 245 96 326 163 124
103 236 280 282 447 17 62 21 116 26 305 l6 230 70 6 c135 11 238 56 332 143
98 91 167 231 181 368 l7 69 65 22 c195 66 336 221 396 437 17 59 19 114 19
630 0 632 1 623 -72 770 -51 101 -180 234 -273 279 -102 49 -178 61 -407 61
l-203 0 0 64 c0 58 2 64 23 70 50 12 115 74 148 142 30 61 33 74 37 195 5 127
5 129 28 129 35 0 92 55 100 96 9 47 -2 82 -36 115 -24 25 -36 29 -82 29 l-53
0 3 270 c3 290 -1 318 -49 348 -28 18 -810 18 -838 0 -44 -27 -46 -40 -49
-335 l-3 -283 -46 0 c-83 0 -123 -41 -123 -126 0 -39 5 -51 34 -80 26 -26 42
-34 70 -34 l36 0 0 -137 c0 -124 3 -143 24 -188 29 -62 89 -120 141 -138 22
-8 40 -19 39 -26 -1 -6 -2 -33 -2 -61 l-2 -50 -525 0 -525 0 0 23 c0 12 -3 38
-6 57 -5 32 -2 36 27 50 96 44 95 180 -2 220 -24 10 -29 18 -25 34 3 12 6 33
6 49 l0 27 135 0 c113 0 143 3 192 21 101 38 180 139 203 258 5 30 10 191 10
358 0 334 -2 349 -59 372 -16 7 -46 11 -66 9 l-37 -3 -2 257 c-1 243 -2 258
-22 285 -11 15 -32 33 -45 40 -31 15 -411 21 -846 14z m717 -386 l0 -205 -455
0 -455 0 0 205 0 205 455 0 455 0 0 -205z m1048 -545 c29 -3 57 -1 62 4 6 6
10 41 10 78 l0 68 50 0 50 0 0 -44 c0 -24 3 -58 6 -75 7 -32 7 -32 63 -29 l56
3 3 71 3 71 42 6 c23 3 42 5 43 4 1 -1 5 -104 8 -229 l7 -228 -270 0 c-149 0
-274 0 -278 0 -5 0 -8 100 -8 223 l0 222 45 5 45 5 5 -75 5 -75 53 -5z m-3388
-20 l0 -170 -41 0 -42 0 7 46 c3 26 6 102 6 170 l0 124 35 0 35 0 0 -170z
m202 13 c2 -87 1 -164 -1 -170 -2 -7 -18 -13 -37 -13 l-34 0 0 170 0 170 35 0
34 0 3 -157z m218 -13 l0 -170 -40 0 -40 0 0 170 0 170 40 0 40 0 0 -170z
m2080 75 l0 -95 -620 0 -620 0 0 95 0 95 620 0 620 0 0 -95z m-940 -465 l0
-50 -97 0 c-104 0 -133 12 -133 55 0 38 18 45 127 45 l103 0 0 -50z m420 0 l0
-50 -110 0 -110 0 0 50 0 50 110 0 110 0 0 -50z m434 27 c8 -13 7 -24 -4 -45
-15 -26 -18 -27 -117 -30 l-101 -3 -4 46 c-2 26 -1 48 1 51 3 3 52 3 109 2 87
-3 107 -6 116 -21z m1382 -313 c5 -18 1 -31 -12 -44 -17 -16 -47 -19 -265 -25
l-245 -7 -29 25 c-26 22 -28 27 -17 51 l12 26 275 0 275 0 6 -26z m485 -757
c69 -33 132 -99 167 -175 l27 -57 0 -570 0 -570 -24 -53 c-32 -71 -115 -147
-183 -167 -39 -11 -102 -15 -255 -15 l-203 0 0 80 c0 44 4 80 8 80 25 0 106
68 130 108 23 41 27 60 30 147 l4 100 38 1 c49 2 77 18 100 57 25 41 25 93 0
134 -24 41 -54 56 -107 56 l-43 0 0 264 c0 291 -3 309 -60 338 -26 14 -84 15
-421 13 l-391 -3 -24 -28 -24 -28 0 -280 0 -279 -47 0 c-89 0 -144 -62 -129
-145 12 -63 97 -119 150 -99 14 5 16 -3 16 -64 0 -146 42 -237 128 -277 l42
-19 0 -78 0 -78 -1410 0 -1410 0 0 84 0 84 30 12 c17 7 49 33 71 58 69 79 70
88 67 617 l-3 467 -32 29 -33 28 -362 0 c-200 0 -380 -5 -401 -10 -26 -7 -44
-20 -58 -42 -19 -31 -19 -49 -17 -517 3 -476 3 -486 25 -526 26 -50 96 -114
123 -114 18 0 20 -7 20 -85 l0 -85 -114 0 c-141 0 -199 17 -266 77 -59 53 -96
125 -110 213 -13 82 -13 916 0 1028 11 97 34 154 85 211 47 52 95 81 159 97
40 10 548 12 2351 11 l2300 -2 56 -28z m-3923 -739 l-3 -323 -60 0 -60 0 -6
49 c-7 66 -23 76 -126 76 -99 0 -123 -15 -123 -79 l0 -38 -60 -7 c-33 -4 -65
-4 -70 -1 -6 4 -10 126 -10 326 l0 319 260 0 260 0 -2 -322z m3420 110 l2
-208 -270 0 -270 0 0 210 0 210 268 -2 267 -3 3 -207z m-52 -572 c8 -35 -10
-62 -47 -70 -37 -7 -194 -6 -298 3 -81 7 -99 19 -87 64 l6 27 210 0 210 0 6
-24z m-915 -694 l396 -2 -4 -52 c-5 -71 20 -113 78 -128 22 -6 47 -9 55 -6 11
4 14 -7 14 -52 l0 -58 -1257 2 c-692 1 -1271 5 -1288 9 -55 14 -125 55 -165
96 -45 46 -90 131 -90 168 l0 26 933 0 c512 -1 1110 -2 1328 -3z m1183 -49
c-4 -125 -148 -263 -276 -263 -27 0 -28 1 -28 55 0 30 0 58 0 61 0 4 17 8 37
10 28 2 46 12 67 35 27 30 28 36 23 95 l-5 64 92 -3 91 -2 -1 -52z m-3648
-210 c63 -109 162 -206 258 -253 163 -80 64 -75 1414 -75 l1203 0 -6 -25 c-23
-96 -92 -178 -190 -226 -65 -32 -87 -37 -182 -45 -59 -4 -514 -8 -1009 -8
-770 -1 -914 1 -990 14 -160 28 -246 84 -361 236 -40 52 -113 134 -162 184
l-91 90 0 87 0 88 39 0 c37 0 40 -3 77 -67z m-81 -570 c11 -21 61 -79 110
-129 75 -76 104 -98 175 -132 173 -82 89 -77 1310 -77 884 0 1095 3 1140 14
136 33 241 90 348 186 29 26 55 45 58 42 13 -13 -22 -150 -56 -222 -64 -133
-175 -231 -321 -282 -68 -24 -93 -27 -304 -34 -303 -10 -1346 -10 -1650 1
-305 10 -374 28 -529 133 -122 83 -224 211 -272 341 -23 63 -46 196 -35 196 4
0 15 -17 26 -37z"/>
<path d="M4862 7773 c-25 -10 -42 -59 -32 -94 13 -43 23 -49 101 -49 78 0 99
16 99 73 0 56 -27 77 -97 76 -32 0 -64 -3 -71 -6z"/>
<path d="M5190 7760 c-24 -24 -26 -77 -4 -108 13 -19 24 -22 89 -22 65 0 76 3
89 22 23 33 20 81 -7 106 -32 31 -137 32 -167 2z"/>
<path d="M7345 5560 c-91 -37 -90 -168 2 -206 94 -40 195 81 137 164 -30 43
-92 62 -139 42z"/>
<path d="M4375 5427 c-92 -31 -176 -96 -220 -172 -34 -58 -58 -167 -49 -229
17 -130 97 -244 211 -301 53 -27 67 -30 158 -30 91 0 105 3 159 30 153 77 243
240 216 392 -21 124 -104 240 -208 289 -68 33 -200 43 -267 21z m182 -196 c77
-36 118 -128 93 -216 -16 -57 -82 -121 -136 -131 -83 -15 -168 30 -205 111
-23 49 -24 84 -3 133 44 106 149 149 251 103z"/>
<path d="M5413 5421 c-71 -26 -118 -61 -169 -122 -88 -107 -109 -272 -51 -390
36 -74 117 -155 186 -188 48 -22 69 -26 151 -26 83 0 103 4 157 29 76 35 153
113 191 193 24 51 27 70 26 153 -1 112 -16 154 -88 242 -68 83 -151 122 -266
125 -63 2 -98 -2 -137 -16z m168 -178 c46 -9 115 -80 129 -134 30 -111 -63
-229 -181 -229 -51 0 -113 36 -145 83 -40 59 -41 145 -2 204 43 65 115 93 199
76z"/>
<path d="M4160 4540 c-11 -11 -22 -31 -26 -45 -8 -31 12 -82 37 -95 10 -6 141
-10 306 -10 313 0 323 2 344 56 11 31 -10 88 -39 103 -14 7 -122 11 -311 11
-276 0 -292 -1 -311 -20z"/>
<path d="M5228 4546 c-28 -21 -39 -61 -27 -96 20 -57 40 -60 338 -60 l269 0
31 26 c40 33 43 83 6 119 l-24 25 -288 0 c-220 -1 -292 -4 -305 -14z"/>
<path d="M7344 4480 c-60 -24 -85 -121 -44 -172 66 -85 200 -41 200 66 0 50
-21 83 -66 102 -37 16 -59 17 -90 4z"/>
<path d="M3235 5031 c-56 -24 -78 -99 -40 -141 16 -18 30 -20 121 -20 93 0
105 2 124 22 27 29 25 76 -4 113 -22 28 -29 30 -102 32 -44 2 -88 -1 -99 -6z"/>
<path d="M6550 5070 l0 -70 55 0 55 0 0 70 0 70 -55 0 -55 0 0 -70z"/>
<path d="M6782 5074 l3 -66 58 -4 57 -4 0 70 0 70 -60 0 -61 0 3 -66z"/>
</g>
</svg>
