<?xml version="1.0" standalone="no"?>
<!DOCTYPE svg PUBLIC "-//W3C//DTD SVG 20010904//EN"
 "http://www.w3.org/TR/2001/REC-SVG-20010904/DTD/svg10.dtd">
<svg version="1.0" xmlns="http://www.w3.org/2000/svg"
 width="1024.000000pt" height="1024.000000pt" viewBox="0 0 1024.000000 1024.000000"
 preserveAspectRatio="xMidYMid meet">
<metadata>
Created by potrace 1.16, written by Peter Selinger 2001-2019
</metadata>
<g transform="translate(0.000000,1024.000000) scale(0.100000,-0.100000)"
fill="#000000" stroke="none">
<path d="M2165 8331 c-57 -25 -102 -81 -110 -133 -3 -24 -5 -782 -3 -1685 l3
-1641 30 -44 c20 -28 49 -52 84 -71 l55 -27 1142 0 1142 0 4 -70 c3 -63 7 -73
36 -103 l32 -32 354 -3 353 -3 5 -237 c2 -130 4 -356 4 -501 l-1 -265 -57 -44
-58 -43 -67 26 c-127 51 -283 42 -393 -22 -187 -110 -262 -361 -164 -554 l23
-46 -42 -6 c-81 -11 -121 -92 -82 -167 8 -16 24 -34 34 -40 11 -5 80 -10 154
-10 l133 0 2 -155 1 -154 -462 -3 c-457 -3 -463 -3 -519 -26 -76 -31 -140 -96
-167 -167 -12 -31 -21 -62 -21 -70 0 -12 -16 -15 -77 -16 -43 0 -123 -2 -178
-4 -55 -2 -246 -6 -425 -10 -329 -5 -641 -22 -650 -33 -3 -4 -14 -7 -25 -7
-13 0 -20 -6 -19 -17 2 -25 -15 -22 -26 5 -7 17 -9 18 -9 5 -1 -10 -1 -21 -1
-25 0 -4 11 -8 26 -10 22 -3 25 -1 19 18 -5 14 -4 19 4 15 6 -4 11 -14 11 -22
0 -8 5 -12 10 -9 6 4 7 11 4 17 -5 7 -2 8 5 4 7 -5 10 -14 7 -22 -7 -17 15
-18 33 -1 9 7 11 8 7 1 -4 -9 30 -14 122 -18 70 -4 152 -9 182 -12 93 -9 4467
-13 4780 -4 358 10 541 20 537 29 -2 3 4 14 15 24 10 9 18 13 18 8 0 -6 -4
-13 -10 -16 -5 -3 -10 -11 -10 -17 0 -7 5 -7 14 1 7 6 20 9 28 6 16 -6 48 19
48 37 0 6 -13 8 -30 6 -16 -2 -31 -1 -32 3 -5 12 -388 29 -798 35 -212 3 -425
7 -473 8 l-88 2 -24 58 c-33 81 -70 131 -123 166 -90 60 -95 60 -669 60 l-523
0 0 155 0 155 86 0 c122 0 163 27 164 109 0 36 -6 49 -34 77 -33 33 -36 34
-119 34 l-85 0 19 40 c11 22 22 54 26 70 9 49 -36 17 838 602 204 136 393 268
422 293 59 51 107 139 123 224 5 29 10 193 10 362 l0 309 633 0 632 0 51 24
c57 26 85 58 109 119 14 38 15 207 13 1694 l-3 1651 -30 43 c-16 23 -50 53
-74 66 l-44 23 -2911 0 c-2794 0 -2913 -1 -2951 -19z m1164 -495 c-166 -59
-272 -244 -239 -416 15 -80 46 -136 111 -201 106 -106 242 -132 392 -74 16 7
17 -3 17 -128 l0 -135 -49 -4 c-27 -1 -129 -1 -226 0 l-177 4 4 130 4 130 -56
56 c-31 32 -69 84 -86 117 -26 55 -29 69 -29 165 0 96 3 110 29 164 57 117
185 203 301 205 l40 0 -36 -13z m726 -271 c143 -65 384 -173 535 -240 151 -68
426 -192 610 -275 184 -84 470 -213 635 -287 165 -75 482 -219 705 -320 223
-102 447 -204 497 -227 51 -22 93 -44 93 -47 0 -4 -30 -9 -67 -11 -176 -13
-329 -165 -348 -344 -4 -35 -9 -64 -10 -64 -2 0 -72 33 -156 74 -85 41 -311
149 -504 239 -574 270 -1071 505 -1214 573 -73 35 -135 64 -137 64 -2 0 -167
78 -366 174 -200 95 -426 203 -502 240 -77 36 -141 68 -143 69 -2 2 16 24 38
48 23 24 54 71 70 104 25 51 29 72 29 142 0 80 -24 174 -54 212 -9 12 -8 12 9
4 11 -6 137 -64 280 -128z m-539 49 c97 -46 99 -200 3 -250 -48 -24 -122 -15
-159 21 -119 114 8 299 156 229z m-46 -993 c0 -110 -13 -134 -70 -134 -58 0
-70 24 -70 137 l0 101 70 -3 70 -4 0 -97z m3685 -692 c105 -28 159 -156 102
-240 -37 -55 -81 -79 -148 -79 -51 0 -63 4 -94 31 -20 18 -43 45 -51 60 -38
74 2 185 79 220 49 22 59 22 112 8z m-405 -325 c42 -80 105 -140 188 -181 73
-36 80 -38 177 -38 99 0 101 1 190 45 50 25 93 46 98 48 4 2 7 -2 7 -10 0 -13
-116 -85 -315 -195 -49 -27 -181 -102 -291 -167 l-202 -116 -518 2 -518 3 425
242 c589 335 723 411 729 412 3 1 16 -20 30 -45z m-1601 -668 c58 -30 69 -119
22 -167 -65 -65 -171 -20 -171 73 0 87 73 133 149 94z m1190 -473 l-1 -268
-310 -205 c-171 -113 -313 -206 -317 -208 -4 -1 -6 57 -5 130 1 73 3 287 3
476 l1 342 315 0 315 0 -1 -267z m-1316 -1207 c43 -18 101 -85 116 -136 45
-150 -101 -293 -256 -251 -87 24 -143 100 -143 196 0 88 37 149 115 189 37 20
125 21 168 2z"/>
<path d="M4895 3148 c-70 -38 -57 -139 21 -168 32 -12 66 1 94 37 57 73 -33
176 -115 131z"/>
<path d="M2171 1954 c0 -11 3 -14 6 -6 3 7 2 16 -1 19 -3 4 -6 -2 -5 -13z"/>
<path d="M2119 1958 c-5 -18 -6 -38 -1 -34 7 8 12 36 6 36 -2 0 -4 -1 -5 -2z"/>
</g>
</svg>
