<?xml version="1.0" standalone="no"?>
<!DOCTYPE svg PUBLIC "-//W3C//DTD SVG 20010904//EN"
 "http://www.w3.org/TR/2001/REC-SVG-20010904/DTD/svg10.dtd">
<svg version="1.0" xmlns="http://www.w3.org/2000/svg"
 width="1024.000000pt" height="1024.000000pt" viewBox="0 0 1024.000000 1024.000000"
 preserveAspectRatio="xMidYMid meet">
<metadata>
Created by potrace 1.16, written by Peter Selinger 2001-2019
</metadata>
<g transform="translate(0.000000,1024.000000) scale(0.100000,-0.100000)"
fill="#000000" stroke="none">
<path d="M0 5120 l0 -5120 5120 0 5120 0 0 5120 0 5120 -5120 0 -5120 0 0
-5120z m9794 4613 c3 -42 6 -2184 6 -4760 l0 -4683 -4740 0 -4740 0 0 4760 0
4760 4734 0 4733 0 7 -77z"/>
<path d="M4451 9245 c-136 -25 -255 -101 -332 -211 -36 -52 -51 -91 -93 -239
-90 -314 -136 -464 -154 -514 -44 -114 -64 -132 -428 -376 -313 -210 -413
-359 -414 -615 0 -164 32 -244 206 -511 180 -277 224 -374 224 -493 0 -67 -15
-205 -54 -506 -49 -379 -61 -658 -32 -769 10 -35 16 -64 14 -65 -2 -2 -29 -13
-62 -26 -121 -48 -196 -162 -197 -299 0 -66 26 -255 60 -428 l18 -92 -89 -3
-88 -3 0 90 c0 50 7 239 15 420 8 182 17 391 20 465 3 74 8 168 11 208 l6 72
47 0 c135 0 206 162 133 301 -22 42 -38 58 -77 79 l-49 25 -281 0 c-279 0
-280 0 -330 -25 -69 -35 -106 -95 -106 -176 -1 -70 12 -108 49 -148 40 -42 82
-56 172 -56 76 0 80 -1 80 -22 0 -36 28 -453 55 -823 14 -187 25 -354 25 -372
l0 -33 -60 0 -60 0 0 -95 0 -95 60 0 60 0 0 -53 c0 -45 -3 -54 -22 -62 -20 -9
-23 -19 -26 -69 -2 -33 2 -64 8 -70 11 -11 291 -18 308 -7 15 10 24 109 12
131 -6 11 -21 20 -33 20 -20 0 -22 4 -19 49 4 47 5 49 40 55 21 3 67 6 104 6
62 0 68 -2 73 -22 2 -13 12 -54 20 -93 45 -207 190 -351 387 -385 45 -8 171
-11 378 -8 170 1 310 0 310 -4 0 -4 -42 -43 -92 -87 l-93 -81 -300 1 c-241 0
-305 2 -325 14 -36 21 -159 20 -190 -2 -25 -16 -93 -78 -222 -201 -60 -57 -68
-68 -68 -102 0 -63 17 -70 164 -70 l127 0 52 47 c29 26 81 75 117 110 l65 62
316 3 316 3 44 36 c24 21 101 92 172 158 l127 121 65 -2 65 -3 0 -258 0 -257
50 -52 50 -52 0 -180 c0 -100 -4 -186 -8 -192 -8 -12 -225 -69 -1172 -308
-338 -86 -655 -166 -704 -179 l-89 -23 2 -166 c2 -147 0 -168 -15 -180 -111
-86 -150 -166 -142 -288 8 -110 61 -189 162 -243 32 -17 58 -22 121 -22 95 0
150 22 216 88 59 59 82 116 83 207 1 65 -3 82 -28 128 -38 67 -103 127 -156
143 -35 11 -41 16 -38 38 3 25 6 25 348 87 556 101 1430 248 1436 241 1 -1 -7
-58 -17 -127 -27 -186 -26 -194 22 -256 23 -30 59 -70 81 -89 l39 -36 -50 -45
c-63 -57 -91 -125 -91 -223 0 -117 64 -217 168 -263 139 -62 292 -5 361 134
67 133 29 286 -92 373 l-28 20 69 70 c110 113 107 102 88 252 -9 70 -19 140
-22 155 -5 25 -3 28 21 28 15 0 79 -9 143 -20 65 -11 254 -42 422 -70 168 -28
503 -86 745 -129 415 -73 440 -79 443 -99 3 -18 -7 -26 -50 -45 -61 -27 -99
-63 -135 -125 -35 -60 -43 -167 -18 -243 24 -72 110 -159 179 -182 145 -49
298 18 364 161 57 122 25 254 -84 350 l-54 47 0 165 0 165 -102 28 c-57 15
-416 106 -798 203 -382 97 -778 197 -880 223 l-185 48 -3 184 -2 184 50 55
c28 30 53 66 57 79 3 13 3 128 -1 256 l-7 232 37 6 c21 4 255 7 520 7 548 0
553 1 674 82 107 71 158 158 196 333 8 38 20 73 27 77 7 4 54 8 105 8 l92 0 0
-55 c0 -51 -2 -55 -24 -55 -20 0 -25 -6 -30 -44 -8 -48 1 -97 18 -108 13 -9
239 -8 281 1 30 6 30 7 30 76 0 65 -2 70 -22 73 -20 3 -23 9 -23 52 l0 49 58
3 57 3 3 98 3 97 -61 0 -60 0 0 33 c0 18 5 91 10 163 12 157 70 1011 70 1036
0 16 10 18 78 18 123 1 190 44 222 144 22 69 -9 168 -69 219 -50 42 -116 49
-394 45 -275 -4 -299 -8 -351 -64 -38 -42 -60 -115 -53 -181 10 -100 61 -153
151 -161 l54 -4 6 -82 c3 -44 8 -144 11 -221 3 -77 12 -288 20 -470 8 -181 15
-363 15 -402 l0 -73 -85 0 c-100 0 -95 -13 -61 150 55 258 68 356 55 418 -15
73 -42 127 -88 175 -36 39 -104 79 -152 90 l-25 6 17 68 c33 125 21 333 -51
931 -35 284 -38 402 -14 482 22 75 35 98 172 317 210 334 235 392 235 553 0
109 -17 188 -58 275 -62 130 -143 203 -485 432 -176 118 -249 185 -281 259
-12 25 -63 191 -115 370 -51 178 -103 343 -115 365 -26 52 -100 132 -157 171
-70 48 -158 78 -262 88 -152 15 -1070 11 -1159 -5z m1244 -227 c62 -32 117
-86 139 -136 9 -20 59 -183 111 -362 52 -178 108 -351 123 -385 51 -107 115
-166 387 -355 256 -179 331 -245 376 -332 18 -33 24 -64 27 -138 5 -118 -5
-147 -115 -325 -44 -71 -119 -194 -167 -272 -157 -256 -159 -269 -91 -878 57
-513 66 -691 40 -803 -21 -87 -33 -107 -86 -140 l-46 -29 26 61 c25 60 26 65
24 276 -2 118 -6 230 -11 249 l-7 34 -165 -171 -165 -172 0 158 c0 146 -2 160
-23 196 -22 36 -24 57 -37 350 -8 171 -22 439 -30 596 -8 156 -15 305 -15 330
0 42 10 59 136 235 l135 190 -6 167 c-8 175 -14 228 -29 231 -5 1 -31 -72 -58
-163 -52 -177 -51 -174 -191 -353 l-92 -118 -7 53 c-3 29 -6 81 -7 116 -1 61
-3 65 -48 113 -48 52 -101 94 -108 87 -2 -2 2 -94 10 -203 8 -110 24 -355 35
-545 12 -190 30 -464 40 -610 11 -146 20 -286 20 -312 l0 -48 -760 0 -760 0 0
63 c0 80 25 496 50 837 10 146 26 373 35 505 8 132 17 255 18 273 2 18 -2 32
-8 32 -12 0 -112 -81 -132 -106 -6 -9 -14 -72 -18 -141 l-8 -127 -21 29 c-11
17 -64 84 -116 150 l-96 121 -58 180 c-32 98 -61 184 -65 189 -12 21 -20 -76
-20 -246 l-1 -177 34 -48 c18 -27 79 -114 135 -193 l101 -144 -5 -51 c-6 -64
-22 -399 -35 -756 -16 -449 -17 -454 -45 -496 -24 -35 -25 -43 -25 -198 l-1
-161 -166 170 -167 170 -8 -130 c-13 -197 -5 -379 20 -442 l20 -53 -43 30
c-85 58 -114 184 -96 414 12 144 47 502 72 726 6 58 12 184 13 281 l1 177 -41
78 c-22 44 -104 182 -183 308 -187 299 -186 296 -186 421 0 118 17 165 87 241
47 52 220 185 368 284 186 124 287 215 329 298 25 48 78 214 151 467 95 331
109 360 196 411 94 55 75 54 689 51 l570 -2 50 -27z m-2585 -3427 c27 -52 30
-51 -249 -51 -170 0 -262 4 -266 10 -4 6 1 22 9 35 l16 25 240 0 c226 0 240
-1 250 -19z m4400 5 c6 -8 10 -25 8 -37 -3 -21 -4 -21 -245 -20 -172 1 -243
-1 -243 -9 0 -15 -17 -3 -29 19 -7 13 -6 24 5 39 15 21 21 22 253 22 196 0
241 -3 251 -14z m-1620 -521 l0 -355 -45 0 -45 0 0 255 0 255 -29 0 c-34 0
-41 -14 -41 -76 l0 -44 -670 0 -669 0 -3 57 c-3 53 -5 57 -32 64 -16 5 -34 5
-39 2 -6 -4 -8 -100 -6 -257 l4 -251 -42 -3 -43 -3 -2 273 c-1 150 -2 310 -3
356 l-2 82 834 0 833 0 0 -355z m-395 -34 l180 -6 -265 -7 c-337 -10 -602 -10
-816 0 l-169 7 125 5 c177 8 731 9 945 1z m1207 -261 c50 -14 88 -61 88 -110
0 -21 -11 -85 -24 -142 -13 -56 -31 -146 -41 -198 -43 -247 -88 -471 -106
-525 -24 -74 -69 -131 -123 -156 -72 -33 -83 -25 -37 27 56 64 72 114 125 389
25 132 49 252 52 268 4 18 1 27 -7 27 -6 0 -66 -51 -133 -112 -67 -62 -130
-121 -141 -130 -20 -17 -20 -16 -17 144 2 93 -1 173 -7 190 -10 28 -6 36 43
101 30 40 85 104 123 143 67 71 75 75 163 93 3 0 22 -4 42 -9z m-3164 -14 c34
-18 100 -87 190 -199 64 -78 70 -90 62 -113 -6 -14 -10 -100 -10 -190 l0 -166
-114 107 c-114 106 -182 162 -190 154 -2 -2 6 -53 19 -114 13 -60 37 -180 54
-266 37 -190 59 -253 113 -314 37 -42 39 -47 18 -40 -112 34 -167 101 -196
237 -64 298 -154 767 -154 799 0 51 13 75 53 99 38 24 116 26 155 6z m2534
-245 c16 -6 37 -25 48 -43 19 -31 20 -51 20 -407 0 -334 -2 -376 -17 -393 -15
-17 -61 -18 -1061 -18 l-1046 0 -23 22 -23 21 0 364 c0 401 3 423 58 446 39
16 2003 24 2044 8z m-1087 -1345 c4 -58 4 -114 0 -125 -6 -21 -4 -21 139 -21
l146 0 0 -35 0 -35 -215 0 -215 0 0 160 0 160 69 0 69 0 7 -104z m35 24 c0
-47 -4 -80 -10 -80 -6 0 -10 33 -10 80 0 47 4 80 10 80 6 0 10 -33 10 -80z
m-19 -595 l5 -100 4 100 3 100 8 -130 c4 -71 5 -133 3 -137 -3 -4 -31 -8 -62
-8 l-57 0 2 137 c1 76 2 139 3 141 0 2 19 2 43 0 l42 -3 6 -100z m163 -402 c3
-38 13 -138 21 -223 8 -85 15 -170 15 -187 l0 -33 -146 0 -147 0 7 78 c16 187
38 408 41 420 3 8 33 12 103 12 l99 0 7 -67z m-674 -90 c-183 -59 -1097 -240
-1116 -221 -8 9 741 171 976 213 157 27 208 30 140 8z m1195 2 c197 -28 1068
-214 1085 -232 3 -3 -8 -3 -25 1 -16 3 -88 15 -160 26 -251 40 -554 100 -780
155 -281 68 -299 76 -120 50z m-510 -415 c-4 -6 -60 -10 -136 -10 -84 0 -128
4 -124 10 4 6 60 10 136 10 84 0 128 -4 124 -10z"/>
<path d="M4960 8339 c-47 -10 -181 -35 -299 -54 -117 -20 -227 -43 -243 -51
-24 -12 -43 -43 -92 -147 -117 -248 -166 -370 -166 -418 0 -60 35 -127 85
-162 59 -40 138 -49 417 -45 228 3 246 4 288 25 55 28 89 76 99 140 l7 48 13
-50 c18 -70 46 -112 95 -138 40 -21 49 -22 340 -20 293 2 299 2 345 25 31 17
55 39 76 72 46 76 41 129 -28 291 -153 360 -152 356 -198 381 -17 8 -137 33
-267 55 -131 22 -265 46 -300 54 -75 18 -66 18 -172 -6z m-35 -211 c-2 -7 -18
-112 -36 -233 -17 -121 -36 -226 -41 -232 -8 -10 -68 -13 -238 -13 -192 0
-230 2 -240 15 -11 13 -6 30 27 103 23 48 61 132 84 186 24 55 51 102 59 106
11 6 324 70 382 79 4 1 6 -5 3 -11z m460 -28 c83 -16 161 -31 175 -32 22 -3
34 -24 107 -188 46 -102 83 -192 83 -201 0 -9 -7 -20 -16 -23 -22 -9 -447 -7
-461 2 -6 4 -25 107 -43 231 -17 123 -34 230 -37 239 -5 12 -1 14 18 9 13 -4
92 -20 174 -37z"/>
<path d="M3843 7758 c-27 -13 -29 -30 -8 -48 13 -10 19 -9 38 6 12 10 24 20
26 21 5 3 -20 33 -28 32 -3 0 -16 -5 -28 -11z"/>
<path d="M6220 7751 c-8 -16 -4 -23 23 -40 l32 -20 12 22 c17 30 16 32 -12 45
-35 16 -43 15 -55 -7z"/>
<path d="M3727 7677 l-28 -22 24 -23 c23 -22 24 -22 41 -3 13 14 16 28 12 46
-8 31 -13 31 -49 2z"/>
<path d="M6339 7679 c-8 -16 -7 -25 7 -40 21 -23 40 -24 48 -3 11 28 6 41 -19
52 -21 10 -26 9 -36 -9z"/>
<path d="M3618 7599 c-13 -17 -14 -25 -5 -40 7 -11 15 -19 18 -19 14 0 40 40
37 57 -5 26 -30 27 -50 2z"/>
<path d="M6440 7601 c-8 -16 -5 -23 21 -42 31 -22 32 -22 45 -4 19 25 18 31
-8 49 -30 21 -45 20 -58 -3z"/>
<path d="M3495 7522 c-42 -26 -101 -94 -121 -139 -25 -56 -23 -166 3 -224 11
-25 83 -146 159 -270 76 -123 152 -253 170 -289 56 -112 58 -130 45 -380 -7
-124 -13 -235 -15 -247 -2 -17 5 -25 28 -34 17 -7 33 -14 36 -16 3 -2 6 9 7
25 1 15 14 113 28 217 15 105 29 233 32 285 5 93 5 96 -29 160 -19 36 -92 157
-163 270 -242 386 -220 345 -220 419 0 71 26 131 79 180 20 19 23 28 15 42
-12 23 -17 23 -54 1z"/>
<path d="M6565 7520 c-5 -14 4 -32 29 -61 41 -49 66 -115 66 -178 0 -51 -7
-64 -131 -251 -123 -186 -217 -335 -254 -406 -31 -58 -35 -74 -35 -142 0 -63
53 -506 65 -549 3 -9 12 -9 37 0 18 6 34 12 34 12 1 0 -4 101 -11 225 -8 144
-9 248 -4 290 11 76 53 170 132 291 103 160 227 367 248 415 47 105 19 215
-77 312 -65 65 -88 75 -99 42z"/>
<path d="M4496 6704 c-19 -19 -21 -48 -3 -61 6 -6 111 -13 232 -17 192 -6 223
-5 243 9 24 17 29 54 10 73 -9 9 -76 12 -239 12 -194 0 -230 -2 -243 -16z"/>
<path d="M5131 6698 c-11 -31 -3 -56 23 -64 11 -4 118 -7 236 -7 208 1 215 2
232 23 22 27 22 34 2 54 -13 14 -50 16 -250 16 -233 0 -235 0 -243 -22z"/>
<path d="M4414 5895 c-13 -51 2 -55 207 -55 l189 0 6 25 c14 54 11 55 -200 55
l-196 0 -6 -25z"/>
<path d="M4880 5881 c0 -39 1 -41 31 -41 29 0 30 2 27 38 -3 32 -7 37 -30 40
-27 3 -28 1 -28 -37z"/>
<path d="M5187 5907 c-3 -7 -3 -26 0 -41 4 -21 10 -26 27 -24 16 2 22 11 24
41 3 33 1 37 -21 37 -14 0 -27 -6 -30 -13z"/>
<path d="M5307 5913 c-12 -11 -8 -50 7 -62 16 -14 342 -22 367 -10 23 12 31
37 19 60 -10 18 -23 19 -199 19 -103 0 -191 -3 -194 -7z"/>
<path d="M3730 5841 c0 -30 4 -40 19 -44 25 -6 31 0 31 34 0 18 -7 32 -19 39
-29 15 -31 13 -31 -29z"/>
<path d="M6332 5838 c2 -23 9 -34 22 -36 26 -5 40 12 32 42 -5 19 -13 26 -32
26 -22 0 -25 -4 -22 -32z"/>
<path d="M3717 5734 c-14 -14 -7 -62 10 -68 23 -9 35 6 31 40 -3 28 -26 43
-41 28z"/>
<path d="M6354 5726 c-11 -28 0 -61 21 -61 16 0 20 7 20 35 0 25 -5 36 -18 38
-9 2 -20 -3 -23 -12z"/>
<path d="M3700 5576 c0 -25 5 -35 19 -39 11 -3 22 -2 25 1 10 10 6 48 -6 60
-22 22 -38 13 -38 -22z"/>
<path d="M6377 5603 c-4 -3 -7 -21 -7 -40 0 -35 18 -44 39 -19 23 28 -8 84
-32 59z"/>
<path d="M6603 4489 c-48 -45 -53 -55 -53 -92 l1 -42 21 29 c12 16 36 35 55
42 21 9 33 21 33 33 0 10 3 33 6 50 4 17 3 31 -2 31 -5 0 -33 -23 -61 -51z"/>
<path d="M3454 4518 c3 -13 6 -35 6 -49 0 -20 7 -30 29 -39 16 -6 37 -20 47
-31 23 -26 34 -24 34 7 0 17 -17 43 -51 80 -56 58 -75 67 -65 32z"/>
<path d="M4060 3973 l0 -233 994 0 993 0 6 83 c4 45 7 148 7 229 l0 148 -1000
2 -1000 3 0 -232z m1858 158 c19 -12 -386 -21 -928 -21 -499 0 -884 10 -815
21 60 9 1728 10 1743 0z"/>
</g>
</svg>
