<?xml version="1.0" standalone="no"?>
<!DOCTYPE svg PUBLIC "-//W3C//DTD SVG 20010904//EN"
 "http://www.w3.org/TR/2001/REC-SVG-20010904/DTD/svg10.dtd">
<svg version="1.0" xmlns="http://www.w3.org/2000/svg"
 width="1024.000000pt" height="1024.000000pt" viewBox="0 0 1024.000000 1024.000000"
 preserveAspectRatio="xMidYMid meet">
<metadata>
Created by potrace 1.16, written by Peter Selinger 2001-2019
</metadata>
<g transform="translate(0.000000,1024.000000) scale(0.100000,-0.100000)"
fill="#000000" stroke="none">
<path d="M3775 9055 c-69 -13 -148 -39 -515 -168 -102 -36 -261 -92 -355 -125
-467 -164 -468 -165 -580 -277 -92 -92 -144 -180 -177 -302 l-21 -78 0 -2930
c-1 -3285 -9 -2976 73 -3140 81 -166 218 -285 389 -341 l54 -17 94 -196 c52
-108 102 -212 111 -231 l17 -35 275 -1 c151 -1 282 0 291 2 13 4 88 150 175
342 15 35 34 68 40 73 19 15 47 -21 91 -117 l38 -84 302 0 c166 0 308 -3 317
-6 11 -4 26 16 56 77 l42 82 211 -6 c117 -4 404 -14 638 -24 l426 -17 78 -165
c42 -90 86 -186 98 -213 l20 -48 309 0 308 0 73 148 c40 81 87 180 106 220 18
39 36 72 40 72 3 0 33 -56 65 -125 l59 -125 82 0 c45 0 176 -3 291 -6 l209 -6
34 74 c156 334 224 475 234 484 7 6 50 23 95 37 46 15 108 43 138 63 110 73
199 204 241 354 17 62 18 197 18 3070 0 2858 -1 3008 -18 3070 -51 184 -168
327 -331 404 -115 54 -154 58 -1051 96 -733 31 -906 38 -1580 70 -346 16 -760
34 -920 39 -159 6 -342 13 -405 16 -75 3 -139 -1 -185 -10z m620 -245 c558
-22 1031 -42 1510 -65 171 -8 492 -22 715 -30 223 -9 421 -18 440 -22 32 -5
21 -10 -110 -55 -310 -105 -692 -217 -709 -207 -92 52 -192 65 -606 79 -170 6
-436 17 -590 25 -306 16 -799 39 -1190 55 -347 15 -628 30 -632 34 -2 2 45 20
104 40 59 21 164 58 232 82 158 57 247 82 291 83 19 1 265 -8 545 -19z m3443
-204 c63 -32 116 -88 150 -156 25 -51 27 -66 30 -200 l3 -145 -94 -23 c-51
-12 -219 -58 -373 -101 -153 -43 -364 -102 -469 -131 -104 -29 -257 -72 -340
-95 l-150 -43 -10 141 c-7 94 -16 155 -28 181 -9 21 -17 41 -17 45 0 4 -20 42
-45 85 -25 44 -45 81 -45 82 0 2 39 15 88 29 48 15 204 62 347 105 803 243
822 248 868 249 21 1 58 -9 85 -23z m-4748 -211 c173 -8 455 -21 625 -30 171
-8 472 -21 670 -30 401 -17 1085 -50 1390 -65 109 -6 219 -15 242 -21 139 -31
244 -127 302 -276 l26 -68 3 -2860 c2 -1980 -1 -2882 -8 -2930 -14 -94 -56
-180 -117 -241 -100 -101 -163 -115 -441 -104 -114 5 -387 16 -607 25 -220 8
-472 20 -560 25 -158 9 -332 18 -1360 65 -582 26 -605 29 -699 94 -58 40 -127
131 -158 209 l-23 57 1 2925 c0 2707 1 2929 17 2981 32 108 127 205 234 239
71 23 76 23 463 5z m4874 -576 c37 -29 56 -71 56 -121 l0 -43 -36 43 c-38 45
-80 72 -113 72 -29 0 -61 -47 -61 -89 0 -34 32 -80 121 -175 4 -5 25 -12 46
-15 l38 -6 2 -100 c2 -82 0 -97 -10 -81 -73 114 -175 230 -257 292 -43 33
-183 99 -228 109 -19 4 -30 11 -25 15 8 8 129 47 293 94 106 31 140 32 174 5z
m-749 -192 c-155 -82 -265 -175 -380 -322 -81 -104 -120 -166 -190 -302 -32
-62 -59 -113 -61 -113 -9 0 10 167 21 180 18 22 119 188 143 235 41 81 26 135
-38 135 -34 0 -69 -38 -96 -104 -11 -25 -22 -46 -25 -46 -3 0 -4 26 -1 58 4
61 34 118 77 146 12 8 60 25 106 36 46 12 145 39 219 60 157 45 281 79 295 79
6 0 -26 -19 -70 -42z m351 -187 c32 -16 81 -48 107 -71 181 -156 326 -502 342
-819 4 -72 3 -79 -6 -50 -94 303 -196 505 -350 689 -86 103 -234 200 -330 216
-21 4 -39 11 -39 15 0 17 106 49 161 49 43 1 70 -6 115 -29z m-348 -225 c210
-50 362 -222 408 -463 19 -100 18 -295 -2 -383 -15 -67 -34 -93 -34 -46 0 13
-9 50 -20 83 -11 32 -25 90 -31 129 -41 263 -187 490 -371 579 -41 20 -90 39
-109 42 -63 11 -64 12 -34 44 25 26 36 30 79 30 28 0 79 -7 114 -15z m-197
-275 c113 -35 214 -121 270 -231 25 -51 24 -55 -9 -27 -54 46 -194 108 -266
119 -76 12 -189 0 -252 -26 -44 -18 -44 -18 22 103 l45 82 63 0 c36 0 92 -9
127 -20z m-16 -338 c-6 -4 -36 -28 -69 -52 -73 -55 -265 -284 -309 -367 -17
-35 -34 -63 -37 -63 -3 0 -4 57 -2 127 4 118 7 130 30 163 76 104 154 160 257
186 57 14 144 18 130 6z m282 -163 c72 -35 136 -136 162 -257 18 -88 14 -247
-10 -332 -36 -131 -120 -249 -205 -290 -64 -31 -147 -25 -199 14 -169 129
-201 512 -61 730 38 59 104 122 150 142 46 20 113 17 163 -7z m518 -251 c-25
-145 -101 -307 -175 -373 l-23 -20 8 25 c15 47 25 95 25 124 0 16 14 51 31 77
44 69 94 193 121 301 l23 93 3 -68 c2 -37 -4 -109 -13 -159z m-1111 -277 c-8
-27 -35 -127 -59 -223 l-45 -173 4 100 c5 101 22 167 76 293 28 66 44 68 24 3z
m1216 -85 c-43 -228 -143 -377 -308 -458 -59 -29 -76 -33 -152 -33 -79 0 -160
17 -160 34 0 4 21 17 46 29 25 12 66 42 92 66 32 29 66 49 106 61 141 44 285
184 356 347 30 68 38 48 20 -46z m-1056 -521 c15 -59 47 -143 77 -205 80 -162
205 -278 346 -320 23 -7 40 -16 38 -21 -3 -4 -37 -13 -76 -19 -203 -34 -347
69 -429 310 -38 111 -39 421 -1 485 3 6 9 -21 13 -60 4 -38 19 -115 32 -170z
m1156 -170 c-5 -11 -28 -66 -49 -123 -56 -148 -121 -252 -221 -352 -71 -72
-101 -93 -180 -132 -123 -60 -199 -79 -340 -85 -140 -6 -231 11 -334 62 -94
46 -159 105 -234 210 l-62 87 0 96 0 97 33 -80 c97 -239 297 -395 507 -395
247 1 534 192 726 483 51 78 138 245 151 293 6 22 9 9 11 -56 2 -46 -2 -94 -8
-105z m-791 37 c87 -47 186 -66 274 -52 78 12 163 39 213 69 48 29 44 8 -16
-81 -93 -137 -98 -141 -175 -146 -176 -11 -331 82 -416 249 -40 80 -37 88 15
37 24 -24 71 -59 105 -76z m777 -674 c-30 -117 -91 -264 -154 -372 -50 -83
-169 -231 -246 -306 l-47 -45 -104 -3 c-57 -2 -128 1 -157 8 -54 11 -188 68
-188 79 0 3 44 16 98 27 196 43 342 124 479 267 93 96 147 171 258 356 91 151
102 149 61 -11z m-1193 -201 c128 -63 213 -82 367 -81 103 1 153 6 210 21 l75
21 -44 -39 c-62 -56 -191 -116 -286 -136 -67 -13 -94 -14 -165 -4 -136 18
-156 26 -195 79 -38 51 -125 219 -125 240 0 8 20 -4 45 -26 25 -22 78 -56 118
-75z m-184 -280 c87 -153 318 -364 418 -383 45 -8 41 -21 -9 -34 -24 -6 -98
-27 -165 -46 -134 -37 -171 -41 -211 -20 -43 22 -60 47 -67 101 l-6 50 30 -35
c17 -19 31 -38 31 -41 0 -4 13 -12 29 -19 24 -9 34 -9 59 4 47 24 56 77 22
133 -23 38 -105 123 -140 145 -24 15 -25 21 -25 102 0 47 2 86 5 86 3 0 16
-19 29 -43z m1401 -12 c0 -41 -5 -49 -60 -106 -33 -34 -63 -59 -67 -55 -3 3
14 36 39 74 25 37 53 82 62 100 9 17 19 32 21 32 3 0 5 -20 5 -45z m0 -438 l0
-83 -137 -37 c-76 -20 -235 -64 -353 -97 -222 -63 -495 -138 -778 -216 -90
-25 -165 -44 -167 -42 -2 2 -1 38 2 81 l6 77 81 24 c45 14 119 34 166 46 77
20 230 62 565 155 66 18 228 63 359 99 132 37 242 69 245 71 10 10 11 2 11
-78z m-2 -769 l-3 -453 -28 -60 c-30 -64 -84 -127 -130 -152 -26 -13 -173 -52
-762 -203 -104 -27 -260 -67 -345 -90 -257 -68 -264 -70 -276 -70 -7 0 2 24
22 57 79 132 77 118 85 598 3 237 7 431 8 432 3 4 180 55 341 98 96 26 310 84
475 130 409 114 581 160 608 164 4 0 6 -203 5 -451z m-583 -1094 c-19 -42 -47
-99 -62 -127 l-28 -52 -127 0 -126 0 -31 63 c-17 34 -31 68 -31 75 0 8 74 31
213 64 116 28 215 51 219 52 4 0 -8 -33 -27 -75z m-4069 -67 c3 -3 -17 -48
-43 -101 l-48 -97 -124 3 -124 3 -48 104 -49 104 216 -6 c118 -3 218 -7 220
-10z m3087 -97 l68 0 -53 -102 -53 -103 -143 -2 -143 -2 -10 27 c-6 15 -23 52
-38 82 -49 97 -49 98 6 103 26 3 104 3 173 1 69 -2 156 -4 193 -4z"/>
<path d="M7643 8416 c-116 -52 -59 -246 61 -206 51 17 76 53 76 111 0 83 -64
127 -137 95z"/>
<path d="M7304 8306 c-28 -28 -34 -42 -34 -75 0 -47 21 -95 45 -105 41 -15 95
-6 125 22 26 23 31 35 32 81 2 49 0 56 -30 82 -46 42 -93 40 -138 -5z"/>
<path d="M7005 8227 c-52 -44 -50 -158 3 -186 84 -45 182 39 158 135 -18 70
-106 98 -161 51z"/>
<path d="M6709 8147 c-27 -20 -39 -53 -39 -105 0 -40 5 -54 26 -76 91 -90 231
65 148 163 -22 27 -32 31 -72 31 -26 0 -54 -6 -63 -13z"/>
<path d="M2642 8228 c-104 -35 -144 -166 -75 -248 69 -83 166 -81 241 5 37 41
47 72 39 121 -15 91 -116 151 -205 122z"/>
<path d="M5938 8052 c-46 -21 -74 -57 -89 -115 -36 -133 115 -245 235 -175 54
31 90 99 81 152 -9 62 -43 113 -90 136 -50 24 -88 25 -137 2z"/>
<path d="M3991 7999 c-36 -34 -41 -62 -41 -238 0 -156 -2 -171 -23 -212 -16
-29 -38 -52 -66 -68 l-43 -24 -317 12 c-174 6 -365 11 -424 11 -121 0 -165 13
-193 55 -17 26 -17 29 2 64 l19 36 410 0 c438 0 433 -1 474 51 26 33 27 70 1
111 -38 63 -24 61 -500 69 -389 6 -439 5 -473 -9 -68 -29 -114 -74 -149 -145
-28 -56 -33 -77 -33 -137 1 -87 25 -144 91 -215 58 -62 130 -98 209 -105 33
-2 247 -10 476 -16 450 -13 475 -11 572 38 69 34 133 103 170 181 31 67 32 68
35 256 5 208 -2 252 -45 285 -36 29 -121 29 -152 0z"/>
<path d="M4388 7991 l-33 -29 -5 -2484 -5 -2483 -23 -48 c-13 -26 -40 -60 -59
-76 -61 -50 -97 -55 -386 -47 -712 18 -1216 26 -1249 21 -57 -10 -88 -47 -88
-107 0 -41 5 -54 28 -77 l28 -28 209 -7 c583 -17 1129 -28 1290 -25 180 4 181
4 246 36 83 41 159 121 202 210 l32 68 0 2523 0 2524 -33 29 c-46 41 -108 41
-154 0z"/>
<path d="M4768 7991 l-33 -29 -5 -2684 -5 -2683 -24 -45 c-48 -90 -95 -132
-177 -156 -45 -13 -115 -13 -535 -5 -266 6 -687 13 -936 17 l-452 7 -30 -31
c-26 -25 -31 -38 -31 -77 0 -40 5 -52 33 -80 l33 -33 174 -6 c96 -3 353 -8
570 -11 217 -3 564 -10 771 -16 359 -9 378 -8 453 11 188 48 316 169 370 349
15 50 16 299 16 2733 0 2946 5 2719 -60 2753 -47 24 -95 19 -132 -14z"/>
<path d="M5148 7991 l-33 -29 -5 -2769 -5 -2768 -21 -45 c-11 -25 -51 -75 -87
-111 -57 -56 -67 -71 -67 -100 1 -43 19 -75 56 -100 103 -68 274 63 333 255
l21 68 0 2770 c0 3045 5 2809 -60 2843 -47 24 -95 19 -132 -14z"/>
<path d="M5519 7991 c-22 -22 -29 -39 -29 -68 -4 -2934 2 -5796 11 -5816 25
-55 114 -75 164 -35 59 46 55 -163 55 2950 0 1713 -4 2879 -10 2903 -21 91
-128 128 -191 66z"/>
<path d="M5899 7521 c-19 -20 -29 -40 -30 -63 -1 -18 -1 -1036 0 -2263 1
-1227 1 -2245 1 -2263 0 -25 9 -43 34 -68 38 -38 69 -43 122 -18 70 33 64
-165 62 2359 l-3 2287 -33 29 c-46 41 -111 41 -153 0z"/>
<path d="M2881 7059 c-92 -18 -172 -87 -220 -189 -36 -76 -37 -202 -3 -272 33
-67 101 -139 164 -173 l53 -30 450 -5 c444 -5 451 -5 497 -28 25 -13 58 -39
73 -58 57 -75 55 -35 55 -902 0 -879 2 -853 -62 -921 -57 -61 -58 -61 -487
-61 -420 0 -431 1 -457 52 -13 25 -13 32 0 57 9 16 26 31 38 35 13 3 149 6
303 6 154 0 295 4 314 10 84 24 150 97 176 196 21 80 22 949 1 999 -29 68
-130 88 -188 36 l-33 -29 -3 -469 c-1 -325 -5 -475 -13 -490 -12 -22 -14 -22
-328 -25 -348 -3 -351 -4 -425 -68 -58 -51 -88 -121 -94 -213 -4 -72 -2 -82
28 -143 24 -48 46 -76 87 -109 98 -76 98 -76 619 -73 l459 3 56 28 c118 57
217 198 239 337 6 40 10 371 10 855 0 854 1 846 -54 953 -55 109 -146 186
-260 221 -57 17 -108 20 -492 27 -472 7 -469 7 -499 70 -19 41 -19 69 1 100
38 57 23 56 653 49 l576 -7 35 24 c46 31 61 83 37 133 -31 64 -15 62 -637 69
-311 4 -578 8 -595 10 -16 2 -50 0 -74 -5z"/>
<path d="M2852 6210 c-113 -57 -166 -144 -166 -275 0 -98 29 -171 95 -235 71
-68 88 -74 239 -80 l135 -5 5 -322 5 -321 24 -26 c48 -51 146 -42 182 18 18
29 19 54 19 400 0 363 0 369 -22 408 -36 63 -62 72 -235 78 -143 5 -153 6
-177 29 -34 32 -35 79 -3 109 23 22 27 22 390 22 397 0 417 2 450 53 34 52 13
133 -43 162 -24 13 -91 15 -433 15 l-404 0 -61 -30z"/>
<path d="M2692 5464 c-57 -28 -100 -73 -134 -137 -33 -62 -33 -193 1 -261 32
-64 82 -113 149 -144 47 -21 64 -24 136 -20 93 5 138 24 166 71 25 41 25 73 0
115 -26 43 -61 55 -133 47 -52 -6 -61 -5 -83 16 -29 27 -31 62 -4 89 16 16 33
20 93 20 80 0 107 12 132 60 20 39 19 69 -5 108 -29 47 -73 62 -178 62 -75 0
-96 -4 -140 -26z"/>
<path d="M2628 4043 c-34 -5 -75 -44 -84 -77 -11 -44 4 -93 37 -120 l31 -26
759 0 759 0 32 29 c29 26 33 35 33 81 0 45 -4 55 -31 79 l-31 28 -453 6 c-470
7 -1005 7 -1052 0z"/>
<path d="M2873 3679 c-69 -14 -140 -76 -171 -148 -24 -55 -21 -165 6 -225 36
-80 85 -131 160 -168 l66 -33 236 -6 c129 -4 394 -7 588 -8 394 -1 401 0 428
65 18 44 5 100 -32 135 l-26 24 -566 5 c-407 4 -573 8 -587 17 -33 19 -50 59
-39 91 l10 27 592 0 593 0 35 37 c39 43 44 83 17 128 -35 61 -21 59 -680 62
-331 2 -615 0 -630 -3z"/>
<path d="M5930 2683 c-44 -22 -76 -79 -66 -116 3 -15 19 -42 35 -60 78 -86
223 8 177 116 -26 63 -89 88 -146 60z"/>
<path d="M5932 2283 c-64 -31 -102 -118 -83 -190 44 -162 232 -179 302 -28 25
54 24 82 -7 143 -41 83 -131 115 -212 75z"/>
<path d="M7119 6257 c-100 -67 -145 -235 -104 -391 24 -91 75 -146 135 -146
34 0 97 37 124 73 53 70 70 125 71 227 0 87 -3 101 -32 160 -48 99 -120 127
-194 77z"/>
<path d="M7658 3021 c-64 -15 -129 -36 -143 -45 -51 -34 -55 -59 -55 -385 l0
-300 31 -36 c23 -26 39 -35 63 -35 38 0 242 52 274 69 48 26 52 57 52 390 0
307 0 310 -22 335 -33 37 -69 39 -200 7z m22 -391 l0 -180 -27 0 -28 0 3 174
c3 182 2 178 45 185 4 0 7 -80 7 -179z"/>
<path d="M7158 2884 c-86 -26 -117 -110 -62 -169 23 -25 30 -27 73 -22 65 8
98 25 121 62 27 44 25 77 -6 114 -29 35 -52 38 -126 15z"/>
<path d="M6825 2795 c-79 -28 -109 -102 -64 -159 16 -21 29 -26 62 -26 64 1
125 32 142 74 20 48 19 68 -6 100 -24 30 -69 34 -134 11z"/>
<path d="M7156 2585 c-64 -18 -78 -33 -83 -92 -4 -42 -2 -51 21 -72 21 -20 33
-23 73 -19 67 6 105 27 127 69 22 41 17 78 -16 109 -25 23 -52 24 -122 5z"/>
<path d="M6845 2505 c-27 -8 -53 -14 -58 -15 -15 0 -47 -66 -47 -98 0 -37 37
-82 68 -82 10 0 41 7 69 15 62 19 103 62 103 109 0 30 -30 76 -50 76 -4 0 -14
2 -22 4 -7 3 -35 -2 -63 -9z"/>
<path d="M7150 2288 c-46 -13 -68 -34 -79 -75 -13 -45 0 -78 38 -98 70 -35
201 31 201 103 0 16 -9 41 -21 56 -17 21 -28 26 -62 25 -23 0 -58 -5 -77 -11z"/>
<path d="M6839 2211 c-63 -20 -99 -61 -99 -114 0 -39 36 -77 73 -77 90 0 155
42 164 105 10 77 -48 113 -138 86z"/>
<path d="M1959 1477 c-66 -44 -77 -106 -28 -162 l31 -35 268 0 268 0 25 30
c36 42 42 81 21 126 -28 59 -51 64 -317 64 -227 0 -235 -1 -268 -23z"/>
<path d="M7873 1485 c-70 -30 -82 -129 -22 -179 l31 -26 255 0 255 0 34 34
c46 46 48 101 5 148 l-29 33 -249 2 c-198 2 -255 0 -280 -12z"/>
<path d="M5482 1345 c-67 -29 -79 -130 -21 -179 46 -39 101 -36 145 8 56 56
44 135 -26 171 -36 18 -55 18 -98 0z"/>
<path d="M5822 1155 c0 -16 2 -22 5 -12 2 9 2 23 0 30 -3 6 -5 -1 -5 -18z"/>
<path d="M6731 1133 c7 -10 15 -20 16 -22 2 -2 3 3 3 11 0 9 -7 19 -16 22 -15
6 -15 4 -3 -11z"/>
</g>
</svg>
