<?xml version="1.0" standalone="no"?>
<!DOCTYPE svg PUBLIC "-//W3C//DTD SVG 20010904//EN"
 "http://www.w3.org/TR/2001/REC-SVG-20010904/DTD/svg10.dtd">
<svg version="1.0" xmlns="http://www.w3.org/2000/svg"
 width="1024.000000pt" height="1024.000000pt" viewBox="0 0 1024.000000 1024.000000"
 preserveAspectRatio="xMidYMid meet">
<metadata>
Created by potrace 1.16, written by Peter Selinger 2001-2019
</metadata>
<g transform="translate(0.000000,1024.000000) scale(0.100000,-0.100000)"
fill="#000000" stroke="none">
<path d="M3050 6944 c-133 -20 -233 -64 -320 -140 -30 -27 -150 -139 -265
-249 -758 -721 -784 -747 -805 -789 -21 -44 -21 -47 -18 -1002 3 -952 3 -960
25 -1036 50 -175 125 -313 237 -434 147 -160 324 -261 516 -294 45 -8 269 -10
725 -8 645 4 662 4 729 26 243 77 427 232 539 457 50 102 58 134 157 635 112
574 121 613 157 663 51 73 147 104 228 73 53 -21 117 -89 133 -143 10 -32 92
-444 198 -988 37 -191 75 -274 192 -417 101 -124 260 -229 422 -280 l75 -23
675 0 c668 0 676 0 759 22 326 87 586 351 678 689 l28 99 3 958 c3 1106 14
994 -106 1108 -37 35 -224 215 -416 399 -623 597 -639 611 -766 651 -78 24
-219 29 -300 10 -139 -34 -306 -163 -397 -308 -59 -95 -105 -227 -110 -318 -4
-62 -2 -76 24 -124 68 -129 210 -159 319 -68 42 36 61 79 78 177 10 53 24 96
41 121 55 84 155 126 228 96 19 -8 140 -117 275 -245 193 -186 237 -232 222
-237 -11 -3 -31 -20 -45 -36 -22 -27 -25 -39 -25 -115 l0 -84 -2257 2 -2258 3
-1 45 c-2 117 -2 121 -43 161 l-39 39 76 73 c42 39 150 143 239 229 178 172
204 187 283 169 103 -23 189 -135 190 -246 0 -37 33 -112 63 -143 108 -117
306 -59 352 102 17 56 17 64 -1 145 -11 56 -35 121 -67 186 -43 85 -64 114
-141 191 -77 77 -106 98 -186 138 -111 54 -207 73 -300 60z m1142 -1606 c108
-64 162 -196 128 -318 -5 -19 -32 -154 -60 -300 -27 -146 -70 -371 -95 -500
-25 -129 -56 -297 -70 -373 -13 -76 -33 -157 -43 -180 -45 -97 -117 -173 -217
-226 l-50 -26 -645 -3 c-425 -2 -661 1 -694 8 -150 32 -286 158 -353 326 l-28
69 0 685 0 685 27 52 c15 28 43 64 63 78 72 55 44 54 1055 52 l935 -2 47 -27z
m3364 5 c56 -30 103 -79 126 -130 18 -40 19 -78 18 -700 0 -528 -3 -668 -14
-710 -42 -160 -168 -309 -308 -366 -52 -22 -63 -22 -668 -25 -434 -3 -635 0
-682 8 -81 14 -166 61 -226 127 -79 85 -96 132 -146 413 -20 107 -53 290 -75
405 -119 622 -133 701 -129 760 8 121 79 207 195 234 21 5 438 8 953 8 l915
-2 41 -22z"/>
<path d="M3035 5155 c-5 -2 -23 -6 -38 -9 -16 -4 -36 -20 -47 -39 -18 -28 -20
-51 -20 -199 l0 -168 -190 0 c-275 0 -273 2 -268 -238 3 -135 5 -154 24 -179
l21 -28 207 -3 206 -2 0 -166 c0 -255 4 -259 236 -259 139 1 156 3 181 21 43
32 52 73 52 247 l1 157 191 0 c111 0 198 4 210 10 10 6 26 25 35 43 15 27 16
54 11 186 -6 150 -7 155 -33 182 l-28 29 -193 0 -193 0 0 163 c0 246 -9 256
-230 256 -69 0 -129 -2 -135 -4z"/>
<path d="M6552 5151 l-134 -6 -24 -30 c-23 -29 -24 -36 -24 -202 l0 -173 -196
0 -196 0 -29 -29 -29 -29 0 -165 c0 -163 0 -166 26 -196 l26 -31 199 0 199 0
0 -170 c0 -253 2 -255 235 -255 223 0 229 6 230 225 1 80 2 157 3 173 l2 27
199 0 c197 0 200 0 228 24 l28 24 3 152 c4 174 1 193 -35 226 -26 24 -29 24
-223 24 l-197 0 -6 107 c-4 58 -7 136 -7 173 0 53 -4 73 -20 93 -20 25 -78 49
-110 45 -8 -1 -75 -4 -148 -7z"/>
</g>
</svg>
