<?xml version="1.0" standalone="no"?>
<!DOCTYPE svg PUBLIC "-//W3C//DTD SVG 20010904//EN"
 "http://www.w3.org/TR/2001/REC-SVG-20010904/DTD/svg10.dtd">
<svg version="1.0" xmlns="http://www.w3.org/2000/svg"
 width="1024.000000pt" height="1024.000000pt" viewBox="0 0 1024.000000 1024.000000"
 preserveAspectRatio="xMidYMid meet">
<metadata>
Created by potrace 1.16, written by Peter Selinger 2001-2019
</metadata>
<g transform="translate(0.000000,1024.000000) scale(0.100000,-0.100000)"
fill="#000000" stroke="none">
<path d="M1622 9004 c-80 -40 -122 -109 -122 -199 0 -26 38 -166 96 -351 262
-841 910 -2999 1034 -3444 l32 -115 -60 -95 c-32 -52 -126 -205 -208 -338 -99
-162 -158 -248 -175 -257 -19 -10 -80 -15 -229 -16 l-204 -2 -23 27 c-30 35
-29 54 4 102 24 35 167 262 295 467 27 43 47 81 44 85 -9 14 -308 3 -366 -14
-134 -38 -209 -114 -292 -295 -31 -68 -129 -279 -218 -469 -199 -426 -216
-465 -229 -537 -7 -35 -11 -239 -11 -527 0 -522 5 -570 60 -656 45 -70 121
-137 198 -173 l67 -32 3800 0 c3714 0 3801 0 3851 19 118 44 207 132 256 255
23 55 23 63 26 565 2 332 -1 527 -8 559 -9 44 -174 412 -428 957 -98 210 -145
269 -249 318 l-58 27 -457 5 c-251 3 -460 8 -464 13 -7 6 10 66 121 442 18 61
52 175 75 255 105 363 211 720 326 1095 18 61 101 335 183 610 83 275 169 561
192 635 23 74 54 176 69 225 15 50 67 216 114 370 71 226 86 287 82 319 -20
121 -129 208 -244 192 -55 -7 -123 -46 -152 -86 -11 -16 -49 -114 -84 -217
-66 -194 -288 -819 -491 -1378 -64 -176 -152 -421 -196 -545 -45 -124 -94
-259 -109 -300 -16 -41 -76 -205 -134 -365 -91 -251 -144 -395 -261 -705 -13
-36 -63 -168 -110 -295 -47 -126 -91 -236 -98 -243 -10 -10 -367 -12 -1740
-14 -1616 -1 -1728 0 -1746 16 -10 9 -26 36 -34 59 -192 514 -373 1002 -442
1192 -47 132 -107 294 -132 360 -25 66 -99 269 -164 450 -65 182 -141 393
-169 470 -29 77 -65 176 -80 220 -16 44 -74 208 -130 365 -56 157 -135 380
-177 495 -41 116 -88 251 -104 300 -34 101 -63 150 -112 183 -72 49 -140 54
-215 16z m7109 -5584 c56 -16 101 -51 129 -100 25 -45 25 -47 28 -336 2 -200
0 -306 -8 -335 -16 -59 -81 -122 -143 -137 -34 -9 -952 -12 -3625 -12 -3191 0
-3584 2 -3623 15 -52 19 -84 47 -112 100 -21 38 -22 56 -25 322 -2 172 1 297
7 320 22 80 78 142 149 163 41 12 7179 12 7223 0z"/>
<path d="M3003 3159 c-17 -5 -43 -23 -57 -40 -25 -29 -26 -36 -26 -150 0 -136
10 -168 62 -195 22 -11 47 -15 82 -11 41 4 55 10 83 41 l33 36 0 115 c0 84 -4
124 -15 145 -25 49 -101 77 -162 59z"/>
<path d="M4060 3160 c-63 -15 -76 -42 -84 -173 -8 -135 3 -174 56 -207 59 -38
153 -12 185 51 18 34 17 220 -1 264 -22 51 -90 80 -156 65z"/>
<path d="M4600 3160 c-56 -13 -77 -47 -85 -135 -8 -83 -1 -175 16 -207 27 -51
108 -71 174 -44 54 23 65 57 65 195 0 114 -1 121 -26 150 -21 25 -82 54 -104
50 -3 -1 -21 -5 -40 -9z"/>
<path d="M5157 3160 c-74 -13 -97 -62 -96 -205 0 -101 15 -143 58 -172 56 -38
135 -24 179 32 20 25 22 40 22 141 0 62 -4 124 -10 138 -17 47 -88 77 -153 66z"/>
<path d="M6915 3163 c-80 -17 -95 -49 -95 -203 0 -133 8 -158 61 -186 60 -30
145 -8 179 48 17 27 20 50 20 136 0 118 -14 163 -57 185 -34 18 -81 26 -108
20z"/>
<path d="M1922 3149 c-71 -21 -132 -111 -132 -194 0 -44 39 -114 83 -149 l39
-31 319 -3 c281 -2 322 -1 351 14 47 23 67 43 91 89 44 85 15 200 -65 252
l-41 28 -306 2 c-176 1 -320 -2 -339 -8z"/>
<path d="M3498 3144 c-15 -8 -32 -23 -38 -34 -5 -10 -10 -78 -10 -150 0 -131
0 -132 28 -160 37 -36 93 -48 146 -29 61 22 80 56 85 150 5 120 -5 167 -44
206 -29 29 -39 33 -86 33 -30 -1 -66 -7 -81 -16z"/>
<path d="M5701 3147 c-43 -25 -50 -53 -51 -189 0 -126 0 -128 28 -159 53 -59
172 -46 208 23 12 24 15 57 12 154 -3 119 -4 125 -30 151 -22 22 -38 27 -85
30 -37 2 -67 -2 -82 -10z"/>
<path d="M6269 3132 c-32 -28 -32 -31 -37 -134 -6 -129 1 -168 34 -201 53 -53
159 -41 201 22 20 30 23 46 23 130 0 53 -5 113 -11 134 -14 51 -57 77 -126 77
-44 0 -58 -5 -84 -28z"/>
<path d="M7549 3137 c-24 -12 -57 -39 -73 -60 -29 -36 -31 -45 -31 -116 0 -70
3 -81 28 -114 16 -21 46 -46 67 -57 37 -19 60 -20 405 -20 345 0 368 1 405 20
70 36 117 124 104 197 -9 56 -49 118 -91 145 -38 23 -39 23 -405 25 -359 1
-368 1 -409 -20z"/>
<path d="M4900 8994 c-369 -44 -690 -137 -1009 -291 -196 -95 -447 -260 -546
-358 -74 -75 -95 -177 -54 -262 25 -51 318 -339 366 -359 43 -18 125 -18 170
1 21 9 71 42 113 74 294 227 610 360 963 406 477 61 950 -73 1377 -391 54 -40
112 -80 129 -88 40 -21 133 -21 179 1 47 22 326 294 357 348 76 131 21 239
-206 402 -216 154 -470 282 -749 378 -290 99 -506 135 -830 140 -124 2 -241 1
-260 -1z"/>
<path d="M4955 7904 c-182 -29 -364 -83 -500 -149 -105 -50 -272 -164 -326
-222 -76 -81 -106 -196 -79 -295 25 -90 128 -175 225 -186 88 -9 128 5 255 88
207 137 289 169 493 190 233 24 459 -36 668 -177 136 -91 178 -107 265 -100
79 6 143 42 187 104 44 61 55 97 56 173 1 125 -60 207 -240 319 -195 121 -369
196 -550 236 -73 16 -388 29 -454 19z"/>
<path d="M5045 7019 c-126 -19 -223 -67 -315 -160 -107 -106 -154 -228 -153
-394 0 -76 6 -116 23 -165 80 -235 278 -383 512 -382 268 1 479 165 544 422
21 83 14 230 -14 312 -87 247 -342 404 -597 367z"/>
<path d="M1730 1901 c0 -79 20 -138 62 -186 74 -84 40 -80 596 -83 567 -3 572
-3 646 72 50 49 69 97 70 176 l1 55 -687 3 -688 2 0 -39z"/>
<path d="M7138 1916 c-3 -13 -1 -50 3 -82 10 -72 47 -128 114 -169 l48 -30
516 0 c510 0 516 0 556 22 83 44 126 114 133 215 l5 68 -685 0 -686 0 -4 -24z"/>
</g>
</svg>
