<?xml version="1.0" standalone="no"?>
<!DOCTYPE svg PUBLIC "-//W3C//DTD SVG 20010904//EN"
 "http://www.w3.org/TR/2001/REC-SVG-20010904/DTD/svg10.dtd">
<svg version="1.0" xmlns="http://www.w3.org/2000/svg"
 width="1024.000000pt" height="1024.000000pt" viewBox="0 0 1024.000000 1024.000000"
 preserveAspectRatio="xMidYMid meet">
<metadata>
Created by potrace 1.16, written by Peter Selinger 2001-2019
</metadata>
<g transform="translate(0.000000,1024.000000) scale(0.100000,-0.100000)"
fill="#000000" stroke="none">
<path d="M1401 9253 c-64 -23 -134 -95 -160 -166 -21 -58 -21 -60 -21 -1175 0
-730 4 -1130 10 -1154 17 -61 71 -128 129 -161 l52 -30 1107 1 c609 0 1115 -2
1125 -4 15 -5 17 -22 17 -165 l0 -159 -106 0 c-141 0 -144 -2 -144 -95 l0 -75
-262 0 -263 0 -95 137 c-52 76 -110 152 -128 170 l-33 33 -523 0 -524 0 -29
-33 c-16 -18 -71 -92 -121 -165 -51 -72 -98 -134 -104 -138 -5 -4 -51 -6 -102
-5 -126 2 -180 -10 -220 -48 -34 -33 -99 -147 -153 -269 -33 -72 -33 -74 -33
-228 0 -174 9 -207 64 -247 30 -21 41 -22 311 -27 215 -4 280 -8 279 -17 -1
-7 -2 -141 -2 -297 l-2 -284 -57 -7 c-164 -20 -283 -122 -333 -283 -19 -62
-20 -97 -20 -1291 0 -1351 -3 -1281 61 -1383 28 -43 92 -108 151 -153 27 -20
27 -21 30 -170 l3 -150 -150 3 c-82 2 -183 0 -224 -3 -64 -6 -79 -11 -103 -35
-23 -23 -28 -37 -28 -77 0 -55 17 -86 60 -108 26 -13 536 -15 4352 -15 2934 0
4335 3 4360 10 49 14 78 55 78 112 0 96 -45 118 -240 118 -136 0 -140 1 -130
19 13 26 13 345 -1 394 -7 27 -20 44 -45 59 -23 13 -33 26 -30 35 3 8 6 272 6
587 l0 573 65 32 c168 83 257 232 295 496 23 160 8 341 -51 631 -28 136 -32
179 -32 299 0 170 15 231 101 425 84 190 113 287 119 395 6 96 -8 174 -46 257
-15 33 -21 71 -24 163 l-4 120 -106 280 c-58 154 -139 375 -180 490 -109 306
-156 422 -183 454 -53 63 -26 61 -756 61 l-663 0 -25 51 c-38 78 -75 115 -242
244 -228 178 -431 340 -450 361 -11 13 -37 125 -77 329 -118 595 -126 623
-217 724 -59 65 -116 105 -201 139 l-68 27 -551 3 c-609 3 -641 1 -761 -58
-89 -44 -173 -132 -223 -233 -37 -75 -46 -109 -105 -422 -36 -187 -71 -372
-79 -412 -11 -60 -19 -76 -47 -101 -39 -34 -204 -168 -442 -360 -239 -191
-266 -234 -302 -464 l-6 -38 -1230 0 -1231 0 -29 29 -29 29 0 1075 c0 1053 0
1075 20 1099 10 14 32 30 47 37 21 8 709 11 2700 9 l2672 -3 30 -29 31 -30 0
-157 c0 -155 0 -158 31 -219 22 -45 42 -118 69 -249 54 -260 91 -411 101 -411
17 0 20 81 17 585 -3 514 -3 520 -25 561 -33 61 -70 101 -122 132 l-46 27
-2755 2 c-2469 1 -2760 0 -2799 -14z m5067 -631 c60 -32 120 -95 147 -156 13
-28 36 -114 50 -191 59 -313 148 -741 156 -752 6 -6 89 -73 187 -149 316 -247
477 -380 505 -422 53 -76 57 -106 57 -456 0 -177 -4 -337 -10 -356 -6 -22 -49
-80 -116 -155 -250 -281 -246 -276 -240 -299 3 -11 11 -106 16 -211 11 -185
46 -430 130 -911 16 -93 33 -199 37 -233 6 -61 5 -63 -15 -57 -12 4 -50 10
-84 14 l-63 7 -3 35 c-6 67 -103 686 -128 815 -17 86 -28 192 -34 310 -5 99
-12 208 -15 242 l-6 61 163 184 c90 101 175 198 191 216 l27 34 0 313 c0 223
-3 322 -12 340 -11 24 -285 261 -293 253 -2 -2 -33 -154 -70 -338 -36 -184
-93 -470 -126 -634 -98 -492 -90 -396 -96 -1188 l-6 -708 -133 0 -134 0 -2
1030 -3 1030 -28 27 -27 28 -583 3 c-320 2 -602 0 -626 -3 -26 -4 -53 -16 -67
-30 l-24 -24 0 -1031 0 -1030 -140 0 -140 0 0 708 c0 783 5 704 -75 1112 -24
124 -74 378 -110 565 -80 411 -94 475 -105 475 -12 0 -198 -146 -252 -198
l-48 -46 0 -327 0 -326 191 -214 191 -214 -7 -85 c-3 -47 -10 -157 -15 -245
-4 -88 -11 -167 -14 -175 -10 -26 -136 -868 -136 -907 0 -21 -4 -43 -8 -49 -4
-6 -34 -14 -67 -18 -32 -4 -70 -9 -83 -13 -25 -6 -25 -6 -18 53 4 32 20 136
36 229 84 496 112 699 125 905 8 119 17 223 20 231 8 20 -35 74 -204 257 -72
79 -138 157 -147 173 -13 26 -15 82 -12 392 l3 362 30 54 c26 47 61 79 245
226 118 94 272 215 342 269 70 54 129 105 132 115 3 9 30 144 61 301 129 657
123 635 191 709 41 46 92 76 151 90 21 5 277 9 568 8 l530 -2 43 -23z m2027
-1967 c21 -20 25 -34 25 -85 0 -33 2 -60 4 -60 2 0 21 7 41 16 52 21 97 11
130 -28 25 -30 27 -37 23 -112 -4 -98 -27 -148 -87 -191 -41 -29 -48 -30 -165
-33 -70 -2 -139 1 -163 7 -88 24 -143 101 -151 212 -5 77 12 120 58 144 37 19
67 19 104 0 15 -8 30 -15 32 -15 2 0 4 29 4 65 0 52 4 69 20 85 29 29 94 27
125 -5z m-5917 -522 l50 -68 -521 -3 c-286 -1 -522 0 -525 3 -2 2 19 34 48 70
l53 65 422 0 422 0 51 -67z m1602 -348 l71 -70 -58 -6 c-75 -9 -3069 -9 -3106
0 l-28 6 32 50 c17 28 40 59 50 70 19 21 20 21 1494 20 l1474 0 71 -70z m5150
60 c16 -10 60 -101 60 -125 l0 -21 -945 2 c-713 1 -945 4 -945 13 0 6 28 39
63 74 l62 61 155 4 c254 6 1538 -1 1550 -8z m-5043 -617 c-3 -13 -11 -60 -18
-105 l-12 -83 -337 0 c-217 0 -348 -4 -368 -11 -39 -13 -72 -65 -72 -111 0
-50 37 -101 82 -112 l37 -9 3 -144 3 -145 33 -29 c20 -18 43 -29 62 -29 l30 0
0 -331 0 -331 30 -30 c26 -26 36 -29 81 -27 l50 3 3 -100 c2 -54 9 -121 16
-149 16 -65 80 -198 124 -257 76 -102 219 -195 361 -234 53 -15 122 -17 603
-15 l542 3 0 -124 c0 -198 -1 -198 330 -198 328 0 322 -3 330 189 l5 126 530
1 c593 2 606 3 745 72 57 28 96 57 160 122 141 141 198 265 207 451 l6 107 55
4 c45 4 60 10 79 32 l23 27 0 330 0 329 30 0 c43 0 89 26 94 53 3 12 7 83 10
157 4 131 5 135 27 138 78 12 120 99 84 176 -31 65 -35 66 -418 66 l-344 0
-17 83 c-9 45 -16 92 -16 105 l0 22 610 0 610 0 0 -1772 0 -1773 -38 -2 c-27
-2 -45 -11 -65 -34 l-28 -31 3 -209 3 -209 -30 0 c-208 -4 -565 -5 -565 -2 0
2 8 16 18 30 34 49 47 96 47 167 -1 90 -29 155 -96 221 l-49 48 0 114 c0 146
-4 151 -145 175 -55 10 -210 38 -345 62 -135 25 -330 61 -435 80 -104 19 -300
55 -435 79 -135 25 -278 51 -317 58 l-73 12 0 102 c0 156 12 149 -253 149
-270 0 -257 7 -257 -141 0 -99 -1 -104 -22 -109 -13 -3 -111 -20 -218 -39
-107 -19 -339 -61 -515 -95 -279 -52 -428 -80 -872 -160 -131 -24 -133 -27
-133 -170 l0 -117 -44 -37 c-103 -86 -138 -240 -82 -362 14 -31 26 -60 26 -64
0 -3 -165 -5 -368 -5 -471 2 -449 1 -434 16 8 8 12 55 12 145 l0 132 69 45
c80 52 140 122 173 203 l23 58 3 1247 c2 1242 2 1248 -18 1309 -39 115 -125
209 -229 251 -56 23 -57 23 -678 26 l-623 3 0 299 0 300 1301 0 1301 0 -5 -22z
m4753 -1748 l0 -1770 -70 0 -70 0 0 1770 0 1770 70 0 70 0 0 -1770z m457 1697
c-6 -83 -20 -125 -111 -338 -81 -192 -105 -280 -113 -430 -7 -133 4 -241 49
-469 55 -282 49 -570 -14 -697 -19 -38 -80 -103 -98 -103 -4 0 -5 2095 -1
2108 1 1 67 2 147 2 l147 0 -6 -73z m-5292 -409 c-4 -24 -8 -58 -11 -75 l-5
-33 -184 0 -185 0 0 75 0 75 195 0 195 0 -5 -42z m3715 -33 l0 -75 -185 0
c-185 0 -185 0 -186 23 0 12 -4 46 -8 75 l-7 52 193 0 193 0 0 -75z m-3840
-449 c0 -140 -2 -166 -17 -177 -20 -18 -85 -104 -106 -144 -15 -28 -16 -16
-17 228 l0 257 70 0 70 0 0 -164z m3720 -93 c-1 -244 -2 -256 -17 -228 -21 40
-86 126 -106 144 -15 11 -17 37 -17 177 l0 164 70 0 70 0 0 -257z m-4897 224
c45 -19 105 -89 113 -132 3 -19 7 -572 8 -1228 l1 -1194 -30 -48 c-22 -36 -45
-57 -84 -77 l-53 -28 -697 0 c-478 0 -709 4 -736 11 -53 15 -129 91 -144 144
-8 28 -11 389 -11 1223 0 1142 1 1184 19 1220 26 50 64 90 103 107 48 21 1462
22 1511 2z m1544 -376 c-88 -78 -144 -199 -154 -336 -7 -97 9 -162 69 -280 23
-44 44 -93 49 -110 8 -30 8 -30 -8 -7 -17 25 -38 30 -29 7 7 -18 -10 -20 -21
-2 -4 6 -17 19 -27 27 -18 14 -19 14 -7 -8 33 -61 131 -125 115 -74 -4 11 1 8
15 -8 27 -32 26 -43 -1 -35 -192 57 -338 248 -338 443 0 212 119 368 310 408
30 6 57 10 59 8 2 -1 -13 -17 -32 -33z m2959 -5 c205 -94 284 -362 173 -586
-31 -61 -115 -162 -151 -181 -29 -16 -151 -59 -155 -55 -2 2 12 29 32 61 19
33 35 63 35 68 0 5 15 34 34 66 126 216 106 426 -58 605 l-55 59 46 -7 c26 -3
70 -17 99 -30z m-375 -47 c150 -71 227 -228 185 -382 -17 -61 -175 -368 -193
-374 -5 -2 -1 58 9 134 10 75 16 138 14 140 -2 2 -531 3 -1177 3 l-1174 0 4
-62 c2 -35 9 -97 16 -138 7 -41 12 -76 10 -78 -4 -4 -99 165 -162 288 -45 89
-48 99 -47 170 0 92 23 149 89 219 54 58 114 90 188 101 29 4 531 7 1117 6
l1065 -1 56 -26z m-1060 -1013 c2 -2 2 -27 1 -56 l-4 -51 -96 3 -97 3 -3 39
c-5 64 -3 66 101 66 52 0 96 -2 98 -4z m-51 -973 l0 -283 -55 0 -55 0 0 279
c0 312 -6 286 73 286 l37 0 0 -282z m-300 -205 c0 -177 -1 -182 -27 -237 -25
-49 -28 -68 -28 -151 0 -85 3 -100 27 -142 l27 -48 -42 0 c-340 -3 -1317 -4
-1317 -2 0 1 12 26 27 55 38 71 39 186 4 265 -27 61 -103 134 -153 148 -42 12
-52 50 -16 59 13 3 167 28 343 55 600 95 900 142 1010 160 61 10 118 18 128
19 16 1 17 -14 17 -181z m1245 64 c358 -55 676 -104 708 -107 55 -7 58 -9 55
-33 -2 -20 -11 -29 -38 -36 -20 -6 -57 -32 -87 -62 -43 -42 -55 -64 -74 -124
-26 -86 -22 -145 16 -227 14 -30 25 -56 25 -57 0 0 -304 -1 -675 -1 -371 0
-674 2 -672 5 40 66 52 110 52 190 0 72 -4 93 -27 141 -27 55 -28 60 -28 239
l0 183 48 -6 c26 -2 340 -50 697 -105z m-4525 -476 c0 -63 4 -126 10 -140 l10
-26 -154 0 c-84 0 -181 -3 -216 -7 -60 -6 -63 -5 -55 13 5 10 11 76 13 147 l4
127 194 0 194 0 0 -114z m415 44 l0 -65 -102 -3 -103 -3 0 65 c0 35 5 66 10
68 6 2 52 3 103 3 l92 0 0 -65z m1300 64 c20 -8 45 -56 45 -87 0 -38 -43 -77
-85 -77 -74 0 -111 84 -64 144 21 26 65 35 104 20z m1879 -25 c34 -40 33 -74
-3 -110 -58 -58 -150 -22 -151 59 0 79 102 113 154 51z m1850 0 c34 -40 33
-74 -3 -110 -46 -46 -106 -37 -136 21 -19 37 -11 74 22 100 39 31 86 26 117
-11z m-6044 -44 l0 -66 -112 3 -113 3 -3 49 c-5 77 -7 76 118 76 l110 0 0 -65z
m7340 0 l0 -65 -165 0 -165 0 0 58 c0 32 3 62 7 65 3 4 78 7 165 7 l158 0 0
-65z"/>
<path d="M5308 8455 c-57 -32 -56 -130 3 -160 36 -19 54 -19 89 2 52 31 65 94
28 138 -28 32 -83 41 -120 20z"/>
<path d="M5635 8448 c-15 -14 -28 -38 -31 -59 -5 -31 -1 -42 24 -70 24 -27 36
-33 67 -32 94 3 126 126 44 168 -40 21 -74 18 -104 -7z"/>
<path d="M5975 8446 c-53 -53 -38 -134 29 -156 47 -15 85 3 109 51 14 29 15
42 6 68 -21 59 -101 80 -144 37z"/>
<path d="M6325 8458 c-32 -18 -44 -40 -45 -79 0 -72 67 -116 129 -85 17 9 35
25 41 35 42 80 -48 173 -125 129z"/>
<path d="M5223 7860 c-43 -10 -79 -34 -100 -67 -16 -24 -18 -59 -21 -282 l-3
-256 -83 -125 c-128 -194 -135 -213 -95 -280 54 -89 214 -291 247 -312 l37
-23 665 0 665 0 43 25 c29 16 65 53 106 110 156 212 171 239 162 283 -3 17
-44 87 -90 156 -45 69 -87 133 -92 141 -5 8 -11 130 -14 271 -5 251 -5 256
-30 291 -52 77 -9 73 -725 75 -352 1 -655 -2 -672 -7z m1215 -418 c1 -112 -2
-219 -7 -237 -11 -40 -4 -52 94 -175 37 -47 69 -91 72 -97 3 -7 -9 -35 -26
-62 l-31 -48 -77 -7 c-42 -3 -103 -7 -137 -7 -60 -2 -60 -2 24 -11 117 -12
141 -16 145 -20 2 -2 -5 -14 -15 -28 l-19 -25 -577 -2 c-595 -3 -593 -3 -614
36 -7 14 4 16 89 19 53 2 134 5 181 7 88 5 200 -12 200 -29 0 -6 5 -5 12 2 8
8 17 8 31 1 12 -7 17 -7 13 -1 -4 6 37 11 112 12 64 1 124 2 132 2 8 1 20 4
25 9 6 4 41 9 77 10 37 1 72 5 78 9 22 14 -180 20 -590 19 l-415 -1 -26 31
c-60 72 -61 66 45 197 63 79 94 124 89 134 -7 18 -14 450 -7 462 3 4 256 7
562 6 l557 -3 3 -203z"/>
<path d="M6157 7381 c-67 -5 -82 -10 -98 -30 -26 -32 -24 -74 7 -110 25 -31
27 -31 119 -31 92 0 94 0 119 31 32 38 33 80 4 112 -28 31 -51 35 -151 28z"/>
<path d="M5440 7360 c-29 -29 -27 -94 5 -125 22 -23 32 -25 113 -25 83 0 91 2
116 26 34 35 36 91 3 122 -21 19 -34 22 -120 22 -84 0 -100 -3 -117 -20z"/>
<path d="M5499 7043 c-54 -3 -70 -8 -89 -28 -29 -31 -30 -77 -3 -113 20 -26
23 -27 136 -30 114 -3 115 -2 136 24 30 38 28 94 -3 123 -27 26 -66 31 -177
24z"/>
<path d="M6163 7043 c-75 -3 -84 -6 -103 -30 -27 -35 -25 -75 6 -112 l26 -31
112 0 c105 0 114 2 134 23 30 31 29 88 0 121 -26 28 -58 33 -175 29z"/>
<path d="M1452 4240 c-19 -18 -22 -31 -22 -105 l0 -85 720 0 720 0 0 79 c0 64
-4 83 -21 105 l-20 26 -678 0 c-668 0 -678 0 -699 -20z"/>
<path d="M1442 3888 c-8 -8 -12 -59 -12 -165 l0 -153 720 0 720 0 0 159 c0
136 -2 160 -16 165 -9 3 -327 6 -708 6 -525 0 -695 -3 -704 -12z"/>
<path d="M1437 3403 c-4 -3 -7 -336 -7 -739 l0 -733 24 -28 24 -28 667 -3 666
-2 30 29 29 29 0 741 0 741 -713 0 c-393 0 -717 -3 -720 -7z m1192 -224 c17
-6 36 -19 41 -29 15 -28 12 -71 -7 -92 -15 -17 -44 -18 -510 -18 -480 0 -494
1 -513 20 -27 27 -26 71 3 98 23 22 28 22 458 25 238 1 448 3 465 5 17 1 45
-3 63 -9z m28 -291 c49 -46 13 -115 -62 -120 -22 -1 -241 -1 -487 0 -446 2
-447 2 -468 24 -24 26 -26 60 -4 93 l16 25 491 0 c490 0 491 0 514 -22z m-454
-339 c47 -13 112 -70 138 -120 12 -24 19 -58 19 -91 -1 -185 -209 -281 -349
-161 -76 64 -101 156 -66 239 46 111 149 164 258 133z"/>
<path d="M2085 2395 c-40 -39 -28 -103 24 -130 42 -21 59 -19 92 14 38 38 39
83 3 116 -36 33 -87 33 -119 0z"/>
<path d="M7414 3336 c-10 -8 -29 -12 -40 -10 -15 4 -27 -1 -38 -17 -22 -32
-20 -36 12 -34 35 1 46 8 72 45 24 34 23 37 -6 16z"/>
<path d="M4836 3809 c-36 -28 -37 -89 -1 -124 53 -54 149 -15 149 60 0 73 -88
111 -148 64z"/>
<path d="M5165 3805 c-35 -34 -34 -83 3 -118 39 -37 84 -36 123 2 36 36 37 70
3 110 -34 41 -92 44 -129 6z"/>
<path d="M5501 3813 c-12 -10 -24 -34 -27 -54 -5 -28 -1 -41 21 -67 44 -52
114 -41 141 23 15 38 11 59 -19 93 -25 27 -85 30 -116 5z"/>
<path d="M6119 3817 c-46 -35 -50 -88 -10 -128 41 -41 90 -40 125 2 14 17 26
39 26 50 0 28 -26 75 -45 83 -27 10 -79 6 -96 -7z"/>
<path d="M6441 3813 c-12 -10 -24 -34 -27 -54 -5 -28 -1 -41 21 -67 36 -43 84
-44 126 -3 36 36 37 70 3 110 -20 25 -34 31 -64 31 -21 0 -47 -8 -59 -17z"/>
<path d="M6772 3807 c-33 -35 -30 -99 4 -126 60 -47 144 -10 144 64 0 76 -97
116 -148 62z"/>
<path d="M8162 9100 c-245 -65 -427 -234 -507 -475 -21 -61 -29 -112 -36 -219
-9 -131 -11 -141 -38 -175 -120 -153 -141 -365 -55 -547 37 -77 132 -177 202
-211 52 -24 70 -27 192 -31 154 -4 188 7 222 69 18 32 19 60 16 446 l-3 413
-33 32 -32 33 -126 3 -126 4 6 45 c10 78 71 188 141 259 295 294 806 140 871
-264 l6 -40 -132 -3 -132 -4 -29 -33 -29 -32 0 -421 c0 -452 1 -462 53 -491
12 -7 70 -15 130 -18 l108 -5 -23 -34 c-44 -66 -75 -76 -244 -79 -138 -3 -153
-2 -185 17 -93 57 -215 -4 -226 -112 -10 -99 115 -183 200 -135 14 9 89 15
217 19 174 5 201 8 254 29 130 52 224 182 234 322 4 63 9 78 37 113 168 209
177 466 22 660 -32 39 -32 42 -39 180 -5 113 -11 154 -32 214 -85 245 -261
412 -494 472 -102 26 -288 26 -390 -1z m-232 -1165 l0 -285 -27 6 c-52 13
-113 46 -137 75 -37 44 -70 137 -69 195 1 58 24 115 89 220 l46 74 49 0 49 0
0 -285z m996 192 c28 -50 56 -107 63 -126 25 -77 2 -193 -53 -266 -25 -32 -85
-67 -137 -79 -26 -6 -26 -5 -32 67 -4 39 -7 168 -7 285 l-1 212 58 0 58 0 51
-93z"/>
<path d="M1659 8892 c-15 -2 -37 -14 -50 -28 -23 -25 -24 -31 -24 -181 l0
-155 29 -25 c37 -32 80 -26 119 17 22 25 27 39 27 85 0 71 19 91 92 99 29 3
318 5 641 3 l589 -2 25 -29 c28 -33 25 -70 -9 -98 -19 -17 -62 -18 -593 -18
-541 0 -573 -1 -588 -18 -14 -15 -17 -41 -17 -140 0 -109 -2 -124 -20 -142
-11 -11 -33 -20 -50 -20 -30 0 -38 7 -86 68 -22 27 -32 32 -70 32 -50 0 -84
-25 -84 -62 0 -13 -1 -306 -2 -651 l-3 -629 28 -24 28 -24 1086 2 1085 3 23
62 c49 136 112 203 475 503 135 112 251 208 257 214 7 7 42 153 77 326 96 468
103 499 140 575 40 85 101 163 161 207 24 18 44 38 45 43 0 9 -3255 16 -3331
7z m218 -874 c22 -21 23 -28 23 -168 0 -133 -2 -148 -20 -168 -28 -30 -74 -29
-106 3 l-26 26 6 147 c5 135 7 148 27 165 29 23 68 22 96 -5z"/>
</g>
</svg>
