<?xml version="1.0" standalone="no"?>
<!DOCTYPE svg PUBLIC "-//W3C//DTD SVG 20010904//EN"
 "http://www.w3.org/TR/2001/REC-SVG-20010904/DTD/svg10.dtd">
<svg version="1.0" xmlns="http://www.w3.org/2000/svg"
 width="1024.000000pt" height="1024.000000pt" viewBox="0 0 1024.000000 1024.000000"
 preserveAspectRatio="xMidYMid meet">
<metadata>
Created by potrace 1.16, written by Peter Selinger 2001-2019
</metadata>
<g transform="translate(0.000000,1024.000000) scale(0.100000,-0.100000)"
fill="#000000" stroke="none">
<path d="M1820 7906 c-189 -42 -347 -130 -478 -265 -56 -57 -128 -154 -156
-208 l-17 -33 -250 0 c-210 0 -257 -3 -285 -16 -101 -48 -98 -204 6 -256 30
-15 64 -18 233 -18 l197 0 0 -2596 c0 -2911 -7 -2641 75 -2689 68 -40 94 -34
253 56 l42 24 43 -24 c157 -90 177 -94 247 -58 81 41 85 51 88 272 l3 193 103
4 c91 3 107 6 143 30 68 45 73 66 73 311 l0 216 315 -2 315 -2 0 -225 c0 -207
2 -228 20 -258 55 -90 190 -96 251 -10 19 26 21 43 20 139 l-1 110 22 -15 c18
-13 51 -16 155 -16 125 0 133 1 160 24 28 24 28 25 25 130 -2 96 0 106 18 116
20 11 20 8 20 -200 0 -230 4 -253 56 -302 16 -15 42 -32 57 -37 19 -8 334 -11
990 -11 923 0 964 1 1004 19 26 12 52 35 70 62 27 41 28 48 33 202 3 111 9
162 17 164 9 3 12 -39 15 -160 3 -160 4 -164 31 -206 50 -75 74 -81 353 -81
233 0 242 1 285 23 27 15 52 38 66 63 22 37 23 50 23 256 l0 217 924 1 c877 0
928 1 1000 20 363 93 621 370 691 742 14 74 15 283 13 1818 l-3 1735 -23 74
c-68 219 -200 406 -367 521 -60 41 -213 113 -290 137 -57 17 -204 18 -3295 19
-2522 2 -3247 -1 -3290 -10z m6520 -294 c152 -40 311 -171 388 -319 76 -148
72 -30 72 -1910 0 -1873 4 -1751 -72 -1903 -54 -108 -172 -232 -265 -279 -131
-65 129 -61 -3379 -61 l-3192 0 -80 23 c-103 30 -179 76 -261 158 -77 77 -122
148 -158 251 l-26 73 -8 500 c-4 275 -6 1048 -4 1717 5 1311 3 1262 56 1384
77 173 256 327 431 370 42 10 687 12 3243 13 2975 0 3194 -1 3255 -17z m-6850
-4619 c97 -66 236 -125 325 -138 l45 -7 0 -138 0 -138 -117 -4 c-190 -6 -203
-22 -203 -252 l0 -154 -41 20 c-41 19 -73 20 -126 3 l-23 -7 0 467 0 468 48
-45 c26 -24 67 -58 92 -75z m4690 -285 l0 -138 -100 0 -100 0 0 133 c0 74 2
136 4 138 2 2 47 4 100 4 l96 0 0 -137z m-790 -58 l0 -80 -825 0 -825 0 0 80
0 80 825 0 825 0 0 -80z"/>
<path d="M4705 7444 c-247 -33 -441 -91 -654 -194 -844 -411 -1325 -1278
-1186 -2140 56 -343 223 -702 463 -990 209 -251 442 -435 737 -580 217 -106
433 -174 657 -206 140 -20 180 -14 225 31 l33 33 0 221 0 221 -59 118 c-59
119 -99 226 -126 342 -18 79 -32 260 -19 259 5 0 40 -8 79 -18 l69 -18 12 -69
c26 -153 114 -369 213 -518 l46 -71 5 -230 c5 -219 7 -232 28 -262 30 -43 77
-56 165 -48 84 8 261 45 379 81 577 171 1092 601 1355 1129 204 409 266 838
184 1264 -57 289 -209 602 -412 846 -303 364 -693 615 -1153 744 -124 35 -292
62 -388 63 -74 1 -131 -25 -145 -65 -4 -12 -6 -127 -4 -256 l3 -235 43 -110
c58 -147 115 -381 115 -468 0 -29 -2 -30 -32 -24 -90 18 -108 26 -114 54 -46
214 -108 384 -194 533 l-50 87 0 204 c0 195 -1 207 -22 233 -26 33 -76 55
-120 54 -18 -1 -78 -7 -133 -15z m1111 -384 c141 -49 405 -197 512 -288 l33
-28 -11 -121 c-25 -280 -126 -500 -316 -689 -120 -120 -110 -120 -182 -11 -34
51 -77 109 -96 130 l-35 37 28 88 c49 149 64 270 58 460 -5 164 -16 228 -73
420 -8 28 4 28 82 2z m-1505 -71 c124 -73 277 -217 372 -351 52 -74 161 -282
169 -322 2 -16 -7 -22 -47 -32 -27 -8 -55 -14 -61 -14 -6 0 -37 39 -70 88 -70
103 -183 224 -273 293 -85 64 -242 140 -351 169 -47 13 -87 25 -89 27 -3 2 6
11 19 21 43 31 255 152 267 152 7 0 36 -14 64 -31z m-404 -434 c201 -51 379
-167 525 -346 l78 -95 -44 -46 -43 -46 -69 60 c-139 122 -278 197 -442 238
-94 24 -288 35 -397 22 -44 -5 -82 -8 -84 -6 -5 4 91 117 168 197 l56 59 77
-6 c42 -4 121 -17 175 -31z m2899 -290 c103 -158 179 -348 208 -524 23 -136
23 -135 -41 -203 -131 -137 -335 -236 -554 -268 -86 -13 -350 -9 -396 5 -22 7
-23 13 -23 101 l0 93 38 18 c86 40 205 114 275 172 172 140 332 382 398 602
23 78 27 89 35 89 2 0 29 -38 60 -85z m-1562 -255 c108 -27 190 -74 267 -150
106 -105 159 -217 180 -378 38 -296 -162 -583 -455 -653 -204 -48 -417 5 -555
140 -256 249 -248 668 16 911 147 135 345 182 547 130z m-1218 -204 c69 -15
165 -47 193 -65 13 -8 11 -24 -9 -108 -13 -54 -30 -103 -38 -110 -7 -6 -37
-19 -65 -28 -338 -109 -664 -418 -768 -729 l-26 -80 -23 50 c-38 84 -98 275
-120 379 -22 105 -38 370 -26 420 10 41 102 132 179 177 80 47 180 82 292 103
98 18 308 14 411 -9z m225 -748 c17 -35 56 -100 85 -146 l54 -82 -44 -98 c-53
-119 -72 -176 -90 -272 -37 -189 -29 -394 20 -591 14 -55 24 -103 21 -105 -8
-9 -187 86 -287 154 -117 78 -254 194 -318 268 -40 46 -42 52 -36 94 33 248
161 488 365 687 63 61 177 152 191 153 4 0 22 -28 39 -62z m1759 -112 c307
-127 574 -138 889 -36 35 11 66 18 68 16 6 -6 -41 -134 -78 -211 l-34 -70 -80
-13 c-143 -23 -331 -3 -492 52 -126 43 -395 190 -419 227 -10 17 29 81 46 75
8 -2 53 -20 100 -40z m-321 -379 c118 -112 270 -216 392 -268 103 -45 269 -94
353 -104 31 -4 56 -11 56 -15 0 -15 -167 -165 -246 -221 -105 -75 -241 -152
-325 -185 l-69 -26 -82 58 c-167 116 -336 315 -421 496 -39 84 -80 203 -75
219 2 5 37 22 78 35 41 14 111 43 155 64 44 21 81 39 83 39 1 1 47 -41 101
-92z"/>
<path d="M2875 7431 c-86 -11 -168 -55 -245 -131 -106 -105 -130 -175 -130
-387 0 -79 -1 -143 -2 -144 -2 -1 -158 -3 -347 -5 l-343 -4 -28 23 c-50 43
-87 52 -133 36 -81 -28 -75 79 -80 -1309 -2 -679 -1 -1300 2 -1378 l6 -144 34
-30 c30 -27 40 -30 80 -26 27 3 63 16 87 31 l40 27 342 -1 342 -1 0 -128 c0
-71 5 -153 11 -182 33 -157 174 -301 330 -337 58 -14 712 -14 761 -1 121 34
132 198 15 250 -34 16 -65 20 -172 20 l-130 0 -176 178 c-96 97 -244 248 -327
335 l-152 158 0 1110 0 1111 213 221 c116 122 259 270 317 329 l105 108 143 0
c162 0 195 9 236 62 47 63 24 162 -46 196 -31 14 -651 25 -753 13z m-16 -346
c-97 -98 -108 -102 -95 -30 13 67 83 125 150 125 l40 0 -95 -95z m-879 -680
l0 -85 -80 0 -80 0 0 85 0 85 80 0 80 0 0 -85z m410 -1030 l0 -1115 -75 0 -75
0 0 1115 0 1115 75 0 75 0 0 -1115z m-410 605 l0 -90 -80 0 -80 0 0 90 0 90
80 0 80 0 0 -90z m0 -427 l0 -88 -80 -2 -80 -2 0 90 0 89 80 0 80 0 0 -87z m0
-428 l0 -86 -82 3 -83 3 -3 30 c-2 16 -1 53 3 82 l6 53 80 0 79 0 0 -85z m0
-420 l0 -85 -86 0 c-74 0 -85 2 -80 16 3 9 6 47 6 85 l0 69 80 0 80 0 0 -85z
m0 -400 l0 -75 -80 0 -80 0 0 75 0 75 80 0 80 0 0 -75z m894 -632 l80 -83 -50
0 c-45 0 -54 4 -86 38 -46 48 -58 72 -58 116 0 32 2 35 18 24 9 -7 53 -49 96
-95z"/>
<path d="M6715 7431 c-163 -7 -184 -13 -215 -64 -39 -63 -20 -141 44 -185 30
-20 44 -22 193 -22 l161 0 233 -242 c129 -134 269 -279 312 -324 l77 -81 0
-1117 0 -1118 -249 -261 c-137 -144 -281 -293 -320 -332 l-71 -70 -153 -5
c-139 -5 -155 -7 -185 -28 -85 -61 -81 -185 9 -234 32 -17 60 -18 424 -16
l390 3 70 34 c120 59 224 190 254 321 6 25 11 100 11 167 l0 122 328 3 327 3
39 -27 c67 -47 145 -35 187 28 18 28 19 62 19 1392 0 1520 6 1403 -68 1438
-45 21 -93 12 -136 -26 l-34 -30 -319 0 c-235 0 -322 3 -331 12 -8 8 -12 54
-12 143 0 151 -15 224 -63 304 -43 72 -128 148 -207 185 l-65 30 -250 2 c-137
1 -317 -2 -400 -5z m655 -277 c45 -38 90 -134 62 -134 -7 0 -98 91 -136 138
l-19 22 31 0 c18 0 43 -10 62 -26z m983 -751 c-3 -48 -6 -90 -8 -92 -2 -2 -38
0 -80 4 l-75 7 0 83 0 84 78 3 c42 2 80 2 83 1 4 -2 4 -42 2 -90z m-413 -1028
l0 -1115 -75 0 -75 0 0 1115 0 1115 75 0 75 0 0 -1115z m414 614 c4 -44 4 -84
1 -90 -4 -5 -42 -9 -86 -9 l-79 0 0 90 0 90 79 0 78 0 7 -81z m1 -413 c4 -35
5 -72 3 -82 -4 -22 -37 -31 -115 -33 l-53 -1 0 90 0 90 79 0 79 0 7 -64z m-1
-382 c3 -8 3 -47 0 -85 l-7 -69 -78 0 -79 0 0 85 0 85 79 0 c63 0 80 -3 85
-16z m-2 -489 l-3 -85 -80 0 -79 0 0 85 0 85 83 0 82 0 -3 -85z m2 -377 c12
-105 17 -98 -79 -98 l-85 0 0 69 0 70 48 4 c119 9 108 13 116 -45z m-933 -636
c-11 -21 -36 -53 -56 -70 -30 -27 -44 -32 -86 -32 l-51 0 104 104 103 105 3
-34 c2 -19 -5 -50 -17 -73z"/>
<path d="M1870 7384 c-46 -20 -98 -71 -117 -114 -8 -19 -15 -61 -15 -92 0
-100 65 -180 169 -208 66 -17 130 5 195 68 135 129 38 363 -149 362 -27 -1
-64 -8 -83 -16z"/>
<path d="M8155 7386 c-173 -75 -181 -310 -15 -396 61 -31 100 -34 163 -10 138
52 187 205 104 327 -56 82 -166 117 -252 79z"/>
<path d="M1871 3766 c-103 -37 -163 -183 -115 -279 57 -113 188 -163 289 -110
52 27 79 57 106 117 44 101 -8 227 -113 271 -44 18 -119 18 -167 1z"/>
<path d="M8142 3759 c-140 -70 -162 -245 -44 -351 73 -66 160 -72 245 -18 145
92 130 310 -25 375 -53 21 -125 19 -176 -6z"/>
</g>
</svg>
