<?xml version="1.0" standalone="no"?>
<!DOCTYPE svg PUBLIC "-//W3C//DTD SVG 20010904//EN"
 "http://www.w3.org/TR/2001/REC-SVG-20010904/DTD/svg10.dtd">
<svg version="1.0" xmlns="http://www.w3.org/2000/svg"
 width="1024.000000pt" height="1024.000000pt" viewBox="0 0 1024.000000 1024.000000"
 preserveAspectRatio="xMidYMid meet">
<metadata>
Created by potrace 1.16, written by Peter Selinger 2001-2019
</metadata>
<g transform="translate(0.000000,1024.000000) scale(0.100000,-0.100000)"
fill="#000000" stroke="none">
<path d="M1730 8680 c-161 -17 -271 -71 -390 -190 -94 -94 -147 -181 -177
-291 -16 -60 -18 -206 -21 -2174 -2 -1327 1 -2153 7 -2227 17 -199 70 -317
206 -454 61 -61 98 -90 155 -117 157 -77 59 -72 1443 -72 l1237 0 0 -166 0
-166 -42 -13 c-192 -57 -335 -219 -382 -432 l-6 -28 -243 0 c-268 0 -312 -6
-427 -62 -96 -47 -195 -150 -248 -258 -23 -47 -48 -116 -55 -155 l-14 -70
-186 -5 -187 -5 -31 -32 c-25 -24 -33 -42 -36 -80 -5 -42 -1 -53 22 -81 16
-19 41 -35 63 -40 20 -5 1329 -8 2907 -8 2710 1 2872 2 2902 19 74 39 83 136
19 194 l-36 33 -418 0 -418 0 -16 86 c-34 178 -144 327 -303 408 -96 49 -149
56 -416 56 l-248 0 -11 58 c-35 172 -193 346 -357 396 l-60 18 -7 160 c-4 89
-5 162 -3 165 3 2 564 5 1248 6 1386 3 1284 -2 1437 73 132 65 271 221 317
359 46 138 45 49 45 2350 0 2415 5 2236 -71 2393 -32 67 -58 102 -122 167 -88
88 -171 137 -292 172 -57 17 -247 18 -3390 19 -1831 1 -3359 -2 -3395 -6z
m6703 -280 c93 -19 192 -91 241 -174 60 -102 56 38 54 -2332 l-3 -2169 -23
-57 c-33 -81 -108 -160 -190 -200 l-67 -33 -3365 0 -3365 0 -62 29 c-102 47
-187 152 -217 271 -14 53 -16 297 -16 2200 0 1901 2 2147 15 2200 40 151 167
260 319 274 121 11 6625 2 6679 -9z m-3128 -5259 l30 -6 0 -150 0 -150 -332
-3 -333 -3 0 79 c0 85 -5 95 -52 107 -21 5 -33 1 -53 -20 -25 -24 -27 -32 -23
-93 l3 -67 -42 -3 -43 -3 0 145 c0 138 1 146 22 160 19 14 74 16 408 15 212
-1 399 -4 415 -8z m359 -1 l26 -10 0 -148 0 -148 -35 0 -35 0 0 151 c0 131 3
165 16 165 1 0 14 -4 28 -10z m301 -607 c45 -24 83 -62 114 -113 32 -53 28
-71 -15 -68 -29 2 -38 8 -51 35 -9 19 -32 47 -52 63 -35 30 -36 30 -163 30
l-128 0 46 -62 46 -63 -858 -3 c-471 -1 -859 0 -861 2 -12 12 36 93 79 131 86
78 40 74 973 72 829 -2 830 -2 870 -24z m946 -479 c62 -29 115 -78 150 -138
16 -28 29 -54 29 -58 0 -5 -16 -8 -35 -8 -27 0 -37 6 -49 28 -21 40 -65 78
-116 101 -38 18 -66 21 -187 21 -98 0 -143 -3 -143 -11 0 -6 13 -28 29 -48 28
-36 51 -74 51 -85 0 -3 -805 -6 -1790 -6 -1243 0 -1790 3 -1790 10 0 36 63
120 121 163 81 59 -45 56 1899 54 l1785 -2 46 -21z"/>
<path d="M8295 8297 c46 -41 74 -77 97 -125 l33 -67 0 -1855 0 -1855 -24 -42
c-14 -24 -42 -55 -64 -70 l-40 -28 -3236 -3 c-3066 -2 -3238 -1 -3270 15 -19
10 -43 34 -53 53 -17 33 -18 75 -18 738 l0 703 -25 24 c-32 33 -93 34 -121 4
-18 -20 -19 -56 -25 -988 -3 -531 -2 -990 2 -1020 16 -104 70 -180 164 -229
l50 -27 3310 0 c3150 0 3312 1 3361 18 94 33 167 113 199 218 14 49 16 232 19
1949 2 1042 1 2010 -3 2150 -6 253 -6 255 -34 308 -63 120 -148 173 -294 181
l-92 6 64 -58z m-3697 -4237 c44 -27 65 -78 56 -137 -4 -25 -15 -54 -24 -63
-17 -17 -16 -20 12 -64 32 -53 30 -77 -8 -95 -22 -10 -28 -8 -52 17 -15 16
-40 45 -55 65 -39 52 -62 49 -63 -8 -1 -53 -18 -77 -53 -73 -44 5 -52 37 -49
194 4 181 6 184 122 184 64 0 88 -4 114 -20z m462 5 c44 -23 60 -53 60 -112 0
-61 -13 -100 -34 -105 -13 -2 -10 -12 15 -50 34 -52 33 -79 -4 -95 -31 -14
-49 -3 -89 55 -53 78 -73 82 -82 16 -7 -55 -20 -74 -51 -74 -45 0 -50 21 -47
189 4 192 3 191 124 191 50 0 89 -5 108 -15z m482 -2 c10 -9 18 -24 18 -33 0
-31 -23 -40 -97 -40 l-73 0 0 -35 0 -35 53 0 c52 0 97 -19 97 -42 0 -30 -34
-48 -90 -48 l-57 0 -6 -57 c-6 -56 -17 -73 -49 -73 -42 0 -48 24 -48 185 0
196 -1 195 139 195 74 0 98 -4 113 -17z m250 0 c13 -12 18 -31 18 -75 l0 -58
65 0 65 0 0 57 c0 82 42 120 84 74 14 -16 16 -40 14 -182 l-3 -164 -28 -9
c-39 -14 -59 10 -65 78 l-4 56 -65 0 -65 0 7 -38 c7 -46 -7 -87 -35 -102 -17
-9 -24 -7 -45 14 -24 25 -25 28 -25 177 0 128 3 155 17 171 20 22 41 23 65 1z
m-3702 -35 c24 -26 25 -41 4 -62 -19 -20 -183 -23 -202 -4 -18 18 -15 45 8 68
16 16 33 20 95 20 63 0 77 -3 95 -22z m490 2 c23 -23 24 -33 10 -61 -9 -17
-22 -19 -103 -19 -97 0 -117 7 -117 44 0 42 28 56 112 56 65 0 81 -3 98 -20z
m466 14 c12 -3 27 -17 33 -30 14 -31 14 -30 -5 -48 -12 -12 -37 -16 -104 -16
-67 0 -92 4 -104 16 -42 41 9 84 98 84 33 0 71 -3 82 -6z m504 -16 c25 -27 25
-40 1 -62 -15 -14 -35 -16 -106 -14 -78 3 -89 6 -102 25 -14 20 -13 24 11 48
22 22 33 25 100 25 64 0 78 -3 96 -22z m490 2 c23 -23 24 -33 10 -61 -9 -17
-22 -19 -104 -19 -79 0 -96 3 -110 19 -14 15 -15 24 -7 40 18 32 41 40 119 41
59 0 76 -4 92 -20z m4335 -18 c41 -32 54 -59 55 -112 0 -56 -26 -109 -65 -131
-27 -16 -102 -18 -880 -20 -796 -3 -852 -2 -883 14 -96 52 -96 198 0 257 32
20 49 20 888 18 l855 -3 30 -23z m-6280 -252 c16 -18 16 -21 2 -44 -20 -31
-61 -40 -138 -31 -50 6 -62 11 -71 31 -9 19 -8 28 7 44 15 17 31 20 100 20 69
0 85 -3 100 -20z m487 3 c23 -21 23 -36 -3 -59 -17 -15 -36 -19 -99 -19 -84 1
-110 12 -110 49 0 38 19 46 109 46 65 0 89 -4 103 -17z m479 7 c28 -15 24 -56
-6 -76 -20 -13 -41 -16 -95 -12 -95 7 -124 35 -83 80 13 14 31 18 90 18 41 0
83 -5 94 -10z m483 -3 c25 -18 17 -58 -14 -75 -31 -16 -153 -11 -175 8 -20 16
-19 39 2 62 13 14 31 18 93 18 47 0 83 -5 94 -13z m501 -7 c27 -30 7 -67 -40
-76 -45 -8 -144 3 -162 18 -19 15 -16 55 5 67 9 6 53 11 98 11 68 0 84 -3 99
-20z"/>
<path d="M4464 3976 c-3 -8 -4 -25 -2 -38 3 -20 9 -23 51 -26 46 -3 47 -2 47
25 0 16 -5 34 -12 41 -17 17 -77 15 -84 -2z"/>
<path d="M4924 3966 c-11 -45 0 -56 56 -56 l51 0 -3 38 c-3 37 -4 37 -50 40
-44 3 -48 1 -54 -22z"/>
<path d="M2111 8229 c-67 -11 -128 -46 -173 -99 -67 -78 -63 61 -66 -1890 -2
-1707 -2 -1776 16 -1809 10 -19 34 -43 53 -53 32 -17 150 -18 3122 -18 2865 0
3092 1 3124 17 20 9 44 30 54 47 18 30 19 87 19 1798 l0 1767 -21 56 c-37 98
-110 163 -207 184 -66 14 -5837 14 -5921 0z m5865 -283 l24 -27 0 -1414 0
-1415 -29 -32 -29 -33 -2872 1 -2871 0 -27 27 -27 27 -3 1419 -2 1418 20 26
c21 26 24 27 163 30 78 2 1377 3 2886 2 l2744 -1 23 -28z m12 -3191 c17 -6 16
-110 -1 -127 -11 -11 -524 -13 -2916 -13 -2857 0 -2903 1 -2917 20 -15 20 -19
92 -6 111 4 7 16 13 26 15 29 6 5799 0 5814 -6z"/>
<path d="M7221 7822 c-37 -20 -71 -73 -71 -110 0 -36 29 -90 59 -111 14 -10
44 -21 66 -25 83 -16 121 -52 170 -164 35 -78 76 -107 137 -99 119 16 143 161
55 330 -59 114 -176 188 -306 194 -61 4 -83 1 -110 -15z"/>
<path d="M4975 7674 c-201 -28 -293 -53 -420 -116 -229 -114 -428 -306 -532
-513 -191 -378 -163 -818 75 -1180 152 -231 374 -397 628 -469 371 -105 778
-31 1071 195 191 148 352 393 417 637 54 204 55 379 1 587 -109 418 -475 758
-903 839 -81 15 -284 28 -337 20z m292 -283 c162 -34 315 -115 433 -231 147
-144 220 -277 260 -470 48 -233 -7 -488 -150 -693 -161 -231 -397 -359 -686
-374 -230 -12 -391 36 -586 173 -379 267 -482 802 -230 1194 139 216 363 370
594 409 96 16 267 12 365 -8z"/>
<path d="M4890 7275 c-82 -17 -136 -36 -208 -75 -110 -59 -247 -195 -318 -315
-63 -109 -110 -314 -92 -401 19 -88 110 -130 185 -84 47 28 61 57 73 145 28
213 195 408 395 460 73 19 223 19 290 1 165 -44 302 -172 365 -341 25 -67 30
-202 10 -290 -26 -118 -111 -238 -217 -307 -100 -66 -145 -79 -319 -88 -166
-9 -203 -20 -229 -70 -8 -16 -15 -48 -15 -71 0 -35 6 -48 38 -79 50 -50 83
-56 267 -43 250 18 372 70 530 228 72 72 100 108 137 180 76 148 109 330 88
482 -27 201 -122 377 -268 498 -83 69 -244 150 -337 170 -86 18 -286 18 -375
0z"/>
<path d="M4990 6620 c-19 -10 -101 -74 -181 -142 -80 -68 -190 -160 -245 -206
-120 -101 -144 -132 -144 -187 0 -102 101 -164 194 -120 57 27 541 426 569
469 38 57 9 159 -53 191 -39 20 -98 18 -140 -5z"/>
<path d="M3250 7614 c-99 -27 -159 -61 -229 -131 -103 -103 -137 -182 -147
-343 -6 -110 7 -148 66 -188 28 -19 43 -23 77 -18 89 12 124 60 131 180 5 85
21 131 65 178 46 50 83 61 217 68 135 7 175 20 204 65 39 59 11 154 -54 187
-45 23 -248 24 -330 2z"/>
<path d="M6580 7612 c-42 -21 -80 -75 -80 -114 0 -44 26 -91 62 -113 26 -15
56 -19 146 -21 100 -2 121 -6 168 -29 92 -45 133 -119 134 -240 0 -83 20 -123
73 -148 44 -21 62 -21 114 2 63 29 78 66 77 178 -3 163 -37 256 -131 354 -58
61 -136 108 -222 133 -79 23 -293 22 -341 -2z"/>
<path d="M2534 7526 c-45 -20 -74 -62 -74 -108 0 -55 51 -108 104 -108 101 0
156 86 106 167 -30 51 -85 70 -136 49z"/>
<path d="M2518 7094 c-84 -45 -72 -162 19 -201 30 -12 38 -12 78 6 68 30 93
93 58 152 -31 53 -102 72 -155 43z"/>
<path d="M7524 7100 c-30 -12 -64 -63 -64 -95 0 -14 7 -39 15 -55 45 -87 162
-78 201 17 35 83 -63 169 -152 133z"/>
<path d="M3483 6990 c-63 -38 -63 -38 -63 -470 0 -432 1 -443 62 -480 62 -37
143 -17 185 47 16 25 18 61 21 415 3 364 2 391 -16 431 -32 72 -121 99 -189
57z"/>
<path d="M6531 6998 c-13 -7 -34 -26 -45 -41 -20 -28 -21 -40 -24 -424 -3
-383 -2 -396 18 -438 33 -69 105 -93 176 -59 64 31 64 29 64 484 l0 410 -33
36 c-28 31 -41 37 -83 41 -29 2 -59 -1 -73 -9z"/>
<path d="M2518 6674 c-102 -55 -57 -214 61 -214 41 0 98 51 107 95 17 92 -85
165 -168 119z"/>
<path d="M7524 6680 c-38 -15 -64 -59 -64 -107 0 -38 5 -50 35 -80 33 -33 39
-35 82 -30 38 4 54 12 81 42 31 33 34 41 28 79 -12 78 -90 125 -162 96z"/>
<path d="M2513 6240 c-39 -23 -53 -48 -53 -92 0 -111 132 -153 205 -67 80 96
-44 225 -152 159z"/>
<path d="M7494 6226 c-27 -27 -34 -42 -34 -72 0 -91 80 -145 157 -108 25 12
44 32 57 57 17 36 17 41 2 82 -21 53 -52 75 -107 75 -33 0 -47 -6 -75 -34z"/>
<path d="M2943 6040 c-18 -10 -39 -30 -48 -44 -39 -59 -23 -225 32 -335 42
-84 136 -174 224 -216 92 -43 153 -55 288 -55 118 0 159 13 195 63 26 35 27
104 2 141 -33 51 -60 61 -182 62 -101 1 -119 4 -168 28 -83 41 -136 122 -136
211 0 59 -19 104 -59 138 -40 33 -101 36 -148 7z"/>
<path d="M7073 6040 c-48 -29 -63 -60 -72 -147 -9 -88 -19 -113 -64 -161 -45
-47 -121 -72 -220 -72 -102 0 -145 -12 -181 -49 -56 -58 -41 -158 31 -202 32
-20 44 -21 171 -17 110 4 149 10 197 28 191 73 302 208 333 406 11 63 3 135
-17 172 -31 57 -119 78 -178 42z"/>
<path d="M2485 5787 c-42 -42 -52 -102 -36 -207 29 -185 138 -314 303 -356
119 -31 214 3 239 85 10 35 9 45 -11 86 -23 47 -64 75 -133 90 -33 7 -102 67
-123 106 -8 16 -21 58 -30 95 -24 105 -53 134 -135 134 -33 0 -48 -7 -74 -33z"/>
<path d="M7494 5786 c-29 -29 -34 -41 -34 -81 0 -40 5 -52 34 -81 44 -44 99
-47 144 -9 63 53 63 127 1 180 -46 38 -101 35 -145 -9z"/>
<path d="M1582 8017 c-45 -48 -10 -137 53 -137 35 0 85 50 85 85 0 63 -94 99
-138 52z"/>
<path d="M1586 7719 c-20 -16 -26 -29 -26 -57 1 -83 90 -118 140 -54 27 34 25
64 -6 101 -31 37 -69 41 -108 10z"/>
<path d="M1603 7420 c-50 -20 -60 -105 -17 -139 15 -12 38 -21 51 -21 33 0 83
51 83 85 0 31 -49 85 -77 84 -10 0 -28 -4 -40 -9z"/>
<path d="M1582 7087 c-37 -40 -28 -108 17 -131 35 -19 77 -9 101 22 24 30 25
53 5 91 -24 48 -87 57 -123 18z"/>
<path d="M1580 6768 c-29 -31 -27 -88 4 -117 37 -34 94 -26 119 17 22 37 17
72 -13 102 -28 28 -83 26 -110 -2z"/>
<path d="M1580 6448 c-12 -14 -20 -35 -20 -58 0 -76 84 -109 135 -54 29 31 31
53 10 93 -24 47 -89 57 -125 19z"/>
<path d="M1599 6145 c-29 -16 -52 -66 -42 -93 13 -38 46 -62 85 -62 32 0 41 5
59 33 47 75 -27 164 -102 122z"/>
<path d="M1920 1761 c-52 -52 -52 -126 1 -177 26 -25 38 -29 88 -29 70 1 106
21 128 72 19 47 10 93 -26 132 -27 29 -34 31 -96 31 -60 0 -69 -3 -95 -29z"/>
<path d="M1114 1746 c-28 -28 -34 -42 -34 -76 0 -34 6 -48 34 -76 38 -38 70
-43 116 -19 32 17 60 61 60 95 0 34 -28 78 -60 95 -46 24 -78 19 -116 -19z"/>
<path d="M1535 1768 c-38 -21 -55 -51 -55 -101 0 -42 4 -53 31 -78 68 -63 189
-11 189 81 0 77 -98 135 -165 98z"/>
<path d="M8534 1770 c-36 -14 -64 -59 -64 -102 0 -50 13 -74 50 -93 41 -21 82
-19 121 8 107 72 13 236 -107 187z"/>
<path d="M8944 1766 c-42 -18 -64 -52 -64 -97 0 -46 38 -95 79 -104 56 -12
131 46 131 101 0 38 -32 83 -71 98 -22 9 -40 16 -42 16 -1 -1 -16 -7 -33 -14z"/>
</g>
</svg>
