<?xml version="1.0" standalone="no"?>
<!DOCTYPE svg PUBLIC "-//W3C//DTD SVG 20010904//EN"
 "http://www.w3.org/TR/2001/REC-SVG-20010904/DTD/svg10.dtd">
<svg version="1.0" xmlns="http://www.w3.org/2000/svg"
 width="1024.000000pt" height="1024.000000pt" viewBox="0 0 1024.000000 1024.000000"
 preserveAspectRatio="xMidYMid meet">
<metadata>
Created by potrace 1.16, written by Peter Selinger 2001-2019
</metadata>
<g transform="translate(0.000000,1024.000000) scale(0.100000,-0.100000)"
fill="#000000" stroke="none">
<path d="M1524 8830 c-49 -25 -74 -65 -74 -120 0 -34 6 -48 34 -76 l34 -34
2299 0 2298 0 39 23 c30 16 43 33 54 64 12 39 12 47 -5 80 -10 20 -31 46 -46
57 l-28 21 -2282 2 c-2259 3 -2283 3 -2323 -17z"/>
<path d="M7714 8841 c-56 -7 -78 -20 -100 -62 -30 -58 -5 -133 55 -164 44 -22
277 -21 325 2 36 17 66 63 66 102 0 40 -28 90 -62 111 -28 17 -49 20 -133 19
-55 -1 -123 -5 -151 -8z"/>
<path d="M6728 8541 c-99 -32 -156 -69 -486 -316 -103 -77 -272 -203 -377
-280 -104 -76 -251 -184 -325 -239 -74 -56 -207 -154 -295 -218 -88 -65 -354
-260 -592 -435 -237 -175 -570 -419 -738 -543 -169 -124 -369 -270 -444 -326
-250 -185 -554 -409 -567 -416 -8 -5 -39 20 -86 69 -111 116 -118 122 -154
129 -44 8 -44 8 -369 -231 -329 -242 -431 -321 -438 -339 -14 -36 13 -90 79
-157 l67 -67 -38 -34 c-81 -71 -149 -119 -162 -114 -8 3 -100 9 -206 12 l-192
7 -130 -88 c-187 -127 -238 -167 -255 -200 -10 -20 -16 -69 -18 -144 -4 -111
-3 -114 21 -137 22 -20 27 -21 37 -9 14 17 209 139 214 134 2 -2 7 -23 11 -45
8 -50 15 -43 -140 -143 -142 -91 -145 -97 -145 -258 0 -99 0 -99 30 -121 23
-18 30 -19 30 -8 0 9 47 43 108 79 l107 64 5 -36 c3 -20 4 -43 2 -51 -2 -9
-57 -51 -122 -94 -147 -96 -153 -107 -158 -259 -4 -102 -2 -110 19 -133 23
-24 24 -24 39 -6 18 23 202 142 218 142 7 0 12 -4 12 -10 0 -6 41 -10 103 -10
l102 0 101 -102 c56 -57 152 -159 215 -228 63 -69 238 -260 389 -425 151 -164
327 -355 390 -424 115 -126 473 -513 821 -886 217 -233 259 -280 259 -289 0
-3 -480 -6 -1067 -6 -1054 0 -1068 0 -1101 -20 -70 -43 -75 -140 -11 -194 l31
-26 341 -1 c188 0 1665 -1 3282 -2 2733 -2 2942 -1 2971 15 40 22 69 85 60
132 -4 19 -20 49 -37 66 l-31 30 -2014 0 -2014 0 0 59 c0 56 -2 61 -60 132
-33 41 -75 93 -95 115 -35 41 -36 43 -33 119 l3 78 79 -82 c44 -44 87 -81 96
-81 8 0 32 11 53 25 l37 26 0 186 0 186 -62 75 c-34 42 -57 77 -51 79 6 2 86
58 179 125 194 139 307 216 330 225 10 4 42 -23 100 -86 82 -87 87 -91 129
-91 34 0 57 10 121 51 198 129 216 168 128 275 -19 23 -34 45 -34 48 0 3 12
12 27 19 26 14 28 13 78 -38 57 -59 106 -76 181 -65 55 8 83 26 404 251 151
106 331 231 400 279 263 183 657 456 698 484 24 16 55 49 69 73 42 73 31 139
-37 217 l-30 34 31 18 32 19 41 -42 c68 -68 81 -67 199 13 200 137 205 164 61
317 l-76 81 24 18 c12 10 41 30 63 45 22 16 112 78 200 138 1026 707 1266 876
1311 922 27 28 62 74 77 101 53 97 57 139 57 598 0 262 -4 443 -11 479 -14 78
-56 167 -109 234 -39 50 -1166 1210 -1336 1377 -83 81 -178 136 -275 159 -91
21 -278 19 -351 -4z m343 -239 c25 -12 89 -67 147 -125 l103 -103 -106 14
c-97 14 -109 14 -141 -1 -29 -14 -34 -22 -34 -50 0 -70 32 -83 292 -119 l158
-22 307 -311 c605 -611 700 -710 723 -755 19 -35 24 -61 24 -120 1 -133 -22
-159 -369 -412 -115 -85 -298 -216 -405 -293 -214 -152 -507 -362 -528 -379
-8 -5 -51 -9 -96 -7 -45 1 -94 -3 -110 -9 -27 -10 -198 -129 -431 -300 -89
-65 -141 -100 -148 -100 -2 0 0 28 4 63 7 62 12 147 25 389 l7 127 112 76 112
75 129 0 c71 0 170 7 219 15 73 13 274 74 358 110 13 5 17 2 17 -13 0 -23 35
-52 63 -52 10 0 106 60 213 133 106 72 273 186 371 253 97 66 181 127 186 135
16 25 -1 67 -33 84 -63 32 -98 22 -235 -70 -70 -47 -129 -84 -131 -82 -3 2 7
24 20 48 73 131 110 359 87 536 -56 430 -448 782 -949 854 -48 6 -147 9 -240
7 -212 -6 -334 -36 -519 -128 -73 -36 -133 -65 -133 -64 0 1 12 25 26 53 15
28 36 79 48 113 l21 61 225 159 c232 163 311 213 358 229 49 16 205 4 253 -19z
m-78 -617 c228 -40 405 -126 545 -264 70 -70 107 -120 149 -206 58 -116 68
-159 68 -300 0 -117 -3 -138 -28 -210 -74 -210 -218 -362 -441 -465 -82 -38
-208 -76 -281 -84 -134 -15 -181 -16 -276 -7 -200 21 -339 76 -480 189 -157
126 -262 283 -295 442 -29 136 -6 325 53 446 39 81 148 210 228 271 80 61 240
145 319 168 121 35 304 44 439 20z m-1242 -260 c-18 -159 -31 -361 -31 -483 0
-98 -2 -113 -17 -119 -10 -3 -61 -36 -113 -72 l-95 -65 -105 3 c-219 6 -456
-50 -684 -160 -64 -31 -73 -31 -58 -2 5 10 15 44 22 75 l13 58 76 29 c42 16
107 39 145 52 108 34 139 77 96 132 -29 36 -67 42 -128 18 -29 -12 -52 -17
-52 -13 0 11 175 141 610 455 96 69 209 150 250 180 89 65 88 66 71 -88z
m-165 -975 c293 -70 535 -268 631 -517 38 -98 44 -274 14 -393 -50 -199 -192
-360 -416 -475 -191 -97 -378 -134 -592 -115 -257 23 -471 128 -616 305 -70
84 -123 176 -148 255 -30 92 -36 246 -15 342 72 324 387 578 766 619 107 11
283 2 376 -21z m-1355 -126 c-9 -101 -26 -367 -34 -534 l-2 -45 -150 -113
-150 -112 -100 -4 c-152 -7 -208 -15 -354 -52 -157 -40 -361 -120 -551 -214
-135 -66 -365 -203 -407 -243 -32 -29 -31 -79 2 -105 36 -28 101 -38 123 -19
26 23 124 79 129 73 3 -2 -7 -22 -21 -42 -70 -103 -105 -363 -75 -555 6 -39 9
-73 6 -76 -3 -2 -52 10 -108 29 l-104 33 -202 215 c-112 118 -203 218 -203
221 0 3 60 49 133 101 72 52 175 126 227 164 116 83 449 320 605 429 114 80
115 80 121 127 6 46 7 47 123 129 151 107 408 292 540 388 335 243 456 329
459 326 2 -1 -1 -56 -7 -121z m4162 -226 c23 -36 -2 -62 -173 -178 l-170 -115
0 -185 0 -186 -82 -60 c-46 -34 -200 -140 -343 -238 -143 -97 -329 -225 -412
-284 -278 -195 -755 -529 -963 -672 -74 -52 -184 -128 -245 -170 -60 -42 -216
-150 -345 -240 -129 -90 -293 -204 -365 -253 -71 -50 -247 -172 -390 -272
-322 -225 -441 -305 -455 -305 -6 0 -10 28 -10 68 l0 69 78 55 c42 30 118 83
167 118 50 35 176 123 280 195 546 377 647 447 730 505 50 35 167 116 260 180
94 64 269 186 390 270 121 84 279 194 350 244 72 49 184 128 250 174 66 46
168 116 227 155 l108 72 0 123 c0 122 0 123 -21 111 -20 -10 -265 -179 -639
-439 -418 -291 -611 -425 -750 -520 -85 -59 -202 -140 -260 -180 -58 -40 -161
-112 -230 -160 -69 -48 -208 -145 -310 -216 -102 -72 -221 -154 -265 -184 -44
-29 -109 -75 -144 -102 -35 -26 -70 -48 -76 -48 -7 0 -18 14 -25 30 -20 49 17
69 -395 -215 -121 -84 -262 -182 -313 -218 -51 -36 -102 -69 -114 -73 -16 -5
-30 5 -67 47 -25 30 -95 105 -154 168 -91 96 -106 116 -90 122 54 20 73 93 34
132 -19 20 -32 22 -111 21 l-90 -1 -113 136 c-62 75 -118 144 -126 154 -24 30
-4 30 41 -1 58 -40 227 -116 313 -140 139 -40 188 -46 370 -47 197 0 274 12
438 67 49 16 91 28 93 25 4 -4 -34 -32 -191 -139 -116 -80 -135 -100 -135
-138 0 -35 41 -70 80 -70 18 0 91 43 221 132 107 72 300 203 429 290 129 88
361 247 515 354 154 107 377 262 495 344 118 82 312 216 430 299 304 212 630
438 800 555 80 55 163 112 185 127 l40 28 35 -39 35 -39 160 110 c313 215 871
593 930 630 64 40 73 42 88 17z m-5690 -446 l58 -58 -128 -94 c-70 -52 -188
-139 -262 -194 l-134 -100 -58 64 -57 64 37 27 c183 135 477 348 481 349 3 0
32 -26 63 -58z m1208 -367 c291 -43 554 -214 668 -434 56 -107 74 -184 74
-311 1 -179 -47 -320 -154 -458 -92 -118 -313 -256 -485 -304 -69 -19 -104
-22 -284 -23 l-205 0 -109 38 c-128 44 -191 78 -290 157 -78 62 -186 195 -219
270 -43 96 -57 177 -52 305 4 127 17 189 58 278 132 290 467 486 842 495 33 1
103 -5 156 -13z m-2161 -516 c58 -61 150 -160 205 -220 110 -118 692 -746
1175 -1264 723 -777 672 -711 679 -890 l3 -109 51 -61 c28 -33 66 -76 85 -96
31 -34 33 -39 30 -103 l-3 -67 -80 92 c-44 51 -99 115 -122 143 l-43 51 0 101
c0 127 11 110 -275 414 -38 41 -144 156 -235 255 -91 99 -228 247 -305 330
-77 82 -194 209 -260 280 -166 181 -441 478 -625 675 -85 91 -222 239 -304
328 l-149 162 -73 0 c-40 0 -76 5 -79 10 -3 6 -19 10 -36 10 -37 0 -37 12 2
44 29 25 37 26 143 26 l112 0 104 -111z m4155 66 c-16 -13 -79 -59 -140 -101
-98 -69 -427 -302 -670 -474 -224 -159 -298 -210 -306 -210 -4 0 5 28 21 63
52 111 79 255 80 417 l0 96 51 39 c118 90 126 93 209 83 41 -6 149 -7 240 -5
140 5 182 10 280 35 63 17 144 41 180 55 84 32 91 32 55 2z m-3956 -689 l63
-63 -44 -35 c-73 -59 -114 -88 -124 -88 -11 0 -128 139 -122 145 7 8 153 103
158 104 3 1 34 -28 69 -63z m4686 -157 l40 -40 -35 -29 c-19 -16 -181 -132
-360 -256 -373 -261 -588 -412 -851 -601 -103 -73 -193 -133 -201 -133 -7 0
-35 19 -62 43 l-48 42 94 66 c343 243 1368 949 1378 949 3 0 24 -18 45 -41z
m-4925 -164 l0 -50 -54 55 c-57 58 -59 62 -57 124 l1 39 55 -59 c50 -55 54
-63 55 -109z m520 28 c41 -46 76 -88 78 -93 2 -5 -29 -33 -67 -62 -71 -53 -83
-70 -58 -85 8 -4 22 -20 32 -35 9 -16 21 -28 25 -28 4 0 35 19 69 41 34 23 65
38 69 34 8 -7 -16 -27 -116 -96 -79 -54 -78 -55 -85 27 -3 47 -9 57 -95 155
-51 57 -92 107 -92 111 0 7 151 118 160 117 3 0 39 -39 80 -86z m-276 -226
c57 -68 66 -84 66 -118 0 -21 -4 -39 -9 -39 -5 0 -37 30 -70 68 -58 64 -61 69
-61 121 0 30 2 52 4 50 2 -2 33 -39 70 -82z m785 -321 c18 -21 29 -41 25 -45
-5 -4 -39 -31 -76 -60 -38 -29 -68 -59 -68 -68 0 -8 16 -30 35 -48 l34 -34 72
47 c40 26 74 46 76 45 10 -8 -9 -25 -100 -91 -94 -67 -102 -71 -105 -50 -9 80
-15 91 -117 210 -58 67 -102 124 -99 127 3 3 42 34 87 68 l82 62 60 -62 c33
-34 75 -79 94 -101z m-283 -292 c3 -25 4 -47 1 -50 -6 -6 -127 120 -144 149
-7 12 -12 40 -12 62 l0 40 74 -78 c63 -66 75 -84 81 -123z m733 -195 c39 -45
71 -85 71 -90 0 -7 -254 -199 -264 -199 -12 0 -156 172 -151 180 5 8 265 190
271 190 2 0 35 -37 73 -81z m379 -606 l4 -198 -29 -21 c-35 -26 -125 -88 -138
-96 -7 -4 -9 54 -7 168 l3 174 -90 105 c-50 57 -91 107 -91 110 0 3 39 34 88
70 l87 65 85 -90 85 -89 3 -198z m-322 -39 c3 -13 3 -36 -1 -51 l-7 -28 -44
50 c-92 103 -96 111 -89 154 l6 39 65 -70 c35 -38 67 -80 70 -94z m578 -607
l76 -94 0 -61 c0 -64 -7 -75 -26 -44 -7 9 -41 53 -78 96 l-66 80 0 63 c0 36 4
62 9 59 5 -3 43 -48 85 -99z"/>
<path d="M6758 8114 c-54 -29 -66 -99 -23 -138 54 -50 137 -37 168 27 24 48
16 82 -26 107 -38 23 -81 25 -119 4z"/>
<path d="M8144 6960 c-50 -20 -71 -101 -39 -147 41 -59 146 -47 179 20 16 33
16 42 5 69 -22 54 -89 81 -145 58z"/>
<path d="M7054 5870 c-12 -4 -31 -21 -43 -36 -76 -96 70 -195 161 -108 75 72
-18 185 -118 144z"/>
<path d="M6663 5750 c-57 -35 -54 -124 6 -155 74 -38 160 7 161 83 0 76 -94
117 -167 72z"/>
<path d="M6626 7616 c-45 -12 -76 -36 -76 -57 0 -5 33 -27 72 -51 100 -59 228
-189 228 -230 0 -5 -20 -8 -44 -8 -25 0 -57 -5 -72 -10 -22 -9 -31 -7 -48 9
-61 55 -181 93 -342 106 -70 6 -86 4 -120 -13 -57 -29 -134 -144 -134 -200 0
-31 41 -43 93 -27 70 21 245 35 302 24 68 -13 73 -21 41 -67 -24 -35 -33 -40
-78 -46 -145 -20 -388 -164 -388 -232 0 -50 51 -186 83 -219 57 -59 69 -56
107 31 38 86 112 174 189 223 26 17 51 31 54 31 3 0 11 -18 17 -40 10 -36 8
-43 -20 -81 -45 -63 -70 -156 -77 -290 l-6 -115 52 -33 c29 -19 78 -44 109
-56 98 -39 282 -57 282 -27 0 4 -22 38 -50 75 -64 88 -91 162 -98 262 l-5 79
26 -17 c15 -9 33 -17 41 -17 8 0 35 -26 59 -58 75 -97 165 -173 271 -229 l99
-52 68 34 c87 43 102 53 166 116 65 64 83 103 59 127 -14 14 -35 16 -130 13
-85 -2 -129 1 -172 14 -64 19 -154 61 -154 73 1 4 16 17 35 29 27 17 36 19 45
8 32 -39 192 -44 311 -9 92 27 197 74 204 92 3 9 8 59 11 112 8 145 -22 181
-97 117 -83 -71 -216 -127 -304 -127 l-41 0 4 38 c3 34 8 40 40 52 99 35 193
119 222 198 30 79 27 150 -8 198 -60 82 -155 151 -192 139 -17 -6 -20 -16 -20
-75 0 -111 -30 -213 -82 -283 -13 -17 -17 -16 -58 26 -39 39 -45 49 -42 81 4
45 -21 135 -56 199 -71 132 -235 203 -376 163z m301 -547 c17 -11 41 -40 53
-64 18 -37 20 -49 10 -84 -12 -46 -55 -86 -108 -101 -51 -14 -60 -13 -108 11
-54 25 -90 90 -79 141 24 107 138 155 232 97z"/>
<path d="M5494 7120 c-88 -35 -57 -184 39 -184 66 0 107 39 107 100 0 68 -76
112 -146 84z"/>
<path d="M5223 6982 c-32 -5 -63 -49 -63 -89 0 -45 24 -80 66 -93 98 -33 175
75 107 149 -28 30 -65 41 -110 33z"/>
<path d="M5270 6390 c-11 -20 -5 -29 63 -98 40 -43 85 -97 99 -122 28 -48 55
-127 46 -135 -3 -3 -22 2 -43 11 -21 9 -53 14 -71 12 -28 -3 -40 3 -85 48 -72
74 -166 121 -290 145 -56 11 -105 22 -110 25 -17 10 -87 -36 -140 -93 -66 -72
-87 -109 -72 -124 7 -7 73 -12 180 -13 152 -2 173 -4 221 -25 28 -13 52 -27
52 -31 0 -4 -16 -24 -35 -44 -33 -35 -37 -37 -117 -41 -128 -6 -287 -63 -381
-137 -53 -42 -57 -55 -46 -132 16 -117 68 -206 119 -206 11 0 24 17 37 48 11
26 39 68 63 95 57 65 192 157 228 157 5 0 8 -19 7 -42 0 -30 -8 -53 -26 -78
-71 -94 -101 -196 -103 -348 -1 -88 0 -95 24 -114 37 -30 129 -74 191 -92 68
-19 221 -38 243 -30 25 9 20 25 -27 82 -76 92 -126 213 -127 305 0 40 5 44 35
23 11 -7 31 -17 45 -21 14 -4 57 -42 96 -84 84 -89 147 -130 286 -182 l102
-39 72 41 c83 47 171 129 222 206 33 51 34 53 18 78 -20 30 -26 30 -97 8 -75
-24 -253 -24 -331 0 -32 10 -58 22 -58 27 0 5 13 16 29 25 16 8 38 30 50 48
20 33 24 34 93 40 87 6 205 47 322 111 l83 45 -9 67 c-10 83 -22 123 -61 197
-34 64 -109 140 -135 135 -12 -2 -23 -27 -37 -83 -26 -102 -60 -160 -132 -224
-64 -57 -83 -63 -83 -26 0 15 -7 39 -15 55 -13 26 -13 32 7 77 47 105 30 319
-30 376 -15 14 -58 41 -97 59 -61 28 -83 33 -167 36 -91 4 -97 3 -108 -18z
m148 -530 c66 -41 89 -116 56 -187 -43 -89 -176 -104 -244 -26 -59 67 -31 182
54 219 45 19 96 17 134 -6z"/>
<path d="M3938 6004 c-75 -40 -56 -149 30 -175 49 -14 94 6 118 52 46 90 -55
174 -148 123z"/>
<path d="M3684 5850 c-30 -12 -64 -58 -64 -86 0 -61 44 -99 111 -98 68 2 113
66 89 125 -21 49 -89 79 -136 59z"/>
<path d="M3351 5716 c-44 -24 -63 -84 -41 -127 14 -25 62 -49 101 -49 36 0 99
56 99 88 0 79 -88 127 -159 88z"/>
<path d="M2358 4739 c-53 -39 -42 -137 18 -159 90 -34 171 32 143 117 -19 60
-107 83 -161 42z"/>
<path d="M7853 5683 c-22 -16 -58 -41 -81 -58 l-42 -30 0 -132 c0 -100 3 -133
13 -133 6 1 46 24 87 53 l75 52 3 129 c1 71 -1 133 -6 138 -5 5 -26 -4 -49
-19z"/>
<path d="M7509 5440 l-74 -50 -5 -135 c-3 -81 -1 -135 4 -135 21 0 155 96 160
115 9 32 7 243 -2 249 -5 3 -42 -17 -83 -44z"/>
<path d="M3629 3411 c-37 -38 -39 -88 -5 -128 21 -24 32 -28 75 -28 42 0 55 5
78 27 61 61 13 158 -78 158 -31 0 -47 -7 -70 -29z"/>
<path d="M3683 5216 c-18 -8 -33 -21 -33 -27 0 -7 35 -47 78 -88 43 -42 91
-97 106 -124 29 -49 58 -132 49 -140 -2 -3 -20 1 -38 9 -19 8 -52 14 -73 14
-32 0 -46 8 -88 48 -86 83 -219 140 -366 157 -45 5 -64 2 -95 -13 -46 -24
-126 -107 -150 -157 -16 -34 -16 -36 3 -50 14 -11 31 -13 64 -7 25 4 97 7 160
7 103 -1 121 -4 173 -28 l58 -27 -35 -36 c-20 -21 -36 -41 -36 -47 0 -6 -16
-7 -39 -3 -48 7 -177 -15 -253 -44 -87 -32 -206 -114 -214 -146 -10 -40 3
-139 27 -194 23 -53 42 -74 76 -84 19 -6 26 0 49 46 38 76 86 131 157 181 62
44 120 72 133 66 4 -2 8 -21 10 -41 2 -29 -3 -40 -19 -51 -29 -20 -85 -115
-109 -185 -12 -35 -22 -98 -25 -163 l-6 -107 44 -32 c110 -81 255 -126 387
-121 31 1 28 14 -22 84 -60 86 -85 138 -102 216 -13 64 -19 141 -9 141 2 0 21
-11 41 -25 20 -14 44 -25 53 -25 9 0 25 -17 36 -37 11 -21 49 -67 85 -103 53
-54 88 -77 193 -130 125 -62 129 -63 165 -51 52 19 169 97 220 148 45 46 102
129 102 150 0 7 -9 22 -19 32 -19 19 -20 19 -83 0 -120 -38 -274 -34 -363 8
-43 20 -43 27 -5 43 16 7 47 31 68 54 36 39 41 41 97 42 79 1 156 25 288 87
l109 51 -4 101 c-3 93 -6 108 -41 177 -60 123 -158 191 -172 121 -31 -151 -59
-207 -140 -282 -64 -57 -85 -64 -85 -25 0 14 -7 38 -17 54 -15 26 -15 31 2 71
38 95 38 195 -1 327 -13 48 -21 57 -75 92 -72 47 -132 67 -219 75 -46 4 -75 1
-97 -9z m155 -562 c64 -49 79 -117 40 -185 -18 -33 -31 -42 -73 -54 -68 -20
-120 -7 -162 39 -28 30 -33 43 -33 83 0 63 28 109 83 134 51 23 98 18 145 -17z"/>
<path d="M5073 4588 c-92 -24 -94 -140 -3 -178 25 -10 36 -9 73 9 67 32 85 89
45 136 -28 31 -73 44 -115 33z"/>
<path d="M8744 8076 l-34 -34 0 -286 0 -285 31 -35 c51 -58 143 -58 189 1 19
24 20 40 20 315 l0 290 -34 34 c-30 30 -40 34 -86 34 -46 0 -56 -4 -86 -34z"/>
<path d="M993 7374 c-66 -33 -63 18 -63 -1034 0 -1036 -3 -983 56 -1029 32
-25 71 -27 117 -5 71 34 66 -35 67 1039 1 937 0 970 -18 994 -37 51 -99 64
-159 35z"/>
<path d="M8779 5234 c-71 -29 -66 29 -74 -954 -3 -487 -3 -1102 1 -1368 l7
-484 28 -28 c50 -49 138 -43 185 13 l24 29 0 1358 c0 1006 -3 1366 -12 1384
-23 53 -95 75 -159 50z"/>
<path d="M1001 3218 c-13 -7 -34 -26 -45 -41 -21 -28 -21 -37 -21 -497 l0
-469 29 -30 c51 -53 123 -53 176 1 l30 30 0 474 0 474 -27 30 c-33 36 -102 49
-142 28z"/>
</g>
</svg>
