<?xml version="1.0" standalone="no"?>
<!DOCTYPE svg PUBLIC "-//W3C//DTD SVG 20010904//EN"
 "http://www.w3.org/TR/2001/REC-SVG-20010904/DTD/svg10.dtd">
<svg version="1.0" xmlns="http://www.w3.org/2000/svg"
 width="1024.000000pt" height="1024.000000pt" viewBox="0 0 1024.000000 1024.000000"
 preserveAspectRatio="xMidYMid meet">
<metadata>
Created by potrace 1.16, written by Peter Selinger 2001-2019
</metadata>
<g transform="translate(0.000000,1024.000000) scale(0.100000,-0.100000)"
fill="#000000" stroke="none">
<path d="M1388 7094 c-161 -38 -291 -159 -339 -315 -18 -59 -19 -118 -19
-1654 0 -1555 0 -1594 20 -1656 40 -129 135 -238 260 -298 l75 -36 3700 -3
c2773 -2 3714 0 3755 9 119 25 248 126 312 245 61 113 58 21 58 1734 0 1691 2
1611 -52 1726 -50 107 -187 217 -312 250 -77 21 -7373 19 -7458 -2z m339 -260
c53 -39 63 -74 63 -232 0 -232 -13 -245 -231 -250 -167 -4 -206 6 -239 60 -18
29 -20 50 -20 189 0 146 1 158 22 185 51 66 78 73 245 71 116 -2 135 -5 160
-23z m705 3 c51 -35 60 -71 56 -247 -3 -153 -4 -159 -28 -186 -41 -44 -78 -54
-207 -54 -97 0 -124 3 -159 20 -68 33 -76 61 -72 250 l3 160 32 32 c39 39 83
47 238 44 87 -1 116 -5 137 -19z m678 9 c19 -7 45 -28 58 -46 20 -31 22 -44
22 -187 0 -244 -12 -257 -225 -258 -115 0 -146 3 -172 18 -58 31 -65 58 -61
242 l3 164 29 30 c15 16 45 34 65 39 52 14 240 13 281 -2z m709 -4 c64 -34 73
-66 69 -247 -4 -170 -8 -189 -55 -221 -24 -16 -47 -19 -170 -19 -127 0 -144 2
-170 21 -57 41 -64 72 -61 246 l3 158 32 31 c38 38 73 46 213 48 84 1 112 -3
139 -17z m700 0 c70 -35 76 -54 75 -237 0 -135 -3 -167 -17 -189 -34 -51 -62
-61 -191 -65 -137 -4 -179 6 -221 49 l-30 31 0 174 c0 171 0 174 25 200 42 45
75 54 205 55 95 0 127 -4 154 -18z m718 -8 c15 -11 34 -32 40 -45 15 -29 18
-325 4 -362 -5 -14 -25 -35 -43 -48 -30 -22 -45 -24 -163 -27 -144 -3 -179 6
-219 61 -20 27 -21 40 -18 189 3 185 10 209 75 239 36 17 60 19 169 17 110 -3
130 -6 155 -24z m705 3 c51 -35 60 -71 56 -247 l-3 -159 -30 -31 c-40 -42 -90
-53 -225 -48 -128 3 -155 13 -191 71 -18 29 -20 46 -17 194 l3 162 29 30 c40
41 82 50 226 48 101 -2 130 -6 152 -20z m693 9 c65 -27 75 -60 75 -239 0 -173
-6 -199 -57 -233 -24 -17 -47 -19 -173 -19 -162 0 -183 6 -220 68 -17 28 -20
51 -20 175 0 187 12 217 97 248 53 18 253 18 298 0z m721 -5 c67 -31 76 -63
72 -251 l-3 -159 -30 -31 c-40 -42 -89 -53 -230 -48 -187 5 -208 26 -214 216
-5 202 10 247 94 277 62 22 259 20 311 -4z m741 -7 c48 -36 53 -57 53 -222 0
-237 -13 -252 -221 -260 -111 -4 -131 -2 -171 16 -73 32 -81 57 -81 243 -1
144 1 158 21 186 20 28 49 45 97 57 11 2 77 4 147 3 111 -2 130 -5 155 -23z
m763 8 c19 -9 45 -32 57 -51 21 -32 23 -44 23 -188 0 -243 -5 -248 -265 -248
-270 0 -275 4 -275 255 l0 160 33 37 c41 44 70 50 257 52 110 1 141 -2 170
-17z m-6783 -735 c56 -30 63 -57 63 -232 0 -182 -7 -206 -73 -236 -38 -17 -69
-19 -356 -19 -441 0 -423 -16 -412 377 1 31 8 51 29 73 50 56 75 60 412 57
270 -2 309 -4 337 -20z m701 -1 c60 -31 64 -47 63 -233 -2 -184 -6 -198 -64
-233 -28 -17 -51 -20 -166 -20 -115 0 -138 3 -165 20 -55 34 -61 56 -61 235 0
197 10 220 110 246 53 14 247 4 283 -15z m705 1 c58 -38 62 -56 60 -239 -1
-101 -6 -175 -13 -188 -6 -12 -26 -30 -43 -40 -28 -17 -51 -20 -170 -20 -221
0 -227 6 -227 249 l0 170 31 36 c42 47 73 55 214 52 96 -2 126 -6 148 -20z
m706 -1 c52 -27 61 -64 61 -236 0 -169 -8 -197 -63 -230 -28 -17 -51 -20 -167
-20 -151 0 -184 11 -215 69 -20 41 -22 306 -1 355 18 42 61 73 112 79 84 10
239 0 273 -17z m698 1 c56 -30 63 -57 63 -234 0 -175 -5 -194 -59 -230 -31
-21 -45 -23 -170 -23 -212 0 -231 20 -231 244 0 148 8 183 53 225 36 33 76 40
202 38 81 -2 118 -7 142 -20z m706 -9 c50 -36 57 -63 57 -223 0 -236 -17 -255
-228 -255 -145 0 -168 6 -207 58 -18 25 -20 42 -20 192 1 144 3 169 19 193 36
53 84 64 251 58 80 -2 105 -7 128 -23z m697 7 c63 -37 72 -68 68 -245 -5 -228
-17 -240 -242 -240 -132 0 -135 1 -167 27 -49 42 -59 77 -59 210 0 145 6 183
34 217 34 42 86 55 216 53 95 -2 121 -6 150 -22z m707 1 c56 -28 63 -55 63
-239 0 -151 -2 -166 -21 -191 -38 -48 -67 -56 -211 -56 -114 0 -138 3 -165 20
-56 33 -63 61 -63 232 0 134 3 157 20 185 35 58 89 73 245 69 70 -2 110 -8
132 -20z m723 -4 c50 -37 60 -74 59 -227 0 -161 -10 -200 -58 -232 -31 -21
-45 -23 -176 -23 -131 0 -145 2 -176 23 -57 38 -69 75 -69 217 0 151 10 191
55 227 30 24 47 29 122 34 129 9 213 3 243 -19z m1115 18 c25 -6 52 -22 73
-44 l32 -36 0 -166 c0 -154 -2 -168 -21 -196 -40 -56 -54 -58 -445 -58 -340 0
-358 1 -389 20 -64 40 -70 58 -70 225 0 124 3 156 18 182 20 38 54 62 100 73
46 11 654 11 702 0z m-5720 -756 c48 -32 55 -60 55 -229 0 -174 -7 -201 -63
-235 -28 -17 -51 -20 -173 -20 -128 0 -144 2 -168 21 -50 39 -56 65 -56 231 0
219 14 239 185 249 131 8 188 4 220 -17z m698 3 c57 -37 62 -55 58 -236 -4
-243 -11 -251 -227 -251 -216 0 -224 9 -224 252 0 138 3 167 17 188 40 58 66
65 227 65 99 -1 128 -4 149 -18z m700 3 c58 -28 67 -61 67 -234 0 -170 -6
-196 -56 -235 -24 -19 -40 -21 -177 -21 l-149 0 -39 39 -39 39 0 170 0 171 31
36 c17 19 45 39 63 45 45 14 265 7 299 -10z m707 -3 c54 -38 60 -60 60 -230 0
-171 -6 -197 -56 -236 -24 -19 -40 -21 -168 -21 -122 0 -145 3 -173 20 -55 33
-63 61 -63 230 0 188 11 215 97 245 55 19 273 13 303 -8z m1409 -2 c53 -27 61
-56 61 -230 0 -174 -7 -201 -63 -235 -28 -17 -51 -20 -173 -20 -128 0 -144 2
-168 21 -50 39 -56 65 -56 229 0 166 7 192 58 229 47 33 281 37 341 6z m-4223
-4 c56 -34 67 -74 63 -240 -4 -162 -12 -185 -72 -221 -31 -19 -54 -20 -526
-20 l-493 0 -39 39 -39 39 0 169 c0 185 3 197 64 234 29 18 56 19 521 19 462
0 492 -1 521 -19z m3515 3 c20 -10 38 -32 51 -62 19 -42 20 -58 14 -195 -10
-219 -19 -227 -231 -227 -217 0 -228 11 -231 239 -3 175 5 208 58 241 29 17
50 20 171 20 106 0 145 -4 168 -16z m1440 -23 l39 -39 0 -161 c0 -176 -6 -201
-56 -240 -24 -19 -40 -21 -177 -21 -145 0 -151 1 -183 25 -48 37 -57 78 -53
246 5 156 10 173 66 210 24 16 49 19 177 19 l148 0 39 -39z m1519 23 c53 -32
60 -57 60 -229 0 -174 -7 -201 -63 -235 -31 -19 -54 -20 -587 -20 -533 0 -556
1 -587 20 -56 33 -63 61 -63 232 0 135 2 157 20 182 43 67 26 65 638 66 495 0
557 -2 582 -16z m-6080 -759 c44 -42 53 -83 48 -231 -2 -106 -7 -135 -23 -161
-39 -65 -14 -63 -755 -63 -739 0 -705 -3 -752 62 -22 31 -23 41 -22 179 2 167
11 196 72 229 36 19 56 19 719 17 l682 -2 31 -30z m675 23 c14 -6 36 -28 48
-47 20 -33 22 -48 22 -186 0 -234 -14 -248 -240 -243 -144 3 -144 3 -174 32
-43 41 -49 71 -43 231 4 153 11 172 65 205 27 17 51 20 164 20 80 0 142 -5
158 -12z m712 -8 c58 -35 65 -62 61 -242 l-3 -160 -37 -34 -38 -34 -141 0
c-220 0 -239 20 -239 245 0 154 9 185 63 223 29 20 43 22 167 22 116 0 139 -3
167 -20z m700 0 c58 -35 65 -62 61 -241 l-3 -159 -33 -32 -32 -33 -149 -3
-149 -3 -35 31 c-51 45 -60 81 -55 234 4 147 12 171 71 206 27 17 51 20 162
20 111 0 135 -3 162 -20z m724 -19 l39 -39 0 -159 c0 -150 -1 -162 -23 -194
-35 -52 -57 -59 -205 -59 -211 0 -222 12 -222 247 0 174 4 187 64 224 27 16
51 19 170 19 l138 0 39 -39z m685 20 c53 -32 64 -72 64 -223 0 -109 -4 -141
-19 -175 -29 -64 -56 -73 -213 -73 -148 0 -170 7 -205 59 -22 32 -23 44 -23
190 0 172 4 185 64 222 26 16 51 19 166 19 114 0 140 -3 166 -19z m701 -1 c55
-33 63 -61 63 -228 0 -139 -2 -151 -23 -183 -35 -53 -57 -59 -207 -59 -147 0
-180 10 -215 64 -23 35 -23 325 1 361 36 55 68 65 214 65 116 0 139 -3 167
-20z m1873 5 c15 -8 38 -27 49 -41 19 -24 21 -40 21 -178 0 -172 -10 -205 -71
-238 -32 -17 -71 -18 -761 -16 l-726 3 -27 25 c-49 46 -55 68 -55 218 0 128 2
142 23 173 48 72 10 69 805 69 610 0 717 -2 742 -15z m-7074 -731 c19 -9 44
-30 55 -45 19 -27 20 -41 17 -202 -5 -254 -8 -257 -283 -257 -199 0 -229 8
-265 65 -18 29 -20 49 -20 194 0 188 7 212 73 242 36 16 67 19 215 19 140 0
181 -3 208 -16z m887 5 c12 -6 34 -23 50 -37 l27 -26 0 -183 0 -183 -34 -38
-34 -37 -241 -3 c-269 -3 -293 1 -331 63 -18 29 -20 49 -20 196 0 255 2 257
343 258 144 1 226 -3 240 -10z m3604 -6 c65 -31 73 -56 73 -245 0 -166 0 -166
-27 -199 -53 -63 54 -59 -1655 -59 -1468 0 -1565 1 -1598 18 -19 9 -45 32 -57
51 -21 32 -23 44 -23 190 0 178 10 211 70 243 33 17 101 18 1608 18 1450 0
1577 -1 1609 -17z m913 -1 c62 -31 71 -64 68 -247 -3 -175 -9 -196 -65 -232
-23 -16 -58 -18 -256 -21 -253 -4 -268 -1 -317 55 l-30 34 0 165 c0 190 6 210
75 244 36 18 60 20 265 20 194 0 230 -2 260 -18z m860 0 c63 -33 71 -65 68
-249 -3 -145 -5 -164 -24 -190 -43 -59 -67 -64 -306 -61 -215 3 -217 3 -244
28 -47 43 -54 76 -54 240 0 244 7 249 320 250 180 0 210 -2 240 -18z m817 -2
c62 -37 65 -50 61 -244 l-3 -175 -30 -31 c-43 -45 -84 -52 -291 -48 l-184 3
-37 38 -38 37 0 179 c0 202 1 206 80 242 34 16 67 19 225 19 166 0 188 -2 217
-20z"/>
</g>
</svg>
