<?xml version="1.0" standalone="no"?>
<!DOCTYPE svg PUBLIC "-//W3C//DTD SVG 20010904//EN"
 "http://www.w3.org/TR/2001/REC-SVG-20010904/DTD/svg10.dtd">
<svg version="1.0" xmlns="http://www.w3.org/2000/svg"
 width="1024.000000pt" height="1024.000000pt" viewBox="0 0 1024.000000 1024.000000"
 preserveAspectRatio="xMidYMid meet">
<metadata>
Created by potrace 1.16, written by Peter Selinger 2001-2019
</metadata>
<g transform="translate(0.000000,1024.000000) scale(0.100000,-0.100000)"
fill="#000000" stroke="none">
<path d="M2625 6862 c-207 -71 -370 -259 -414 -480 -7 -35 -11 -468 -10 -1335
1 -1400 -3 -1323 59 -1455 59 -126 183 -259 290 -309 144 -68 -40 -64 2600
-61 2265 3 2387 4 2430 21 191 76 303 172 386 330 73 140 68 30 72 1462 3
1433 6 1364 -64 1503 -82 165 -230 289 -404 339 -14 4 -1114 9 -2445 10
l-2420 3 -80 -28z m4835 -262 c29 -6 73 -20 97 -32 63 -32 146 -125 174 -195
l24 -58 3 -1165 c4 -1259 1 -1343 -44 -1431 -31 -63 -117 -149 -180 -180 l-49
-24 -2335 -3 c-1630 -1 -2351 1 -2387 8 -114 24 -227 131 -264 252 -18 58 -19
112 -19 1292 1 1176 1 1234 19 1287 50 148 163 241 301 248 30 2 57 5 59 7 10
9 4550 4 4601 -6z"/>
<path d="M2830 6391 c-77 -24 -123 -68 -157 -151 -17 -43 -18 -102 -18 -1180
l0 -1135 26 -55 c30 -63 67 -104 121 -131 36 -18 101 -19 2300 -19 1245 0
2279 3 2298 7 24 4 53 25 91 62 96 97 89 -6 89 1277 0 1016 -2 1126 -17 1170
-21 62 -96 138 -149 153 -46 13 -4543 14 -4584 2z m290 -251 c18 -18 20 -33
20 -175 0 -182 4 -175 -116 -175 -114 0 -114 0 -114 178 0 136 1 147 22 169
19 20 31 23 95 23 60 0 77 -4 93 -20z m497 -2 c22 -21 23 -28 23 -166 0 -185
2 -182 -125 -182 -57 0 -95 4 -103 12 -8 8 -12 60 -12 169 0 190 -1 189 119
189 63 0 78 -3 98 -22z m512 -4 c19 -24 21 -40 21 -163 0 -183 1 -181 -130
-181 -131 0 -130 -2 -130 181 0 123 2 139 21 163 19 25 25 26 109 26 84 0 90
-1 109 -26z m518 4 c22 -21 23 -28 23 -166 0 -187 4 -182 -136 -182 -136 0
-134 -3 -134 187 0 183 0 183 132 183 80 0 95 -3 115 -22z m662 -4 c19 -24 21
-40 21 -163 0 -192 13 -181 -205 -181 -163 0 -175 1 -188 20 -11 16 -13 51
-10 168 6 193 -6 182 203 182 l159 0 20 -26z m506 6 c16 -17 17 -38 16 -167
-3 -188 1 -183 -131 -183 -76 0 -100 3 -110 16 -10 11 -13 55 -11 167 3 191 0
187 126 187 79 0 94 -3 110 -20z m502 -2 c22 -21 23 -28 23 -166 0 -184 2
-182 -123 -182 -129 0 -127 -3 -127 179 0 191 0 191 117 191 75 0 90 -3 110
-22z m500 0 c22 -20 23 -28 23 -164 0 -182 0 -182 -123 -186 -124 -3 -122 -6
-120 183 2 189 2 189 116 189 69 0 84 -3 104 -22z m485 5 c16 -14 18 -33 18
-166 0 -189 1 -187 -116 -187 -115 0 -117 3 -112 188 4 177 7 182 116 182 56
0 80 -4 94 -17z m-3625 -625 c22 -20 23 -28 23 -161 0 -132 -1 -140 -22 -158
-22 -17 -45 -18 -369 -19 -327 0 -348 1 -370 19 -23 19 -24 23 -22 163 3 132
4 144 24 161 19 15 52 17 367 17 341 0 346 0 369 -22z m678 -3 c24 -23 25 -29
25 -156 0 -186 9 -179 -215 -179 -169 0 -172 0 -194 24 -22 23 -23 30 -20 161
5 183 -5 175 216 175 161 0 164 0 188 -25z m664 -1 c19 -24 21 -40 21 -159 0
-176 11 -167 -205 -172 l-165 -4 -25 25 c-24 24 -25 29 -25 157 0 186 -8 179
211 179 l168 0 20 -26z m668 2 c16 -20 18 -40 17 -162 -2 -185 9 -176 -217
-172 -216 4 -207 -4 -207 181 0 184 -9 177 216 177 169 0 173 0 191 -24z m662
-2 c19 -24 21 -40 21 -154 0 -114 -2 -130 -21 -154 l-20 -26 -170 0 c-220 0
-209 -9 -209 177 0 191 -9 183 211 183 l168 0 20 -26z m948 4 c22 -20 23 -28
23 -158 0 -197 33 -181 -364 -177 -301 2 -318 3 -332 21 -10 15 -14 54 -14
158 0 125 2 140 20 158 19 19 33 20 332 20 306 0 312 0 335 -22z m-3277 -610
c18 -20 20 -35 20 -159 0 -131 -1 -139 -22 -153 -20 -14 -88 -16 -545 -16
-510 0 -524 1 -543 20 -18 18 -20 33 -20 149 0 115 2 131 21 155 l20 26 524 0
524 0 21 -22z m660 2 c18 -18 20 -33 20 -157 0 -113 -3 -140 -17 -155 -14 -16
-34 -18 -185 -18 -218 0 -208 -8 -208 169 0 115 2 131 21 155 l20 26 165 0
c151 0 166 -2 184 -20z m650 0 c18 -18 20 -33 20 -157 0 -113 -3 -140 -17
-155 -14 -16 -34 -18 -184 -18 l-168 0 -20 26 c-19 24 -21 40 -21 149 0 109 2
125 21 149 l20 26 165 0 c151 0 166 -2 184 -20z m654 -2 c13 -18 16 -51 16
-157 0 -182 13 -171 -202 -171 -218 0 -208 -9 -208 172 0 185 -8 178 211 178
162 0 168 -1 183 -22z m1316 0 c18 -20 20 -35 20 -159 0 -131 -1 -139 -22
-153 -20 -14 -86 -16 -517 -16 -601 0 -541 -19 -541 172 0 124 1 130 25 153
l24 25 495 0 495 0 21 -22z m-3951 -614 c17 -22 20 -40 20 -144 1 -168 13
-159 -223 -163 -246 -5 -232 -15 -229 164 3 178 -10 168 230 169 l182 0 20
-26z m668 4 c22 -20 23 -29 23 -148 0 -174 9 -167 -217 -165 -123 1 -177 6
-188 15 -12 10 -15 38 -15 146 0 182 -9 174 209 174 155 0 166 -1 188 -22z
m1927 3 c24 -26 29 -265 6 -293 -14 -18 -45 -18 -823 -19 -603 0 -812 3 -823
12 -11 9 -14 42 -14 142 0 120 2 133 22 154 l21 23 797 0 c764 0 798 -1 814
-19z m676 -13 c19 -30 20 -44 14 -153 -3 -67 -11 -125 -18 -132 -7 -8 -70 -13
-189 -15 -226 -4 -217 -10 -217 162 0 104 2 120 21 144 l20 26 175 0 174 0 20
-32z m677 10 c22 -20 23 -28 23 -152 0 -124 -1 -132 -22 -145 -16 -10 -68 -13
-200 -14 -229 -1 -217 -10 -220 167 -3 174 -13 166 220 166 167 0 177 -1 199
-22z"/>
<path d="M3473 2351 c-78 -49 -74 -154 8 -196 25 -14 63 -16 229 -13 183 3
201 5 227 24 40 30 57 85 39 127 -29 70 -35 72 -265 75 -190 2 -208 1 -238
-17z"/>
<path d="M4250 2353 c-72 -37 -84 -127 -24 -184 l26 -24 846 -3 c601 -2 858 0
885 8 32 9 42 19 58 56 24 53 15 95 -27 135 l-26 24 -851 3 c-796 2 -854 1
-887 -15z"/>
<path d="M6315 2356 c-17 -7 -35 -19 -41 -27 -34 -43 -22 -134 23 -169 26 -20
36 -21 244 -18 214 3 218 3 243 27 58 54 50 140 -16 181 -30 19 -48 20 -228
19 -133 0 -205 -5 -225 -13z"/>
</g>
</svg>
