<?xml version="1.0" standalone="no"?>
<!DOCTYPE svg PUBLIC "-//W3C//DTD SVG 20010904//EN"
 "http://www.w3.org/TR/2001/REC-SVG-20010904/DTD/svg10.dtd">
<svg version="1.0" xmlns="http://www.w3.org/2000/svg"
 width="1024.000000pt" height="1024.000000pt" viewBox="0 0 1024.000000 1024.000000"
 preserveAspectRatio="xMidYMid meet">
<metadata>
Created by potrace 1.16, written by Peter Selinger 2001-2019
</metadata>
<g transform="translate(0.000000,1024.000000) scale(0.100000,-0.100000)"
fill="#000000" stroke="none">
<path d="M4983 8774 c-23 -8 -158 -79 -300 -158 -142 -78 -354 -195 -470 -260
-117 -64 -340 -189 -495 -278 -266 -151 -972 -545 -1318 -736 -85 -46 -299
-165 -475 -262 -176 -98 -392 -217 -480 -264 -171 -93 -208 -123 -224 -183
-14 -48 -15 -2610 -1 -2667 18 -82 20 -83 375 -268 253 -131 547 -290 753
-405 l132 -74 1 -42 c4 -199 19 -256 77 -309 55 -50 439 -276 483 -285 52 -10
141 55 155 114 6 21 80 83 100 83 4 0 37 -17 73 -38 100 -58 122 -64 180 -46
26 7 60 23 74 34 l25 20 4 -173 c3 -169 4 -173 33 -226 33 -59 52 -74 280
-213 177 -108 217 -128 255 -128 59 0 115 44 131 102 5 22 18 42 27 45 9 3 32
17 50 30 17 13 32 23 32 21 0 -2 -7 -25 -15 -52 -11 -38 -15 -104 -15 -280 0
-202 3 -236 19 -271 26 -57 64 -99 119 -130 26 -15 122 -72 214 -127 192 -115
229 -126 288 -86 20 13 45 44 59 72 23 45 40 59 225 181 l201 132 8 -33 c18
-71 94 -102 170 -70 40 16 1138 748 1156 770 9 10 15 56 19 126 l5 110 64 51
c36 28 79 71 96 96 19 27 60 63 102 90 248 161 548 375 605 432 52 52 75 68
115 79 103 27 203 106 253 199 35 67 56 169 47 229 l-6 42 128 98 c162 124
387 349 475 474 80 113 159 253 200 352 96 238 112 515 43 753 -30 103 -104
264 -160 345 l-37 55 17 75 c10 41 20 132 22 202 9 205 -31 379 -129 570 -64
126 -117 198 -237 321 -187 193 -445 359 -738 476 -139 55 -333 116 -435 137
l-88 18 0 76 c0 93 -19 129 -87 163 -47 24 -272 126 -663 302 -107 48 -267
120 -355 160 -88 40 -286 129 -440 198 -154 69 -330 148 -392 176 -162 73
-241 87 -330 55z m319 -228 c90 -41 273 -122 408 -181 383 -167 675 -299 797
-359 62 -30 152 -72 200 -92 172 -71 373 -172 373 -188 0 -20 -50 -53 -265
-176 -99 -56 -272 -159 -385 -228 -113 -69 -241 -146 -285 -172 -752 -442
-1122 -663 -1330 -795 -313 -198 -493 -307 -932 -564 -396 -232 -393 -231
-521 -188 -43 14 -247 109 -455 211 -209 102 -381 186 -383 186 -2 0 -147 71
-321 158 -175 87 -424 209 -553 271 -227 109 -289 146 -273 162 8 8 194 112
348 194 50 26 239 132 420 235 182 103 418 234 525 290 180 95 429 231 689
375 58 32 177 101 265 154 166 100 373 217 766 431 124 68 311 171 415 230
105 59 204 112 220 118 52 20 110 5 277 -72z m2051 -1087 c253 -64 613 -223
787 -346 126 -90 342 -305 408 -407 166 -257 200 -548 96 -815 -105 -267 -368
-580 -724 -862 -116 -92 -541 -369 -567 -369 -7 0 -13 4 -13 9 0 5 -2 16 -6
24 -3 9 13 25 48 48 654 410 1033 780 1198 1168 52 121 76 285 44 298 -25 9
-40 -16 -57 -100 -72 -345 -447 -777 -992 -1143 -82 -55 -183 -120 -223 -144
-67 -40 -74 -41 -90 -26 -10 8 -42 29 -71 45 l-53 28 69 39 c164 91 473 303
603 412 349 294 572 581 625 805 17 74 19 225 4 299 -15 71 -78 205 -133 282
-64 90 -229 244 -342 319 -170 113 -470 247 -641 285 l-73 17 0 77 c0 49 4 78
11 78 6 0 47 -9 92 -21z m27 -250 c426 -139 751 -362 888 -609 16 -30 33 -66
37 -80 6 -24 6 -24 -10 -5 -126 160 -262 288 -410 387 -149 100 -415 226 -577
273 -50 14 -58 20 -58 41 0 32 14 31 130 -7z m-540 18 c0 -9 -349 -234 -630
-407 -102 -63 -228 -141 -280 -173 -102 -64 -280 -173 -730 -449 -244 -150
-389 -240 -708 -439 -229 -143 -680 -413 -732 -438 -51 -24 44 49 185 143 187
125 867 552 1195 751 74 45 185 113 245 150 61 37 193 118 295 180 102 62 246
150 320 195 336 206 822 490 837 490 2 0 3 -2 3 -3z m508 -278 c112 -31 355
-140 391 -174 12 -11 12 -19 1 -45 -7 -17 -15 -29 -19 -27 -81 44 -282 134
-363 162 l-108 37 0 34 c0 40 1 40 98 13z m13 -170 c94 -33 301 -138 306 -154
1 -5 -1 -16 -6 -24 -7 -10 -37 0 -142 52 -74 35 -164 77 -201 93 -48 20 -68
34 -68 46 0 25 15 23 111 -13z m601 -161 c44 -38 49 -46 45 -73 -10 -63 -80
-159 -207 -286 -102 -102 -153 -145 -270 -222 -153 -100 -411 -243 -503 -277
l-55 -21 -30 31 c-32 32 -51 36 -83 20 -18 -10 -18 -12 7 -61 30 -57 40 -122
25 -159 -7 -18 -10 -20 -10 -7 -1 25 -67 154 -108 210 -20 26 -34 49 -32 51 2
2 51 20 109 41 58 21 164 66 236 100 387 184 644 395 780 642 16 29 33 53 37
53 5 0 31 -19 59 -42z m-655 -143 c28 -8 85 -31 127 -50 69 -31 76 -37 66 -54
-17 -32 -24 -32 -86 -2 -33 16 -83 37 -111 47 -47 16 -53 22 -53 46 0 16 1 28
3 28 2 0 26 -7 54 -15z m785 -74 c-100 -180 -323 -388 -589 -549 -102 -62
-439 -230 -468 -234 -11 -2 -20 3 -22 12 -1 10 43 37 139 85 221 109 462 257
578 354 155 130 271 256 335 364 24 43 29 46 40 30 10 -14 8 -24 -13 -62z
m-6096 -340 c313 -153 621 -303 684 -333 414 -198 647 -313 662 -327 15 -15
17 -69 22 -592 3 -316 3 -584 0 -596 -3 -12 -23 -28 -45 -38 -21 -10 -44 -24
-51 -32 -9 -12 -17 -8 -47 21 -48 47 -1626 836 -1687 843 -33 4 -46 1 -70 -20
l-29 -25 -3 -399 c-2 -219 0 -418 3 -443 5 -36 16 -53 49 -85 38 -36 257 -157
784 -433 209 -109 217 -115 220 -150 4 -37 0 -39 -36 -14 -15 11 -137 76 -272
147 -135 70 -306 160 -380 200 -74 40 -189 101 -255 135 -66 34 -130 72 -142
83 l-23 20 0 1143 c0 628 3 1149 6 1158 3 9 14 16 24 16 10 0 274 -125 586
-279z m6277 220 c13 -22 15 -41 11 -75 -4 -26 -10 -48 -14 -51 -4 -2 -21 11
-39 29 l-32 33 20 46 c11 26 24 47 28 47 5 0 16 -13 26 -29z m-69 -197 c24
-30 33 -63 20 -76 -3 -3 -26 16 -51 43 -38 41 -43 51 -33 64 15 18 28 11 64
-31z m-250 -166 c-153 -298 -618 -636 -1249 -908 -60 -26 -218 -100 -350 -163
-213 -101 -379 -177 -391 -177 -2 0 -4 8 -4 18 0 30 101 126 155 147 28 10
113 49 191 85 77 37 157 73 177 79 19 7 48 22 63 33 20 16 38 21 73 19 76 -4
155 32 227 103 49 47 66 72 75 108 l13 47 221 110 c121 60 259 134 308 163
134 81 354 240 432 312 39 35 71 62 73 61 2 -2 -4 -18 -14 -37z m112 -33 c11
-27 -4 -58 -66 -140 -134 -179 -335 -355 -585 -515 -135 -87 -485 -265 -505
-258 -7 2 40 32 105 66 276 148 608 372 764 518 87 81 236 264 253 311 13 36
25 42 34 18z m-1490 -44 c133 -84 214 -248 216 -440 1 -77 0 -81 -30 -110
l-32 -29 0 82 c0 211 -88 363 -267 463 l-57 32 44 20 c25 11 50 21 55 21 6 0
37 -18 71 -39z m-244 -114 c135 -86 217 -248 218 -428 0 -50 -3 -57 -30 -77
l-30 -23 0 79 c0 197 -91 351 -259 435 -40 20 -67 39 -60 41 8 2 21 7 29 10
30 11 80 -3 132 -37z m-244 -64 c52 -25 164 -134 194 -190 35 -63 68 -193 68
-263 0 -47 -4 -60 -25 -80 l-25 -23 0 62 c0 180 -94 353 -245 453 -35 23 -62
45 -59 50 9 13 54 9 92 -9z m-188 -40 c35 -21 94 -67 130 -103 54 -54 69 -77
92 -140 37 -101 47 -152 48 -236 0 -49 -4 -75 -14 -83 -12 -10 -15 -1 -21 51
-13 128 -59 253 -118 326 -51 63 -133 133 -196 166 -40 21 -60 37 -51 40 8 2
22 7 30 9 27 10 35 7 100 -30z m2700 -54 c-65 -130 -143 -232 -285 -374 -212
-213 -351 -323 -673 -529 -173 -112 -232 -142 -243 -124 -10 16 -21 8 146 113
352 222 600 417 812 638 81 85 220 262 249 319 9 16 18 28 20 25 3 -3 -9 -34
-26 -68z m-2931 0 c202 -108 246 -153 298 -300 36 -102 44 -255 17 -293 -11
-14 -22 -26 -25 -26 -3 0 -7 31 -8 69 -3 132 -53 263 -123 327 -21 19 -117 73
-213 121 -96 48 -175 91 -175 96 0 9 98 56 119 56 7 1 57 -22 110 -50z m3153
-175 c19 -191 -18 -358 -124 -567 -99 -194 -288 -421 -517 -620 l-53 -47 -27
19 c-39 28 -73 34 -95 18 -19 -14 -18 -16 17 -65 59 -79 89 -153 85 -209 l-3
-48 -11 36 c-15 48 -68 129 -137 210 l-56 66 112 83 c196 147 451 421 556 597
86 146 127 302 118 451 -3 45 -1 85 4 88 5 3 28 42 51 87 l41 82 14 -34 c8
-18 19 -85 25 -147z m-3518 17 c50 -26 163 -86 251 -131 88 -46 172 -92 188
-102 43 -30 35 -53 -35 -98 -33 -22 -65 -40 -71 -40 -6 0 -6 -5 1 -12 5 -8 13
-120 17 -259 l7 -246 -30 -22 c-17 -11 -33 -21 -36 -21 -12 0 -7 475 5 487 9
9 7 11 -9 7 -11 -3 -29 -1 -39 5 -16 8 -32 2 -86 -31 -55 -33 -65 -43 -57 -58
6 -11 5 -21 -3 -30 -9 -10 -9 -11 1 -6 9 6 12 -45 12 -241 l0 -248 -35 -23
-35 -22 0 254 c0 222 -2 255 -16 260 -29 11 -45 6 -102 -33 -99 -66 -191 -119
-194 -111 -5 13 -468 262 -555 299 -18 7 -33 16 -33 20 0 9 733 450 749 451 7
0 55 -22 105 -49z m-1734 -509 c0 -516 -2 -552 -29 -552 -7 0 -3 1050 4 1068
2 6 9 12 15 12 7 0 10 -172 10 -528z m5350 206 c-19 -169 -70 -309 -175 -483
-74 -124 -115 -175 -255 -318 -104 -108 -267 -247 -289 -247 -30 0 -2 36 85
112 130 112 302 302 380 418 69 104 150 268 184 370 11 36 31 123 43 193 20
117 23 125 30 90 5 -22 4 -77 -3 -135z m-458 -46 c-47 -122 -141 -252 -257
-354 -95 -84 -242 -197 -343 -263 -101 -66 -101 -66 -179 -68 -83 -3 -118 -16
-230 -86 -28 -18 -57 -31 -65 -29 -12 4 22 28 237 161 178 110 287 187 430
302 127 103 320 287 391 374 35 42 41 29 16 -37z m-6129 -523 c586 -292 790
-399 815 -424 30 -32 32 -40 32 -102 0 -57 -3 -70 -20 -81 -19 -11 -20 -10
-20 30 0 49 -21 94 -53 117 -41 30 -1491 761 -1509 761 -9 0 -22 -9 -28 -19
-11 -21 -14 -496 -4 -549 8 -37 38 -58 229 -157 72 -37 222 -116 335 -175 113
-59 280 -147 373 -194 92 -48 167 -89 167 -91 0 -3 -15 -12 -32 -21 -18 -9
-43 -25 -54 -36 l-22 -20 -188 98 c-104 53 -250 129 -324 169 -74 39 -208 109
-297 155 -166 84 -218 123 -231 169 -4 14 -7 185 -7 379 0 338 1 354 19 368
11 8 24 14 29 14 5 0 361 -176 790 -391z m2316 261 c141 -72 271 -139 289
-150 l32 -20 -2 -276 -2 -276 -25 -20 -26 -20 -3 99 c-1 54 -1 180 0 279 2
139 0 180 -9 177 -7 -3 -26 5 -42 16 -16 12 -87 51 -158 87 -70 36 -185 95
-255 131 l-127 65 22 19 c12 10 28 18 36 19 7 0 128 -59 270 -130z m2207 24
c90 -47 125 -82 181 -178 68 -115 114 -259 120 -371 l5 -90 -30 -22 -29 -21
-6 81 c-6 80 -36 187 -72 258 -54 104 -144 187 -293 269 -45 25 -82 47 -82 50
0 3 23 14 50 24 28 10 53 22 56 27 9 15 29 10 100 -27z m286 -111 c77 -82 111
-157 116 -258 2 -57 0 -76 -7 -65 -6 8 -11 23 -11 33 0 34 -71 167 -131 247
-57 75 -65 100 -35 100 7 0 38 -26 68 -57z m-2674 -125 c248 -128 288 -151
291 -170 1 -7 4 -135 7 -284 l6 -271 -31 -22 -31 -22 0 280 0 280 -32 24 c-32
24 -86 53 -313 172 -60 32 -125 67 -144 78 -31 19 -32 21 -15 34 10 7 24 13
32 13 7 0 111 -50 230 -112z m2082 61 c47 -22 87 -53 146 -113 72 -73 85 -92
114 -167 44 -114 59 -170 66 -262 7 -76 6 -80 -19 -103 -14 -13 -29 -24 -32
-24 -3 0 -5 30 -5 68 0 146 -76 354 -162 441 -49 51 -138 111 -203 138 -25 10
-45 21 -45 24 0 8 41 27 60 28 8 1 44 -13 80 -30z m-1360 -73 l0 -84 -35 -26
-35 -27 0 91 0 90 33 20 c17 11 33 20 35 20 1 0 2 -38 2 -84z m1189 -42 c118
-58 190 -127 244 -234 43 -86 58 -162 60 -303 2 -94 1 -100 -23 -119 l-25 -20
-6 133 c-9 180 -43 282 -116 350 -45 43 -69 45 -101 11 l-27 -29 -39 33 c-22
19 -83 56 -137 84 -55 28 -99 55 -99 60 0 16 114 78 145 79 16 1 72 -20 124
-45z m-2136 -43 c304 -160 337 -182 324 -215 -3 -7 -94 -65 -203 -131 -110
-65 -212 -126 -228 -135 -29 -18 -29 -18 -110 29 -45 26 -154 87 -243 137 -90
49 -163 91 -163 94 0 3 58 39 128 80 267 158 357 210 360 210 2 0 63 -31 135
-69z m-2104 -69 c21 -16 21 -19 7 -54 -31 -73 -14 -163 41 -220 15 -16 36 -28
47 -28 19 -1 18 -3 -9 -25 -16 -14 -35 -25 -41 -25 -15 0 -58 49 -80 90 -29
54 -25 280 5 280 5 0 19 -8 30 -18z m4002 -59 c219 -109 306 -243 324 -498 l7
-90 -31 -29 -31 -30 0 80 c0 116 -16 197 -55 275 -38 75 -95 139 -124 139 -10
0 -30 -11 -43 -25 l-26 -25 -33 32 c-19 17 -83 55 -143 83 l-108 52 44 47 c34
35 52 46 74 46 17 0 82 -26 145 -57z m1819 33 c0 -11 -99 -85 -104 -78 -3 5
18 26 46 46 52 36 58 39 58 32z m-6026 -65 c-5 -24 -16 -36 -47 -51 -39 -19
-40 -19 -68 1 -16 11 -29 22 -29 25 0 9 136 72 143 65 4 -4 4 -22 1 -40z
m3229 -127 l-28 -22 -3 46 c-3 41 0 50 25 69 l28 23 3 -47 c3 -41 0 -49 -25
-69z m-2603 21 c0 -14 -4 -25 -10 -25 -5 0 -10 11 -10 25 0 14 5 25 10 25 6 0
10 -11 10 -25z m3333 -9 c130 -54 246 -147 312 -251 38 -61 65 -169 65 -264 0
-58 -3 -72 -19 -80 -17 -9 -19 -4 -24 72 -15 203 -95 320 -302 442 -49 29
-109 61 -132 70 -24 9 -40 21 -37 26 10 16 78 9 137 -15z m1835 -23 c70 -35
176 -134 219 -205 44 -73 74 -192 76 -303 2 -95 -8 -126 -43 -145 -19 -10 -20
-7 -20 75 0 146 -45 286 -118 372 -32 37 -144 117 -209 148 -34 17 -62 32 -62
36 -1 5 78 47 92 48 5 1 34 -11 65 -26z m-3898 -153 c91 -50 170 -97 176 -103
8 -8 13 -111 16 -333 l4 -322 -28 -16 -28 -17 0 318 -1 318 -32 16 c-18 9 -88
48 -157 87 -69 38 -162 91 -207 117 -46 25 -83 50 -83 55 0 5 12 16 28 24 25
13 31 12 87 -19 33 -18 134 -75 225 -125z m1934 63 c217 -107 266 -155 312
-297 20 -63 27 -109 31 -206 l5 -125 -31 -17 -31 -17 0 77 c0 91 -29 222 -65
292 -33 66 -94 112 -297 226 -89 51 -163 96 -165 100 -4 14 69 43 92 37 11 -3
78 -35 149 -70z m-3022 -85 c7 -98 23 -139 77 -197 l38 -41 -29 -21 c-28 -21
-30 -21 -50 -3 -11 11 -32 39 -47 64 -24 41 -26 56 -30 168 -3 116 -2 124 15
120 16 -3 20 -16 26 -90z m698 49 c35 -24 51 -32 260 -146 63 -34 123 -68 132
-75 15 -11 17 -48 19 -365 l2 -353 -27 -26 -26 -27 0 358 c0 236 -3 357 -10
357 -6 0 -27 11 -48 24 -21 13 -96 56 -167 96 -72 40 -154 88 -184 107 l-54
35 29 19 c36 23 32 24 74 -4z m4034 -9 c33 -18 91 -62 128 -99 104 -102 152
-224 164 -409 6 -88 5 -97 -16 -122 -12 -16 -24 -28 -28 -28 -4 0 -8 42 -9 93
-2 107 -29 224 -73 313 -38 79 -133 168 -226 214 -38 19 -71 36 -74 38 -9 6
34 32 53 32 11 0 47 -15 81 -32z m-4904 -34 c0 -28 -20 -54 -58 -73 -37 -19
-38 -19 -62 -1 -29 22 -31 19 45 58 70 36 75 37 75 16z m1955 -23 c-13 -22
-375 -241 -375 -227 0 9 117 85 249 162 137 79 135 78 126 65z m1075 -141
c259 -141 282 -156 278 -178 -2 -9 -21 -27 -43 -39 l-40 -22 3 -148 4 -148
-31 -23 -31 -23 0 127 c0 109 -2 129 -17 140 -29 21 -52 16 -105 -22 -34 -26
-47 -41 -43 -52 3 -9 8 -75 10 -147 l5 -132 -30 -21 c-16 -12 -32 -22 -35 -22
-3 0 -5 60 -5 134 0 107 -3 135 -14 139 -8 3 -69 -28 -137 -70 -80 -50 -126
-73 -134 -67 -51 39 -210 138 -362 225 -101 57 -183 107 -183 111 0 7 128 88
385 243 72 44 154 94 184 112 65 39 39 48 341 -117z m1676 90 c39 -21 93 -60
118 -85 85 -82 153 -270 163 -446 l6 -96 -30 -21 -30 -21 -6 112 c-6 135 -37
244 -96 335 -47 72 -91 107 -226 174 l-100 50 45 18 c65 26 77 24 156 -20z
m-4313 -80 c-3 -11 -7 -20 -9 -20 -2 0 -4 9 -4 20 0 11 4 20 9 20 5 0 7 -9 4
-20z m416 -46 c180 -97 262 -149 267 -170 3 -12 4 -36 2 -55 -3 -38 -9 -42
-325 -227 l-172 -100 -188 108 c-241 140 -255 149 -248 160 3 5 29 22 58 38
28 16 153 88 277 160 124 72 229 131 234 131 5 1 48 -20 95 -45z m3700 -12
c113 -56 173 -112 223 -208 47 -89 60 -159 61 -312 0 -120 -1 -126 -24 -143
-13 -10 -26 -19 -29 -19 -3 0 -4 39 -2 86 7 184 -41 353 -119 418 -38 33 -56
33 -90 0 l-27 -26 -59 40 c-32 21 -86 53 -120 71 -35 17 -63 35 -63 40 0 4 23
32 51 60 61 62 60 62 198 -7z m-219 -184 c176 -85 275 -202 306 -365 22 -118
19 -200 -11 -248 l-24 -40 -1 107 c0 134 -13 195 -57 281 -54 103 -136 174
-290 249 -107 53 -123 63 -102 69 37 10 65 2 179 -53z m-188 -98 c205 -102
267 -162 306 -295 26 -89 38 -232 28 -319 -6 -42 -15 -66 -35 -89 l-28 -31 -6
140 c-6 170 -30 256 -86 316 -23 26 -104 78 -227 146 -265 148 -246 131 -182
169 36 22 62 31 80 28 16 -3 83 -32 150 -65z m-2009 -11 c23 -12 71 -38 107
-59 36 -21 126 -72 201 -114 75 -42 144 -85 153 -95 14 -15 17 -52 22 -222 l7
-204 -32 -18 -31 -18 0 203 0 204 -117 71 c-65 38 -184 108 -265 154 -82 46
-148 86 -148 90 0 6 39 27 53 28 4 1 27 -9 50 -20z m-152 -94 c22 -14 126 -75
232 -136 106 -61 198 -116 205 -124 11 -10 15 -79 18 -313 l4 -300 -30 -22
-30 -21 0 298 0 298 -38 26 c-20 15 -113 70 -207 124 -162 94 -244 143 -255
152 -5 5 41 42 53 43 4 0 25 -11 48 -25z m-1737 -39 c50 -29 128 -75 173 -101
46 -27 95 -62 110 -77 l28 -29 3 -182 c5 -291 -6 -305 -168 -211 -194 114
-264 159 -284 187 -20 27 -21 42 -21 225 0 273 5 279 159 188z m866 -84 l0
-78 -132 -84 c-139 -87 -276 -173 -293 -182 -6 -4 -9 25 -7 81 l3 87 106 64
c261 161 308 189 316 190 4 0 7 -35 7 -78z m2665 20 c39 -21 135 -73 215 -116
221 -119 259 -144 267 -174 5 -21 0 -31 -28 -54 -19 -16 -51 -36 -72 -46 l-38
-17 2 -270 c1 -148 1 -275 0 -280 0 -6 -14 -19 -31 -28 l-30 -18 0 264 c0 232
-2 266 -16 271 -27 10 -51 7 -65 -11 -8 -9 -31 -29 -52 -44 l-39 -28 2 -285 1
-284 -31 -22 -30 -21 0 266 0 265 -25 12 c-19 8 -29 8 -43 -3 -11 -8 -70 -49
-132 -92 l-113 -77 -51 33 c-28 19 -154 93 -281 165 -126 72 -238 137 -248
144 -15 12 -6 20 90 81 60 38 227 144 373 237 146 93 274 169 285 169 11 0 52
-17 90 -37z m-1743 -184 c109 -62 200 -121 204 -130 14 -43 9 -47 -309 -237
l-137 -82 -33 19 c-17 11 -121 72 -230 137 -109 64 -197 118 -195 120 5 3 149
90 318 192 85 51 162 93 170 93 8 0 104 -51 212 -112z m776 -88 c-13 -11 -26
-19 -30 -20 -5 0 -8 38 -8 84 0 80 1 85 28 104 l27 20 3 -84 c3 -78 1 -87 -20
-104z m-1688 -65 l0 -55 -39 20 c-53 26 -56 35 -21 50 16 7 35 18 41 26 18 21
19 18 19 -41z m296 -181 c60 -37 138 -84 174 -105 113 -66 113 -66 123 -242
11 -199 4 -272 -29 -294 -24 -15 -28 -13 -177 77 -272 165 -257 142 -257 398
0 179 1 193 20 212 11 11 24 20 29 20 4 0 57 -30 117 -66z m1552 -63 c37 -21
148 -84 247 -140 99 -56 189 -108 199 -116 21 -16 21 -16 30 -372 l6 -192 -33
-27 -32 -27 -3 282 c-2 215 -5 281 -15 281 -6 0 -34 16 -61 35 -27 19 -110 69
-185 111 -216 122 -274 158 -278 170 -3 10 30 32 50 33 5 1 39 -16 75 -38z
m-730 -44 l3 -64 -199 -131 c-110 -73 -203 -132 -206 -132 -3 0 -6 30 -5 68
l0 67 196 128 c107 70 198 127 201 127 4 0 8 -29 10 -63z m572 -54 c36 -22
135 -79 220 -127 85 -49 170 -99 188 -113 l32 -24 0 -317 -1 -317 -24 -18 -25
-18 0 321 c0 188 -4 320 -9 320 -5 0 -69 36 -143 79 -73 43 -176 104 -228 134
-52 30 -104 62 -115 71 -20 16 -20 16 5 35 13 11 27 18 30 16 3 -1 34 -20 70
-42z m1 -249 c111 -63 210 -120 220 -127 37 -23 59 -7 -366 -277 -105 -67
-110 -69 -133 -54 -29 19 -179 109 -325 194 l-109 63 69 44 c37 24 91 59 118
76 53 34 318 195 322 196 2 1 93 -51 204 -115z m849 28 c0 -76 -1 -78 -30 -95
l-30 -18 0 73 c0 76 16 118 46 118 11 0 14 -17 14 -78z m0 -305 c0 -59 -2 -64
-31 -81 l-31 -18 8 68 c6 63 21 93 47 94 4 0 7 -28 7 -63z m-1399 -126 c90
-54 178 -112 196 -129 40 -39 46 -82 41 -290 -3 -146 -4 -155 -26 -172 -14
-12 -30 -16 -41 -12 -10 4 -93 52 -186 107 -107 64 -177 112 -194 134 l-26 35
2 187 c3 204 9 239 46 239 13 0 97 -44 188 -99z m789 -15 c0 -87 24 -64 -253
-250 l-187 -125 0 83 c0 66 3 86 18 98 24 22 405 268 415 268 4 0 7 -33 7 -74z"/>
<path d="M4998 8494 c-34 -18 -38 -62 -8 -89 27 -24 117 -26 153 -2 60 39 13
107 -72 107 -25 -1 -58 -8 -73 -16z"/>
<path d="M4925 8249 c-194 -18 -362 -54 -545 -116 -172 -59 -168 -57 -172
-104 l-3 -40 -90 -38 c-109 -45 -219 -108 -280 -161 -26 -22 -50 -40 -55 -40
-4 0 -11 12 -15 27 l-7 28 -29 -35 c-16 -19 -44 -62 -62 -95 -29 -55 -32 -68
-32 -150 0 -80 3 -96 30 -148 16 -32 47 -76 68 -98 l39 -38 -154 6 c-84 3
-155 8 -158 10 -3 3 -5 23 -5 46 l0 42 -100 -3 c-178 -4 -437 -53 -635 -120
l-85 -28 2 -45 2 -45 -107 -42 c-141 -55 -259 -123 -337 -194 -35 -32 -65 -58
-68 -58 -3 0 -8 11 -11 25 -9 35 -17 32 -49 -17 -121 -187 9 -420 333 -596
168 -92 478 -191 726 -233 181 -31 515 -31 684 -1 192 35 409 105 565 184 178
89 323 197 392 292 62 87 84 152 85 255 0 78 -3 90 -36 154 l-36 70 58 -6
c328 -35 621 -8 897 79 220 71 519 238 640 359 124 124 160 295 85 406 -16 24
-26 48 -23 54 4 5 3 7 -1 3 -5 -4 -31 11 -58 33 -103 81 -289 166 -468 213
-140 37 -378 75 -518 83 l-122 6 2 36 c3 34 2 36 -37 43 -51 9 -194 8 -310 -3z
m585 -228 c55 -9 46 -13 -100 -41 -191 -37 -332 -83 -381 -127 -10 -9 -47 -16
-95 -19 l-79 -4 70 51 c108 80 203 117 365 142 44 7 173 6 220 -2z m-1055 -78
c-89 -60 -128 -178 -87 -259 18 -36 94 -114 134 -139 9 -5 19 -30 23 -54 l7
-44 -73 41 c-146 81 -209 159 -209 258 0 61 27 120 80 177 40 44 42 45 100 44
l60 0 -35 -24z m1455 -23 c160 -20 315 -75 367 -132 12 -13 29 -41 38 -62 l16
-38 -28 20 c-51 35 -167 89 -238 110 -128 38 -215 45 -442 38 -117 -4 -213 -4
-213 -1 0 15 97 47 177 59 109 17 213 19 323 6z m-575 -125 c121 -31 246 -110
280 -176 30 -56 8 -157 -44 -203 -11 -11 -21 -30 -21 -43 0 -73 -104 -187
-228 -250 l-47 -24 78 5 c96 7 260 40 331 66 92 35 178 93 213 144 47 69 51
105 18 171 -33 68 -88 112 -193 155 -87 36 -142 67 -142 81 0 28 164 -2 265
-50 217 -102 265 -311 101 -445 -122 -101 -378 -174 -681 -196 -155 -11 -320
-6 -310 10 3 4 49 25 102 45 140 53 277 131 345 195 65 62 78 94 26 62 -68
-42 -175 -64 -343 -73 -88 -4 -191 -15 -230 -24 -112 -26 -466 -32 -596 -10
-181 30 -293 73 -360 138 -37 36 -69 93 -69 123 0 34 43 106 74 125 47 29 59
24 36 -13 -56 -93 11 -203 157 -258 128 -48 241 -62 466 -58 140 3 211 8 219
16 9 9 7 12 -7 12 -64 1 -183 94 -210 164 -14 36 -15 50 -5 87 7 24 21 57 33
73 47 66 222 148 357 167 82 12 316 2 385 -16z m985 -289 c0 -31 -62 -106
-130 -157 l-55 -41 -3 36 c-3 31 2 41 24 59 16 12 55 45 88 74 34 29 64 53 68
53 5 0 8 -11 8 -24z m-2425 -424 c25 -7 14 -10 -74 -20 -231 -27 -393 -74
-503 -148 -39 -27 -60 -34 -97 -34 l-46 1 60 56 c65 62 181 122 281 148 64 16
323 14 379 -3z m-1057 -49 c-114 -107 -118 -232 -10 -339 37 -37 41 -44 35
-77 -3 -21 -11 -37 -17 -37 -24 0 -131 97 -161 144 -26 43 -30 59 -30 120 1
85 21 132 82 194 40 39 46 42 97 42 l55 0 -51 -47z m1432 -75 c133 -18 293
-78 358 -133 37 -31 56 -64 65 -113 l7 -34 -47 42 c-60 53 -206 125 -303 150
-134 35 -275 45 -444 32 -83 -7 -176 -12 -206 -12 l-55 1 37 20 c115 60 355
80 588 47z m-580 -133 c160 -52 250 -133 250 -226 0 -58 -13 -96 -47 -131 -15
-16 -26 -40 -28 -60 -4 -76 -109 -192 -223 -249 -24 -12 -42 -23 -40 -24 7 -7
199 17 278 35 114 25 188 53 257 100 74 50 105 96 111 164 8 103 -50 170 -213
246 -151 71 -163 104 -29 81 185 -33 326 -143 354 -278 29 -134 -69 -247 -278
-323 -190 -69 -346 -93 -607 -93 -246 0 -268 9 -124 53 159 48 279 111 360
189 38 37 69 71 69 77 0 6 -21 1 -47 -12 -75 -37 -198 -64 -313 -69 -58 -3
-141 -11 -185 -20 -407 -78 -898 43 -981 242 -18 42 -18 107 0 141 18 35 72
85 113 106 44 22 50 20 26 -6 -96 -105 -82 -226 36 -306 130 -89 392 -143 609
-127 97 7 117 18 55 30 -50 9 -86 29 -134 72 -52 47 -69 81 -69 138 0 95 49
153 188 217 124 58 180 68 367 64 141 -3 170 -7 245 -31z m959 -312 c-20 -39
-109 -124 -158 -151 l-41 -23 0 33 c0 26 7 38 33 55 18 13 60 50 92 83 52 52
62 58 74 45 13 -13 13 -18 0 -42z"/>
<path d="M4940 7740 c-104 -18 -200 -60 -248 -108 -43 -42 -44 -46 -40 -93 4
-39 12 -57 37 -83 79 -81 236 -122 431 -113 63 4 140 13 170 21 126 35 230
108 246 173 16 64 -68 144 -194 184 -77 24 -307 35 -402 19z"/>
<path d="M3322 6788 c-175 -15 -313 -86 -343 -175 -22 -69 44 -149 157 -192
186 -71 490 -45 628 53 95 67 111 129 50 196 -84 92 -271 138 -492 118z"/>
<path d="M6633 7795 c-21 -9 -35 -23 -39 -40 -19 -76 141 -103 191 -32 19 27
4 54 -40 73 -42 17 -71 17 -112 -1z"/>
<path d="M5010 6810 c-30 -30 -26 -66 10 -85 54 -28 132 -14 162 29 12 17 9
25 -17 51 -32 33 -124 36 -155 5z"/>
<path d="M1746 6686 c-43 -16 -56 -30 -56 -63 0 -50 122 -73 174 -32 72 57
-20 131 -118 95z"/>
<path d="M3235 5859 c-44 -26 -48 -70 -9 -96 36 -23 117 -23 144 2 24 22 26
67 4 86 -21 17 -114 22 -139 8z"/>
<path d="M3470 5840 c-34 -34 -24 -71 23 -89 58 -22 129 -2 143 41 18 56 -118
96 -166 48z"/>
<path d="M1513 6130 c-25 -11 -51 -33 -63 -52 -19 -32 -20 -49 -20 -451 0
-460 0 -460 61 -512 44 -37 1627 -825 1657 -825 39 0 85 28 112 67 l25 37 -2
427 c-1 474 1 457 -70 519 -21 19 -188 107 -383 203 -935 458 -1217 595 -1245
601 -20 4 -44 -1 -72 -14z m386 -227 c163 -80 404 -198 536 -263 132 -65 341
-167 465 -228 144 -70 236 -121 255 -142 l30 -31 3 -388 c3 -381 2 -388 -18
-414 -12 -15 -31 -27 -42 -27 -11 0 -273 126 -582 279 -308 153 -653 325 -766
381 -113 55 -215 111 -228 123 -57 53 -57 52 -57 445 l0 364 33 29 c24 21 39
28 54 23 11 -3 154 -71 317 -151z"/>
<path d="M1544 5916 c-3 -8 -4 -140 -2 -294 2 -230 6 -282 18 -297 8 -10 350
-185 759 -388 649 -323 747 -369 770 -361 48 17 52 38 49 306 l-3 247 -30 32
c-30 32 -171 103 -1179 598 -192 94 -355 171 -363 171 -7 0 -16 -6 -19 -14z
m599 -410 c16 -12 16 -16 1 -52 -35 -85 0 -196 77 -243 l28 -17 -35 -19 -34
-18 -31 29 c-54 51 -64 79 -63 184 0 142 12 170 57 136z m-213 -75 c0 -37 -3
-41 -45 -62 -42 -21 -46 -21 -63 -6 -10 9 -24 17 -31 17 -24 0 2 21 67 55 37
19 68 34 70 35 1 0 2 -18 2 -39z m630 -126 c0 -14 -4 -25 -10 -25 -5 0 -10 11
-10 25 0 14 5 25 10 25 6 0 10 -11 10 -25z m182 -189 c3 -60 9 -119 12 -131 6
-23 156 -125 183 -125 9 0 13 21 13 72 0 98 18 76 21 -25 2 -65 -1 -80 -16
-91 -16 -11 -29 -9 -94 20 -97 42 -137 75 -150 122 -6 20 -11 90 -11 155 0
107 2 118 18 115 14 -3 18 -20 24 -112z m-182 -9 c0 -30 -5 -36 -40 -52 -35
-16 -44 -16 -65 -5 -14 7 -25 16 -24 19 0 3 28 20 62 37 34 17 63 32 65 33 1
0 2 -14 2 -32z"/>
<path d="M2656 3393 c-8 -9 -7 -145 2 -159 7 -11 156 -104 166 -104 3 0 6 36
6 79 0 79 0 80 -36 109 -46 38 -129 84 -138 75z"/>
<path d="M2876 3248 c-3 -13 -6 -49 -6 -80 l0 -58 82 -54 c45 -30 85 -53 90
-50 9 6 11 134 2 158 -5 14 -141 106 -156 106 -3 0 -8 -10 -12 -22z"/>
<path d="M2650 3095 c0 -72 2 -79 29 -103 16 -15 56 -44 90 -65 l61 -37 0 84
0 85 -42 29 c-24 16 -64 41 -90 56 l-48 28 0 -77z"/>
<path d="M2875 3028 c-3 -8 -5 -46 -3 -83 l3 -69 75 -54 c68 -49 76 -52 87
-36 8 10 13 46 13 84 l0 67 -62 38 c-35 21 -73 45 -85 53 -20 12 -24 12 -28 0z"/>
<path d="M3816 2789 c-3 -17 -6 -52 -6 -78 l0 -46 83 -53 c46 -28 86 -52 90
-52 4 0 7 34 7 76 0 74 -1 78 -34 109 -28 26 -113 75 -130 75 -2 0 -6 -14 -10
-31z"/>
<path d="M4032 2613 l3 -77 79 -53 c44 -29 83 -50 88 -47 4 3 8 37 8 75 0 60
-3 73 -24 94 -20 20 -135 85 -151 85 -3 0 -5 -35 -3 -77z"/>
<path d="M3814 2575 c-4 -9 -4 -42 -2 -75 3 -47 9 -63 29 -79 27 -24 133 -91
143 -91 3 0 6 36 6 80 l0 80 -42 31 c-41 30 -111 69 -123 69 -3 0 -8 -7 -11
-15z"/>
<path d="M4030 2386 c0 -74 0 -74 38 -104 60 -47 122 -83 132 -77 6 4 10 40
10 81 l0 75 -77 49 c-43 28 -84 50 -90 50 -9 0 -13 -21 -13 -74z"/>
<path d="M4595 1997 c-11 -91 -8 -96 85 -159 l85 -57 6 27 c9 38 10 107 2 127
-6 17 -147 115 -164 115 -4 0 -11 -24 -14 -53z"/>
<path d="M4816 1888 c-3 -13 -6 -46 -6 -74 0 -51 1 -52 53 -86 70 -47 113 -69
121 -61 3 4 6 36 6 73 0 59 -3 69 -27 92 -31 28 -114 78 -130 78 -6 0 -13 -10
-17 -22z"/>
<path d="M4590 1749 c0 -69 1 -72 35 -103 19 -18 59 -45 87 -59 l53 -28 6 47
c11 97 3 114 -85 167 -44 26 -83 47 -88 47 -4 0 -8 -32 -8 -71z"/>
<path d="M4810 1611 l0 -78 71 -47 c94 -63 103 -60 107 30 l3 71 -53 35 c-53
35 -112 68 -123 68 -3 0 -5 -35 -5 -79z"/>
<path d="M8981 4117 c-18 -18 -13 -47 8 -47 17 0 31 18 31 40 0 14 -27 19 -39
7z"/>
<path d="M8883 3970 c-33 -41 -38 -59 -18 -66 11 -5 28 5 53 29 30 30 34 38
23 51 -19 22 -33 19 -58 -14z"/>
<path d="M1517 3393 c-17 -16 -4 -41 28 -56 43 -21 41 -21 49 0 12 31 -54 80
-77 56z"/>
<path d="M1957 3243 c-18 -17 -3 -43 39 -68 48 -28 74 -27 74 3 0 12 -17 28
-49 45 -53 30 -55 30 -64 20z"/>
<path d="M8314 3165 c-8 -19 3 -35 26 -35 19 0 34 25 24 41 -8 14 -44 10 -50
-6z"/>
<path d="M7844 2875 c-15 -38 21 -60 47 -29 11 14 10 18 -6 30 -24 18 -34 18
-41 -1z"/>
<path d="M7757 2799 c-3 -13 0 -22 9 -26 20 -7 38 11 31 31 -9 23 -34 20 -40
-5z"/>
<path d="M7043 2113 c-16 -6 -17 -39 -2 -49 6 -3 18 1 27 10 14 14 14 18 2 30
-8 7 -21 12 -27 9z"/>
</g>
</svg>
