<?xml version="1.0" standalone="no"?>
<!DOCTYPE svg PUBLIC "-//W3C//DTD SVG 20010904//EN"
 "http://www.w3.org/TR/2001/REC-SVG-20010904/DTD/svg10.dtd">
<svg version="1.0" xmlns="http://www.w3.org/2000/svg"
 width="1024.000000pt" height="1024.000000pt" viewBox="0 0 1024.000000 1024.000000"
 preserveAspectRatio="xMidYMid meet">
<metadata>
Created by potrace 1.16, written by Peter Selinger 2001-2019
</metadata>
<g transform="translate(0.000000,1024.000000) scale(0.100000,-0.100000)"
fill="#000000" stroke="none">
<path d="M4718 8555 c-1 -2 -32 -6 -68 -10 -287 -31 -650 -168 -879 -332 -137
-98 -268 -218 -293 -266 -26 -52 -28 -138 -5 -184 38 -72 131 -110 210 -84 19
7 68 42 108 79 233 212 370 298 610 380 205 71 245 77 509 77 155 0 255 -5
295 -13 211 -46 457 -154 608 -268 48 -36 131 -105 185 -153 116 -104 130
-113 188 -113 91 0 170 70 181 160 9 76 -27 143 -125 232 -267 244 -588 397
-998 475 -115 22 -158 26 -327 25 -107 -1 -197 -3 -199 -5z"/>
<path d="M2802 8248 c-6 -7 -13 -30 -17 -51 -4 -20 -17 -52 -29 -70 -22 -32
-34 -38 -112 -57 -75 -18 -62 -72 21 -85 55 -8 94 -46 115 -112 28 -85 76 -84
97 3 15 61 57 101 114 110 80 13 92 61 19 82 -92 26 -126 58 -136 127 -6 39
-26 65 -50 65 -6 0 -16 -6 -22 -12z"/>
<path d="M6977 8243 c-3 -5 -8 -27 -12 -51 -9 -57 -46 -100 -93 -107 -65 -11
-92 -26 -92 -50 0 -30 18 -43 74 -54 60 -11 92 -41 107 -103 15 -57 30 -72 63
-64 23 6 36 30 36 73 0 12 12 35 26 52 23 28 52 40 125 55 29 6 42 34 28 59
-5 8 -28 18 -52 22 -79 14 -127 56 -127 115 0 37 -19 60 -50 60 -16 0 -31 -3
-33 -7z"/>
<path d="M4756 7850 c-233 -29 -476 -136 -674 -297 -158 -128 -192 -259 -91
-355 70 -67 165 -63 256 12 26 22 84 69 128 105 87 72 223 144 320 170 33 9
110 18 170 21 223 12 400 -51 598 -213 157 -127 183 -143 237 -143 89 0 170
64 186 147 17 88 -40 171 -199 291 -183 139 -359 215 -592 257 -58 11 -271 14
-339 5z"/>
<path d="M7130 7531 c0 -64 18 -61 -322 -61 l-309 0 -43 -25 c-45 -26 -192
-69 -207 -59 -5 3 -9 -8 -9 -24 0 -51 -38 -181 -72 -245 -19 -35 -65 -95 -108
-138 -119 -121 -237 -168 -422 -169 l-86 0 -11 -50 c-25 -118 -72 -201 -175
-307 l-50 -53 292 0 293 0 24 -25 c31 -30 33 -83 6 -116 l-19 -24 -972 -3
-971 -2 -30 29 c-37 38 -39 79 -3 115 l27 26 268 0 c148 0 269 1 269 3 0 1
-30 34 -67 72 -90 93 -162 233 -163 312 0 21 -4 21 -97 21 -189 0 -327 54
-437 173 -37 40 -78 99 -99 141 -39 78 -71 198 -64 235 2 13 1 23 -2 23 -38 1
-151 35 -199 59 l-61 31 -558 0 c-342 0 -583 -4 -623 -11 -138 -22 -259 -98
-336 -209 -83 -121 -78 -75 -84 -880 l-5 -715 -220 -3 -220 -2 -2 -923 c-2
-507 0 -934 3 -950 l6 -27 217 0 217 0 -1 -782 c-2 -934 4 -1178 33 -1260 43
-120 133 -232 235 -292 100 -59 171 -71 427 -71 l225 0 3 155 c3 191 12 245
57 337 64 131 178 232 332 296 l78 32 910 3 c609 2 933 -1 980 -8 98 -15 163
-49 233 -125 99 -106 106 -131 110 -433 l4 -252 76 -2 c42 -1 177 -2 299 -2
l223 -1 0 195 c0 214 10 275 57 362 37 68 130 153 207 189 89 42 173 49 589
49 l348 0 -3 -82 -3 -83 -395 -5 -395 -5 -67 -33 c-40 -20 -81 -49 -103 -74
-55 -65 -65 -114 -65 -324 l0 -183 743 -3 c872 -4 963 0 1063 37 130 48 238
159 296 302 l23 58 3 688 3 687 108 0 c106 0 110 1 140 29 25 24 31 37 31 71
0 35 -6 48 -35 77 l-34 34 -106 -7 -105 -7 0 87 0 86 109 0 c93 0 112 3 134
20 52 41 55 112 7 160 -18 18 -33 20 -135 20 l-115 0 0 85 0 85 106 0 c89 0
110 3 134 20 62 44 61 112 -3 166 -28 24 -35 25 -131 22 l-101 -3 -3 88 -3 87
28 1 c15 1 63 0 105 -1 64 -1 82 2 106 19 60 42 65 110 12 162 -28 28 -31 29
-139 29 l-111 0 0 91 0 90 108 -2 c63 -1 118 3 129 9 11 6 28 27 37 47 20 42
11 82 -26 122 -20 21 -30 23 -136 23 l-115 0 5 80 c3 44 7 82 9 84 2 3 47 6
99 7 106 2 142 15 167 62 18 35 11 72 -21 112 -24 30 -25 30 -140 33 l-116 4
0 1017 c0 1121 3 1072 -62 1173 -35 56 -87 99 -155 131 -47 21 -58 22 -465 25
l-418 3 0 -30z m-4832 -327 c90 -45 152 -143 152 -239 0 -50 -28 -119 -66
-163 -48 -57 -107 -83 -189 -83 -156 -1 -274 118 -263 266 6 69 26 115 72 163
77 83 195 105 294 56z m5252 -94 l0 -110 -85 0 -85 0 0 110 0 110 85 0 85 0 0
-110z m430 0 l0 -110 -90 0 -90 0 5 108 c3 59 5 108 5 110 0 1 38 2 85 2 l85
0 0 -110z m-1328 21 c67 -60 28 -166 -61 -166 -46 0 -75 23 -91 71 -14 41 6
86 48 108 41 23 68 19 104 -13z m473 -57 l0 -79 -81 -3 c-80 -3 -81 -3 -108
28 -28 33 -33 75 -13 101 25 32 51 39 127 35 l75 -3 0 -79z m-4246 -89 c38
-33 45 -56 31 -100 -22 -66 -101 -85 -151 -36 -84 85 28 212 120 136z m544 14
c63 -32 75 -102 28 -150 -48 -47 -116 -38 -146 21 -23 44 -18 69 19 106 35 35
62 42 99 23z m-242 -278 c21 -22 29 -39 29 -66 0 -27 -8 -44 -29 -66 -88 -88
-220 43 -134 133 38 40 93 39 134 -1z m3944 -33 c-2 -18 -3 -53 -4 -78 l-1
-46 -80 -3 c-74 -2 -81 0 -105 23 -31 31 -34 83 -5 114 18 19 31 22 109 22
l89 0 -3 -32z m425 -438 l0 -430 -85 0 -85 0 0 430 0 430 85 0 85 0 0 -430z
m425 18 c-3 -227 -5 -421 -5 -430 0 -16 -11 -18 -85 -18 l-85 0 0 430 0 430
91 0 90 0 -6 -412z m-5766 266 c21 -26 21 -37 21 -455 l0 -429 -80 0 -80 0 0
429 c0 418 0 429 21 455 16 20 29 26 59 26 30 0 43 -6 59 -26z m577 -145 c50
-41 57 -138 13 -185 -72 -77 -204 -29 -216 79 -5 39 -2 48 27 80 18 20 46 41
64 45 35 10 89 0 112 -19z m3830 6 c103 -60 119 -201 32 -282 -80 -75 -204
-62 -270 28 -40 53 -36 157 9 209 59 71 153 89 229 45z m-3250 -4 c84 -51 117
-156 75 -238 -45 -89 -158 -123 -248 -74 -74 39 -106 162 -63 238 47 84 161
120 236 74z m3754 -92 l0 -79 -82 0 c-70 0 -85 3 -105 22 -33 30 -30 72 7 109
28 29 33 30 105 28 l75 -2 0 -78z m-1090 -280 c68 -14 128 -62 162 -128 l28
-54 -2 -1112 -3 -1112 -30 -49 c-19 -30 -49 -60 -79 -79 l-49 -30 -1146 0
-1146 0 -40 22 c-51 27 -79 57 -104 113 -20 44 -21 59 -21 1145 l0 1100 24 51
c28 60 84 109 146 129 37 11 230 14 1127 14 747 1 1098 -2 1133 -10z m1100
-68 c0 -91 0 -91 -96 -91 -73 0 -86 3 -104 22 -26 28 -26 82 0 108 17 17 33
20 110 20 l90 0 0 -59z m-4510 -98 c39 -23 54 -54 46 -97 -9 -46 -47 -76 -96
-76 -54 0 -92 46 -88 104 2 33 9 44 37 63 40 27 63 29 101 6z m4508 -300 l-3
-78 -85 -3 c-80 -3 -87 -1 -109 21 -30 33 -31 81 -1 112 22 23 31 25 112 25
l89 0 -3 -77z m422 -1313 l0 -1290 -87 0 -88 0 3 1285 2 1284 83 4 c45 1 83 4
85 5 1 1 2 -578 2 -1288z m430 1200 l0 -80 -85 0 -85 0 0 80 0 80 85 0 85 0 0
-80z m-5160 -730 l0 -700 -650 0 -650 0 0 85 0 85 233 0 c262 0 278 4 311 75
26 53 16 102 -29 143 l-35 32 -240 0 -240 0 0 225 0 225 229 0 c221 0 229 1
262 23 57 39 76 106 44 166 -28 55 -59 61 -309 61 l-226 0 0 133 c0 74 3 137
7 140 3 4 296 7 650 7 l643 0 0 -700z m4304 538 c3 -13 6 -39 6 -58 0 -77 -3
-80 -93 -80 -98 0 -127 19 -127 81 0 59 33 79 130 79 72 0 78 -2 84 -22z
m-3814 -188 l0 -70 -78 0 -78 0 3 68 c1 37 2 68 2 70 1 1 35 2 76 2 l75 0 0
-70z m3360 0 l0 -70 -80 0 -80 0 0 70 0 70 80 0 80 0 0 -70z m1305 -1072 l1
-1038 -88 0 -88 0 0 1033 c0 569 3 1037 7 1041 4 4 43 5 88 4 l80 -3 0 -1037z
m-845 868 c0 -29 -3 -68 -6 -85 l-6 -31 -77 0 c-85 0 -111 11 -131 59 -9 24
-9 35 2 57 19 41 53 54 141 54 l77 0 0 -54z m-3820 -126 l0 -70 -80 0 c-90 0
-87 -4 -74 94 l7 46 73 0 74 0 0 -70z m3360 0 l0 -70 -80 0 -80 0 0 64 c0 42
4 66 13 69 6 3 42 6 80 6 l67 1 0 -70z m457 -238 c2 -26 1 -62 -2 -79 l-6 -33
-81 0 c-99 0 -128 19 -128 81 0 60 33 79 134 79 l81 0 2 -48z m-3817 -92 l0
-70 -77 0 -78 0 3 70 4 70 74 0 74 0 0 -70z m3778 -219 l42 -1 0 -75 0 -75
-57 -2 c-109 -4 -126 -1 -145 22 -25 31 -23 82 5 107 28 26 44 31 82 28 17 -2
49 -4 73 -4z m-437 -130 l29 -29 0 -156 0 -155 -26 -20 c-33 -26 -71 -26 -104
-1 -25 18 -25 22 -28 176 l-3 156 27 29 c35 37 68 37 105 0z m-3374 -3 c41
-45 42 -319 2 -359 -26 -26 -77 -24 -106 3 -22 21 -23 27 -23 177 0 145 1 156
22 178 28 30 78 31 105 1z m3853 -267 c0 -27 -3 -63 -6 -80 l-6 -31 -81 0
c-69 0 -84 3 -104 22 -38 36 -27 109 20 128 12 5 57 9 100 9 l77 1 0 -49z
m-4562 -45 c91 -32 156 -97 197 -196 18 -41 20 -79 23 -405 3 -399 6 -423 67
-507 70 -96 166 -138 317 -138 108 0 100 6 100 -70 0 -11 0 -39 -1 -61 l-1
-42 -117 6 c-174 8 -281 47 -374 134 -55 52 -101 120 -132 195 -21 50 -22 73
-27 433 -5 380 -5 380 -29 422 -44 77 -68 83 -349 83 l-242 0 0 80 0 80 264 0
c202 0 273 -3 304 -14z m4562 -315 c0 -27 -3 -63 -6 -80 l-6 -31 -83 0 c-72 0
-84 3 -102 23 -30 33 -34 55 -17 88 20 39 43 48 137 48 l77 1 0 -49z m-3761
-68 c56 -32 97 -113 86 -171 -16 -86 -60 -134 -143 -153 -47 -11 -130 12 -159
43 -80 88 -65 227 30 283 66 39 114 39 186 -2z m3241 12 c86 -44 122 -144 85
-233 -23 -53 -51 -79 -107 -98 -150 -50 -284 98 -219 242 42 93 154 134 241
89z m-4290 -113 c32 -26 38 -90 10 -124 -20 -26 -26 -28 -99 -28 -85 0 -103
10 -116 61 -8 30 15 82 42 98 31 18 138 13 163 -7z m1720 -122 l0 -80 -65 0
-65 0 0 80 0 80 65 0 65 0 0 -80z m320 0 l0 -80 -65 0 -65 0 0 80 0 80 65 0
65 0 0 -80z m310 0 l0 -80 -65 0 -65 0 0 73 c0 41 3 77 7 80 3 4 33 7 65 7
l58 0 0 -80z m320 0 l0 -81 -67 3 c-38 2 -67 6 -65 11 1 4 2 39 2 77 l0 70 65
0 65 0 0 -80z m310 0 l0 -80 -65 0 -65 0 0 73 c0 41 3 77 7 80 3 4 33 7 65 7
l58 0 0 -80z m320 0 l0 -80 -65 0 -65 0 0 80 0 80 65 0 65 0 0 -80z m320 0 l0
-80 -70 0 -70 0 0 80 0 80 70 0 70 0 0 -80z m1189 -104 c1 -41 -2 -77 -7 -80
-5 -3 -43 -6 -85 -7 -69 -3 -79 0 -102 21 -34 32 -34 79 1 114 25 24 33 26
109 26 l83 0 1 -74z m-2580 -153 c59 -44 76 -138 35 -201 -37 -57 -136 -66
-199 -18 l-34 26 -325 0 c-323 0 -325 0 -350 23 -39 34 -42 68 -11 105 l27 32
338 0 c272 0 339 3 343 13 3 8 20 21 39 31 40 20 100 15 137 -11z m1285 -20
c37 -37 43 -70 20 -112 -24 -45 -81 -64 -122 -41 -42 25 -65 63 -57 98 17 78
106 109 159 55z m-756 -8 c35 -30 48 -74 31 -107 -33 -64 -110 -78 -160 -29
-84 85 38 213 129 136z m-2788 -20 c61 -32 79 -121 35 -174 -76 -89 -215 -40
-215 76 0 38 5 50 34 79 28 28 42 34 75 34 23 0 55 -7 71 -15z m4294 -36 c47
-13 120 -79 149 -134 15 -29 21 -59 21 -110 1 -124 -70 -218 -185 -245 -165
-40 -319 78 -319 245 0 173 162 292 334 244z m966 -199 l0 -100 -85 0 -85 0 0
95 0 94 83 4 c45 1 83 4 85 5 1 1 2 -43 2 -98z m428 -2 l-3 -93 -89 -3 c-78
-2 -88 -1 -82 13 3 9 6 52 6 96 l0 79 85 0 86 0 -3 -92z m-858 -23 l0 -85 -74
0 c-63 0 -79 3 -100 23 -15 12 -29 36 -32 54 -5 27 -1 37 24 63 29 28 35 30
106 30 l76 0 0 -85z m-1427 -29 c76 -32 109 -110 78 -181 -10 -22 -25 -46 -34
-54 -15 -12 -17 -48 -17 -347 l0 -334 -85 0 -85 0 0 333 0 332 -25 49 c-14 27
-25 59 -25 71 0 38 44 107 80 126 41 23 69 24 113 5z m-2093 -131 l0 -85 -65
0 -65 0 0 85 0 85 65 0 65 0 0 -85z m330 -1 l0 -85 -70 3 -70 2 0 31 c0 16 3
54 6 83 l7 52 63 0 64 0 0 -86z m430 1 l0 -85 -65 0 -65 0 0 85 0 85 65 0 65
0 0 -85z m390 0 l0 -85 -34 0 c-18 0 -48 3 -65 6 l-31 7 0 72 c0 39 3 75 7 78
3 4 33 7 65 7 l58 0 0 -85z m320 0 l0 -85 -65 0 -65 0 0 85 0 85 65 0 65 0 0
-85z m-2775 -269 c55 -25 109 -80 133 -135 8 -20 16 -65 16 -101 2 -123 -70
-222 -183 -254 -264 -73 -448 251 -251 442 74 73 190 93 285 48z m5255 -158
l0 -183 -85 -3 -85 -4 0 186 0 186 85 0 85 0 0 -182z m430 3 l0 -180 -86 -3
c-47 -2 -88 -1 -90 1 -2 2 -4 85 -4 183 l0 178 90 0 90 0 0 -179z m-852 -208
c0 -16 -2 -54 -5 -85 l-5 -58 -78 0 c-75 0 -79 1 -104 31 -34 40 -33 79 0 113
25 24 33 26 109 26 l83 0 0 -27z"/>
<path d="M2133 7050 c-40 -24 -52 -73 -29 -118 20 -38 44 -52 91 -52 68 0 109
67 81 134 -23 56 -85 72 -143 36z"/>
<path d="M3937 5842 c-20 -46 -89 -117 -146 -152 l-40 -25 0 -940 0 -940 62
-45 c33 -25 77 -69 96 -97 l35 -53 966 0 965 0 19 34 c20 38 72 91 130 133
l38 28 5 940 5 940 -38 20 c-51 27 -127 105 -149 155 l-18 40 -957 0 -956 0
-17 -38z m333 -192 l0 -70 -84 0 c-74 0 -85 -2 -91 -18 -3 -11 -17 -24 -31
-31 -25 -11 -25 -11 -18 -106 l7 -95 -67 0 -66 0 0 119 0 119 75 76 75 76 100
0 100 0 0 -70z m280 0 l0 -70 -50 0 -50 0 0 70 0 70 50 0 50 0 0 -70z m274 39
c3 -17 6 -49 6 -70 l0 -39 -55 0 -55 0 0 70 0 70 49 0 c46 0 49 -1 55 -31z
m276 -39 l0 -70 -49 0 c-47 0 -49 1 -54 33 -2 17 -2 49 1 70 l5 37 48 0 49 0
0 -70z m270 0 l0 -70 -50 0 -50 0 0 70 0 70 50 0 50 0 0 -70z m425 19 c21 -28
55 -64 74 -80 l36 -28 -3 -116 -3 -115 -62 0 -62 0 3 95 c3 93 3 95 -22 105
-13 5 -30 18 -36 30 -9 18 -20 20 -90 20 l-80 0 0 70 0 70 103 0 103 0 39 -51z
m-237 -268 l32 -1 0 -680 0 -680 -680 0 -680 0 0 678 c0 373 2 681 4 683 4 3
1223 4 1324 0z m-1508 -286 l0 -55 -65 0 -65 0 0 48 c0 27 3 52 7 55 3 4 33 7
65 7 l58 0 0 -55z m1850 0 l0 -55 -49 0 c-73 0 -81 5 -81 55 0 50 5 53 78 54
l52 1 0 -55z m-1850 -270 l0 -55 -60 0 -60 0 0 49 c0 55 4 58 78 60 l42 1 0
-55z m1845 -2 l3 -53 -65 0 -64 0 5 53 c3 28 5 53 5 55 1 2 26 2 57 0 l56 -3
3 -52z m-1845 -283 l0 -61 -62 3 -63 3 -1 50 c0 28 1 53 3 58 3 4 31 7 64 7
l59 0 0 -60z m1850 0 l0 -60 -42 0 c-79 0 -88 6 -88 59 0 26 3 51 7 54 3 4 33
7 65 7 l58 0 0 -60z m-1850 -270 l0 -50 -60 0 -60 0 0 50 0 50 60 0 60 0 0
-50z m1842 0 l3 -50 -62 0 -63 0 0 50 0 50 59 0 59 0 4 -50z m-1842 -300 c0
-75 1 -80 21 -80 12 0 23 -8 26 -20 5 -18 14 -20 89 -20 l84 0 0 -63 0 -64
-112 2 -113 1 -65 65 -65 64 0 97 0 98 68 0 67 0 0 -80z m1850 -25 c0 -63 -4
-105 -10 -105 -6 0 -35 -26 -66 -57 l-56 -58 -109 -1 -109 -1 0 64 0 63 84 0
c75 0 84 2 89 20 3 12 14 20 26 20 21 0 25 24 24 143 0 14 10 17 64 17 l63 0
0 -105z m-1350 -149 l0 -64 -50 -4 -50 -3 0 62 0 62 48 4 c26 2 48 4 50 5 1 1
2 -27 2 -62z m270 -1 l0 -65 -50 0 -50 0 0 59 0 60 48 4 c26 2 48 4 50 5 1 1
2 -27 2 -63z m550 -9 l0 -68 -31 6 c-17 3 -40 6 -50 6 -16 0 -19 8 -19 59 0
66 4 70 62 68 l38 -2 0 -69z m-270 5 l0 -59 -50 -4 -50 -3 0 63 0 62 50 0 50
0 0 -59z"/>
<path d="M4775 5214 c-134 -29 -252 -100 -361 -216 -61 -65 -81 -113 -64 -162
14 -43 39 -65 82 -72 45 -8 78 9 161 85 159 144 332 176 502 92 33 -17 98 -65
144 -107 81 -73 85 -76 124 -71 60 8 89 43 95 113 l5 57 -92 88 c-99 96 -194
158 -281 184 -79 24 -230 28 -315 9z"/>
<path d="M4806 4785 c-81 -21 -149 -62 -229 -138 -81 -78 -101 -119 -88 -179
13 -55 50 -88 98 -88 32 0 45 9 107 74 91 94 121 110 211 111 59 0 78 -4 117
-28 27 -15 66 -52 88 -81 57 -75 101 -92 160 -61 54 28 76 105 46 163 -25 49
-160 168 -227 201 -79 39 -191 49 -283 26z"/>
<path d="M4883 4402 c-12 -2 -34 -17 -49 -35 -77 -91 59 -207 138 -118 35 39
36 80 3 119 -25 30 -52 40 -92 34z"/>
<path d="M2388 4694 c-15 -8 -32 -23 -38 -34 -6 -11 -10 -97 -10 -205 0 -203
8 -240 55 -265 50 -27 119 -7 147 42 9 16 14 83 16 209 3 165 2 190 -14 213
-34 52 -102 70 -156 40z"/>
<path d="M6439 2611 c-21 -22 -29 -39 -29 -66 0 -44 45 -95 84 -95 57 0 106
46 106 101 0 11 -15 36 -34 55 -44 44 -86 46 -127 5z"/>
<path d="M2141 1986 c-86 -48 -54 -186 44 -186 29 0 45 8 72 35 32 32 35 40
30 73 -12 71 -86 111 -146 78z"/>
<path d="M4791 7138 c-159 -61 -228 -247 -151 -404 59 -121 164 -182 295 -172
159 13 274 131 283 291 4 63 1 75 -32 143 -41 82 -76 115 -156 145 -68 26
-168 25 -239 -3z"/>
<path d="M3133 1986 c-108 -27 -208 -91 -262 -170 -56 -81 -71 -148 -71 -316
l0 -150 588 -1 c323 -1 854 -2 1179 -3 l593 -1 0 216 c0 242 -9 295 -62 355
-17 19 -50 45 -72 57 l-41 22 -900 2 c-696 1 -912 -1 -952 -11z m472 -224 c3
-21 5 -59 4 -85 l-3 -47 -68 0 -68 0 0 85 0 85 64 0 64 0 7 -38z m375 -47 l0
-85 -70 0 -70 0 0 54 c0 29 3 68 6 85 6 31 7 31 70 31 l64 0 0 -85z m380 0 l0
-85 -49 0 c-27 0 -56 -3 -65 -6 -14 -5 -16 6 -16 85 l0 91 65 0 65 0 0 -85z
m388 -2 l-3 -88 -64 1 -65 0 1 32 c1 18 2 57 2 87 l1 55 65 0 66 0 -3 -87z"/>
</g>
</svg>
