<?xml version="1.0" standalone="no"?>
<!DOCTYPE svg PUBLIC "-//W3C//DTD SVG 20010904//EN"
 "http://www.w3.org/TR/2001/REC-SVG-20010904/DTD/svg10.dtd">
<svg version="1.0" xmlns="http://www.w3.org/2000/svg"
 width="1024.000000pt" height="1024.000000pt" viewBox="0 0 1024.000000 1024.000000"
 preserveAspectRatio="xMidYMid meet">
<metadata>
Created by potrace 1.16, written by Peter Selinger 2001-2019
</metadata>
<g transform="translate(0.000000,1024.000000) scale(0.100000,-0.100000)"
fill="#000000" stroke="none">
<path d="M3481 8064 c-151 -40 -287 -173 -340 -332 -19 -56 -21 -85 -21 -357
0 -185 -4 -304 -10 -316 -10 -18 -28 -19 -615 -19 -593 0 -605 0 -662 -21
-140 -52 -238 -154 -295 -305 l-23 -59 -3 -965 c-2 -612 1 -996 7 -1050 20
-167 130 -324 278 -396 l58 -29 423 -3 422 -3 0 -77 c0 -60 5 -88 24 -128 27
-58 94 -120 145 -134 20 -6 173 -10 351 -10 283 0 319 2 355 19 104 47 147
115 155 241 l5 85 252 0 251 0 259 -132 258 -131 3 -561 2 -560 -382 -3 -383
-3 -67 -26 c-178 -69 -305 -210 -353 -389 -8 -30 -15 -67 -15 -82 l0 -28 -555
0 c-597 0 -603 -1 -639 -51 -31 -45 -15 -118 34 -156 12 -10 606 -12 2705 -13
2472 0 2692 1 2714 16 56 39 58 125 5 175 l-26 24 -569 3 -569 2 -4 23 c-31
151 -48 195 -111 282 -49 69 -104 118 -185 163 -104 58 -140 62 -539 62 l-361
0 0 555 0 554 68 39 c103 60 344 189 399 214 45 21 65 23 296 26 l247 4 0 -69
c0 -128 53 -220 150 -262 50 -21 60 -22 383 -19 367 3 361 2 430 72 49 49 67
96 74 191 l6 84 417 3 416 3 76 37 c128 64 224 186 263 334 23 88 23 2011 0
2099 -41 154 -173 299 -312 341 -40 12 -148 15 -628 14 -319 0 -595 2 -612 6
l-33 7 0 296 c0 257 -2 305 -18 362 -45 162 -178 302 -333 350 -59 18 -117 19
-1637 18 -1345 0 -1585 -2 -1631 -15z m3227 -240 c61 -30 96 -69 130 -143 l25
-55 5 -821 c4 -856 1 -960 -37 -1032 -33 -64 -89 -120 -149 -150 l-57 -28
-1515 0 -1515 0 -57 27 c-76 36 -140 101 -169 174 l-24 59 0 880 c0 697 3 888
13 917 28 79 104 157 179 184 31 11 318 13 1579 14 l1540 0 52 -26z m-3596
-1047 c3 -24 3 -57 0 -75 l-4 -32 -557 -2 -556 -3 -31 -22 c-67 -48 -64 0 -64
-950 0 -839 1 -859 20 -891 11 -18 34 -41 52 -52 32 -20 53 -20 1208 -20
l1175 0 36 24 c65 45 69 63 69 350 l0 256 150 0 150 0 0 -565 c0 -412 -3 -565
-11 -565 -6 0 -73 32 -148 72 -75 39 -164 86 -199 105 l-64 33 -1177 0 c-1304
0 -1239 -3 -1318 65 -23 20 -54 61 -70 93 l-28 57 0 970 c0 800 2 977 14 1009
16 46 78 116 130 148 l36 23 585 5 c322 3 588 6 591 8 4 1 9 -17 11 -41z
m5194 14 c58 -26 109 -75 136 -129 l23 -47 0 -980 c0 -975 0 -980 -21 -1026
-29 -63 -74 -110 -131 -139 l-48 -25 -1197 -3 -1196 -2 -159 -88 c-87 -49
-179 -101 -205 -116 l-48 -28 0 576 0 576 150 0 150 0 0 -261 c0 -291 4 -311
65 -349 32 -20 47 -20 1202 -20 l1170 0 33 23 c19 12 43 38 54 57 21 34 21 48
24 880 2 559 0 857 -7 880 -6 20 -24 49 -41 65 l-31 30 -565 3 -564 2 0 70 0
70 583 0 c544 0 585 -2 623 -19z m-5627 -347 c17 -14 31 -30 31 -36 0 -8 -282
-300 -468 -485 -41 -40 -73 -42 -101 -7 -20 25 -21 39 -21 258 0 248 3 266 54
286 11 5 123 9 248 9 l226 1 31 -26z m194 -676 l-238 -238 -61 0 c-47 0 -68 5
-87 21 -33 25 -51 88 -42 147 6 41 22 59 333 367 l327 324 3 -192 2 -191 -237
-238z m2197 -1132 c0 -289 -4 -436 -10 -426 -7 11 -10 4 -10 -27 0 -23 -4 -45
-10 -48 -5 -3 -10 -19 -10 -35 0 -16 -4 -32 -10 -35 -6 -4 -10 -58 -10 -131 0
-76 -4 -124 -10 -124 -7 0 -10 236 -10 687 l0 687 40 -54 40 -54 0 -440z
m-2026 -469 c10 -67 2 -77 -55 -75 l-49 2 0 52 c0 28 3 54 7 57 3 4 25 7 49 7
42 0 42 0 48 -43z m3766 -12 l0 -55 -54 0 c-46 0 -54 3 -51 18 2 9 4 34 4 55
l1 37 50 0 50 0 0 -55z m-1743 -27 c-3 -7 -5 -2 -5 12 0 14 2 19 5 13 2 -7 2
-19 0 -25z m-60 -590 c-4 -145 -3 -361 0 -481 l6 -217 31 -9 c30 -9 30 -10
-10 -8 l-42 2 0 488 c0 322 3 487 10 487 7 0 8 -88 5 -262z m-88 -984 c-55
-59 -51 -59 -469 -64 l-385 -5 -51 -27 c-56 -30 -103 -77 -123 -126 -12 -29
-17 -32 -58 -32 l-45 0 7 33 c16 72 72 152 135 192 85 53 91 54 569 55 l444 0
-24 -26z"/>
<path d="M3615 7703 c-11 -3 -35 -16 -53 -30 -66 -50 -62 2 -63 -906 0 -453 3
-832 7 -843 15 -41 49 -77 88 -94 38 -16 144 -17 1521 -16 l1480 1 35 22 c20
12 46 40 58 61 l22 40 0 821 c0 909 3 865 -66 917 l-37 29 -1486 1 c-817 1
-1495 0 -1506 -3z m769 -224 c18 -14 26 -30 26 -52 0 -28 -33 -65 -287 -320
-159 -159 -300 -295 -315 -303 -40 -21 -74 -4 -88 43 -7 26 -9 131 -6 323 l6
285 25 23 c26 22 30 22 319 22 282 0 294 -1 320 -21z m915 6 c30 -15 49 -55
43 -91 -1 -11 -211 -228 -465 -482 l-463 -462 -57 0 c-48 0 -62 4 -82 24 -33
33 -41 85 -20 126 9 18 213 228 452 466 l435 434 65 0 c37 0 76 -6 92 -15z"/>
<path d="M5071 5786 c-53 -30 -64 -89 -25 -135 35 -42 88 -43 128 -2 22 23 27
36 24 66 -5 60 -76 100 -127 71z"/>
<path d="M2370 4664 c-30 -22 -38 -32 -46 -62 -15 -54 53 -122 108 -109 40 10
78 55 78 91 0 65 -89 115 -140 80z"/>
<path d="M3158 4664 c-34 -18 -48 -43 -48 -87 0 -41 40 -87 77 -87 37 0 81 27
99 61 20 40 4 83 -40 110 -37 23 -52 23 -88 3z"/>
<path d="M2686 4639 c-42 -49 -29 -102 34 -134 42 -22 58 -19 96 19 41 41 43
73 8 115 -21 26 -33 31 -69 31 -36 0 -48 -5 -69 -31z"/>
<path d="M6964 4665 c-30 -12 -54 -50 -54 -85 0 -11 13 -34 29 -52 22 -25 36
-32 66 -32 30 0 44 7 66 32 35 39 37 72 7 107 -30 34 -76 46 -114 30z"/>
<path d="M7408 4665 c-53 -30 -64 -95 -24 -142 19 -22 32 -28 66 -28 35 0 47
6 71 33 16 18 29 39 29 47 0 69 -83 122 -142 90z"/>
<path d="M1943 2265 c-33 -14 -63 -59 -63 -95 0 -34 28 -79 61 -96 67 -34 149
18 149 95 0 43 -20 75 -60 96 -35 18 -46 18 -87 0z"/>
<path d="M8180 2261 c-77 -40 -73 -154 6 -187 45 -19 83 -11 117 24 51 54 43
116 -22 159 -41 28 -56 28 -101 4z"/>
</g>
</svg>
