<?xml version="1.0" standalone="no"?>
<!DOCTYPE svg PUBLIC "-//W3C//DTD SVG 20010904//EN"
 "http://www.w3.org/TR/2001/REC-SVG-20010904/DTD/svg10.dtd">
<svg version="1.0" xmlns="http://www.w3.org/2000/svg"
 width="1024.000000pt" height="1024.000000pt" viewBox="0 0 1024.000000 1024.000000"
 preserveAspectRatio="xMidYMid meet">
<metadata>
Created by potrace 1.16, written by Peter Selinger 2001-2019
</metadata>
<g transform="translate(0.000000,1024.000000) scale(0.100000,-0.100000)"
fill="#000000" stroke="none">
<path d="M4510 8943 c-8 -3 -46 -27 -85 -53 -131 -88 -91 -81 -521 -83 l-384
-2 0 -83 0 -83 -185 3 -185 3 0 -37 0 -38 -195 0 -195 0 0 -57 0 -58 -527 3
c-291 2 -543 0 -560 -3 l-33 -6 0 -92 c0 -59 4 -97 12 -105 9 -9 147 -12 560
-12 l548 0 0 -70 0 -70 195 0 195 0 0 -40 0 -41 185 3 185 3 0 -62 0 -63 384
0 384 0 64 -43 c35 -24 84 -57 109 -75 l47 -32 1125 0 c1114 0 1126 0 1193 21
107 33 183 77 259 154 119 119 175 255 175 426 0 226 -119 419 -326 526 -145
76 -98 73 -1321 72 -598 0 -1095 -3 -1103 -6z m2246 -232 c114 -40 193 -110
248 -218 87 -174 -4 -398 -204 -496 l-65 -32 -1068 -3 -1069 -2 -120 80 -120
80 -99 0 -99 0 0 235 0 235 100 0 c113 0 128 5 258 91 l73 49 447 2 c246 2
719 2 1053 1 585 -1 607 -2 665 -22z m-2806 -356 l0 -235 -113 0 -114 0 -6
179 c-3 99 -3 205 0 235 l6 56 113 0 114 0 0 -235z m-442 -32 l-3 -98 -85 0
-85 1 -3 97 -3 97 91 0 91 0 -3 -97z m-398 17 l0 -40 -55 0 -55 0 0 40 0 40
55 0 55 0 0 -40z"/>
<path d="M4295 8473 c-32 -8 -55 -34 -55 -62 0 -34 10 -48 43 -60 20 -8 430
-11 1312 -11 l1283 0 31 26 c38 31 39 53 5 85 l-26 24 -1286 1 c-708 1 -1296
0 -1307 -3z"/>
<path d="M1572 8833 c-31 -6 -45 -38 -39 -92 9 -81 8 -81 326 -81 152 0 293 4
314 9 49 12 66 35 67 88 0 33 -5 46 -26 62 -26 20 -37 21 -323 20 -163 -1
-306 -4 -319 -6z"/>
<path d="M8262 8758 l3 -73 70 0 70 0 3 73 3 72 -76 0 -76 0 3 -72z"/>
<path d="M7550 7840 l0 -879 523 -3 c287 -2 525 -2 530 0 4 2 7 263 7 581 l0
577 -77 47 c-43 25 -86 49 -96 53 -17 6 -18 -15 -17 -507 1 -283 1 -522 1
-531 -1 -15 -11 -18 -56 -18 l-55 0 0 564 0 564 -85 51 c-46 28 -86 51 -90 51
-3 0 -5 -277 -5 -615 l0 -615 -60 0 -60 0 0 653 0 652 -76 45 c-43 25 -81 47
-85 48 -5 2 -9 -312 -9 -697 l0 -701 -60 0 -60 0 0 735 0 735 -77 45 c-43 25
-81 45 -85 45 -5 0 -8 -396 -8 -880z"/>
<path d="M1572 7813 l3 -78 538 -3 537 -2 0 80 0 80 -540 0 -541 0 3 -77z"/>
<path d="M3337 7593 c-4 -3 -7 -44 -7 -90 l0 -83 -872 -1 c-480 -1 -884 -4
-898 -8 -24 -7 -25 -9 -22 -87 2 -43 6 -82 10 -86 4 -4 406 -8 895 -9 l887 -2
0 -83 c0 -80 1 -84 23 -85 12 -1 127 -1 255 1 l232 2 0 -78 0 -79 207 0 208 0
5 -2186 c5 -2136 5 -2187 24 -2208 11 -12 35 -26 55 -32 47 -14 85 1 111 43
20 33 20 52 20 2211 l0 2177 220 0 220 0 0 345 0 345 -783 0 c-431 0 -787 -3
-790 -7z m531 -265 l3 -68 -160 0 -161 0 0 63 c0 35 3 67 7 71 4 4 75 6 158 4
l150 -3 3 -67z m802 66 l35 -6 -3 -139 -3 -139 -360 0 -359 0 0 145 0 145 328
0 c180 0 343 -3 362 -6z"/>
<path d="M6733 7572 l-503 -2 0 -79 0 -78 98 -6 c53 -4 287 -7 518 -7 351 0
424 2 433 14 7 9 11 41 9 82 -3 63 -5 68 -28 73 -14 3 -251 5 -527 3z"/>
<path d="M5482 7493 l3 -78 68 -3 67 -3 0 80 0 81 -70 0 -71 0 3 -77z"/>
<path d="M5780 7495 c0 -72 1 -75 24 -75 13 0 44 -3 70 -6 l46 -7 0 82 0 81
-70 0 -70 0 0 -75z"/>
<path d="M5206 7268 c-3 -7 -7 -49 -10 -93 -3 -44 -17 -172 -31 -285 -13 -113
-31 -270 -40 -350 -108 -1025 -104 -992 -120 -986 -7 2 -42 25 -79 50 -83 57
-120 65 -174 37 -23 -12 -46 -30 -52 -40 -16 -30 -11 -94 8 -117 19 -22 195
-142 632 -429 140 -92 264 -175 275 -186 19 -17 20 -26 14 -96 -4 -43 -8 -89
-8 -101 l-1 -24 -47 28 c-27 15 -169 108 -316 206 -147 98 -276 178 -285 178
-10 0 -28 -7 -40 -16 -18 -12 -22 -25 -22 -67 0 -94 -50 -143 -173 -171 -37
-9 -79 -23 -93 -32 -33 -22 -64 -84 -64 -130 0 -46 39 -85 166 -166 49 -32 99
-66 112 -76 l24 -18 -106 -318 c-58 -174 -110 -345 -116 -379 -8 -42 -10 -365
-8 -1002 l3 -940 24 -70 c41 -125 89 -203 181 -296 100 -102 184 -149 307
-174 69 -14 148 -16 574 -12 546 4 540 3 684 72 137 66 250 199 309 364 l31
86 3 979 c3 1134 18 967 -127 1404 -49 147 -92 274 -95 283 -5 11 25 36 118
97 152 100 170 120 163 184 -6 71 -44 114 -115 133 -141 39 -196 87 -207 179
-8 58 -29 86 -66 86 -9 0 -156 -94 -325 -210 l-309 -210 -11 107 c-11 105 -11
108 9 123 12 8 215 145 452 303 236 158 438 298 447 310 38 49 14 133 -48 162
-57 27 -109 9 -215 -74 l-25 -20 -22 192 c-103 894 -172 1507 -172 1521 0 14
-25 16 -239 16 l-239 0 -11 -32 c-5 -18 -11 -42 -13 -53 -3 -12 -9 1 -17 33
l-13 52 -239 0 c-183 0 -241 -3 -243 -12z m402 -320 c-5 -57 -24 -261 -43
-455 -19 -194 -35 -364 -35 -378 0 -22 4 -25 35 -25 l35 0 0 -80 0 -79 -32
-17 c-18 -9 -50 -33 -71 -53 -155 -146 -102 -427 92 -496 40 -14 42 -14 58 11
16 24 15 26 -21 63 -59 60 -67 122 -24 184 40 57 116 73 176 37 39 -24 72 -75
72 -113 0 -42 -28 -95 -61 -114 -32 -19 -36 -39 -16 -67 12 -17 18 -17 52 -6
51 17 131 92 163 155 37 70 38 187 3 259 -28 56 -87 118 -131 136 -30 12 -30
12 -30 96 l0 84 35 0 c41 0 40 -2 25 130 -5 47 -26 243 -45 435 -19 193 -38
360 -40 373 -5 22 -4 22 105 22 96 0 110 -2 110 -17 0 -35 53 -501 141 -1238
21 -181 38 -343 38 -360 -1 -28 -19 -42 -242 -191 l-242 -160 -31 20 c-17 12
-126 84 -242 161 -148 97 -212 145 -212 158 0 27 75 724 109 1018 17 140 38
334 47 432 l18 177 106 0 106 0 -8 -102z m-148 -2532 c0 -28 -9 -233 -20 -456
-10 -223 -22 -470 -25 -550 -3 -80 -8 -184 -11 -232 -6 -84 -7 -87 -39 -110
-19 -13 -48 -41 -64 -62 l-31 -39 0 385 c0 226 6 473 14 599 8 118 17 262 21
320 l6 107 -213 142 c-117 78 -214 146 -216 150 -2 5 5 11 15 14 10 3 41 24
68 45 l50 38 223 -149 222 -150 0 -52z m996 308 c22 -18 51 -37 64 -42 24 -9
-8 -33 -348 -261 l-54 -36 6 -80 c26 -340 36 -598 36 -940 l0 -391 -64 62 -63
62 -7 169 c-4 92 -11 240 -16 328 -6 88 -19 309 -30 490 -11 182 -20 342 -20
357 0 22 14 37 88 88 205 144 348 236 357 231 6 -2 28 -19 51 -37z m-706 -659
c33 -602 48 -947 60 -1365 27 -957 25 -913 43 -947 24 -45 85 -102 132 -124
119 -55 289 14 341 137 21 50 20 1946 -1 2214 -18 230 -19 283 -4 278 7 -2 21
-26 32 -53 53 -135 169 -457 183 -508 22 -87 21 -1875 -2 -1962 -45 -175 -176
-295 -353 -325 -45 -7 -210 -10 -507 -8 -391 3 -445 6 -494 22 -103 34 -202
122 -250 221 -63 128 -61 93 -58 1097 l3 913 48 138 c81 230 173 459 183 455
11 -4 10 -37 -11 -310 -12 -166 -15 -401 -15 -1172 l0 -964 28 -53 c68 -130
215 -174 351 -105 64 33 117 102 130 171 5 28 12 194 16 370 15 819 58 1788
97 2225 11 127 13 132 20 80 4 -30 17 -221 28 -425z"/>
<path d="M6670 6763 c5 -412 5 -419 28 -465 32 -64 122 -145 178 -160 l44 -12
2 -2422 3 -2422 24 -26 c46 -49 125 -41 165 16 14 20 16 265 16 2440 l0 2418
35 14 c52 22 135 105 161 161 24 50 24 51 24 463 l0 412 -125 0 -125 0 0 -174
0 -175 -94 -3 -95 -3 -5 29 c-3 16 -6 95 -6 177 l0 149 -117 0 -118 0 5 -417z
m510 -225 c0 -97 -17 -141 -69 -175 -71 -48 -163 -38 -225 25 -42 41 -56 84
-56 170 l0 62 175 0 175 0 0 -82z"/>
<path d="M1664 6972 c4 -10 35 -162 71 -338 65 -323 100 -483 106 -488 2 -2
68 -51 147 -110 l142 -107 0 -369 0 -370 -130 0 -130 0 0 -100 c0 -88 2 -100
19 -110 11 -5 69 -10 130 -10 l111 0 0 -232 -1 -233 -132 -100 -132 -100 -3
-865 c-2 -837 -2 -867 18 -930 55 -183 233 -339 437 -384 258 -57 545 43 706
246 54 67 124 221 142 310 13 67 15 253 15 1452 0 947 -3 1383 -11 1403 -15
40 -57 82 -104 104 -44 20 -138 25 -180 9 -25 -10 -26 -11 -23 -102 l3 -93 43
-3 c55 -4 62 -21 62 -158 l0 -104 -110 0 -110 0 1 378 0 377 131 95 c159 115
158 115 158 149 0 16 34 190 75 387 42 197 78 371 81 387 l6 27 -772 0 c-743
0 -771 -1 -766 -18z m375 -295 c64 -294 82 -351 109 -355 12 -2 22 1 22 7 0
79 -29 399 -46 514 -6 36 -5 37 24 37 29 0 29 -1 40 -82 6 -46 26 -172 43
-280 32 -196 33 -198 57 -198 l25 0 -5 280 -6 280 27 0 27 0 13 -182 c7 -101
18 -228 25 -283 10 -91 13 -100 31 -97 11 2 21 5 21 5 6 6 24 353 24 445 l0
112 33 0 32 0 -3 -137 c-1 -76 1 -203 5 -283 8 -136 9 -145 28 -145 24 0 30
35 66 358 l22 207 30 0 30 0 -7 -82 c-30 -369 -33 -488 -13 -488 6 0 17 4 23
8 13 8 53 190 84 382 32 199 24 180 82 180 49 0 50 -1 44 -25 -14 -55 -95
-473 -101 -522 l-7 -51 -144 -112 -144 -112 0 -838 0 -839 43 -23 c41 -23 42
-25 45 -81 2 -31 1 -57 -1 -57 -2 0 -25 7 -51 16 -105 36 -245 1 -307 -76 -58
-72 -60 -95 -57 -787 3 -699 -1 -659 73 -749 51 -61 122 -94 207 -94 177 0
304 119 329 308 4 37 8 416 9 843 l0 777 -35 26 -35 27 0 228 0 229 31 6 c17
3 65 6 105 6 l74 0 0 -1092 c0 -1188 0 -1171 -56 -1286 -15 -30 -53 -83 -86
-118 -253 -270 -694 -161 -758 189 -7 35 -10 310 -8 763 l3 709 25 34 c31 41
171 148 228 173 l42 19 0 839 0 840 -67 54 c-38 30 -106 83 -153 118 l-84 63
-28 135 c-15 74 -42 208 -61 298 l-35 162 37 0 36 0 44 -203z"/>
<path d="M7487 6633 c-10 -61 -45 -344 -67 -540 -21 -188 -25 -411 -13 -620
l6 -113 104 0 103 0 0 110 0 110 135 0 135 0 0 -110 0 -111 103 3 102 3 0 305
c0 289 -2 321 -38 615 -20 171 -40 327 -43 348 l-6 37 -258 0 -257 0 -6 -37z
m349 -473 c-6 -249 -5 -283 10 -305 31 -48 15 -56 -98 -53 -99 3 -103 4 -106
26 -2 13 3 31 12 40 13 15 13 39 6 172 -5 85 -9 210 -10 278 l0 122 97 0 96 0
-7 -280z"/>
<path d="M8430 6655 c-9 -11 -10 -89 -5 -340 9 -369 2 -345 94 -345 38 0 56 5
71 20 19 19 20 33 20 338 0 234 -3 321 -12 330 -18 18 -152 16 -168 -3z"/>
<path d="M3533 6621 c-110 -28 -229 -124 -278 -226 -56 -114 -55 -260 1 -371
15 -30 54 -79 86 -110 l58 -55 0 -992 c0 -661 4 -1005 11 -1030 5 -21 23 -53
40 -71 l29 -34 0 -671 0 -670 -30 -16 c-45 -23 -155 -130 -190 -185 -18 -27
-44 -82 -58 -122 -23 -64 -26 -89 -26 -208 -1 -124 2 -141 26 -202 129 -324
471 -475 798 -352 261 99 424 376 381 651 -29 188 -128 329 -302 430 l-79 46
0 1786 0 1786 21 55 c29 76 36 200 16 271 -36 122 -131 226 -245 270 -62 23
-204 34 -259 20z m214 -258 c79 -63 97 -142 55 -237 l-22 -49 0 -1124 0 -1124
-80 42 -80 41 0 1058 0 1058 -27 5 c-43 9 -95 49 -121 92 -33 57 -28 148 11
199 43 56 90 77 164 73 52 -2 69 -8 100 -34z m29 -2759 c21 -9 24 -105 24
-735 l0 -626 66 -18 c77 -21 170 -80 215 -136 147 -186 81 -453 -139 -561 -62
-31 -74 -33 -167 -33 -87 0 -108 4 -157 27 -112 52 -192 156 -218 284 -14 67
-2 153 32 223 34 71 125 155 198 182 l60 22 0 703 0 704 38 -16 c20 -9 42 -18
48 -20z"/>
<path d="M1723 5635 c-66 -33 -117 -90 -157 -174 l-31 -66 0 -1530 0 -1530 23
-65 c34 -94 103 -199 175 -267 78 -73 132 -105 222 -132 68 -21 86 -21 555
-19 l485 3 9 58 c6 36 6 68 0 85 l-9 27 -450 5 c-480 6 -466 5 -572 58 -107
55 -211 207 -232 342 -12 73 -16 2578 -4 2816 l6 139 33 33 c28 28 38 32 87
32 48 0 55 3 61 23 9 34 7 150 -4 167 -6 9 -31 15 -77 18 -58 3 -76 -1 -120
-23z"/>
<path d="M8287 5644 c-27 -15 -28 -17 -25 -92 l3 -76 42 -16 c54 -20 81 -45
93 -89 14 -49 14 -2898 0 -2972 -23 -124 -114 -252 -217 -306 -104 -56 -110
-56 -533 -62 l-395 -6 -3 -55 c-2 -30 -1 -70 3 -88 l6 -33 442 3 c435 4 443 4
506 27 146 54 271 167 337 305 68 142 65 48 62 1726 l-3 1515 -22 48 c-65 141
-204 221 -296 171z"/>
<path d="M7250 5086 c0 -120 -3 -116 96 -116 l64 0 0 -239 0 -240 -50 -38 -49
-38 -1 -1035 0 -1035 25 -37 c48 -70 180 -149 254 -150 72 -1 79 9 77 114 l-2
93 -47 23 -47 22 0 65 c0 36 4 65 8 65 4 0 25 -9 47 -20 86 -44 222 -12 281
65 28 37 29 42 37 209 4 94 6 419 5 721 -3 542 -3 551 -25 590 -62 115 -182
155 -300 100 l-53 -24 0 70 c0 64 2 70 25 81 l25 11 0 319 0 319 123 -7 c67
-4 124 -8 126 -10 3 -2 5 -144 6 -316 l2 -311 62 -49 c72 -57 125 -126 141
-183 8 -28 10 -256 8 -755 l-3 -715 -30 -59 c-37 -74 -105 -143 -173 -176
l-52 -25 0 -101 c0 -112 1 -114 66 -114 49 0 167 63 230 121 29 29 68 79 88
118 68 131 66 92 66 1048 l0 862 -100 88 -100 88 0 242 c0 187 3 243 13 244 6
0 46 3 86 5 41 3 77 7 80 10 4 3 8 50 9 105 l4 99 -511 0 -511 0 0 -104z"/>
<path d="M1552 1764 c-22 -15 -22 -20 -22 -223 0 -148 3 -210 12 -219 9 -9 80
-12 258 -12 278 0 276 -1 287 77 4 32 0 45 -20 69 l-25 29 -164 0 -163 0 -3
134 c-1 79 -7 140 -14 148 -15 19 -118 17 -146 -3z"/>
<path d="M8460 1773 c-27 -10 -30 -26 -30 -160 l0 -133 -184 0 -185 0 -21 -27
c-26 -33 -23 -92 6 -124 16 -18 33 -19 284 -19 l268 0 6 23 c3 12 6 109 6 215
0 179 -1 193 -20 212 -15 15 -33 20 -67 19 -27 0 -55 -3 -63 -6z"/>
<path d="M2253 1585 l-1 -75 279 0 279 0 0 75 0 75 -279 0 -278 0 0 -75z"/>
<path d="M7430 1585 l0 -74 210 -3 210 -3 5 25 c2 14 4 49 3 78 l-1 52 -214 0
-213 0 0 -75z"/>
</g>
</svg>
