<?xml version="1.0" standalone="no"?>
<!DOCTYPE svg PUBLIC "-//W3C//DTD SVG 20010904//EN"
 "http://www.w3.org/TR/2001/REC-SVG-20010904/DTD/svg10.dtd">
<svg version="1.0" xmlns="http://www.w3.org/2000/svg"
 width="1024.000000pt" height="1024.000000pt" viewBox="0 0 1024.000000 1024.000000"
 preserveAspectRatio="xMidYMid meet">
<metadata>
Created by potrace 1.16, written by Peter Selinger 2001-2019
</metadata>
<g transform="translate(0.000000,1024.000000) scale(0.100000,-0.100000)"
fill="#000000" stroke="none">
<path d="M4025 7829 c-160 -15 -354 -73 -470 -140 -67 -38 -150 -105 -200
-161 -81 -89 -69 -68 -520 -913 -108 -203 -221 -413 -250 -465 -50 -90 -107
-197 -313 -585 -49 -93 -190 -359 -313 -590 -280 -524 -325 -615 -344 -691
-14 -54 -15 -158 -13 -791 l3 -728 32 -66 c84 -170 272 -303 521 -367 62 -16
207 -17 2147 -17 l2080 0 100 28 c181 49 340 141 451 259 63 67 97 117 169
248 31 58 77 139 100 180 23 41 118 210 210 375 92 165 233 415 312 555 80
140 166 293 193 340 26 47 95 168 152 270 200 352 426 756 456 816 71 140 67
83 67 1049 l0 870 -23 59 c-84 223 -316 385 -650 454 -69 14 -276 16 -1942 18
-1026 1 -1905 -2 -1955 -7z m558 -342 c15 -7 44 -34 65 -62 69 -93 -43 -85
1236 -85 842 0 1139 3 1168 12 28 8 55 29 90 70 34 39 63 62 87 69 24 7 133 9
316 7 303 -5 338 -10 461 -67 113 -53 180 -133 190 -229 5 -41 0 -59 -40 -141
-66 -133 -123 -227 -143 -237 -10 -5 -216 -11 -458 -14 -487 -6 -495 -7 -563
-73 -81 -78 -54 -204 53 -248 20 -8 117 -15 288 -18 257 -6 259 -6 278 -30 10
-13 19 -28 19 -35 0 -6 -19 -43 -41 -81 -23 -39 -88 -155 -146 -260 -57 -104
-116 -202 -131 -217 -23 -23 -40 -29 -108 -36 -106 -12 -157 -40 -190 -104
-36 -69 -8 -149 71 -202 62 -41 63 -32 -5 -156 -26 -47 -87 -157 -134 -245
-48 -88 -100 -172 -115 -186 -26 -24 -35 -26 -166 -32 -76 -4 -208 -7 -294 -7
-86 0 -172 -5 -192 -10 -90 -25 -156 -108 -144 -183 8 -52 30 -84 79 -110 39
-21 56 -22 351 -27 171 -3 316 -9 323 -13 6 -5 19 -21 27 -37 19 -37 14 -51
-83 -212 -153 -258 -328 -374 -597 -398 -142 -13 -3531 -13 -3670 0 -127 12
-191 29 -292 75 -123 57 -213 161 -213 246 0 100 88 284 155 322 14 9 162 13
495 17 463 5 476 6 515 27 49 26 90 68 104 106 25 66 -40 163 -126 186 -21 6
-118 11 -216 11 -204 0 -236 9 -237 64 0 10 39 91 86 180 48 88 105 195 127
236 69 129 72 132 172 145 85 12 151 56 175 119 16 43 -4 91 -63 153 -57 61
-58 77 -9 160 16 26 80 143 142 260 62 116 126 224 142 240 l29 28 297 5 297
5 55 31 c100 56 125 142 64 221 -15 19 -48 45 -73 57 -43 20 -64 21 -356 24
-170 1 -320 5 -333 7 -28 7 -55 65 -44 92 23 59 180 318 220 363 96 110 235
186 389 214 102 19 575 21 616 3z m3277 -2376 l0 -207 -36 -60 c-20 -32 -57
-95 -82 -139 -24 -44 -130 -231 -234 -415 -105 -184 -202 -354 -215 -378 -42
-75 -48 -55 -48 169 l0 204 154 270 c139 245 202 356 339 600 69 125 103 175
113 169 5 -3 9 -99 9 -213z m-1212 -1852 c1 -96 0 -183 -2 -195 -7 -27 -70
-90 -131 -129 -54 -34 -140 -69 -210 -85 -69 -15 -965 -14 -999 1 -46 21 -56
55 -56 184 0 127 13 173 53 193 15 8 168 13 487 15 454 3 467 3 535 26 79 26
164 71 245 130 30 22 60 39 65 37 6 -1 11 -72 13 -177z m-4488 55 c154 -73
110 -68 680 -71 362 -2 521 -6 536 -14 40 -21 49 -54 49 -188 0 -138 -10 -168
-65 -191 -16 -6 -197 -11 -510 -12 -418 -1 -494 1 -552 15 -130 32 -190 69
-239 145 -28 45 -29 50 -29 176 0 176 16 194 130 140z m1878 -91 c34 -26 40
-48 41 -163 1 -125 -6 -165 -37 -195 -21 -21 -34 -25 -89 -25 -116 0 -133 28
-130 222 2 118 4 129 26 152 13 14 33 27 45 30 43 9 118 -1 144 -21z m657 -3
c32 -30 37 -66 29 -210 -6 -111 -10 -126 -30 -147 -19 -19 -34 -23 -88 -23
-55 0 -69 4 -95 26 l-31 26 0 145 c0 84 4 153 11 164 27 51 157 63 204 19z"/>
<path d="M3997 7289 c-143 -34 -207 -133 -137 -213 47 -53 106 -71 230 -71 97
0 110 2 165 30 70 35 99 71 99 121 0 49 -60 106 -135 128 -57 17 -161 19 -222
5z"/>
<path d="M7448 7281 c-110 -35 -151 -87 -129 -162 25 -81 130 -125 282 -117
139 7 249 75 249 153 0 42 -72 109 -139 129 -72 21 -191 20 -263 -3z"/>
<path d="M4930 6319 c-559 -72 -911 -356 -887 -713 4 -67 12 -93 48 -165 34
-69 59 -102 128 -171 47 -47 112 -100 143 -118 143 -84 351 -150 541 -171 446
-50 935 100 1134 348 136 169 163 355 76 531 -46 94 -175 228 -279 289 -244
144 -596 210 -904 170z m325 -454 c124 -33 203 -94 225 -175 46 -172 -191
-317 -459 -281 -145 19 -240 71 -282 154 -61 118 30 254 198 298 87 23 239 24
318 4z"/>
<path d="M6019 4369 c-119 -13 -189 -66 -189 -144 0 -82 86 -135 228 -143 111
-6 197 17 252 67 50 45 59 83 30 129 -46 75 -165 109 -321 91z"/>
<path d="M2423 4356 c-123 -39 -161 -142 -79 -214 51 -45 98 -57 216 -57 88 0
113 4 155 23 59 27 89 54 105 92 23 55 -34 130 -119 159 -45 15 -226 13 -278
-3z"/>
</g>
</svg>
