<?xml version="1.0" standalone="no"?>
<!DOCTYPE svg PUBLIC "-//W3C//DTD SVG 20010904//EN"
 "http://www.w3.org/TR/2001/REC-SVG-20010904/DTD/svg10.dtd">
<svg version="1.0" xmlns="http://www.w3.org/2000/svg"
 width="1024.000000pt" height="1024.000000pt" viewBox="0 0 1024.000000 1024.000000"
 preserveAspectRatio="xMidYMid meet">
<metadata>
Created by potrace 1.16, written by Peter Selinger 2001-2019
</metadata>
<g transform="translate(0.000000,1024.000000) scale(0.100000,-0.100000)"
fill="#000000" stroke="none">
<path d="M4745 9103 c-665 -57 -1317 -277 -1839 -620 -432 -283 -738 -593
-1030 -1040 -260 -399 -439 -835 -506 -1229 -24 -144 -25 -185 -6 -223 30 -57
47 -61 252 -61 l187 0 -7 -92 c-3 -50 -6 -191 -6 -313 l0 -222 -61 -17 c-121
-33 -239 -107 -340 -212 -116 -122 -179 -235 -210 -376 -19 -87 -20 -126 -17
-972 3 -873 4 -882 25 -959 79 -277 307 -499 590 -574 l98 -26 725 -1 c788 -1
793 -1 941 55 233 89 410 310 449 559 8 55 10 360 8 1125 l-4 1050 -22 75
c-39 124 -88 206 -182 301 -67 68 -103 95 -168 128 -136 68 -156 71 -509 71
l-314 0 3 123 3 122 73 3 c48 2 72 7 72 15 0 21 91 189 144 267 70 102 259
291 383 383 401 297 922 478 1418 494 540 17 1022 -117 1500 -419 284 -180
488 -391 634 -660 l42 -77 62 -3 62 -3 0 -120 0 -120 -325 -6 c-275 -4 -333
-8 -380 -23 -229 -75 -400 -258 -461 -493 -18 -73 -19 -119 -19 -1142 0 -1146
0 -1128 52 -1258 56 -137 190 -289 314 -355 61 -32 153 -64 238 -83 l29 -6
-23 -24 c-12 -13 -45 -34 -73 -47 -52 -23 -55 -23 -512 -26 -252 -2 -469 -1
-481 2 -14 4 -32 28 -54 72 -39 80 -141 187 -216 226 -186 100 -437 69 -587
-70 -101 -94 -154 -209 -164 -352 -7 -106 7 -178 54 -271 82 -164 222 -263
396 -282 129 -14 219 6 319 72 65 42 168 142 168 163 0 5 222 8 494 8 543 0
589 4 737 61 154 59 317 206 418 377 l54 91 261 -4 c350 -6 721 8 806 30 293
78 525 324 585 620 14 71 15 183 13 970 l-3 890 -23 63 c-63 175 -118 259
-244 377 -87 80 -209 150 -310 177 l-48 12 -1 196 c0 107 -4 245 -8 305 -5 61
-6 112 -4 115 3 3 86 7 186 10 204 6 221 11 252 77 20 42 18 70 -25 284 -52
258 -164 566 -304 834 -167 318 -310 525 -557 802 -256 287 -617 552 -1037
762 -454 226 -948 369 -1422 411 -106 9 -452 11 -545 3z m73 -520 c-10 -2 -28
-2 -40 0 -13 2 -5 4 17 4 22 1 32 -1 23 -4z m385 0 c-7 -2 -21 -2 -30 0 -10 3
-4 5 12 5 17 0 24 -2 18 -5z m-515 -10 c-10 -2 -28 -2 -40 0 -13 2 -5 4 17 4
22 1 32 -1 23 -4z m782 -19 c128 -21 135 -23 275 -56 72 -18 123 -33 114 -35
-9 -2 -53 5 -98 17 -45 11 -86 18 -91 15 -6 -4 -10 -2 -10 3 0 8 -175 46 -270
58 -25 3 -61 9 -80 14 -49 13 47 3 160 -16z m-950 -4 c-14 -4 -34 -8 -45 -8
l-20 -1 20 9 c11 5 31 8 45 8 l25 0 -25 -8z m-103 -16 c-3 -3 -12 -4 -19 -1
-8 3 -5 6 6 6 11 1 17 -2 13 -5z m-257 -64 c-8 -5 -23 -10 -33 -10 -10 0 -15
-4 -12 -10 3 -5 0 -7 -7 -5 -7 3 -51 -6 -97 -20 -47 -14 -86 -23 -89 -21 -2 3
43 19 100 36 56 18 108 33 113 35 6 2 17 4 25 4 13 1 13 0 0 -9z m1801 -36
c22 -10 25 -13 9 -9 -14 4 -35 7 -47 8 -13 1 -23 5 -23 9 0 12 25 9 61 -8z
m123 -39 c23 -10 26 -14 11 -14 -11 0 -38 8 -60 19 -34 17 -36 19 -11 15 16
-4 43 -12 60 -20z m-2263 -30 c-18 -8 -36 -15 -40 -15 -13 1 45 29 59 29 8 0
0 -6 -19 -14z m2408 -24 c54 -22 141 -62 193 -89 l94 -50 -34 -15 c-34 -15
-67 -13 -56 4 3 5 1 9 -4 9 -6 0 -13 11 -16 25 -7 26 -59 60 -76 50 -6 -3 -10
-2 -10 4 0 9 -32 25 -55 26 -5 1 -26 11 -45 23 -19 12 -47 24 -62 27 -15 4
-30 11 -33 16 -9 14 -3 12 104 -30z m-2559 -44 c-79 -39 -106 -57 -108 -73 -3
-23 -33 -37 -58 -27 -19 7 -10 19 39 50 46 29 206 103 222 102 6 0 -37 -24
-95 -52z m1720 24 c345 -56 626 -144 903 -282 80 -40 104 -49 72 -26 -23 17
-15 55 19 92 14 15 23 32 20 40 -3 7 3 15 12 19 27 10 28 0 3 -33 -35 -47 -37
-125 -6 -187 30 -59 44 -73 122 -114 117 -63 367 -262 498 -395 150 -152 292
-335 395 -506 57 -96 188 -360 197 -399 l6 -25 -98 -3 -98 -2 -55 116 c-121
261 -277 481 -495 700 -77 78 -178 170 -225 205 -106 79 -225 165 -237 170 -4
2 -53 30 -109 61 -432 248 -995 376 -1489 339 -396 -29 -748 -122 -1050 -276
-390 -200 -761 -532 -992 -888 -64 -98 -169 -298 -194 -371 -8 -21 -18 -40
-24 -41 -5 -2 -52 -6 -102 -9 -83 -4 -93 -3 -93 12 0 27 90 228 149 332 145
258 329 492 538 682 114 105 306 249 382 288 115 58 170 128 171 218 0 50 -11
74 -54 121 -17 18 -24 32 -16 29 21 -6 80 -96 80 -122 1 -51 12 -50 131 8 270
132 626 227 1004 269 22 3 146 3 275 2 178 -2 265 -8 360 -24z m2203 -636 c83
-94 62 -73 -133 130 -108 112 -118 124 -42 50 57 -55 135 -136 175 -180z
m-458 155 c10 -11 16 -20 13 -20 -3 0 -13 9 -23 20 -10 11 -16 20 -13 20 3 0
13 -9 23 -20z m546 -257 c13 -16 12 -17 -3 -4 -10 7 -18 15 -18 17 0 8 8 3 21
-13z m143 -569 c3 -8 2 -12 -4 -9 -6 3 -10 10 -10 16 0 14 7 11 14 -7z m-4690
-535 c-10 -12 -37 -35 -59 -51 -28 -21 -23 -15 15 20 58 54 76 67 44 31z
m-221 -244 c-3 -9 -8 -14 -10 -11 -3 3 -2 9 2 15 9 16 15 13 8 -4z m-503 -734
l0 -109 -40 -32 c-51 -40 -118 -128 -158 -205 l-31 -60 -1 258 0 257 115 0
115 0 0 -109z m5410 -148 l-1 -258 -30 62 c-19 41 -59 93 -114 150 l-85 88 0
108 0 107 115 0 115 0 0 -257z m-4960 -1493 l0 -1280 -47 0 c-60 0 -131 39
-192 105 -61 66 -78 113 -85 225 -3 59 -2 84 3 65 5 -16 9 -23 10 -15 1 8 13
-7 27 -33 14 -26 29 -45 34 -42 6 4 10 1 10 -5 0 -6 4 -9 8 -6 12 7 63 -29 55
-39 -5 -4 -3 -5 4 -1 7 4 23 0 35 -8 14 -9 30 -11 43 -6 18 7 17 8 -10 15 -53
13 -114 55 -154 105 -76 96 -72 40 -69 1051 l3 904 25 50 c13 28 45 70 70 95
62 62 101 80 223 99 4 0 7 -575 7 -1279z m3878 -2 l-3 -1283 -45 4 c-88 6
-196 85 -240 176 -35 72 -53 235 -26 235 18 0 49 -47 36 -55 -13 -8 -4 -56 12
-66 7 -5 16 -3 20 4 6 9 8 9 8 -1 0 -7 5 -10 10 -7 9 6 15 -8 11 -29 -1 -5 6
-3 15 5 12 9 15 9 10 2 -7 -13 4 -17 33 -14 7 2 10 -2 7 -7 -3 -5 5 -8 17 -7
12 1 33 3 47 4 20 2 16 5 -20 18 -63 22 -126 69 -161 122 -62 94 -60 61 -57
1037 3 677 7 898 16 926 19 57 73 129 119 162 42 29 116 54 166 55 l27 1 -2
-1282z m-3323 1248 c52 -24 111 -81 142 -138 17 -31 18 -88 21 -976 2 -909 2
-945 -17 -986 -41 -93 -150 -176 -232 -176 -46 0 -49 -8 -49 -115 0 -82 0 -83
28 -90 36 -11 71 -6 98 12 13 8 29 11 35 7 7 -4 9 -3 6 3 -4 6 2 13 12 16 11
2 24 15 31 27 8 15 8 20 1 16 -16 -10 -14 3 3 20 11 10 15 11 19 1 2 -6 11 2
20 20 9 17 14 40 10 49 -4 12 -3 15 6 10 9 -6 10 0 5 20 -5 18 -3 25 4 20 7
-4 13 17 17 61 10 101 16 101 11 0 -6 -102 -32 -170 -91 -235 -44 -50 -129
-92 -183 -92 l-39 0 -6 188 c-4 103 -7 676 -7 1275 l0 1087 53 0 c33 0 70 -8
102 -24z m3889 -10 c69 -40 123 -109 146 -185 20 -64 20 -91 18 -971 l-3 -905
-22 -41 c-32 -60 -122 -139 -175 -152 -46 -12 -69 -15 -105 -13 l-23 1 0 1151
0 1152 60 -6 c39 -3 76 -14 104 -31z m-5452 -296 c0 -55 1 -105 2 -112 1 -6
-19 -17 -44 -24 -123 -32 -201 -98 -238 -199 -10 -28 -10 -27 -11 25 -1 65 21
166 48 218 10 20 36 56 57 79 39 42 146 113 171 113 10 0 13 -25 15 -100z
m6373 70 c133 -63 216 -211 215 -384 l0 -51 -20 44 c-11 23 -34 60 -50 81 -32
41 -128 95 -186 106 -34 6 -34 7 -34 59 0 28 -3 80 -6 114 -8 72 -7 73 81 31z
m-6524 -1090 c61 -12 94 -32 127 -80 l22 -33 0 -539 0 -539 -22 6 c-47 15
-127 67 -163 106 -21 23 -49 67 -63 97 -33 72 -41 197 -41 655 l-1 337 44 0
c24 0 68 -5 97 -10z m6739 -347 c-1 -324 -2 -363 -20 -413 -10 -30 -16 -59
-13 -65 4 -5 3 -7 -2 -3 -4 4 -26 -8 -48 -28 -46 -42 -131 -84 -170 -84 -24 0
-28 -4 -25 -22 6 -44 78 -20 137 45 8 9 24 17 34 17 10 0 16 4 13 9 -6 9 31
27 54 26 8 0 18 11 22 25 4 14 6 -1 4 -36 -5 -79 -45 -161 -107 -219 -49 -46
-153 -104 -165 -92 -4 3 -7 248 -8 544 -1 511 0 540 18 569 34 57 95 81 209
83 l67 1 0 -357z m-972 -536 c-7 -100 -29 -157 -89 -222 -52 -57 -105 -85
-176 -94 l-53 -8 1 126 c0 69 3 120 6 114 2 -7 18 -13 34 -13 18 0 28 4 24 10
-3 6 4 10 18 10 13 0 50 14 81 30 32 17 65 28 75 25 23 -7 57 30 66 73 12 57
18 34 13 -51z"/>
<path d="M2645 2691 c-3 -5 0 -13 7 -18 16 -10 42 -14 33 -5 -4 4 -12 7 -18 7
-7 1 -11 6 -9 13 2 14 -4 16 -13 3z"/>
<path d="M1580 2996 c0 -10 8 -24 17 -31 19 -14 26 -90 11 -120 -8 -13 -8 -20
1 -23 6 -2 11 -12 11 -23 0 -10 5 -19 10 -19 6 0 10 -7 10 -15 0 -9 5 -21 10
-28 6 -7 20 -25 32 -41 17 -23 92 -66 115 -66 3 0 3 21 -1 48 -4 26 -8 68 -10
94 -2 44 0 47 28 56 l31 10 -30 1 c-65 3 -173 76 -217 146 -14 23 -18 26 -18
11z"/>
</g>
</svg>
