<?xml version="1.0" standalone="no"?>
<!DOCTYPE svg PUBLIC "-//W3C//DTD SVG 20010904//EN"
 "http://www.w3.org/TR/2001/REC-SVG-20010904/DTD/svg10.dtd">
<svg version="1.0" xmlns="http://www.w3.org/2000/svg"
 width="1024.000000pt" height="1024.000000pt" viewBox="0 0 1024.000000 1024.000000"
 preserveAspectRatio="xMidYMid meet">
<metadata>
Created by potrace 1.16, written by Peter Selinger 2001-2019
</metadata>
<g transform="translate(0.000000,1024.000000) scale(0.100000,-0.100000)"
fill="#000000" stroke="none">
<path d="M6475 8699 c-121 -10 -481 -38 -800 -63 -319 -25 -724 -57 -900 -70
-541 -43 -964 -75 -1330 -101 -192 -14 -370 -27 -395 -30 -25 -3 -217 -19
-427 -35 -210 -16 -415 -37 -455 -46 -262 -58 -468 -263 -542 -539 l-21 -80 0
-2480 c0 -2040 2 -2490 13 -2535 20 -82 104 -247 161 -317 126 -154 316 -253
483 -253 l58 0 0 -82 c0 -115 15 -193 50 -264 37 -75 119 -155 197 -192 l58
-27 2840 -3 c1562 -1 2855 0 2873 3 46 8 100 59 112 106 14 52 -14 120 -62
149 -30 18 -50 20 -200 20 -93 0 -168 2 -168 4 0 2 7 20 15 39 10 25 15 70 15
140 l0 103 58 18 c240 75 430 281 499 541 17 67 18 173 18 2615 0 2396 -1
2549 -18 2614 -55 217 -163 378 -323 485 -122 82 -231 110 -859 216 -115 19
-273 46 -350 60 -168 29 -282 30 -600 4z m65 -276 c0 -3 -13 -27 -30 -52 -46
-73 -86 -170 -101 -246 -19 -97 -21 -5331 -2 -5411 20 -83 51 -158 93 -223 22
-34 40 -64 40 -66 0 -3 -953 -5 -2117 -5 -2308 0 -2179 -3 -2295 56 -70 36
-149 113 -186 182 -67 125 -62 -72 -62 2609 0 2149 2 2436 15 2488 46 175 170
294 344 330 36 8 163 21 281 30 257 19 1109 85 1550 120 173 14 529 41 790 60
261 20 666 51 900 70 234 20 499 41 590 49 91 7 171 14 178 15 6 0 12 -2 12
-6z m712 -43 c95 -17 294 -50 443 -75 148 -25 287 -50 309 -56 152 -41 292
-191 326 -349 17 -83 10 -5140 -8 -5192 -20 -59 -91 -157 -143 -198 -27 -21
-75 -49 -106 -62 l-58 -23 -505 0 c-500 0 -506 0 -560 22 -113 46 -203 140
-252 262 l-23 56 0 2660 c0 2583 1 2662 19 2715 49 142 147 233 280 260 68 13
98 11 278 -20z m-4176 -6240 l374 0 0 -74 c0 -41 -5 -87 -11 -103 -13 -35 -47
-72 -76 -83 -12 -5 -165 -10 -341 -11 -296 -2 -321 0 -351 17 -48 28 -71 86
-71 176 0 71 2 77 23 81 12 3 35 3 51 1 16 -2 197 -4 402 -4z m2574 -87 c0
-67 5 -107 19 -143 l19 -50 -998 0 -999 0 19 43 c15 32 20 65 20 139 l0 97 53
3 c28 2 460 3 960 3 l907 0 0 -92z m1118 4 c-3 -77 -8 -99 -27 -125 -43 -61
-48 -62 -397 -62 -300 0 -318 1 -349 20 -48 30 -65 74 -65 169 l0 81 413 3
c226 1 416 3 421 5 4 1 7 -40 4 -91z m1000 19 c4 -89 -11 -138 -53 -175 l-36
-31 -335 0 -335 0 17 33 c12 21 19 65 22 134 l5 102 71 3 c39 2 199 2 356 1
l285 -2 3 -65z"/>
<path d="M5830 8134 c-112 -40 -208 -133 -251 -241 -19 -48 -23 -77 -24 -168
0 -103 2 -114 32 -177 83 -176 249 -266 414 -224 155 40 274 180 302 355 27
178 -70 366 -226 437 -77 35 -179 42 -247 18z m164 -295 c85 -66 70 -201 -26
-237 -44 -17 -76 -11 -117 23 -65 55 -63 145 4 204 44 38 98 42 139 10z"/>
<path d="M4935 8065 c-93 -8 -276 -21 -405 -29 -542 -37 -1100 -78 -1310 -96
-124 -10 -385 -29 -580 -40 -195 -12 -378 -26 -406 -32 -113 -20 -225 -125
-274 -255 -18 -48 -21 -74 -18 -153 3 -82 7 -104 35 -162 104 -220 337 -287
518 -150 102 78 169 215 168 347 -1 38 -6 82 -12 97 l-10 27 62 5 c34 3 107 8
162 11 55 3 208 15 340 25 132 11 303 24 380 30 77 5 343 25 590 45 248 19
556 41 685 50 252 16 268 18 317 42 114 53 84 226 -42 246 -16 2 -106 -1 -200
-8z m-2576 -468 c21 -18 41 -72 41 -112 0 -106 -104 -166 -163 -95 -45 53 -47
132 -5 185 35 45 88 54 127 22z"/>
<path d="M4005 7564 c-348 -35 -662 -145 -936 -327 -551 -367 -891 -896 -1010
-1572 -26 -153 -37 -470 -20 -639 42 -427 222 -856 508 -1212 168 -208 372
-374 624 -506 124 -66 245 -111 404 -151 225 -57 268 -62 525 -62 205 0 250 3
350 23 465 93 788 263 1110 582 114 114 287 341 365 481 139 247 252 587 301
904 20 132 23 404 5 550 -27 219 -94 465 -185 673 -170 394 -485 745 -882 985
-203 123 -461 213 -718 252 -99 15 -365 27 -441 19z m518 -313 c436 -95 804
-341 1089 -725 57 -77 102 -151 56 -92 -132 169 -151 186 -206 186 -106 0
-167 -109 -108 -191 174 -242 224 -357 246 -574 47 -459 -239 -918 -635 -1020
-69 -17 -197 -20 -246 -4 -19 6 -40 12 -47 15 -8 2 -1 21 23 59 65 101 112
231 122 335 l6 65 50 30 c65 39 172 144 224 220 204 302 229 732 63 1068 -85
169 -217 328 -368 442 -100 75 -259 160 -357 191 -97 31 -69 29 88 -5z m-981
-131 c-4 -45 -1 -53 27 -81 30 -29 36 -31 84 -26 29 3 84 12 122 21 220 51
487 20 690 -81 140 -70 294 -204 383 -335 182 -266 202 -642 47 -884 -36 -55
-112 -144 -124 -144 -4 0 -13 17 -20 38 -25 70 -102 181 -175 250 l-72 69 -1
94 c-2 229 -100 450 -269 608 -145 136 -312 215 -517 245 -256 38 -500 -4
-746 -128 -50 -25 -91 -44 -91 -41 0 2 48 47 108 100 170 154 311 245 492 321
30 13 57 23 60 24 3 0 3 -22 2 -50z m216 -509 c267 -89 423 -258 475 -516 4
-19 -2 -20 -147 -21 -126 0 -162 -4 -215 -22 l-64 -21 -41 33 c-177 143 -467
193 -733 127 -81 -20 -236 -88 -301 -131 l-32 -22 33 79 c97 229 287 403 528
482 107 35 147 40 294 37 109 -3 154 -8 203 -25z m-1287 -618 c6 -18 24 -44
40 -58 34 -28 37 -20 -44 -128 -33 -43 -79 -120 -103 -170 -24 -51 -44 -83
-44 -72 0 25 45 243 66 315 8 30 27 87 42 125 21 54 28 64 30 45 2 -14 8 -39
13 -57z m3469 -248 c11 -44 24 -141 31 -215 10 -125 9 -191 -7 -387 l-6 -73
-30 25 c-35 30 -69 40 -104 31 -64 -17 -85 -49 -114 -176 -52 -231 -254 -455
-506 -563 -102 -44 -118 -54 -138 -88 -34 -58 -9 -139 56 -179 43 -26 74 -25
150 4 171 65 288 135 390 234 38 36 68 59 68 52 0 -23 -121 -228 -191 -324 -4
-5 -19 1 -34 13 -42 32 -93 27 -183 -18 -127 -63 -206 -82 -378 -88 -118 -4
-168 -2 -233 11 -289 59 -542 286 -596 534 l-7 32 44 0 c59 0 199 35 255 64
l47 24 52 -29 c130 -74 356 -99 523 -59 173 42 325 132 469 277 144 146 251
320 310 503 52 164 66 257 66 444 l0 169 23 -69 c13 -38 33 -105 43 -149z
m-2554 196 c50 -10 147 -43 173 -60 11 -7 2 -23 -45 -75 -48 -53 -65 -65 -89
-66 -79 -1 -244 -64 -340 -130 -385 -265 -557 -847 -394 -1335 53 -159 169
-360 273 -474 23 -25 26 -31 10 -23 -11 6 -73 65 -137 131 -125 131 -236 284
-298 416 l-38 80 29 6 c39 8 60 27 77 67 15 37 11 58 -28 155 -54 130 -74 252
-73 442 0 142 4 183 22 247 39 143 115 284 209 388 154 171 436 271 649 231z
m809 -156 c177 -47 315 -202 345 -390 34 -210 -74 -416 -267 -512 -61 -30 -85
-36 -160 -40 -91 -5 -182 11 -248 44 -187 94 -295 323 -251 530 27 131 93 233
194 302 52 35 117 64 167 74 47 11 165 6 220 -8z m-859 -467 c1 -133 16 -211
58 -298 l25 -51 -34 -57 c-92 -156 -127 -392 -90 -605 34 -197 142 -410 290
-575 26 -29 46 -55 43 -57 -10 -10 -230 108 -303 162 -211 158 -356 386 -406
638 -22 111 -17 340 10 450 38 158 137 328 243 419 36 32 140 94 158 96 3 0 6
-55 6 -122z m319 -619 c58 -48 120 -85 156 -94 24 -6 27 -12 38 -91 52 -373
401 -711 811 -785 106 -19 385 -16 473 5 38 9 73 16 80 16 22 0 -147 -103
-267 -161 -66 -33 -129 -64 -138 -69 -13 -7 -20 -5 -27 9 -6 10 -23 27 -38 37
-25 16 -50 19 -203 20 -207 1 -280 15 -418 80 -280 131 -471 356 -549 646 -24
90 -24 282 1 366 10 34 22 62 25 62 4 0 29 -18 56 -41z m175 -1194 c18 -13 83
-45 144 -71 61 -25 115 -50 121 -55 20 -19 -246 0 -352 25 -54 13 -56 14 -33
24 33 13 57 40 65 75 9 33 12 33 55 2z"/>
<path d="M2215 3477 c-59 -20 -84 -35 -138 -86 -79 -74 -122 -155 -137 -264
-24 -168 74 -363 218 -434 l57 -28 1458 -3 c1426 -2 1459 -2 1502 17 110 48
112 189 5 244 -33 16 -110 17 -1283 15 l-1247 -3 7 45 c34 194 -69 413 -224
481 -59 26 -164 34 -218 16z m126 -293 c50 -25 74 -113 50 -177 -23 -61 -90
-85 -139 -51 -72 50 -68 188 6 228 35 19 46 19 83 0z"/>
<path d="M5824 3472 c-65 -23 -146 -82 -189 -139 -101 -133 -112 -357 -24
-495 140 -218 401 -249 574 -67 129 135 158 321 77 492 -40 84 -98 147 -174
187 -79 42 -183 51 -264 22z m163 -292 c52 -31 67 -65 64 -143 -1 -16 -15 -42
-35 -65 -31 -33 -39 -37 -85 -37 -41 0 -55 5 -81 30 -46 44 -57 93 -35 151 29
77 104 106 172 64z"/>
<path d="M7428 8171 c-32 -28 -33 -32 -36 -118 -2 -48 -7 -92 -12 -96 -4 -5
-33 14 -64 42 -46 41 -63 51 -92 51 -52 0 -91 -27 -110 -76 -14 -36 -14 -45
-1 -76 8 -20 32 -55 53 -78 l38 -42 -23 -44 -24 -44 -87 0 c-78 0 -89 -2 -108
-23 -59 -63 -44 -165 29 -203 16 -8 56 -14 93 -14 l65 0 25 -56 26 -57 -39
-42 c-53 -57 -64 -82 -58 -122 8 -49 33 -82 74 -99 48 -21 87 -10 139 38 63
58 78 51 84 -43 5 -81 15 -101 61 -125 36 -18 73 -18 109 1 44 23 60 53 60
115 0 88 11 94 69 34 70 -73 124 -79 187 -19 29 28 34 39 34 78 0 40 -6 54
-45 102 l-46 56 23 49 23 50 68 0 c81 0 119 17 137 60 43 103 -18 179 -142
181 l-53 0 -29 60 -29 60 30 32 c47 51 63 79 63 115 0 68 -50 122 -112 122
-38 0 -74 -22 -113 -67 -48 -59 -72 -34 -60 62 12 99 -38 165 -126 165 -40 0
-55 -5 -81 -29z m179 -524 c55 -59 65 -115 33 -183 -29 -60 -91 -92 -144 -74
-64 21 -106 84 -106 157 0 57 26 104 72 134 49 30 93 20 145 -34z"/>
<path d="M7093 6874 c-64 -31 -117 -89 -151 -163 -37 -80 -43 -222 -13 -303
40 -105 127 -192 216 -217 49 -14 686 -44 729 -35 87 18 179 104 218 202 31
78 31 204 0 282 -33 84 -89 150 -154 184 -54 27 -71 30 -335 52 -374 32 -444
31 -510 -2z m491 -258 c219 -13 219 -13 243 -40 33 -38 39 -72 19 -112 -19
-42 -53 -56 -115 -49 -25 3 -147 10 -270 16 -124 6 -233 15 -243 20 -23 12
-48 61 -48 92 0 29 34 76 64 87 11 4 46 6 76 3 30 -2 154 -10 274 -17z"/>
<path d="M7111 6007 c-51 -16 -136 -100 -168 -165 -25 -52 -28 -67 -28 -172 0
-108 2 -119 30 -174 38 -75 102 -141 163 -168 41 -19 77 -23 277 -30 127 -5
291 -8 365 -6 128 3 138 5 188 32 92 51 151 139 173 258 29 157 -58 339 -189
395 -68 30 -735 54 -811 30z m702 -279 c31 -16 50 -74 37 -114 -21 -64 -25
-64 -315 -58 -143 3 -275 7 -293 10 -67 10 -96 111 -46 161 l26 26 286 -7
c158 -4 295 -12 305 -18z"/>
<path d="M7108 5137 c-75 -29 -146 -109 -180 -204 -26 -72 -27 -190 -3 -263
33 -100 123 -197 206 -220 17 -5 192 -10 388 -11 349 -1 358 -1 409 21 64 28
115 82 156 169 28 60 31 75 31 161 0 83 -4 103 -28 154 -39 85 -88 140 -152
171 l-54 27 -368 4 c-298 4 -375 2 -405 -9z m714 -276 c42 -37 46 -96 9 -135
l-24 -26 -284 0 c-176 0 -292 4 -304 10 -24 13 -49 61 -49 95 0 16 12 38 29
56 l29 29 281 0 281 0 32 -29z"/>
<path d="M7112 4267 c-54 -17 -128 -91 -164 -165 -31 -63 -33 -72 -33 -177 0
-104 2 -113 30 -164 35 -63 98 -131 146 -158 31 -17 64 -18 414 -18 l380 0 51
27 c101 53 171 163 181 285 13 159 -84 327 -216 371 -45 16 -741 15 -789 -1z
m717 -274 c12 -14 24 -37 27 -50 8 -29 -13 -81 -37 -93 -24 -13 -585 -13 -609
0 -18 10 -40 59 -40 91 0 9 12 31 26 48 l26 31 293 0 294 0 20 -27z"/>
<path d="M7020 3199 c-116 -47 -134 -207 -31 -276 94 -63 231 12 231 127 0
106 -107 186 -200 149z"/>
<path d="M7475 3203 c-87 -24 -135 -130 -97 -215 47 -107 184 -120 256 -25 36
47 42 88 21 142 -28 74 -108 118 -180 98z"/>
<path d="M7893 3190 c-73 -37 -103 -134 -65 -210 52 -105 188 -105 260 0 80
118 -66 275 -195 210z"/>
<path d="M1333 1850 c-112 -50 -111 -209 0 -264 97 -47 217 27 217 135 0 51
-43 114 -90 133 -52 21 -75 20 -127 -4z"/>
<path d="M1905 1855 c-100 -36 -127 -162 -50 -239 59 -59 149 -60 213 -1 32
29 36 39 39 91 4 65 -15 109 -59 138 -35 23 -98 28 -143 11z"/>
<path d="M8806 1860 c-58 -18 -106 -86 -106 -147 0 -41 40 -103 80 -125 43
-24 121 -18 160 10 58 44 78 127 46 190 -32 62 -112 94 -180 72z"/>
</g>
</svg>
