<?xml version="1.0" standalone="no"?>
<!DOCTYPE svg PUBLIC "-//W3C//DTD SVG 20010904//EN"
 "http://www.w3.org/TR/2001/REC-SVG-20010904/DTD/svg10.dtd">
<svg version="1.0" xmlns="http://www.w3.org/2000/svg"
 width="1024.000000pt" height="1024.000000pt" viewBox="0 0 1024.000000 1024.000000"
 preserveAspectRatio="xMidYMid meet">
<metadata>
Created by potrace 1.16, written by Peter Selinger 2001-2019
</metadata>
<g transform="translate(0.000000,1024.000000) scale(0.100000,-0.100000)"
fill="#000000" stroke="none">
<path d="M4786 8719 c-442 -45 -925 -181 -1303 -366 -532 -260 -951 -627
-1282 -1122 -236 -352 -388 -705 -467 -1085 -29 -142 -28 -186 6 -242 28 -44
95 -94 127 -94 l23 0 0 -278 c0 -154 3 -319 6 -369 8 -103 15 -90 -101 -165
-94 -61 -264 -227 -323 -314 -93 -139 -151 -285 -171 -429 -21 -152 -13 -274
34 -530 14 -71 45 -263 71 -425 62 -402 92 -490 232 -676 152 -201 383 -347
644 -406 71 -15 131 -21 250 -22 l158 -1 0 -23 c0 -13 12 -58 26 -100 67 -201
216 -347 424 -418 90 -31 268 -25 455 14 83 17 251 50 373 72 123 22 251 50
285 61 86 29 162 77 229 146 114 118 162 233 161 388 0 89 -19 213 -118 775
-25 140 -58 336 -74 435 -17 99 -59 349 -95 555 -35 206 -76 447 -91 535 -99
593 -109 632 -174 734 -46 72 -149 164 -223 200 -148 72 -264 78 -528 27 -96
-19 -344 -66 -550 -105 -206 -40 -383 -74 -392 -77 -17 -5 -18 9 -18 190 l0
196 87 0 c91 0 151 19 187 59 10 11 44 86 77 167 80 197 159 348 255 485 435
620 1059 993 1827 1094 444 58 973 -41 1418 -265 409 -206 778 -534 1036 -920
96 -143 141 -237 228 -474 21 -59 68 -114 112 -132 19 -8 69 -14 123 -14 l90
0 0 -188 c0 -104 -2 -191 -5 -194 -4 -3 -24 -2 -47 4 -23 5 -149 29 -282 54
-133 25 -347 65 -476 89 -330 62 -373 68 -480 63 -160 -9 -279 -63 -391 -179
-64 -66 -128 -182 -152 -274 -8 -33 -23 -109 -32 -170 -19 -135 -88 -567 -121
-770 -14 -82 -38 -235 -54 -340 -16 -104 -60 -379 -99 -610 -123 -737 -141
-858 -141 -941 0 -249 172 -478 410 -548 30 -9 156 -34 280 -57 124 -22 293
-54 375 -70 278 -56 400 -49 565 32 122 61 212 152 273 279 25 52 51 122 57
155 l12 60 146 1 c162 1 278 19 395 61 399 143 653 451 712 863 9 63 44 277
78 475 57 335 61 371 61 510 -1 130 -4 163 -27 250 -69 258 -235 483 -471 640
l-105 70 -1 373 0 372 23 0 c31 0 102 52 127 93 32 52 34 91 11 213 -79 423
-284 876 -564 1249 -313 416 -688 726 -1182 975 -361 182 -713 292 -1160 362
-149 23 -613 34 -769 17z m739 -438 c609 -92 1140 -332 1605 -722 295 -248
532 -548 696 -884 69 -142 164 -379 164 -410 0 -12 -16 -15 -73 -15 l-72 0
-54 108 c-225 454 -550 831 -970 1126 -353 247 -703 401 -1142 500 -299 68
-694 80 -990 32 -571 -92 -1052 -293 -1439 -602 -113 -91 -343 -316 -442 -434
-157 -186 -316 -429 -414 -630 l-49 -100 -72 0 c-53 0 -71 3 -68 13 52 168 94
272 166 416 225 449 533 806 934 1083 407 282 973 485 1495 537 157 16 574 6
725 -18z m-1860 -3084 c35 -17 74 -59 85 -91 9 -29 126 -702 206 -1186 20
-118 58 -348 86 -510 192 -1139 188 -1103 131 -1171 -68 -81 -211 -78 -262 5
-11 17 -29 84 -40 151 -183 1041 -311 1793 -387 2275 -19 118 -41 252 -50 297
-20 101 -13 142 32 193 50 55 132 71 199 37z m2986 7 c56 -23 99 -83 99 -138
0 -47 -57 -420 -125 -826 -14 -80 -36 -221 -49 -315 -14 -93 -54 -348 -90
-565 -57 -344 -141 -878 -162 -1023 -16 -115 -121 -183 -227 -148 -46 15 -104
80 -112 124 -4 22 7 123 29 263 20 126 68 429 107 674 38 245 83 531 99 635
16 105 50 321 75 480 26 160 62 388 80 507 19 120 41 230 49 245 19 37 54 69
96 87 46 20 80 20 131 0z m-3742 -134 c46 -13 99 -66 111 -110 9 -36 57 -316
180 -1060 78 -465 226 -1339 266 -1560 30 -167 26 -199 -31 -249 -46 -40 -103
-55 -155 -41 -47 13 -103 59 -118 97 -19 48 -206 1115 -317 1808 -19 116 -61
368 -95 560 -33 193 -60 367 -60 388 0 75 44 136 117 162 46 17 59 18 102 5z
m4454 -1 c51 -14 102 -61 122 -112 17 -45 16 -52 -79 -627 -51 -308 -158 -972
-207 -1280 -102 -654 -140 -876 -157 -914 -19 -44 -72 -84 -126 -93 -78 -12
-177 56 -192 132 -4 22 4 102 21 208 80 512 123 785 190 1192 41 248 97 592
125 765 112 699 100 640 137 681 20 22 49 41 71 47 50 13 52 13 95 1z m-5090
-703 c48 -19 84 -68 97 -128 27 -131 171 -1031 176 -1103 6 -73 4 -83 -18
-115 -27 -40 -98 -80 -143 -80 -54 0 -116 40 -141 90 -29 58 -210 1145 -201
1209 14 104 131 169 230 127z m5780 0 c41 -17 83 -66 96 -111 9 -34 -23 -262
-102 -725 -14 -80 -35 -217 -47 -305 -27 -190 -43 -229 -110 -262 -24 -13 -57
-23 -72 -23 -85 0 -168 76 -168 155 0 67 49 401 129 885 17 96 33 200 37 230
7 63 22 95 56 127 46 43 120 55 181 29z"/>
</g>
</svg>
