<?xml version="1.0" standalone="no"?>
<!DOCTYPE svg PUBLIC "-//W3C//DTD SVG 20010904//EN"
 "http://www.w3.org/TR/2001/REC-SVG-20010904/DTD/svg10.dtd">
<svg version="1.0" xmlns="http://www.w3.org/2000/svg"
 width="1024.000000pt" height="1024.000000pt" viewBox="0 0 1024.000000 1024.000000"
 preserveAspectRatio="xMidYMid meet">
<metadata>
Created by potrace 1.16, written by Peter Selinger 2001-2019
</metadata>
<g transform="translate(0.000000,1024.000000) scale(0.100000,-0.100000)"
fill="#000000" stroke="none">
<path d="M6482 10073 c-22 -16 -193 -172 -379 -348 -186 -176 -367 -347 -403
-381 -36 -33 -175 -164 -310 -290 -135 -126 -371 -346 -525 -489 -154 -143
-350 -325 -435 -405 -86 -80 -187 -174 -225 -209 -39 -35 -144 -135 -235 -221
-91 -86 -190 -178 -220 -205 -57 -53 -549 -511 -805 -751 -82 -77 -213 -198
-290 -269 -308 -281 -347 -319 -410 -398 -82 -101 -155 -249 -191 -382 -33
-127 -43 -359 -21 -500 l14 -90 -28 -35 c-35 -45 -312 -315 -367 -358 -32 -25
-45 -45 -57 -84 -25 -87 -5 -151 69 -215 l44 -38 -192 -195 c-240 -243 -292
-318 -349 -497 -19 -64 -21 -97 -27 -558 -3 -269 -7 -491 -8 -492 -1 -2 -236
-3 -522 -3 -561 0 -558 0 -594 -52 -14 -20 -16 -151 -16 -1218 l0 -1196 31
-30 30 -29 782 -3 c698 -2 787 -1 824 14 88 33 119 117 79 215 -8 18 -19 14
252 89 100 27 264 73 365 101 244 67 325 89 334 89 5 0 7 -20 5 -44 -6 -71 16
-183 48 -246 37 -73 119 -158 185 -190 l50 -25 3280 0 3280 0 56 26 c107 51
180 138 218 263 21 68 21 76 21 1455 0 1506 1 1458 -56 1575 -35 71 -125 158
-201 194 l-58 27 -2425 3 c-2191 2 -2430 1 -2480 -14 -159 -46 -283 -195 -311
-375 l-12 -76 -111 -7 c-253 -14 -467 -79 -821 -246 -302 -143 -570 -260 -653
-286 -36 -10 -115 -14 -339 -14 l-293 0 0 394 0 394 153 146 c83 80 157 146
162 145 6 0 48 -43 95 -95 47 -52 97 -101 112 -109 34 -19 118 -19 162 -1 18
8 46 31 62 52 50 64 115 133 237 246 l117 110 86 -21 c267 -67 561 -42 789 68
106 51 191 113 409 296 279 234 1116 923 1931 1590 94 76 238 195 321 264 136
114 240 199 723 596 80 66 191 157 246 201 55 45 269 218 475 386 206 167 421
342 478 387 57 46 112 97 123 115 22 37 25 109 5 147 -16 31 -2086 2098 -2119
2116 -12 7 -45 12 -73 13 -39 0 -60 -6 -92 -27z m172 -428 l59 -56 -123 -121
-122 -121 -62 62 -61 62 120 114 c66 63 122 115 125 115 3 0 32 -25 64 -55z
m293 -297 c29 -29 53 -57 53 -63 0 -6 -53 -63 -118 -128 l-117 -117 -60 60
-60 60 120 120 c66 66 122 120 125 120 2 0 28 -23 57 -52z m28 -968 c491 -493
855 -864 849 -869 -5 -4 -126 -104 -268 -222 -143 -118 -345 -285 -450 -372
-105 -87 -225 -186 -266 -220 -41 -34 -259 -215 -485 -402 -225 -187 -491
-406 -590 -487 -99 -80 -275 -224 -390 -319 -116 -96 -257 -212 -314 -259 -57
-47 -210 -174 -340 -282 -129 -109 -239 -198 -242 -198 -8 0 -1533 1536 -1537
1548 -2 8 139 140 817 767 119 109 349 323 511 475 923 860 1831 1700 1840
1700 3 0 392 -387 865 -860z m273 658 l53 -56 -123 -121 -123 -120 -52 56
c-29 31 -53 61 -53 67 -1 12 232 237 240 233 3 -1 29 -27 58 -59z m342 -348
c0 -3 -54 -59 -121 -125 l-120 -120 -55 60 -55 59 122 122 122 122 54 -56 c29
-31 53 -59 53 -62z m238 -232 l50 -52 -27 -31 c-14 -16 -68 -70 -119 -119
l-93 -90 -55 55 -55 55 120 117 c67 64 123 117 125 117 3 0 27 -23 54 -52z
m284 -274 c24 -25 45 -51 47 -57 2 -6 -52 -64 -120 -129 l-124 -117 -36 35
c-20 20 -43 47 -50 61 -13 24 -10 28 106 139 66 62 123 113 127 114 4 0 27
-21 50 -46z m-4703 -2999 c212 -215 460 -465 551 -557 l164 -167 -29 -32 c-84
-88 -202 -157 -317 -185 l-65 -16 -474 478 c-664 671 -838 848 -854 871 -13
18 -12 30 6 93 29 107 74 187 148 263 l66 69 209 -214 c115 -117 383 -389 595
-603z m26 -953 c-2 -2 -32 -1 -67 3 l-63 7 -467 467 -467 467 -7 74 -7 75 541
-545 c297 -299 539 -546 537 -548z m-858 277 c175 -176 319 -326 321 -332 1
-7 -51 -65 -116 -130 l-118 -118 -320 326 c-175 179 -321 328 -324 331 -3 4
229 244 237 244 2 0 146 -144 320 -321z m-517 -434 l75 -75 -176 -173 c-106
-103 -186 -190 -200 -217 l-24 -45 -3 -780 c-1 -429 0 -789 2 -800 3 -11 25
-46 49 -79 51 -67 67 -112 67 -187 0 -85 -56 -176 -134 -216 -41 -21 -150 -28
-206 -13 -62 16 -141 98 -159 163 -26 91 2 189 74 257 69 66 65 13 65 832 1
409 5 776 9 816 15 129 38 162 270 389 113 111 208 202 211 203 3 0 39 -34 80
-75z m6677 -771 c65 -49 66 -149 0 -196 l-32 -23 -582 -5 -581 -5 -27 -25
c-46 -43 -55 -72 -55 -172 0 -172 -51 -285 -166 -367 -85 -62 -133 -71 -369
-71 -236 0 -242 1 -445 88 -93 40 -305 153 -391 209 l-44 28 535 5 c528 5 535
5 570 27 48 29 71 73 72 132 0 59 -23 106 -65 131 -31 19 -57 20 -902 20 -558
0 -883 4 -905 10 -78 23 -442 91 -535 101 -55 6 -115 13 -133 15 l-33 5 20 32
c11 18 43 44 72 60 l52 27 1958 -2 1958 -3 28 -21z m634 -6 c53 -31 96 -77
116 -125 10 -26 13 -131 13 -507 l0 -474 -35 -31 c-40 -35 -79 -40 -124 -17
-60 32 -60 27 -63 457 l-3 394 -23 33 c-30 41 -70 62 -121 62 -112 0 -153 161
-57 222 27 16 46 19 141 16 99 -3 115 -6 156 -30z m-4576 -468 c347 -53 625
-131 810 -225 57 -29 196 -112 309 -184 235 -149 341 -205 482 -254 134 -47
411 -129 561 -166 l122 -31 564 0 c626 0 617 1 695 -66 25 -21 55 -62 74 -102
28 -57 33 -77 33 -137 -1 -122 -64 -222 -170 -271 l-50 -24 -679 0 -679 0
-116 31 c-64 17 -314 85 -556 151 -825 225 -889 241 -948 235 -26 -2 -61 -13
-75 -24 -95 -71 -87 -234 14 -290 36 -20 341 -108 1169 -337 171 -47 339 -93
375 -103 58 -15 142 -17 765 -20 500 -3 719 -1 769 8 109 18 234 86 326 178
135 134 195 277 195 466 0 130 -18 198 -76 297 -21 36 -39 69 -39 72 0 2 26
10 57 16 122 26 265 -23 361 -124 218 -228 153 -588 -133 -737 -68 -36 -452
-208 -740 -331 -77 -33 -257 -112 -400 -175 -143 -64 -288 -126 -323 -139
l-62 -24 -766 0 c-732 0 -770 1 -867 21 -147 29 -523 149 -1687 536 -288 96
-361 116 -442 125 -147 16 -297 -1 -493 -55 -88 -25 -279 -77 -425 -117 -146
-39 -335 -91 -420 -115 -210 -58 -707 -198 -855 -240 -66 -19 -272 -77 -457
-129 l-338 -96 -184 0 -185 0 2 928 2 927 408 3 407 2 0 -109 c0 -61 -4 -113
-10 -116 -5 -3 -25 -34 -44 -68 -96 -172 -102 -397 -16 -568 118 -234 397
-369 650 -315 122 26 212 76 305 170 123 124 175 248 175 416 0 105 -18 179
-70 288 -39 82 -40 86 -40 193 l0 110 313 -1 c307 -2 313 -1 407 24 181 50
319 107 710 296 276 134 422 187 570 209 41 6 86 13 100 15 14 3 126 3 250 1
166 -2 261 -9 365 -25z m-212 -2294 c251 -81 498 -164 505 -171 3 -2 -11 -12
-31 -20 -30 -12 -97 -15 -392 -15 -330 0 -358 1 -393 19 -129 66 -77 249 71
251 20 0 128 -29 240 -64z"/>
<path d="M6304 8470 c-43 -21 -76 -70 -89 -127 -15 -70 3 -93 284 -376 146
-148 278 -275 293 -283 63 -33 165 -5 209 57 32 46 37 124 11 175 -26 49 -527
549 -565 564 -44 16 -98 12 -143 -10z"/>
<path d="M5831 8089 c-54 -11 -81 -30 -107 -75 -26 -44 -31 -103 -13 -151 13
-35 568 -595 628 -634 87 -57 192 -25 242 73 23 44 24 86 5 132 -12 29 -593
617 -630 638 -27 15 -92 24 -125 17z"/>
<path d="M5174 7756 c-66 -29 -103 -114 -84 -188 10 -38 63 -94 433 -465 232
-233 436 -430 453 -438 18 -8 48 -15 66 -15 47 0 118 39 146 80 30 44 31 129
1 176 -31 51 -830 835 -866 850 -41 18 -109 17 -149 0z"/>
<path d="M4483 7190 c-78 -18 -123 -75 -123 -155 0 -30 7 -61 16 -75 27 -41
927 -940 956 -956 35 -18 111 -18 148 1 65 34 104 126 86 202 -5 19 -153 174
-464 486 -251 252 -470 466 -487 476 -37 23 -90 31 -132 21z"/>
<path d="M3760 6578 c-76 -39 -111 -137 -75 -212 8 -17 232 -248 498 -513 445
-444 485 -481 523 -488 114 -18 224 103 194 213 -8 33 -89 118 -488 517 -263
262 -489 483 -503 491 -37 20 -99 17 -149 -8z"/>
<path d="M7666 5995 c-32 -8 -89 -31 -126 -51 -276 -145 -333 -525 -111 -738
74 -70 145 -103 258 -122 72 -11 92 -19 116 -42 63 -64 38 -154 -56 -201 -110
-55 -270 -20 -539 117 -290 147 -492 203 -739 203 -151 0 -218 -9 -349 -47
-297 -85 -511 -284 -576 -534 -10 -39 -17 -103 -17 -160 1 -153 51 -271 156
-366 137 -123 313 -147 486 -67 40 18 83 54 150 121 l93 95 82 -6 c100 -6 175
-33 388 -137 88 -44 202 -93 252 -110 471 -156 947 -94 1258 164 174 145 294
338 353 570 64 252 50 477 -44 701 -121 290 -352 503 -646 595 -92 29 -302 37
-389 15z m289 -362 c169 -42 327 -178 418 -359 76 -152 83 -376 18 -567 -59
-170 -191 -319 -353 -401 -128 -63 -187 -77 -358 -83 -250 -9 -374 23 -670
171 -265 132 -414 174 -587 164 -151 -9 -251 -58 -302 -146 -14 -25 -40 -60
-57 -79 -27 -28 -39 -33 -77 -33 -55 0 -100 33 -117 85 -23 70 29 176 131 269
115 104 250 148 454 148 221 1 376 -44 650 -187 247 -128 371 -162 562 -153
256 13 436 141 504 358 28 90 28 223 -1 305 -59 171 -224 295 -392 295 -92 0
-146 53 -135 132 6 45 29 75 72 94 36 17 147 11 240 -13z"/>
</g>
</svg>
