<?xml version="1.0" standalone="no"?>
<!DOCTYPE svg PUBLIC "-//W3C//DTD SVG 20010904//EN"
 "http://www.w3.org/TR/2001/REC-SVG-20010904/DTD/svg10.dtd">
<svg version="1.0" xmlns="http://www.w3.org/2000/svg"
 width="1024.000000pt" height="1024.000000pt" viewBox="0 0 1024.000000 1024.000000"
 preserveAspectRatio="xMidYMid meet">
<metadata>
Created by potrace 1.16, written by Peter Selinger 2001-2019
</metadata>
<g transform="translate(0.000000,1024.000000) scale(0.100000,-0.100000)"
fill="#000000" stroke="none">
<path d="M748 8084 c-62 -33 -58 143 -58 -2321 0 -2211 0 -2249 20 -2280 41
-68 34 -67 408 -60 185 3 517 11 737 17 220 6 614 14 875 19 l475 9 270 -40
c149 -21 347 -50 440 -63 361 -52 511 -75 547 -85 l36 -10 7 -83 c9 -115 1
-696 -11 -706 -5 -5 -130 -14 -279 -20 -446 -19 -1404 -71 -1499 -81 -107 -11
-153 -37 -185 -102 -28 -59 -27 -122 3 -181 l23 -47 -357 0 c-333 0 -358 -1
-373 -18 -23 -25 -21 -59 2 -72 14 -7 1028 -10 3204 -10 3072 0 3184 1 3200
18 23 25 21 48 -5 66 -19 14 -67 16 -320 16 l-297 0 24 42 c43 75 28 186 -32
240 -51 46 -95 51 -728 83 -165 8 -426 22 -580 30 -154 7 -350 17 -435 20 -85
4 -163 9 -172 11 -17 5 -18 32 -18 379 0 206 4 385 9 398 12 30 -4 27 351 81
802 124 839 128 1119 126 140 -1 258 -3 261 -5 3 -2 146 -5 318 -6 l313 -3 4
-23 c3 -13 7 -35 10 -49 9 -39 51 -72 103 -80 26 -4 234 -5 463 -2 312 4 421
9 436 19 26 16 53 61 53 88 0 20 4 21 155 21 l155 0 32 29 33 29 3 2267 c2
2493 7 2306 -58 2340 -26 13 -506 15 -4342 15 -3795 -1 -4316 -3 -4340 -16z
m8596 -130 c3 -9 6 -929 6 -2046 l0 -2030 -72 6 c-40 3 -341 13 -668 21 -327
8 -761 19 -965 25 -1424 38 -3936 39 -5200 1 -363 -11 -851 -25 -1085 -31
-234 -5 -449 -12 -477 -13 l-53 -4 0 2032 c0 1566 3 2034 12 2043 9 9 968 12
4254 12 3859 0 4242 -1 4248 -16z m-3054 -4124 c476 -6 1119 -17 1430 -25 311
-8 765 -19 1010 -25 245 -6 486 -15 535 -18 l90 -7 3 -91 c2 -71 -1 -94 -12
-103 -16 -13 -670 -4 -1466 21 -190 6 -1308 13 -2490 15 -2069 5 -2735 0
-3640 -27 -173 -5 -448 -13 -611 -16 l-297 -7 -12 23 c-13 25 -11 173 3 187 5
4 135 11 290 15 399 10 1384 36 1622 44 619 20 2401 27 3545 14z m-1987 -380
c186 -28 218 -34 235 -46 15 -12 14 -13 -10 -4 -15 5 -92 19 -170 30 -78 11
-144 23 -147 25 -7 7 12 6 92 -5z m1652 0 c-11 -5 -29 -9 -40 -9 -17 -1 -17 1
-5 9 8 5 26 9 40 9 23 0 23 -1 5 -9z m-222 -27 c-7 -2 -21 -2 -30 0 -10 3 -4
5 12 5 17 0 24 -2 18 -5z m-56 -9 c-3 -3 -12 -4 -19 -1 -8 3 -5 6 6 6 11 1 17
-2 13 -5z m-103 -69 c-9 -14 -18 -25 -20 -25 -2 0 2 11 8 25 6 14 15 25 20 25
5 0 1 -11 -8 -25z m-956 -20 c-3 -3 -9 2 -12 12 -6 14 -5 15 5 6 7 -7 10 -15
7 -18z m86 -260 c30 -57 36 -95 7 -52 l-18 28 -6 -73 c-6 -67 -4 -76 19 -110
14 -20 27 -48 28 -63 l3 -26 -22 21 -22 21 -7 -32 c-3 -17 -6 -43 -6 -57 0
-33 68 -174 81 -167 5 4 9 4 9 1 0 -3 -4 -8 -10 -11 -5 -3 -23 15 -40 41 l-30
48 0 -98 0 -97 -30 21 -30 21 0 343 c0 188 3 346 6 349 4 4 15 -8 24 -26 9
-17 29 -54 44 -82z m841 -243 c7 -310 6 -334 -10 -352 -39 -44 -42 -31 -41
225 1 135 -1 273 -4 307 -5 54 -2 69 19 110 14 26 26 46 27 45 1 -1 6 -152 9
-335z m-95 169 c0 -12 -112 -183 -117 -178 -2 3 19 39 47 81 28 43 54 84 57
92 6 16 13 19 13 5z m-685 -27 c9 -15 12 -23 6 -20 -11 7 -35 46 -28 46 3 0
12 -12 22 -26z m705 -160 c-6 -16 -21 -40 -34 -54 -12 -14 -42 -58 -66 -99
-24 -41 -46 -69 -48 -62 -2 6 18 43 45 82 26 39 62 92 78 119 33 53 41 58 25
14z m4 -206 c-4 -7 -25 -38 -48 -68 -22 -30 -42 -57 -43 -59 -2 -2 -6 -2 -9 1
-8 8 23 56 65 101 36 38 47 46 35 25z m-665 -132 c-3 -3 -11 5 -18 17 -13 21
-12 21 5 5 10 -10 16 -20 13 -22z m1366 -135 c121 -6 352 -18 513 -26 162 -8
337 -16 390 -16 l97 -2 -90 -8 c-223 -19 -4159 -16 -4035 3 39 6 429 27 1105
58 242 11 1758 5 2020 -9z m-3445 -161 c31 -13 310 -14 2376 -10 2324 5 2342
5 2364 25 12 11 26 31 31 44 8 19 12 21 24 11 41 -34 14 -103 -53 -136 -36
-18 -120 -19 -2381 -22 l-2344 -2 -44 21 c-61 29 -94 104 -62 136 9 9 17 4 33
-20 12 -18 37 -39 56 -47z"/>
<path d="M4638 3735 c-22 -50 38 -75 69 -29 12 19 12 24 -2 38 -24 24 -54 20
-67 -9z"/>
<path d="M4856 3744 c-19 -19 -20 -36 -4 -52 34 -34 90 6 68 48 -13 24 -43 26
-64 4z"/>
<path d="M5054 3735 c-12 -47 44 -77 66 -36 13 25 13 27 -6 45 -24 24 -53 20
-60 -9z"/>
<path d="M5268 3749 c-28 -16 -23 -57 7 -65 47 -12 77 44 36 66 -23 12 -22 12
-43 -1z"/>
<path d="M5458 3735 c-19 -41 28 -75 60 -43 20 20 14 48 -14 58 -34 13 -33 14
-46 -15z"/>
<path d="M3933 3735 c-14 -11 -16 -18 -7 -32 14 -23 47 -28 63 -10 26 32 -21
67 -56 42z"/>
<path d="M5744 3736 c-25 -19 -9 -50 29 -54 33 -4 49 35 21 55 -22 16 -26 16
-50 -1z"/>
<path d="M2856 3724 c-20 -19 -20 -28 -1 -44 12 -10 21 -10 40 -2 30 14 32 37
6 52 -25 13 -27 13 -45 -6z"/>
<path d="M2982 3728 c-18 -18 -15 -36 7 -48 27 -14 51 -2 51 25 0 32 -35 46
-58 23z"/>
<path d="M3215 3721 c-9 -29 1 -41 36 -41 27 0 30 3 27 28 -4 35 -52 45 -63
13z"/>
<path d="M3364 3726 c-11 -28 4 -48 33 -44 22 2 28 8 28 28 0 20 -6 26 -28 28
-18 2 -29 -2 -33 -12z"/>
<path d="M3504 3725 c-11 -27 4 -47 33 -43 22 2 29 9 31 31 3 24 0 27 -28 27
-18 0 -33 -6 -36 -15z"/>
<path d="M3644 3725 c-11 -27 4 -47 33 -43 22 2 29 9 31 31 3 24 0 27 -28 27
-18 0 -33 -6 -36 -15z"/>
<path d="M3787 3733 c-16 -15 -6 -43 17 -49 32 -8 46 2 46 32 0 20 -5 24 -28
24 -16 0 -32 -3 -35 -7z"/>
<path d="M4067 3727 c-10 -27 17 -51 47 -43 21 5 27 12 24 29 -2 16 -11 23
-34 25 -21 2 -33 -2 -37 -11z"/>
<path d="M4212 3713 c3 -24 8 -28 33 -28 25 0 30 4 33 28 3 25 1 27 -33 27
-34 0 -36 -2 -33 -27z"/>
<path d="M4362 3713 c3 -24 8 -28 33 -28 25 0 30 4 30 25 0 21 -5 26 -33 28
-31 3 -33 2 -30 -25z"/>
<path d="M5864 3725 c-8 -19 13 -45 36 -45 23 0 42 24 34 44 -8 21 -62 22 -70
1z"/>
<path d="M5992 3713 c3 -24 8 -28 33 -28 25 0 30 4 30 25 0 21 -5 26 -33 28
-31 3 -33 2 -30 -25z"/>
<path d="M6114 3726 c-11 -28 4 -48 33 -44 22 2 28 8 28 28 0 20 -6 26 -28 28
-18 2 -29 -2 -33 -12z"/>
<path d="M6236 3724 c-9 -22 11 -44 40 -44 23 0 41 30 29 50 -10 16 -62 12
-69 -6z"/>
<path d="M6364 3726 c-11 -28 4 -48 33 -44 22 2 28 8 28 28 0 20 -6 26 -28 28
-18 2 -29 -2 -33 -12z"/>
<path d="M6485 3720 c-9 -29 6 -42 41 -38 23 2 29 8 29 28 0 21 -5 26 -32 28
-25 3 -33 -1 -38 -18z"/>
<path d="M6614 3726 c-11 -28 4 -46 36 -46 28 0 31 3 28 28 -2 21 -9 28 -31
30 -18 2 -29 -2 -33 -12z"/>
<path d="M6736 3725 c-10 -26 5 -45 35 -45 33 0 48 22 29 45 -16 19 -56 19
-64 0z"/>
<path d="M6872 3728 c-19 -19 -14 -37 13 -50 43 -20 77 29 36 52 -25 13 -34
13 -49 -2z"/>
<path d="M2469 3709 c-15 -30 9 -54 45 -45 19 5 26 13 26 30 0 39 -52 50 -71
15z"/>
<path d="M2601 3716 c-20 -24 -6 -46 29 -46 28 0 31 3 28 28 -4 32 -37 42 -57
18z"/>
<path d="M2724 3715 c-10 -25 4 -45 29 -45 34 0 54 25 37 45 -7 8 -23 15 -37
15 -13 0 -26 -7 -29 -15z"/>
<path d="M6994 3715 c-8 -19 13 -45 36 -45 23 0 42 24 34 44 -8 21 -62 22 -70
1z"/>
<path d="M7124 3715 c-10 -25 4 -45 29 -45 29 0 52 24 43 45 -7 20 -65 20 -72
0z"/>
<path d="M7255 3710 c-8 -27 1 -40 29 -40 33 0 53 25 36 45 -18 22 -57 19 -65
-5z"/>
<path d="M7384 3715 c-10 -26 4 -45 35 -45 32 0 43 16 29 43 -11 21 -56 23
-64 2z"/>
<path d="M7522 3718 c-20 -20 -14 -47 13 -54 49 -12 76 39 29 56 -31 12 -28
12 -42 -2z"/>
<path d="M1968 3700 c-19 -15 -20 -20 -9 -34 25 -29 71 -13 71 25 0 25 -37 30
-62 9z"/>
<path d="M2092 3708 c-18 -18 -15 -36 8 -48 26 -14 60 3 60 29 0 29 -45 42
-68 19z"/>
<path d="M2214 3705 c-10 -25 4 -45 29 -45 29 0 52 24 43 45 -7 20 -65 20 -72
0z"/>
<path d="M2336 3704 c-10 -26 17 -48 49 -40 20 5 26 12 23 29 -4 29 -62 38
-72 11z"/>
<path d="M7644 3705 c-9 -21 15 -47 40 -43 15 2 22 12 24 31 3 24 0 27 -28 27
-18 0 -33 -6 -36 -15z"/>
<path d="M7771 3702 c-13 -24 4 -42 40 -42 30 0 46 25 28 46 -16 20 -57 17
-68 -4z"/>
<path d="M7913 3713 c-20 -8 -16 -51 6 -58 41 -13 77 29 45 52 -19 14 -30 15
-51 6z"/>
<path d="M1587 3702 c-13 -3 -17 -11 -15 -30 2 -21 9 -28 29 -30 28 -3 54 20
46 41 -6 16 -34 25 -60 19z"/>
<path d="M1702 3701 c-8 -4 -12 -17 -10 -27 2 -14 13 -20 41 -22 37 -3 38 -2
35 25 -2 21 -9 29 -28 31 -14 1 -31 -2 -38 -7z"/>
<path d="M1832 3693 c-14 -27 -3 -43 28 -43 31 0 55 23 46 45 -8 21 -63 20
-74 -2z"/>
<path d="M8094 3696 c-9 -24 16 -47 45 -44 20 2 26 9 26 28 0 21 -5 26 -33 28
-22 2 -34 -2 -38 -12z"/>
<path d="M8234 3696 c-12 -31 0 -51 31 -51 27 0 30 3 30 30 0 25 -4 30 -28 33
-17 2 -29 -2 -33 -12z"/>
<path d="M1304 3686 c-12 -30 4 -47 38 -44 28 2 33 7 33 28 0 21 -5 26 -33 28
-22 2 -34 -2 -38 -12z"/>
<path d="M1438 3683 c-8 -30 2 -43 32 -43 32 0 53 20 44 44 -9 23 -70 22 -76
-1z"/>
<path d="M8365 3690 c-12 -20 15 -51 43 -48 21 2 28 9 30 31 3 25 1 27 -32 27
-19 0 -38 -4 -41 -10z"/>
<path d="M8504 3685 c-9 -23 16 -46 45 -43 20 2 27 9 29 31 3 25 1 27 -33 27
-23 0 -38 -6 -41 -15z"/>
<path d="M8647 3686 c-12 -29 4 -47 37 -44 26 2 31 7 31 28 0 21 -5 26 -31 28
-21 2 -33 -2 -37 -12z"/>
<path d="M8785 3679 c-8 -25 2 -37 34 -41 27 -3 47 21 38 46 -10 25 -64 21
-72 -5z"/>
<path d="M8938 3689 c-27 -15 -22 -47 7 -55 36 -9 55 2 55 30 0 33 -29 45 -62
25z"/>
<path d="M909 3669 c-10 -19 -9 -25 7 -36 23 -17 36 -16 60 1 15 12 17 18 8
33 -17 28 -60 29 -75 2z"/>
<path d="M1047 3683 c-24 -24 14 -70 47 -57 18 7 30 39 21 54 -7 11 -58 14
-68 3z"/>
<path d="M1174 3675 c-12 -29 4 -46 38 -43 28 2 34 8 36 31 3 25 1 27 -33 27
-22 0 -38 -6 -41 -15z"/>
<path d="M9062 3663 c2 -22 9 -29 32 -31 33 -4 49 14 35 40 -6 11 -21 18 -40
18 -27 0 -30 -3 -27 -27z"/>
<path d="M9195 3670 c-9 -28 12 -52 44 -48 22 2 26 8 26 33 0 26 -4 30 -32 33
-25 2 -33 -1 -38 -18z"/>
<path d="M942 2034 c-24 -17 -29 -53 -10 -72 8 -8 63 -12 180 -12 155 0 170 2
188 20 26 26 25 45 -2 64 -18 13 -53 16 -178 16 -125 0 -160 -3 -178 -16z"/>
<path d="M8372 2039 c-29 -11 -37 -34 -24 -65 21 -44 102 -21 102 28 0 30 -43
50 -78 37z"/>
<path d="M8700 2038 c-14 -8 -27 -24 -28 -38 -7 -46 13 -50 270 -50 l238 0 15
24 c13 19 14 29 5 45 -6 12 -12 21 -13 22 -1 0 -105 2 -232 5 -178 4 -236 2
-255 -8z"/>
<path d="M1622 2028 c-29 -29 -7 -78 34 -78 20 0 54 32 54 52 0 30 -65 49 -88
26z"/>
<path d="M9305 2024 c-17 -17 -18 -25 -9 -48 8 -20 48 -21 64 -1 28 34 -23 81
-55 49z"/>
</g>
</svg>
