<?xml version="1.0" standalone="no"?>
<!DOCTYPE svg PUBLIC "-//W3C//DTD SVG 20010904//EN"
 "http://www.w3.org/TR/2001/REC-SVG-20010904/DTD/svg10.dtd">
<svg version="1.0" xmlns="http://www.w3.org/2000/svg"
 width="1024.000000pt" height="1024.000000pt" viewBox="0 0 1024.000000 1024.000000"
 preserveAspectRatio="xMidYMid meet">
<metadata>
Created by potrace 1.16, written by Peter Selinger 2001-2019
</metadata>
<g transform="translate(0.000000,1024.000000) scale(0.100000,-0.100000)"
fill="#000000" stroke="none">
<path d="M8360 9180 c0 -1145 -2 -1098 53 -1148 14 -13 43 -26 66 -29 47 -6
68 3 516 247 160 87 302 164 317 170 25 12 46 2 325 -147 537 -289 505 -273
556 -273 l47 0 0 1120 0 1120 -940 0 -940 0 0 -1060z m1090 613 c-29 -54 -26
-58 30 -55 l51 4 -26 -38 c-30 -45 -42 -54 -71 -54 -13 0 -26 -11 -35 -27 -7
-16 -15 -30 -16 -33 -2 -3 70 -7 159 -8 109 -3 171 -8 188 -17 80 -42 122
-155 89 -242 -15 -42 -68 -92 -109 -103 -44 -12 -661 -13 -714 -1 -21 5 -52
22 -68 38 -33 30 -67 96 -68 128 0 41 22 97 52 131 54 61 77 68 225 65 l133
-2 15 37 c8 20 15 38 15 40 0 2 -18 4 -39 4 l-40 0 26 45 c18 33 31 45 47 45
17 0 28 10 41 40 l18 40 59 0 58 0 -20 -37z m307 -723 c82 -50 85 -183 6 -236
-26 -17 -56 -18 -398 -20 -205 -1 -386 2 -407 7 -55 14 -88 59 -88 120 0 57
18 98 56 128 26 20 36 21 413 21 365 0 388 -1 418 -20z"/>
<path d="M9035 9473 c-33 -8 -65 -44 -65 -73 0 -15 9 -39 21 -54 l20 -26 339
0 c339 0 339 0 354 22 18 25 21 70 6 98 -19 35 -63 40 -364 39 -160 -1 -300
-3 -311 -6z"/>
<path d="M9438 8993 c-47 -4 -48 -5 -48 -39 l0 -34 50 0 50 0 0 40 c0 22 -1
39 -2 38 -2 -1 -24 -3 -50 -5z"/>
<path d="M8982 8954 c3 -36 3 -37 51 -38 l47 -1 0 38 0 37 -51 0 -50 0 3 -36z"/>
<path d="M9183 8953 c2 -21 9 -38 16 -37 6 1 29 2 51 3 39 1 40 2 40 36 l0 35
-55 0 -56 0 4 -37z"/>
<path d="M9594 8974 c3 -9 6 -26 6 -39 0 -22 4 -23 48 -22 47 2 47 2 50 40 l3
37 -56 0 c-48 0 -56 -3 -51 -16z"/>
<path d="M5001 7572 c-43 -21 -70 -57 -81 -108 -5 -21 -10 -139 -10 -262 l0
-223 -154 2 c-164 1 -185 -4 -205 -48 -22 -49 -3 -121 38 -143 11 -5 86 -10
170 -10 l150 0 3 -212 c3 -239 8 -258 78 -301 35 -22 38 -22 560 -22 493 0
527 1 563 19 74 37 81 56 89 276 5 107 10 201 13 208 2 7 21 12 43 12 36 0 40
-3 46 -31 3 -17 6 -56 6 -85 0 -45 5 -59 29 -86 l29 -33 120 0 c115 0 122 1
147 25 41 39 55 73 55 141 l0 61 38 -6 c108 -19 251 -125 302 -226 101 -197
-42 -461 -285 -529 -57 -16 -2623 -15 -2697 0 -123 26 -246 119 -293 221 -27
57 -22 68 28 68 37 0 83 25 99 53 10 17 14 133 16 494 3 397 1 477 -12 506
-28 69 -7 67 -569 67 -557 1 -548 2 -562 -60 -4 -17 -14 -30 -28 -34 -12 -3
-152 -6 -310 -6 l-288 0 -25 -25 -25 -25 3 -406 3 -406 28 -24 28 -24 299 0
300 0 14 -33 c7 -19 26 -43 41 -55 27 -21 37 -22 265 -22 l238 0 12 -47 c15
-61 78 -197 121 -260 115 -171 266 -280 465 -338 l87 -25 1383 0 c1167 0 1394
2 1451 15 239 50 416 175 536 377 113 190 129 462 38 655 -119 250 -344 416
-617 454 l-84 12 0 56 c0 116 -47 145 -228 139 -99 -3 -105 -4 -128 -31 -20
-24 -24 -39 -24 -98 l0 -69 -53 0 -54 0 5 148 c5 164 -4 213 -45 263 -51 60
-43 59 -610 59 -473 0 -521 -2 -552 -18z m724 -248 c8 -4 22 -19 31 -35 19
-37 12 -49 -90 -183 -41 -55 -72 -104 -69 -109 3 -6 62 -7 154 -2 141 7 148 6
158 -13 6 -12 11 -28 11 -36 0 -16 -377 -423 -407 -440 -23 -12 -61 9 -69 39
-11 42 2 66 96 178 49 59 90 111 90 115 0 10 -179 3 -224 -9 -33 -9 -43 -8
-65 9 -42 31 -40 73 6 119 21 21 63 67 93 103 30 36 93 107 140 159 70 78 94
98 127 110 1 1 9 -2 18 -5z m-2417 -220 c33 -23 28 -65 -14 -131 l-35 -56 132
5 c119 4 134 3 151 -14 27 -27 22 -49 -23 -114 -22 -33 -68 -99 -101 -149 -33
-49 -67 -98 -75 -107 -21 -24 -54 -23 -81 2 -40 38 -29 70 68 203 14 20 13 20
-114 15 -116 -5 -131 -3 -147 13 -33 33 -23 68 57 189 41 63 85 125 96 138 25
26 55 28 86 6z m-556 -251 c2 -137 2 -251 0 -255 -2 -5 -109 -8 -238 -8 l-234
0 0 255 0 255 235 0 234 0 3 -247z"/>
<path d="M4110 7338 c-39 -20 -61 -75 -50 -123 20 -88 112 -115 176 -51 28 28
34 42 34 75 0 79 -90 135 -160 99z"/>
<path d="M4595 7341 c-40 -17 -60 -51 -60 -103 0 -43 4 -53 33 -79 55 -49 133
-34 168 32 18 36 18 53 -2 95 -25 53 -85 77 -139 55z"/>
<path d="M4104 6971 c-63 -38 -66 -134 -7 -181 63 -49 173 5 173 85 0 59 -55
115 -112 115 -13 0 -37 -9 -54 -19z"/>
<path d="M4116 6615 c-43 -23 -55 -44 -56 -98 0 -41 5 -53 29 -78 43 -43 101
-41 147 5 24 24 34 43 34 65 0 47 -27 91 -65 107 -43 18 -53 17 -89 -1z"/>
<path d="M4583 6611 c-64 -40 -66 -133 -5 -181 73 -58 192 25 162 114 -24 73
-98 104 -157 67z"/>
<path d="M1915 5310 c-156 -15 -276 -74 -394 -192 -66 -66 -88 -97 -130 -181
-82 -166 -81 -159 -81 -909 0 -725 1 -731 65 -867 76 -159 182 -273 317 -341
153 -76 -80 -71 2818 -68 l2595 3 73 27 c171 62 327 199 402 352 62 126 80
212 80 388 l0 148 114 0 c101 0 117 2 147 23 43 29 59 60 59 120 l0 47 130 0
c121 0 130 1 130 19 0 11 9 21 23 25 12 3 124 6 248 6 218 0 227 1 260 23 76
51 101 141 60 217 -37 70 -55 75 -338 78 l-253 3 0 27 0 27 -130 -3 -130 -3 0
65 c0 58 -3 69 -29 98 l-29 33 -130 3 -130 4 -4 146 c-4 125 -9 157 -30 214
-39 104 -85 175 -173 264 -88 89 -169 141 -284 182 l-76 27 -2555 1 c-1405 1
-2586 -2 -2625 -6z m5173 -398 c63 -34 129 -104 160 -170 l27 -57 0 -650 0
-650 -27 -57 c-35 -76 -98 -142 -167 -175 l-56 -28 -2532 -3 c-2505 -2 -2532
-2 -2585 18 -98 36 -172 118 -202 222 -15 49 -16 130 -14 689 l3 634 29 63
c35 76 105 142 179 171 52 20 72 20 2597 18 l2545 -2 43 -23z"/>
<path d="M2171 4717 c-13 -6 -34 -25 -45 -40 -20 -28 -21 -38 -21 -415 0 -424
1 -434 59 -475 31 -22 36 -22 351 -22 285 1 324 2 352 18 69 37 68 29 71 453
3 425 2 436 -60 474 -31 19 -50 20 -358 20 -238 0 -331 -4 -349 -13z m249
-431 c0 -112 3 -218 6 -235 l7 -31 -62 0 -61 0 0 235 0 235 55 0 55 0 0 -204z
m310 -31 l0 -235 -54 0 -54 0 -4 228 c-2 125 -3 230 -1 235 2 4 29 7 59 7 l54
0 0 -235z"/>
<path d="M3164 4720 c-11 -4 -33 -22 -47 -40 l-27 -32 0 -386 c0 -426 1 -430
63 -476 30 -22 45 -23 550 -18 l147 2 38 34 37 34 3 407 3 407 -39 39 -40 39
-333 -1 c-184 0 -343 -4 -355 -9z m252 -465 l2 -235 -59 0 -59 0 0 235 0 235
58 0 57 0 1 -235z m306 -5 l-3 -240 -23 0 c-13 0 -38 3 -55 6 l-31 7 0 233 0
234 58 0 57 0 -3 -240z"/>
<path d="M4153 4715 c-17 -7 -40 -26 -49 -41 -17 -25 -18 -56 -15 -418 3 -421
5 -439 56 -472 24 -16 59 -17 355 -17 364 0 360 -1 400 66 19 30 20 53 20 420
0 426 0 425 -60 461 -25 14 -70 16 -352 16 -252 -1 -330 -4 -355 -15z m257
-460 l0 -235 -60 0 -60 0 0 235 0 235 60 0 60 0 0 -235z m310 0 l0 -235 -60 0
-60 0 0 235 0 235 60 0 60 0 0 -235z"/>
<path d="M5114 4696 l-34 -34 0 -401 c0 -438 0 -439 57 -477 25 -17 53 -19
298 -22 347 -4 386 0 434 43 l36 33 3 398 c2 284 -1 406 -9 426 -6 15 -26 37
-44 48 -31 19 -49 20 -370 20 l-337 0 -34 -34z m286 -441 l0 -235 -61 0 -60 0
2 235 2 235 58 0 59 0 0 -235z m310 0 l0 -235 -60 0 -60 0 0 235 0 235 60 0
60 0 0 -235z"/>
<path d="M6128 4714 c-57 -30 -58 -38 -58 -453 0 -420 3 -440 61 -475 26 -15
61 -18 267 -20 130 -2 281 0 334 3 94 6 99 7 130 39 l33 32 3 398 c4 442 3
445 -63 476 -48 23 -666 23 -707 0z m271 -459 l3 -235 -61 0 -61 0 0 235 0
235 58 0 58 0 3 -235z m301 0 l0 -235 -55 0 -55 0 0 235 0 235 55 0 55 0 0
-235z"/>
<path d="M1799 4181 c-33 -34 -39 -83 -14 -131 19 -37 43 -50 92 -50 75 0 125
89 89 158 -20 39 -44 52 -96 52 -33 0 -48 -6 -71 -29z"/>
<path d="M2345 3538 c-33 -19 -44 -41 -45 -86 0 -32 6 -49 25 -67 24 -24 27
-25 185 -25 92 0 170 4 181 10 24 13 49 61 49 95 0 16 -12 38 -29 56 l-29 29
-159 0 c-100 0 -165 -5 -178 -12z"/>
<path d="M3315 3526 c-32 -32 -40 -69 -25 -107 23 -55 38 -59 218 -59 159 0
164 1 187 24 32 32 40 69 25 107 -23 55 -38 59 -218 59 -159 0 -164 -1 -187
-24z"/>
<path d="M4327 3539 c-31 -18 -48 -71 -36 -112 17 -62 33 -67 220 -67 l167 0
26 31 c36 43 35 91 -3 130 l-29 29 -164 0 c-97 0 -170 -5 -181 -11z"/>
<path d="M5315 3538 c-33 -18 -45 -40 -45 -85 0 -33 6 -50 25 -68 24 -25 27
-25 190 -25 l167 0 29 29 c21 22 29 39 29 66 0 27 -8 44 -29 66 l-29 29 -159
0 c-95 0 -166 -5 -178 -12z"/>
<path d="M6318 3534 c-50 -27 -54 -118 -7 -156 18 -16 44 -18 181 -18 90 0
168 4 179 10 24 13 49 61 49 95 0 16 -12 38 -29 56 l-29 29 -159 0 c-120 -1
-165 -4 -185 -16z"/>
</g>
</svg>
