<?xml version="1.0" standalone="no"?>
<!DOCTYPE svg PUBLIC "-//W3C//DTD SVG 20010904//EN"
 "http://www.w3.org/TR/2001/REC-SVG-20010904/DTD/svg10.dtd">
<svg version="1.0" xmlns="http://www.w3.org/2000/svg"
 width="1024.000000pt" height="1024.000000pt" viewBox="0 0 1024.000000 1024.000000"
 preserveAspectRatio="xMidYMid meet">
<metadata>
Created by potrace 1.16, written by Peter Selinger 2001-2019
</metadata>
<g transform="translate(0.000000,1024.000000) scale(0.100000,-0.100000)"
fill="#000000" stroke="none">
<path d="M4685 8804 c-336 -35 -642 -88 -722 -126 -84 -40 -133 -153 -103
-242 25 -76 103 -136 177 -136 21 0 115 15 208 34 286 58 364 67 622 73 270 6
422 -4 621 -42 272 -53 494 -127 823 -276 124 -56 209 -89 230 -89 19 0 57 13
85 30 61 34 104 107 104 174 0 54 -40 138 -79 165 -45 32 -277 142 -411 194
-169 66 -418 142 -566 172 -268 54 -382 66 -674 70 -151 1 -293 1 -315 -1z"/>
<path d="M8428 8561 c-23 -8 -283 -140 -573 -291 -60 -32 -164 -86 -230 -120
-335 -174 -364 -195 -390 -285 -15 -50 -15 -60 0 -110 29 -102 112 -165 217
-165 49 0 73 9 204 74 82 40 210 106 284 145 73 39 137 71 141 71 5 0 -4 -26
-18 -57 -24 -55 -102 -234 -366 -843 -63 -146 -151 -347 -196 -448 -44 -100
-81 -184 -81 -187 0 -11 -63 -135 -69 -135 -3 0 -14 49 -24 109 -24 151 -42
206 -83 251 -88 98 -265 89 -353 -17 -17 -20 -103 -165 -192 -322 -89 -157
-296 -520 -459 -806 -163 -286 -353 -618 -421 -737 -68 -120 -126 -217 -129
-217 -3 1 -43 42 -89 93 -186 201 -277 289 -318 307 -97 44 -203 30 -282 -38
-53 -45 -274 -376 -766 -1148 -128 -200 -394 -606 -406 -619 -5 -5 -51 17
-111 54 -448 273 -694 579 -822 1020 -157 541 -85 1101 209 1620 145 257 362
501 645 728 155 125 173 149 168 238 -5 79 -35 125 -102 159 -104 52 -162 31
-371 -137 -501 -402 -839 -931 -975 -1526 -45 -201 -53 -273 -53 -497 0 -504
123 -937 371 -1305 168 -250 330 -414 587 -597 95 -67 360 -232 410 -254 86
-39 210 -14 280 56 22 22 67 83 100 135 32 52 107 169 165 260 59 91 198 307
310 480 430 669 535 829 541 827 4 -1 51 -51 105 -112 152 -168 285 -299 329
-320 53 -26 156 -27 205 -1 79 41 82 46 450 686 106 184 270 470 365 635 274
477 343 591 349 575 3 -8 21 -94 40 -190 40 -197 57 -233 139 -284 94 -58 211
-42 286 39 38 41 67 95 131 245 15 36 87 202 160 370 73 168 178 413 235 545
57 132 147 339 200 460 53 121 158 362 232 535 74 173 180 418 234 544 73 169
99 239 99 270 0 43 -25 107 -61 157 -42 60 -178 103 -251 80z"/>
<path d="M3455 8548 c-60 -17 -122 -88 -299 -343 -88 -127 -202 -287 -253
-356 -107 -146 -128 -187 -118 -238 18 -94 72 -151 173 -180 221 -65 635 -189
742 -222 135 -42 199 -48 258 -23 67 28 120 94 137 171 10 51 -19 136 -63 181
-40 42 -19 35 -487 179 -82 26 -153 49 -157 52 -3 3 69 119 161 257 177 264
187 287 170 365 -28 125 -140 191 -264 157z"/>
<path d="M4795 8220 c-217 -14 -590 -75 -653 -108 -146 -75 -144 -287 3 -353
53 -24 81 -24 232 6 414 79 690 83 1020 16 236 -49 463 -133 784 -291 138 -68
181 -75 252 -39 55 28 75 46 98 91 36 71 16 181 -43 235 -33 31 -337 181 -488
241 -386 154 -818 226 -1205 202z"/>
<path d="M2321 7704 c-52 -22 -141 -105 -319 -296 -263 -283 -387 -443 -545
-703 -197 -326 -331 -646 -422 -1007 -49 -196 -56 -236 -82 -448 -24 -205 -24
-651 1 -845 62 -488 166 -833 368 -1227 104 -203 161 -258 265 -258 92 1 171
58 193 141 16 59 7 86 -86 264 -176 338 -284 685 -339 1085 -25 179 -30 554
-11 733 65 608 311 1198 705 1692 53 66 126 152 163 190 l67 70 32 -31 32 -32
-121 -173 c-185 -267 -289 -459 -400 -739 -96 -242 -173 -532 -207 -785 -26
-186 -31 -595 -11 -774 33 -285 92 -514 206 -805 62 -159 121 -217 220 -218
96 0 176 59 199 150 14 51 8 80 -54 227 -77 184 -136 413 -169 655 -61 451 8
967 189 1411 123 300 284 568 514 849 179 220 193 247 171 328 -26 97 -102
156 -204 157 -56 1 -60 3 -92 40 l-33 40 19 30 c95 155 -81 352 -249 279z"/>
<path d="M7099 7343 c-197 -102 -411 -214 -903 -475 -103 -55 -203 -114 -221
-130 -46 -40 -69 -103 -63 -177 8 -115 96 -196 214 -196 68 0 98 13 379 166
83 44 308 163 500 264 535 280 524 273 555 335 28 57 33 105 15 165 -26 92
-95 144 -200 153 l-62 4 -214 -109z"/>
<path d="M4610 7253 c-71 -12 -386 -86 -423 -99 -81 -28 -127 -92 -127 -174 0
-65 18 -108 63 -147 69 -60 95 -61 317 -8 297 71 300 72 341 114 74 74 72 185
-4 269 -19 20 -105 54 -131 51 -6 -1 -22 -4 -36 -6z"/>
<path d="M5200 7248 c-134 -38 -180 -199 -87 -305 81 -92 218 -80 292 25 93
135 -46 325 -205 280z"/>
<path d="M4865 6523 c-103 -54 -153 -187 -109 -291 42 -102 157 -159 257 -128
124 38 192 161 157 286 -13 49 -66 109 -114 131 -51 23 -149 24 -191 2z"/>
<path d="M8340 6524 c-53 -17 -79 -37 -114 -89 -39 -58 -35 -103 25 -252 190
-473 273 -869 272 -1303 -1 -451 -74 -831 -244 -1258 -61 -153 -201 -444 -259
-537 -88 -142 -100 -168 -100 -218 0 -78 55 -160 125 -187 75 -29 174 -2 228
60 86 100 280 470 376 715 205 523 292 994 278 1510 -13 453 -97 839 -295
1339 -57 145 -99 198 -175 221 -60 18 -59 18 -117 -1z"/>
<path d="M4179 6136 c-60 -21 -96 -54 -125 -111 -48 -99 -21 -216 65 -282 58
-45 112 -58 178 -43 147 33 224 188 159 325 -27 59 -46 77 -106 104 -51 23
-118 26 -171 7z"/>
<path d="M5612 6137 c-53 -20 -99 -63 -127 -122 -23 -46 -27 -64 -22 -105 18
-148 160 -250 286 -205 173 61 223 265 94 387 -57 54 -153 73 -231 45z"/>
<path d="M4945 5764 c-42 -13 -69 -36 -170 -137 -67 -67 -184 -191 -261 -276
-76 -85 -143 -156 -149 -158 -5 -1 -89 61 -185 138 -216 174 -250 193 -339
187 -36 -2 -84 -12 -106 -23 -49 -23 -647 -613 -670 -661 -33 -69 -13 -179 43
-237 62 -65 142 -87 229 -62 55 16 68 27 293 250 l235 233 90 -80 c243 -215
317 -262 416 -261 34 1 75 9 103 21 47 21 64 38 426 417 78 83 146 151 149
153 4 1 49 -37 101 -84 52 -48 115 -96 140 -107 144 -65 303 44 305 208 0 91
-29 130 -228 296 -92 77 -188 152 -213 166 -57 32 -141 39 -209 17z"/>
<path d="M7937 5716 c-77 -28 -117 -86 -117 -167 0 -76 40 -299 61 -341 23
-46 71 -83 127 -98 91 -24 207 42 230 130 7 30 3 72 -20 202 -32 177 -52 224
-115 260 -43 25 -119 32 -166 14z"/>
<path d="M8055 4865 c-5 -2 -22 -6 -37 -9 -63 -14 -128 -103 -128 -176 0 -79
63 -159 140 -180 104 -28 230 70 230 178 0 64 -45 139 -100 167 -27 13 -89 25
-105 20z"/>
<path d="M7235 4726 c-63 -24 -111 -82 -124 -152 -61 -316 -118 -498 -220
-709 -144 -297 -329 -531 -622 -791 -115 -101 -139 -139 -139 -217 0 -55 43
-125 96 -158 29 -17 53 -24 94 -24 72 1 130 32 248 135 461 402 775 933 893
1510 17 85 32 185 33 222 1 59 -2 71 -29 109 -52 74 -148 105 -230 75z"/>
<path d="M7880 4219 c-56 -32 -84 -81 -88 -153 -4 -74 16 -118 75 -159 58 -41
108 -45 176 -14 77 35 112 88 112 168 -1 107 -76 179 -185 179 -37 0 -67 -7
-90 -21z"/>
<path d="M7647 3619 c-47 -25 -88 -86 -94 -142 -13 -117 109 -227 218 -197 95
26 155 106 145 195 -7 60 -46 120 -96 146 -46 25 -124 24 -173 -2z"/>
<path d="M2347 3323 c-180 -289 -667 -1126 -694 -1193 -33 -83 -38 -135 -19
-209 49 -193 244 -297 432 -232 50 18 317 162 536 290 201 116 705 405 731
419 37 18 35 19 -117 111 -330 198 -605 467 -779 761 -27 43 -52 82 -57 85 -5
3 -20 -11 -33 -32z"/>
<path d="M7204 3167 c-132 -53 -172 -191 -93 -322 18 -31 75 -112 126 -179
178 -237 233 -282 343 -274 154 11 240 168 166 304 -34 64 -242 343 -297 402
-23 23 -55 50 -72 59 -40 20 -134 26 -173 10z"/>
<path d="M1110 2778 c-63 -33 -101 -88 -158 -235 -77 -197 -97 -301 -97 -513
0 -160 3 -183 28 -275 55 -197 143 -355 276 -498 204 -216 534 -357 842 -357
175 0 386 57 604 164 113 56 134 70 157 107 91 141 2 314 -164 320 -35 2 -70
-9 -164 -53 -142 -66 -222 -92 -334 -109 -149 -21 -297 4 -450 79 -81 39 -109
60 -185 136 -165 166 -232 361 -205 594 14 115 36 190 95 321 53 116 56 155
19 230 -35 69 -86 104 -162 109 -45 3 -67 -2 -102 -20z"/>
<path d="M5644 2695 c-269 -91 -544 -135 -847 -135 -97 0 -124 -3 -156 -20
-59 -29 -86 -81 -86 -161 0 -88 33 -140 112 -176 l55 -26 252 6 c210 5 271 10
376 30 197 39 457 119 570 177 103 52 135 167 77 273 -28 50 -74 77 -139 82
-44 4 -80 -5 -214 -50z"/>
<path d="M6838 2622 c-58 -7 -394 -268 -421 -325 -71 -149 85 -317 236 -254
49 21 351 250 377 287 33 47 38 124 12 176 -45 87 -117 128 -204 116z"/>
<path d="M7233 2252 c-24 -9 -102 -64 -175 -122 -243 -193 -399 -295 -613
-402 -412 -207 -816 -316 -1289 -348 -245 -16 -648 23 -926 91 -204 50 -570
190 -570 217 0 5 8 20 19 33 l18 23 79 -22 c291 -82 552 -135 735 -148 72 -6
92 -4 130 13 121 54 146 232 44 322 -42 37 -67 43 -265 71 -166 24 -470 97
-638 154 l-104 35 -46 -23 c-26 -13 -108 -51 -182 -84 -281 -125 -407 -190
-427 -219 -31 -43 -46 -100 -39 -145 14 -86 46 -118 231 -233 340 -212 754
-367 1155 -434 252 -42 301 -46 625 -46 343 1 412 8 739 71 363 71 776 229
1091 419 305 183 612 420 656 507 52 102 -10 239 -125 273 -61 18 -70 18 -123
-3z"/>
<path d="M5717 2017 c-95 -30 -148 -119 -126 -215 13 -60 40 -96 92 -121 51
-24 101 -27 148 -7 36 15 89 66 108 103 15 30 14 97 -3 136 -17 43 -76 93
-123 106 -45 13 -47 13 -96 -2z"/>
<path d="M5124 1921 c-167 -41 -194 -266 -42 -340 135 -65 282 37 265 184 -12
107 -119 182 -223 156z"/>
</g>
</svg>
