<?xml version="1.0" standalone="no"?>
<!DOCTYPE svg PUBLIC "-//W3C//DTD SVG 20010904//EN"
 "http://www.w3.org/TR/2001/REC-SVG-20010904/DTD/svg10.dtd">
<svg version="1.0" xmlns="http://www.w3.org/2000/svg"
 width="1024.000000pt" height="1024.000000pt" viewBox="0 0 1024.000000 1024.000000"
 preserveAspectRatio="xMidYMid meet">
<metadata>
Created by potrace 1.16, written by Peter Selinger 2001-2019
</metadata>
<g transform="translate(0.000000,1024.000000) scale(0.100000,-0.100000)"
fill="#000000" stroke="none">
<path d="M2799 8169 c-105 -11 -187 -33 -299 -81 -381 -162 -633 -458 -738
-868 -15 -59 -16 -257 -20 -2260 -2 -1589 0 -2217 8 -2274 25 -173 107 -380
212 -533 64 -94 201 -234 283 -290 100 -67 224 -129 329 -165 l100 -33 -731
-5 c-719 -5 -732 -5 -759 -26 -50 -37 -68 -70 -68 -124 0 -54 18 -87 68 -124
l27 -21 3417 -3 c2374 -2 3428 0 3454 8 45 13 95 68 104 115 8 43 -27 119 -69
149 -27 20 -45 21 -405 26 l-376 5 89 34 c50 18 130 54 179 79 338 173 586
520 645 902 9 56 11 637 9 2275 l-3 2200 -28 100 c-82 292 -260 547 -492 701
-143 96 -295 164 -440 197 -90 21 -98 21 -2255 23 -1191 1 -2199 -2 -2241 -7z
m4440 -377 c265 -82 466 -253 572 -488 67 -148 64 -61 64 -1504 l0 -1305 -655
0 -655 0 -3 243 -2 242 128 0 c117 0 132 2 162 22 48 33 72 70 77 122 11 90
-30 169 -101 196 -18 7 -70 8 -148 4 l-119 -7 1 169 2 169 91 18 c266 52 453
165 600 362 75 99 131 217 164 343 23 84 26 117 26 247 0 129 -4 163 -26 246
-67 253 -234 458 -475 582 -198 103 -413 122 -626 57 -75 -23 -98 -48 -98
-106 0 -25 8 -44 27 -64 l27 -28 -44 -30 c-73 -50 -159 -150 -194 -227 -110
-241 -64 -505 122 -692 182 -184 443 -221 693 -99 73 35 175 130 217 201 14
25 32 45 40 45 17 0 18 5 -7 -76 -52 -170 -178 -314 -344 -394 -96 -46 -159
-60 -270 -60 -128 0 -226 22 -333 76 -392 197 -519 700 -275 1093 26 42 84
113 129 158 87 86 101 116 90 178 -9 44 -56 91 -101 99 -56 11 -129 -28 -225
-120 -186 -178 -286 -356 -325 -581 -18 -102 -20 -287 -4 -367 7 -31 10 -58 8
-61 -3 -2 -77 -5 -164 -6 l-160 -1 -5 149 c-4 130 -8 152 -27 183 -25 41 -45
54 -100 69 -48 13 -132 0 -168 -26 -57 -42 -55 -8 -55 -917 l0 -836 -560 0
-560 0 0 684 0 683 -23 33 c-48 73 -3 68 -789 72 l-708 3 0 290 c0 322 5 359
64 488 44 96 84 155 160 236 128 134 307 228 480 251 33 4 1022 7 2196 6
l2135 -1 74 -23z m-593 -747 c66 -19 127 -73 159 -140 24 -48 27 -64 23 -129
-3 -63 -8 -81 -33 -118 -43 -61 -105 -104 -170 -119 -114 -25 -238 37 -289
146 -55 114 -14 261 89 325 82 51 139 60 221 35z m-3346 -1520 c0 -658 1 -677
20 -715 13 -26 34 -47 60 -60 38 -19 57 -20 715 -20 l675 0 0 -229 c0 -221 1
-229 23 -262 53 -79 152 -103 241 -59 83 41 81 28 84 438 l3 363 544 -1 544
-1 3 -367 c3 -348 4 -369 23 -402 43 -74 -1 -70 868 -70 l779 0 -5 -702 c-5
-792 -4 -780 -81 -943 -109 -229 -293 -389 -541 -468 l-70 -22 -2155 -3
c-1533 -2 -2174 0 -2219 8 -209 36 -424 182 -548 372 -53 80 -106 201 -123
280 -9 43 -17 1074 -8 1083 2 2 98 5 213 7 l210 3 5 -258 5 -259 24 -13 25
-13 -32 -16 c-72 -37 -120 -148 -109 -251 15 -148 148 -259 287 -240 149 20
262 179 231 321 -15 64 -64 141 -108 169 -37 23 -42 35 -14 35 10 0 24 6 30
14 9 10 12 266 12 995 l1 980 -23 41 c-33 58 -92 85 -170 76 -70 -7 -112 -26
-136 -63 -17 -25 -18 -75 -23 -598 l-5 -570 -212 -3 -213 -2 -2 317 c-4 867 3
1768 15 1775 7 4 270 8 585 8 l572 0 0 -675z m2345 538 c131 -167 304 -292
502 -363 l62 -22 3 -174 3 -174 -30 0 c-16 0 -263 -1 -548 -2 l-517 -3 0 393
0 393 247 -5 248 -5 30 -38z"/>
<path d="M2660 7441 c-114 -37 -182 -133 -183 -256 -1 -112 78 -218 186 -250
63 -19 81 -19 144 0 158 47 237 215 169 360 -26 56 -72 107 -120 132 -35 18
-157 27 -196 14z"/>
<path d="M4862 7432 c-100 -36 -162 -120 -170 -233 -7 -102 41 -191 133 -245
163 -95 388 36 389 227 1 97 -63 201 -152 248 -41 22 -142 23 -200 3z"/>
<path d="M3151 7342 c-53 -27 -74 -63 -79 -135 -5 -79 20 -134 75 -168 l38
-24 427 0 428 0 0 -576 c0 -606 -1 -592 44 -600 14 -3 9 -11 -27 -37 -118 -84
-138 -277 -41 -390 125 -147 367 -108 444 70 45 104 6 257 -82 317 -42 29 -47
41 -18 41 13 0 24 10 30 26 6 15 10 283 10 693 l0 667 -22 44 c-13 25 -38 55
-57 67 l-34 23 -551 0 c-505 0 -554 -1 -585 -18z"/>
<path d="M7203 5420 c-90 -19 -157 -70 -191 -149 -24 -55 -21 -176 5 -226 46
-87 146 -155 230 -155 105 0 225 82 257 177 30 88 12 197 -45 267 -54 65 -168
103 -256 86z"/>
<path d="M2646 5935 c-84 -30 -148 -103 -166 -192 -21 -100 0 -174 69 -246
100 -106 245 -113 355 -16 123 109 129 278 12 394 -73 73 -173 95 -270 60z"/>
<path d="M4155 4486 c-66 -16 -85 -27 -127 -74 -48 -53 -72 -128 -66 -206 15
-176 180 -287 338 -227 154 58 223 213 161 357 -53 122 -178 183 -306 150z"/>
<path d="M3372 4070 c-73 -33 -99 -58 -131 -122 -53 -105 -39 -212 38 -300 99
-113 287 -110 389 7 47 53 65 101 65 175 0 71 -19 120 -70 180 -62 74 -198
102 -291 60z"/>
<path d="M4891 4079 c-155 -30 -246 -218 -177 -364 29 -64 101 -128 161 -145
68 -19 157 -8 213 27 83 51 141 163 127 247 -26 165 -166 267 -324 235z"/>
<path d="M4185 3884 c-52 -12 -97 -40 -118 -73 -22 -36 -22 -38 -22 -476 0
-490 -2 -473 68 -515 31 -19 56 -20 793 -20 l762 0 3 -119 c4 -116 5 -120 35
-157 16 -21 46 -43 65 -50 43 -16 994 -19 1049 -4 73 20 128 114 114 191 -9
47 -27 79 -64 114 l-31 30 -404 3 -404 3 -3 313 -3 313 -29 37 c-46 61 -119
80 -206 56 -47 -13 -99 -68 -111 -116 -4 -22 -9 -89 -9 -150 l0 -112 -32 -5
c-18 -3 -304 -6 -635 -7 l-603 -1 0 305 c0 316 -3 341 -43 384 -39 42 -118 68
-172 56z"/>
<path d="M3406 3475 c-22 -8 -53 -28 -70 -45 l-31 -30 -3 -222 c-2 -122 -1
-232 2 -244 3 -12 17 -26 32 -31 l25 -8 -45 -32 c-66 -46 -98 -108 -104 -199
-8 -119 43 -210 143 -259 58 -28 176 -27 231 2 95 50 149 148 142 255 -5 80
-29 130 -91 191 -38 37 -44 47 -29 47 40 0 43 18 40 258 -3 262 -5 267 -88
310 -50 25 -97 27 -154 7z"/>
<path d="M7165 2885 c-95 -35 -156 -122 -163 -232 -5 -74 8 -117 53 -176 114
-149 355 -125 439 42 33 65 39 103 26 166 -15 72 -63 142 -123 179 -38 24 -61
30 -120 32 -47 2 -86 -2 -112 -11z"/>
<path d="M8404 1621 c-86 -52 -60 -205 38 -225 44 -9 112 24 133 65 26 50 15
106 -29 146 -42 39 -93 44 -142 14z"/>
<path d="M8810 1597 c-54 -27 -61 -99 -13 -137 35 -27 65 -25 102 6 51 42 39
110 -23 134 -34 13 -35 12 -66 -3z"/>
</g>
</svg>
