<?xml version="1.0" standalone="no"?>
<!DOCTYPE svg PUBLIC "-//W3C//DTD SVG 20010904//EN"
 "http://www.w3.org/TR/2001/REC-SVG-20010904/DTD/svg10.dtd">
<svg version="1.0" xmlns="http://www.w3.org/2000/svg"
 width="1024.000000pt" height="1024.000000pt" viewBox="0 0 1024.000000 1024.000000"
 preserveAspectRatio="xMidYMid meet">
<metadata>
Created by potrace 1.16, written by Peter Selinger 2001-2019
</metadata>
<g transform="translate(0.000000,1024.000000) scale(0.100000,-0.100000)"
fill="#000000" stroke="none">
<path d="M5165 9406 c-72 -18 -131 -51 -190 -107 -48 -45 -53 -48 -66 -32 -35
42 -136 104 -201 124 -56 17 -88 21 -167 17 -86 -3 -106 -7 -167 -38 -294
-144 -343 -551 -91 -751 63 -51 141 -87 210 -97 38 -6 51 -12 48 -23 -14 -52
-12 -69 12 -93 38 -38 62 -33 129 32 83 79 93 99 66 143 -36 59 -130 159 -149
159 -33 0 -123 39 -159 69 -20 16 -49 53 -65 82 -24 45 -30 66 -29 119 0 102
54 187 102 161 18 -10 236 -237 376 -393 104 -117 107 -116 228 2 77 76 91 95
91 121 0 21 -7 38 -22 51 -34 27 -69 23 -102 -13 l-29 -31 0 58 c0 238 298
365 464 198 58 -58 80 -114 74 -198 -3 -49 -11 -75 -34 -112 -44 -71 -92 -99
-224 -128 -17 -3 -106 -90 -253 -243 -485 -510 -519 -543 -552 -543 -22 0 -40
11 -71 45 -44 48 -70 55 -119 33 -35 -16 -55 -57 -55 -110 0 -53 24 -92 80
-129 51 -34 94 -43 166 -36 97 10 136 37 314 220 l166 169 55 -58 c31 -33 75
-81 99 -109 162 -185 219 -225 326 -225 105 0 186 47 229 133 29 60 33 123 8
170 -16 32 -146 180 -302 347 -44 47 -80 90 -81 96 0 15 45 34 79 34 41 0 137
36 192 71 196 126 258 403 136 611 -32 54 -121 139 -175 167 -96 49 -238 64
-347 37z m99 -1192 c59 -65 133 -148 163 -184 49 -59 52 -66 36 -77 -42 -31
-64 -18 -184 115 -171 188 -189 209 -189 218 0 13 44 53 55 50 6 -1 59 -56
119 -122z"/>
<path d="M6410 9102 c-248 -67 -398 -322 -335 -567 20 -74 45 -119 208 -370
351 -541 385 -586 446 -598 35 -7 91 11 125 41 10 9 102 143 204 297 362 548
365 552 388 640 28 104 11 238 -43 337 -35 64 -137 159 -205 191 -112 53 -267
60 -379 18 l-52 -20 -61 21 c-85 29 -212 33 -296 10z m185 -183 c22 -6 61 -26
88 -45 26 -19 58 -34 72 -34 14 0 48 16 76 35 64 44 119 59 187 51 65 -8 105
-27 155 -75 50 -47 77 -101 84 -166 9 -87 -11 -142 -111 -302 -122 -194 -186
-293 -191 -293 -3 0 5 24 16 53 26 62 146 437 158 488 12 54 -9 95 -61 119
-39 18 -67 20 -278 20 -129 0 -251 -5 -272 -10 -48 -14 -98 -71 -98 -111 0
-17 29 -120 64 -228 35 -108 78 -239 95 -291 16 -53 33 -105 36 -115 4 -11 -3
-4 -16 15 -12 19 -66 103 -119 185 -200 310 -220 349 -220 434 0 68 25 133 72
186 73 83 162 112 263 84z m251 -339 c72 0 84 -2 84 -17 0 -9 -25 -97 -56
-196 -31 -99 -66 -221 -79 -271 -20 -80 -24 -88 -30 -61 -8 31 -107 403 -131
490 -17 62 -10 68 70 61 32 -4 97 -6 142 -6z"/>
<path d="M2205 9028 c-32 -17 -45 -39 -45 -76 0 -41 13 -68 43 -84 17 -10 172
-14 674 -18 l652 -5 31 -30 c67 -63 65 -47 68 -512 3 -400 2 -425 -16 -466
-11 -24 -37 -57 -58 -73 l-37 -29 -246 -6 c-135 -3 -260 -11 -276 -16 -103
-35 -192 -101 -244 -181 -51 -79 -61 -142 -61 -367 0 -188 -1 -203 -22 -245
-13 -24 -40 -57 -61 -74 -34 -27 -46 -30 -145 -37 -162 -11 -257 -53 -351
-154 -52 -57 -103 -161 -109 -226 -4 -46 -6 -49 -56 -72 -42 -20 -72 -26 -175
-31 -68 -3 -181 -3 -250 0 l-128 7 -123 108 -123 109 -314 0 c-333 0 -369 -4
-392 -48 -20 -38 -13 -82 18 -113 l29 -29 291 0 291 0 54 -47 c30 -27 55 -52
55 -58 0 -5 -24 -27 -53 -47 l-54 -38 -292 0 -292 0 -29 -29 c-42 -42 -40 -92
5 -137 l34 -34 324 0 323 0 40 27 c22 14 63 45 90 68 97 80 75 75 326 75 l226
0 6 -58 c6 -72 32 -124 89 -179 60 -58 118 -83 199 -83 160 0 291 130 291 290
0 119 -85 241 -184 265 -33 8 -35 28 -13 83 19 43 77 107 120 130 19 10 71 18
142 23 96 6 121 11 182 39 84 39 150 104 189 188 26 56 27 63 32 292 6 264 10
283 81 344 59 50 94 56 321 56 230 0 290 10 372 62 59 38 128 128 153 201 17
48 18 89 16 499 -1 295 -6 462 -13 490 -17 65 -53 120 -114 176 -94 86 -58 82
-810 82 -459 -1 -667 -4 -681 -12z m-35 -2833 c50 -26 64 -79 35 -134 -40 -78
-164 -55 -181 35 -15 81 70 138 146 99z"/>
<path d="M7668 8997 c-49 -42 -61 -93 -33 -147 21 -42 53 -60 103 -60 37 0 50
6 78 34 29 29 34 41 34 81 0 40 -5 52 -34 81 -28 28 -41 34 -77 34 -31 0 -52
-7 -71 -23z"/>
<path d="M1470 8753 c-107 -73 -401 -359 -492 -478 -185 -244 -258 -425 -258
-645 0 -162 37 -286 121 -416 104 -158 263 -281 433 -333 69 -21 101 -24 221
-25 164 0 223 13 360 79 162 77 280 196 360 360 153 312 100 628 -163 975
-117 154 -488 500 -536 500 -12 0 -33 -8 -46 -17z m79 -254 c179 -154 393
-400 460 -528 146 -282 110 -557 -98 -761 -109 -106 -234 -154 -406 -154 -175
-1 -288 45 -410 168 -152 154 -212 360 -161 556 40 156 149 329 320 510 72 77
245 240 253 240 3 0 22 -14 42 -31z"/>
<path d="M1368 8091 c-74 -24 -115 -50 -170 -109 -94 -101 -133 -208 -126
-347 11 -212 184 -388 396 -402 192 -13 352 76 435 242 38 75 50 136 45 228
-3 66 -11 95 -36 148 -57 120 -158 210 -271 243 -73 21 -201 20 -273 -3z m199
-186 c141 -42 212 -174 172 -318 -13 -48 -70 -112 -123 -139 -57 -30 -156 -30
-212 -1 -48 26 -100 82 -122 132 -33 79 -11 191 52 259 32 36 116 76 172 81 6
1 33 -6 61 -14z"/>
<path d="M8423 8715 c-46 -20 -54 -44 -55 -160 -1 -58 -4 -109 -7 -113 -3 -5
-37 -15 -76 -22 -43 -8 -106 -32 -164 -61 l-95 -47 -80 75 c-89 83 -131 113
-159 113 -29 0 -87 -63 -87 -95 0 -38 14 -60 101 -154 l78 -84 -29 -36 c-59
-74 -130 -245 -130 -313 l0 -28 -100 0 c-107 0 -150 -13 -170 -49 -21 -40 -7
-100 29 -128 10 -8 56 -12 129 -13 l112 0 0 -28 c0 -73 56 -221 118 -311 l30
-45 -78 -83 c-46 -49 -81 -95 -85 -112 -14 -63 48 -121 115 -106 17 4 59 32
93 63 114 105 99 99 152 62 65 -45 123 -69 218 -89 l82 -18 2 -69 c0 -38 2
-83 2 -100 2 -75 98 -111 158 -60 26 23 28 30 33 126 l5 102 75 19 c73 19 159
56 232 101 l37 23 63 -61 c117 -113 150 -126 206 -79 59 50 50 91 -40 192
-100 110 -95 92 -48 162 52 78 77 137 99 231 l17 75 64 1 c142 1 150 2 181 33
20 20 29 39 29 61 0 76 -42 100 -178 100 l-98 0 -11 58 c-17 87 -50 165 -105
248 l-50 75 74 77 c41 42 83 92 92 111 42 80 -38 161 -117 119 -12 -6 -61 -47
-109 -91 l-87 -79 -30 21 c-54 39 -158 82 -227 94 l-69 13 -5 120 c-3 65 -9
125 -14 133 -8 12 -67 41 -83 41 -4 -1 -22 -7 -40 -15z m159 -480 c140 -29
265 -118 349 -247 119 -184 112 -435 -17 -629 -94 -141 -236 -223 -410 -236
-276 -20 -521 161 -590 437 -23 91 -15 232 18 321 29 78 99 181 162 236 126
111 311 156 488 118z"/>
<path d="M8361 8074 c-118 -32 -219 -114 -266 -217 -113 -248 32 -519 305
-568 169 -30 346 64 425 225 76 156 47 330 -77 454 -104 105 -247 144 -387
106z m185 -200 c79 -38 133 -135 120 -218 -32 -199 -296 -242 -387 -64 -47 93
-16 205 75 266 40 26 58 32 103 32 30 0 70 -7 89 -16z"/>
<path d="M2191 8651 c-40 -37 -42 -87 -7 -128 l24 -28 561 -3 c617 -3 604 -4
636 58 22 43 19 68 -14 101 l-29 29 -570 0 -570 0 -31 -29z"/>
<path d="M2451 8284 c-41 -34 -44 -92 -6 -129 l24 -25 348 0 c382 0 378 -1
403 60 10 24 10 36 0 60 -25 60 -22 60 -396 60 l-342 0 -31 -26z"/>
<path d="M5980 7858 c-93 -63 -59 -203 52 -215 54 -5 98 20 122 72 50 105 -77
209 -174 143z"/>
<path d="M4735 7450 c-119 -18 -164 -37 -655 -278 -371 -182 -474 -232 -845
-409 -132 -63 -255 -126 -273 -140 -42 -32 -117 -126 -160 -201 -78 -137 -109
-323 -78 -463 20 -89 56 -156 128 -234 65 -71 140 -121 258 -171 49 -21 87
-41 82 -45 -4 -3 -38 -18 -77 -33 -111 -44 -196 -100 -266 -173 -111 -118
-145 -219 -136 -398 6 -123 31 -200 98 -299 46 -69 117 -143 167 -176 l24 -15
-49 -34 c-113 -80 -179 -160 -213 -262 -18 -52 -21 -81 -18 -155 3 -81 8 -100
40 -165 73 -148 -1 -98 1293 -864 138 -81 333 -197 435 -258 102 -60 210 -123
241 -138 133 -68 283 -77 414 -24 39 16 237 128 440 250 204 121 611 365 905
540 583 349 618 374 677 492 85 170 59 354 -69 489 -60 63 -122 110 -161 119
-21 6 -31 1 -49 -19 -13 -14 -140 -93 -283 -174 -326 -187 -553 -318 -964
-556 -420 -244 -434 -251 -536 -250 -44 0 -99 5 -122 12 -40 12 -171 89 -508
299 -88 54 -378 235 -645 400 -943 585 -880 542 -880 605 0 48 35 88 77 88 15
0 53 -15 83 -34 30 -18 307 -187 615 -376 308 -189 706 -432 884 -541 178
-109 349 -208 380 -220 77 -29 174 -24 255 14 50 23 247 135 971 550 77 45
237 136 355 204 137 79 224 123 243 123 38 0 64 -15 86 -50 l17 -29 67 45
c145 97 236 272 237 454 0 132 -55 263 -150 360 -65 66 -132 106 -261 156 -52
20 -96 38 -98 40 -2 2 48 28 110 58 147 71 223 120 279 183 86 95 126 211 117
337 -9 129 -68 234 -171 305 -38 26 -1835 930 -1990 1001 -114 52 -228 73
-321 60z m-495 -420 c25 -25 26 -77 2 -106 -9 -12 -82 -56 -162 -97 -668 -346
-650 -335 -677 -392 -29 -62 8 -123 110 -179 34 -19 143 -79 242 -134 99 -54
250 -138 335 -184 85 -47 269 -149 409 -227 383 -215 383 -215 466 -215 88 0
107 8 478 217 296 167 326 178 367 137 25 -25 27 -90 3 -119 -10 -11 -106 -69
-213 -129 -107 -60 -253 -142 -325 -182 -182 -103 -225 -119 -312 -120 -110 0
-111 0 -673 315 -129 73 -372 208 -540 300 -547 302 -591 330 -627 399 -19 36
-19 116 1 153 18 34 69 83 116 110 40 23 212 113 525 273 121 62 258 133 303
156 94 49 140 56 172 24z m2662 -790 c26 -26 30 -36 25 -66 -3 -20 -11 -42
-17 -49 -7 -8 -64 -42 -128 -76 -110 -58 -288 -157 -519 -290 -127 -73 -159
-76 -188 -18 -20 38 -19 62 6 92 11 15 156 104 322 199 481 274 447 260 499
208z m-2789 -1276 c391 -224 726 -413 745 -421 46 -19 159 -19 219 1 27 9 78
33 113 54 542 319 995 583 1159 677 144 81 158 87 199 82 58 -6 96 -43 96 -91
0 -46 -19 -65 -123 -124 -133 -77 -726 -423 -981 -572 -91 -53 -217 -127 -280
-164 -134 -79 -208 -106 -288 -106 -116 0 -105 -5 -747 358 -88 49 -324 183
-525 296 -201 113 -384 217 -408 231 -66 39 -76 91 -28 144 27 30 51 40 100
40 33 1 140 -57 749 -405z"/>
<path d="M6578 7367 c-130 -37 -221 -173 -205 -308 23 -194 244 -307 417 -213
62 33 95 70 128 143 59 129 -9 303 -143 362 -57 25 -140 32 -197 16z m123
-197 c27 -15 51 -67 43 -93 -19 -65 -94 -88 -148 -46 -57 45 -19 149 54 149
17 0 40 -5 51 -10z"/>
<path d="M3205 7304 c-123 -42 -101 -224 27 -224 98 0 156 87 114 169 -29 56
-81 76 -141 55z"/>
<path d="M7193 7226 l-28 -24 0 -189 c0 -188 0 -188 29 -248 69 -140 210 -225
374 -225 79 0 125 -21 163 -73 16 -22 29 -43 29 -46 0 -3 -66 -65 -146 -136
-80 -72 -150 -138 -155 -147 -24 -44 -2 -106 53 -149 18 -14 98 -83 178 -153
79 -70 157 -134 172 -142 59 -31 124 18 122 92 l-1 44 639 0 c702 0 682 -2
708 60 17 42 4 78 -39 107 l-34 23 -691 0 c-615 0 -694 -2 -714 -16 -25 -18
-19 -21 -104 50 -27 22 -48 42 -48 46 0 15 144 124 148 112 3 -9 173 -12 714
-12 l710 0 34 34 c42 42 45 82 10 123 l-24 28 -660 3 -660 2 -7 43 c-29 177
-190 307 -381 307 -100 0 -172 42 -210 124 -22 46 -24 64 -24 194 0 142 0 143
-26 167 -36 34 -93 34 -131 1z"/>
<path d="M578 7084 c-35 -18 -58 -62 -58 -110 0 -65 81 -126 147 -110 36 10
81 60 89 101 17 90 -95 165 -178 119z"/>
<path d="M1009 5731 l-29 -29 0 -184 c0 -177 1 -186 25 -235 35 -69 117 -144
190 -174 59 -23 67 -24 383 -26 l322 -2 33 -43 c169 -221 512 -112 511 162 -1
107 -59 207 -148 252 -64 33 -168 36 -234 8 -57 -25 -148 -114 -158 -156 l-6
-24 -299 0 c-339 0 -354 3 -400 77 -22 34 -24 51 -27 178 -3 173 -5 181 -45
205 -46 28 -83 25 -118 -9z m1212 -470 c38 -38 40 -88 5 -120 -55 -51 -146
-16 -146 57 0 42 46 92 85 92 16 0 38 -12 56 -29z"/>
<path d="M1594 5686 c-43 -19 -64 -53 -64 -104 0 -54 21 -86 70 -106 49 -20
99 -7 134 35 50 59 25 144 -50 175 -41 17 -50 17 -90 0z"/>
<path d="M8186 5634 c-36 -37 -37 -100 0 -135 39 -37 98 -33 135 9 38 42 38
80 0 121 -39 41 -96 43 -135 5z"/>
<path d="M8768 5631 c-33 -29 -33 -30 -38 -143 -4 -99 -8 -117 -29 -147 -42
-59 -57 -61 -406 -61 l-315 0 -38 42 c-126 139 -359 110 -444 -56 -29 -56 -34
-142 -14 -203 52 -158 224 -227 375 -152 63 31 125 98 137 146 l6 23 300 0
c324 0 380 7 464 55 53 31 111 96 137 154 19 39 22 65 22 179 l0 134 -33 29
c-42 38 -82 38 -124 0z m-990 -417 c35 -24 45 -59 27 -93 -24 -48 -81 -56
-120 -16 -33 32 -31 60 4 96 33 33 56 36 89 13z"/>
<path d="M9254 5359 c-96 -26 -112 -168 -24 -214 63 -33 132 -10 165 55 19 37
19 54 -1 96 -24 51 -84 77 -140 63z"/>
<path d="M572 5344 c-59 -41 -69 -124 -21 -178 50 -58 114 -58 171 -1 52 52
44 125 -18 174 -32 25 -99 28 -132 5z"/>
<path d="M1625 4860 c-108 -27 -366 -79 -454 -92 l-79 -12 -233 57 c-245 60
-268 63 -299 47 -38 -21 -41 -43 -40 -317 1 -348 1 -348 165 -355 82 -4 109
-10 151 -31 91 -46 144 -126 144 -214 -1 -89 -54 -168 -140 -206 -37 -17 -64
-20 -149 -19 l-105 1 -33 -35 -33 -35 0 -286 c0 -272 1 -287 21 -319 11 -19
32 -37 45 -40 13 -4 64 4 113 17 l88 23 107 -85 c151 -119 154 -121 203 -116
31 3 62 20 128 68 48 35 110 80 139 100 l51 37 194 -34 c134 -23 199 -30 211
-24 27 15 110 112 110 130 0 8 -22 85 -50 170 l-49 155 42 62 c23 35 46 64 52
67 6 2 64 -5 130 -15 66 -10 146 -19 179 -19 53 0 61 3 92 34 19 19 34 43 34
54 0 11 9 142 20 291 12 168 16 279 11 293 -5 13 -20 34 -34 47 -24 22 -37 24
-194 32 -270 13 -266 12 -318 74 -25 29 -45 59 -45 67 0 9 22 62 50 119 27 57
50 117 50 133 0 24 -16 46 -83 113 -51 51 -91 83 -103 82 -10 -1 -50 -9 -89
-19z m11 -235 c3 -8 -19 -57 -49 -110 l-55 -97 99 -148 c89 -133 102 -148 133
-154 19 -4 51 -18 72 -33 35 -23 41 -24 69 -12 30 13 129 15 212 4 33 -5 42
-10 45 -28 5 -33 -8 -257 -15 -264 -10 -9 -155 17 -212 38 -27 11 -55 19 -62
19 -12 0 -153 -172 -252 -308 -40 -55 -51 -76 -42 -85 17 -21 93 -209 86 -215
-8 -8 -225 37 -258 55 -27 13 -31 13 -51 -5 -11 -10 -76 -56 -143 -102 l-122
-83 -113 91 c-62 51 -121 92 -131 92 -10 0 -34 -7 -54 -15 -19 -8 -37 -15 -39
-15 -2 0 -4 58 -4 128 l0 128 65 11 c148 25 271 117 337 250 31 64 33 73 33
178 -1 141 -21 196 -106 289 -71 77 -171 133 -259 143 -30 3 -58 11 -62 17 -4
6 -8 57 -8 114 0 91 2 102 18 102 29 0 255 -66 291 -85 34 -17 37 -17 85 1 45
16 439 110 474 113 7 1 15 -6 18 -14z"/>
<path d="M9319 4876 c-10 -10 -445 -116 -475 -116 -34 0 -275 43 -485 87 -70
14 -138 23 -151 20 -31 -8 -158 -152 -158 -179 0 -12 23 -72 50 -134 28 -62
50 -118 50 -125 0 -7 -18 -36 -40 -65 -45 -60 -25 -55 -305 -75 -124 -9 -167
-15 -191 -30 -53 -32 -56 -48 -39 -272 9 -111 18 -240 21 -287 7 -100 17 -133
50 -155 32 -21 77 -19 234 10 l135 24 37 -41 c75 -85 75 -85 34 -245 -20 -77
-36 -151 -36 -165 0 -37 122 -152 153 -145 12 3 89 17 172 32 82 14 153 29
158 32 10 6 68 -32 177 -117 159 -125 155 -126 361 43 46 37 92 67 104 67 11
0 49 -9 83 -20 88 -28 105 -26 141 15 l31 36 0 292 0 293 -35 34 c-34 33 -35
33 -104 26 -89 -8 -158 7 -219 47 -167 112 -119 353 82 412 27 8 86 15 131 15
72 0 84 3 102 23 41 45 43 57 43 337 l0 272 -29 29 c-25 25 -68 38 -82 25z
m-764 -290 c118 -25 228 -52 245 -61 37 -19 55 -19 85 1 31 20 295 96 312 90
15 -6 17 -61 6 -168 -6 -68 -6 -68 -37 -68 -141 -1 -300 -111 -369 -257 -30
-64 -32 -74 -32 -184 0 -111 1 -117 34 -182 41 -81 129 -168 204 -202 29 -14
88 -30 130 -37 l77 -12 0 -128 c0 -70 -2 -128 -5 -128 -2 0 -30 7 -61 15 -46
12 -61 12 -73 2 -9 -6 -55 -44 -103 -84 -47 -40 -91 -73 -97 -73 -6 0 -74 43
-153 95 -78 52 -146 95 -150 95 -5 0 -19 -6 -31 -14 -16 -11 -206 -56 -233
-56 -15 0 30 140 68 217 9 19 5 30 -27 78 -51 74 -196 253 -233 288 -29 28
-30 28 -62 12 -27 -14 -229 -59 -236 -52 -8 7 -23 282 -16 289 4 4 53 12 108
18 80 7 104 6 128 -6 37 -18 43 -18 74 5 15 10 46 24 68 31 38 11 48 22 115
128 41 63 86 129 101 146 l26 32 -54 94 c-54 96 -67 137 -39 126 8 -3 111 -26
230 -50z"/>
<path d="M2076 3319 c-20 -23 -26 -42 -26 -78 0 -140 99 -277 240 -333 52 -21
73 -23 427 -28 l371 -5 44 -30 c28 -20 53 -49 71 -84 l27 -55 0 -267 0 -268
-36 -17 c-64 -31 -148 -118 -180 -186 l-29 -63 0 -460 0 -460 25 -50 c13 -27
51 -77 85 -111 82 -83 146 -108 275 -109 84 0 102 3 157 29 76 35 153 113 191
193 l27 58 0 450 0 450 -27 59 c-49 103 -135 181 -235 213 l-53 17 0 257 c0
153 -5 280 -11 311 -31 145 -140 263 -288 308 -58 18 -93 20 -409 20 l-345 0
-43 25 c-58 34 -82 71 -90 141 -9 76 -35 104 -98 104 -37 0 -48 -5 -70 -31z
m1375 -1359 c46 -24 85 -70 99 -118 8 -25 10 -164 8 -417 -3 -434 -3 -434 -84
-481 -82 -48 -162 -42 -230 19 -66 57 -64 45 -64 487 0 379 1 403 20 439 19
39 66 75 118 91 35 11 86 3 133 -20z"/>
<path d="M3322 1803 c-15 -6 -42 -56 -42 -78 0 -27 50 -65 86 -65 24 0 39 8
58 31 14 17 26 35 26 40 0 19 -30 67 -45 73 -19 7 -64 7 -83 -1z"/>
<path d="M3325 1508 c-51 -30 -59 -81 -19 -122 38 -37 84 -36 118 5 34 40 33
64 -3 100 -31 30 -63 36 -96 17z"/>
<path d="M7810 3322 c-21 -22 -30 -42 -35 -86 -9 -67 -38 -115 -85 -138 -32
-16 -74 -18 -426 -18 -361 0 -397 -2 -455 -20 -86 -26 -149 -68 -200 -132 -83
-105 -83 -105 -89 -443 l-5 -299 -57 -17 c-107 -33 -188 -104 -237 -208 l-26
-56 0 -460 0 -460 25 -50 c36 -75 133 -167 205 -196 83 -32 214 -32 297 0 75
29 156 103 199 183 l34 63 0 460 0 460 -29 62 c-32 70 -107 148 -174 182 l-42
21 0 268 0 268 28 55 c20 40 39 61 76 84 l49 30 416 5 c255 4 428 10 446 17
114 40 193 118 225 220 11 36 20 90 20 120 0 47 -4 59 -29 84 -40 40 -91 40
-131 1z m-1145 -1359 c44 -22 65 -43 86 -86 19 -36 20 -59 17 -440 -3 -457 -2
-449 -89 -497 -91 -51 -204 -25 -264 59 l-30 43 -3 379 c-2 250 1 392 8 419
32 119 165 179 275 123z"/>
<path d="M6519 1491 c-36 -36 -37 -73 -4 -106 48 -49 123 -23 140 47 6 22 1
33 -23 58 -39 39 -74 39 -113 1z"/>
<path d="M6519 1201 c-35 -36 -37 -64 -4 -96 46 -47 125 -24 141 42 6 22 1 32
-25 55 -40 36 -75 36 -112 -1z"/>
<path d="M2540 2650 c-14 -4 -341 -8 -727 -9 l-701 -1 -31 -26 c-53 -44 -39
-126 26 -153 21 -8 191 -11 633 -9 l605 3 0 -86 c0 -78 3 -90 30 -134 39 -63
101 -111 173 -131 105 -31 229 12 299 104 144 190 11 455 -226 451 -31 -1 -67
-5 -81 -9z m141 -209 c38 -38 39 -87 4 -125 -35 -38 -87 -36 -127 4 -26 27
-30 36 -25 68 13 78 94 107 148 53z"/>
<path d="M7233 2646 c-101 -33 -161 -99 -189 -207 -20 -77 -9 -142 36 -212 55
-87 173 -146 267 -133 159 22 262 142 251 295 l-5 70 521 -1 c949 -2 951 -1
980 25 15 12 29 36 32 53 5 26 0 38 -24 65 l-30 34 -834 7 c-458 3 -862 9
-898 12 -42 3 -80 1 -107 -8z m136 -191 c40 -20 57 -66 41 -105 -17 -41 -46
-60 -91 -60 -29 0 -43 7 -63 31 -41 48 -32 104 22 133 35 19 56 20 91 1z"/>
<path d="M571 2614 c-86 -72 -47 -196 67 -211 31 -4 44 0 71 23 47 39 65 86
51 130 -27 81 -126 111 -189 58z"/>
<path d="M9284 2630 c-32 -13 -54 -50 -54 -91 0 -50 48 -94 94 -85 40 8 74 43
82 82 11 57 -67 117 -122 94z"/>
<path d="M3950 2467 c-31 -16 -70 -73 -70 -104 0 -63 60 -123 123 -123 32 0
46 7 78 39 31 31 39 46 39 75 0 95 -89 154 -170 113z"/>
<path d="M5884 2461 c-43 -26 -69 -92 -54 -137 16 -46 63 -84 106 -84 126 0
177 156 72 220 -41 25 -84 25 -124 1z"/>
<path d="M8078 2284 c-15 -8 -35 -28 -43 -45 -20 -37 -8 -84 31 -120 23 -21
36 -24 125 -27 l100 -4 -3 -111 -3 -112 -52 -3 c-51 -3 -51 -3 -108 -78 -128
-170 -340 -462 -370 -509 -120 -189 -106 -400 37 -551 58 -62 118 -96 205
-119 83 -22 690 -21 782 0 139 33 245 118 304 243 27 57 32 81 35 162 7 162
-14 204 -271 550 -224 301 -232 309 -299 310 l-38 0 0 110 0 110 83 0 c103 0
145 19 166 72 17 48 2 92 -43 119 -29 17 -55 19 -321 19 -237 -1 -295 -4 -317
-16z m448 -656 c34 -37 187 -230 283 -355 l62 -83 -466 0 c-256 0 -465 3 -465
6 0 8 296 402 328 437 25 26 29 27 127 27 l101 0 30 -32z m-377 -574 c27 -35
26 -57 -3 -91 -23 -26 -28 -28 -111 -28 -83 0 -88 1 -111 28 -28 33 -30 47 -9
87 l16 30 99 0 c95 0 99 -1 119 -26z"/>
<path d="M1474 2269 c-330 -39 -622 -302 -716 -645 -17 -64 -21 -107 -21 -224
0 -129 3 -155 26 -233 92 -299 307 -512 597 -588 109 -29 307 -31 418 -6 143
33 272 97 383 188 196 164 318 468 289 723 -22 185 -120 406 -220 490 -60 50
-65 46 -288 -181 -112 -115 -210 -220 -218 -235 -18 -35 -9 -72 23 -98 24 -19
41 -20 266 -20 l240 0 -7 -78 c-9 -108 -40 -215 -86 -292 -41 -69 -101 -135
-118 -129 -10 4 -693 659 -860 826 -96 96 -96 96 -5 168 165 129 367 170 570
117 102 -27 129 -27 171 -2 45 28 65 75 46 112 -37 72 -300 130 -490 107z
m-394 -614 c34 -18 37 -38 19 -142 -12 -68 -37 -106 -77 -118 -31 -9 -82 42
-82 84 0 42 44 159 67 176 23 18 37 18 73 0z"/>
<path d="M4385 2036 c-68 -29 -70 -37 -73 -262 l-3 -204 -53 0 c-29 0 -67 -5
-84 -11 -64 -22 -62 -11 -65 -532 -2 -469 -2 -472 20 -513 27 -51 72 -90 121
-104 25 -8 259 -10 742 -8 693 3 706 3 745 24 22 11 54 40 70 63 l30 43 3 474
c3 521 3 517 -58 549 -17 9 -55 15 -93 15 l-65 0 -4 193 c-5 206 -10 233 -57
264 -24 17 -69 18 -586 20 -437 1 -567 -1 -590 -11z m1023 -333 l4 -133 -294
0 c-161 0 -311 -5 -333 -10 -85 -19 -111 -96 -51 -156 l34 -34 429 0 c236 0
432 -2 434 -4 2 -2 3 -90 1 -195 l-3 -191 -659 0 -660 0 0 194 0 194 71 4 c65
3 74 6 100 36 l29 32 0 200 0 200 448 -2 447 -3 3 -132z"/>
<path d="M7244 1866 c-45 -45 -47 -95 -5 -137 52 -52 137 -28 161 45 13 41 2
75 -36 105 -40 31 -80 27 -120 -13z"/>
<path d="M7274 1500 c-34 -13 -64 -59 -64 -97 0 -49 45 -93 95 -93 105 0 132
155 33 189 -36 13 -36 13 -64 1z"/>
<path d="M2540 773 c-60 -54 -55 -137 9 -180 50 -34 96 -30 136 10 57 57 58
117 3 169 -42 39 -105 40 -148 1z"/>
<path d="M7238 779 c-32 -24 -53 -80 -43 -117 3 -15 18 -39 32 -54 73 -77 193
-22 193 88 0 28 -8 44 -34 70 -28 28 -41 34 -77 34 -28 -1 -54 -8 -71 -21z"/>
</g>
</svg>
