<?xml version="1.0" standalone="no"?>
<!DOCTYPE svg PUBLIC "-//W3C//DTD SVG 20010904//EN"
 "http://www.w3.org/TR/2001/REC-SVG-20010904/DTD/svg10.dtd">
<svg version="1.0" xmlns="http://www.w3.org/2000/svg"
 width="1024.000000pt" height="1024.000000pt" viewBox="0 0 1024.000000 1024.000000"
 preserveAspectRatio="xMidYMid meet">
<metadata>
Created by potrace 1.16, written by Peter Selinger 2001-2019
</metadata>
<g transform="translate(0.000000,1024.000000) scale(0.100000,-0.100000)"
fill="#000000" stroke="none">
<path d="M2462 8929 c-89 -11 -197 -43 -285 -83 -312 -142 -545 -462 -587
-806 -8 -70 -10 -922 -8 -3270 l3 -3175 23 -80 c80 -274 277 -522 507 -637 87
-44 196 -79 295 -94 144 -21 4701 -21 4835 1 321 52 573 232 712 510 51 100
92 232 105 330 l11 93 61 22 c229 82 381 262 432 510 35 176 -9 380 -114 519
-20 26 -524 539 -1120 1138 l-1083 1090 -97 11 c-53 6 -200 21 -327 34 l-230
22 -200 201 c-110 111 -267 271 -349 356 -82 85 -161 162 -175 171 -29 20 -74
23 -117 8 -31 -11 -883 -865 -896 -898 -4 -9 -7 -37 -7 -61 l-1 -44 192 -196
c756 -769 712 -731 805 -696 39 15 80 51 208 182 88 90 164 163 169 163 4 0 6
-105 4 -233 l-3 -234 234 -239 c128 -131 239 -243 247 -247 7 -4 73 -10 146
-14 l133 -6 262 -261 c145 -143 263 -266 263 -273 0 -11 -320 -13 -1727 -11
l-1728 3 -56 23 c-67 27 -140 88 -174 145 -27 48 -46 146 -43 234 2 72 -21
112 -84 144 -34 18 -54 20 -117 16 -101 -6 -159 7 -206 45 -81 67 -89 185 -17
261 49 52 77 61 214 67 117 5 128 7 153 30 57 53 60 66 59 301 0 207 -1 217
-23 247 -12 18 -32 37 -44 44 -12 7 -80 15 -152 18 -149 7 -180 19 -221 80
-48 72 -44 166 9 227 51 57 97 73 214 71 84 -2 105 1 134 18 80 47 95 111 85
363 -7 182 -15 208 -78 246 -28 17 -51 20 -153 20 -139 0 -167 11 -216 84 -50
76 -37 172 32 238 48 45 77 53 190 53 110 0 159 16 198 66 20 26 21 37 21 318
0 274 -1 293 -20 324 -33 54 -88 72 -211 70 -114 -3 -141 6 -191 59 -34 36
-48 73 -48 129 0 82 43 144 125 181 38 17 131 18 1859 21 l1819 3 91 -55 c144
-85 193 -99 381 -105 l160 -6 5 -922 c3 -507 7 -924 10 -927 48 -50 430 -437
769 -778 471 -475 465 -470 511 -411 l20 26 -3 1601 c-3 1765 1 1639 -66 1807
-38 97 -88 181 -156 265 -31 37 -338 351 -683 699 -659 664 -696 697 -856 770
-93 43 -200 72 -311 85 -108 12 -3428 12 -3523 -1z m3921 -538 c76 -52 149
-132 179 -197 39 -83 47 -151 48 -384 1 -134 5 -206 14 -232 20 -56 69 -111
128 -144 l53 -29 250 -6 c268 -6 302 -12 371 -64 79 -60 144 -154 144 -207 0
-21 -8 -32 -32 -45 -30 -17 -73 -18 -528 -18 -452 0 -500 2 -547 18 -64 23
-127 82 -159 150 l-24 52 0 574 0 574 30 -7 c17 -3 50 -19 73 -35z m-1463 -11
c133 -75 129 -249 -7 -316 -36 -18 -85 -19 -1067 -22 -723 -2 -1046 1 -1083 8
-164 34 -202 226 -65 321 29 20 52 25 131 30 53 3 535 5 1071 5 l975 -1 45
-25z m-37 -741 c123 -34 176 -192 95 -285 -66 -74 27 -69 -1146 -72 -701 -2
-1066 1 -1092 8 -48 13 -105 75 -120 130 -24 90 26 183 117 215 31 12 222 14
1073 15 693 0 1047 -4 1073 -11z m377 -2790 l0 -84 -231 -233 -231 -234 -269
272 c-148 150 -269 274 -269 277 0 2 122 126 271 276 l270 271 230 -230 229
-231 0 -84z m611 -139 c119 -11 223 -22 230 -25 8 -3 106 -99 219 -213 113
-114 581 -585 1041 -1047 922 -927 884 -884 896 -1024 13 -158 -75 -305 -223
-373 -40 -19 -66 -23 -149 -23 -91 0 -106 3 -170 33 -67 31 -101 63 -835 802
l-766 770 -130 0 -129 0 -151 153 -152 152 8 402 c4 221 11 406 14 411 3 6 23
8 44 6 20 -2 134 -13 253 -24z m-2321 -2350 c19 -19 20 -34 22 -247 2 -306 -2
-454 -13 -475 -13 -25 -84 -25 -98 -1 -9 17 -12 17 -58 0 -26 -9 -59 -17 -73
-17 -41 1 -103 34 -142 78 -114 126 -77 358 67 423 51 24 89 23 143 -1 l42
-19 0 119 c0 116 1 119 26 139 33 26 58 27 84 1z m2399 -16 c51 -64 -8 -153
-82 -125 -38 15 -60 54 -52 91 14 62 96 82 134 34z m-3541 -219 c76 -32 103
-83 62 -120 -14 -13 -28 -16 -52 -10 -99 20 -124 18 -159 -13 -32 -29 -34 -34
-34 -95 0 -77 21 -114 79 -136 32 -12 41 -12 76 4 47 21 83 14 106 -20 15 -23
15 -27 0 -50 -22 -33 -66 -55 -126 -62 -102 -12 -196 42 -247 141 -65 126 -6
299 122 357 49 23 123 24 173 4z m498 -9 c97 -45 151 -145 141 -262 -8 -108
-68 -186 -168 -219 -153 -51 -312 73 -311 242 1 191 176 315 338 239z m1052 8
c82 -34 141 -120 142 -205 0 -69 -9 -73 -175 -77 -135 -4 -142 -5 -138 -23 3
-11 19 -31 36 -45 32 -27 52 -28 157 -9 27 5 41 2 63 -15 36 -28 34 -54 -5
-83 -105 -78 -256 -55 -335 51 -85 113 -65 296 42 377 59 46 145 58 213 29z
m523 6 c10 -6 19 -20 19 -30 0 -25 12 -25 35 0 16 18 72 40 102 40 22 0 73
-52 73 -74 0 -36 -36 -66 -78 -66 -88 0 -121 -64 -122 -229 0 -127 -10 -151
-61 -151 -54 0 -59 21 -59 267 0 218 0 222 22 237 26 19 42 20 69 6z m574 -9
c78 -35 140 -136 133 -217 -5 -58 -26 -65 -186 -62 -145 3 -150 1 -112 -52 31
-44 80 -56 140 -34 43 16 53 16 75 4 60 -32 51 -76 -23 -112 -100 -48 -200
-30 -275 51 -54 57 -72 105 -71 191 1 182 166 301 319 231z m279 -14 c18 -19
56 -89 85 -156 30 -67 56 -119 58 -117 2 2 32 64 66 136 71 153 97 181 146
160 53 -22 50 -43 -34 -227 -43 -92 -86 -187 -96 -209 -31 -73 -90 -95 -133
-49 -13 13 -47 80 -76 147 -30 68 -70 158 -91 201 -39 82 -41 108 -6 132 31
22 46 19 81 -18z m602 12 c17 -19 19 -41 22 -233 3 -204 3 -213 -18 -239 -29
-36 -71 -36 -99 -1 -20 25 -21 39 -21 234 0 195 1 209 21 234 25 32 68 35 95
5z m466 -15 c76 -53 130 -191 95 -239 -14 -18 -29 -20 -165 -23 -143 -3 -150
-4 -145 -23 3 -11 19 -30 35 -44 33 -28 73 -32 143 -13 40 11 47 10 72 -9 50
-37 41 -68 -29 -104 -169 -86 -361 38 -360 236 0 104 47 186 134 230 73 37
158 33 220 -11z m261 13 c13 -12 43 -75 67 -140 40 -109 60 -142 60 -99 0 30
69 224 86 244 23 25 59 23 81 -5 10 -13 36 -76 58 -140 22 -64 42 -117 45
-117 3 0 21 42 40 93 47 128 67 166 95 179 19 9 29 7 49 -6 43 -28 42 -54 -7
-178 -25 -62 -59 -153 -76 -203 -33 -93 -57 -125 -95 -125 -34 0 -60 36 -101
143 -20 54 -42 96 -48 94 -6 -2 -28 -50 -49 -108 -20 -57 -45 -109 -55 -116
-25 -19 -60 -16 -81 7 -21 23 -162 378 -169 427 -4 22 1 37 16 52 27 27 56 27
84 -2z"/>
<path d="M3297 1999 c-43 -25 -61 -133 -32 -189 33 -63 93 -77 144 -34 30 25
31 29 31 101 0 69 -2 77 -29 104 -31 31 -79 38 -114 18z"/>
<path d="M2739 1982 c-26 -23 -33 -38 -37 -80 -11 -115 72 -186 158 -136 40
24 60 65 60 124 0 46 -4 56 -34 86 -45 45 -101 48 -147 6z"/>
<path d="M3834 2010 c-18 -7 -54 -50 -54 -65 0 -3 43 -5 95 -5 52 0 95 2 95 5
0 21 -28 56 -53 65 -35 12 -54 12 -83 0z"/>
<path d="M4924 2010 c-21 -8 -54 -46 -54 -62 0 -5 43 -8 95 -8 52 0 95 3 95 6
0 19 -26 48 -55 60 -39 16 -51 16 -81 4z"/>
<path d="M6220 1992 c-16 -17 -30 -35 -30 -41 0 -7 34 -11 95 -11 53 0 95 4
95 9 0 26 -47 63 -87 68 -37 5 -45 2 -73 -25z"/>
<path d="M5615 6561 c-38 -16 -83 -67 -94 -107 -6 -21 -11 -96 -11 -166 l0
-127 -157 -3 c-147 -3 -160 -5 -191 -26 -45 -33 -66 -77 -66 -143 -1 -66 28
-116 85 -148 32 -19 54 -21 183 -21 l146 0 0 -135 c0 -91 4 -146 14 -168 17
-41 76 -93 114 -102 41 -9 104 10 142 41 54 46 60 69 60 224 l0 140 155 0
c169 0 188 5 236 57 38 41 49 66 49 115 0 55 -39 118 -90 147 -34 19 -54 21
-193 21 l-156 0 -3 154 c-3 168 -8 183 -71 230 -29 21 -119 32 -152 17z"/>
<path d="M3751 6518 c-74 -40 -85 -73 -89 -265 l-4 -163 -142 0 c-130 0 -147
-2 -186 -23 -109 -58 -115 -224 -10 -294 31 -21 44 -23 186 -23 l154 0 0 -120
c0 -138 9 -170 63 -217 61 -54 148 -56 207 -6 53 44 60 69 60 207 0 149 -20
134 192 138 l147 3 32 30 c73 69 85 157 29 233 -45 63 -76 72 -248 72 l-151 0
-3 174 c-3 158 -5 177 -24 202 -54 73 -137 93 -213 52z"/>
<path d="M3585 4671 c-35 -17 -303 -202 -379 -262 -64 -51 -75 -165 -21 -234
46 -61 134 -90 199 -65 42 16 373 248 400 281 60 71 54 171 -14 239 -32 32
-94 60 -131 60 -8 0 -32 -9 -54 -19z"/>
<path d="M4153 4100 c-44 -10 -58 -23 -245 -221 -149 -158 -166 -181 -177
-226 -36 -148 97 -264 237 -207 28 11 87 66 208 195 93 99 176 194 186 212 28
52 19 127 -22 184 -35 48 -122 77 -187 63z"/>
<path d="M4740 3751 c-19 -10 -48 -37 -65 -60 l-30 -43 0 -256 c0 -241 1 -259
21 -297 30 -58 84 -87 156 -82 70 4 119 38 143 100 14 36 16 80 13 293 l-3
251 -28 41 c-47 67 -137 91 -207 53z"/>
</g>
</svg>
