<?xml version="1.0" standalone="no"?>
<!DOCTYPE svg PUBLIC "-//W3C//DTD SVG 20010904//EN"
 "http://www.w3.org/TR/2001/REC-SVG-20010904/DTD/svg10.dtd">
<svg version="1.0" xmlns="http://www.w3.org/2000/svg"
 width="1024.000000pt" height="1024.000000pt" viewBox="0 0 1024.000000 1024.000000"
 preserveAspectRatio="xMidYMid meet">
<metadata>
Created by potrace 1.16, written by Peter Selinger 2001-2019
</metadata>
<g transform="translate(0.000000,1024.000000) scale(0.100000,-0.100000)"
fill="#000000" stroke="none">
<path d="M6694 9214 c-27 -28 -34 -44 -34 -75 0 -42 23 -99 40 -99 6 0 10 -38
10 -89 l0 -90 -53 -15 c-66 -19 -136 -65 -187 -123 -45 -51 -90 -136 -90 -170
0 -22 -4 -23 -70 -23 -47 0 -71 4 -77 14 -4 7 -18 18 -30 25 -67 35 -153 -20
-153 -98 0 -48 21 -96 49 -111 32 -16 86 -12 114 10 20 16 40 20 95 20 l70 0
6 -34 c11 -60 65 -152 116 -200 49 -46 158 -106 193 -106 16 0 17 -28 17 -454
0 -443 0 -454 21 -480 25 -32 59 -34 94 -3 23 20 27 31 28 85 l2 62 112 0
c109 0 112 1 132 26 28 36 26 68 -5 93 -23 18 -41 21 -129 21 l-102 0 -7 77
c-3 42 -6 188 -6 325 0 229 1 248 18 248 9 0 45 13 80 30 109 52 208 171 228
278 l6 32 64 0 c46 0 73 -6 96 -20 120 -73 237 82 138 182 -21 20 -38 28 -65
28 -36 0 -95 -26 -95 -42 0 -4 -31 -8 -70 -8 -61 0 -70 2 -70 18 0 34 -61 141
-110 195 -48 52 -130 101 -188 113 l-32 7 0 82 c0 70 4 91 27 134 24 47 25 55
14 92 -15 50 -59 79 -120 79 -37 0 -49 -5 -77 -36z m200 -524 c184 -92 197
-341 23 -452 -43 -28 -63 -33 -123 -36 -77 -4 -120 11 -183 64 -84 70 -111
209 -61 308 64 125 219 178 344 116z"/>
<path d="M6715 8614 c-85 -44 -124 -132 -94 -211 13 -34 55 -80 91 -99 101
-52 241 37 242 154 2 117 -139 209 -239 156z"/>
<path d="M3145 9217 c-42 -20 -93 -80 -100 -121 -14 -73 21 -142 87 -175 53
-25 98 -27 140 -5 41 21 89 8 147 -43 49 -41 71 -85 71 -138 0 -25 8 -44 25
-60 56 -57 115 -13 115 85 0 114 -95 239 -217 286 -30 12 -43 23 -43 36 0 35
-28 85 -63 112 -42 32 -118 43 -162 23z"/>
<path d="M1023 9203 c-12 -2 -33 -17 -46 -33 -23 -27 -24 -33 -31 -303 -7
-291 -2 -348 34 -367 10 -5 68 -10 129 -10 l111 0 0 -34 0 -34 -109 -4 c-118
-4 -142 -14 -163 -68 -6 -16 -7 -130 -3 -310 l8 -284 28 -28 27 -28 319 0
c235 0 322 3 331 12 8 8 12 67 12 199 l0 186 -39 7 c-22 3 -69 21 -104 40
l-65 33 -86 -86 -86 -86 0 -83 0 -83 -97 3 -98 3 2 100 c2 54 5 105 7 112 4 9
25 13 63 13 l58 0 91 89 c88 88 90 90 76 116 -7 15 -19 46 -27 71 l-13 44 118
0 c114 0 118 1 134 25 22 34 20 58 -7 83 -21 20 -34 22 -136 22 l-113 0 7 28
c31 125 138 232 273 272 l42 13 0 167 c0 128 -3 171 -14 186 -14 18 -30 19
-313 20 -164 1 -308 0 -320 -3z m267 -251 c0 -63 -4 -102 -12 -110 -7 -7 -44
-12 -95 -12 l-83 0 0 110 0 110 95 0 95 0 0 -98z"/>
<path d="M1783 9203 c-41 -8 -44 -23 -41 -204 l3 -173 54 -13 c30 -8 72 -27
95 -42 l41 -28 88 82 87 83 0 60 c0 59 1 63 45 105 51 51 56 77 20 112 -24 25
-26 25 -197 24 -95 -1 -183 -4 -195 -6z"/>
<path d="M4255 9202 c-75 -25 -85 -52 -85 -225 0 -82 4 -156 10 -166 5 -10 23
-24 40 -31 25 -10 34 -10 55 4 37 24 45 54 45 172 l0 104 710 0 710 0 2 -591
c2 -325 1 -595 -3 -600 -3 -5 -313 -10 -712 -11 l-707 -3 0 373 c0 359 -1 373
-20 392 -27 27 -83 27 -110 0 -20 -20 -21 -30 -18 -436 l3 -416 37 -34 38 -34
360 0 360 0 0 -444 0 -445 -89 -3 -90 -3 -3 325 c-3 354 -4 355 -61 390 -30
19 -53 20 -394 20 l-363 0 0 118 c0 128 -9 154 -55 166 -25 6 -64 -7 -77 -28
-4 -6 -8 -84 -8 -174 l0 -164 29 -29 29 -29 326 -2 c179 -1 347 -2 374 -3 l47
0 5 -220 c3 -121 3 -258 0 -304 l-5 -85 -110 -22 c-254 -50 -551 -155 -822
-289 l-143 -70 0 106 c0 93 3 110 21 133 29 36 36 104 16 143 -17 33 -70 63
-110 63 -38 0 -91 -41 -104 -82 -13 -40 -2 -100 23 -129 10 -11 14 -54 15
-169 0 -137 -1 -154 -17 -163 -115 -64 -416 -290 -531 -398 -28 -27 -53 -49
-55 -49 -2 0 -2 252 0 560 l2 560 543 2 c298 1 658 3 800 3 l258 0 19 25 c25
32 25 62 1 91 l-19 24 -684 0 c-375 0 -757 -2 -846 -5 l-164 -5 -24 -28 -24
-28 0 -825 c0 -811 0 -824 20 -844 29 -29 74 -26 99 6 19 24 21 40 21 144 l0
118 83 74 c300 271 574 461 891 620 355 178 738 289 1054 305 l123 6 -3 -154
-3 -154 -45 -2 c-481 -27 -979 -218 -1461 -564 -168 -120 -363 -276 -488 -389
-57 -52 -131 -119 -164 -147 l-61 -53 -91 0 c-51 0 -113 3 -138 6 l-45 7 -4
127 c-4 148 -13 170 -78 170 -73 0 -71 14 -70 -458 l0 -419 -31 -7 c-17 -3
-46 -6 -64 -6 -47 0 -65 -26 -65 -93 0 -87 15 -97 140 -97 96 0 101 1 132 29
l33 29 3 286 3 286 104 0 105 0 0 -429 0 -430 26 -20 c35 -27 65 -27 92 2 20
21 22 34 22 155 0 73 3 132 8 132 4 0 43 -32 87 -71 174 -153 379 -309 557
-421 193 -120 499 -264 758 -354 57 -20 96 -39 98 -49 3 -13 -64 -15 -602 -15
l-606 0 -32 -29 -33 -29 3 -454 c2 -249 5 -460 8 -469 7 -26 51 -44 82 -33 51
18 52 27 52 467 l0 407 606 0 606 0 29 29 29 29 0 184 c0 210 -5 228 -66 228
-50 0 -74 -28 -74 -90 0 -27 -2 -50 -5 -50 -2 0 -62 21 -132 46 -233 85 -538
239 -742 376 -180 121 -448 335 -583 466 l-48 46 0 193 c0 106 3 193 6 193 3
0 51 -39 106 -88 615 -531 1009 -785 1442 -927 285 -94 465 -121 736 -112 249
9 476 56 737 153 207 77 437 200 693 372 182 123 284 201 555 426 109 91 207
166 217 166 17 0 18 -13 18 -182 0 -101 -4 -188 -8 -193 -29 -41 -423 -364
-557 -457 -269 -187 -632 -369 -921 -461 -234 -75 -413 -110 -622 -123 l-112
-7 0 45 c0 83 -64 126 -120 80 -18 -14 -22 -29 -23 -71 l-1 -53 -132 6 c-130
7 -131 7 -160 -17 l-29 -25 0 -444 0 -443 -378 -5 -379 -5 -29 -33 -29 -32 0
-194 c0 -171 2 -195 18 -208 32 -29 58 -30 89 -4 l28 24 5 154 5 153 378 5
379 5 23 29 c12 16 25 45 29 65 3 20 6 215 6 435 l0 399 46 -7 c26 -3 66 -6
90 -6 l43 0 3 -436 3 -436 28 -24 c28 -24 31 -24 237 -24 l209 0 20 26 c28 36
26 50 -8 85 l-29 29 -161 0 -161 0 0 390 0 390 74 0 c41 0 81 3 90 6 13 5 15
-29 18 -280 l3 -286 28 -27 27 -28 636 2 c350 1 644 5 653 8 26 8 45 49 37 80
-13 53 -21 54 -647 52 -315 -1 -580 2 -586 6 -10 6 -13 68 -13 253 0 235 1
244 20 244 10 0 83 14 162 31 167 37 369 100 521 163 59 25 107 44 108 43 0
-1 1 -19 3 -40 2 -21 11 -47 22 -57 10 -10 186 -144 389 -297 204 -153 439
-332 523 -397 l153 -118 -3 -66 -3 -67 -600 -5 c-330 -3 -601 -6 -602 -8 -1
-1 -11 -12 -23 -24 -33 -36 -22 -80 27 -106 31 -17 1214 -16 1262 1 64 23 76
51 79 203 3 106 0 140 -11 157 -14 22 -118 102 -736 567 l-326 245 -3 47 -3
47 89 45 c224 113 454 268 698 471 l149 124 5 -632 c3 -348 9 -638 13 -645 12
-18 56 -34 77 -27 10 3 25 21 34 39 14 30 16 131 16 940 l0 906 144 0 c79 0
152 3 161 6 8 4 23 20 31 36 13 24 13 35 4 58 -19 46 -51 53 -240 48 l-171 -4
-83 71 c-46 38 -142 120 -212 180 -166 141 -375 295 -561 413 -164 104 -477
262 -623 316 -262 97 -576 166 -752 166 l-58 0 0 157 0 156 118 -6 c289 -15
641 -101 925 -227 l97 -44 0 -122 c0 -120 0 -123 26 -143 34 -26 68 -27 94 -1
17 17 20 33 20 110 0 50 2 90 5 90 12 0 160 -84 265 -150 223 -140 416 -289
598 -461 l72 -69 0 -114 c0 -112 1 -115 26 -135 33 -26 55 -26 85 -2 24 19 24
22 24 209 0 188 0 191 -24 216 -18 19 -35 26 -60 26 -31 0 -50 13 -136 87
-132 115 -345 273 -472 351 l-103 63 63 57 c136 126 279 250 347 302 69 52 70
53 70 167 l0 103 126 0 c69 0 134 5 145 10 48 26 49 37 49 538 0 460 0 470
-21 496 -15 19 -30 26 -53 26 -67 0 -66 13 -68 -481 l-3 -444 -133 -5 c-131
-5 -134 -5 -158 -33 -22 -26 -24 -37 -24 -134 l0 -105 -47 -43 c-27 -23 -87
-75 -134 -116 -47 -41 -134 -116 -194 -168 -89 -78 -110 -93 -124 -84 -10 6
-41 23 -69 38 l-52 27 0 132 c0 120 -2 135 -20 151 -29 26 -79 24 -102 -4 -15
-19 -18 -41 -18 -118 0 -86 -2 -95 -17 -90 -10 3 -81 29 -158 58 -168 62 -402
129 -542 154 l-103 19 1 280 c0 155 4 289 8 300 7 18 25 19 362 20 385 2 385
2 419 59 18 29 20 52 20 275 0 229 -1 243 -20 262 -24 24 -67 26 -98 4 -22
-15 -22 -19 -22 -235 l0 -219 -332 0 c-183 -1 -353 -5 -377 -9 -25 -5 -54 -20
-70 -35 l-26 -26 -3 -336 c-2 -298 -5 -335 -18 -330 -9 3 -49 6 -90 6 l-74 0
0 445 0 445 344 0 c341 0 343 0 377 23 18 12 39 34 46 47 10 20 12 172 10 697
l-2 673 -33 32 -32 33 -773 2 c-424 0 -781 -2 -792 -5z m900 -3062 c176 -25
351 -93 479 -184 73 -52 193 -177 221 -229 11 -20 26 -37 35 -37 26 0 116 69
149 114 37 53 60 62 99 42 31 -16 42 -34 42 -67 0 -28 -83 -113 -158 -161 -44
-29 -62 -46 -58 -57 2 -9 19 -55 36 -103 36 -103 61 -249 43 -255 -34 -12 -63
-46 -63 -76 0 -34 33 -77 60 -77 16 0 16 -6 -2 -87 -46 -219 -117 -358 -256
-504 -272 -286 -658 -388 -1027 -272 -195 61 -380 193 -492 350 -25 35 -48 63
-52 63 -17 0 -88 -55 -132 -101 -51 -55 -85 -63 -119 -29 -47 47 -6 110 130
200 36 24 67 44 69 46 2 2 -11 37 -28 78 -28 66 -77 246 -69 250 45 20 64 37
72 59 13 35 -7 73 -45 86 -34 12 -35 19 -13 131 38 203 120 355 274 511 117
119 218 190 336 237 182 72 320 93 469 72z m-1132 -296 c35 -6 37 -8 37 -45
l0 -39 -66 0 c-109 0 -102 18 -96 -260 l5 -240 -47 0 -46 0 0 269 0 269 27 17
c49 33 108 41 186 29z m2523 -279 l-48 -52 -42 46 c-22 25 -45 49 -49 52 -5 3
13 27 39 52 l48 45 51 -46 50 -46 -49 -51z m-3036 -87 l28 -23 -47 -53 -47
-53 -54 54 -55 54 50 49 50 50 23 -28 c13 -15 36 -37 52 -50z m3407 -113 l47
-45 -45 -47 c-24 -26 -46 -50 -48 -53 -2 -3 -6 2 -9 10 -3 8 -22 32 -43 53
l-39 39 43 43 c23 24 43 44 44 44 2 1 24 -19 50 -44z m-3604 -283 l48 -49 -47
-46 -46 -47 -52 47 -51 47 45 47 c25 26 47 47 50 48 3 1 27 -21 53 -47z m3087
-272 l0 -220 -45 0 -45 0 0 220 0 220 45 0 45 0 0 -220z m393 135 l47 -44 -47
-45 -48 -45 -47 46 -46 45 41 43 c23 23 44 42 47 43 3 1 26 -19 53 -43z
m-3075 -175 l49 -50 -54 -58 c-29 -31 -53 -52 -53 -45 0 6 -20 32 -44 57 l-44
45 46 49 c26 27 48 50 49 51 2 0 25 -22 51 -49z"/>
<path d="M4986 6038 c-9 -12 -16 -30 -16 -38 0 -12 -18 -19 -72 -28 -146 -25
-304 -104 -419 -210 -323 -298 -366 -768 -103 -1139 115 -162 344 -295 549
-319 48 -6 55 -9 50 -25 -7 -22 44 -79 70 -79 23 0 75 54 75 79 0 16 6 21 29
21 50 0 219 49 294 85 209 100 369 296 437 535 33 114 37 279 12 403 -71 339
-352 602 -704 658 -62 9 -78 15 -78 29 0 48 -95 70 -124 28z m34 -398 c43 -22
79 -80 80 -128 0 -58 -52 -113 -132 -137 -104 -31 -137 -79 -149 -218 -4 -54
-13 -97 -24 -113 -25 -38 -74 -64 -123 -64 -113 0 -179 97 -170 249 6 98 52
200 133 289 122 134 269 181 385 122z"/>
<path d="M7765 9203 c-33 -9 -62 -33 -74 -61 -8 -19 -11 -222 -9 -709 l3 -681
24 -26 24 -26 323 0 323 0 20 26 c28 35 27 75 -2 102 -22 20 -34 22 -226 24
l-204 3 107 107 108 107 37 -23 c39 -24 80 -41 124 -50 41 -9 81 36 73 83 -7
43 -29 67 -75 82 -20 6 -40 15 -45 19 -4 5 54 69 130 144 l139 135 74 1 74 0
-6 -54 c-10 -95 -78 -195 -165 -240 -16 -8 -32 -23 -36 -31 -3 -9 -6 -101 -6
-204 0 -153 3 -191 16 -209 15 -22 17 -22 309 -22 l293 0 31 35 31 36 0 224 0
224 -26 20 c-24 19 -40 21 -166 21 -124 0 -139 2 -134 16 3 9 6 53 6 99 l0 83
131 4 131 3 29 33 29 32 0 298 c0 279 -1 299 -20 330 -11 18 -32 37 -46 42
-26 10 -1310 12 -1349 3z m1125 -199 c-30 -30 -85 -82 -121 -115 l-67 -59 -54
24 c-83 37 -193 51 -280 37 -96 -16 -168 -52 -244 -123 -77 -72 -116 -149
-135 -259 -15 -95 -2 -187 41 -277 l29 -61 -107 -110 c-59 -61 -110 -111 -114
-111 -10 0 -11 1094 -1 1103 3 4 254 7 557 7 l550 0 -54 -56z m140 -239 l0
-155 -266 0 -267 0 -162 -161 -163 -161 -17 46 c-41 106 0 256 89 332 99 84
220 95 364 31 46 -20 95 -37 110 -37 33 0 77 34 207 162 55 54 101 98 103 98
1 0 2 -70 2 -155z"/>
<path d="M7917 8912 c-25 -27 -22 -78 5 -96 34 -24 73 -20 92 9 20 31 20 54 0
83 -19 28 -74 30 -97 4z"/>
<path d="M2339 9181 c-23 -19 -24 -23 -24 -183 l0 -163 -84 -7 -85 -7 -77 -77
c-67 -66 -77 -80 -66 -94 19 -23 47 -88 47 -110 0 -19 -7 -20 -115 -20 -102 0
-117 -2 -135 -20 -27 -27 -25 -62 3 -88 21 -20 34 -22 136 -22 l113 0 -7 -32
c-4 -18 -15 -52 -25 -74 l-18 -42 44 -43 c24 -24 44 -47 44 -52 0 -6 -12 -21
-26 -34 l-26 -24 -50 42 -49 41 -47 -25 c-26 -13 -71 -31 -100 -38 l-53 -13 3
-188 c2 -155 6 -190 18 -198 9 -6 148 -10 326 -10 l312 0 30 32 c41 41 44 64
40 371 l-3 259 -33 29 c-31 28 -35 29 -138 29 l-105 0 3 33 3 32 106 3 c103 3
107 3 135 33 l29 30 3 282 c2 155 0 292 -3 305 -14 58 -80 80 -126 43z m-24
-1173 c4 -35 5 -85 3 -113 l-3 -50 -97 -3 -98 -3 0 82 c0 79 1 82 34 115 31
31 39 34 94 34 l60 0 7 -62z"/>
<path d="M6155 9066 c-44 -19 -57 -40 -57 -90 -1 -57 22 -92 70 -107 121 -36
184 138 72 196 -35 18 -46 18 -85 1z"/>
<path d="M7313 9060 c-62 -37 -72 -108 -24 -162 24 -27 36 -33 71 -33 35 0 47
6 71 33 50 56 36 133 -31 167 -38 19 -49 19 -87 -5z"/>
<path d="M4410 8837 l0 -124 118 -45 c64 -25 154 -62 199 -81 l82 -36 21 34
c25 40 68 73 119 91 l36 12 5 132 c3 72 3 134 1 136 -2 2 -134 4 -293 4 l-288
0 0 -123z"/>
<path d="M5481 8941 c-12 -12 -24 -35 -28 -52 -4 -22 -28 -49 -90 -101 l-84
-71 -32 31 c-31 30 -129 82 -154 82 -9 0 -13 -21 -13 -73 l0 -73 52 -34 c114
-76 139 -214 56 -314 -57 -69 -161 -97 -243 -66 -68 26 -135 99 -135 147 0 17
-15 27 -77 54 -82 34 -262 102 -301 114 l-23 7 3 -316 3 -316 342 0 343 0 0
79 0 79 34 6 c18 4 59 25 90 47 l56 40 25 -19 c78 -61 146 -134 151 -161 4
-16 16 -39 29 -51 19 -18 32 -21 91 -18 l69 3 3 82 c2 72 0 85 -18 103 -11 11
-33 20 -49 20 -42 0 -211 145 -211 181 0 15 7 30 16 33 9 3 69 6 135 6 l119 0
0 70 0 70 -134 0 c-130 0 -134 1 -140 23 -10 37 -7 43 28 68 18 13 59 46 89
74 45 39 67 52 109 60 l53 10 3 80 c1 44 -2 87 -7 94 -6 10 -33 16 -74 19 -56
4 -68 1 -86 -17z"/>
<path d="M3865 8918 c-54 -31 -61 -92 -15 -131 26 -22 35 -24 62 -16 18 5 34
9 35 9 6 0 33 61 33 75 0 22 -54 75 -77 75 -10 0 -27 -6 -38 -12z"/>
<path d="M2818 8886 c-82 -32 -130 -90 -144 -174 -26 -163 157 -298 300 -221
l38 20 27 -23 c14 -12 45 -40 67 -61 l41 -39 -19 -39 c-10 -22 -22 -60 -27
-85 -5 -25 -11 -47 -14 -50 -3 -3 -35 -9 -72 -15 -66 -9 -67 -9 -96 21 -64 63
-154 64 -221 1 -35 -32 -41 -45 -46 -89 -6 -67 11 -107 61 -143 67 -48 156
-34 213 34 21 25 38 32 97 43 96 17 94 17 101 -9 16 -66 150 -185 228 -202 26
-6 29 -10 25 -34 -3 -14 -11 -63 -17 -109 -11 -74 -15 -83 -37 -88 -55 -14
-102 -122 -84 -192 12 -42 72 -106 111 -117 65 -20 127 1 178 59 56 65 53 151
-10 215 l-32 32 13 89 c19 133 23 143 57 151 143 29 267 212 250 370 -12 121
-90 235 -197 288 -101 51 -206 51 -313 0 l-44 -20 -77 64 -76 64 -3 66 c-2 56
-7 73 -32 108 -55 76 -168 114 -246 85z m737 -510 c23 -14 55 -44 71 -67 25
-36 29 -52 29 -109 0 -56 -4 -73 -27 -108 -84 -127 -265 -129 -353 -4 -56 81
-36 210 41 269 77 58 161 65 239 19z"/>
<path d="M3393 8290 c-89 -54 -49 -200 55 -200 49 0 112 63 112 112 0 43 -23
76 -66 94 -44 19 -63 18 -101 -6z"/>
<path d="M1662 8713 c-16 -6 -42 -56 -42 -82 0 -25 55 -71 84 -71 33 0 76 46
76 82 0 54 -64 93 -118 71z"/>
<path d="M3850 8600 c-43 -43 -10 -130 49 -130 31 0 71 43 71 78 0 60 -78 94
-120 52z"/>
<path d="M4974 8576 c-71 -31 -87 -119 -34 -179 38 -43 73 -51 127 -27 43 19
73 60 73 102 0 52 -67 119 -117 118 -10 -1 -32 -7 -49 -14z"/>
<path d="M1641 8334 c-12 -15 -21 -35 -21 -46 0 -29 54 -78 85 -78 35 0 75 41
75 78 0 67 -97 99 -139 46z"/>
<path d="M6119 8261 c-51 -41 -13 -141 53 -141 54 0 92 61 72 115 -8 19 -55
45 -82 45 -11 0 -30 -8 -43 -19z"/>
<path d="M3867 8048 c-28 -22 -32 -63 -8 -87 27 -27 52 -27 79 2 26 28 27 45
6 75 -17 24 -51 29 -77 10z"/>
<path d="M6452 7994 c-15 -10 -22 -25 -22 -49 0 -62 63 -95 106 -54 32 30 32
72 -2 98 -32 25 -52 26 -82 5z"/>
<path d="M7030 7980 c-31 -31 -27 -83 11 -114 17 -14 35 -26 40 -26 37 0 78
56 71 97 -4 29 -48 63 -78 63 -13 0 -33 -9 -44 -20z"/>
<path d="M2947 7842 c-10 -10 -17 -29 -17 -41 0 -25 42 -71 65 -71 24 0 65 46
65 73 0 51 -78 78 -113 39z"/>
<path d="M2700 7770 c-44 -44 -14 -140 44 -140 38 0 56 10 72 41 18 36 10 73
-23 99 -33 25 -68 25 -93 0z"/>
<path d="M7053 7700 c-49 -20 -59 -96 -17 -135 15 -14 38 -25 51 -25 34 0 73
46 73 85 0 52 -60 94 -107 75z"/>
<path d="M2974 7580 c-28 -11 -54 -48 -54 -78 0 -31 52 -82 83 -82 31 0 77 51
77 85 0 28 -36 71 -65 78 -11 3 -30 2 -41 -3z"/>
<path d="M984 7486 c-20 -20 -34 -44 -34 -57 0 -13 -1 -298 -3 -634 -2 -335 0
-624 5 -642 5 -17 22 -43 39 -57 l31 -26 685 0 686 0 33 35 c25 27 34 47 39
87 3 29 5 321 3 648 l-3 595 -24 33 c-13 18 -34 38 -48 43 -14 5 -307 9 -700
9 l-675 0 -34 -34z m656 -191 c0 -68 -2 -75 -20 -75 -34 0 -121 -38 -160 -69
l-37 -30 -38 45 c-34 42 -36 46 -21 63 9 10 16 25 16 34 0 15 -13 17 -90 17
l-90 0 0 -85 c0 -75 2 -85 18 -85 10 0 27 6 38 14 17 14 23 11 61 -26 l42 -42
-31 -55 c-18 -31 -37 -76 -44 -101 l-11 -45 -87 -3 -86 -3 0 261 0 260 270 0
270 0 0 -75z m670 -185 l0 -260 -89 0 -88 0 -18 65 c-9 36 -31 83 -47 106 -16
22 -28 42 -26 42 2 1 22 19 45 41 40 37 42 38 64 22 13 -9 31 -16 41 -16 16 0
18 10 18 85 l0 85 -89 0 c-53 0 -93 -4 -96 -11 -4 -6 3 -21 15 -35 l23 -24
-44 -38 -43 -39 -54 34 c-29 19 -75 39 -102 46 -27 6 -52 17 -54 23 -2 6 -2
39 1 73 l6 61 268 0 269 0 0 -260z m-566 -21 c34 -16 59 -70 47 -102 -13 -32
-58 -67 -88 -67 -63 0 -114 60 -94 112 12 33 57 68 87 68 13 0 34 -5 48 -11z
m11 -254 c53 -52 18 -135 -56 -135 -29 0 -42 6 -58 26 -28 36 -26 66 5 103 33
39 74 41 109 6z m-465 -167 c10 -31 29 -77 43 -101 l26 -44 -42 -41 c-46 -45
-57 -50 -57 -27 0 10 -10 15 -30 15 l-31 0 3 -82 3 -83 88 -3 c86 -3 87 -3 87
21 0 14 -7 30 -15 37 -12 10 -9 18 21 55 l36 43 42 -28 c48 -32 145 -69 164
-63 9 4 12 -16 12 -76 l0 -81 -270 0 -270 0 0 254 0 255 23 4 c12 3 51 4 86 3
l63 -1 18 -57z m1020 -200 l0 -258 -276 0 -277 0 7 38 c3 20 6 56 6 80 0 30 4
42 15 42 26 0 108 31 148 57 l40 25 40 -41 c40 -40 41 -40 22 -61 -29 -32 -6
-44 90 -49 l85 -3 0 86 0 86 -29 0 c-21 0 -32 -6 -36 -21 -6 -19 -10 -17 -51
24 l-45 44 36 73 c19 41 35 82 35 91 0 47 8 51 101 47 l89 -3 0 -257z"/>
<path d="M7732 7500 c-18 -11 -37 -32 -42 -46 -7 -17 -9 -262 -8 -676 l3 -650
33 -29 32 -29 228 0 229 0 24 26 24 26 3 623 3 623 68 4 c38 2 117 2 175 0
l106 -4 0 -579 0 -579 -49 0 -50 0 -3 154 c-3 135 -5 157 -22 175 -25 27 -79
28 -106 1 -19 -19 -20 -33 -20 -211 0 -192 4 -219 39 -246 12 -9 105 -12 357
-13 331 0 342 1 368 21 58 45 56 23 56 709 0 544 -2 635 -15 660 -32 62 -10
60 -737 60 -645 0 -664 -1 -696 -20z m296 -126 l92 -7 0 -578 0 -579 -145 0
-145 0 0 85 0 85 79 0 c76 0 80 1 105 31 30 36 31 40 11 78 -18 37 -31 41
-121 41 l-74 0 0 90 0 90 84 0 c76 0 86 2 100 22 21 30 20 71 -2 98 -16 20
-27 22 -100 21 l-82 -1 0 90 0 89 87 3 c86 3 87 3 106 35 17 29 17 34 3 62
-22 42 -30 45 -118 42 l-78 -1 0 99 c0 95 1 100 23 104 37 7 80 7 175 1z m950
-4 l52 0 0 -100 0 -100 -80 0 c-75 0 -83 -2 -105 -26 -14 -15 -25 -35 -25 -44
0 -9 11 -29 25 -44 22 -24 30 -26 105 -26 l80 0 0 -90 0 -90 -79 1 c-88 2 -95
0 -116 -42 -14 -26 -14 -32 0 -59 19 -36 60 -49 138 -42 l57 4 0 -91 0 -91
-74 0 c-90 0 -103 -4 -122 -42 -18 -35 -11 -61 23 -88 21 -16 41 -20 99 -20
l74 0 0 -85 0 -85 -134 0 c-113 0 -135 2 -140 16 -9 23 -7 1139 2 1148 4 5 43
6 87 2 44 -3 104 -6 133 -6z"/>
<path d="M2706 7408 c-38 -33 -44 -78 -14 -111 37 -42 72 -45 108 -9 39 39 39
74 1 113 -35 35 -61 37 -95 7z"/>
<path d="M8407 7293 c-18 -5 -47 -51 -47 -76 0 -24 45 -57 78 -57 54 0 81 66
45 108 -20 22 -49 32 -76 25z"/>
<path d="M5666 7219 c-54 -43 -19 -149 49 -149 35 0 85 50 85 85 0 34 -50 85
-83 85 -13 0 -36 -9 -51 -21z"/>
<path d="M6005 7228 c-31 -17 -45 -39 -45 -72 1 -35 15 -57 47 -74 35 -19 60
-14 87 19 34 40 33 74 -3 110 -31 31 -53 35 -86 17z"/>
<path d="M6375 7168 c-32 -17 -45 -39 -45 -78 0 -66 61 -105 118 -76 33 17 42
34 42 76 0 42 -9 59 -41 75 -33 18 -47 18 -74 3z"/>
<path d="M8385 7035 c-30 -30 -31 -54 -4 -89 27 -34 81 -36 103 -4 35 49 5
118 -49 118 -14 0 -37 -11 -50 -25z"/>
<path d="M6732 6940 c-49 -46 -12 -130 56 -130 61 0 86 89 36 129 -34 27 -64
27 -92 1z"/>
<path d="M3066 6799 c-49 -39 -28 -130 33 -144 37 -8 66 7 86 45 19 37 11 74
-22 100 -33 26 -64 25 -97 -1z"/>
<path d="M3792 6804 c-28 -19 -29 -63 -2 -92 27 -28 61 -28 88 1 27 29 28 61
2 87 -24 24 -57 26 -88 4z"/>
<path d="M8381 6794 c-12 -15 -21 -35 -21 -46 0 -26 44 -68 73 -68 31 0 70 42
70 75 0 63 -82 89 -122 39z"/>
<path d="M7354 6708 c-47 -22 -56 -86 -19 -123 61 -62 151 6 119 90 -6 15 -55
46 -71 44 -4 0 -18 -5 -29 -11z"/>
<path d="M3060 6480 c-49 -49 -9 -150 59 -150 37 0 81 49 81 91 0 65 -94 105
-140 59z"/>
<path d="M7005 6425 c-32 -31 -32 -66 1 -104 18 -22 35 -31 55 -31 40 0 79 40
79 80 0 19 -9 40 -25 55 -15 16 -36 25 -55 25 -19 0 -40 -9 -55 -25z"/>
<path d="M7335 6265 c-46 -45 -26 -116 38 -138 22 -8 72 16 81 38 15 39 6 83
-20 104 -35 28 -69 26 -99 -4z"/>
<path d="M7955 5930 c-14 -15 -19 -40 -21 -105 -5 -134 -55 -220 -164 -282
-68 -39 -90 -63 -90 -95 0 -36 40 -78 75 -78 76 0 213 106 273 212 40 71 51
115 54 230 2 83 0 99 -16 117 -25 28 -86 28 -111 1z"/>
<path d="M8693 5940 c-34 -14 -43 -42 -43 -139 0 -49 -3 -96 -6 -105 -5 -14
-35 -16 -230 -16 -218 0 -224 -1 -249 -23 -20 -17 -28 -35 -32 -70 -5 -40 -10
-50 -35 -63 -52 -27 -110 -88 -134 -139 -30 -64 -35 -223 -7 -246 12 -10 51
-14 152 -14 l136 0 3 76 3 77 142 7 c78 4 160 5 182 3 l40 -4 3 -76 3 -76 65
-7 c35 -4 98 -4 138 0 88 8 86 5 86 148 l0 97 60 0 60 0 0 -265 0 -265 -60 0
-59 0 -3 103 -3 102 -142 3 -142 3 -3 -68 -3 -68 -182 -3 -182 -2 -3 67 -3 68
-139 3 c-99 2 -142 -1 -153 -10 -23 -18 -13 -150 15 -203 22 -44 97 -119 137
-137 22 -10 25 -17 25 -68 0 -68 15 -117 40 -130 10 -6 93 -10 183 -10 90 0
191 -3 224 -6 l60 -7 5 -115 c5 -104 8 -118 28 -134 31 -25 72 -23 98 5 21 22
22 33 24 242 l3 220 167 3 167 2 25 31 26 31 0 338 c0 242 -3 347 -12 365 -21
47 -52 55 -223 55 l-155 0 0 193 c0 172 -2 196 -17 209 -25 22 -54 28 -80 18z"/>
<path d="M8385 5908 c-80 -46 -47 -154 44 -146 27 2 39 10 54 36 17 28 17 37
7 63 -7 16 -25 36 -41 44 -33 18 -38 18 -64 3z"/>
<path d="M973 5876 c-27 -24 -28 -27 -28 -129 0 -124 12 -147 76 -147 46 0 79
36 79 86 l0 34 60 0 c57 0 61 2 81 33 24 38 21 98 -7 128 -15 16 -31 19 -125
19 -100 0 -110 -2 -136 -24z"/>
<path d="M2196 5879 c-21 -16 -26 -29 -26 -64 0 -65 32 -98 96 -101 l49 -2 6
-42 c7 -51 29 -70 80 -70 57 0 69 24 69 138 0 97 -14 144 -45 156 -9 3 -58 6
-109 6 -79 0 -97 -3 -120 -21z"/>
<path d="M7706 5879 c-20 -16 -26 -29 -26 -58 0 -83 78 -121 134 -65 75 76
-24 189 -108 123z"/>
<path d="M9002 5877 c-47 -50 -12 -147 53 -147 38 0 85 50 85 90 0 69 -91 107
-138 57z"/>
<path d="M1394 5781 c-50 -9 -70 -64 -38 -109 l15 -22 350 0 c336 0 350 1 369
20 25 25 26 61 1 91 l-19 24 -329 0 c-181 0 -338 -2 -349 -4z"/>
<path d="M1220 5510 c-56 -56 18 -143 95 -114 10 4 23 21 30 38 11 25 11 35
-1 57 -22 44 -89 54 -124 19z"/>
<path d="M1582 5518 c-29 -15 -39 -55 -21 -87 11 -19 26 -28 59 -33 64 -12
129 -3 146 19 22 29 17 79 -8 97 -26 19 -140 21 -176 4z"/>
<path d="M1915 5506 c-32 -32 -31 -47 1 -85 l26 -31 119 0 c117 0 121 1 144
26 30 32 31 54 6 85 -18 23 -27 24 -145 27 -123 4 -126 3 -151 -22z"/>
<path d="M964 5489 c-18 -20 -19 -43 -19 -516 l0 -495 28 -24 c26 -22 36 -24
136 -24 130 0 141 7 142 92 1 86 -9 98 -86 98 -55 0 -65 3 -65 18 0 9 -2 200
-3 423 -2 384 -3 408 -21 428 -26 29 -86 29 -112 0z"/>
<path d="M1365 5302 c-128 -2 -141 -4 -157 -23 -25 -29 -22 -55 7 -84 l24 -25
319 0 c296 0 321 1 343 18 27 23 30 75 5 100 -15 15 -41 17 -209 17 -106 0
-255 -1 -332 -3z"/>
<path d="M8350 5198 c0 -2 -3 -45 -6 -95 l-5 -93 85 0 86 0 0 89 0 89 -31 6
c-30 6 -129 9 -129 4z"/>
<path d="M1528 5082 c-181 -3 -198 -9 -198 -68 0 -63 4 -64 386 -64 312 0 342
1 356 18 25 28 29 52 13 81 -19 38 -51 43 -241 39 -84 -2 -226 -4 -316 -6z"/>
<path d="M7700 4870 c-24 -24 -26 -67 -4 -98 8 -12 38 -34 66 -48 63 -32 92
-63 131 -139 26 -50 31 -74 35 -150 5 -105 22 -135 79 -135 49 0 73 43 73 135
0 179 -86 332 -234 420 -69 40 -116 45 -146 15z"/>
<path d="M1207 4832 c-22 -25 -21 -75 1 -95 17 -15 66 -17 494 -17 440 0 476
1 490 18 28 31 30 57 7 85 l-20 27 -478 0 c-450 0 -479 -1 -494 -18z"/>
<path d="M1337 4582 c-22 -25 -21 -75 1 -95 14 -13 38 -17 95 -17 67 0 78 3
91 22 21 30 20 71 -2 91 -28 25 -163 24 -185 -1z"/>
<path d="M1732 4577 c-20 -21 -22 -34 -22 -145 l0 -122 -360 0 -361 0 -24 -25
c-14 -13 -25 -33 -25 -45 0 -12 11 -32 25 -45 l24 -25 625 0 625 0 25 23 c38
34 42 62 12 92 l-25 25 -200 0 -200 0 -6 33 c-3 17 -4 52 -2 77 l3 45 92 5
c68 4 95 9 102 20 18 29 15 67 -7 93 -14 14 -35 17 -148 17 -125 0 -133 -1
-153 -23z"/>
<path d="M9023 4400 c-47 -19 -59 -101 -20 -138 35 -33 79 -29 112 10 32 38
29 81 -11 116 -27 23 -45 26 -81 12z"/>
<path d="M8362 4377 c-32 -34 -30 -89 4 -116 45 -35 95 -26 120 21 40 78 -64
159 -124 95z"/>
<path d="M6282 4204 c-26 -18 -30 -75 -7 -94 25 -20 66 -15 86 11 26 33 23 54
-7 78 -32 25 -43 26 -72 5z"/>
<path d="M8393 4068 c-12 -6 -24 -17 -27 -24 -3 -8 -6 -73 -7 -145 -1 -123 0
-132 22 -155 40 -42 92 -25 109 37 6 19 10 82 10 142 0 101 -2 109 -25 132
-26 27 -47 30 -82 13z"/>
<path d="M7045 4058 c-31 -18 -44 -40 -45 -76 0 -39 46 -92 80 -92 33 0 80 53
80 89 0 57 -70 106 -115 79z"/>
<path d="M7744 4048 c-47 -22 -57 -95 -19 -133 49 -50 126 -22 141 53 5 26 1
36 -24 62 -31 31 -61 37 -98 18z"/>
<path d="M9002 4037 c-31 -33 -30 -96 1 -125 40 -38 98 -26 125 25 18 33 14
59 -14 92 -33 39 -80 42 -112 8z"/>
<path d="M3055 3962 c-44 -42 -146 -140 -228 -218 l-147 -140 0 -101 c0 -111
8 -127 67 -139 46 -9 73 30 73 110 l1 61 200 190 c110 104 202 200 205 212 12
47 -32 103 -79 103 -7 0 -48 -35 -92 -78z"/>
<path d="M2722 4020 c-65 -27 -41 -150 30 -150 31 0 78 48 78 80 0 47 -63 87
-108 70z"/>
<path d="M1035 4013 c-33 -9 -63 -33 -74 -61 -6 -17 -12 -253 -14 -667 -4
-560 -3 -644 10 -673 30 -64 3 -62 753 -62 l682 0 28 28 c16 16 33 48 40 70 7
29 10 227 8 659 -3 585 -4 620 -22 649 -40 67 -4 64 -733 63 -362 -1 -667 -4
-678 -6z m605 -166 c0 -21 -9 -26 -78 -45 -91 -24 -186 -77 -252 -142 -58 -57
-128 -193 -137 -268 l-6 -53 -36 3 c-36 3 -36 3 -36 51 1 26 2 144 3 262 l2
215 270 0 270 0 0 -23z m675 -39 c3 -35 5 -153 3 -262 l-3 -199 -39 -1 -39 -1
-13 62 c-38 185 -194 344 -393 399 -52 15 -61 21 -61 41 l0 23 269 0 269 0 7
-62z m-675 -188 c0 -40 -4 -52 -17 -56 -88 -27 -162 -92 -194 -170 -23 -54
-23 -54 -66 -54 -39 0 -43 2 -43 25 0 36 42 126 80 169 55 63 150 117 238 135
1 1 2 -22 2 -49z m237 9 c95 -46 197 -174 205 -259 3 -23 -1 -25 -40 -28 -34
-3 -43 0 -48 15 -24 80 -93 157 -172 193 -51 23 -52 24 -52 68 l0 45 32 -7
c18 -4 52 -16 75 -27z m-103 -228 c71 -40 94 -134 47 -199 -81 -114 -261 -62
-261 76 0 72 30 114 97 137 42 15 73 11 117 -14z m-593 -269 c49 -196 199
-340 397 -381 55 -12 62 -16 62 -37 l0 -24 -269 0 -268 0 -5 253 c-3 138 -4
256 -1 260 3 4 18 7 35 5 29 -3 31 -7 49 -76z m253 23 c36 -70 102 -128 172
-155 112 -42 213 -14 310 85 38 38 64 74 69 93 6 31 9 32 56 32 49 0 49 0 43
-27 -23 -99 -116 -213 -213 -260 -51 -25 -66 -28 -166 -28 -101 0 -115 3 -170
30 -103 50 -190 154 -210 253 l-7 32 44 0 c42 0 44 -1 72 -55z m881 -2 c0 -32
-2 -149 -3 -260 l-2 -203 -270 0 -270 0 0 25 c0 19 7 26 28 31 84 19 113 29
175 61 118 62 232 217 252 343 10 59 10 60 54 60 l38 0 -2 -57z"/>
<path d="M3447 3822 c-22 -25 -22 -85 1 -104 35 -32 60 -31 92 1 38 37 38 55
1 92 -34 33 -70 37 -94 11z"/>
<path d="M8094 3805 c-22 -33 -13 -86 21 -131 44 -58 99 -55 130 7 14 27 14
33 -1 64 -37 79 -117 110 -150 60z"/>
<path d="M8649 3792 c-61 -61 -63 -127 -4 -154 33 -15 64 0 99 45 37 49 42 86
16 120 -31 39 -64 35 -111 -11z"/>
<path d="M6728 3743 c-26 -29 -30 -60 -14 -91 16 -32 34 -42 71 -42 57 0 87
88 45 130 -25 25 -81 27 -102 3z"/>
<path d="M7085 3738 c-32 -17 -45 -39 -45 -79 0 -70 77 -103 125 -54 32 31 33
76 3 109 -28 30 -57 39 -83 24z"/>
<path d="M7714 3617 c-33 -28 -37 -76 -9 -107 10 -11 43 -29 74 -40 201 -73
337 -125 343 -130 5 -3 -88 -55 -205 -115 -116 -59 -217 -115 -224 -124 -20
-26 -16 -78 9 -101 41 -38 36 -40 373 144 l120 65 35 -33 c106 -102 259 -108
365 -14 l45 40 222 -106 c121 -58 228 -106 235 -106 23 0 73 56 73 82 0 37
-45 71 -150 116 -52 22 -148 65 -212 95 -112 53 -118 57 -118 86 0 59 -38 136
-91 186 -62 58 -102 75 -176 75 -92 -1 -189 -56 -229 -132 l-14 -26 -92 37
c-51 21 -144 59 -206 85 -62 25 -119 46 -127 46 -8 0 -26 -11 -41 -23z m756
-152 c55 -28 76 -105 45 -165 -20 -38 -43 -50 -99 -50 -109 0 -146 132 -58
207 31 27 71 29 112 8z"/>
<path d="M8843 3523 c-34 -4 -73 -43 -73 -73 0 -9 10 -26 23 -38 25 -24 71
-28 161 -13 54 9 76 30 76 72 0 52 -57 68 -187 52z"/>
<path d="M5989 3311 c-33 -34 -36 -60 -12 -102 22 -38 63 -55 95 -39 60 32 77
102 33 145 -34 35 -78 33 -116 -4z"/>
<path d="M5643 3315 c-31 -21 -40 -78 -19 -110 38 -58 116 -51 142 11 33 79
-53 148 -123 99z"/>
<path d="M4357 3270 c-33 -26 -41 -63 -23 -99 17 -32 34 -41 77 -41 60 0 85
94 35 137 -33 28 -56 29 -89 3z"/>
<path d="M3806 3258 c-15 -13 -29 -37 -32 -55 -5 -25 -1 -37 19 -57 35 -35 80
-35 112 0 33 36 31 69 -4 105 -35 35 -61 37 -95 7z"/>
<path d="M3437 3252 c-9 -10 -20 -33 -23 -50 -5 -27 -1 -37 28 -66 39 -39 72
-39 108 -1 47 50 14 128 -57 133 -28 2 -44 -2 -56 -16z"/>
<path d="M2696 3218 c-36 -50 1 -128 59 -128 35 0 75 42 75 78 0 63 -99 100
-134 50z"/>
<path d="M8135 2998 c-63 -75 -69 -135 -17 -162 23 -12 33 -12 58 -1 65 27
104 148 59 181 -33 24 -71 17 -100 -18z"/>
<path d="M8622 3014 c-30 -21 -29 -75 3 -130 40 -69 79 -81 120 -39 30 29 32
69 6 110 -46 74 -84 91 -129 59z"/>
<path d="M4075 2985 c-32 -31 -33 -76 -2 -109 38 -42 63 -42 102 -3 43 43 44
70 6 108 -36 36 -73 37 -106 4z"/>
<path d="M8375 2986 c-13 -19 -15 -55 -13 -212 l3 -188 33 -19 c28 -17 37 -18
57 -7 39 21 45 51 45 235 0 162 -2 177 -20 195 -29 29 -85 27 -105 -4z"/>
<path d="M3782 2970 c-30 -28 -29 -80 1 -108 30 -28 68 -28 95 1 64 68 -28
170 -96 107z"/>
<path d="M4377 2972 c-24 -27 -21 -74 6 -100 30 -28 61 -28 87 0 28 31 26 72
-6 97 -33 26 -66 27 -87 3z"/>
<path d="M2714 2952 c-16 -11 -34 -48 -34 -72 0 -29 44 -70 75 -70 39 0 78 47
71 84 -4 16 -14 38 -23 48 -16 18 -68 24 -89 10z"/>
<path d="M3440 2942 c-31 -25 -31 -84 0 -117 37 -40 90 -32 115 16 21 39 19
53 -11 88 -30 36 -70 41 -104 13z"/>
<path d="M7765 2710 c-29 -11 -44 -31 -51 -68 -5 -26 -1 -36 24 -62 38 -38 75
-39 107 -4 31 34 32 75 3 108 -27 29 -55 38 -83 26z"/>
<path d="M2711 2698 c-61 -33 -81 -110 -47 -180 11 -22 16 -61 16 -134 0 -95
2 -104 22 -118 32 -23 71 -20 96 7 20 21 22 34 22 126 0 88 3 106 21 131 13
17 22 45 23 69 0 33 -5 47 -30 71 -35 35 -87 47 -123 28z"/>
<path d="M5740 2690 c-44 -44 -6 -130 58 -130 37 0 72 37 72 76 0 63 -86 98
-130 54z"/>
<path d="M8061 2684 c-31 -39 -27 -77 10 -108 41 -35 71 -33 103 5 30 35 32
49 11 88 -25 50 -91 57 -124 15z"/>
<path d="M8680 2688 c-44 -47 -8 -138 55 -138 30 0 85 49 85 75 0 24 -27 72
-45 79 -34 12 -75 6 -95 -16z"/>
<path d="M9001 2684 c-41 -52 -15 -120 50 -130 31 -5 39 -2 63 27 31 36 30 77
-1 111 -26 29 -87 24 -112 -8z"/>
<path d="M3440 2660 c-18 -18 -20 -33 -20 -170 0 -147 1 -152 25 -175 30 -31
57 -32 89 -2 28 25 29 29 27 205 -1 108 -3 124 -21 142 -11 11 -33 20 -50 20
-17 0 -39 -9 -50 -20z"/>
<path d="M4976 2448 c-9 -12 -16 -33 -16 -45 l0 -23 -362 0 c-385 -1 -376 0
-411 -50 -16 -22 -17 -80 -17 -698 0 -740 -2 -712 62 -746 30 -16 64 -17 381
-14 l347 3 0 -26 c0 -32 26 -65 58 -74 27 -8 82 42 82 74 0 21 2 21 348 21
379 0 380 0 419 59 l23 34 0 673 0 673 -31 36 -31 35 -199 0 c-186 0 -200 -1
-219 -20 -11 -11 -20 -33 -20 -50 0 -17 9 -39 20 -50 18 -18 33 -20 175 -20
l155 0 0 -610 0 -610 -320 0 -320 0 0 45 c0 32 -6 51 -20 65 -47 47 -120 4
-120 -70 l0 -40 -320 0 -320 0 0 610 0 610 325 0 325 0 0 -114 c0 -70 4 -117
11 -121 6 -5 4 -16 -7 -33 -34 -55 -162 -233 -303 -422 -199 -268 -281 -381
-281 -389 0 -4 10 -13 23 -20 19 -10 34 -9 88 8 35 11 226 72 424 135 337 107
690 216 700 216 3 0 5 140 5 310 l0 310 -259 0 -259 0 -6 23 c-3 12 -6 39 -6
60 l0 37 48 0 c58 0 92 28 92 77 0 42 -29 65 -86 67 -43 1 -48 4 -55 29 -12
44 -28 57 -70 57 -28 0 -42 -6 -53 -22z"/>
<path d="M6694 2376 c-29 -29 -34 -41 -34 -81 0 -48 13 -84 36 -98 11 -6 14
-47 14 -187 l0 -180 -37 -15 c-48 -20 -82 -52 -99 -92 l-14 -33 -140 0 c-126
0 -140 2 -149 19 -6 10 -29 26 -51 35 -80 32 -158 -13 -167 -96 -5 -49 23
-103 67 -126 32 -17 92 -9 127 16 25 18 48 21 171 24 l142 3 10 -29 c10 -28 7
-33 -37 -79 -46 -46 -50 -48 -90 -42 -109 16 -206 -100 -173 -207 16 -55 77
-115 126 -124 50 -9 112 11 154 51 30 28 43 33 98 37 l62 4 0 -62 c0 -42 -4
-66 -14 -71 -35 -21 -47 -97 -22 -141 17 -31 65 -62 96 -62 35 0 86 34 110 72
24 38 20 78 -10 120 -14 19 -20 43 -20 83 l0 55 58 0 c52 0 61 -3 88 -31 44
-46 80 -62 131 -56 118 13 194 163 130 258 -43 64 -117 96 -165 70 -14 -7 -29
2 -71 42 -48 45 -53 54 -45 76 l9 26 147 3 c142 2 147 2 184 -23 51 -35 94
-33 139 6 48 43 62 97 38 147 -38 77 -134 93 -195 31 l-30 -29 -138 0 -139 0
-13 27 c-12 25 -11 29 36 73 47 45 51 47 87 37 75 -19 164 52 176 141 7 56
-12 105 -57 146 -71 64 -156 61 -223 -8 -38 -38 -47 -42 -94 -45 -52 -2 -53
-2 -54 26 0 15 -3 41 -5 57 -4 19 3 40 20 65 35 51 41 93 20 136 -20 43 -59
65 -115 65 -33 0 -47 -6 -75 -34z m434 -368 c19 -19 15 -48 -7 -48 -21 0 -30
16 -23 43 5 20 13 22 30 5z m-184 -76 c3 -5 -17 -31 -44 -57 l-50 -49 0 57 0
57 44 0 c25 0 47 -4 50 -8z m-113 -251 c32 -33 36 -58 14 -100 -16 -32 -33
-41 -75 -41 -63 0 -94 97 -45 145 33 33 70 32 106 -4z m-123 -318 l-3 -58 -57
-3 c-32 -2 -58 0 -58 5 0 10 102 113 113 113 4 0 7 -26 5 -57z m200 -2 c23
-28 42 -52 42 -55 0 -3 -22 -6 -50 -6 l-50 0 0 55 c0 30 3 55 8 55 4 0 26 -22
50 -49z m-454 -98 c10 -26 -23 -48 -42 -29 -8 8 -12 22 -9 30 8 21 43 20 51
-1z m691 -8 c0 -21 -31 -33 -46 -18 -5 5 -7 17 -3 27 9 24 49 17 49 -9z"/>
<path d="M6118 2384 c-53 -28 -73 -105 -43 -164 36 -69 112 -81 171 -27 61 56
57 147 -8 187 -39 23 -82 25 -120 4z"/>
<path d="M7304 2366 c-28 -28 -34 -42 -34 -75 0 -73 49 -131 110 -131 56 0
120 65 120 123 0 36 -23 81 -52 101 -12 9 -42 16 -66 16 -37 0 -50 -6 -78 -34z"/>
<path d="M1662 2374 c-16 -11 -22 -25 -22 -50 0 -31 4 -37 37 -50 34 -15 38
-14 62 4 34 25 37 52 11 85 -24 30 -55 34 -88 11z"/>
<path d="M984 2365 c-36 -24 -46 -66 -42 -170 3 -92 4 -98 31 -121 37 -32 62
-30 98 5 24 25 29 37 29 80 l0 51 70 0 c59 0 72 3 90 22 11 13 23 33 27 45 7
29 -14 81 -38 93 -30 16 -241 12 -265 -5z"/>
<path d="M2145 2355 c-35 -34 -34 -83 3 -118 25 -24 36 -27 94 -27 l65 0 6
-56 c7 -69 27 -94 77 -94 64 0 75 23 75 157 0 113 0 115 -28 139 -26 22 -36
24 -148 24 -114 0 -121 -1 -144 -25z"/>
<path d="M7709 2349 l-29 -31 0 -352 c0 -341 1 -353 20 -374 12 -12 28 -22 38
-22 9 0 148 129 307 286 160 157 316 308 347 334 l58 49 290 1 290 1 0 -171 0
-170 -54 0 c-68 0 -99 -22 -99 -70 0 -45 29 -66 103 -75 89 -10 134 0 170 42
l31 35 -3 245 -3 245 -33 29 -32 29 -368 0 -368 0 -35 -25 c-19 -14 -141 -131
-271 -261 l-238 -235 0 190 0 190 77 3 c75 3 77 4 96 35 17 29 17 34 3 61 -8
16 -23 32 -31 36 -9 3 -66 6 -127 6 l-110 0 -29 -31z"/>
<path d="M3164 2255 l-25 -25 2 -567 1 -568 -46 -3 -46 -3 0 485 0 485 -22 15
c-35 25 -73 20 -98 -11 -21 -27 -21 -30 -18 -500 l3 -473 -47 0 -48 0 0 500
c0 360 -3 506 -12 525 -21 46 -101 46 -118 -1 -6 -15 -10 -261 -10 -615 l0
-590 25 -24 c40 -41 76 -32 106 26 17 35 23 39 58 39 35 0 39 -3 44 -30 4 -19
17 -35 37 -45 41 -21 81 -3 95 42 8 31 12 33 51 33 39 0 43 -2 49 -31 5 -21
17 -35 41 -46 32 -16 36 -16 62 4 15 11 28 32 30 46 3 25 7 27 53 27 45 0 49
-2 49 -23 0 -25 22 -49 53 -60 28 -10 67 13 75 47 8 28 12 31 55 34 44 3 47 2
47 -22 0 -76 112 -84 134 -8 8 30 12 32 52 32 36 0 44 -3 44 -19 0 -24 29 -57
58 -66 17 -5 30 1 52 24 l30 29 0 492 0 491 -25 24 c-13 14 -33 25 -45 25 -12
0 -32 -11 -45 -25 l-25 -24 0 -406 0 -405 -45 0 -45 0 0 378 0 379 -23 21
c-29 27 -71 28 -97 2 -19 -19 -20 -33 -20 -400 l0 -380 -45 0 -45 0 0 533 c0
505 -1 535 -18 550 -25 23 -78 21 -102 -3 -19 -19 -20 -33 -20 -550 l0 -530
-51 0 -50 0 2 577 1 577 -22 18 c-31 25 -66 22 -96 -7z"/>
<path d="M1540 2164 c-36 -7 -108 -35 -160 -60 -82 -41 -109 -61 -195 -148
-112 -113 -162 -190 -202 -311 -24 -75 -26 -97 -34 -365 -8 -284 -7 -300 13
-353 21 -54 39 -57 372 -57 264 0 307 2 320 16 14 13 16 49 16 244 l0 228 -30
12 c-37 15 -87 71 -96 106 -10 41 2 110 25 142 12 17 41 40 66 52 66 32 115
21 175 -39 79 -79 75 -151 -14 -236 l-52 -50 0 -228 c1 -191 3 -229 16 -237 9
-6 147 -10 324 -10 l309 0 33 35 c44 47 47 77 41 368 -5 281 -17 340 -93 488
-81 157 -250 312 -401 369 -133 50 -300 63 -433 34z m348 -168 c80 -27 92 -33
170 -96 62 -48 64 -42 -40 -132 l-57 -49 -60 45 c-77 57 -119 71 -206 70 -82
0 -142 -23 -202 -78 -22 -20 -43 -36 -47 -36 -11 0 -156 121 -156 130 0 15 84
81 140 110 54 27 131 54 180 64 58 11 207 -4 278 -28z m-429 -677 l24 -30 -42
-43 c-23 -23 -66 -62 -96 -87 -51 -42 -54 -46 -55 -91 l0 -48 -95 0 -95 0 0
85 0 85 79 0 80 0 83 80 c46 43 85 79 88 79 3 0 16 -14 29 -30z m761 -127 l90
-4 0 -84 0 -84 -100 0 -100 0 0 46 c0 39 -4 49 -32 72 -59 49 -148 135 -148
144 0 5 10 22 22 39 l22 29 78 -77 78 -78 90 -3z"/>
<path d="M6472 2140 c-30 -29 -30 -89 1 -117 39 -37 64 -38 97 -4 39 38 39 74
1 112 -34 34 -69 37 -99 9z"/>
<path d="M4771 2106 c-26 -31 14 -71 45 -45 8 7 14 22 12 33 -4 26 -40 33 -57
12z"/>
<path d="M8465 2055 c-35 -34 -33 -78 4 -116 34 -33 57 -36 87 -11 50 40 53
96 7 132 -34 27 -69 25 -98 -5z"/>
<path d="M8762 2047 c-34 -36 -30 -89 9 -121 41 -35 71 -33 103 5 30 35 32 58
11 98 -24 48 -87 57 -123 18z"/>
<path d="M6115 2025 c-31 -30 -33 -82 -4 -119 45 -57 139 -17 139 59 0 46 -36
85 -80 85 -19 0 -40 -9 -55 -25z"/>
<path d="M4589 2010 c-17 -10 -85 -109 -78 -114 33 -23 105 -66 112 -66 6 0
27 18 48 41 35 38 36 42 21 58 -9 10 -30 35 -45 55 -30 39 -33 40 -58 26z"/>
<path d="M7375 1995 c-14 -13 -25 -33 -25 -45 0 -27 43 -70 70 -70 54 0 83 93
38 124 -32 22 -55 20 -83 -9z"/>
<path d="M8300 1958 c-27 -30 -26 -73 5 -103 30 -31 57 -32 89 -2 35 31 39 57
16 95 -16 26 -26 32 -54 32 -23 0 -42 -7 -56 -22z"/>
<path d="M8616 1887 c-54 -54 -19 -137 59 -137 96 0 99 141 3 156 -30 5 -41 2
-62 -19z"/>
<path d="M8403 1763 c-35 -7 -80 -56 -92 -99 -21 -79 33 -176 106 -190 75 -14
161 57 170 139 10 90 -88 171 -184 150z"/>
<path d="M8761 1734 c-44 -55 -10 -144 54 -144 33 0 85 50 85 82 0 23 -24 66
-44 80 -25 18 -75 8 -95 -18z"/>
<path d="M4467 1692 c-22 -24 -21 -35 1 -55 25 -23 39 -21 58 8 16 24 16 27
-1 45 -22 25 -37 25 -58 2z"/>
<path d="M9067 1589 c-10 -6 -144 -136 -299 -290 l-282 -279 -328 0 -328 0 0
130 0 130 86 0 c82 0 87 1 115 30 23 23 29 35 24 52 -17 54 -29 58 -166 58
-210 0 -209 1 -209 -279 l0 -201 29 -32 29 -33 678 -3 c748 -3 703 -6 744 61
19 30 20 52 20 315 0 184 -4 290 -11 304 -6 11 -26 26 -44 34 -40 16 -35 16
-58 3z m-59 -315 c21 -6 22 -10 22 -130 l0 -124 -155 0 c-85 0 -155 1 -155 3
0 8 246 255 255 256 6 0 20 -2 33 -5z"/>
<path d="M8079 1579 c-54 -20 -65 -94 -18 -133 40 -34 73 -33 111 4 34 35 33
69 -5 106 -28 28 -55 35 -88 23z"/>
<path d="M8196 1404 c-28 -28 -24 -71 10 -101 24 -22 33 -23 199 -23 l173 0
26 31 c32 37 33 62 4 89 -20 19 -34 20 -209 20 -157 0 -190 -3 -203 -16z"/>
<path d="M8059 1271 c-51 -52 -37 -113 34 -140 63 -24 121 47 93 114 -26 61
-80 72 -127 26z"/>
<path d="M6113 1080 c-41 -25 -55 -51 -55 -106 0 -116 126 -164 201 -78 54 61
32 158 -44 190 -45 19 -64 18 -102 -6z"/>
<path d="M7344 1090 c-11 -4 -33 -22 -47 -40 -53 -63 -27 -165 48 -190 136
-45 220 171 88 226 -36 16 -58 17 -89 4z"/>
</g>
</svg>
