<?xml version="1.0" standalone="no"?>
<!DOCTYPE svg PUBLIC "-//W3C//DTD SVG 20010904//EN"
 "http://www.w3.org/TR/2001/REC-SVG-20010904/DTD/svg10.dtd">
<svg version="1.0" xmlns="http://www.w3.org/2000/svg"
 width="1024.000000pt" height="1024.000000pt" viewBox="0 0 1024.000000 1024.000000"
 preserveAspectRatio="xMidYMid meet">
<metadata>
Created by potrace 1.16, written by Peter Selinger 2001-2019
</metadata>
<g transform="translate(0.000000,1024.000000) scale(0.100000,-0.100000)"
fill="#000000" stroke="none">
<path d="M4720 8774 c-295 -20 -751 -111 -1020 -202 -386 -132 -781 -332
-1030 -521 -30 -22 -58 -41 -62 -41 -5 0 -8 103 -8 228 l0 228 -29 46 c-50 78
-153 110 -229 70 -32 -18 -72 -60 -230 -247 -120 -141 -536 -616 -701 -800
-106 -118 -124 -153 -119 -225 5 -70 38 -124 101 -167 l42 -28 548 -3 547 -2
0 -223 c0 -122 5 -238 10 -257 11 -41 70 -101 118 -120 43 -17 123 -7 167 20
43 26 529 540 550 581 9 16 19 52 22 79 10 83 -25 137 -185 290 l-137 131 35
29 c43 35 205 133 332 200 296 156 761 296 1095 331 l118 12 44 44 c68 66 102
73 380 73 142 0 252 -5 276 -11 37 -11 108 -71 146 -124 11 -16 41 -26 141
-43 69 -13 189 -39 265 -58 76 -18 161 -34 188 -34 77 0 143 28 200 85 142
141 98 374 -88 464 -102 49 -527 139 -832 176 -124 15 -538 27 -655 19z"/>
<path d="M4875 8066 c-41 -18 -65 -48 -75 -91 -12 -52 5 -100 51 -146 l40 -40
-3 -140 -3 -141 -82 -33 c-46 -17 -90 -38 -98 -45 -13 -11 -19 -10 -34 6 -10
10 -57 52 -105 93 -47 40 -87 76 -87 80 -1 3 -3 31 -4 62 -3 66 -20 105 -56
131 -33 25 -101 34 -137 19 -27 -11 -209 -197 -259 -265 -45 -59 -21 -152 49
-197 27 -16 45 -19 94 -16 l61 4 79 -85 c126 -137 119 -122 89 -183 -15 -28
-35 -83 -45 -123 l-18 -71 -138 -2 -139 -3 -16 33 c-35 71 -152 100 -220 54
-56 -38 -59 -51 -59 -287 0 -194 2 -218 19 -244 29 -43 70 -66 121 -66 67 0
110 27 140 88 l25 52 141 0 142 0 21 -59 c19 -50 79 -150 137 -228 15 -21 14
-24 -14 -65 -16 -24 -45 -73 -66 -110 l-37 -66 -65 0 c-70 2 -98 -12 -138 -66
-26 -35 -26 -100 0 -145 16 -28 146 -129 287 -223 126 -85 272 45 212 188
l-14 35 92 115 c74 93 96 114 112 109 11 -3 55 -10 98 -16 77 -11 216 -2 292
19 29 8 32 6 79 -62 120 -172 115 -162 100 -207 -35 -99 40 -209 142 -209 47
0 76 17 247 144 123 92 147 121 147 183 0 85 -60 138 -157 138 -54 0 -66 3
-75 20 -6 11 -31 50 -55 87 -73 113 -72 108 -19 174 43 53 126 205 126 232 0
9 40 12 145 12 131 0 145 -2 145 -17 0 -29 37 -82 72 -104 26 -16 45 -19 92
-16 54 3 62 7 97 45 l39 41 0 214 c0 206 -1 215 -23 247 -64 96 -192 95 -256
-2 l-23 -36 -136 1 -135 2 -13 57 c-8 32 -27 84 -44 117 -16 33 -30 64 -30 69
0 5 43 55 96 112 l97 103 66 1 c51 1 73 6 97 23 53 38 79 130 51 180 -15 26
-202 230 -234 256 -55 44 -155 29 -199 -29 -21 -27 -28 -49 -32 -104 l-5 -70
-81 -72 c-44 -39 -90 -80 -101 -89 -20 -18 -23 -17 -80 10 -33 16 -79 34 -102
41 l-43 13 0 151 0 151 34 27 c80 64 67 186 -24 233 -39 20 -350 21 -395 1z
m342 -1005 c62 -27 135 -102 166 -169 18 -38 22 -65 22 -147 0 -120 -21 -172
-97 -247 -69 -67 -138 -91 -248 -86 -137 6 -233 68 -288 186 -23 49 -27 71
-27 147 0 76 4 99 26 145 43 93 107 153 198 187 54 20 184 12 248 -16z"/>
<path d="M7029 8069 c-19 -6 -57 -27 -84 -47 -96 -73 -138 -214 -100 -333 16
-50 41 -78 359 -395 360 -360 384 -379 483 -391 164 -19 318 124 318 297 0
118 -14 136 -378 497 -183 180 -345 332 -371 348 -38 22 -63 29 -120 31 -39 2
-87 -1 -107 -7z"/>
<path d="M1637 6836 c-61 -22 -114 -65 -153 -123 -100 -151 -285 -601 -363
-885 -95 -345 -141 -677 -141 -1018 0 -1127 515 -2202 1401 -2921 486 -394
1195 -713 1819 -818 281 -47 458 -61 791 -61 358 0 387 4 460 69 132 116 136
316 8 441 -72 70 -87 72 -514 80 -309 7 -404 12 -510 29 -336 53 -566 113
-825 216 -526 209 -1029 576 -1359 990 -359 451 -583 994 -673 1635 -20 142
-17 562 5 720 55 391 156 719 337 1098 86 179 93 197 93 255 0 208 -192 358
-376 293z"/>
<path d="M8235 6550 c-137 -29 -220 -122 -232 -259 -6 -63 6 -101 98 -321 99
-237 179 -545 214 -830 26 -202 17 -597 -19 -810 -31 -186 -51 -273 -106 -445
-99 -315 -214 -560 -376 -802 -57 -85 -109 -174 -115 -197 -15 -55 -6 -143 19
-193 12 -22 43 -60 71 -85 134 -120 322 -97 439 55 173 223 387 649 496 982
192 592 241 1161 146 1720 -65 386 -223 882 -336 1053 -68 103 -187 156 -299
132z"/>
<path d="M2925 5836 c-79 -18 -186 -59 -249 -95 -62 -36 -135 -100 -120 -107
90 -39 244 -165 299 -243 25 -37 30 -40 44 -27 37 34 116 58 186 59 119 1 217
-59 272 -168 21 -41 27 -72 35 -174 14 -187 52 -281 161 -397 72 -78 166 -127
280 -149 163 -31 269 -15 347 52 199 170 40 477 -208 402 -33 -9 -47 -9 -72 1
-52 21 -70 54 -70 125 0 320 -219 610 -539 711 -66 22 -290 27 -366 10z"/>
<path d="M6555 5515 c-284 -63 -483 -266 -551 -560 -25 -108 -15 -304 20 -412
15 -45 31 -85 37 -88 5 -4 32 14 60 39 69 62 149 109 242 142 l79 27 -9 36
c-16 72 -9 182 16 234 34 69 101 132 163 153 58 20 157 22 201 5 27 -10 27
-10 71 83 50 108 84 160 149 230 26 27 44 53 42 57 -7 11 -121 46 -189 58 -81
15 -258 12 -331 -4z"/>
<path d="M2090 5501 c-39 -14 -67 -33 -97 -66 -46 -51 -63 -95 -63 -168 0
-142 133 -250 270 -217 59 14 110 1 139 -36 10 -13 29 -61 41 -106 12 -46 38
-114 58 -153 48 -93 181 -228 276 -280 l69 -38 -39 -20 c-32 -17 -51 -19 -120
-14 -45 3 -99 13 -120 22 -50 21 -108 77 -143 141 -62 109 -155 152 -265 120
-134 -39 -205 -203 -141 -326 27 -52 161 -205 212 -243 58 -42 164 -94 211
-103 37 -7 36 -1 15 -84 -23 -93 -23 -304 1 -389 54 -198 195 -368 381 -461
157 -79 305 -99 485 -64 86 16 186 49 195 64 3 5 -12 35 -33 67 -57 83 -93
157 -118 243 -14 47 -27 74 -36 73 -7 0 -42 -9 -77 -18 -178 -47 -340 51 -387
235 -36 142 30 295 157 365 49 27 63 30 144 30 81 0 96 -3 145 -30 73 -40 70
-39 70 -22 0 45 156 233 253 304 49 36 53 53 11 53 -14 0 -41 8 -62 19 -20 10
-56 24 -79 31 -24 7 -43 17 -43 21 0 5 13 15 30 24 l29 15 -40 43 c-56 59
-124 162 -149 227 -12 30 -23 57 -26 61 -2 4 -25 0 -51 -8 -68 -21 -176 -12
-240 20 -94 48 -149 130 -177 263 -21 101 -58 169 -136 246 -108 105 -234 157
-425 173 -55 4 -82 1 -125 -14z"/>
<path d="M7599 5505 c-171 -29 -258 -68 -361 -163 -98 -91 -181 -229 -213
-352 -9 -36 -21 -112 -25 -170 -5 -58 -12 -115 -15 -127 -6 -18 -2 -22 27 -28
56 -12 182 -63 231 -95 26 -16 51 -30 55 -30 14 1 91 117 111 168 11 28 29 95
40 147 34 164 76 197 244 193 100 -3 105 -2 153 27 70 44 114 119 114 197 0
73 -17 114 -70 172 -67 73 -136 87 -291 61z"/>
<path d="M7675 4688 c-49 -17 -94 -56 -116 -101 -44 -85 -89 -143 -131 -167
-39 -23 -54 -25 -168 -25 -120 0 -128 1 -192 32 -115 55 -216 77 -353 76 -140
-1 -235 -22 -341 -77 -71 -36 -122 -72 -114 -78 3 -3 28 -21 57 -42 28 -20 69
-58 91 -84 50 -60 122 -168 122 -181 0 -15 11 -14 30 4 9 8 44 22 79 31 157
40 325 -52 376 -207 25 -75 17 -189 -19 -263 -33 -66 -100 -129 -163 -150 -64
-22 -177 -20 -229 3 -101 46 -149 121 -169 266 -27 190 -115 338 -270 456
-110 83 -249 124 -390 115 -192 -12 -351 -93 -465 -237 -43 -55 -81 -142 -111
-257 -18 -68 -29 -91 -65 -131 -60 -66 -110 -85 -211 -79 -86 5 -129 22 -181
72 -44 41 -58 69 -78 157 -47 213 -190 371 -404 445 -89 31 -211 41 -309 24
-221 -37 -427 -234 -486 -465 -21 -85 -19 -235 5 -329 79 -310 334 -539 673
-606 l59 -12 -9 -51 c-4 -29 -8 -108 -7 -177 0 -113 3 -134 31 -213 49 -140
127 -253 241 -350 202 -171 526 -208 795 -90 68 29 199 112 204 128 1 6 -28
28 -64 50 -68 42 -181 147 -224 209 -28 42 -32 42 -68 17 -14 -11 -53 -27 -85
-36 -149 -43 -311 35 -379 183 -32 70 -31 198 3 267 58 118 177 191 300 182
158 -10 254 -104 294 -287 59 -266 276 -429 571 -430 99 0 164 27 218 91 32
37 67 117 67 154 0 41 -36 122 -72 161 -53 58 -120 79 -218 69 -61 -6 -73 -4
-98 14 -31 22 -41 42 -67 136 -33 117 -113 245 -210 333 l-56 51 42 38 c100
90 180 228 198 340 12 75 30 111 75 151 78 69 179 68 251 -1 47 -46 55 -68 73
-203 36 -268 225 -494 487 -581 71 -24 96 -27 220 -27 120 -1 151 2 215 22
253 80 418 247 500 507 30 96 38 263 16 364 -9 41 -14 77 -11 79 2 2 26 8 52
13 129 24 252 114 386 279 102 127 119 197 73 296 -48 104 -168 158 -271 122z
m-3528 -839 c57 -27 89 -84 109 -189 25 -134 80 -235 177 -331 l50 -49 -98 0
c-113 0 -191 18 -284 65 -166 83 -242 206 -221 357 10 72 42 117 102 147 54
27 110 27 165 0z"/>
<path d="M4841 4670 c-150 -21 -304 -88 -397 -173 -30 -27 -54 -53 -54 -57 0
-5 9 -11 20 -15 29 -9 161 -97 195 -131 17 -16 47 -48 67 -72 l36 -43 48 31
c60 37 103 50 175 50 73 0 143 -22 189 -59 l37 -29 37 49 c47 64 148 146 229
188 77 39 77 43 -12 109 -158 119 -379 177 -570 152z"/>
<path d="M6755 2741 c-16 -4 -40 -13 -52 -19 -12 -7 -124 -125 -250 -264 -125
-139 -297 -327 -382 -418 -85 -91 -162 -183 -172 -205 -24 -51 -25 -145 -2
-193 9 -21 91 -113 182 -205 l166 -168 -42 -82 c-24 -45 -48 -102 -54 -126
-28 -115 63 -242 191 -265 46 -8 87 12 320 154 208 126 806 485 1065 638 178
105 224 142 249 204 47 112 -20 256 -134 289 -20 5 -209 10 -440 12 l-405 2
-5 261 -5 261 -28 40 c-45 65 -132 102 -202 84z"/>
</g>
</svg>
