<?xml version="1.0" standalone="no"?>
<!DOCTYPE svg PUBLIC "-//W3C//DTD SVG 20010904//EN"
 "http://www.w3.org/TR/2001/REC-SVG-20010904/DTD/svg10.dtd">
<svg version="1.0" xmlns="http://www.w3.org/2000/svg"
 width="1024.000000pt" height="1024.000000pt" viewBox="0 0 1024.000000 1024.000000"
 preserveAspectRatio="xMidYMid meet">
<metadata>
Created by potrace 1.16, written by Peter Selinger 2001-2019
</metadata>
<g transform="translate(0.000000,1024.000000) scale(0.100000,-0.100000)"
fill="#000000" stroke="none">
<path d="M4815 8873 c-686 -42 -1236 -235 -1793 -630 -221 -157 -478 -414
-654 -653 -138 -188 -293 -466 -377 -678 -42 -105 -103 -318 -121 -420 l-11
-63 40 -47 c22 -26 93 -100 158 -165 l119 -117 29 31 c17 17 64 57 105 89 294
225 609 359 973 416 111 17 390 23 500 10 37 -4 67 -4 67 1 0 4 -24 22 -53 40
-80 48 -342 233 -342 241 0 13 134 131 233 205 307 229 651 381 967 427 120
18 372 23 485 11 353 -38 664 -157 915 -350 66 -50 205 -180 205 -190 0 -4
-41 -31 -91 -61 -164 -99 -219 -179 -219 -318 0 -53 6 -80 26 -120 49 -98 160
-172 259 -172 57 0 131 29 236 94 105 64 537 330 814 500 83 51 254 155 380
231 254 153 244 146 230 151 -6 2 -61 34 -124 72 -105 62 -118 72 -158 134
-24 36 -43 70 -43 75 0 4 57 69 126 143 147 159 179 214 178 306 -1 78 -37
156 -98 212 -100 92 -280 94 -382 4 -23 -19 -204 -231 -240 -281 -2 -2 -31 22
-66 54 -185 167 -455 349 -710 476 -400 201 -791 307 -1246 338 -147 11 -205
11 -317 4z"/>
<path d="M7790 6855 c-63 -36 -141 -80 -173 -97 -38 -22 -56 -38 -53 -48 2 -8
25 -64 50 -125 60 -146 92 -262 113 -406 10 -65 20 -119 24 -119 3 0 54 54
114 121 l107 121 -6 131 c-6 116 -16 218 -42 430 -4 31 -10 57 -13 57 -3 0
-58 -29 -121 -65z"/>
<path d="M4280 6609 c-41 -5 -95 -15 -120 -22 l-44 -13 105 -38 c110 -41 265
-114 340 -161 186 -117 426 -340 534 -497 33 -48 63 -87 67 -87 4 -1 84 72
179 162 95 89 196 185 226 212 l54 50 -89 70 c-215 168 -501 283 -805 324 -91
13 -338 12 -447 0z"/>
<path d="M7159 6506 c-30 -18 -136 -79 -235 -136 -98 -57 -181 -104 -182 -106
-2 -1 7 -42 20 -91 20 -77 23 -110 22 -258 -1 -156 -3 -179 -32 -288 -36 -138
-111 -301 -182 -396 -98 -133 -230 -235 -349 -271 -160 -47 -240 -147 -241
-295 0 -213 217 -352 411 -263 77 35 266 156 365 233 196 154 360 384 467 655
39 100 94 324 108 440 21 183 1 491 -42 629 -24 81 -62 181 -68 181 -3 0 -31
-15 -62 -34z"/>
<path d="M8523 6416 c-61 -20 -106 -51 -145 -99 -37 -44 -432 -589 -487 -669
-33 -50 -45 -57 -54 -34 -8 21 -91 135 -98 136 -3 0 -9 -34 -13 -75 -20 -223
-100 -502 -205 -717 -73 -150 -150 -268 -270 -413 -86 -104 -107 -135 -78
-119 15 9 262 177 425 290 68 47 126 83 129 81 10 -11 19 -312 12 -442 -14
-276 -73 -503 -199 -760 -83 -170 -161 -289 -286 -434 -142 -165 -316 -314
-516 -439 -76 -48 -229 -132 -240 -132 -2 0 -3 82 -3 183 0 170 -2 185 -24
235 -29 64 -107 137 -164 154 -149 44 -297 -23 -361 -161 -18 -40 -21 -72 -26
-241 l-5 -195 -119 -225 c-211 -397 -225 -425 -226 -435 0 -6 33 -47 73 -91
215 -238 556 -622 631 -711 48 -57 91 -103 95 -103 5 0 11 19 14 43 3 23 16
87 28 143 l21 101 52 13 c119 30 398 126 529 181 618 261 1123 676 1484 1219
252 380 407 791 480 1276 22 149 25 651 5 779 -63 384 -141 656 -270 936 l-40
86 86 94 c103 114 137 179 136 264 0 67 -31 147 -78 202 -60 71 -201 109 -293
79z"/>
<path d="M1190 6354 c-126 -45 -200 -152 -200 -287 1 -101 21 -134 188 -293
l147 -141 -14 -34 c-187 -465 -262 -864 -248 -1324 16 -489 123 -910 336
-1320 311 -600 772 -1050 1397 -1363 248 -124 396 -179 683 -253 263 -68 428
-90 716 -96 l250 -5 110 60 c61 32 164 89 229 126 66 37 154 85 196 106 l77
39 84 -66 c46 -36 109 -90 140 -120 l57 -55 -38 -51 c-71 -93 -86 -227 -38
-322 56 -108 179 -182 287 -172 93 10 151 47 247 158 l86 100 -59 66 c-32 37
-121 137 -198 222 -77 86 -204 229 -282 318 l-143 162 -142 69 c-256 124 -437
250 -613 427 -213 214 -366 437 -470 685 -32 77 -28 72 -49 64 -14 -5 -16 -30
-16 -209 0 -111 -3 -222 -6 -247 l-6 -45 -37 8 c-57 13 -308 104 -396 144
-243 111 -516 315 -691 516 -330 378 -474 790 -457 1296 l6 152 91 -80 c110
-96 157 -120 245 -126 155 -11 296 105 317 262 9 62 -25 169 -72 223 -20 24
-109 107 -197 185 -176 155 -202 179 -640 597 -568 542 -619 589 -664 610 -61
29 -155 35 -213 14z"/>
<path d="M3360 6180 c-301 -42 -573 -144 -800 -298 -46 -31 -86 -62 -87 -68
-5 -14 382 -384 401 -384 8 0 18 5 21 10 12 20 207 111 309 145 137 46 238 59
404 52 104 -4 159 -11 229 -31 187 -52 290 -114 459 -276 122 -118 152 -134
249 -134 206 0 343 220 252 405 -43 88 -224 250 -402 359 -143 88 -343 166
-514 201 -110 23 -415 34 -521 19z"/>
<path d="M5863 5889 c-60 -11 -92 -30 -238 -139 -71 -54 -155 -113 -186 -133
-118 -75 -160 -140 -167 -258 -3 -61 0 -85 16 -121 68 -153 233 -216 376 -143
85 45 419 289 464 340 120 136 69 362 -98 433 -57 25 -113 32 -167 21z"/>
<path d="M3750 5139 c-54 -24 -115 -81 -140 -129 -23 -46 -126 -406 -141 -494
-17 -99 -6 -339 20 -442 55 -221 168 -449 314 -633 28 -35 53 -59 55 -53 2 6
-4 46 -12 90 -23 120 -30 292 -17 426 22 232 74 410 178 612 37 71 83 160 102
198 33 64 36 77 36 155 0 74 -4 93 -27 137 -31 58 -83 108 -142 135 -57 26
-167 25 -226 -2z"/>
<path d="M4510 4541 c-88 -27 -169 -109 -194 -199 -9 -32 -16 -78 -16 -103 0
-25 -4 -49 -9 -54 -15 -16 -40 -147 -53 -274 -19 -191 12 -448 78 -647 41
-124 156 -339 243 -454 184 -244 447 -457 688 -559 120 -50 102 -60 181 96 39
76 95 185 126 242 31 58 55 105 53 106 -1 1 -55 25 -120 53 -274 118 -474 304
-600 557 -76 155 -107 285 -107 457 0 123 16 212 67 372 28 92 34 120 29 164
-17 148 -136 253 -284 251 -31 0 -68 -4 -82 -8z"/>
<path d="M5411 4523 c-65 -23 -136 -98 -155 -164 -23 -77 -23 -495 0 -562 34
-101 150 -190 283 -218 92 -19 317 -6 433 25 252 67 462 187 650 370 87 85
173 189 161 193 -6 2 -44 -9 -84 -25 -294 -117 -631 -150 -855 -83 l-59 17 -5
135 c-6 149 -15 175 -79 242 -20 21 -54 48 -76 59 -53 28 -155 33 -214 11z"/>
</g>
</svg>
