<?xml version="1.0" standalone="no"?>
<!DOCTYPE svg PUBLIC "-//W3C//DTD SVG 20010904//EN"
 "http://www.w3.org/TR/2001/REC-SVG-20010904/DTD/svg10.dtd">
<svg version="1.0" xmlns="http://www.w3.org/2000/svg"
 width="1024.000000pt" height="1024.000000pt" viewBox="0 0 1024.000000 1024.000000"
 preserveAspectRatio="xMidYMid meet">
<metadata>
Created by potrace 1.16, written by Peter Selinger 2001-2019
</metadata>
<g transform="translate(0.000000,1024.000000) scale(0.100000,-0.100000)"
fill="#000000" stroke="none">
<path d="M4207 9416 c-92 -34 -146 -116 -147 -221 0 -165 166 -271 315 -201
28 12 56 30 64 39 12 16 70 17 661 17 l647 0 19 -21 c53 -61 158 -75 241 -34
118 59 159 191 98 318 -33 71 -113 117 -201 117 -47 0 -138 -41 -156 -69 -13
-21 -16 -21 -649 -21 -634 0 -636 0 -655 21 -50 55 -165 82 -237 55z"/>
<path d="M3587 9239 c-53 -12 -85 -36 -108 -80 -18 -37 -19 -65 -19 -806 l0
-768 23 -40 c48 -85 156 -109 232 -51 74 57 70 5 73 841 3 519 0 761 -7 786
-27 89 -107 138 -194 118z"/>
<path d="M6528 9241 c-52 -17 -89 -46 -108 -87 -20 -40 -20 -58 -18 -810 l3
-769 22 -35 c28 -45 89 -80 139 -80 51 0 113 36 138 80 21 35 21 46 21 815 0
767 0 781 -20 815 -34 57 -115 90 -177 71z"/>
<path d="M1168 9056 c-101 -27 -176 -106 -198 -210 -8 -36 -10 -318 -8 -946
l3 -895 27 -51 c31 -60 84 -109 147 -138 40 -18 70 -21 229 -24 100 -2 182 -6
182 -9 0 -3 -29 -37 -64 -77 -162 -182 -377 -542 -392 -658 -12 -95 79 -187
171 -173 56 8 101 47 136 116 107 213 241 399 390 544 129 125 229 201 387
294 141 83 166 111 159 180 -4 32 -13 52 -36 75 l-31 31 -500 -2 -500 -3 0
820 0 820 800 0 799 0 3 -527 c2 -339 7 -528 13 -530 6 -2 51 -32 100 -68 131
-94 188 -98 200 -12 3 23 5 312 3 642 -3 492 -6 607 -18 640 -8 22 -37 63 -65
92 -85 88 -31 83 -1024 82 -665 0 -877 -3 -913 -13z"/>
<path d="M7225 9060 c-95 -19 -158 -69 -196 -153 -23 -50 -24 -61 -27 -356 -2
-167 -1 -310 3 -318 4 -12 8 -13 20 -3 8 7 22 10 30 6 10 -3 18 1 23 14 4 10
49 62 101 115 l95 96 167 -11 c259 -16 234 -20 317 56 l73 66 52 -6 c29 -3
100 -6 159 -8 l107 -2 108 102 107 102 268 0 268 0 0 -305 0 -306 153 3 152 3
0 355 0 355 -27 51 c-15 29 -46 68 -70 88 -79 68 -48 66 -992 65 -468 -1 -869
-5 -891 -9z"/>
<path d="M4195 8695 c-49 -17 -107 -80 -123 -133 -44 -145 36 -280 180 -307
47 -9 137 17 176 50 l30 25 640 0 640 0 30 -25 c123 -104 310 -41 357 119 32
109 -23 227 -127 270 -76 32 -194 11 -242 -43 l-19 -21 -642 0 c-535 0 -644 2
-648 14 -3 7 -29 25 -58 40 -60 30 -129 34 -194 11z"/>
<path d="M2240 8567 c-67 -23 -99 -111 -65 -177 63 -122 235 -73 235 69 0 36
-6 49 -34 77 -19 19 -43 34 -54 34 -11 0 -26 2 -34 4 -7 3 -29 0 -48 -7z"/>
<path d="M1789 8555 c-28 -15 -59 -70 -59 -104 0 -71 58 -131 128 -131 38 0
50 5 83 39 35 35 39 44 39 91 0 46 -4 56 -34 86 -30 30 -40 34 -82 34 -27 -1
-61 -7 -75 -15z"/>
<path d="M8400 8285 l0 -215 140 0 140 0 0 215 0 215 -140 0 -140 0 0 -215z"/>
<path d="M1474 8274 c-62 -30 -84 -126 -44 -191 26 -44 54 -56 112 -51 63 7
107 46 115 104 14 108 -87 185 -183 138z"/>
<path d="M2570 8277 c-33 -17 -70 -74 -70 -109 0 -109 106 -173 195 -118 34
21 65 73 65 109 0 93 -107 160 -190 118z"/>
<path d="M7860 8055 l0 -225 155 0 155 0 -2 223 -3 222 -152 2 -153 2 0 -224z"/>
<path d="M7330 7935 l0 -225 145 0 145 0 0 225 0 225 -145 0 -145 0 0 -225z"/>
<path d="M2036 8036 c-61 -23 -89 -47 -118 -106 -37 -72 -37 -130 0 -201 86
-165 315 -147 390 31 35 84 -12 212 -95 258 -54 29 -126 37 -177 18z"/>
<path d="M4171 7978 c-82 -42 -110 -117 -76 -203 23 -62 72 -95 141 -95 66 0
111 29 142 92 68 136 -73 276 -207 206z"/>
<path d="M4731 7978 c-54 -28 -81 -75 -81 -138 0 -95 63 -160 155 -160 123 0
196 125 138 237 -26 50 -59 72 -118 79 -40 4 -59 1 -94 -18z"/>
<path d="M5314 7982 c-107 -50 -116 -212 -15 -279 90 -60 226 9 238 120 5 49
-27 120 -67 149 -39 28 -108 32 -156 10z"/>
<path d="M5899 7991 c-48 -15 -69 -32 -89 -71 -58 -114 16 -240 141 -240 54 0
101 28 137 80 20 29 23 44 20 88 -6 64 -29 99 -88 130 -46 23 -76 26 -121 13z"/>
<path d="M7038 7923 l-38 -26 0 -157 c0 -141 2 -160 19 -181 l19 -24 32 30 32
30 -4 177 c-2 110 -7 178 -13 177 -5 0 -27 -12 -47 -26z"/>
<path d="M8900 7495 l0 -385 -365 0 -365 0 0 220 0 220 -174 0 -174 0 -75 -70
-74 -69 -59 9 c-87 14 -154 12 -196 -8 -22 -10 -124 -109 -268 -262 -301 -318
-331 -348 -337 -333 -10 27 -185 170 -313 256 -215 144 -489 267 -771 346 -94
26 -300 61 -362 61 -125 0 -200 -113 -145 -219 35 -67 58 -79 198 -101 227
-35 490 -124 700 -237 647 -347 1052 -953 1131 -1688 24 -223 -9 -586 -71
-790 -123 -402 -288 -675 -587 -966 -322 -314 -698 -502 -1160 -579 -70 -12
-141 -29 -158 -39 -33 -18 -75 -92 -75 -131 1 -42 37 -108 72 -131 29 -18 43
-20 119 -15 197 13 485 89 728 194 243 105 435 225 609 380 l73 65 262 -260
c200 -199 271 -263 300 -273 133 -42 268 111 198 225 -10 17 -125 138 -255
270 -130 132 -246 250 -257 261 l-20 22 61 82 c33 45 88 127 121 181 l61 99
61 2 c34 1 285 2 557 3 l495 0 46 27 c53 31 78 65 86 113 9 55 -5 102 -42 141
l-35 37 0 608 0 609 -190 0 -190 0 0 -605 0 -605 -149 0 -150 0 -4 93 c-2 50
-2 410 0 799 l3 707 -142 3 -142 3 -27 76 -27 76 332 33 c182 18 387 38 456
45 135 13 172 26 213 74 68 81 20 223 -82 246 -16 3 -128 -3 -248 -15 -261
-25 -688 -68 -759 -76 l-52 -6 -40 68 c-22 38 -75 118 -117 177 -42 59 -75
112 -73 117 2 5 66 74 143 152 l140 143 285 0 c279 0 286 0 335 -24 142 -67
365 -239 509 -393 104 -110 189 -234 283 -413 64 -122 71 -131 116 -154 79
-39 162 -7 206 82 31 62 25 87 -54 245 -81 161 -173 306 -272 428 -43 53 -86
106 -96 119 l-17 23 182 3 c177 4 185 5 240 32 32 16 73 46 92 69 65 76 66 84
66 560 l0 428 -155 0 -155 0 0 -385z"/>
<path d="M8400 7585 l0 -215 140 0 140 0 0 193 c0 105 3 202 6 215 l6 22 -146
0 -146 0 0 -215z"/>
<path d="M1473 7765 c-120 -52 -78 -245 54 -245 39 0 50 5 84 39 33 33 39 45
39 82 0 56 -30 106 -75 125 -42 17 -61 17 -102 -1z"/>
<path d="M2614 7769 c-28 -8 -73 -45 -63 -52 2 -2 52 -2 112 1 95 4 106 6 95
20 -16 18 -71 42 -95 41 -10 0 -32 -5 -49 -10z"/>
<path d="M4670 7465 c-273 -43 -530 -129 -775 -259 -179 -95 -319 -195 -463
-331 l-70 -65 -243 252 c-323 336 -334 346 -380 358 -147 40 -265 -123 -177
-245 13 -17 145 -157 293 -309 149 -152 272 -281 273 -287 2 -5 -28 -53 -66
-107 -76 -106 -127 -193 -192 -321 -47 -95 -127 -294 -136 -341 -4 -16 -9 -30
-13 -30 -3 0 -82 73 -176 161 -93 88 -177 165 -186 169 -13 7 -59 -31 -220
-185 l-204 -194 -72 6 c-103 8 -155 -9 -219 -71 -60 -59 -78 -109 -72 -198 12
-165 189 -267 340 -195 29 14 60 32 68 39 32 26 68 84 81 126 11 37 34 64 147
168 74 68 136 123 138 122 1 -2 68 -65 147 -140 l143 -137 -14 -93 c-20 -138
-19 -474 2 -623 26 -180 62 -348 100 -467 l34 -108 -108 0 c-60 0 -115 -3
-124 -6 -14 -6 -16 24 -16 285 l0 291 -190 0 c-174 0 -190 -1 -191 -17 0 -10
0 -138 1 -284 l2 -266 -175 -5 c-195 -5 -221 -13 -265 -79 -31 -45 -28 -129 7
-177 47 -66 27 -64 645 -69 l561 -4 122 -182 122 -182 -102 -105 c-57 -58
-177 -182 -269 -275 -182 -187 -193 -205 -168 -288 25 -85 109 -131 197 -107
44 11 71 36 307 271 142 143 261 259 265 259 4 0 18 -12 32 -26 13 -14 58 -54
99 -89 304 -253 754 -448 1180 -510 133 -20 196 -16 237 13 87 61 82 211 -8
258 -16 8 -66 19 -111 25 -378 47 -769 208 -1043 428 -283 227 -477 465 -619
761 -209 436 -269 928 -171 1415 50 251 162 515 313 741 343 512 922 869 1516
932 96 11 125 25 164 82 43 64 21 162 -47 207 -40 27 -114 29 -251 8z"/>
<path d="M1764 7406 c-29 -29 -34 -41 -34 -82 0 -58 28 -110 66 -124 89 -34
177 27 177 122 0 71 -52 118 -131 118 -37 0 -50 -6 -78 -34z"/>
<path d="M4855 6759 c-334 -43 -631 -169 -897 -381 -293 -233 -524 -627 -594
-1013 -25 -137 -30 -406 -10 -540 32 -215 83 -378 174 -560 55 -111 184 -302
251 -372 l51 -53 1235 0 1236 0 41 21 c132 67 313 340 407 612 132 382 132
780 2 1147 -35 100 -87 216 -99 224 -5 3 -58 -24 -118 -59 -60 -36 -117 -68
-126 -71 -23 -7 -23 -9 7 -87 37 -100 83 -282 95 -377 26 -213 3 -464 -60
-654 -40 -121 -128 -296 -187 -375 l-48 -64 -102 -1 -103 -1 -2 839 -3 839
-130 4 c-71 2 -158 1 -193 -3 l-63 -6 7 -366 c4 -202 3 -577 -1 -834 l-7 -468
-154 0 -154 0 0 605 0 605 -192 -2 -193 -3 -1 -460 c-1 -253 -2 -524 -3 -602
l-1 -143 -155 0 -155 0 0 400 0 399 -35 7 c-20 3 -106 4 -193 2 l-157 -5 0
-401 0 -401 -129 -3 -128 -3 -50 70 c-61 86 -148 263 -181 370 -74 235 -90
505 -47 746 48 262 207 552 404 736 81 76 233 181 335 232 94 48 282 108 396
127 133 22 389 22 510 1 78 -14 226 -53 276 -72 14 -5 25 17 63 120 26 69 47
135 49 147 2 17 -10 25 -63 45 -81 31 -254 68 -382 82 -113 13 -323 12 -423 0z"/>
<path d="M6125 6392 c-79 -38 -115 -96 -115 -186 0 -186 246 -254 355 -98 57
83 34 205 -51 265 -54 38 -133 46 -189 19z"/>
<path d="M943 5669 c-27 -13 -47 -32 -58 -56 -20 -41 -56 -252 -81 -474 -16
-147 -16 -162 0 -292 25 -205 64 -427 82 -474 39 -106 167 -136 250 -60 48 44
56 87 38 206 -27 182 -54 415 -54 473 0 31 14 164 30 295 36 284 36 291 7 334
-45 67 -135 88 -214 48z"/>
<path d="M9080 5673 c-19 -10 -45 -34 -58 -53 -29 -42 -28 -76 13 -364 14
-105 26 -228 26 -275 1 -87 -18 -253 -46 -411 -8 -47 -15 -113 -15 -147 0 -55
3 -66 30 -97 38 -43 87 -60 146 -51 54 8 108 52 123 98 20 64 91 540 91 609 0
74 -79 598 -95 629 -36 68 -143 99 -215 62z"/>
<path d="M1209 4061 c-48 -15 -69 -32 -89 -71 -41 -80 -24 -145 108 -407 44
-87 100 -193 125 -237 l45 -79 -84 -51 c-185 -112 -351 -242 -379 -297 -45
-87 19 -206 122 -225 50 -9 93 11 207 96 107 81 283 200 295 200 3 0 20 -21
36 -47 44 -68 76 -88 139 -88 65 1 113 29 144 83 26 46 28 89 7 139 -8 20 -13
38 -10 41 16 16 192 34 390 40 252 8 272 12 319 75 29 40 30 134 0 174 -45 61
-63 65 -334 60 -237 -5 -250 -6 -395 -39 -136 -32 -151 -34 -162 -19 -36 46
-173 299 -234 433 -39 84 -81 164 -92 177 -40 44 -99 59 -158 42z"/>
<path d="M8864 4051 c-48 -22 -67 -47 -119 -161 -96 -213 -254 -500 -274 -500
-4 0 -32 7 -62 16 -153 46 -230 56 -474 60 -218 5 -243 4 -274 -13 -50 -26
-74 -64 -78 -125 -5 -65 18 -114 68 -143 30 -18 59 -21 249 -26 130 -4 253
-13 310 -24 52 -9 96 -17 97 -18 1 -1 -5 -28 -14 -59 -15 -53 -15 -60 1 -103
26 -66 74 -100 142 -99 63 0 111 29 150 91 l26 42 30 -15 c57 -29 143 -87 272
-183 125 -92 131 -95 181 -95 120 0 200 123 149 229 -25 54 -204 188 -386 289
-37 21 -70 41 -72 44 -2 4 21 50 51 102 83 144 211 407 233 478 31 101 5 177
-73 213 -53 23 -81 23 -133 0z"/>
<path d="M2079 2765 c-126 -40 -199 -132 -207 -260 -6 -101 15 -161 82 -229
65 -67 129 -91 223 -83 59 4 65 3 84 -22 11 -14 108 -115 216 -223 l196 -198
-2 -81 c-2 -70 2 -89 24 -135 71 -144 241 -203 381 -131 98 50 147 130 152
249 4 65 0 85 -20 130 -14 29 -37 67 -52 85 -39 46 -138 93 -197 93 l-47 0
-200 208 c-270 281 -262 271 -262 324 0 66 -27 132 -76 187 -73 81 -197 117
-295 86z"/>
<path d="M7950 2767 c-125 -35 -210 -148 -210 -278 0 -51 0 -52 -107 -168 -58
-64 -160 -171 -226 -238 -114 -118 -120 -123 -160 -123 -52 0 -140 -40 -185
-83 -19 -18 -46 -54 -60 -82 -23 -43 -27 -62 -27 -135 0 -69 4 -93 23 -127 36
-69 77 -108 143 -138 53 -23 71 -27 124 -23 70 6 147 37 189 76 16 15 41 54
57 87 25 51 29 72 29 141 l0 81 206 217 c114 119 212 216 218 217 6 0 30 0 54
-1 122 -5 254 89 287 204 41 143 -32 308 -161 362 -49 21 -142 26 -194 11z"/>
<path d="M6528 2630 c-47 -8 -84 -33 -108 -73 -19 -31 -20 -56 -20 -724 l0
-693 -58 0 c-53 0 -59 2 -75 30 -27 44 -96 81 -167 87 -87 8 -144 -11 -204
-69 -47 -45 -53 -48 -103 -48 l-53 0 -1 78 c0 42 -1 280 -2 527 -2 493 -1 485
-63 534 -84 66 -225 38 -268 -53 -14 -30 -16 -95 -16 -555 l0 -520 -285 -3
-285 -3 0 500 c0 526 -2 554 -46 612 -70 92 -237 74 -285 -31 -17 -38 -19 -76
-19 -563 l0 -523 -60 0 c-57 0 -61 2 -105 44 -103 100 -243 102 -350 4 -50
-45 -56 -48 -109 -48 l-56 0 0 686 c0 675 0 687 -21 723 -30 52 -64 74 -126
79 -74 6 -126 -18 -159 -73 l-24 -42 2 -915 3 -915 28 -36 c52 -68 130 -86
207 -47 63 32 90 81 90 162 l0 68 64 0 c57 0 65 -3 80 -25 25 -38 86 -74 148
-86 79 -16 156 9 216 68 41 42 44 43 107 43 l65 0 0 -59 c0 -68 12 -106 43
-139 65 -70 195 -67 260 6 27 29 46 89 47 145 l0 47 285 0 285 0 0 -60 c0 -81
26 -131 85 -166 61 -35 136 -31 189 10 53 40 66 66 73 145 l6 71 55 0 c51 0
57 -3 107 -49 51 -46 108 -71 163 -71 51 0 125 33 169 75 44 43 50 45 104 45
l57 0 3 -79 c4 -72 7 -83 34 -111 41 -43 76 -60 125 -60 57 0 103 22 136 66
l29 37 3 901 c3 987 5 951 -56 1009 -32 30 -92 46 -144 37z"/>
<path d="M1114 2355 c-58 -29 -97 -78 -112 -140 -12 -48 -15 -988 -4 -1156 7
-107 11 -120 36 -154 16 -21 48 -46 72 -56 41 -19 74 -19 781 -17 682 3 740 4
770 21 77 41 116 124 94 197 -16 53 -57 100 -87 100 -16 0 -24 6 -24 17 0 9
-10 37 -21 61 -24 49 -87 96 -143 106 -44 8 -118 -8 -161 -37 -40 -26 -85 -92
-85 -124 0 -22 -3 -23 -75 -23 l-74 0 -3 263 c-3 252 -4 264 -27 310 -31 63
-84 99 -155 105 -103 8 -180 -40 -216 -134 -18 -50 -20 -77 -20 -299 l0 -245
-110 0 -110 0 -1 453 c0 560 -3 608 -33 667 -51 99 -187 139 -292 85z"/>
<path d="M8900 2367 c-131 -37 -213 -148 -212 -288 0 -81 24 -140 81 -202 l41
-44 0 -342 0 -341 -659 0 c-442 0 -669 -4 -688 -11 -68 -25 -112 -104 -98
-176 10 -55 67 -110 128 -123 37 -8 273 -10 797 -8 833 3 783 -1 835 75 l25
38 0 448 0 448 39 49 c97 123 93 277 -10 394 -63 72 -187 109 -279 83z"/>
</g>
</svg>
