<?xml version="1.0" standalone="no"?>
<!DOCTYPE svg PUBLIC "-//W3C//DTD SVG 20010904//EN"
 "http://www.w3.org/TR/2001/REC-SVG-20010904/DTD/svg10.dtd">
<svg version="1.0" xmlns="http://www.w3.org/2000/svg"
 width="1024.000000pt" height="1024.000000pt" viewBox="0 0 1024.000000 1024.000000"
 preserveAspectRatio="xMidYMid meet">
<metadata>
Created by potrace 1.16, written by Peter Selinger 2001-2019
</metadata>
<g transform="translate(0.000000,1024.000000) scale(0.100000,-0.100000)"
fill="#000000" stroke="none">
<path d="M4970 9182 c-47 -16 -148 -54 -225 -85 -77 -30 -257 -101 -400 -157
-143 -56 -352 -137 -465 -182 -113 -44 -326 -127 -475 -185 -148 -57 -360
-140 -470 -183 -110 -43 -290 -113 -400 -155 -333 -126 -358 -141 -412 -233
-27 -45 -28 -54 -33 -221 l-5 -173 -110 -44 c-60 -23 -187 -72 -281 -108 -296
-112 -324 -129 -372 -220 l-27 -51 -6 -970 c-3 -533 -9 -985 -14 -1003 -10
-43 17 -113 56 -146 87 -73 210 -50 266 49 27 47 29 86 8 145 -19 55 -22 265
-2 257 229 -89 341 -133 637 -252 195 -79 497 -200 670 -270 173 -69 341 -138
373 -152 l57 -26 0 -318 0 -318 -52 23 c-62 28 -326 129 -406 157 -124 43
-234 5 -271 -94 -7 -18 -11 -143 -11 -338 0 -191 -4 -309 -10 -309 -5 0 -98
37 -207 81 -160 66 -370 149 -683 271 l-25 10 27 14 c31 16 213 90 442 179
165 64 216 101 235 172 14 48 14 446 1 493 -5 20 -26 51 -45 70 -30 29 -43 34
-92 37 -73 5 -116 -19 -143 -80 -17 -36 -20 -67 -20 -227 l-1 -185 -217 -85
c-445 -173 -493 -195 -538 -244 -62 -68 -79 -155 -49 -252 13 -42 15 -166 14
-927 -2 -857 -1 -879 18 -905 39 -52 70 -67 138 -67 71 0 103 17 142 75 32 47
38 92 19 149 -11 33 -16 85 -16 156 0 106 0 106 23 99 12 -3 168 -65 347 -137
179 -71 364 -144 412 -163 138 -52 168 -70 168 -100 0 -90 118 -170 209 -143
52 15 110 64 127 106 8 18 20 33 27 33 7 0 69 -22 137 -48 69 -27 164 -64 212
-82 l87 -34 3 -165 c2 -139 6 -172 22 -205 21 -42 77 -101 116 -121 14 -7 243
-101 510 -208 267 -108 564 -228 660 -267 368 -151 377 -154 465 -154 96 1 84
-4 740 264 259 105 562 228 674 272 228 91 283 123 323 188 36 59 48 126 48
274 l0 122 213 84 c116 47 217 86 222 88 6 1 17 -13 24 -33 18 -52 71 -100
123 -113 101 -26 200 41 222 149 5 22 21 33 98 66 204 90 813 333 832 333 20
0 21 -187 2 -245 -21 -60 -20 -101 3 -151 32 -70 104 -105 186 -90 37 7 98 53
117 89 7 14 10 286 9 901 -1 753 1 887 13 921 34 92 14 178 -59 250 -48 49
-63 56 -402 190 l-353 139 0 186 c0 156 -3 190 -18 219 -22 45 -59 71 -110 78
-55 7 -85 -2 -126 -38 -50 -43 -57 -93 -53 -345 4 -305 -16 -282 376 -434 287
-111 347 -138 335 -150 -5 -5 -162 -70 -349 -144 -187 -74 -384 -153 -438
-175 -54 -23 -103 -41 -108 -41 -5 0 -9 124 -9 298 l0 298 -26 53 c-36 71 -86
104 -168 109 -45 3 -74 -1 -111 -16 -27 -11 -95 -38 -150 -60 -55 -22 -144
-58 -198 -80 l-97 -41 2 321 3 322 305 124 c598 243 1395 561 1415 564 19 3
20 -3 23 -96 2 -72 -2 -110 -13 -138 -53 -132 35 -267 167 -255 91 8 165 86
159 167 -1 19 -5 476 -9 1015 l-7 980 -27 51 c-53 101 -89 121 -528 284 -85
32 -174 66 -197 75 l-43 17 0 149 c0 166 -14 222 -71 292 -43 53 -86 75 -329
167 -219 84 -369 141 -705 273 -206 81 -592 233 -745 292 -354 138 -523 204
-645 252 -389 153 -425 165 -515 169 -74 4 -96 1 -170 -24z m232 -276 c25 -8
271 -102 545 -210 274 -107 719 -280 988 -385 663 -257 958 -376 962 -388 2
-5 -83 -44 -189 -86 -106 -42 -281 -110 -388 -152 -107 -43 -201 -79 -207 -82
-10 -4 -13 23 -13 117 0 148 -11 198 -55 240 -54 53 -135 60 -216 19 -87 -43
-112 -167 -53 -254 l24 -36 -2 -621 -3 -621 -145 -59 c-80 -33 -167 -67 -195
-78 -27 -10 -273 -107 -545 -216 l-495 -198 -90 -1 -90 0 -640 256 c-352 141
-668 267 -702 280 l-63 24 0 617 c0 439 3 619 11 624 19 12 49 88 49 127 0 61
-45 133 -102 163 -38 20 -126 18 -168 -4 -22 -12 -44 -35 -57 -62 -21 -40 -23
-59 -23 -182 0 -76 -2 -138 -4 -138 -2 0 -26 9 -53 21 -26 12 -133 54 -238 94
-104 40 -263 101 -352 135 -90 34 -163 66 -163 71 0 5 17 16 38 25 42 18 868
341 982 384 80 30 269 104 995 388 253 99 474 184 490 190 43 15 113 14 167
-2z m-2332 -1430 c179 -70 357 -140 395 -155 l70 -29 3 -361 c1 -199 0 -361
-3 -361 -3 0 -22 7 -43 16 -20 9 -135 53 -255 99 -119 46 -277 109 -350 139
-72 30 -169 69 -214 86 l-83 31 0 359 0 359 78 -28 c42 -16 223 -86 402 -155z
m4978 -178 l-3 -362 -170 -68 c-397 -158 -755 -298 -765 -298 -7 0 -10 118
-10 363 l0 362 63 23 c34 12 242 94 462 182 220 88 406 160 413 160 10 0 12
-76 10 -362z m-5760 -112 c2 -63 0 -116 -5 -119 -8 -4 -261 91 -293 111 -10 6
24 24 125 65 77 30 147 56 155 56 12 1 16 -19 18 -113z m6228 57 c85 -31 151
-60 147 -63 -7 -7 -299 -120 -309 -120 -2 0 -4 54 -4 120 0 66 3 120 6 120 3
0 76 -25 160 -57z m-6629 -332 c163 -60 1562 -612 1626 -642 l27 -12 0 -207 0
-208 -277 110 c-153 61 -379 150 -502 198 -154 61 -233 98 -255 118 -45 43
-68 52 -129 52 -40 0 -63 -6 -88 -23 -153 -103 -87 -327 97 -327 38 0 109 -24
333 -114 158 -63 401 -159 541 -215 140 -56 261 -105 268 -109 9 -7 12 -54 10
-204 l-3 -195 -545 219 c-300 120 -692 278 -872 350 l-328 132 0 553 c0 335 4
553 9 553 5 0 45 -13 88 -29z m6963 -505 c0 -310 -3 -543 -9 -558 -7 -18 -27
-31 -78 -50 -37 -15 -275 -111 -528 -213 -362 -147 -768 -311 -1122 -452 -10
-4 -13 39 -13 195 l0 200 113 45 c61 25 306 123 542 217 337 135 444 174 496
180 77 9 96 17 137 64 53 61 56 158 7 222 -65 85 -202 87 -275 3 -25 -28 -73
-48 -850 -354 -80 -31 -151 -59 -157 -62 -10 -4 -13 41 -13 205 l0 211 383
151 c210 84 506 201 657 261 151 59 365 144 475 188 110 43 208 80 217 80 15
1 17 -39 18 -533z m-4389 -507 c798 -318 768 -307 826 -314 32 -5 70 -2 111 9
34 9 293 109 575 222 527 213 765 307 805 319 l22 6 0 -569 0 -569 -152 -61
c-153 -60 -714 -290 -988 -404 -80 -33 -187 -74 -238 -91 l-93 -31 -75 22
c-69 21 -197 72 -939 374 -148 60 -304 123 -345 139 -41 16 -90 36 -107 44
l-33 15 0 565 c0 475 2 565 14 565 7 0 285 -108 617 -241z m-216 -1366 c759
-311 970 -394 1014 -403 59 -11 132 -1 216 30 56 21 581 235 960 392 94 39
214 88 268 108 l97 38 0 -318 c0 -245 -3 -319 -12 -323 -7 -3 -231 -93 -498
-200 -267 -107 -546 -218 -620 -246 -148 -57 -181 -82 -200 -150 -36 -135 100
-227 235 -159 42 21 329 143 442 187 35 14 24 18 373 -121 286 -113 392 -160
383 -168 -4 -5 -120 -53 -258 -108 -137 -55 -347 -139 -465 -187 -118 -49
-258 -105 -310 -125 -52 -20 -191 -76 -308 -124 -118 -47 -227 -86 -243 -86
-16 0 -46 7 -67 16 -77 33 -642 262 -1060 430 -238 96 -441 178 -449 183 -14
7 -13 10 5 20 45 24 687 281 703 281 18 0 386 -150 492 -200 74 -35 106 -36
164 0 34 21 73 85 73 121 0 38 -40 107 -73 128 -18 10 -304 128 -637 261 -333
133 -613 246 -622 251 -17 9 -18 35 -18 323 l0 314 98 -38 c53 -20 196 -78
317 -127z m-590 -701 c219 -88 401 -164 402 -169 3 -8 -154 -74 -702 -298
-110 -45 -214 -89 -232 -98 -18 -10 -34 -17 -38 -17 -3 0 -5 182 -5 404 l0
404 88 -33 c48 -18 267 -105 487 -193z m3905 -172 c0 -236 -4 -400 -9 -400 -5
0 -31 10 -58 21 -45 20 -622 254 -830 337 -51 20 -93 39 -93 42 0 3 30 17 68
32 142 56 613 249 752 307 80 33 151 60 158 61 9 0 12 -86 12 -400z m-5390
-102 c429 -172 594 -241 602 -251 13 -20 -5 -37 -63 -63 -69 -31 -150 -111
-182 -181 -18 -40 -22 -66 -22 -153 0 -93 3 -112 27 -162 36 -77 96 -140 173
-180 l65 -33 0 -78 0 -77 -37 16 c-21 9 -233 94 -471 190 -238 95 -441 178
-452 184 -20 10 -20 22 -20 475 l0 465 53 -21 c28 -11 176 -70 327 -131z
m6679 -478 c0 -157 -3 -290 -7 -296 -7 -11 -129 -63 -492 -209 -85 -34 -228
-92 -318 -129 -90 -36 -165 -66 -168 -66 -2 0 -4 35 -3 78 l0 77 59 28 c80 38
144 103 183 185 29 61 32 76 32 162 0 83 -4 103 -28 155 -36 77 -102 144 -178
180 -76 37 -78 57 -6 88 28 13 133 56 232 97 99 40 293 119 430 175 l250 102
6 -171 c4 -94 7 -299 8 -456z m-5408 -69 l94 -39 3 -392 c1 -215 -1 -390 -6
-388 -4 1 -107 43 -230 92 l-222 89 0 105 0 105 50 53 c78 83 114 193 103 312
l-6 52 54 24 c30 14 57 25 60 25 4 1 49 -17 100 -38z m3916 7 l51 -23 -5 -70
c-4 -51 -1 -88 12 -130 19 -68 40 -101 102 -166 l44 -45 -3 -108 -3 -108 -175
-69 c-96 -38 -199 -78 -228 -89 l-52 -20 2 391 3 391 80 33 c97 40 107 41 172
13z m-3224 -284 c155 -63 426 -173 602 -244 176 -71 346 -140 378 -154 l57
-26 0 -171 c0 -122 -4 -188 -16 -231 -24 -95 5 -177 79 -218 138 -78 297 56
254 213 -14 49 -15 100 -9 338 2 63 5 78 20 82 9 3 105 42 212 87 107 44 346
142 530 217 184 74 376 152 425 173 50 21 100 41 113 45 l22 6 0 -608 0 -609
-117 -46 c-65 -26 -370 -149 -678 -274 -308 -124 -582 -233 -610 -241 -96 -29
-87 -32 -760 242 -225 92 -498 202 -605 244 l-195 76 -3 608 c-1 423 1 607 8
607 6 0 138 -52 293 -116z"/>
<path d="M5045 6866 c-59 -27 -105 -101 -105 -169 0 -75 69 -158 145 -173 69
-13 157 33 192 99 36 70 11 175 -54 224 -42 32 -130 42 -178 19z"/>
<path d="M5052 5379 c-212 -41 -340 -243 -288 -450 57 -221 297 -339 501 -245
122 56 191 145 216 280 35 193 -97 378 -296 415 -66 12 -72 12 -133 0z"/>
</g>
</svg>
