<?xml version="1.0" standalone="no"?>
<!DOCTYPE svg PUBLIC "-//W3C//DTD SVG 20010904//EN"
 "http://www.w3.org/TR/2001/REC-SVG-20010904/DTD/svg10.dtd">
<svg version="1.0" xmlns="http://www.w3.org/2000/svg"
 width="1024.000000pt" height="1024.000000pt" viewBox="0 0 1024.000000 1024.000000"
 preserveAspectRatio="xMidYMid meet">
<metadata>
Created by potrace 1.16, written by Peter Selinger 2001-2019
</metadata>
<g transform="translate(0.000000,1024.000000) scale(0.100000,-0.100000)"
fill="#000000" stroke="none">
<path d="M4810 9176 c-131 -19 -341 -72 -428 -108 -144 -60 -254 -148 -308
-248 -18 -34 -19 -75 -22 -1028 -2 -991 -2 -992 19 -1042 22 -51 116 -150 177
-185 36 -22 40 -30 15 -39 -18 -7 -110 -57 -468 -254 -324 -178 -315 -171
-315 -258 0 -52 21 -98 51 -115 12 -6 64 -21 117 -35 296 -72 455 -193 399
-300 -20 -39 -82 -95 -137 -127 -113 -65 -342 -120 -545 -132 -118 -6 -354 9
-452 29 -305 65 -499 196 -453 307 20 46 96 107 197 155 69 33 96 51 108 73
23 46 19 86 -14 123 -46 51 -97 47 -235 -21 -125 -62 -216 -142 -257 -226
l-24 -50 -3 -769 -2 -770 25 -53 c144 -293 891 -436 1502 -288 260 63 436 171
503 310 18 38 20 62 20 300 l0 258 46 -7 c26 -3 405 -6 843 -6 l796 0 -3 -235
c-3 -194 -1 -244 12 -283 54 -159 281 -296 591 -356 143 -28 257 -37 440 -37
489 0 894 141 991 346 l24 50 0 760 0 760 -30 62 c-50 107 -161 195 -333 262
-88 35 -115 38 -162 16 -53 -26 -70 -87 -40 -145 17 -33 43 -48 129 -79 114
-40 216 -128 216 -186 0 -26 -38 -85 -78 -121 -70 -63 -253 -128 -447 -160
-129 -21 -393 -23 -524 -4 -220 31 -421 110 -504 199 -35 37 -47 58 -47 81 0
111 163 213 445 280 106 26 125 46 125 137 0 82 -8 90 -185 182 -71 37 -184
97 -250 133 -66 36 -177 95 -247 132 -71 37 -128 69 -128 71 0 3 24 20 53 38
70 46 132 111 162 171 l25 50 0 986 0 987 -25 47 c-41 78 -76 115 -160 170
-134 88 -272 137 -495 178 -149 27 -563 35 -710 14z m453 -206 c249 -18 434
-63 572 -138 75 -41 135 -106 135 -146 0 -63 -114 -152 -258 -199 -368 -122
-895 -112 -1231 22 -77 31 -157 87 -182 127 -71 115 111 243 431 304 185 36
338 44 533 30z m-867 -659 c157 -67 326 -103 559 -121 364 -28 779 40 988 162
l47 27 0 -81 c0 -68 -4 -88 -25 -123 -56 -96 -238 -177 -510 -227 -115 -21
-555 -17 -685 6 -194 34 -359 99 -441 173 -59 53 -69 79 -69 178 l0 86 33 -25
c18 -14 64 -39 103 -55z m10 -480 c92 -39 215 -74 334 -96 146 -26 500 -32
667 -11 230 30 443 92 532 156 22 17 43 30 46 30 12 0 4 -143 -9 -169 -43 -83
-220 -172 -427 -214 -185 -38 -565 -47 -764 -17 -223 33 -430 122 -496 213
-26 35 -29 48 -29 114 l0 73 38 -24 c20 -14 69 -39 108 -55z m-31 -433 c172
-85 421 -128 752 -128 211 0 365 17 542 61 119 29 280 94 295 118 26 42 37
-54 12 -112 -43 -104 -253 -198 -533 -239 -139 -20 -552 -17 -688 6 -198 33
-358 94 -440 168 l-49 45 -4 78 -4 78 33 -25 c19 -14 57 -37 84 -50z m-15
-410 c185 -93 404 -130 760 -130 247 0 376 13 554 57 108 27 257 84 287 111 8
8 19 14 22 14 11 0 8 -146 -4 -177 -13 -36 -62 -87 -120 -124 -235 -150 -864
-190 -1274 -79 -147 39 -272 116 -309 189 -15 30 -32 195 -19 190 4 -2 51 -25
103 -51z m395 -582 c44 -8 120 -17 168 -21 l88 -7 -1 -593 c-1 -408 2 -599 9
-613 30 -57 102 -78 161 -47 61 32 60 17 60 665 0 340 4 590 9 590 39 0 231
23 291 36 l75 15 290 -145 c160 -80 332 -168 383 -196 l93 -51 -119 -59 c-141
-70 -227 -146 -270 -238 l-27 -57 -2 -380 c-1 -209 -2 -386 -2 -392 -1 -10
-176 -13 -841 -13 l-840 0 0 404 0 403 -26 49 c-53 102 -143 173 -301 240 -51
21 -89 41 -85 45 18 16 387 212 557 296 153 76 196 93 220 88 17 -3 66 -12
110 -19z m-2274 -1147 c47 -33 170 -86 262 -113 145 -42 282 -58 502 -58 221
-1 312 9 489 52 114 28 283 98 307 127 7 7 15 13 20 13 12 0 11 -97 -2 -144
-32 -114 -265 -229 -539 -266 -171 -24 -495 -13 -655 21 -186 39 -342 121
-391 204 -23 40 -46 185 -29 185 4 0 20 -9 36 -21z m3724 11 c11 -17 140 -79
222 -105 392 -128 1009 -95 1310 70 35 19 66 35 68 35 3 0 5 -31 5 -68 0 -60
-4 -74 -29 -110 -73 -100 -257 -181 -496 -218 -203 -31 -576 -14 -745 35 -169
48 -309 131 -343 204 -28 58 -20 203 8 157z m148 -534 c190 -72 315 -95 567
-103 337 -10 612 39 818 146 l72 38 0 -53 c0 -69 -11 -95 -59 -143 -75 -75
-261 -145 -468 -176 -128 -19 -414 -22 -548 -5 -220 27 -412 97 -494 179 -51
51 -61 76 -61 152 l0 59 41 -30 c22 -16 82 -45 132 -64z m-3848 50 c183 -111
474 -164 825 -153 303 10 537 64 685 158 25 16 48 29 50 29 9 0 5 -85 -6 -123
-30 -111 -226 -209 -504 -252 -167 -26 -525 -17 -687 18 -186 41 -327 108
-384 183 -23 30 -30 51 -34 106 -3 37 -5 68 -4 68 1 0 27 -15 59 -34z m65
-462 c269 -123 736 -158 1105 -83 138 28 274 75 335 115 29 19 54 34 57 34 3
0 3 -36 1 -80 -4 -70 -8 -85 -35 -118 -90 -113 -320 -190 -633 -212 -145 -10
-367 -1 -495 20 -159 26 -314 84 -379 141 -64 57 -76 84 -76 174 l0 77 33 -21
c17 -12 57 -33 87 -47z m3881 -53 c187 -52 299 -65 549 -65 186 0 245 4 340
22 163 30 281 66 383 116 l89 44 -4 -81 c-4 -98 -20 -126 -105 -183 -161 -107
-517 -168 -845 -145 -299 22 -497 81 -614 183 -51 45 -64 77 -64 157 l0 70 83
-44 c45 -24 130 -57 188 -74z"/>
<path d="M7240 8903 c-57 -21 -97 -102 -80 -162 34 -118 178 -131 235 -21 52
101 -50 221 -155 183z"/>
<path d="M8224 8656 c-66 -30 -91 -95 -59 -156 20 -39 56 -56 135 -64 126 -12
259 -107 318 -226 21 -43 27 -71 29 -130 1 -41 2 -80 2 -87 1 -7 30 -41 65
-76 53 -53 68 -75 82 -122 25 -90 16 -196 -25 -279 -63 -128 -202 -236 -339
-265 -80 -17 -723 -15 -787 3 -152 40 -274 165 -305 313 -13 61 -44 93 -97
100 -75 10 -133 -45 -133 -127 0 -45 37 -147 78 -215 66 -109 174 -207 287
-259 106 -49 112 -49 488 -53 210 -3 393 0 442 6 176 21 315 88 435 210 172
174 239 406 180 620 -25 88 -40 119 -92 189 -30 40 -42 68 -49 114 -36 222
-219 424 -448 492 -80 24 -170 29 -207 12z"/>
<path d="M6793 8600 c-109 -66 -65 -232 62 -232 46 0 85 21 112 61 27 40 29
71 7 117 -32 68 -117 93 -181 54z"/>
<path d="M7642 8600 c-34 -21 -62 -71 -62 -111 0 -11 7 -36 16 -55 39 -81 167
-88 214 -12 38 62 22 134 -39 175 -42 28 -86 29 -129 3z"/>
<path d="M2796 8573 c-54 -11 -80 -12 -112 -4 -54 14 -165 14 -223 0 -114 -26
-242 -123 -291 -219 -12 -25 -30 -49 -38 -54 -9 -5 -35 -26 -58 -48 -33 -30
-49 -38 -80 -38 -22 0 -60 -7 -85 -16 -44 -16 -48 -16 -105 6 -81 31 -208 38
-294 16 -101 -26 -168 -63 -236 -132 -57 -59 -124 -167 -124 -202 0 -7 -22
-36 -49 -64 -175 -179 -172 -438 8 -631 69 -74 147 -118 237 -137 40 -8 239
-11 697 -8 571 3 645 5 672 20 47 25 67 53 72 101 5 39 1 48 -25 78 l-29 33
-419 -5 c-231 -2 -531 -4 -669 -4 -242 0 -252 1 -297 23 -84 41 -148 141 -148
228 0 54 48 130 110 173 53 36 55 39 60 92 10 106 91 194 203 219 64 14 117 4
183 -36 62 -38 126 -45 160 -19 34 26 41 18 46 -55 11 -143 125 -303 268 -373
l65 -32 436 -3 c418 -3 438 -2 490 18 114 42 208 144 250 269 32 95 25 222
-18 313 -17 37 -49 86 -71 110 -22 24 -44 57 -48 73 -13 57 -67 145 -118 193
-70 66 -131 100 -212 117 -84 18 -119 18 -208 -2z m-144 -249 c49 -32 83 -30
149 6 85 47 171 38 237 -24 50 -46 63 -78 60 -146 -3 -68 6 -82 74 -115 104
-49 125 -180 45 -272 -55 -63 -57 -63 -469 -63 -370 0 -373 0 -423 24 -87 40
-135 115 -135 209 0 78 30 127 109 180 53 35 67 49 76 82 17 58 31 81 69 110
36 28 105 45 146 38 14 -3 42 -16 62 -29z"/>
<path d="M7223 8370 c-41 -24 -63 -67 -63 -121 0 -35 6 -48 39 -80 31 -31 46
-39 75 -39 79 0 136 54 136 130 0 101 -103 162 -187 110z"/>
<path d="M3194 6366 c-63 -28 -64 -33 -64 -328 l0 -268 28 -31 c21 -24 38 -32
75 -36 43 -5 49 -3 82 30 l35 35 0 271 0 271 -27 30 c-33 36 -84 47 -129 26z"/>
<path d="M6965 6361 c-23 -10 -46 -29 -53 -45 -8 -19 -12 -102 -12 -284 0
-282 1 -286 60 -317 48 -25 86 -19 128 19 l37 34 3 264 c3 260 3 265 -19 292
-20 25 -74 56 -96 56 -4 0 -26 -9 -48 -19z"/>
<path d="M1904 4849 c-67 -19 -69 -27 -72 -278 -3 -198 -1 -230 14 -258 16
-31 66 -63 99 -63 26 0 71 27 94 56 20 25 21 39 21 246 0 240 -5 266 -57 286
-47 18 -67 20 -99 11z"/>
<path d="M8264 4850 c-16 -5 -40 -20 -51 -32 -20 -22 -22 -35 -24 -253 -4
-252 -2 -261 54 -295 40 -25 63 -25 106 -2 64 35 71 62 71 285 0 148 -4 206
-14 232 -23 55 -82 82 -142 65z"/>
<path d="M5074 4460 c-12 -4 -31 -21 -43 -36 -20 -26 -21 -35 -21 -350 0 -178
-2 -324 -3 -324 -2 0 -18 7 -36 16 -90 45 -192 -63 -136 -142 17 -25 197 -183
237 -209 42 -27 88 -13 159 48 34 29 84 71 112 94 88 73 101 131 43 189 -38
38 -85 45 -124 18 l-22 -15 0 315 c0 180 -4 326 -10 340 -19 51 -99 79 -156
56z"/>
<path d="M1899 4011 c-29 -29 -29 -31 -29 -145 0 -64 -3 -116 -7 -116 -5 1
-19 7 -33 15 -44 25 -88 19 -126 -19 -46 -46 -47 -93 -1 -141 61 -65 232 -195
263 -201 40 -7 65 6 162 86 142 119 152 131 152 185 0 40 -5 51 -31 76 -35 33
-92 39 -125 14 -10 -8 -22 -15 -26 -15 -4 0 -5 40 -2 88 11 145 -23 202 -121
202 -38 0 -52 -5 -76 -29z"/>
<path d="M8199 4025 c-15 -8 -30 -22 -34 -32 -6 -14 -14 -143 -15 -246 0 -5
-12 1 -26 12 -56 44 -133 15 -155 -59 -17 -55 5 -86 137 -197 122 -104 152
-116 208 -87 54 29 236 192 247 222 15 40 2 87 -32 116 -35 29 -71 33 -113 11
-15 -8 -30 -15 -32 -15 -2 0 -4 51 -4 114 0 112 -1 114 -29 145 -25 27 -36 31
-78 31 -26 -1 -60 -7 -74 -15z"/>
<path d="M1880 3193 c-171 -47 -305 -189 -341 -362 -6 -30 -9 -98 -7 -151 3
-88 7 -104 41 -173 120 -243 403 -336 645 -213 183 94 283 313 238 525 -19 92
-43 141 -103 215 -57 70 -136 127 -208 150 -82 25 -189 29 -265 9z"/>
<path d="M5015 3196 c-80 -19 -142 -54 -210 -117 -201 -189 -209 -507 -16
-700 230 -230 620 -167 756 123 93 197 55 416 -97 569 -116 115 -279 162 -433
125z"/>
<path d="M8161 3199 c-129 -25 -266 -133 -323 -254 -76 -164 -74 -332 6 -470
64 -108 141 -170 262 -211 68 -23 91 -26 164 -21 107 6 172 26 250 79 72 48
138 131 171 216 27 70 36 213 19 295 -52 250 -299 415 -549 366z"/>
<path d="M1660 2103 c-57 -9 -158 -46 -201 -74 -111 -71 -222 -222 -281 -382
-23 -63 -68 -273 -68 -317 0 -5 -28 -17 -62 -26 -80 -23 -150 -87 -168 -154
-19 -71 -9 -246 17 -295 27 -51 68 -90 115 -109 34 -14 449 -16 4095 -16 3932
0 4059 1 4098 19 97 45 137 116 143 254 7 168 -24 237 -132 288 -33 16 -67 29
-73 29 -7 0 -15 10 -17 23 -2 12 -12 67 -22 122 -29 167 -73 279 -160 401 -86
121 -188 195 -320 229 -81 21 -637 21 -736 1 -214 -46 -380 -225 -461 -496
-23 -77 -34 -127 -52 -242 l-6 -38 -673 0 -674 0 -17 98 c-24 134 -59 241
-113 347 -58 112 -184 245 -274 288 -113 54 -160 59 -528 54 -353 -4 -370 -6
-466 -55 -134 -68 -261 -233 -326 -421 -21 -64 -58 -240 -58 -282 l0 -29 -680
0 -680 0 -4 23 c-2 12 -10 56 -16 97 -42 276 -193 525 -374 613 -107 52 -148
57 -487 56 -173 -1 -325 -4 -339 -6z m7449 -1029 c26 -32 27 -71 3 -102 l-18
-23 -3984 0 -3985 1 -22 25 c-31 35 -29 61 6 96 l29 29 3976 0 3975 0 20 -26z"/>
</g>
</svg>
