<?xml version="1.0" standalone="no"?>
<!DOCTYPE svg PUBLIC "-//W3C//DTD SVG 20010904//EN"
 "http://www.w3.org/TR/2001/REC-SVG-20010904/DTD/svg10.dtd">
<svg version="1.0" xmlns="http://www.w3.org/2000/svg"
 width="1024.000000pt" height="1024.000000pt" viewBox="0 0 1024.000000 1024.000000"
 preserveAspectRatio="xMidYMid meet">
<metadata>
Created by potrace 1.16, written by Peter Selinger 2001-2019
</metadata>
<g transform="translate(0.000000,1024.000000) scale(0.100000,-0.100000)"
fill="#000000" stroke="none">
<path d="M4630 8979 c-633 -65 -1220 -247 -1723 -536 -614 -352 -1130 -838
-1464 -1378 -192 -310 -315 -566 -416 -865 -221 -654 -277 -1287 -176 -1985
72 -503 252 -1022 489 -1415 258 -428 633 -841 1036 -1140 582 -432 1234 -718
1894 -829 263 -44 404 -55 720 -55 412 -1 642 27 1032 125 471 118 960 340
1388 630 358 242 744 609 992 943 418 561 637 1134 733 1911 22 178 31 603 16
791 -49 615 -234 1213 -538 1739 -194 336 -365 558 -632 825 -275 275 -481
438 -761 606 -604 362 -1211 569 -1839 628 -179 17 -603 20 -751 5z m656 -510
c490 -48 976 -203 1431 -454 179 -100 451 -281 578 -386 149 -123 448 -427
554 -564 381 -492 612 -977 721 -1513 18 -92 25 -109 63 -155 56 -69 84 -136
112 -271 35 -165 45 -275 52 -541 10 -421 -37 -753 -150 -1065 l-35 -95 -171
-3 c-158 -2 -171 -1 -171 15 0 10 -14 47 -30 81 -17 35 -30 69 -30 75 0 7 44
56 98 110 l97 98 -130 124 -130 124 -107 -106 -106 -106 -39 18 c-21 10 -54
21 -73 25 l-35 5 -2 585 -2 585 50 24 c146 68 259 249 259 416 0 260 -202 465
-458 465 -91 0 -176 -20 -245 -57 -62 -34 -151 -130 -185 -199 l-26 -53 -465
-3 c-444 -3 -468 -4 -499 -23 -38 -23 -72 -87 -72 -136 0 -46 29 -99 70 -126
l33 -23 467 0 468 0 13 -32 c7 -17 37 -64 66 -105 29 -41 53 -76 53 -79 0 -2
-326 -4 -723 -4 l-724 0 -6 173 c-8 205 -21 244 -96 284 -43 23 -50 23 -338
23 l-293 0 0 608 0 607 65 34 c110 56 206 181 234 302 24 102 3 254 -45 337
-43 73 -129 151 -212 190 -126 60 -283 57 -412 -8 -184 -93 -285 -317 -236
-524 30 -128 131 -253 251 -311 l55 -27 0 -582 c0 -319 -3 -591 -6 -603 -6
-22 -6 -22 -303 -25 -277 -3 -299 -4 -336 -24 -25 -13 -47 -36 -62 -64 -21
-40 -23 -55 -23 -210 l0 -167 -37 -7 c-50 -8 -1361 -8 -1402 0 l-31 6 48 53
c26 29 59 75 72 104 l25 51 463 0 c513 0 509 0 555 64 16 23 22 45 22 88 0 61
-17 94 -69 132 -27 20 -41 21 -496 24 l-468 3 -13 31 c-17 43 -101 146 -149
184 -93 74 -238 113 -356 94 -198 -32 -330 -149 -383 -340 -34 -122 -25 -217
34 -337 41 -82 138 -180 209 -209 l43 -18 7 -340 c5 -262 3 -768 -3 -828 -1
-5 -10 -8 -21 -8 -10 0 -44 -9 -74 -21 l-55 -20 -108 105 -108 105 -125 -124
-125 -125 97 -97 97 -98 -24 -51 c-12 -27 -29 -69 -36 -92 l-12 -42 -163 0
-163 0 -14 28 c-47 93 -114 354 -148 577 -26 172 -36 524 -20 750 27 384 76
570 171 646 22 18 40 41 40 52 0 68 94 432 153 592 53 144 165 372 257 526
243 403 508 724 831 1005 l96 84 5 72 c9 137 71 234 182 283 28 13 65 37 81
55 48 52 79 60 226 60 73 0 146 -5 163 -11 28 -10 48 -4 198 55 367 145 747
239 1128 279 83 9 486 6 586 -4z m-241 -1084 c161 -94 41 -332 -129 -256 -110
48 -116 198 -10 258 51 29 87 29 139 -2z m-2656 -1750 c40 -20 79 -70 87 -110
9 -51 -4 -92 -42 -130 -45 -45 -104 -55 -167 -27 -54 24 -78 57 -84 116 -13
114 107 203 206 151z m5302 -8 c120 -81 98 -243 -38 -272 -106 -22 -207 87
-174 188 11 33 62 90 91 100 36 13 89 6 121 -16z m-2861 -671 l0 -354 -32 -7
c-160 -33 -168 -36 -163 -58 13 -59 55 -289 55 -300 0 -8 -19 -19 -42 -26 -49
-14 -195 -86 -219 -107 -8 -8 -20 -14 -25 -14 -8 0 -146 142 -225 233 l-36 41
-67 -59 c-94 -82 -236 -260 -314 -392 l-31 -52 27 -19 c15 -11 87 -56 160
-102 104 -64 132 -86 127 -98 -13 -33 -35 -126 -41 -174 l-7 -48 -522 0 -523
0 -7 28 c-3 15 -18 56 -32 91 l-25 63 98 99 99 99 -120 120 c-66 66 -124 120
-130 120 -5 0 -55 -45 -110 -100 l-100 -100 -53 20 c-29 11 -61 20 -72 20 -20
0 -20 8 -20 470 l0 470 890 0 c968 0 927 -2 982 56 43 46 48 74 48 260 l0 174
215 0 215 0 0 -354z m740 169 c0 -208 4 -224 67 -272 l36 -28 904 -3 904 -2
-2 -466 c-1 -334 -5 -466 -13 -468 -6 -2 -40 -12 -76 -24 l-65 -21 -100 99
c-55 55 -106 100 -114 100 -13 0 -241 -226 -241 -238 0 -4 43 -52 96 -106 52
-55 93 -102 92 -105 -2 -3 -17 -43 -33 -88 l-30 -83 -515 0 -516 0 -2 28 c-1
15 -14 67 -28 116 -14 49 -22 92 -17 96 4 4 74 50 156 103 81 53 147 101 147
106 0 15 -125 197 -179 261 -75 89 -213 230 -225 230 -6 0 -67 -60 -135 -134
l-124 -134 -49 30 c-54 34 -202 98 -224 98 -20 0 -18 41 10 200 13 74 23 136
21 138 -2 2 -43 11 -91 21 l-89 18 -3 357 -2 356 220 0 220 0 0 -185z m-467
-1350 c85 -22 154 -61 220 -124 66 -63 98 -112 126 -192 75 -219 -8 -456 -205
-588 -97 -65 -174 -85 -298 -79 -82 4 -105 10 -170 41 -134 63 -227 171 -272
312 -67 210 13 441 192 561 116 76 275 103 407 69z m-2670 -253 c92 -41 174
-155 184 -257 18 -168 -125 -325 -297 -325 -36 0 -87 7 -113 16 -63 21 -130
83 -164 152 -36 73 -38 181 -5 254 69 155 245 226 395 160z m5332 -6 c139 -69
209 -237 155 -378 -27 -72 -92 -141 -166 -175 -49 -22 -66 -25 -133 -21 -92 6
-140 28 -200 93 -109 119 -118 271 -22 393 93 117 236 151 366 88z m-6083
-409 c4 -6 8 -24 8 -39 0 -24 10 -32 90 -74 123 -63 164 -114 205 -249 l20
-70 82 -40 82 -40 1 -100 c0 -55 2 -144 3 -198 1 -60 -2 -97 -8 -96 -13 0
-171 184 -307 357 -59 75 -137 169 -172 207 -45 50 -83 109 -135 207 -39 75
-71 138 -71 140 0 2 44 4 97 5 69 2 99 -1 105 -10z m2337 -87 c13 -52 20 -96
15 -97 -5 -2 -67 -42 -139 -89 -71 -47 -136 -89 -144 -93 -11 -7 -7 -20 20
-67 48 -84 194 -275 286 -373 l78 -84 129 141 c71 78 130 142 131 142 1 0 42
-22 90 -50 49 -27 114 -59 144 -71 31 -12 57 -23 58 -24 1 0 -6 -50 -16 -111
-11 -60 -22 -134 -26 -165 l-7 -56 84 -14 c123 -21 412 -19 512 4 44 9 81 19
83 21 2 1 -10 74 -26 162 -16 87 -26 162 -23 165 4 3 41 18 82 34 41 15 101
43 134 62 32 19 62 35 66 36 5 1 65 -60 135 -136 148 -161 116 -160 256 -3 72
81 269 351 269 369 0 3 -68 49 -151 103 -107 70 -149 103 -145 114 3 8 16 51
28 95 l24 80 513 0 514 0 17 -61 c10 -33 27 -82 39 -109 l22 -49 -96 -96 c-52
-52 -95 -100 -95 -105 0 -6 55 -66 121 -134 l120 -125 104 104 104 103 58 -17
c93 -27 88 -19 91 -146 l3 -114 -43 -44 c-24 -24 -92 -85 -153 -136 -354 -299
-723 -518 -1105 -656 -80 -29 -160 -58 -179 -65 -32 -11 -36 -17 -51 -82 -9
-39 -29 -91 -44 -117 -49 -84 -106 -107 -356 -145 -226 -34 -279 -40 -440 -47
-310 -13 -841 46 -960 106 -73 38 -131 124 -146 219 -8 51 -22 61 -135 100
-216 73 -458 187 -682 321 -245 145 -419 277 -614 463 l-94 90 3 116 3 115 38
8 c21 4 50 14 66 22 28 15 28 15 127 -85 54 -54 103 -99 109 -99 5 0 65 55
132 122 l123 123 -101 101 -102 102 31 74 c16 40 33 87 37 105 6 31 8 32 68
36 34 2 269 3 522 3 l460 -1 24 -95z m4471 95 c0 -2 -29 -65 -64 -139 -57
-120 -69 -139 -111 -168 -27 -19 -81 -79 -132 -148 -133 -177 -369 -458 -395
-468 -4 -2 -8 89 -8 202 0 188 2 207 18 212 9 3 42 16 72 28 58 23 57 23 108
136 37 83 114 162 213 216 72 40 74 43 83 88 l8 46 104 0 c57 0 104 -2 104 -5z"/>
<path d="M3010 7801 c-48 -25 -74 -73 -75 -137 0 -59 20 -94 75 -131 33 -23
37 -23 359 -23 319 0 328 1 371 23 50 25 90 83 90 132 0 47 -40 116 -80 137
-32 16 -65 18 -370 18 -308 0 -338 -2 -370 -19z"/>
<path d="M4118 7677 c-24 -50 -111 -151 -162 -188 l-45 -32 70 -65 c38 -36 91
-94 116 -130 41 -57 48 -63 57 -47 32 54 121 156 171 194 l56 45 -33 25 c-51
38 -127 120 -166 179 -19 28 -38 52 -42 52 -3 0 -13 -15 -22 -33z"/>
<path d="M5859 7631 c-94 -4 -132 -10 -151 -23 -113 -75 -116 -238 -6 -314
l41 -29 586 0 586 0 38 23 c71 45 107 148 78 225 -14 36 -71 97 -100 109 -30
11 -878 19 -1072 9z"/>
<path d="M2993 7300 c-54 -33 -61 -58 -65 -240 -3 -156 -2 -167 19 -201 44
-70 45 -71 445 -67 l356 3 27 25 c50 47 55 67 55 235 0 177 -9 210 -65 245
-31 19 -49 20 -386 20 -333 0 -356 -1 -386 -20z"/>
<path d="M6233 7043 c-50 -7 -93 -62 -93 -119 0 -38 6 -51 39 -87 l40 -42 366
-3 c327 -2 369 -1 401 14 87 41 101 170 25 221 -24 16 -60 18 -386 19 -198 1
-374 -1 -392 -3z"/>
<path d="M2459 6767 c-59 -39 -69 -73 -69 -232 0 -155 14 -208 64 -240 64 -42
175 -18 213 46 l17 29 509 0 c563 0 559 0 598 64 38 63 12 164 -49 187 -18 7
-204 11 -539 12 l-512 2 -10 40 c-14 49 -27 66 -71 94 -47 28 -107 28 -151 -2z"/>
<path d="M4151 6772 c-19 -9 -44 -30 -55 -45 -20 -27 -21 -44 -24 -293 l-3
-264 -497 0 c-330 0 -510 -4 -537 -11 -52 -15 -102 -65 -111 -113 -9 -53 21
-123 65 -153 l34 -23 699 0 c774 0 747 -2 787 64 29 48 33 71 21 118 -15 52
-66 103 -117 115 l-38 9 -5 261 c-5 245 -6 263 -26 290 -26 36 -79 63 -124 63
-19 0 -50 -8 -69 -18z"/>
<path d="M5662 6771 c-32 -15 -47 -31 -62 -63 -18 -39 -20 -67 -20 -288 l0
-246 -46 -12 c-106 -29 -149 -152 -82 -237 44 -56 28 -55 790 -55 672 0 704 1
732 19 66 44 86 128 45 201 -44 78 -19 75 -610 78 l-526 3 -2 256 c-3 281 -5
293 -62 334 -43 30 -104 34 -157 10z"/>
<path d="M7365 6778 c-43 -23 -76 -63 -81 -99 l-6 -36 -247 -6 c-135 -4 -370
-7 -522 -7 -271 0 -277 0 -310 -23 -18 -12 -39 -34 -46 -47 -30 -58 -2 -140
58 -172 31 -17 69 -18 549 -18 l515 0 22 -34 c59 -92 199 -85 257 14 17 28 19
51 17 187 -2 173 -10 200 -64 233 -36 22 -110 26 -142 8z"/>
</g>
</svg>
