<?xml version="1.0" standalone="no"?>
<!DOCTYPE svg PUBLIC "-//W3C//DTD SVG 20010904//EN"
 "http://www.w3.org/TR/2001/REC-SVG-20010904/DTD/svg10.dtd">
<svg version="1.0" xmlns="http://www.w3.org/2000/svg"
 width="1024.000000pt" height="1024.000000pt" viewBox="0 0 1024.000000 1024.000000"
 preserveAspectRatio="xMidYMid meet">
<metadata>
Created by potrace 1.16, written by Peter Selinger 2001-2019
</metadata>
<g transform="translate(0.000000,1024.000000) scale(0.100000,-0.100000)"
fill="#000000" stroke="none">
<path d="M1940 9209 c-317 -11 -499 -88 -661 -282 -154 -183 -209 -405 -194
-782 9 -241 34 -343 113 -473 59 -98 118 -166 198 -229 l75 -58 -3 -114 -3
-114 -50 -17 c-157 -53 -259 -154 -307 -303 -17 -51 -22 -97 -25 -252 -7 -277
20 -381 128 -499 60 -66 123 -109 200 -137 l57 -21 7 -171 c9 -208 -1 -1038
-12 -1047 -4 -3 -39 -19 -77 -35 -102 -42 -195 -133 -246 -239 -21 -45 -43
-108 -49 -140 -17 -94 -14 -844 3 -927 37 -171 165 -320 323 -375 l53 -19 0
-87 0 -86 -80 -56 c-123 -87 -221 -230 -271 -398 -20 -66 -23 -100 -27 -364
-3 -269 -2 -297 18 -380 36 -154 116 -290 238 -405 93 -88 163 -132 274 -170
124 -42 230 -52 483 -46 267 6 340 19 483 88 87 42 115 62 182 129 l80 80
2271 0 2271 0 90 -85 c71 -67 108 -94 181 -130 155 -75 190 -80 517 -79 272 1
289 2 381 26 241 65 412 204 519 423 78 159 90 225 90 510 0 316 -14 397 -98
559 -41 79 -155 205 -237 261 l-55 38 0 82 c0 81 9 105 38 105 29 0 140 61
187 102 64 56 120 145 148 233 21 68 22 84 22 510 0 399 -2 446 -18 500 -46
150 -140 264 -268 327 -41 20 -82 39 -91 42 -17 5 -18 43 -18 615 l0 609 38
12 c159 51 273 161 329 314 39 109 35 496 -7 608 -47 127 -160 233 -295 278
l-65 22 0 113 0 114 63 45 c166 119 268 281 312 495 14 70 16 126 13 340 -4
243 -6 260 -32 346 -73 240 -219 414 -435 517 -136 65 -222 78 -512 78 -274 0
-359 -11 -489 -61 -91 -35 -139 -66 -219 -142 l-61 -57 -2293 0 -2292 0 -75
65 c-85 74 -215 145 -310 170 -82 22 -294 32 -510 24z m265 -483 c263 -70 428
-338 371 -604 -42 -201 -214 -367 -417 -403 -245 -44 -492 111 -575 361 -26
80 -24 235 5 314 29 81 70 143 139 208 98 94 205 137 342 137 47 1 108 -5 135
-13z m6108 -1 c118 -31 216 -100 286 -204 58 -86 83 -161 88 -272 9 -159 -33
-266 -151 -384 -144 -144 -336 -189 -528 -124 -217 73 -373 327 -341 556 28
198 185 376 376 428 69 18 199 19 270 0z m-1069 -242 c-3 -16 -11 -46 -16 -68
-6 -22 -10 -93 -10 -157 l0 -118 -236 -2 -237 -3 -5 -1215 c-5 -1127 -6 -1217
-22 -1247 -64 -116 -237 -122 -315 -11 l-28 41 -3 849 -2 848 -1240 0 -1240 0
-2 -853 -3 -854 -28 -36 c-92 -120 -286 -84 -326 60 -8 26 -11 425 -11 1228
l0 1190 -240 3 -240 2 0 108 c0 59 -7 138 -15 177 -8 38 -15 73 -15 77 0 5
954 8 2120 8 l2120 0 -6 -27z m-4154 -1053 l0 -270 -147 -1 c-82 -1 -159 -2
-173 -2 l-25 -1 -3 117 -3 117 89 88 c48 48 108 117 132 154 44 65 46 67 88
68 l42 0 0 -270z m4191 222 c36 -65 117 -159 178 -207 l51 -40 0 -127 0 -128
-170 0 -170 0 0 275 0 275 43 0 c40 0 43 -3 68 -48z m-4981 -657 l0 -275 395
0 395 0 0 -180 0 -180 -377 -2 c-208 0 -385 -1 -393 -2 -13 -1 -15 -141 -18
-1187 l-2 -1186 -138 -6 c-75 -3 -231 -4 -346 -1 -240 5 -256 9 -294 84 -43
86 -20 193 51 236 27 16 58 20 192 24 l160 5 3 1012 2 1012 -36 7 c-20 4 -86
4 -147 0 -104 -6 -115 -5 -157 16 -60 31 -90 83 -90 161 0 74 18 117 66 153
37 29 38 29 201 32 l163 4 0 264 0 264 123 1 c67 0 142 4 167 8 89 16 80 45
80 -264z m6025 237 c1 -9 2 -128 3 -264 l2 -248 150 0 c161 0 197 -8 237 -51
72 -79 55 -235 -32 -289 -27 -17 -52 -19 -192 -20 -133 -2 -163 -4 -167 -17
-8 -20 -7 -1905 0 -1970 l7 -52 168 -3 168 -3 32 -30 c41 -39 59 -83 59 -142
0 -59 -32 -119 -77 -146 -32 -18 -76 -19 -1105 -24 -1195 -5 -1141 -2 -1282
-76 -148 -77 -266 -213 -319 -367 -21 -62 -22 -85 -27 -525 l-5 -460 -120 -3
-120 -3 -61 49 c-34 27 -346 263 -695 524 l-634 475 0 234 c-1 263 -8 309 -71
438 -45 91 -154 203 -303 311 -56 41 -209 155 -340 252 -130 98 -377 282 -549
409 l-312 232 2 226 3 226 171 3 172 2 4 -142 c4 -123 8 -154 31 -218 51 -143
148 -256 277 -324 103 -54 170 -70 295 -69 94 0 123 4 195 29 189 63 327 201
392 393 18 53 23 97 28 226 l5 160 317 225 c174 124 359 255 412 293 l96 67
133 -98 c332 -247 580 -428 661 -484 6 -4 13 -76 17 -170 7 -188 27 -262 99
-374 212 -324 683 -368 951 -89 113 118 158 237 166 437 l6 137 168 3 169 3 0
-222 0 -221 -97 -69 c-54 -38 -163 -114 -243 -168 -80 -54 -251 -174 -380
-265 -398 -282 -1383 -974 -1595 -1120 -175 -121 -221 -160 -246 -215 -20 -44
-25 -137 -9 -179 31 -81 134 -143 221 -133 62 8 112 35 264 144 66 47 255 180
420 296 165 115 329 231 365 257 36 25 126 88 200 140 142 98 275 191 660 462
129 91 280 195 335 232 l100 67 5 -263 c7 -358 -1 -348 274 -348 l166 0 2
1008 c2 605 -1 1012 -6 1020 -8 11 -85 13 -391 10 l-382 -3 -6 135 c-3 74 -3
156 0 183 l6 47 388 0 389 0 0 239 c0 131 3 252 6 268 l6 29 181 -3 c163 -3
182 -6 182 -21z m-3397 -261 c-4 -12 -69 -61 -245 -184 -81 -57 -195 -138
-253 -181 l-105 -77 -8 128 c-5 70 -5 170 -2 220 l7 93 291 3 c161 1 298 3
305 5 8 1 12 -2 10 -7z m1015 -113 c9 -145 9 -318 1 -318 -4 0 -55 35 -113 78
-58 43 -154 114 -213 157 -60 44 -108 83 -108 87 0 5 35 31 78 58 l77 50 136
0 136 0 6 -112z m-2971 -2121 c123 -89 263 -191 312 -227 49 -36 184 -134 300
-219 214 -156 268 -200 289 -236 9 -15 13 -274 17 -980 l5 -960 1660 -5 c913
-3 1661 -6 1662 -8 1 -1 2 -57 2 -124 -1 -68 4 -143 10 -168 6 -25 11 -53 11
-62 0 -17 -107 -18 -2116 -18 -2010 0 -2115 1 -2110 18 18 59 28 169 24 258
l-5 104 243 0 244 0 2 566 c2 311 1 568 -1 570 -2 2 -278 4 -613 4 l-608 0 0
-170 0 -170 -185 0 -185 0 0 170 0 170 -147 0 c-168 0 -195 8 -247 73 -25 31
-31 49 -34 100 -3 52 0 67 20 96 13 19 39 44 58 55 35 21 47 21 987 24 l951 2
6 38 c8 58 5 262 -4 288 -18 46 -34 48 -378 46 -358 -2 -370 -1 -391 59 -10
30 -17 869 -7 869 2 0 105 -73 228 -163z m5708 -1160 c54 -28 80 -75 80 -142
0 -62 -23 -109 -73 -149 l-39 -31 -159 -3 -159 -3 0 -117 c0 -64 -3 -141 -6
-169 l-7 -53 -178 0 -179 0 -2 168 -3 167 -609 0 -608 0 1 -352 c1 -193 -2
-353 -6 -356 -5 -3 -88 -3 -186 0 l-177 6 0 434 c0 478 0 475 63 541 39 41 75
61 130 72 23 4 499 8 1058 9 l1016 1 43 -23z m-4193 -693 c350 -259 409 -302
436 -319 15 -9 27 -20 27 -24 0 -4 -48 -6 -107 -6 -60 1 -201 3 -314 4 l-206
1 -5 218 c-5 197 -3 242 8 242 2 0 75 -52 161 -116z m-1524 -74 l127 0 0 -135
0 -135 -52 0 c-53 0 -53 1 -102 60 -26 33 -79 83 -117 111 -49 37 -69 58 -69
74 0 31 10 38 50 31 19 -3 92 -6 163 -6z m4540 -11 c8 -30 1 -42 -39 -64 -35
-19 -184 -170 -184 -187 0 -4 -25 -8 -55 -8 l-55 0 0 135 0 134 108 4 c59 1
132 4 163 5 50 2 57 0 62 -19z m-5297 -339 c99 -26 171 -68 241 -145 194 -208
185 -506 -21 -710 -106 -105 -199 -144 -346 -145 -147 0 -258 46 -360 149 -81
82 -123 161 -146 271 -14 72 -15 97 -5 160 37 245 255 435 502 439 31 1 91 -8
135 -19z m6087 5 c295 -62 472 -390 365 -673 -49 -129 -171 -255 -296 -303
-69 -27 -213 -36 -294 -20 -261 55 -448 332 -394 588 60 291 330 469 619 408z"/>
<path d="M3894 8126 c-8 -20 -1 -338 8 -351 4 -7 421 -8 1235 -5 l1228 5 0
180 0 180 -1233 3 c-1070 2 -1233 0 -1238 -12z"/>
</g>
</svg>
