<?xml version="1.0" standalone="no"?>
<!DOCTYPE svg PUBLIC "-//W3C//DTD SVG 20010904//EN"
 "http://www.w3.org/TR/2001/REC-SVG-20010904/DTD/svg10.dtd">
<svg version="1.0" xmlns="http://www.w3.org/2000/svg"
 width="1024.000000pt" height="1024.000000pt" viewBox="0 0 1024.000000 1024.000000"
 preserveAspectRatio="xMidYMid meet">
<metadata>
Created by potrace 1.16, written by Peter Selinger 2001-2019
</metadata>
<g transform="translate(0.000000,1024.000000) scale(0.100000,-0.100000)"
fill="#000000" stroke="none">
<path d="M7190 8919 c-93 -10 -230 -49 -326 -93 -215 -100 -390 -268 -502
-483 -42 -81 -44 -83 -80 -83 -58 0 -180 -38 -252 -78 -36 -19 -90 -61 -120
-91 l-55 -55 -95 -7 c-153 -10 -243 -66 -302 -187 -32 -65 -33 -70 -37 -219
l-3 -153 -90 0 -90 0 4 198 c3 182 5 201 26 244 34 67 97 126 177 163 39 18
78 41 87 51 44 50 26 118 -38 149 -60 28 -200 17 -286 -23 -76 -35 -167 -114
-205 -180 -56 -94 -66 -150 -71 -384 l-4 -218 -444 0 -443 0 -5 38 c-35 243
-99 386 -231 518 -84 84 -197 153 -310 191 -72 24 -95 27 -230 27 -139 1 -156
-1 -238 -28 -48 -16 -115 -46 -147 -67 l-59 -38 -88 45 c-123 62 -221 86 -363
87 -265 2 -513 -106 -693 -304 -144 -157 -220 -337 -242 -571 l-6 -67 -57 -11
c-247 -48 -452 -202 -565 -427 -157 -310 -42 -721 241 -861 l76 -37 830 -3
c581 -2 846 0 882 8 51 11 89 40 113 87 8 15 11 179 11 551 0 429 3 532 13
541 10 8 460 11 1595 13 1057 2 1578 0 1569 -7 -8 -5 -90 -38 -183 -72 -553
-204 -699 -259 -885 -331 -241 -93 -239 -92 -273 -132 -53 -63 -58 -135 -16
-215 l30 -57 0 -248 0 -247 -37 -7 c-21 -3 -71 -6 -110 -6 l-73 0 0 253 c0
233 2 256 20 292 28 54 33 95 21 143 -22 79 -101 141 -182 142 -50 0 -129 -43
-158 -85 -35 -51 -40 -128 -12 -190 20 -44 21 -65 21 -310 l0 -263 -72 -6
c-40 -3 -253 -13 -473 -21 -220 -9 -479 -20 -575 -25 -96 -5 -236 -12 -310
-15 -182 -8 -271 -22 -356 -54 -212 -82 -408 -296 -471 -514 -58 -199 -43
-456 37 -633 41 -91 119 -201 194 -272 36 -35 66 -65 66 -66 0 -2 -118 -7
-262 -12 -251 -9 -396 -9 -635 -4 -88 2 -121 -2 -178 -20 -128 -40 -202 -86
-300 -184 -75 -76 -99 -107 -138 -186 -69 -139 -82 -198 -82 -370 0 -109 5
-162 18 -215 26 -96 85 -216 147 -298 29 -38 50 -69 48 -71 -65 -40 -91 -65
-113 -109 l-25 -51 0 -398 0 -398 281 0 c248 0 280 -2 275 -15 -3 -9 -11 -45
-18 -80 l-11 -65 -221 0 c-122 0 -239 -5 -261 -10 -58 -13 -95 -58 -95 -116 0
-54 19 -94 57 -120 25 -17 52 -19 298 -22 l271 -3 29 -47 c43 -67 132 -153
196 -190 71 -40 192 -72 274 -72 34 0 97 9 141 20 408 105 548 617 252 919
-65 67 -159 134 -202 145 -14 3 -47 28 -73 54 -27 26 -80 73 -119 105 l-72 57
-282 -2 -282 -3 1 -152 2 -153 -81 0 -80 0 0 253 c0 252 0 254 23 275 l23 22
2947 0 2947 0 0 1163 c0 639 3 1179 6 1200 l7 37 98 0 99 0 0 -315 0 -316 -33
-34 c-69 -71 -67 -42 -67 -994 l0 -857 -63 -62 -63 -62 -681 0 -681 0 -91 -96
c-50 -53 -91 -100 -91 -104 0 -5 -33 -24 -73 -44 -141 -68 -268 -241 -298
-409 l-12 -67 -737 0 -737 0 -12 57 c-6 32 -14 68 -17 81 l-6 22 634 0 634 0
26 28 c14 15 80 97 148 182 68 85 166 199 219 252 l96 98 -203 0 -202 0 -122
-147 c-67 -82 -127 -151 -133 -155 -5 -4 -236 -8 -512 -8 l-502 0 -161 155
-161 155 -584 0 c-322 0 -585 -3 -585 -6 0 -3 15 -17 32 -32 82 -67 160 -148
270 -280 l119 -143 -26 -53 c-15 -30 -34 -95 -43 -146 -13 -77 -14 -104 -4
-173 38 -264 271 -466 538 -467 76 0 200 31 267 67 70 38 160 124 202 192 l35
56 789 -5 790 -5 31 -45 c176 -248 466 -327 727 -198 78 38 178 128 218 197
28 48 32 51 71 51 23 0 54 2 70 5 26 5 33 0 69 -56 158 -241 455 -325 706
-199 69 35 159 97 159 109 0 5 -20 38 -44 75 -24 37 -57 106 -72 154 -26 77
-29 102 -29 212 0 103 4 138 23 200 51 163 153 312 297 432 l74 63 1 128 0
127 298 0 c164 0 482 -3 705 -7 l407 -6 0 -404 0 -403 143 0 142 0 -2 442 c-2
244 -6 457 -8 474 -3 17 -19 52 -36 77 -40 61 -94 87 -182 87 l-66 0 -3 658
-3 657 -25 50 c-33 68 -108 140 -178 173 l-57 27 -522 3 -523 3 0 313 c0 340
-3 364 -57 434 -14 19 -49 45 -77 58 -48 22 -62 24 -242 24 -188 0 -191 0
-245 -27 -40 -21 -61 -40 -84 -77 l-30 -49 -3 -1193 -2 -1193 -298 -3 c-163
-2 -299 -2 -302 0 -3 2 9 13 25 25 107 77 202 195 264 329 134 288 104 655
-73 902 -42 59 -139 159 -193 200 l-39 30 74 70 c235 223 331 536 262 851 -73
332 -349 599 -667 647 -74 11 -361 3 -666 -18 l-87 -7 2 274 3 274 465 186
c616 246 1276 507 1425 564 66 25 141 54 167 65 l46 20 52 -35 c91 -61 167
-68 269 -25 131 57 199 217 144 341 -58 130 -195 204 -318 170 -60 -16 -131
-65 -166 -115 -30 -41 -38 -46 -144 -80 l-113 -36 -604 0 -604 0 -1 93 c-2
102 9 152 37 167 10 6 73 10 139 10 65 0 126 3 135 6 9 3 36 35 61 69 37 53
57 69 112 97 63 31 75 33 163 32 73 0 108 -5 150 -22 65 -26 81 -27 120 -7 29
15 70 79 70 108 0 8 14 41 30 74 62 124 211 240 356 278 75 19 213 19 289 0
118 -31 229 -115 291 -220 l29 -50 5 -213 5 -214 33 -29 c43 -39 76 -37 118 5
l34 34 0 167 c0 121 3 164 11 159 21 -13 90 -174 106 -247 10 -51 13 -97 8
-157 -9 -115 -20 -160 -68 -260 -32 -69 -56 -101 -122 -168 -67 -67 -98 -89
-166 -121 -110 -51 -163 -61 -320 -61 -101 0 -139 -4 -166 -16 -69 -33 -67
-18 -65 -497 1 -476 -2 -451 66 -501 27 -21 35 -21 879 -21 l852 0 65 31 c166
79 276 219 331 424 7 25 12 90 12 145 -2 323 -242 616 -581 706 -59 16 -120
22 -264 26 l-187 6 21 51 c84 205 107 462 62 683 -55 263 -230 532 -450 689
-80 57 -249 137 -344 163 -71 20 -236 42 -290 39 -14 0 -59 -4 -100 -9z
m-3815 -1001 c100 -25 205 -104 266 -199 37 -58 69 -155 69 -210 l0 -38 -472
-3 c-455 -3 -474 -4 -508 -23 -74 -44 -71 -21 -73 -622 l-2 -538 -713 -3
c-685 -2 -714 -1 -750 17 -140 72 -180 268 -91 443 31 60 124 148 194 182 74
36 190 57 275 49 77 -6 129 11 157 53 15 24 19 57 24 224 5 184 7 199 34 265
38 96 84 163 161 235 134 125 324 187 495 161 111 -17 162 -37 245 -97 103
-74 110 -77 166 -72 43 5 55 12 113 67 120 115 251 150 410 109z m4820 -994
c48 -20 78 -18 170 12 109 36 241 38 336 5 176 -58 299 -213 299 -375 0 -121
-53 -222 -141 -266 -37 -19 -62 -20 -789 -20 l-750 0 0 210 0 210 69 0 c206 0
453 99 633 255 l83 71 28 -44 c16 -26 41 -49 62 -58z m-4845 -1272 c0 -5 -10
-13 -22 -19 -36 -16 -124 -100 -172 -162 -42 -55 -116 -188 -116 -209 0 -10
-79 -14 -489 -27 -212 -7 -201 -16 -121 100 l51 72 77 7 c42 3 147 8 232 12
l155 6 101 106 102 107 78 6 c44 3 89 6 102 7 12 1 22 -2 22 -6z m2472 -13
c97 -21 177 -67 264 -154 85 -84 122 -141 156 -240 30 -84 32 -304 4 -385 -47
-138 -139 -262 -244 -328 -106 -68 -279 -93 -407 -58 -120 32 -247 129 -328
253 l-42 64 -45 -5 c-25 -3 -182 -10 -350 -16 -168 -6 -413 -15 -545 -20 -132
-5 -311 -11 -399 -12 l-158 -3 -73 100 -72 100 -156 -3 -156 -4 -7 28 c-11 43
13 167 46 247 17 40 34 75 38 79 4 4 142 13 306 20 l298 12 54 72 55 71 182 7
c603 21 782 28 952 35 l190 8 35 32 c96 88 263 129 402 100z m-2829 -696 c3
-81 12 -163 22 -198 18 -64 79 -199 115 -252 l22 -33 -75 0 -75 0 -93 135 -94
135 -70 -5 c-38 -2 -149 -7 -247 -10 l-176 -6 -19 58 c-13 42 -18 88 -18 170
0 62 3 114 6 118 7 6 369 21 570 23 l126 2 6 -137z m5534 -697 l28 -24 3 -621
2 -621 -555 0 -555 0 0 622 0 622 22 23 21 23 503 0 503 0 28 -24z m-4426
-143 c-78 -80 -104 -114 -139 -183 -23 -47 -49 -116 -58 -155 -10 -38 -20 -73
-23 -76 -3 -4 -162 -9 -353 -12 -300 -6 -348 -4 -348 8 0 19 99 208 114 217 6
4 49 8 96 8 47 0 156 3 243 7 l159 6 77 96 c43 53 99 115 124 139 l47 42 79 0
79 0 -97 -97z m1790 67 c174 -54 314 -193 375 -370 31 -90 43 -263 25 -350
-32 -150 -105 -273 -216 -362 -190 -153 -478 -133 -659 46 -35 33 -78 87 -97
120 l-34 58 -140 -6 c-77 -3 -240 -6 -363 -7 l-223 -2 -57 84 -57 84 -145 0
-145 0 -3 97 -3 96 53 6 c29 3 278 8 553 11 l500 6 24 24 c34 33 33 91 -2 121
-24 21 -26 21 -537 16 l-513 -5 42 59 c24 33 48 67 55 76 12 16 57 19 467 33
250 8 485 15 522 15 66 0 69 1 114 44 118 114 304 156 464 106z m-2761 -66 c0
-3 -21 -32 -47 -64 -27 -31 -57 -69 -68 -83 l-20 -26 -507 -7 -507 -7 -73 77
-73 76 43 0 c23 0 233 7 465 15 711 25 787 27 787 19z m-1550 -209 c150 -76
254 -260 254 -450 0 -203 -101 -388 -252 -462 -51 -25 -67 -28 -157 -28 -85 1
-108 5 -150 25 -118 57 -219 204 -252 367 -30 142 4 289 96 414 85 116 196
171 331 166 58 -3 87 -10 130 -32z m1335 -152 c-4 -10 -12 -45 -18 -79 l-11
-61 -119 -7 c-66 -3 -243 -6 -392 -6 l-273 0 -15 68 c-9 37 -19 75 -22 85 -7
16 18 17 425 17 408 0 432 -1 425 -17z m959 -304 c10 -106 34 -191 81 -284
l43 -84 -80 -3 -79 -3 -62 89 c-34 48 -76 107 -93 130 l-31 41 -234 0 -234 0
-12 55 c-6 30 -12 72 -12 93 l-1 37 354 0 353 0 7 -71z m-984 -66 c21 -106 31
-137 71 -217 21 -43 39 -82 39 -86 0 -4 -44 -6 -97 -6 l-97 1 -84 117 -85 117
-268 -6 -269 -6 0 66 0 66 33 4 c17 2 193 5 389 5 l357 2 11 -57z m-887 -1465
c53 -29 104 -104 113 -166 27 -181 -156 -310 -324 -226 -132 66 -159 242 -53
351 71 74 175 90 264 41z m1129 20 c55 -16 123 -79 143 -133 25 -64 17 -157
-17 -211 -67 -104 -239 -126 -334 -42 -51 45 -74 96 -74 165 0 74 26 130 78
174 66 55 128 70 204 47z m2583 1 c53 -13 119 -67 145 -120 39 -75 20 -195
-40 -258 -57 -59 -176 -78 -255 -42 -46 20 -101 79 -121 127 -45 108 24 247
143 290 47 16 72 17 128 3z m1071 -51 c-4 -13 -10 -60 -13 -105 -6 -91 9 -159
53 -225 36 -56 33 -61 -35 -56 -106 8 -188 90 -199 199 l-5 49 -187 0 -187 0
-6 48 c-3 26 -9 62 -13 80 l-6 32 302 0 302 0 -6 -22z"/>
<path d="M5623 5466 c-53 -17 -100 -47 -138 -86 -29 -31 -29 -32 -11 -46 27
-19 50 -18 70 5 32 36 116 65 186 66 193 1 360 -214 320 -412 -55 -267 -323
-378 -506 -210 -38 34 -65 71 -89 122 -42 86 -58 103 -80 85 -24 -20 -18 -67
17 -132 45 -85 106 -149 180 -189 60 -32 68 -34 163 -34 88 0 107 3 157 27
207 97 297 371 192 587 -39 79 -136 173 -210 202 -72 27 -190 35 -251 15z"/>
<path d="M4612 5315 c-448 -14 -434 -11 -448 -82 -5 -27 -1 -37 24 -63 36 -36
-19 -35 585 -15 256 8 466 19 477 25 28 15 44 73 29 102 -29 55 1 53 -667 33z"/>
<path d="M5705 5170 c-27 -11 -61 -49 -74 -83 -15 -40 3 -102 39 -139 46 -46
122 -35 178 25 82 87 -32 244 -143 197z"/>
<path d="M4890 5013 c-63 -7 -91 -76 -50 -121 19 -21 30 -22 159 -22 125 0
141 2 165 21 19 15 26 30 26 54 0 24 -7 39 -26 54 -24 19 -39 21 -133 19 -58
0 -122 -3 -141 -5z"/>
<path d="M4149 5000 c-224 -5 -249 -7 -268 -24 -26 -24 -28 -76 -2 -107 15
-19 30 -24 82 -27 114 -6 573 14 595 26 27 14 44 60 33 88 -14 40 -48 54 -124
52 -38 -1 -181 -5 -316 -8z"/>
<path d="M7630 4113 c0 -5 15 -33 33 -63 18 -30 36 -63 40 -72 6 -16 27 -18
242 -18 l235 0 0 -420 0 -420 104 0 c99 0 104 1 110 23 3 12 6 237 6 500 l0
477 -385 0 c-212 0 -385 -3 -385 -7z"/>
<path d="M7644 3261 c-2 -2 -4 -35 -4 -73 l0 -68 120 0 120 0 0 69 c0 61 -2
70 -21 76 -21 7 -207 3 -215 -4z"/>
<path d="M5696 4020 c-101 -18 -223 -102 -200 -138 16 -25 43 -27 73 -4 67 49
115 66 186 67 89 0 165 -35 228 -105 74 -82 91 -128 92 -245 0 -94 -2 -105
-33 -167 -97 -198 -312 -248 -464 -109 -50 46 -72 81 -112 184 -14 33 -19 38
-43 35 -23 -2 -29 -8 -31 -34 -8 -79 106 -243 205 -296 173 -93 382 -36 490
135 93 148 84 392 -21 520 -102 126 -232 181 -370 157z"/>
<path d="M5713 3701 c-50 -32 -66 -63 -61 -121 12 -119 137 -156 218 -64 34
39 38 75 16 129 -28 65 -114 93 -173 56z"/>
<path d="M4726 3519 c-34 -27 -36 -77 -3 -107 22 -21 31 -22 236 -22 212 0
212 0 236 25 32 31 33 74 2 103 -22 21 -31 22 -234 22 -198 0 -212 -1 -237
-21z"/>
<path d="M1358 3746 c-37 -16 -78 -56 -78 -76 0 -20 19 -40 38 -40 7 0 28 11
46 25 110 84 266 -73 242 -243 -10 -66 -51 -147 -91 -178 -51 -39 -94 -42
-143 -9 -44 29 -69 30 -86 2 -9 -16 -5 -24 28 -53 80 -69 176 -66 261 8 72 63
98 124 103 238 3 79 0 104 -17 151 -26 70 -91 146 -146 170 -45 21 -117 23
-157 5z"/>
<path d="M4593 8360 c-63 -38 -83 -131 -42 -197 54 -88 182 -83 240 9 15 25
19 45 16 82 -4 43 -10 55 -45 88 -36 33 -47 38 -89 38 -30 0 -60 -7 -80 -20z"/>
<path d="M6741 6774 l-31 -26 0 -352 c0 -306 2 -355 16 -374 23 -33 60 -45
100 -32 65 22 65 22 62 406 l-3 346 -33 29 c-40 36 -71 37 -111 3z"/>
<path d="M6189 6551 l-29 -29 0 -187 c0 -188 4 -216 39 -242 27 -21 85 -16
114 11 35 32 40 68 36 257 l-4 161 -33 29 c-43 39 -84 39 -123 0z"/>
<path d="M1270 5542 c-47 -25 -85 -98 -76 -147 9 -45 57 -101 102 -115 45 -15
88 -5 129 31 62 54 69 129 18 190 -50 59 -110 74 -173 41z"/>
<path d="M8515 5421 c-44 -19 -85 -84 -85 -133 0 -38 41 -108 72 -124 83 -43
193 7 213 96 9 42 -11 102 -45 135 -23 22 -40 29 -82 32 -29 1 -62 -1 -73 -6z"/>
<path d="M3590 2450 c0 -5 3 -10 8 -10 4 0 45 -34 90 -75 l83 -75 388 0 389 0
63 73 c35 39 67 74 72 75 40 18 -57 22 -543 22 -360 0 -550 -3 -550 -10z"/>
<path d="M8462 2268 l3 -193 39 -87 38 -88 74 0 74 0 0 280 0 280 -116 0 -115
0 3 -192z"/>
<path d="M7665 2266 c-104 -24 -173 -63 -256 -145 -57 -57 -85 -95 -112 -151
-105 -221 -65 -471 103 -641 79 -80 153 -123 256 -149 135 -35 233 -24 371 40
92 43 155 97 220 187 l45 63 401 0 c375 0 405 2 444 20 76 34 105 119 63 187
-38 63 -39 64 -467 63 l-388 -1 -7 58 c-12 110 -75 239 -154 318 -55 56 -149
113 -223 136 -84 26 -217 33 -296 15z m188 -337 c48 -13 112 -70 139 -122 38
-76 21 -186 -40 -251 -76 -81 -223 -88 -307 -15 -82 72 -100 205 -40 290 36
50 68 75 121 94 48 17 77 18 127 4z"/>
</g>
</svg>
