<?xml version="1.0" standalone="no"?>
<!DOCTYPE svg PUBLIC "-//W3C//DTD SVG 20010904//EN"
 "http://www.w3.org/TR/2001/REC-SVG-20010904/DTD/svg10.dtd">
<svg version="1.0" xmlns="http://www.w3.org/2000/svg"
 width="1024.000000pt" height="1024.000000pt" viewBox="0 0 1024.000000 1024.000000"
 preserveAspectRatio="xMidYMid meet">
<metadata>
Created by potrace 1.16, written by Peter Selinger 2001-2019
</metadata>
<g transform="translate(0.000000,1024.000000) scale(0.100000,-0.100000)"
fill="#000000" stroke="none">
<path d="M2386 9089 c-89 -12 -222 -57 -334 -113 -260 -130 -470 -392 -548
-681 -18 -68 -19 -159 -19 -3130 l0 -3060 23 -85 c12 -47 42 -127 67 -178 137
-284 348 -471 640 -567 176 -58 34 -55 2975 -55 1608 0 2754 4 2825 10 267 21
474 115 655 299 95 96 164 199 220 329 78 180 71 -123 71 3289 -1 3386 4 3117
-67 3293 -130 320 -372 536 -712 633 l-77 22 -2825 1 c-1604 1 -2855 -2 -2894
-7z m5574 -600 c185 -29 346 -178 395 -364 13 -53 15 -388 15 -2960 0 -3180 4
-2954 -58 -3069 -38 -71 -149 -181 -208 -208 -126 -55 64 -51 -2684 -55 -1394
-2 -2639 0 -2766 5 l-232 8 -75 37 c-89 44 -177 132 -220 221 -60 123 -57 -67
-57 3051 0 1883 4 2882 10 2925 31 197 204 378 391 409 79 13 5407 14 5489 0z"/>
<path d="M6310 8180 c-634 -49 -1160 -519 -1264 -1130 -25 -146 -30 -264 -17
-380 24 -210 62 -341 148 -513 l44 -89 -1202 -1196 c-661 -658 -1229 -1230
-1261 -1270 -66 -83 -138 -224 -164 -322 -25 -92 -26 -359 -1 -448 60 -214
198 -400 373 -503 229 -135 474 -155 732 -61 112 42 192 92 286 182 83 79 133
146 459 607 330 468 344 488 864 1213 363 507 445 622 681 945 l189 260 194 0
c221 1 316 15 494 72 357 115 632 360 799 713 136 288 162 631 70 947 -49 170
-144 365 -183 378 -33 10 -49 -6 -122 -118 -165 -255 -199 -307 -269 -417
-159 -252 -323 -500 -336 -511 -15 -12 -552 -62 -608 -57 -37 4 -54 37 -278
530 l-30 66 199 299 c110 164 264 393 342 508 79 116 148 220 154 233 26 57
-75 78 -293 62z m-982 -2872 c20 -20 14 -44 -26 -95 -55 -69 -250 -343 -552
-773 -145 -206 -369 -526 -499 -710 -129 -184 -308 -441 -396 -571 -89 -129
-175 -252 -191 -272 -92 -116 -248 -156 -381 -97 -61 27 -98 62 -129 123 -50
97 -50 196 -2 297 25 51 2 29 818 830 333 327 760 749 950 937 354 351 372
367 408 331z"/>
<path d="M2751 8103 c-25 -9 -66 -37 -91 -62 -87 -87 -80 84 -80 -1914 l0
-1770 25 -43 c27 -46 79 -84 116 -84 16 0 74 51 206 182 l183 182 0 1661 c0
1592 -1 1662 -19 1701 -25 56 -76 111 -125 136 -54 28 -156 33 -215 11z"/>
<path d="M3855 7566 c-89 -28 -132 -65 -178 -150 l-22 -41 -3 -910 c-2 -616 0
-922 7 -946 7 -22 31 -55 61 -83 82 -77 83 -77 292 131 l178 177 0 812 0 811
-31 62 c-36 72 -85 113 -162 136 -60 18 -88 18 -142 1z"/>
<path d="M7602 5585 l-250 -256 -6 -187 c-3 -103 -4 -754 -3 -1447 l2 -1260
27 -50 c32 -62 60 -88 123 -117 128 -57 279 -3 348 126 l22 41 3 1703 c1 1031
-1 1702 -7 1702 -5 0 -122 -115 -259 -255z"/>
<path d="M6495 4684 c-90 -22 -158 -73 -198 -149 l-22 -40 0 -1030 0 -1030 22
-40 c52 -98 172 -166 266 -151 96 16 171 68 211 148 l26 52 0 1021 0 1021 -26
52 c-29 58 -70 97 -129 123 -44 19 -118 30 -150 23z"/>
<path d="M5436 3658 l-255 -263 0 -475 c-1 -441 1 -478 18 -516 40 -87 117
-143 218 -160 94 -15 214 53 266 151 22 40 22 43 25 783 1 444 -1 742 -7 742
-5 0 -124 -118 -265 -262z"/>
</g>
</svg>
