<?xml version="1.0" standalone="no"?>
<!DOCTYPE svg PUBLIC "-//W3C//DTD SVG 20010904//EN"
 "http://www.w3.org/TR/2001/REC-SVG-20010904/DTD/svg10.dtd">
<svg version="1.0" xmlns="http://www.w3.org/2000/svg"
 width="1024.000000pt" height="1024.000000pt" viewBox="0 0 1024.000000 1024.000000"
 preserveAspectRatio="xMidYMid meet">
<metadata>
Created by potrace 1.16, written by Peter Selinger 2001-2019
</metadata>
<g transform="translate(0.000000,1024.000000) scale(0.100000,-0.100000)"
fill="#000000" stroke="none">
<path d="M1745 9420 c-367 -39 -653 -267 -742 -590 -17 -62 -18 -229 -18
-3500 0 -3293 1 -3438 18 -3499 72 -254 284 -461 546 -534 88 -24 97 -24 1328
-26 l762 -1 -2 -259 c-2 -242 -1 -260 17 -280 36 -39 72 -28 167 52 47 39 168
142 268 227 101 85 213 179 250 207 l66 53 261 0 c252 0 262 1 302 22 37 21
467 390 845 726 76 68 140 122 141 120 1 -1 8 -22 15 -46 6 -23 27 -57 46 -76
l34 -34 -57 -45 c-31 -25 -140 -118 -242 -207 -102 -89 -256 -222 -342 -297
-93 -80 -160 -146 -166 -162 -21 -60 30 -128 88 -117 14 3 48 9 77 15 28 5
142 19 253 31 170 18 214 19 277 10 41 -6 118 -12 171 -12 83 0 114 5 217 36
66 20 121 36 123 36 5 0 -5 -60 -29 -184 -33 -170 -23 -245 44 -314 89 -93
237 -107 378 -36 26 13 54 31 64 40 16 17 27 14 194 -41 448 -148 1055 -365
1639 -584 l402 -152 102 3 c103 3 103 3 112 31 9 24 7 31 -12 45 -67 51 -1336
519 -2122 783 -192 65 -346 122 -378 142 -235 142 -271 389 -85 576 135 135
396 201 678 172 108 -11 438 -71 830 -151 438 -89 866 -170 900 -170 39 0 85
36 85 65 0 33 -30 73 -62 83 -18 6 -217 45 -443 87 -225 42 -417 79 -425 82
-16 6 81 39 460 158 135 42 430 137 656 211 226 74 414 134 418 134 3 0 11
-12 17 -27 13 -33 231 -669 295 -862 74 -222 73 -222 74 52 l0 238 -118 342
c-130 375 -137 397 -124 406 4 3 29 31 54 62 109 135 128 353 44 516 -58 116
-171 197 -308 223 l-66 12 -27 64 c-56 131 -153 251 -256 317 -67 42 -212 107
-242 107 -18 0 -19 2 -7 10 8 5 39 10 68 10 l52 0 -2 2528 c-3 2374 -4 2531
-21 2587 -27 93 -94 218 -156 292 -149 178 -334 268 -600 293 -124 12 -6675
12 -6786 0z m5089 -345 c355 -248 493 -388 561 -569 52 -139 51 -310 -3 -441
-52 -127 -167 -231 -309 -281 l-53 -19 0 -457 c0 -252 2 -458 5 -458 22 0 111
73 225 186 74 73 148 138 163 143 17 7 121 11 261 11 233 0 233 0 259 -24 34
-32 42 -67 23 -103 -29 -57 -32 -58 -255 -62 l-206 -3 -50 -65 c-99 -129 -249
-246 -375 -293 l-62 -23 6 -45 c3 -25 6 -156 6 -291 l0 -247 28 -10 c27 -10
34 -6 157 109 72 66 238 217 370 337 132 119 311 282 398 361 l158 144 2 95
c2 85 6 103 34 161 101 204 342 289 550 194 192 -87 281 -331 191 -522 -34
-72 -120 -158 -196 -195 -63 -31 -72 -33 -177 -33 -126 0 -193 20 -261 79
l-40 34 -96 -87 c-53 -47 -163 -147 -245 -221 -244 -223 -550 -501 -621 -564
l-67 -59 0 -71 c-2 -111 -60 -213 -149 -261 l-36 -20 0 -275 0 -275 107 3 c60
2 140 -1 180 -6 68 -8 73 -7 107 19 20 15 59 48 87 74 l51 48 -21 71 c-54 180
-6 334 187 599 35 48 67 87 71 87 25 0 136 -98 195 -173 212 -267 169 -621
-91 -740 -38 -17 -65 -21 -135 -20 l-86 1 -37 -38 -36 -37 44 -26 c92 -54 202
-203 248 -337 21 -60 23 -86 27 -342 l4 -276 136 -32 c303 -70 904 -221 1017
-255 160 -49 259 -101 339 -181 57 -57 126 -165 126 -199 0 -11 -51 -30 -355
-135 -77 -27 -232 -81 -345 -120 -113 -40 -304 -106 -425 -148 l-220 -75 -173
67 -173 66 -112 -77 c-496 -345 -655 -448 -831 -542 -251 -134 -411 -179 -586
-168 -144 9 -210 50 -210 129 0 54 10 64 600 569 443 380 634 546 780 679 159
145 231 194 307 211 78 18 111 9 463 -126 168 -64 364 -139 435 -165 72 -27
172 -65 223 -85 102 -39 130 -39 162 2 46 59 6 106 -130 156 -52 19 -212 80
-355 135 -143 55 -341 130 -440 168 l-180 68 -120 1 c-118 0 -121 -1 -197 -37
-76 -36 -160 -104 -328 -263 -41 -39 -95 -86 -120 -105 -39 -30 -43 -31 -28
-10 31 44 130 212 126 213 -2 1 -270 1 -595 -1 l-593 -3 0 -465 c0 -400 -2
-471 -15 -499 -35 -73 -127 -73 -176 1 -18 28 -19 51 -19 497 l0 467 -292 0
c-382 0 -442 -13 -669 -147 -101 -59 -155 -85 -236 -111 -139 -46 -154 -47
-673 -47 l-495 0 -80 27 c-97 33 -212 100 -283 163 -85 76 -177 218 -207 320
l-12 40 -326 3 -326 2 -47 -35 c-178 -136 -397 -138 -564 -5 -51 41 -109 129
-132 204 -29 91 -22 221 15 300 107 231 371 321 599 205 142 -72 236 -242 226
-407 l-5 -74 271 4 271 3 3 64 c4 92 -14 196 -48 269 -39 83 -113 159 -234
240 -187 125 -301 254 -399 452 -29 58 -53 107 -54 109 -2 2 -20 -7 -40 -21
-74 -48 -91 -57 -159 -80 -52 -17 -92 -22 -164 -22 -163 0 -274 45 -386 158
-113 113 -168 241 -168 391 -1 356 335 622 682 540 75 -18 168 -63 216 -106
l36 -31 42 42 c100 97 257 176 373 187 l65 6 2 518 3 519 -652 0 c-484 0 -659
3 -678 12 -30 14 -55 55 -55 92 0 14 13 40 29 58 l29 33 676 3 c602 2 676 4
676 18 0 25 64 157 115 236 78 120 234 266 433 404 2 1 -14 27 -37 56 -60 80
-84 141 -89 229 -8 139 50 272 172 394 84 83 264 205 304 205 14 0 79 -149
103 -235 14 -55 23 -122 26 -215 5 -119 3 -145 -17 -218 -24 -90 -72 -173
-136 -235 -21 -21 -91 -75 -154 -120 -285 -202 -404 -315 -469 -449 -73 -148
-71 -98 -71 -1296 0 -1154 2 -1114 -49 -1142 -55 -29 -133 6 -150 67 -7 24
-11 192 -11 451 0 470 10 428 -94 392 -66 -22 -201 -92 -242 -125 l-28 -22 26
-59 c67 -148 58 -308 -26 -469 -17 -33 -32 -63 -34 -66 -1 -3 25 -25 58 -49
44 -32 79 -71 132 -148 93 -134 162 -203 290 -288 172 -114 270 -229 325 -382
26 -71 42 -218 43 -388 0 -107 16 -168 67 -252 76 -124 188 -215 313 -253 62
-18 98 -20 516 -22 l449 -2 95 32 c52 18 150 64 217 102 271 154 395 181 836
181 l258 0 -2 278 c-2 317 3 347 76 497 79 162 221 287 388 341 75 24 97 27
259 28 l178 1 0 275 0 276 -34 12 c-46 17 -120 101 -140 159 -20 59 -20 146 0
206 20 59 81 128 133 152 l41 18 0 268 0 267 -52 13 c-454 108 -801 501 -860
974 -8 62 -8 118 -2 178 10 85 9 90 -25 190 -30 89 -34 115 -34 202 -1 249
133 484 381 670 118 89 180 121 203 107 15 -10 25 -3 69 46 56 62 198 182 216
182 6 0 59 -34 118 -75z m1993 -41 c130 -74 126 -266 -7 -334 -101 -52 -234 5
-270 115 -32 97 41 222 143 245 44 10 84 2 134 -26z m-4287 -23 c75 -29 125
-74 160 -145 58 -118 36 -251 -56 -336 -24 -22 -55 -45 -69 -50 l-25 -10 0
-253 0 -253 97 -18 c396 -70 769 -346 1008 -748 103 -173 203 -456 248 -703
19 -106 22 -154 22 -415 -1 -324 -12 -426 -75 -667 -145 -556 -521 -1000 -977
-1153 -192 -64 -263 -74 -533 -74 -243 -1 -245 -1 -279 23 -58 41 -61 61 -61
360 0 315 -9 383 -70 510 -33 67 -57 101 -124 168 -73 72 -97 89 -182 128
-171 79 -185 88 -213 129 l-26 40 0 815 c0 765 1 820 19 886 70 264 266 487
540 615 97 46 238 86 337 96 l69 7 0 252 0 252 -24 11 c-39 17 -105 81 -132
127 -90 154 -14 346 159 406 67 24 125 24 187 0z m916 -26 c152 -74 243 -247
215 -406 -30 -172 -146 -290 -311 -319 -79 -14 -188 5 -254 44 -60 35 -133
117 -163 183 -66 144 -25 326 97 437 79 71 154 97 271 93 70 -2 96 -8 145 -32z
m2656 -56 c121 -25 234 -115 286 -227 24 -51 27 -68 27 -172 0 -112 -1 -117
-34 -178 -44 -81 -135 -165 -209 -192 -211 -79 -442 11 -535 208 -29 61 -32
76 -32 162 1 122 25 187 100 268 106 115 249 162 397 131z m-5950 -20 c190
-40 348 -202 380 -391 15 -82 -2 -185 -42 -264 l-27 -54 63 -50 c111 -88 181
-193 210 -317 28 -123 -5 -179 -102 -174 -41 2 -64 32 -75 100 -24 152 -144
287 -296 332 l-43 12 0 51 c0 46 3 54 34 78 20 16 49 57 68 95 57 117 41 220
-51 316 -62 67 -102 82 -211 82 -108 0 -147 -15 -212 -81 -109 -109 -98 -304
24 -409 35 -29 38 -36 38 -82 l0 -50 -42 -13 c-162 -48 -271 -168 -299 -329
-7 -36 -20 -72 -30 -82 -40 -40 -127 -11 -150 48 -14 37 14 152 58 236 36 69
112 156 181 208 l33 25 -32 80 c-62 153 -48 299 42 434 106 158 297 237 481
199z m728 -279 c0 -6 21 -32 48 -57 34 -34 43 -48 32 -51 -16 -6 -58 -47 -78
-77 -10 -17 -14 -17 -19 -5 -3 8 -26 35 -52 59 -29 28 -41 46 -33 48 23 9 71
54 77 73 7 21 25 28 25 10z m5976 -455 c18 -7 50 -29 72 -49 143 -129 93 -357
-91 -420 -55 -18 -88 -20 -137 -6 -130 36 -214 164 -189 287 32 159 198 249
345 188z m-3250 -224 c79 -48 60 -174 -28 -195 -39 -9 -106 20 -123 55 -25 48
-19 87 19 125 40 40 83 45 132 15z m2334 -86 c36 -8 98 -27 138 -43 68 -25 73
-29 67 -52 -13 -51 -112 -196 -186 -270 -132 -134 -247 -176 -449 -167 -146 6
-223 31 -239 79 -34 96 26 252 130 342 53 46 141 91 212 111 69 18 246 18 327
0z m-5706 -749 c46 -19 76 -61 76 -106 0 -30 -17 -60 -99 -177 -54 -77 -113
-152 -131 -166 l-32 -27 -293 0 c-264 0 -295 2 -314 18 -30 24 -41 71 -27 113
16 46 202 304 234 325 45 29 73 32 315 33 181 1 246 -2 271 -13z m235 -431
c11 -19 32 -40 46 -47 33 -15 32 -23 -9 -58 -19 -17 -37 -41 -40 -55 -8 -30
-22 -32 -31 -5 -3 11 -24 35 -46 53 -21 19 -39 38 -39 43 0 5 14 18 30 27 17
10 37 31 45 48 9 16 17 29 19 29 2 0 13 -16 25 -35z m6224 -303 c89 -44 161
-117 206 -212 34 -72 36 -80 36 -180 0 -98 -2 -109 -33 -171 -36 -75 -107
-159 -163 -195 -126 -79 -301 -85 -439 -14 -57 29 -151 124 -178 181 -28 58
-52 153 -52 204 0 130 96 297 209 363 86 50 137 63 247 60 90 -3 107 -7 167
-36z m109 -1334 c7 -45 -9 -200 -26 -259 -42 -139 -126 -248 -233 -301 -89
-44 -205 -50 -303 -16 -82 29 -92 46 -88 153 10 253 256 449 569 454 l77 1 4
-32z m71 -769 l38 -35 -27 -15 c-15 -7 -38 -31 -51 -53 l-25 -38 -18 29 c-10
16 -33 42 -51 56 l-34 26 42 36 c23 19 45 45 49 58 l7 22 16 -25 c8 -14 33
-41 54 -61z m-5183 -98 c86 -62 45 -191 -62 -191 -32 0 -47 7 -74 34 -54 54
-41 135 28 170 37 18 70 14 108 -13z m-899 -810 c39 -40 39 -82 0 -122 l-29
-29 -422 0 -422 0 -29 29 c-37 37 -38 79 -3 120 l26 31 425 0 425 0 29 -29z
m3802 -202 c28 -13 57 -58 57 -89 0 -39 -28 -78 -65 -90 -84 -28 -160 53 -121
129 29 55 77 74 129 50z m-1158 -33 c61 -26 82 -101 45 -162 -29 -46 -90 -61
-140 -34 -25 13 -60 68 -60 93 0 33 32 87 59 102 33 18 54 18 96 1z m-3946
-52 c52 -43 40 -120 -23 -144 -36 -13 -72 -3 -96 27 -24 31 -25 54 -4 94 27
53 77 62 123 23z m1705 16 c25 -9 56 -56 56 -84 0 -8 -12 -28 -26 -45 -33 -40
-83 -43 -119 -6 -35 34 -33 78 4 116 32 31 46 34 85 19z m6490 -245 c37 -103
66 -190 66 -191 0 -1 -12 -5 -27 -8 -44 -11 -822 -269 -1373 -457 -278 -94
-586 -197 -685 -228 l-180 -58 -116 5 c-217 8 -410 -29 -578 -110 -115 -57
-221 -160 -277 -273 l-40 -80 -85 -26 c-144 -46 -121 -66 -205 185 -56 166
-71 222 -61 228 41 27 179 58 259 58 100 0 196 18 323 61 96 33 291 130 390
194 41 27 130 63 285 116 334 114 1205 416 1525 529 446 157 710 248 712 246
1 -1 31 -87 67 -191z m-6909 153 c86 -46 94 -79 95 -387 0 -282 -5 -316 -57
-361 -56 -50 -79 -52 -564 -48 -436 3 -448 4 -476 24 -15 11 -33 36 -40 55
-15 43 -17 545 -2 609 16 70 60 109 134 119 22 4 229 6 460 6 367 -1 424 -3
450 -17z m7104 -23 c86 -81 119 -201 86 -320 -9 -36 -20 -65 -24 -65 -4 0 -13
22 -19 50 -6 27 -34 111 -61 187 -28 76 -53 150 -57 166 -10 42 18 35 75 -18z
m-5756 -74 c66 -32 134 -101 165 -169 22 -48 27 -70 26 -142 0 -75 -4 -93 -32
-152 -36 -74 -100 -139 -170 -170 l-43 -19 3 -147 3 -147 155 0 c188 0 215 8
231 69 6 22 26 80 46 128 l35 87 -22 63 c-60 173 9 354 167 433 53 27 67 30
158 30 86 0 107 -3 150 -24 205 -102 258 -377 104 -545 -98 -108 -253 -144
-390 -91 -13 5 -19 -4 -29 -47 -42 -178 -139 -275 -297 -298 -42 -6 -621 -10
-1511 -10 -1555 0 -1488 -2 -1526 51 -9 13 -16 40 -16 60 0 29 7 43 31 63 l31
26 1244 0 1244 0 0 149 0 149 -54 26 c-67 33 -129 94 -164 161 -24 44 -27 61
-27 150 0 86 3 106 24 145 52 98 108 148 204 182 72 26 195 21 260 -11z
m-2712 -204 c71 -54 38 -157 -50 -157 -31 0 -44 6 -60 26 -46 58 -8 143 64
143 17 0 37 -5 46 -12z m1889 -12 c53 -56 15 -145 -62 -145 -79 0 -114 78 -62
139 34 41 89 43 124 6z m2735 -1149 c33 -96 57 -177 55 -180 -3 -3 -66 1 -140
7 l-134 12 -24 76 -23 76 63 60 c83 79 132 122 138 123 3 0 32 -78 65 -174z
m657 -638 c31 -14 34 -21 15 -37 -40 -32 -123 -17 -147 28 -11 22 -13 64 -4
99 6 22 9 21 57 -27 28 -28 63 -56 79 -63z"/>
<path d="M6645 8838 c-69 -76 -126 -177 -144 -258 -24 -102 -6 -231 40 -290
l19 -25 0 43 c1 140 67 306 179 444 l70 87 -41 36 c-23 19 -45 35 -49 35 -4 0
-37 -33 -74 -72z"/>
<path d="M6929 8667 c-147 -171 -200 -347 -153 -508 50 -172 165 -234 294
-156 161 95 198 344 80 530 -39 61 -151 177 -170 176 -8 0 -31 -20 -51 -42z"/>
<path d="M3472 8605 c-62 -68 -81 -133 -64 -217 23 -117 40 -131 91 -73 45 51
58 120 53 283 -2 79 -14 80 -80 7z"/>
<path d="M6224 8548 c-43 -46 -93 -110 -111 -144 -34 -63 -63 -160 -62 -204
l0 -25 17 25 c30 45 126 142 179 181 52 39 52 40 47 82 -3 23 -1 69 4 102 6
33 9 61 7 63 -1 1 -38 -35 -81 -80z"/>
<path d="M6298 8153 c-62 -64 -114 -150 -146 -237 -37 -103 -43 -294 -13 -418
39 -166 127 -316 265 -453 118 -118 248 -195 374 -223 l42 -10 0 487 0 486
-47 17 c-118 43 -286 186 -373 318 -29 44 -53 80 -54 80 -1 0 -23 -21 -48 -47z"/>
<path d="M1769 5946 c-64 -18 -146 -64 -175 -99 -120 -143 -119 -336 3 -467
69 -75 140 -111 232 -118 213 -15 393 144 392 348 -1 231 -226 398 -452 336z"/>
<path d="M7804 5457 c-50 -74 -58 -117 -49 -244 6 -72 11 -93 22 -93 30 0 76
45 101 98 20 45 24 64 19 113 -5 58 -42 150 -62 156 -5 2 -20 -12 -31 -30z"/>
<path d="M6483 4735 c-165 -45 -297 -174 -338 -330 -12 -46 -15 -119 -15 -330
l0 -270 795 3 795 2 0 258 c0 141 -5 277 -11 301 -37 164 -185 314 -358 365
-39 11 -96 16 -194 16 l-140 0 7 -127 c3 -70 3 -217 0 -327 l-7 -201 -28 -27
c-38 -39 -87 -38 -131 1 l-33 29 -3 326 -3 326 -142 -1 c-89 0 -162 -6 -194
-14z"/>
<path d="M1940 4369 c-60 -12 -118 -54 -154 -112 -72 -116 -13 -277 120 -333
43 -18 125 -18 168 0 72 30 134 105 151 184 18 86 -43 199 -128 237 -67 30
-101 35 -157 24z"/>
<path d="M4400 8838 c-14 -7 -33 -30 -43 -51 -15 -31 -17 -43 -7 -71 39 -120
200 -94 200 33 0 67 -90 120 -150 89z"/>
<path d="M4251 7735 c-332 -72 -554 -259 -639 -538 -14 -45 -16 -156 -19 -814
l-4 -761 38 -12 c65 -22 185 -86 249 -133 170 -129 292 -330 323 -537 6 -41
12 -183 14 -315 l2 -240 135 3 c304 7 544 83 747 238 92 71 235 220 305 320
254 361 375 982 288 1489 -106 624 -447 1086 -928 1259 -150 54 -370 71 -511
41z m216 -480 c31 -35 30 -85 -1 -114 -24 -23 -28 -23 -283 -23 -142 0 -266 1
-275 1 -54 3 -78 99 -35 139 22 20 34 22 232 25 318 5 335 4 362 -28z m436
-457 c53 -28 64 -92 22 -133 l-24 -25 -501 0 c-321 0 -508 4 -520 10 -25 14
-44 83 -30 109 27 52 18 51 543 51 352 0 494 -3 510 -12z m353 -501 c31 -37
31 -81 -1 -112 l-24 -25 -665 0 -665 0 -25 23 c-15 12 -29 36 -32 54 -5 27 -1
37 24 63 l31 30 666 -2 667 -3 24 -28z"/>
<path d="M5225 8824 c-144 -53 -169 -253 -43 -344 72 -52 167 -48 243 12 89
70 85 232 -7 301 -64 47 -123 57 -193 31z"/>
<path d="M8453 6100 c-110 -67 -67 -241 61 -244 51 -1 102 33 122 80 18 43 18
68 -2 110 -32 68 -117 93 -181 54z"/>
<path d="M1912 2623 l3 -228 285 -3 c157 -1 335 1 395 5 l110 8 3 170 c2 94 0
194 -3 223 l-6 52 -395 0 -394 0 2 -227z"/>
<path d="M3940 2748 c-44 -12 -96 -62 -111 -105 -22 -69 14 -153 82 -188 62
-32 156 -5 203 58 16 21 21 43 21 87 0 71 -21 105 -85 138 -48 24 -58 25 -110
10z"/>
<path d="M4805 2589 c-36 -11 -53 -24 -83 -63 -29 -38 -31 -128 -2 -170 26
-40 87 -76 130 -76 46 0 108 37 138 80 49 72 13 183 -72 221 -45 20 -66 22
-111 8z"/>
<path d="M810 8705 l0 -135 40 0 40 0 0 135 0 135 -40 0 -40 0 0 -135z"/>
<path d="M9420 8753 c-24 -4 -25 -6 -25 -83 l0 -80 38 0 37 0 0 85 c0 62 -3
85 -12 84 -7 -1 -24 -4 -38 -6z"/>
<path d="M9397 8308 l1 -133 39 0 38 0 -1 130 -1 130 -39 3 -39 3 2 -133z"/>
<path d="M810 8118 l0 -138 40 0 40 0 0 139 0 139 -40 -1 -40 -2 0 -137z"/>
<path d="M9398 7765 l-3 -55 43 0 42 0 0 55 0 55 -39 0 -39 0 -4 -55z"/>
<path d="M810 7625 l0 -145 40 0 40 0 0 145 0 145 -40 0 -40 0 0 -145z"/>
<path d="M9428 7503 l-28 -4 0 -110 0 -109 35 0 35 0 2 80 c1 44 2 94 2 112 1
34 -4 37 -46 31z"/>
<path d="M810 7165 l0 -135 40 0 40 0 0 135 0 135 -40 0 -40 0 0 -135z"/>
<path d="M9396 6913 l2 -66 38 0 c24 0 39 4 38 11 -1 7 -2 37 -2 67 l-2 55
-37 0 -38 0 1 -67z"/>
<path d="M810 6860 l0 -60 40 0 40 0 0 60 0 60 -40 0 -40 0 0 -60z"/>
<path d="M9400 6688 c-5 -30 -7 -199 -3 -214 4 -17 12 -22 38 -21 l33 1 4 95
c5 134 3 141 -38 141 -19 0 -34 -1 -34 -2z"/>
<path d="M810 6440 l0 -140 40 0 40 0 0 140 0 140 -40 0 -40 0 0 -140z"/>
<path d="M9392 6056 l-4 -134 44 3 43 3 0 131 0 131 -40 0 -40 0 -3 -134z"/>
<path d="M810 5750 l0 -151 40 3 40 2 0 148 0 148 -40 0 -40 0 0 -150z"/>
<path d="M9398 5745 l4 -55 39 0 39 0 0 55 0 55 -42 0 -43 0 3 -55z"/>
<path d="M9399 5401 c-2 -213 -5 -198 36 -203 l35 -4 0 143 c0 79 1 146 3 151
1 4 -15 8 -35 10 l-38 3 -1 -100z"/>
<path d="M810 5266 c0 -29 2 -55 5 -57 2 -3 20 -3 40 -1 35 4 35 4 35 56 l0
51 -40 2 -40 3 0 -54z"/>
<path d="M9398 4910 c-1 -71 -2 -140 -2 -152 -1 -20 5 -23 42 -26 l42 -3 0
155 0 156 -40 0 -40 0 -2 -130z"/>
<path d="M810 4878 l0 -108 40 0 40 0 0 104 0 104 -40 4 -40 4 0 -108z"/>
<path d="M806 4594 c-3 -30 -3 -91 0 -135 l7 -79 38 0 39 0 0 135 0 135 -39 0
-38 0 -7 -56z"/>
<path d="M9400 4497 c0 -46 -3 -105 -6 -131 l-7 -46 41 0 41 0 6 53 c3 28 5
86 3 127 l-3 75 -37 3 -38 3 0 -84z"/>
<path d="M810 4149 c0 -52 2 -60 16 -55 9 3 27 6 40 6 22 0 24 3 24 55 l0 55
-40 0 -40 0 0 -61z"/>
<path d="M10095 4086 c-16 -7 -174 -59 -350 -115 -176 -57 -330 -109 -342
-117 -32 -20 -32 -86 -1 -108 19 -13 25 -13 57 0 20 8 86 30 146 48 294 89
572 180 588 194 38 33 6 113 -45 112 -13 -1 -36 -7 -53 -14z"/>
<path d="M810 3860 l0 -60 40 0 40 0 0 60 0 60 -40 0 -40 0 0 -60z"/>
<path d="M814 3611 c-2 -2 -4 -31 -4 -63 l0 -58 40 0 40 0 0 63 0 62 -36 0
c-20 0 -38 -2 -40 -4z"/>
<path d="M810 3255 l0 -55 40 0 40 0 0 55 0 55 -40 0 -40 0 0 -55z"/>
<path d="M810 2845 l0 -155 40 0 40 0 0 155 0 155 -40 0 -40 0 0 -155z"/>
<path d="M810 2379 l0 -120 38 3 37 3 3 118 3 117 -41 0 -40 0 0 -121z"/>
<path d="M814 2081 c-6 -6 -5 -117 1 -122 2 -3 20 -3 40 -1 l35 4 0 62 0 63
-36 -1 c-19 -1 -37 -3 -40 -5z"/>
<path d="M7705 1310 c-17 -18 -31 -61 -75 -229 -15 -57 -17 -78 -8 -95 27 -50
84 -61 121 -23 29 28 102 267 93 303 -15 60 -93 86 -131 44z"/>
<path d="M1500 1120 l0 -40 60 0 60 0 0 40 0 40 -60 0 -60 0 0 -40z"/>
<path d="M1780 1120 l0 -40 75 2 75 3 0 38 0 37 -75 0 -75 0 0 -40z"/>
<path d="M2087 1154 c-4 -4 -7 -22 -7 -41 0 -31 2 -33 34 -33 18 0 53 3 77 6
42 6 45 8 44 38 l0 31 -70 3 c-39 1 -74 0 -78 -4z"/>
<path d="M2390 1121 l0 -41 73 6 c39 4 73 8 75 9 2 1 4 15 5 31 l2 29 -77 3
-78 3 0 -40z"/>
<path d="M2700 1121 l0 -39 70 -1 70 -1 0 40 0 40 -70 0 -70 0 0 -39z"/>
<path d="M2987 1153 c-10 -10 -8 -61 2 -67 5 -3 36 -3 70 0 l61 7 0 33 0 34
-63 0 c-35 0 -67 -3 -70 -7z"/>
<path d="M3267 1128 c-2 -18 -3 -36 0 -40 5 -9 105 -11 127 -2 10 4 16 18 16
40 l0 34 -69 0 -69 0 -5 -32z"/>
<path d="M4650 1120 l0 -40 60 0 60 0 0 40 0 40 -60 0 -60 0 0 -40z"/>
<path d="M4920 1120 l0 -40 55 0 55 0 0 40 0 40 -55 0 -55 0 0 -40z"/>
</g>
</svg>
