<?xml version="1.0" standalone="no"?>
<!DOCTYPE svg PUBLIC "-//W3C//DTD SVG 20010904//EN"
 "http://www.w3.org/TR/2001/REC-SVG-20010904/DTD/svg10.dtd">
<svg version="1.0" xmlns="http://www.w3.org/2000/svg"
 width="1024.000000pt" height="1024.000000pt" viewBox="0 0 1024.000000 1024.000000"
 preserveAspectRatio="xMidYMid meet">
<metadata>
Created by potrace 1.16, written by Peter Selinger 2001-2019
</metadata>
<g transform="translate(0.000000,1024.000000) scale(0.100000,-0.100000)"
fill="#000000" stroke="none">
<path d="M1501 8734 c-120 -32 -218 -113 -269 -222 l-27 -57 -3 -3330 c-2
-3737 -10 -3382 76 -3509 57 -86 139 -148 230 -176 l67 -21 3455 -4 c1900 -2
3510 0 3577 4 105 7 130 12 187 39 127 59 221 179 246 311 14 76 14 6553 -1
6640 -21 134 -106 242 -236 304 l-68 32 -3590 2 c-3114 2 -3597 0 -3644 -13z
m7035 -309 c80 -50 117 -139 94 -226 -17 -62 -91 -132 -156 -148 -36 -9 -271
-11 -879 -9 -775 3 -833 4 -870 21 -145 65 -178 236 -67 340 61 58 31 57 968
54 l861 -2 49 -30z m-5184 -83 c31 -31 46 -89 34 -136 -10 -39 -61 -83 -105
-91 -120 -20 -200 128 -120 220 53 60 135 64 191 7z m-1592 25 c93 -47 90
-203 -5 -243 -45 -18 -69 -18 -112 3 -121 57 -81 253 51 253 22 0 52 -6 66
-13z m1158 -3 c47 -28 67 -64 67 -121 0 -44 -5 -56 -30 -83 -81 -84 -213 -43
-232 74 -17 104 104 184 195 130z m4902 -474 c66 -7 95 -16 138 -42 68 -41
127 -106 161 -178 l26 -55 0 -2700 0 -2700 -23 -57 c-32 -80 -99 -150 -180
-190 l-67 -33 -2755 0 -2755 0 -56 28 c-70 34 -142 109 -177 185 l-27 57 -3
2665 c-2 1959 0 2681 8 2725 29 150 140 267 281 294 62 12 5324 13 5429 1z"/>
<path d="M5003 6995 c-66 -34 -118 -93 -134 -154 l-12 -47 -81 -17 c-274 -56
-606 -218 -828 -404 -99 -82 -251 -244 -314 -333 -44 -62 -52 -68 -74 -62 -40
11 -123 7 -161 -8 -147 -58 -216 -236 -143 -369 16 -30 41 -63 56 -74 26 -19
26 -20 11 -61 -9 -22 -28 -88 -42 -146 l-27 -105 -41 -11 c-63 -18 -96 -39
-140 -87 -46 -50 -66 -104 -65 -183 0 -69 33 -134 94 -189 43 -39 65 -50 143
-70 6 -1 16 -31 24 -66 7 -35 24 -98 37 -142 l25 -78 -32 -36 c-97 -111 -100
-252 -8 -357 70 -79 167 -113 270 -94 9 2 41 -31 84 -87 104 -137 190 -229
294 -316 244 -204 482 -329 803 -420 l116 -33 6 -37 c9 -54 64 -129 120 -163
102 -63 252 -41 336 50 43 47 70 98 70 133 0 15 10 23 43 31 537 140 872 357
1181 770 l56 75 73 -4 c58 -2 83 2 118 18 105 49 160 128 167 238 3 50 0 71
-21 115 -13 29 -38 67 -55 83 l-30 30 23 70 c12 39 30 105 40 148 15 68 20 77
40 77 62 0 160 72 197 144 77 151 -18 350 -183 381 -34 6 -35 8 -56 93 -12 48
-30 115 -39 149 l-18 62 29 28 c70 70 93 213 48 299 -59 112 -188 176 -295
146 -42 -11 -49 -6 -108 82 -85 126 -328 348 -504 460 -167 107 -418 211 -601
251 -44 10 -85 19 -91 20 -6 2 -14 16 -17 32 -9 47 -70 126 -122 158 -42 26
-60 30 -129 33 -71 3 -87 0 -133 -23z m-38 -475 c10 -11 25 -22 34 -25 14 -4
16 -29 19 -180 4 -204 22 -184 -141 -160 -93 14 -167 32 -167 40 0 24 215 345
231 345 3 0 14 -9 24 -20z m396 -38 c81 -100 188 -277 175 -289 -8 -8 -161
-39 -233 -47 l-63 -7 0 175 0 175 30 18 c17 9 30 21 30 25 0 19 18 4 61 -50z
m-810 -98 c-28 -48 -52 -91 -54 -97 -1 -5 -36 7 -76 27 -41 21 -71 42 -68 49
7 23 239 133 245 117 2 -4 -20 -47 -47 -96z m1240 48 c62 -32 114 -63 116 -69
2 -5 -27 -27 -66 -47 -73 -38 -81 -41 -81 -27 0 5 -22 49 -50 99 -27 50 -50
93 -50 96 0 13 22 4 131 -52z m-1581 -262 c46 -27 107 -59 137 -72 29 -13 53
-27 53 -33 0 -5 -18 -52 -40 -103 -36 -84 -64 -168 -90 -278 l-10 -41 -135 23
c-137 23 -286 51 -317 60 -11 3 -20 23 -28 56 -10 48 -9 54 16 92 49 74 154
195 237 271 45 41 85 75 88 75 3 0 43 -22 89 -50z m2053 -72 c67 -68 144 -155
171 -194 46 -69 48 -74 41 -123 -5 -34 -12 -52 -23 -55 -14 -4 -196 -39 -397
-75 -27 -5 -53 -6 -56 -3 -3 4 -14 38 -23 75 -9 38 -39 129 -66 203 -28 74
-50 138 -50 142 0 4 35 24 78 44 42 20 100 53 127 72 28 19 56 34 62 35 7 1
68 -54 136 -121z m-559 -288 c31 -93 56 -176 56 -185 0 -8 -10 -17 -22 -20
-28 -6 -358 -25 -439 -25 l-59 0 0 170 0 170 38 0 c48 0 195 25 287 49 39 10
73 16 77 15 3 -2 31 -80 62 -174z m-962 146 c62 -14 147 -28 189 -32 l76 -6 7
-106 c3 -58 6 -134 6 -170 l0 -65 -182 8 c-187 7 -335 19 -344 27 -12 13 109
368 126 368 5 0 59 -11 122 -24z m-717 -501 c50 -9 113 -21 141 -26 l51 -10
-18 -95 c-10 -52 -21 -140 -25 -194 l-7 -100 -308 0 -308 0 -17 33 c-9 17 -29
47 -44 65 l-27 33 19 67 c10 37 29 101 43 142 25 74 26 76 68 87 23 7 60 25
82 41 l40 29 110 -28 c61 -15 151 -35 200 -44z m2647 -2 c26 -5 31 -15 73
-145 25 -77 45 -145 45 -152 0 -6 -9 -17 -19 -23 -11 -7 -32 -33 -46 -58 l-27
-45 -307 2 -306 3 -7 100 c-4 55 -14 142 -21 193 -14 91 -14 92 7 97 12 3 104
21 206 40 102 19 205 41 230 48 44 13 46 13 95 -21 27 -18 62 -36 77 -39z
m-1967 -83 c83 -5 185 -10 228 -10 l77 0 0 -165 0 -165 -302 2 -303 3 3 90 c2
80 11 150 28 239 6 28 7 28 63 22 31 -3 124 -11 206 -16z m1128 -92 c9 -62 19
-141 22 -174 5 -58 4 -62 -17 -68 -13 -3 -152 -6 -310 -6 l-288 0 0 164 0 163
183 8 c100 4 216 11 257 15 41 4 89 8 106 9 l31 1 16 -112z m-1659 -535 c4
-38 15 -124 25 -193 10 -69 16 -128 12 -131 -3 -4 -71 -16 -151 -28 -80 -12
-188 -31 -240 -44 l-94 -22 -41 41 c-23 23 -61 48 -86 56 l-44 15 -42 129
c-23 71 -42 137 -42 147 -1 10 13 36 31 58 l31 39 318 0 317 0 6 -67z m838
-90 c-1 -86 -4 -158 -7 -161 -2 -2 -91 -8 -197 -13 -106 -5 -231 -12 -276 -17
-79 -8 -84 -7 -92 12 -8 24 -26 155 -35 264 l-6 72 308 0 308 0 -3 -157z m840
85 c-4 -76 -28 -264 -36 -277 -3 -4 -35 -4 -73 0 -37 4 -133 10 -213 14 -80 3
-178 8 -217 11 l-73 6 0 159 0 159 308 0 308 0 -4 -72z m904 29 c23 -33 29
-48 23 -67 -4 -14 -23 -78 -42 -144 l-34 -118 -54 -18 c-36 -12 -66 -32 -89
-57 l-35 -39 -85 23 c-47 13 -152 33 -235 45 -82 12 -153 24 -157 27 -4 4 -1
46 7 95 8 49 18 136 21 193 l7 103 321 -1 321 0 31 -42z m-1742 -558 c8 -83 7
-251 -2 -265 -4 -6 -54 -16 -112 -23 -58 -6 -143 -20 -189 -31 -47 -11 -88
-17 -92 -13 -20 21 -119 305 -119 342 0 16 14 20 113 30 162 16 181 17 293 19
l101 2 7 -61z m516 51 c200 -15 230 -19 230 -37 0 -23 -100 -319 -114 -339
-12 -15 -18 -15 -103 5 -50 12 -139 26 -197 33 l-106 11 0 169 0 168 78 0 c42
0 138 -4 212 -10z m-1226 -200 c24 -74 55 -164 69 -199 15 -36 27 -68 27 -73
0 -4 -33 -24 -72 -44 -40 -20 -99 -54 -131 -76 l-58 -39 -40 32 c-47 37 -221
227 -291 315 -33 43 -44 64 -37 75 5 8 9 24 9 37 0 12 7 25 15 28 22 9 438 82
453 81 8 -1 31 -56 56 -137z m1946 98 c91 -17 177 -33 192 -35 23 -4 28 -11
34 -49 5 -32 2 -51 -10 -68 -42 -65 -188 -228 -304 -340 l-41 -39 -63 40 c-35
22 -96 57 -136 77 -40 20 -72 39 -72 42 0 2 9 22 20 44 11 21 43 108 70 192
28 84 53 159 55 166 6 16 11 15 255 -30z m-1230 -632 l0 -173 -41 -27 c-39
-26 -41 -27 -55 -9 -40 51 -174 253 -193 291 l-22 42 28 11 c58 22 254 52 276
41 4 -2 7 -81 7 -176z m419 154 c51 -11 96 -21 99 -25 3 -3 -7 -29 -22 -58
-42 -77 -188 -297 -198 -297 -5 0 -25 11 -46 25 l-37 24 3 179 3 179 52 -4
c29 -3 94 -13 146 -23z m-939 -118 c0 -4 22 -50 49 -101 48 -89 49 -93 25 -87
-41 11 -217 100 -217 111 1 8 119 82 136 84 4 1 7 -3 7 -7z m1335 -33 c68 -38
72 -44 42 -64 -27 -17 -209 -96 -213 -92 -7 7 93 187 104 187 7 0 37 -14 67
-31z"/>
</g>
</svg>
