<?xml version="1.0" standalone="no"?>
<!DOCTYPE svg PUBLIC "-//W3C//DTD SVG 20010904//EN"
 "http://www.w3.org/TR/2001/REC-SVG-20010904/DTD/svg10.dtd">
<svg version="1.0" xmlns="http://www.w3.org/2000/svg"
 width="1024.000000pt" height="1024.000000pt" viewBox="0 0 1024.000000 1024.000000"
 preserveAspectRatio="xMidYMid meet">
<metadata>
Created by potrace 1.16, written by Peter Selinger 2001-2019
</metadata>
<g transform="translate(0.000000,1024.000000) scale(0.100000,-0.100000)"
fill="#000000" stroke="none">
<path d="M1375 9500 c-392 -4 -558 -8 -576 -17 -15 -6 -43 -28 -63 -49 -68
-70 -67 -60 -64 -820 l3 -679 27 -46 c27 -47 58 -73 113 -97 24 -11 169 -14
735 -14 653 -1 708 1 740 17 48 24 88 63 113 110 22 40 22 46 25 703 2 460 0
680 -8 717 -14 68 -72 137 -133 159 -55 19 -217 22 -912 16z m805 -865 l0
-615 -630 0 -630 0 0 615 0 615 630 0 630 0 0 -615z"/>
<path d="M1203 8904 c-33 -16 -63 -66 -63 -104 0 -34 28 -79 63 -100 30 -19
52 -20 340 -20 339 0 357 3 390 59 34 57 13 137 -43 166 -44 23 -640 22 -687
-1z"/>
<path d="M1223 8509 c-63 -18 -97 -96 -70 -162 30 -69 39 -72 337 -75 327 -4
381 0 422 37 37 33 49 101 25 148 -31 60 -53 63 -384 62 -164 0 -312 -5 -330
-10z"/>
<path d="M8220 9500 c-290 -6 -309 -10 -364 -88 -43 -60 -47 -149 -44 -858 l3
-619 27 -46 c27 -46 58 -73 111 -96 41 -18 1406 -21 1462 -3 60 19 100 54 129
112 l26 52 0 680 c0 663 -1 682 -21 726 -23 52 -61 95 -104 118 -26 15 -87 18
-500 22 -258 3 -585 3 -725 0z m1088 -864 l2 -616 -625 0 -625 0 0 613 c0 338
3 617 8 621 4 4 284 5 622 3 l615 -5 3 -616z"/>
<path d="M8405 9136 c-43 -19 -66 -49 -71 -93 -7 -54 20 -91 102 -139 63 -37
304 -190 312 -199 2 -2 -18 -16 -45 -31 -167 -96 -303 -183 -335 -215 -32 -31
-38 -43 -38 -79 0 -34 6 -48 33 -75 54 -54 78 -55 172 -7 151 78 500 292 533
327 43 47 45 106 5 153 -25 28 -454 307 -545 353 -43 22 -81 24 -123 5z"/>
<path d="M4493 9456 c-57 -26 -154 -219 -212 -421 -42 -148 -55 -252 -56 -450
0 -162 3 -207 24 -305 44 -212 157 -490 222 -545 40 -33 88 -33 127 0 58 48
57 67 -9 219 -112 260 -144 403 -144 636 1 247 34 391 143 624 64 138 68 175
25 218 -34 34 -78 43 -120 24z"/>
<path d="M5635 9456 c-33 -15 -49 -37 -59 -81 -5 -24 3 -50 39 -123 158 -325
200 -681 120 -1002 -32 -125 -53 -184 -109 -306 -52 -115 -59 -166 -25 -203
48 -51 115 -47 164 11 64 76 172 348 209 528 70 339 23 679 -138 1015 -56 115
-82 150 -123 166 -31 12 -42 11 -78 -5z"/>
<path d="M4059 9305 c-15 -8 -33 -29 -42 -47 -29 -62 -68 -213 -88 -343 -41
-270 -36 -477 17 -739 49 -247 85 -316 164 -316 35 0 48 6 77 35 42 42 42 49
-10 246 -46 174 -61 319 -54 518 6 178 27 307 68 434 32 97 35 132 17 172 -23
50 -95 69 -149 40z"/>
<path d="M6038 9295 c-41 -38 -45 -69 -18 -165 57 -208 80 -374 80 -573 0
-153 -17 -272 -65 -460 -33 -130 -36 -151 -25 -178 26 -61 115 -76 167 -27 46
43 111 297 134 523 27 266 -19 631 -103 828 -34 78 -115 103 -170 52z"/>
<path d="M5302 9185 c-42 -18 -64 -67 -107 -239 -78 -307 -71 -549 24 -854 31
-100 60 -142 109 -157 32 -9 88 12 112 42 25 33 25 65 -1 139 -65 187 -93 430
-69 605 10 79 38 193 83 341 15 49 1 86 -42 115 -39 26 -63 28 -109 8z"/>
<path d="M4802 9165 c-44 -37 -47 -64 -13 -168 58 -182 66 -237 66 -432 -1
-194 -8 -241 -66 -434 l-32 -105 19 -35 c12 -23 32 -40 56 -49 33 -13 41 -12
75 4 50 25 75 72 111 213 71 272 77 481 22 733 -50 232 -88 298 -168 298 -29
0 -49 -7 -70 -25z"/>
<path d="M3158 9114 c-53 -28 -73 -105 -43 -164 28 -54 54 -60 263 -60 l190 0
11 -46 c31 -124 35 -316 10 -469 -17 -105 4 -95 -205 -95 -206 0 -242 -8 -268
-59 -9 -16 -16 -49 -16 -72 0 -33 6 -47 34 -75 l34 -34 251 0 c286 0 296 2
329 72 27 56 60 223 74 367 19 194 -18 481 -74 582 -37 67 -47 69 -320 69
-195 -1 -248 -4 -270 -16z"/>
<path d="M6505 9097 c-74 -74 -127 -397 -105 -633 25 -268 69 -393 150 -421
14 -5 134 -7 267 -4 l243 6 32 33 c27 27 33 40 33 76 0 49 -25 93 -66 113 -17
9 -83 13 -215 13 l-192 0 -11 45 c-31 125 -36 350 -10 475 21 101 -5 90 205
90 149 0 193 3 219 16 83 39 94 144 20 202 -27 21 -36 22 -282 22 l-255 0 -33
-33z"/>
<path d="M1499 7342 c-39 -18 -755 -709 -799 -770 l-25 -35 0 -411 c0 -449 1
-458 57 -515 61 -62 74 -65 292 -69 242 -5 296 1 336 34 43 37 57 91 35 137
-32 68 -46 72 -270 72 l-200 0 0 334 0 334 76 71 c42 39 183 174 313 300 l236
228 262 -254 c145 -140 286 -275 313 -300 l50 -47 3 -330 3 -331 -168 0 c-199
-1 -238 -8 -277 -51 -25 -28 -28 -38 -24 -81 6 -58 35 -93 87 -108 47 -13 413
-12 471 1 60 14 108 52 133 108 20 44 22 65 25 424 2 209 1 400 -3 425 -6 45
-15 56 -183 222 -322 319 -624 602 -658 616 -41 17 -41 17 -85 -4z"/>
<path d="M8631 7339 c-18 -11 -140 -125 -270 -252 -130 -128 -298 -293 -374
-367 -77 -74 -146 -148 -154 -165 -14 -26 -16 -89 -16 -445 -1 -406 0 -416 21
-457 28 -54 76 -90 138 -103 33 -7 278 -10 739 -8 l690 3 42 22 c51 27 96 82
112 132 17 59 15 801 -3 844 -11 27 -298 314 -694 693 -134 128 -166 143 -231
103z m442 -663 l237 -228 0 -329 0 -329 -540 -2 c-297 -1 -577 -3 -622 -3
l-83 0 -3 332 -2 331 311 302 312 301 76 -73 c42 -41 183 -177 314 -302z"/>
<path d="M8310 6373 c-56 -50 -51 -150 10 -193 27 -19 46 -20 360 -20 363 0
375 2 405 60 8 16 15 48 15 71 0 33 -6 47 -34 75 l-34 34 -346 0 -346 0 -30
-27z"/>
<path d="M3325 7226 c-161 -39 -277 -156 -320 -323 -13 -50 -15 -269 -15
-1641 0 -1768 -4 -1667 69 -1779 67 -103 156 -170 266 -199 41 -11 371 -14
1796 -14 1722 0 1748 0 1812 20 75 23 174 86 209 133 14 17 37 56 52 84 56
112 56 105 56 1016 0 811 -1 839 -20 876 -34 68 -130 91 -183 44 -48 -43 -47
-29 -47 -914 0 -628 -3 -842 -12 -873 -16 -52 -72 -108 -124 -124 -64 -19
-3452 -17 -3497 1 -52 22 -103 87 -117 148 -13 63 -11 2572 3 2586 5 4 850 9
1878 10 l1869 2 0 -155 c0 -176 9 -212 62 -244 43 -26 77 -25 119 3 71 47 70
38 67 557 l-3 465 -37 77 c-43 91 -111 164 -187 202 -116 59 -9 56 -1906 55
-1336 -1 -1752 -4 -1790 -13z m3516 -237 c63 -14 132 -76 148 -135 6 -22 11
-105 11 -186 l0 -148 -1881 0 -1881 0 4 158 c3 139 6 162 27 205 25 52 78 94
133 107 55 13 3378 12 3439 -1z"/>
<path d="M4604 6889 c-70 -20 -115 -100 -94 -166 38 -116 171 -140 240 -43 74
104 -23 244 -146 209z"/>
<path d="M3552 6856 c-36 -33 -37 -37 -37 -101 0 -63 2 -68 32 -96 61 -53 135
-51 189 7 58 61 54 136 -12 194 -29 25 -43 30 -84 30 -43 0 -56 -5 -88 -34z"/>
<path d="M4054 6857 c-66 -60 -56 -171 19 -217 78 -48 184 3 203 99 8 40 -26
111 -65 134 -16 9 -49 17 -75 17 -38 0 -52 -6 -82 -33z"/>
<path d="M1223 6403 c-37 -7 -80 -59 -88 -103 -21 -123 128 -198 212 -106 56
61 56 112 0 172 -32 35 -75 48 -124 37z"/>
<path d="M1795 6396 c-45 -20 -67 -50 -72 -99 -9 -76 49 -147 121 -147 38 0
93 35 111 70 33 64 4 149 -60 176 -42 17 -61 17 -100 0z"/>
<path d="M3721 6047 c-19 -7 -43 -24 -53 -38 -22 -30 -198 -542 -198 -576 0
-32 25 -78 52 -97 12 -9 40 -16 61 -16 32 0 46 7 77 38 30 30 45 60 80 167 23
72 56 167 72 213 l30 82 287 0 c258 0 290 2 320 18 35 19 71 72 71 105 0 37
-31 79 -73 98 -39 17 -69 19 -367 18 -225 0 -335 -4 -359 -12z"/>
<path d="M4953 5845 c-83 -36 -91 -170 -13 -210 22 -11 181 -14 851 -16 756
-2 827 -1 856 14 82 43 82 157 0 207 -31 19 -56 20 -847 20 -671 -1 -821 -3
-847 -15z"/>
<path d="M4197 5360 c-114 -20 -214 -95 -265 -200 -22 -45 -28 -72 -30 -145
-5 -124 19 -188 102 -271 100 -100 226 -134 353 -96 132 40 215 119 253 241
36 113 20 217 -48 320 -78 117 -221 176 -365 151z m120 -257 c76 -36 88 -142
22 -197 -54 -46 -133 -31 -176 33 -41 61 -26 121 41 162 38 23 67 24 113 2z"/>
<path d="M5037 5111 c-80 -6 -90 -9 -117 -37 -39 -39 -48 -89 -25 -138 33 -70
-15 -67 894 -66 473 0 830 4 844 9 13 5 36 24 50 41 47 55 29 142 -36 177 -30
17 -85 18 -777 19 -410 1 -784 -2 -833 -5z"/>
<path d="M3533 5094 c-33 -16 -63 -66 -63 -104 0 -36 31 -90 61 -105 81 -42
169 15 169 110 0 26 -8 44 -32 70 -40 43 -88 53 -135 29z"/>
<path d="M832 4940 c-57 -13 -108 -55 -136 -111 l-26 -53 0 -395 c0 -236 4
-411 10 -432 8 -29 61 -87 243 -265 381 -376 531 -520 557 -538 34 -22 98 -20
138 4 33 20 159 140 579 552 168 165 214 216 222 246 7 23 11 189 11 432 0
393 0 395 -24 445 -27 59 -71 100 -124 115 -44 12 -1399 12 -1450 0z m1339
-569 l-3 -339 -217 -214 c-119 -117 -255 -252 -304 -300 -48 -49 -91 -88 -95
-88 -5 0 -118 107 -253 238 -134 130 -274 266 -311 301 l-68 64 0 332 c0 182
3 335 7 338 3 4 286 7 627 7 l621 0 -4 -339z"/>
<path d="M1193 4294 c-35 -17 -63 -67 -63 -111 0 -34 31 -88 60 -103 14 -7
128 -10 366 -8 l346 3 29 33 c22 25 29 42 29 75 0 50 -30 104 -66 117 -14 6
-162 10 -347 10 -272 0 -327 -3 -354 -16z"/>
<path d="M7985 4945 c-5 -2 -22 -6 -38 -9 -15 -4 -45 -23 -67 -42 -67 -61 -70
-81 -70 -525 0 -212 3 -402 6 -420 6 -28 64 -90 323 -344 417 -410 474 -463
505 -471 97 -24 193 77 156 165 -6 16 -175 188 -376 383 l-364 353 0 338 0
337 194 0 c184 0 195 1 227 23 79 53 72 159 -13 197 -38 18 -66 20 -258 19
-118 0 -219 -2 -225 -4z"/>
<path d="M8913 4939 c-70 -21 -104 -105 -67 -169 33 -55 54 -60 268 -60 l196
0 0 -348 0 -347 -27 -40 c-37 -55 -43 -130 -13 -168 32 -41 76 -60 118 -52 42
8 145 105 167 159 12 29 15 108 15 450 l0 414 -28 53 c-17 34 -44 65 -71 84
l-43 30 -241 2 c-133 1 -256 -2 -274 -8z"/>
<path d="M3545 4656 c-41 -18 -65 -57 -65 -105 0 -38 148 -490 183 -557 32
-61 49 -64 416 -64 313 0 334 1 371 20 64 33 87 99 55 160 -27 53 -37 55 -359
60 l-299 5 -77 217 c-43 120 -83 225 -90 234 -18 20 -64 44 -87 44 -10 -1 -32
-7 -48 -14z"/>
<path d="M4953 4361 c-43 -20 -73 -62 -73 -101 0 -39 29 -89 62 -110 33 -20
44 -20 866 -18 l834 3 34 37 c28 31 34 46 34 82 0 51 -27 92 -76 112 -27 12
-176 14 -836 14 -767 0 -805 -1 -845 -19z"/>
<path d="M8343 4300 c-81 -41 -92 -145 -22 -205 58 -48 113 -45 165 10 41 43
50 87 27 133 -36 72 -102 96 -170 62z"/>
<path d="M8921 4284 c-61 -51 -60 -142 3 -192 105 -82 243 39 181 158 -22 42
-53 60 -106 60 -36 0 -55 -6 -78 -26z"/>
<path d="M8980 3678 c-34 -19 -70 -75 -70 -112 0 -64 65 -136 123 -136 34 0
89 33 108 64 49 80 0 183 -91 192 -26 3 -55 -1 -70 -8z"/>
<path d="M894 2761 c-111 -11 -173 -60 -214 -168 -20 -55 -21 -71 -17 -318 2
-164 8 -274 16 -297 18 -56 96 -155 149 -189 26 -16 76 -39 111 -49 59 -19 94
-20 567 -20 312 0 522 -4 552 -10 60 -13 113 -56 141 -113 51 -106 4 -206
-108 -227 -75 -14 -1029 -13 -1085 1 -27 7 -57 24 -76 44 -30 31 -34 42 -40
115 -8 86 -20 109 -74 137 -60 31 -137 -15 -151 -91 -4 -18 -5 -172 -3 -342 3
-299 4 -311 26 -356 13 -25 43 -64 67 -87 78 -72 66 -71 801 -71 637 0 655 1
709 21 71 26 104 55 140 121 l30 53 7 260 c4 143 10 292 14 332 9 112 -20 196
-94 275 l-35 37 38 42 c20 23 49 67 64 98 23 50 26 68 26 166 0 127 -7 146
-83 223 -110 111 -396 378 -423 395 -27 18 -61 19 -507 22 -262 2 -509 0 -548
-4z m903 -246 c7 -2 12 -49 15 -142 6 -222 17 -233 254 -233 l157 0 -6 -40
c-7 -56 -31 -88 -80 -111 -40 -17 -73 -19 -570 -19 -570 0 -568 0 -622 54 -19
19 -25 35 -25 71 l0 45 113 0 c93 0 117 3 143 19 42 25 60 78 44 125 -18 57
-43 66 -180 66 l-120 0 0 80 c0 44 1 81 3 82 1 1 173 5 382 8 353 5 463 4 492
-5z m-242 -1400 c319 0 595 3 613 7 l32 8 0 -54 c0 -39 -6 -60 -21 -80 l-20
-26 -603 0 c-466 0 -606 3 -618 13 -11 8 -19 36 -24 81 l-7 68 34 -8 c19 -5
295 -9 614 -9z"/>
<path d="M1470 2342 c-45 -22 -62 -56 -56 -112 10 -104 139 -135 200 -48 36
51 9 139 -49 164 -44 18 -53 18 -95 -4z"/>
<path d="M4467 2760 c-108 -11 -179 -72 -212 -183 -22 -75 -21 -502 1 -577 33
-113 119 -202 244 -256 42 -17 82 -19 585 -24 l541 -5 49 -26 c73 -37 110 -94
110 -169 0 -67 -20 -102 -76 -135 -33 -19 -55 -20 -548 -23 -340 -2 -531 1
-566 8 -37 8 -61 20 -85 45 -30 31 -34 42 -39 109 -7 88 -29 124 -85 145 -33
13 -41 12 -72 -2 -19 -9 -43 -31 -54 -49 -20 -32 -20 -47 -18 -363 3 -310 4
-333 24 -375 26 -58 76 -108 134 -134 44 -20 60 -21 685 -24 664 -3 720 -1
795 38 42 22 91 72 116 120 16 30 20 71 27 300 14 471 16 427 -20 500 -17 36
-48 84 -68 107 l-37 43 31 26 c17 14 48 60 68 102 37 73 38 80 38 181 0 97 -2
110 -27 153 -28 47 -402 415 -458 451 -29 19 -55 20 -523 22 -271 1 -523 -1
-560 -5z m1041 -309 c135 -122 250 -245 267 -285 11 -27 13 -46 6 -77 -11 -50
-34 -76 -86 -100 -37 -17 -77 -19 -555 -19 -319 0 -529 4 -552 10 -53 15 -98
70 -98 120 l0 40 130 0 c147 0 179 10 206 61 22 43 11 91 -27 123 -30 25 -35
26 -170 26 l-139 0 0 74 c0 49 4 78 13 83 6 4 208 10 447 13 239 3 443 6 453
8 10 1 55 -32 105 -77z m-354 -1339 c451 2 586 6 604 16 22 13 22 12 22 -57 0
-61 -3 -72 -22 -85 -20 -14 -96 -16 -626 -16 -397 0 -610 4 -623 10 -16 9 -19
22 -19 84 l0 74 41 -15 c34 -11 141 -13 623 -11z"/>
<path d="M5083 2345 c-92 -40 -76 -186 23 -211 42 -11 103 13 124 49 38 61 17
127 -50 162 -35 18 -56 18 -97 0z"/>
<path d="M8125 2760 c-170 -5 -190 -11 -248 -64 -16 -14 -38 -47 -50 -74 -21
-45 -22 -60 -22 -342 l0 -295 28 -56 c34 -70 109 -142 185 -177 l57 -27 560
-5 c600 -6 592 -5 649 -58 109 -102 77 -264 -59 -292 -34 -7 -228 -10 -571 -8
-593 3 -560 -1 -621 93 -56 88 -76 105 -128 105 -55 0 -90 -29 -100 -82 -4
-19 -5 -153 -3 -299 3 -237 5 -268 22 -299 36 -67 68 -100 124 -127 l57 -28
655 -3 c446 -2 671 1 707 8 70 15 141 64 178 124 l30 49 8 276 c13 429 13 419
-12 484 -13 33 -42 82 -66 111 l-42 52 43 47 c63 70 86 140 87 262 0 83 -3
107 -20 140 -20 38 -421 433 -476 469 -20 14 -80 17 -418 19 -217 2 -466 0
-554 -3z m847 -252 c4 -7 8 -60 8 -118 -2 -188 -3 -179 34 -216 l34 -34 152 0
153 0 -7 -41 c-9 -56 -37 -93 -86 -113 -35 -14 -106 -16 -571 -16 -568 0 -569
0 -616 51 -13 15 -22 41 -25 71 l-3 47 138 3 139 3 29 33 c41 45 41 102 0 143
l-29 29 -136 0 -136 0 0 74 c0 49 4 78 13 83 11 7 773 22 861 17 21 -1 43 -8
48 -16z m-287 -1393 c325 0 605 4 624 9 l33 8 -4 -67 c-3 -51 -9 -71 -23 -81
-27 -20 -1197 -20 -1235 -1 -23 11 -25 19 -28 85 l-3 73 23 -13 c18 -10 145
-13 613 -13z"/>
<path d="M8630 2342 c-20 -9 -44 -33 -55 -54 -18 -34 -19 -40 -5 -80 38 -110
201 -97 217 18 7 54 -17 101 -62 120 -44 18 -53 18 -95 -4z"/>
<path d="M3335 2294 c-69 -23 -100 -91 -72 -155 17 -37 29 -51 216 -241 l124
-127 -170 -174 c-193 -197 -200 -208 -161 -285 19 -38 31 -50 65 -62 38 -13
46 -12 77 3 35 16 450 429 473 470 17 30 16 62 -3 98 -14 29 -397 430 -436
457 -35 25 -73 30 -113 16z"/>
<path d="M6665 2278 c-42 -33 -58 -80 -45 -129 9 -33 44 -74 177 -210 l167
-170 -167 -167 c-91 -92 -170 -180 -176 -195 -34 -90 74 -196 155 -154 16 9
129 116 252 240 l222 224 0 51 0 51 -124 133 c-68 73 -173 181 -233 241 -107
104 -111 107 -155 107 -31 0 -54 -7 -73 -22z"/>
<path d="M3101 1893 c-117 -58 -78 -243 51 -243 45 0 78 19 105 59 44 65 18
157 -52 187 -44 18 -62 17 -104 -3z"/>
<path d="M6444 1891 c-64 -29 -89 -96 -60 -165 20 -49 60 -76 114 -76 38 0 50
5 83 39 33 33 39 45 39 82 0 56 -30 106 -75 125 -44 18 -51 18 -101 -5z"/>
</g>
</svg>
