<?xml version="1.0" standalone="no"?>
<!DOCTYPE svg PUBLIC "-//W3C//DTD SVG 20010904//EN"
 "http://www.w3.org/TR/2001/REC-SVG-20010904/DTD/svg10.dtd">
<svg version="1.0" xmlns="http://www.w3.org/2000/svg"
 width="1024.000000pt" height="1024.000000pt" viewBox="0 0 1024.000000 1024.000000"
 preserveAspectRatio="xMidYMid meet">
<metadata>
Created by potrace 1.16, written by Peter Selinger 2001-2019
</metadata>
<g transform="translate(0.000000,1024.000000) scale(0.100000,-0.100000)"
fill="#000000" stroke="none">
<path d="M4377 9166 c-80 -22 -135 -76 -157 -155 -6 -22 -10 -288 -10 -706 l0
-670 24 -51 c27 -58 89 -115 143 -132 54 -16 1409 -17 1464 -1 55 17 118 74
145 133 l24 51 0 665 c0 428 -4 678 -10 702 -16 57 -69 120 -125 148 l-50 25
-700 2 c-552 2 -710 -1 -748 -11z m806 -196 c31 -24 50 -78 41 -114 -8 -35
-48 -72 -85 -80 -62 -12 -129 42 -129 104 0 29 26 76 52 94 31 22 90 20 121
-4z m616 5 c16 -8 34 -28 41 -44 26 -65 14 -83 -198 -294 -109 -108 -211 -201
-226 -207 -35 -13 -63 -5 -98 28 -22 20 -28 35 -28 66 0 38 7 47 183 224 245
247 263 260 326 227z m-1149 -410 c80 -42 77 -161 -6 -200 -40 -19 -58 -19
-94 0 -51 26 -76 106 -49 156 14 26 68 59 97 59 13 0 36 -7 52 -15z m1038
-303 c58 -38 69 -122 23 -171 -25 -27 -36 -31 -78 -31 -51 0 -82 18 -102 57
-27 54 3 133 62 158 34 15 57 12 95 -13z m-788 -77 c36 -18 50 -43 50 -86 0
-35 -34 -71 -346 -372 -116 -111 -142 -120 -195 -68 -34 35 -39 90 -11 132 17
27 267 270 371 362 57 51 83 57 131 32z m283 -355 c61 -48 51 -151 -18 -184
-41 -20 -58 -20 -95 -1 -40 21 -60 53 -60 98 0 85 107 139 173 87z"/>
<path d="M3655 9111 c-202 -51 -209 -53 -410 -126 -123 -44 -412 -178 -446
-207 -64 -53 -36 -148 43 -148 15 0 87 29 160 64 283 136 576 237 836 287 74
14 102 41 102 100 0 29 -6 42 -26 58 -15 12 -36 21 -48 21 -11 -1 -106 -22
-211 -49z"/>
<path d="M6286 9134 c-47 -48 -24 -125 42 -143 20 -6 82 -22 137 -37 217 -56
470 -151 697 -261 149 -71 159 -75 188 -63 61 25 81 97 37 138 -59 55 -438
222 -662 290 -129 40 -369 102 -393 102 -11 0 -31 -12 -46 -26z"/>
<path d="M6631 8500 c-47 -11 -82 -40 -111 -91 l-25 -44 0 -431 0 -430 -30
-36 c-16 -20 -64 -76 -106 -125 -108 -125 -129 -161 -136 -227 -11 -103 61
-203 177 -247 48 -18 93 -19 1033 -19 1104 0 1040 -4 1121 74 28 28 51 63 65
102 41 107 16 167 -150 358 l-104 119 3 395 c4 458 1 482 -61 547 -26 27 -57
47 -82 54 -47 13 -1539 14 -1594 1z m1527 -192 c9 -9 12 -110 12 -395 l0 -383
-745 0 -745 0 0 379 c0 332 2 382 16 395 14 14 94 16 733 16 544 0 720 -3 729
-12z m186 -1049 c106 -125 115 -142 95 -177 -8 -15 -30 -35 -49 -44 -33 -17
-100 -18 -968 -18 l-934 0 -34 34 c-19 19 -34 44 -34 56 0 23 77 126 154 208
l40 42 825 -2 825 -3 80 -96z"/>
<path d="M6846 8078 c-9 -12 -16 -34 -16 -48 0 -14 7 -36 16 -48 15 -22 16
-22 328 -22 l313 0 21 23 c27 29 29 78 4 100 -16 15 -55 17 -335 17 -315 0
-316 0 -331 -22z"/>
<path d="M7666 8078 c-23 -32 -20 -71 7 -96 22 -21 33 -22 174 -22 l152 0 20
26 c25 32 27 61 5 92 -15 21 -21 22 -179 22 -158 0 -164 -1 -179 -22z"/>
<path d="M6850 7800 c-29 -29 -30 -72 -3 -102 15 -17 47 -18 399 -18 l383 0
15 22 c22 30 20 81 -2 101 -17 15 -59 17 -395 17 -364 0 -378 -1 -397 -20z"/>
<path d="M7806 7812 c-13 -22 -17 -91 -7 -111 11 -20 18 -22 112 -19 96 3 101
4 116 29 18 29 12 68 -13 93 -12 12 -37 16 -109 16 -52 0 -96 -4 -99 -8z"/>
<path d="M6662 7282 c-22 -3 -92 -84 -92 -107 0 -6 8 -19 18 -28 17 -16 90
-17 844 -17 l825 0 21 23 22 23 -33 47 c-17 26 -42 50 -55 53 -23 6 -1509 12
-1550 6z"/>
<path d="M1869 8473 c-35 -19 -64 -43 -84 -71 -29 -42 -30 -50 -35 -170 -3
-70 -5 -363 -4 -652 1 -581 0 -569 67 -638 46 -48 78 -62 149 -65 l63 -3 142
-159 c95 -106 150 -161 165 -163 19 -2 40 16 103 90 44 51 110 125 147 164
l67 71 258 1 c142 0 348 1 458 1 l201 1 54 33 c44 25 61 43 83 87 l27 56 0
629 c0 376 -4 644 -10 665 -14 50 -62 104 -115 129 -45 21 -50 21 -863 21
l-818 0 -55 -27z m1379 -222 c89 -45 128 -129 120 -259 -4 -66 -11 -92 -46
-165 -60 -123 -100 -142 -146 -72 -17 25 -16 29 13 111 18 48 31 105 31 131 0
38 -5 50 -34 79 -30 30 -40 34 -87 34 -42 0 -71 -9 -134 -40 -86 -43 -116 -48
-135 -25 -43 52 104 191 236 224 55 14 135 6 182 -18z m-708 -275 c102 -100
193 -187 202 -194 15 -11 27 -5 90 49 71 60 202 134 220 123 13 -8 9 -72 -6
-102 -8 -15 -44 -56 -81 -92 -37 -36 -71 -72 -76 -82 -9 -16 91 -120 364 -380
l77 -73 -74 -74 -75 -74 -138 129 c-76 70 -182 171 -235 223 l-97 94 -53 -48
c-96 -87 -233 -163 -255 -141 -21 20 52 143 136 231 l55 57 -80 76 c-155 149
-404 396 -404 401 0 3 32 38 72 78 l72 72 50 -46 c28 -26 134 -128 236 -227z
m-266 -454 c31 -46 32 -56 6 -124 -11 -29 -20 -75 -20 -101 0 -43 5 -54 35
-84 33 -33 39 -35 83 -31 26 3 86 23 136 46 49 23 94 42 101 42 6 0 17 -16 23
-37 10 -31 8 -40 -9 -64 -121 -171 -381 -207 -478 -66 -64 95 -67 197 -9 319
34 70 81 138 98 138 4 0 19 -17 34 -38z"/>
<path d="M5033 7154 c-40 -20 -45 -33 -52 -119 l-6 -70 -310 -6 c-236 -4 -326
-10 -379 -22 -396 -94 -655 -226 -872 -443 -187 -187 -309 -406 -378 -679 -38
-150 -46 -252 -43 -567 l2 -286 24 -26 c37 -39 90 -52 129 -32 60 31 62 44 62
369 0 214 4 317 15 378 85 491 385 831 883 1003 197 68 264 78 585 83 l287 5
0 -109 0 -108 -87 -24 c-240 -65 -437 -143 -641 -253 -135 -73 -162 -105 -143
-168 6 -22 23 -48 38 -59 46 -37 87 -28 250 53 81 40 200 94 263 119 110 44
278 97 306 97 10 0 13 -52 16 -259 3 -242 4 -260 23 -281 11 -12 32 -29 48
-36 25 -13 32 -13 70 4 23 11 90 59 148 108 59 49 242 199 408 333 167 134
305 250 308 258 10 26 -14 60 -79 109 -58 45 -147 116 -616 495 -96 78 -184
142 -200 144 -15 3 -41 -2 -59 -11z"/>
<path d="M1303 7078 c-34 -39 -108 -186 -166 -333 -53 -133 -127 -361 -127
-390 0 -7 12 -27 26 -44 29 -35 59 -39 103 -16 33 16 28 7 91 190 56 164 87
238 165 398 62 128 64 148 20 193 -32 32 -84 32 -112 2z"/>
<path d="M8785 7074 c-37 -40 -32 -80 21 -187 57 -113 143 -332 178 -451 29
-102 47 -133 82 -146 38 -15 50 -12 83 16 42 35 41 63 -15 235 -67 209 -204
518 -241 547 -29 21 -81 15 -108 -14z"/>
<path d="M6233 6759 c-38 -19 -63 -52 -63 -85 0 -38 33 -84 73 -103 23 -10 82
-37 130 -60 190 -87 387 -242 496 -390 93 -126 152 -269 192 -469 19 -95 22
-151 26 -484 6 -480 -6 -606 -81 -828 -89 -259 -250 -467 -518 -668 -110 -82
-128 -103 -128 -147 0 -74 69 -127 139 -107 59 18 236 155 362 281 221 222
332 435 407 780 l27 126 0 500 c0 486 -1 503 -23 610 -32 149 -63 239 -127
371 -97 200 -239 358 -444 495 -115 78 -185 115 -293 158 -105 41 -128 43
-175 20z"/>
<path d="M8445 6485 c-19 -18 -25 -35 -25 -68 l0 -45 -65 -4 c-74 -4 -94 -21
-95 -75 0 -54 30 -75 100 -71 l58 3 5 -49 c5 -57 24 -76 74 -76 46 0 73 30 73
80 l0 40 49 0 c93 0 137 75 76 128 -23 19 -37 23 -79 21 l-51 -3 0 53 c0 43
-4 56 -24 72 -32 26 -67 24 -96 -6z"/>
<path d="M1675 6401 c-113 -16 -181 -89 -199 -213 l-7 -48 -156 0 c-139 0
-162 -2 -200 -21 -48 -23 -84 -65 -102 -118 -16 -50 -16 -1657 1 -1713 15 -52
77 -114 125 -126 22 -6 308 -9 698 -8 l660 1 42 22 c46 25 79 66 94 116 6 19
10 354 10 864 0 902 1 872 -54 932 -41 44 -75 51 -250 51 l-164 0 -7 48 c-10
74 -60 149 -124 185 -51 28 -60 30 -185 33 -73 1 -154 -1 -182 -5z m277 -201
c16 -16 28 -38 26 -47 -3 -16 -20 -18 -161 -21 l-157 -3 0 24 c0 23 31 59 60
70 8 3 57 6 108 6 91 1 94 0 124 -29z m512 -277 c-1 -7 -2 -327 -2 -712 l-2
-698 -637 1 -638 1 -3 670 c-2 369 0 689 3 713 l6 42 637 -2 c502 -2 637 -6
636 -15z m-599 -1518 c48 -47 18 -135 -46 -135 -42 0 -82 40 -82 80 0 24 7 40
27 57 35 30 71 29 101 -2z"/>
<path d="M1346 5774 c-22 -22 -21 -87 2 -107 17 -15 65 -17 480 -17 405 0 462
2 476 16 25 24 31 64 15 93 l-15 26 -471 3 c-419 2 -473 0 -487 -14z"/>
<path d="M1351 5491 c-30 -30 -31 -73 -4 -103 14 -16 39 -18 228 -18 237 0
245 2 245 71 0 65 3 64 -234 67 -206 3 -216 2 -235 -17z"/>
<path d="M1970 5490 c-24 -24 -27 -82 -4 -104 13 -13 43 -16 173 -16 138 0
160 2 174 18 27 30 26 73 -3 102 -18 18 -33 20 -170 20 -137 0 -152 -2 -170
-20z"/>
<path d="M1340 5120 l0 -100 110 0 110 0 0 100 0 100 -110 0 -110 0 0 -100z"/>
<path d="M1730 5120 l0 -100 110 0 110 0 0 100 0 100 -110 0 -110 0 0 -100z"/>
<path d="M2138 5213 l-38 -4 0 -93 0 -93 114 -2 114 -2 -2 98 -1 98 -75 1
c-41 1 -92 -1 -112 -3z"/>
<path d="M1340 4770 l0 -100 110 0 110 0 0 100 0 100 -110 0 -110 0 0 -100z"/>
<path d="M1730 4772 l0 -98 110 -3 110 -3 0 101 0 101 -110 0 -110 0 0 -98z"/>
<path d="M2100 4776 l0 -95 108 -3 c59 -2 110 -2 115 0 4 2 7 46 7 98 l0 94
-115 0 -115 0 0 -94z"/>
<path d="M7900 5919 c-33 -13 -68 -47 -88 -84 -15 -26 -17 -78 -20 -397 -3
-392 0 -425 44 -478 39 -46 61 -54 160 -60 l91 -5 -32 -145 c-51 -229 -94
-441 -101 -491 -5 -42 -3 -50 23 -78 31 -34 64 -43 105 -29 57 20 58 23 163
526 25 118 45 216 45 218 0 2 80 4 178 4 l178 0 69 -347 c37 -192 74 -358 82
-370 16 -27 68 -43 107 -32 41 12 76 48 76 79 0 28 -47 266 -99 504 -17 77
-31 145 -31 152 0 8 29 13 88 16 113 6 165 31 193 93 18 40 19 70 19 419 0
349 -1 380 -18 420 -11 24 -35 54 -53 67 l-34 24 -560 2 c-360 1 -569 -2 -585
-8z m521 -286 l50 -47 22 26 c59 71 163 90 227 43 66 -48 94 -128 70 -199 -14
-43 -293 -336 -320 -336 -19 0 -280 264 -311 315 -28 45 -25 112 8 162 36 56
85 82 151 83 49 0 56 -3 103 -47z"/>
<path d="M4765 5903 c-11 -2 -27 -7 -35 -10 -8 -4 -17 -7 -20 -7 -22 -4 -294
-132 -315 -148 -5 -5 -36 -26 -68 -47 -128 -85 -333 -282 -407 -391 -8 -12
-19 -28 -25 -34 -12 -14 -75 -108 -104 -158 -12 -21 -20 -42 -17 -47 3 -5 131
-94 283 -197 153 -103 308 -209 344 -236 37 -26 69 -48 72 -48 3 0 39 32 79
72 82 81 194 157 272 187 30 11 102 27 160 36 123 18 271 8 376 -24 182 -57
360 -222 438 -408 12 -28 22 -58 22 -65 -1 -7 -60 -58 -132 -113 -176 -134
-208 -163 -208 -190 0 -25 29 -55 52 -55 9 0 152 51 319 113 167 63 363 135
434 161 172 64 233 93 246 119 7 12 61 97 120 188 114 174 125 203 89 239 -34
34 -45 29 -190 -92 -50 -43 -96 -78 -101 -78 -5 0 -9 36 -9 79 0 139 -51 344
-121 483 -88 177 -245 359 -406 471 -146 101 -287 173 -315 160 -10 -4 -90
-71 -178 -148 -196 -171 -237 -195 -329 -195 -83 0 -136 23 -195 85 -54 55
-81 123 -91 228 -4 42 -10 76 -14 76 -3 -1 -15 -3 -26 -6z"/>
<path d="M3798 4725 c-22 -12 -65 -91 -208 -378 -99 -199 -205 -410 -236 -469
-53 -100 -55 -108 -42 -135 23 -50 53 -43 240 52 94 47 172 84 175 81 3 -3 18
-43 34 -91 154 -458 545 -817 1033 -950 189 -51 237 -55 833 -55 516 0 553 1
562 18 9 17 5 1211 -4 1220 -2 3 -64 -23 -137 -56 -324 -147 -610 -211 -892
-199 -196 8 -344 46 -516 132 -91 45 -200 116 -200 129 0 5 66 7 170 3 160 -5
171 -4 195 15 39 31 31 74 -20 111 -22 16 -206 133 -410 259 -203 126 -399
249 -436 273 -78 52 -105 60 -141 40z"/>
<path d="M1687 4052 c-9 -10 -20 -40 -23 -65 l-7 -47 -58 0 c-51 0 -60 -3 -79
-27 -15 -20 -19 -34 -14 -57 11 -53 30 -66 98 -66 l61 0 1 -52 c0 -41 5 -55
23 -70 54 -43 111 -9 119 70 l5 52 53 0 c45 0 56 4 73 26 12 15 21 37 21 49 0
12 -9 34 -21 49 -18 22 -28 26 -75 26 l-54 0 0 44 c0 36 -5 48 -26 65 -33 26
-76 27 -97 3z"/>
<path d="M8447 4053 c-8 -10 -18 -39 -22 -65 l-7 -48 -55 0 c-45 0 -58 -4 -80
-26 -20 -20 -24 -31 -19 -57 10 -47 29 -60 96 -65 l60 -4 0 -45 c0 -77 67
-118 121 -74 19 15 24 29 24 70 l0 51 55 0 c76 0 100 18 100 75 0 56 -24 75
-97 75 l-53 0 0 43 c0 33 -6 49 -23 65 -28 27 -78 29 -100 5z"/>
<path d="M1065 3950 c-32 -13 -49 -39 -48 -76 1 -46 94 -332 150 -462 95 -225
134 -282 190 -282 34 0 83 51 83 86 0 15 -25 81 -55 147 -57 122 -115 269
-155 392 -48 149 -61 175 -90 190 -32 17 -45 18 -75 5z"/>
<path d="M9059 3945 c-30 -16 -34 -26 -84 -182 -42 -131 -118 -319 -175 -433
-48 -95 -51 -136 -14 -174 32 -32 72 -34 107 -5 76 59 315 676 292 750 -7 22
-61 59 -85 59 -8 -1 -27 -7 -41 -15z"/>
<path d="M2370 3812 c-112 -37 -188 -106 -244 -222 -28 -59 -31 -73 -31 -165
0 -93 2 -105 32 -165 41 -83 120 -162 203 -203 60 -30 72 -32 165 -32 97 0
104 2 177 38 215 106 292 364 171 573 -34 60 -114 131 -181 162 -76 35 -210
41 -292 14z"/>
<path d="M7614 3821 c-101 -25 -216 -119 -260 -215 -79 -173 -42 -351 102
-485 96 -90 221 -121 351 -87 205 52 320 205 311 414 -2 71 -8 98 -31 144 -78
159 -204 239 -371 237 -39 -1 -85 -4 -102 -8z"/>
<path d="M1642 2898 c-106 -18 -209 -116 -244 -232 -5 -17 -8 -317 -8 -673 0
-698 -1 -682 56 -765 16 -22 48 -56 73 -74 87 -67 28 -64 1262 -64 704 0 1127
4 1143 10 15 5 34 25 43 44 14 29 14 39 3 66 -7 17 -22 36 -33 41 -11 6 -73
10 -143 10 -82 -1 -124 2 -124 9 0 6 9 28 20 50 12 24 20 59 20 90 l0 50 83 1
c119 1 139 5 165 34 28 33 28 74 1 109 -20 25 -23 26 -135 26 l-114 0 0 223 0
223 35 34 c72 70 95 179 56 265 -25 55 -88 109 -152 130 -30 10 -56 19 -57 21
-2 1 -6 29 -9 61 -9 94 -39 161 -102 224 -95 95 -35 89 -979 92 -451 1 -838
-1 -860 -5z m1668 -198 c51 -26 87 -81 101 -154 10 -55 9 -60 -17 -98 l-28
-40 -13 44 c-7 24 -24 55 -39 68 l-26 25 -751 3 c-538 2 -760 -1 -779 -9 -15
-6 -35 -23 -45 -38 -16 -24 -18 -59 -21 -381 -2 -195 0 -411 3 -479 7 -112 9
-126 31 -148 l23 -23 770 0 769 0 31 26 31 26 2 330 3 331 27 -39 c15 -22 52
-54 81 -72 l54 -33 -1 -242 c-1 -133 2 -266 5 -295 3 -29 1 -55 -3 -58 -5 -3
-6 -10 -2 -15 22 -37 -45 -133 -106 -149 -59 -16 -87 0 -101 55 -12 49 -26 61
-74 66 -52 6 -94 -18 -101 -57 -3 -19 -4 -43 -1 -54 5 -20 -1 -20 -715 -20
l-720 0 -40 22 c-23 13 -51 41 -65 66 l-25 42 1 533 c0 292 1 564 1 603 0 84
22 125 85 161 l40 23 788 0 c771 0 789 0 827 -20z m-132 -682 l-3 -363 -652
-3 -653 -2 0 365 0 365 655 0 655 0 -2 -362z m447 307 c64 -63 -19 -151 -93
-99 -32 22 -30 76 4 103 35 27 59 26 89 -4z"/>
<path d="M2032 2208 c-28 -34 -22 -98 12 -120 16 -11 211 -9 241 2 24 9 26 13
23 67 l-3 58 -131 3 c-97 2 -134 -1 -142 -10z"/>
<path d="M2457 2202 c-23 -25 -21 -78 3 -102 19 -19 33 -20 275 -20 l256 0 24
25 c29 28 32 61 9 93 -15 22 -18 22 -283 22 -247 0 -269 -1 -284 -18z"/>
<path d="M2032 1917 c-26 -27 -28 -64 -6 -95 15 -21 21 -22 194 -22 173 0 179
1 194 22 22 31 20 74 -4 98 -18 18 -33 20 -188 20 -163 0 -169 -1 -190 -23z"/>
<path d="M2576 1927 c-9 -7 -19 -28 -22 -48 -5 -29 -2 -41 15 -58 20 -20 31
-21 224 -21 200 0 204 0 225 23 29 31 29 81 0 101 -18 13 -57 16 -224 16 -141
-1 -206 -4 -218 -13z"/>
<path d="M7055 2899 c-97 -12 -180 -76 -230 -177 -30 -61 -34 -96 -35 -327 l0
-161 -57 -12 c-65 -13 -149 -65 -182 -111 -57 -79 -65 -115 -69 -303 l-4 -178
-95 0 c-86 0 -96 -2 -118 -25 -28 -27 -32 -63 -10 -104 19 -38 31 -41 136 -41
l89 0 0 -47 c0 -27 9 -67 20 -91 10 -23 19 -46 20 -50 0 -9 -2 -9 -114 -11
-83 -1 -98 -4 -121 -24 -39 -33 -39 -91 -1 -123 l27 -24 1033 0 c1132 0 1084
-2 1178 60 53 35 91 86 119 160 19 50 20 80 21 678 1 345 -2 643 -7 662 -20
91 -103 194 -188 231 l-52 23 -655 1 c-360 0 -678 -2 -705 -6z m1339 -202 c25
-14 48 -39 63 -66 l23 -44 0 -591 0 -592 -22 -44 c-13 -24 -36 -53 -51 -64
-28 -21 -41 -21 -653 -24 -409 -1 -639 1 -664 8 -46 12 -95 64 -109 117 -7 25
-11 243 -11 614 l0 576 23 43 c16 30 37 51 67 67 l43 23 626 0 626 0 39 -23z
m-1599 -994 c0 -292 2 -344 17 -385 l17 -48 -27 0 c-42 0 -87 34 -111 82 -20
42 -21 59 -21 312 0 224 3 272 16 299 20 40 63 77 89 77 20 0 20 -7 20 -337z"/>
<path d="M7253 2535 c-64 -28 -64 -24 -61 -551 l3 -476 33 -29 32 -29 456 0
456 0 34 34 35 35 -3 473 c-3 450 -4 474 -23 502 -37 55 -46 56 -507 56 -338
-1 -429 -4 -455 -15z m812 -277 c-4 -68 -9 -126 -12 -131 -2 -4 -60 45 -129
110 -68 64 -121 120 -117 124 5 5 46 10 93 12 47 1 105 4 129 5 l43 2 -7 -122z
m-227 -142 c29 -30 52 -56 52 -58 0 -2 -98 -101 -217 -221 -182 -182 -221
-217 -246 -217 -41 0 -67 17 -83 56 -13 30 -12 38 0 62 17 31 417 432 432 432
6 0 34 -24 62 -54z"/>
<path d="M4293 2431 c-76 -19 -93 -60 -93 -220 0 -66 5 -131 11 -144 17 -38
56 -53 151 -56 82 -3 88 -1 112 23 55 54 18 136 -60 136 -34 0 -34 1 -34 45
l0 45 735 0 734 0 3 -261 c3 -260 3 -261 27 -280 36 -29 87 -25 122 11 l30 30
-3 304 c-3 287 -4 305 -23 326 -44 48 -22 47 -875 48 -443 0 -820 -3 -837 -7z"/>
<path d="M4934 1633 c-236 -241 -446 -455 -466 -476 -26 -27 -44 -38 -60 -35
-23 3 -23 5 -26 146 l-3 142 40 0 c72 0 106 76 56 125 -22 23 -31 25 -120 25
-94 0 -97 -1 -127 -31 l-31 -31 6 -228 c6 -248 12 -273 64 -307 25 -17 83 -18
838 -21 757 -2 812 -1 845 15 65 34 72 59 77 290 5 271 -6 302 -107 304 -44 1
-47 4 -144 108 -147 156 -398 411 -406 411 -4 0 -200 -197 -436 -437z m854
-264 l63 -67 -3 -88 -3 -89 -60 -3 -60 -3 -123 135 c-176 192 -203 216 -249
216 -36 0 -47 -8 -208 -175 l-170 -175 -150 0 -150 0 345 345 345 345 180
-188 c99 -103 208 -217 243 -253z m-369 -182 l53 -62 -117 -3 c-65 -1 -120 0
-123 2 -5 5 119 126 128 125 3 0 29 -28 59 -62z"/>
<path d="M4263 1862 c-27 -4 -63 -47 -63 -74 0 -60 48 -86 159 -87 79 0 85 1
112 28 36 36 38 79 6 109 -19 18 -37 22 -108 24 -46 2 -94 2 -106 0z"/>
</g>
</svg>
