<?xml version="1.0" standalone="no"?>
<!DOCTYPE svg PUBLIC "-//W3C//DTD SVG 20010904//EN"
 "http://www.w3.org/TR/2001/REC-SVG-20010904/DTD/svg10.dtd">
<svg version="1.0" xmlns="http://www.w3.org/2000/svg"
 width="1024.000000pt" height="1024.000000pt" viewBox="0 0 1024.000000 1024.000000"
 preserveAspectRatio="xMidYMid meet">
<metadata>
Created by potrace 1.16, written by Peter Selinger 2001-2019
</metadata>
<g transform="translate(0.000000,1024.000000) scale(0.100000,-0.100000)"
fill="#000000" stroke="none">
<path d="M6578 9985 c-82 -22 -141 -57 -199 -116 -138 -139 -176 -348 -94
-514 l26 -54 -1 -511 c0 -489 0 -513 19 -556 16 -35 29 -49 63 -64 38 -17 67
-20 264 -20 193 0 223 -2 228 -16 3 -9 6 -52 6 -96 0 -96 16 -129 75 -158 39
-19 63 -20 527 -20 l485 0 33 23 c19 12 43 38 54 57 21 35 21 42 18 935 l-4
900 -21 38 c-41 74 -24 72 -570 74 l-488 3 -32 24 c-105 78 -260 107 -389 71z
m211 -187 c49 -15 120 -84 147 -143 44 -94 22 -218 -52 -287 -100 -94 -278
-94 -378 0 -74 70 -97 193 -52 287 63 134 189 188 335 143z m1106 -143 l0 -50
-70 -3 c-74 -3 -95 -15 -95 -56 0 -40 28 -56 102 -56 l68 0 0 -720 0 -720
-414 0 -414 0 -4 115 c-3 114 -3 115 -36 147 l-32 33 -243 3 c-172 2 -244 7
-249 15 -4 7 -8 184 -8 394 l0 381 45 -13 c165 -50 338 -10 463 108 63 61 97
115 123 198 26 83 24 160 -7 262 -5 16 16 17 383 15 l388 -3 0 -50z"/>
<path d="M6630 9719 c-32 -13 -78 -56 -96 -91 -48 -91 25 -224 133 -244 67
-13 155 32 188 97 30 57 9 156 -41 200 -52 45 -127 61 -184 38z m102 -126 c22
-20 23 -51 1 -75 -20 -22 -51 -23 -75 -1 -22 20 -23 42 -2 71 18 26 50 28 76
5z"/>
<path d="M7497 9592 c-38 -42 0 -102 66 -102 60 0 92 72 45 104 -31 22 -91 20
-111 -2z"/>
<path d="M7185 9334 c-23 -23 -15 -66 15 -81 18 -9 93 -13 266 -13 229 0 243
1 268 21 31 25 33 42 6 69 -19 19 -33 20 -279 20 -226 0 -262 -2 -276 -16z"/>
<path d="M7177 9132 c-22 -24 -21 -45 1 -65 16 -14 43 -17 170 -17 160 0 182
6 182 50 0 44 -22 50 -184 50 -135 0 -155 -2 -169 -18z"/>
<path d="M7176 8908 c-21 -29 -20 -41 3 -62 16 -15 43 -17 212 -16 165 0 195
2 211 17 23 21 23 45 0 66 -16 15 -46 17 -215 17 -191 0 -196 -1 -211 -22z"/>
<path d="M6661 8884 c-18 -23 -21 -41 -21 -124 0 -83 3 -101 21 -124 20 -26
22 -26 149 -26 162 0 160 -2 160 150 0 98 -2 108 -23 128 -21 20 -34 22 -144
22 -119 0 -122 0 -142 -26z"/>
<path d="M7200 8728 c-29 -11 -44 -46 -28 -66 7 -9 18 -20 23 -24 6 -4 121 -8
256 -8 226 0 247 2 262 18 10 10 17 28 17 39 0 45 -18 48 -272 48 -131 0 -247
-3 -258 -7z"/>
<path d="M7176 8454 c-21 -21 -20 -47 2 -67 16 -15 48 -17 238 -17 232 0 244
2 244 46 0 51 -14 54 -250 54 -185 0 -221 -2 -234 -16z"/>
<path d="M7183 8254 c-12 -19 -14 -30 -6 -43 22 -34 55 -41 221 -41 149 0 164
2 182 20 25 25 26 52 2 73 -16 15 -45 17 -200 17 l-182 0 -17 -26z"/>
<path d="M5050 9914 c-194 -22 -358 -84 -497 -189 -103 -76 -216 -214 -282
-340 -28 -53 -30 -64 -21 -92 14 -39 60 -61 94 -45 13 6 58 62 99 124 92 139
190 240 283 291 311 172 680 131 926 -102 83 -79 126 -132 199 -249 39 -62 40
-63 81 -60 56 4 86 42 71 91 -18 61 -125 210 -213 297 -172 173 -368 259 -620
273 -47 2 -101 3 -120 1z"/>
<path d="M9450 9905 c-21 -12 -102 -14 -465 -15 -412 0 -442 -1 -471 -19 -66
-40 -64 -10 -64 -828 0 -699 1 -740 19 -773 10 -19 33 -45 51 -58 l34 -22 607
2 607 3 27 25 c56 51 55 45 55 628 l-1 537 36 6 c41 7 81 40 90 76 11 44 -54
114 -362 396 -54 48 -68 57 -100 57 -21 -1 -49 -7 -63 -15z m-324 -195 l324 0
0 -125 c0 -124 0 -125 29 -157 28 -31 33 -33 110 -36 l81 -4 0 -509 0 -509
-517 2 -518 3 0 665 0 664 25 8 c14 4 52 5 84 3 32 -3 205 -5 382 -5z m534
-105 l34 -35 -37 0 c-36 0 -37 1 -37 35 0 19 1 35 3 35 2 0 18 -16 37 -35z"/>
<path d="M9362 9338 c-18 -18 -15 -65 5 -72 13 -5 -4 -27 -78 -104 -52 -53
-119 -125 -148 -159 -30 -35 -59 -63 -64 -63 -6 0 -43 31 -82 69 -76 74 -104
87 -160 77 -62 -12 -65 -25 -65 -267 0 -204 1 -218 21 -243 l20 -26 296 0
c286 0 296 -1 280 -18 -20 -22 -22 -63 -5 -80 7 -7 24 -12 38 -12 36 0 150
117 150 153 0 27 -108 152 -140 162 -35 11 -60 -12 -60 -56 l0 -39 -232 2
-233 3 -3 133 c-1 72 1 132 5 132 5 0 32 -27 61 -60 65 -74 103 -96 135 -79
24 13 222 216 355 366 48 54 82 100 82 113 0 24 -17 61 -34 72 -18 12 -131 9
-144 -4z"/>
<path d="M8786 9289 c-48 -38 -24 -112 41 -125 41 -8 83 30 83 75 0 34 -39 71
-75 71 -12 0 -34 -9 -49 -21z"/>
<path d="M3114 9809 c-33 -16 -818 -828 -828 -856 -11 -34 15 -90 49 -103 l25
-10 0 -290 c0 -315 2 -326 56 -369 23 -18 41 -21 115 -21 49 0 89 -4 89 -8 0
-5 -37 -38 -82 -74 -106 -84 -207 -176 -384 -349 -130 -126 -143 -142 -154
-188 -17 -70 -62 -134 -123 -174 -49 -31 -67 -40 -141 -67 l-28 -10 18 -28
c10 -15 66 -106 124 -202 136 -224 160 -260 174 -259 6 0 40 41 76 91 354 494
876 943 1430 1229 64 33 67 34 232 39 l167 5 32 30 c58 55 59 60 59 457 l0
363 -111 111 -111 111 31 48 c49 78 39 151 -29 209 -43 36 -100 50 -149 36
-38 -10 -132 -97 -256 -237 l-37 -43 -194 0 -193 0 -24 -32 c-38 -51 -167
-258 -191 -306 l-20 -43 44 -82 c24 -45 73 -131 110 -192 l65 -110 191 -3
c282 -4 248 -22 382 201 l113 188 -30 56 -31 56 51 61 c28 33 54 62 58 64 4 1
37 -31 74 -72 l67 -74 0 -305 c0 -248 -3 -307 -14 -316 -10 -9 -177 -11 -640
-9 -544 3 -628 5 -636 18 -6 9 -10 142 -10 311 0 291 0 296 23 326 12 16 156
166 320 333 l298 304 99 -99 c65 -65 100 -93 100 -82 0 10 20 40 45 66 25 26
45 51 45 55 0 8 -69 84 -172 188 -62 64 -69 68 -110 67 -23 0 -52 -5 -64 -10z
m122 -763 c-1 -57 2 -68 30 -103 39 -49 87 -73 147 -73 26 0 47 -2 47 -5 0
-10 -49 -99 -93 -170 l-44 -70 -139 3 c-76 2 -142 7 -146 10 -13 13 -138 222
-138 231 0 9 119 200 141 227 8 10 37 14 103 14 l92 0 0 -64z"/>
<path d="M335 9755 c-48 -17 -80 -52 -94 -103 -7 -23 -11 -240 -11 -597 l0
-561 23 -44 c43 -84 33 -82 381 -81 168 1 306 -2 306 -6 0 -4 -13 -42 -28 -83
l-28 -75 -53 -5 c-40 -4 -57 -11 -72 -30 -26 -35 -24 -57 10 -91 l29 -29 367
0 367 0 29 29 c16 16 29 40 29 53 0 35 -43 71 -91 77 -40 6 -42 7 -65 71 -13
36 -24 71 -24 78 0 9 66 12 298 12 277 0 299 1 329 20 70 42 68 18 68 675 l-1
590 -22 37 c-49 79 22 73 -892 75 -685 2 -821 0 -855 -12z m1583 -686 l2 -517
-752 2 -753 1 -3 504 c-1 365 1 507 9 517 10 12 135 14 753 12 l741 -3 3 -516z
m-675 -772 c11 -37 17 -70 14 -73 -3 -3 -44 -3 -90 1 l-85 7 18 58 c24 80 26
81 77 78 l46 -3 20 -68z"/>
<path d="M645 9491 c-144 -67 -167 -249 -45 -354 82 -70 204 -68 279 5 44 43
62 80 68 142 4 43 1 61 -20 101 -30 60 -48 77 -107 104 -56 26 -123 26 -175 2z
m125 -116 c65 -33 70 -119 9 -150 -41 -21 -72 -18 -103 10 -19 18 -26 34 -26
62 0 43 5 52 40 76 30 21 43 21 80 2z"/>
<path d="M1080 9380 c-26 -26 -25 -42 1 -66 20 -18 39 -19 368 -17 338 3 346
3 364 24 22 27 21 35 -3 59 -19 19 -33 20 -365 20 -332 0 -346 -1 -365 -20z"/>
<path d="M1070 9171 c-16 -30 -12 -48 12 -65 19 -14 66 -16 308 -16 306 0 310
1 310 50 0 49 -4 50 -322 50 -284 0 -298 -1 -308 -19z"/>
<path d="M710 8980 l-165 -5 -10 -29 c-8 -25 -6 -31 19 -53 28 -24 31 -24 193
-21 159 3 165 4 184 27 10 13 19 27 19 33 0 15 -48 58 -62 56 -7 -1 -87 -5
-178 -8z"/>
<path d="M1076 8964 c-21 -21 -20 -47 3 -68 16 -14 43 -16 227 -14 l208 3 15
27 c14 24 14 28 -3 47 -18 20 -30 21 -227 21 -175 0 -210 -2 -223 -16z"/>
<path d="M542 8750 c-18 -29 -15 -47 10 -64 18 -13 55 -16 194 -16 153 0 173
2 187 18 22 24 21 45 -1 65 -16 15 -45 17 -198 17 -168 0 -180 -1 -192 -20z"/>
<path d="M1070 8751 c-16 -30 -12 -48 12 -65 18 -13 54 -16 184 -16 143 0 163
2 177 18 21 23 22 46 1 66 -13 13 -45 16 -189 16 -162 0 -175 -1 -185 -19z"/>
<path d="M5035 9651 c-272 -44 -480 -243 -525 -502 l-11 -66 -62 -11 c-34 -7
-128 -30 -209 -53 l-148 -41 0 -284 c0 -180 4 -284 10 -284 5 0 88 22 184 50
96 27 221 58 277 68 l101 19 26 -56 c24 -52 26 -69 30 -221 2 -91 8 -178 14
-193 14 -35 95 -107 121 -107 11 0 41 -22 66 -48 56 -58 117 -82 207 -82 87 0
166 31 218 85 23 24 55 46 72 49 17 4 47 24 67 44 59 61 67 92 67 261 0 133 3
157 23 207 l22 56 54 -6 c71 -8 275 -57 424 -102 66 -20 121 -34 123 -32 4 5
7 568 2 573 -7 8 -217 63 -324 85 l-110 24 -12 65 c-35 185 -174 364 -346 445
-106 50 -255 74 -361 57z m214 -200 c201 -63 335 -259 318 -467 -8 -85 -31
-150 -92 -259 -25 -44 -60 -111 -77 -148 l-31 -68 -71 3 -71 3 4 83 c2 74 10
102 67 252 74 197 81 245 37 286 -49 46 -86 41 -184 -22 -26 -17 -28 -17 -75
13 -70 45 -121 47 -159 8 -41 -40 -34 -90 39 -293 52 -143 65 -191 68 -249 l4
-72 -63 -7 c-71 -7 -93 -2 -93 23 0 9 -31 71 -69 138 -101 177 -115 218 -115
345 0 85 4 116 23 162 87 220 321 337 540 269z m-69 -496 c0 -14 -47 -145 -54
-153 -4 -3 -56 146 -56 161 0 4 25 7 55 7 42 0 55 -4 55 -15z m180 -605 l0
-30 -235 0 -235 0 0 30 0 30 235 0 235 0 0 -30z m-2 -187 c-3 -26 -7 -28 -61
-33 -54 -5 -58 -7 -75 -40 -10 -22 -32 -42 -56 -54 -36 -17 -43 -18 -80 -5
-33 11 -45 23 -61 57 -19 42 -20 42 -73 42 -54 0 -71 13 -58 45 5 13 40 15
236 15 l231 0 -3 -27z"/>
<path d="M9126 7938 c-11 -15 -16 -45 -16 -91 0 -59 3 -71 25 -92 29 -30 45
-31 79 -4 24 19 26 26 26 95 0 61 -4 78 -20 94 -27 27 -75 26 -94 -2z"/>
<path d="M227 7917 c-160 -52 -200 -259 -71 -365 66 -55 163 -64 232 -22 37
23 41 53 11 89 -18 23 -23 23 -66 14 -55 -13 -82 -5 -112 33 -27 34 -27 64 0
98 30 38 56 46 106 31 42 -13 43 -13 73 21 25 29 28 39 20 54 -24 45 -125 69
-193 47z"/>
<path d="M8534 7911 c-43 -26 -164 -168 -164 -192 0 -23 42 -69 63 -69 8 0 26
9 40 20 24 19 25 19 30 0 6 -24 52 -37 72 -20 10 8 15 32 16 69 0 47 2 53 12
37 39 -63 63 -79 122 -84 l58 -5 -7 -60 c-3 -33 -6 -73 -6 -88 l0 -29 -79 0
-79 0 -27 38 c-57 76 -87 102 -120 102 -32 0 -56 -19 -68 -52 -7 -21 35 -85
105 -160 60 -65 47 -62 263 -58 80 1 93 4 114 25 23 23 25 33 29 145 4 113 3
123 -22 173 -36 74 -65 99 -124 105 -43 4 -50 8 -70 44 -25 42 -74 78 -107 78
-11 0 -34 -9 -51 -19z"/>
<path d="M9735 7922 c-36 -8 -63 -33 -79 -71 -14 -36 -18 -39 -66 -43 -60 -6
-98 -36 -130 -104 -17 -37 -20 -64 -20 -169 0 -166 3 -169 152 -180 151 -10
191 -2 240 49 45 47 118 152 118 171 0 21 -33 54 -61 60 -22 6 -34 -2 -80 -51
-30 -31 -64 -68 -77 -81 -20 -21 -29 -24 -90 -21 l-67 3 -3 91 -3 92 56 7 c45
5 62 13 90 41 19 19 36 34 39 34 2 0 4 -20 4 -43 -1 -24 2 -49 6 -55 11 -17
57 -14 78 5 15 14 22 14 42 4 28 -16 57 -3 82 34 15 23 15 27 -1 51 -10 15
-49 60 -89 100 -69 70 -99 87 -141 76z"/>
<path d="M1661 7889 c-157 -80 -138 -308 30 -364 177 -59 328 133 233 294 -49
83 -173 116 -263 70z m133 -110 c41 -33 49 -53 32 -93 -25 -60 -75 -72 -125
-30 -42 35 -42 76 0 115 37 34 57 36 93 8z"/>
<path d="M1008 7863 c-9 -10 -30 -46 -47 -80 l-31 -63 -150 0 c-158 0 -190 -7
-210 -46 -15 -28 1 -79 31 -94 10 -6 172 -10 393 -10 363 0 377 1 396 20 28
28 26 81 -3 108 -21 20 -34 22 -123 22 l-101 0 -24 52 c-46 99 -94 133 -131
91z"/>
<path d="M7239 7709 c-20 -20 -21 -27 -16 -298 2 -153 7 -283 11 -290 10 -15
47 -14 71 3 11 7 80 44 153 81 l133 67 116 5 116 6 106 -109 c118 -122 251
-289 348 -436 36 -54 68 -98 73 -98 4 0 21 7 36 15 16 8 38 15 50 15 26 0 64
-40 64 -67 0 -22 -46 -67 -80 -78 -11 -3 -20 -11 -20 -16 0 -5 20 -49 44 -97
74 -149 153 -374 190 -543 5 -23 9 -25 61 -25 51 1 59 -2 85 -31 16 -18 32
-49 35 -70 14 -84 13 -83 49 -83 33 0 34 -1 40 -47 3 -27 5 -81 4 -121 -1 -60
3 -77 18 -93 31 -30 75 -34 106 -9 27 20 27 24 30 143 l3 122 35 5 c34 5 35 6
40 60 3 30 11 65 18 77 15 28 62 53 98 53 27 0 27 0 20 54 -5 47 -36 194 -52
249 -4 12 -16 17 -42 17 -66 0 -175 29 -247 64 -166 83 -279 253 -300 456 -17
161 64 342 197 445 37 28 54 49 56 67 4 33 -28 68 -61 68 -30 0 -111 -53 -137
-91 l-21 -28 -57 36 c-147 93 -182 125 -217 198 -26 54 -51 85 -107 136 -40
36 -85 73 -100 83 -27 18 -28 18 -86 -23 l-58 -41 -269 0 -270 0 -83 73 c-93
80 -141 117 -153 117 -5 0 -18 -9 -30 -21z m1194 -580 c60 -30 77 -48 77 -80
0 -74 -90 -77 -167 -6 -30 27 -29 52 2 82 29 30 35 31 88 4z"/>
<path d="M9125 7621 c-49 -12 -74 -30 -105 -73 l-30 -41 0 -249 0 -249 -48
-44 c-27 -25 -62 -71 -78 -102 -26 -53 -29 -67 -29 -158 0 -95 2 -103 34 -163
74 -136 212 -201 365 -172 117 22 207 93 258 206 17 37 23 68 23 129 0 101
-31 173 -105 245 l-50 49 0 246 c0 192 -3 252 -14 273 -16 30 -61 74 -91 90
-30 15 -96 21 -130 13z m69 -177 c14 -5 16 -32 16 -199 0 -180 -1 -194 -19
-200 -22 -7 -51 3 -52 19 -1 6 0 90 1 186 2 193 7 212 54 194z m128 -681 c34
-31 22 -63 -57 -145 -74 -79 -96 -89 -130 -64 -18 13 -15 18 47 82 58 61 64
72 55 91 -20 45 44 73 85 36z"/>
<path d="M643 7462 c-12 -9 -57 -73 -100 -142 -44 -69 -140 -219 -214 -335
-263 -408 -258 -398 -195 -461 l34 -34 150 0 c83 0 162 4 176 10 41 15 66 47
66 84 0 51 -19 60 -142 66 l-108 5 58 90 c182 282 393 628 398 654 13 61 -71
104 -123 63z"/>
<path d="M1342 7457 c-47 -50 -37 -69 286 -580 73 -115 132 -212 132 -218 0
-5 -47 -9 -109 -9 -94 0 -112 -3 -135 -21 -49 -39 -26 -110 42 -129 48 -13
296 -13 343 0 21 6 44 22 54 36 37 57 30 71 -171 394 -105 168 -219 352 -254
408 -36 57 -75 112 -88 123 -33 26 -74 24 -100 -4z"/>
<path d="M4855 7425 c-354 -46 -711 -180 -1009 -379 -347 -232 -625 -546 -810
-916 -106 -211 -193 -512 -217 -747 -17 -166 -6 -520 21 -673 141 -801 690
-1467 1456 -1766 244 -95 531 -147 814 -148 371 0 690 71 1015 228 720 346
1195 1004 1300 1801 19 140 21 420 6 550 -76 618 -379 1158 -876 1560 -151
122 -405 266 -615 348 -338 132 -746 186 -1085 142z m580 -565 c212 -45 449
-140 630 -253 424 -264 728 -714 821 -1212 29 -153 26 -471 -4 -620 -30 -144
-46 -200 -93 -318 -161 -405 -462 -754 -795 -919 -59 -29 -109 -59 -111 -66
-8 -19 14 -39 89 -83 74 -43 91 -68 76 -110 -17 -48 -42 -50 -194 -19 -77 16
-202 41 -279 55 -169 32 -194 41 -206 73 -14 37 -4 58 90 172 48 58 126 156
174 217 97 124 121 139 165 106 22 -17 27 -28 26 -64 0 -24 -7 -70 -15 -102
-12 -51 -11 -59 3 -73 14 -14 19 -14 41 -3 13 8 46 26 73 41 87 47 220 147
306 231 254 249 414 542 489 897 32 150 33 429 1 577 -147 681 -630 1158
-1332 1314 -89 20 -132 24 -285 23 -162 0 -192 -3 -300 -28 -220 -51 -403
-127 -555 -229 -381 -254 -637 -640 -716 -1080 -25 -136 -23 -397 4 -548 80
-444 337 -842 702 -1086 205 -137 440 -217 708 -241 114 -10 137 -22 148 -77
4 -23 0 -38 -17 -59 l-23 -29 -116 6 c-382 19 -745 180 -1034 458 -311 299
-501 684 -547 1111 -16 147 -6 417 21 543 102 479 412 916 835 1175 186 114
452 208 683 239 115 16 422 5 537 -19z m-704 -570 c140 -50 275 -100 301 -112
79 -36 77 -74 -10 -139 -31 -24 -121 -97 -200 -163 -207 -174 -222 -186 -248
-186 -26 0 -64 43 -64 72 0 27 23 69 55 98 24 22 55 70 55 84 0 3 -9 10 -21
16 -17 10 -36 4 -112 -34 -261 -128 -455 -361 -543 -651 -26 -85 -28 -101 -28
-291 -1 -184 -3 -204 -20 -223 -27 -30 -71 -27 -106 7 -36 37 -45 98 -44 292
1 122 5 161 27 243 50 189 156 374 301 525 133 138 259 223 406 272 36 12 68
27 72 33 12 19 -12 47 -70 84 -66 41 -82 58 -82 89 0 28 37 74 59 74 10 0 132
-41 272 -90z m1204 -77 c12 -62 15 -65 82 -88 l52 -19 41 29 41 28 39 -38 c34
-33 37 -41 29 -64 -6 -14 -21 -40 -34 -57 -21 -28 -22 -33 -8 -46 8 -9 18 -31
22 -49 6 -31 10 -34 61 -44 l55 -10 3 -59 c4 -69 -2 -76 -70 -76 -37 0 -48 -4
-48 -15 0 -9 -7 -30 -16 -46 -17 -33 -19 -24 32 -104 16 -24 15 -26 -22 -60
-21 -19 -43 -35 -49 -35 -6 0 -26 13 -46 29 l-35 29 -53 -18 c-59 -20 -71 -32
-71 -73 0 -54 -15 -67 -75 -67 l-54 0 -7 48 c-9 67 -15 74 -74 89 -49 12 -53
12 -84 -12 -18 -14 -37 -25 -42 -25 -16 0 -84 61 -84 74 0 7 13 31 29 53 l29
40 -21 46 c-22 46 -22 46 -77 49 l-55 3 0 65 0 65 57 8 c54 9 56 10 63 44 3
20 11 43 17 52 8 14 4 27 -21 61 -17 24 -31 48 -31 54 0 7 17 29 38 49 l38 37
45 -29 45 -28 35 18 c19 10 44 18 55 19 19 0 23 8 29 58 4 31 9 61 12 65 3 4
30 7 61 5 l57 -3 10 -52z m-1184 -721 c24 -22 32 -37 31 -61 -1 -39 -14 -57
-63 -82 -149 -76 -296 -275 -334 -454 -46 -219 32 -443 219 -626 120 -117 256
-179 433 -197 276 -28 524 82 698 308 145 188 205 424 161 630 -21 100 -20
113 10 149 29 35 75 41 112 16 64 -46 86 -347 38 -531 -52 -201 -179 -401
-339 -534 -85 -71 -261 -161 -360 -185 -151 -36 -387 -29 -537 17 -299 92
-541 360 -604 670 -47 230 8 459 157 653 84 110 270 254 329 255 10 0 32 -13
49 -28z m1667 -144 c74 -80 106 -387 61 -608 -11 -56 -28 -119 -37 -139 -31
-66 -107 -67 -145 -3 -19 32 -19 34 1 115 47 188 48 342 1 492 -23 76 -20 105
16 141 31 31 75 31 103 2z m-1553 -171 c45 -44 45 -44 88 -32 23 6 49 14 57
18 8 3 38 8 65 10 28 2 58 7 68 11 12 6 17 4 17 -8 0 -9 8 -16 18 -16 9 -1 35
-7 57 -15 39 -14 40 -14 75 18 70 66 66 65 115 17 25 -24 45 -48 45 -53 0 -5
-16 -32 -35 -59 l-36 -49 20 -28 c11 -15 27 -46 36 -69 14 -34 22 -42 44 -42
14 0 43 -3 64 -6 l37 -7 0 -68 0 -69 -34 0 c-71 0 -94 -10 -102 -44 -3 -17
-17 -51 -29 -76 l-23 -45 39 -45 c21 -25 39 -50 39 -55 0 -6 -19 -30 -43 -53
l-43 -42 -53 36 -53 36 -48 -21 c-27 -12 -55 -21 -64 -21 -10 0 -18 -17 -26
-52 -15 -76 -19 -80 -80 -76 -58 3 -60 6 -75 91 -5 29 -12 40 -33 47 -15 6
-35 15 -44 20 -27 15 -34 13 -84 -26 l-47 -35 -44 43 c-23 23 -43 47 -43 54 0
6 16 32 36 58 l36 47 -26 58 c-14 32 -26 66 -26 74 0 16 -27 24 -100 29 l-35
3 -3 59 c-2 32 1 63 5 67 5 5 37 12 71 15 60 7 62 8 73 43 6 20 20 51 30 69
l19 33 -35 51 c-19 27 -35 54 -35 59 0 10 82 88 92 89 4 0 28 -20 53 -43z"/>
<path d="M5793 5980 c-76 -39 -120 -143 -94 -223 49 -149 233 -171 325 -39
101 144 -73 342 -231 262z"/>
<path d="M5026 4995 c-59 -21 -88 -46 -118 -105 -92 -174 52 -372 240 -330 42
9 64 22 97 55 115 115 88 295 -54 368 -60 30 -106 33 -165 12z"/>
<path d="M899 7317 c-45 -30 -189 -242 -189 -278 0 -30 40 -69 69 -69 22 0 55
36 130 143 l62 87 72 2 c142 5 179 1 203 -24 34 -36 37 -59 10 -93 l-25 -30
-34 38 c-58 62 -105 45 -182 -68 l-38 -55 -57 0 c-117 0 -198 -46 -234 -132
-34 -80 -8 -176 57 -217 33 -20 47 -21 313 -21 259 0 281 1 311 20 31 18 73
84 73 113 0 8 -29 59 -65 114 l-65 100 40 44 c88 96 88 166 -2 264 -75 83 -82
85 -261 85 -144 0 -156 -2 -188 -23z m304 -464 c38 -53 71 -102 74 -109 4 -12
-34 -14 -219 -14 -213 0 -226 1 -243 20 -18 20 -18 21 2 48 19 26 25 27 114
30 104 3 111 7 157 79 15 23 32 43 37 43 6 0 41 -44 78 -97z"/>
<path d="M9500 7262 c-56 -17 -65 -69 -19 -109 124 -108 181 -231 182 -388 1
-171 -66 -303 -206 -408 -34 -25 -38 -33 -35 -65 2 -27 10 -40 30 -52 25 -14
31 -13 65 5 21 11 70 52 109 90 115 113 178 266 177 430 0 105 -16 171 -66
275 -62 131 -179 240 -237 222z"/>
<path d="M9924 7130 c-63 -37 -76 -52 -76 -87 0 -29 25 -53 55 -53 47 0 147
71 147 104 0 20 -44 66 -62 66 -7 0 -36 -14 -64 -30z"/>
<path d="M9889 6651 c-16 -16 -29 -35 -29 -41 0 -21 55 -66 103 -85 l48 -18
24 23 c51 48 18 108 -74 139 -44 14 -38 16 -72 -18z"/>
<path d="M542 6474 c-31 -22 -30 -77 3 -109 l24 -25 411 0 412 0 29 29 c35 36
37 64 4 96 l-24 25 -418 0 c-363 0 -422 -2 -441 -16z"/>
<path d="M1531 6370 c-69 -59 -91 -64 -280 -70 l-174 -5 -24 -70 c-44 -132
-79 -296 -97 -453 -4 -39 -2 -44 20 -52 19 -8 33 -4 72 21 61 39 143 63 185
54 79 -18 159 -85 172 -147 7 -28 7 -28 90 -28 l83 0 7 73 c18 195 74 427 140
582 42 96 41 97 -71 114 -93 14 -83 15 -123 -19z"/>
<path d="M317 5806 c-101 -36 -164 -112 -174 -208 -11 -106 40 -200 136 -250
125 -66 282 -8 346 127 l26 55 133 0 134 0 18 -27 c121 -185 318 -227 462 -98
l50 45 110 0 110 0 26 31 c31 36 28 62 -10 97 -23 20 -35 22 -137 22 -153 -1
-183 -9 -232 -65 -49 -56 -94 -71 -151 -53 -32 11 -48 26 -87 85 -65 100 -81
107 -248 111 -107 3 -143 1 -165 -11 -28 -14 -28 -14 -55 29 -31 48 -82 85
-148 109 -53 18 -94 19 -144 1z m138 -167 c48 -43 49 -87 1 -135 -44 -44 -86
-46 -127 -5 -46 46 -35 125 22 157 38 21 66 16 104 -17z"/>
<path d="M9230 5793 c-14 -9 -28 -22 -32 -27 -4 -6 -8 -84 -8 -174 l0 -164 29
-29 c16 -16 39 -29 51 -29 12 0 35 13 51 29 l29 29 0 161 c0 152 -1 161 -22
185 -31 34 -67 41 -98 19z"/>
<path d="M9505 5784 c-24 -26 -25 -31 -25 -191 l0 -165 29 -29 c37 -37 65 -37
101 0 l29 28 -4 169 c-3 168 -3 169 -30 191 -35 30 -70 29 -100 -3z"/>
<path d="M9789 5781 l-29 -29 0 -161 c0 -153 1 -161 23 -187 31 -35 77 -37
112 -4 25 23 25 26 25 186 0 89 -3 170 -6 179 -7 18 -55 45 -79 45 -9 0 -30
-13 -46 -29z"/>
<path d="M8641 5783 c-19 -17 -20 -30 -22 -183 -3 -173 2 -199 42 -220 26 -14
72 -4 95 21 15 16 17 42 19 181 l3 162 -28 28 c-33 33 -77 37 -109 11z"/>
<path d="M713 5280 c-64 -20 -84 -92 -36 -130 23 -18 35 -20 75 -15 63 9 119
-18 183 -86 l48 -51 -59 -60 c-75 -76 -99 -88 -174 -88 -62 0 -100 -21 -100
-55 0 -58 53 -91 143 -88 85 2 152 38 230 124 36 38 68 69 72 69 4 0 36 -31
72 -69 83 -91 152 -126 243 -126 44 1 80 7 111 21 51 24 136 105 164 158 l20
36 102 0 c92 0 104 2 127 23 36 32 42 67 16 100 -21 26 -24 27 -131 27 l-109
0 -20 40 c-29 57 -85 116 -139 148 -41 24 -56 27 -141 27 -92 0 -98 -2 -154
-35 -32 -19 -83 -62 -112 -94 l-55 -60 -72 71 c-39 39 -92 81 -116 93 -50 25
-140 34 -188 20z m783 -165 c36 -23 77 -101 70 -131 -4 -14 -30 -50 -59 -80
-46 -47 -58 -54 -91 -54 -51 0 -93 28 -157 101 l-52 60 39 40 c91 94 173 115
250 64z"/>
<path d="M8933 5275 c-57 -24 -57 -27 -54 -415 1 -195 -1 -363 -4 -373 -5 -11
-14 -16 -24 -12 -12 3 -27 -7 -49 -33 -33 -42 -85 -72 -124 -72 -23 0 -27 -8
-57 -127 -18 -71 -40 -158 -49 -195 -14 -63 -17 -67 -38 -62 -33 8 -121 -13
-156 -38 -61 -43 -68 -76 -68 -345 l0 -241 -45 -60 c-156 -207 -471 -522 -523
-522 -4 0 -46 34 -91 75 -83 75 -116 90 -139 62 -6 -7 -23 -89 -37 -183 -14
-93 -30 -197 -36 -230 l-11 -62 -96 -60 c-125 -77 -373 -218 -401 -227 -11 -3
-21 -11 -21 -17 0 -17 63 -99 74 -95 5 2 26 30 45 63 57 92 152 144 267 144
71 0 266 -79 333 -135 l31 -27 128 84 c137 91 331 243 454 357 l77 72 23 -36
c13 -19 41 -44 64 -55 39 -19 61 -20 820 -20 734 0 781 1 819 19 48 22 69 44
90 94 13 31 15 119 15 635 l0 598 -25 50 c-18 36 -37 57 -67 74 l-43 24 -408
-1 c-306 -1 -407 2 -404 10 15 41 61 209 81 301 14 59 28 111 31 115 4 3 142
6 308 6 299 0 302 0 334 23 20 14 37 38 43 60 8 24 10 152 8 374 -3 324 -4
338 -24 365 -40 53 -33 53 -544 52 -381 0 -481 -3 -507 -14z m907 -425 l0
-270 -395 0 -395 0 -1 108 c0 59 -1 178 -3 265 -1 87 0 160 3 162 2 3 181 5
398 5 l393 0 0 -270z m-872 -857 c3 -10 -21 -13 -97 -13 -93 0 -113 5 -94 24
13 12 186 2 191 -11z m-356 -188 c9 -4 12 -21 10 -58 -3 -46 0 -56 24 -80 33
-34 74 -35 110 -3 24 20 28 31 29 77 0 30 5 57 10 61 12 9 87 10 138 2 37 -7
37 -7 37 -55 0 -57 28 -96 77 -105 27 -5 37 -1 64 25 29 30 31 36 26 81 l-6
49 100 3 99 3 0 -58 c0 -50 4 -61 27 -83 23 -21 35 -25 62 -20 52 8 72 35 80
102 6 56 7 59 36 62 16 2 57 1 91 -3 l61 -6 -5 -49 c-4 -44 -2 -52 26 -80 42
-41 81 -41 117 2 24 28 27 38 22 80 l-6 48 63 0 c51 0 65 -3 71 -17 10 -23 18
-967 10 -1050 l-7 -63 -743 0 c-668 0 -743 2 -749 16 -3 9 -6 258 -6 554 0
418 3 540 13 548 22 18 91 28 119 17z"/>
<path d="M9230 5028 c-99 -51 -136 -155 -88 -248 51 -99 169 -134 268 -80 61
35 104 115 96 180 -9 65 -48 117 -109 146 -65 30 -110 30 -167 2z m131 -117
c35 -36 37 -61 6 -97 -33 -38 -81 -37 -114 1 -29 34 -25 69 13 103 34 30 60
28 95 -7z"/>
<path d="M9592 4898 c-24 -31 -24 -59 -1 -84 27 -29 62 -31 89 -4 24 24 25 48
4 78 -17 25 -74 31 -92 10z"/>
<path d="M8863 3506 c-59 -19 -103 -49 -157 -106 -69 -74 -89 -126 -90 -235
-1 -83 2 -96 32 -157 38 -77 92 -130 171 -167 48 -22 69 -26 151 -26 87 0 101
3 164 33 107 50 269 226 269 292 0 42 -19 60 -64 60 -30 0 -44 -6 -62 -27
-111 -136 -184 -190 -265 -200 -71 -8 -117 3 -158 39 -55 48 -77 100 -72 170
8 109 97 180 224 179 51 0 73 4 94 19 54 39 47 100 -15 126 -43 17 -165 17
-222 0z"/>
<path d="M9375 3507 c-71 -24 -106 -47 -193 -130 -137 -131 -176 -215 -117
-253 37 -24 61 -11 165 95 103 106 146 132 228 139 175 15 285 -166 187 -308
-40 -58 -101 -84 -198 -85 -71 0 -81 -2 -98 -24 -34 -42 -21 -89 33 -117 24
-13 51 -15 117 -12 150 7 261 78 324 207 28 58 32 76 32 146 0 99 -30 171
-102 243 -74 73 -147 105 -252 109 -52 2 -102 -2 -126 -10z"/>
<path d="M8628 5263 c-14 -16 -16 -72 -19 -400 l-4 -382 25 -25 c39 -38 63
-40 99 -10 l31 26 0 382 0 383 -23 21 c-29 27 -87 30 -109 5z"/>
<path d="M366 5209 c-26 -20 -26 -22 -26 -152 0 -179 -5 -204 -40 -212 -41 -9
-102 -66 -129 -119 -65 -132 9 -299 153 -341 63 -19 80 -19 147 1 44 13 66 28
116 80 l62 64 135 0 135 0 30 -43 c72 -105 157 -152 263 -145 113 7 203 72
257 185 17 35 31 66 31 68 0 5 -92 35 -110 35 -10 0 -32 -23 -51 -52 -48 -74
-91 -101 -152 -95 -57 5 -80 24 -116 96 -41 84 -65 93 -264 94 l-162 2 -23 46
c-32 65 -56 94 -97 113 l-35 17 0 160 c0 88 -4 169 -10 179 -8 15 -57 40 -80
40 -4 0 -19 -9 -34 -21z m95 -518 c62 -63 25 -161 -60 -161 -90 0 -129 94 -66
160 39 41 85 41 126 1z"/>
<path d="M1470 4461 c0 -19 -62 -82 -99 -100 -107 -53 -226 -54 -336 -2 l-68
31 7 -42 c28 -175 244 -653 307 -679 33 -13 96 -74 104 -100 5 -16 16 -19 63
-18 76 1 106 11 110 34 2 11 18 35 35 53 50 52 162 76 245 53 17 -5 32 -8 32
-6 0 1 -29 61 -64 131 -82 165 -147 347 -181 505 -15 68 -30 127 -34 130 -11
12 -121 21 -121 10z"/>
<path d="M375 4026 c-77 -19 -127 -50 -183 -110 -71 -79 -93 -141 -100 -288
-3 -71 0 -141 7 -177 14 -70 4 -105 -48 -163 -17 -20 -31 -40 -31 -46 0 -11
78 -52 100 -52 8 0 34 10 58 21 l44 22 22 -26 c11 -13 29 -29 39 -34 16 -8 10
-14 -38 -39 -71 -36 -138 -108 -164 -180 -18 -47 -21 -78 -21 -224 0 -164 1
-170 24 -197 l24 -28 367 -3 367 -3 35 27 35 26 -4 182 -3 181 -34 63 c-39 73
-102 132 -166 159 -49 20 -55 28 -25 38 11 3 29 18 40 32 20 26 21 26 49 10
46 -27 105 -22 142 11 l31 28 -32 34 c-54 58 -62 82 -49 149 6 33 10 114 8
183 -4 115 -6 128 -36 188 -43 88 -91 141 -160 177 -97 51 -196 64 -298 39z
m156 -311 c15 -9 45 -19 65 -23 54 -11 52 -26 -5 -51 -88 -38 -203 -25 -266
30 l-34 30 62 58 61 58 44 -44 c24 -24 57 -50 73 -58z m-51 -240 c86 0 101 3
158 31 l62 30 0 -23 c0 -34 -34 -116 -64 -156 -33 -43 -99 -77 -149 -77 -106
0 -201 94 -222 218 l-7 43 64 -33 c58 -30 70 -33 158 -33z m-30 -477 c35 -7
55 -6 90 6 41 14 46 14 75 -4 86 -53 124 -129 125 -247 l0 -83 -260 0 -260 0
0 78 c0 61 5 88 26 132 31 67 110 144 139 135 11 -4 40 -11 65 -17z"/>
<path d="M1112 3499 c-51 -26 -89 -77 -98 -136 -6 -38 -3 -45 24 -72 26 -26
34 -29 61 -21 45 13 51 18 51 49 0 35 28 61 67 61 24 0 41 -12 81 -54 62 -68
100 -88 166 -88 68 -1 120 26 174 91 32 38 50 51 70 51 38 0 70 -25 74 -58 2
-20 13 -32 39 -45 43 -21 65 -15 84 24 20 38 19 65 -6 117 -64 132 -266 139
-354 12 -29 -41 -36 -45 -76 -47 -42 -2 -46 0 -81 47 -21 27 -56 59 -78 70
-54 27 -141 27 -198 -1z"/>
<path d="M2048 3335 c-5 -72 -23 -119 -64 -167 l-22 -28 31 -57 c41 -76 41
-130 -2 -209 l-31 -59 25 -49 c14 -27 25 -60 25 -73 0 -25 2 -26 159 -157 98
-81 107 -86 150 -86 42 0 51 4 91 46 83 85 215 134 362 134 102 0 181 -19 270
-64 92 -48 93 -46 69 150 -11 88 -23 196 -27 242 -10 122 -28 131 -128 63 -81
-56 -279 -161 -320 -171 -36 -8 -46 -6 -77 15 -80 52 -363 351 -480 505 l-26
34 -5 -69z"/>
<path d="M1113 3181 c-74 -34 -124 -143 -89 -196 26 -39 50 -48 91 -31 29 12
35 20 35 45 0 20 8 35 22 45 40 28 67 20 127 -40 31 -31 70 -63 88 -70 78 -34
200 2 242 70 13 20 31 41 41 46 48 26 110 -2 110 -49 0 -52 84 -70 119 -25 25
32 26 52 6 102 -34 79 -101 122 -193 122 -74 0 -128 -28 -174 -90 -28 -37 -41
-46 -70 -48 -32 -3 -39 2 -78 48 -23 28 -60 60 -81 70 -50 26 -140 26 -196 1z"/>
<path d="M1153 2881 c-104 -27 -171 -143 -124 -217 23 -38 48 -46 90 -28 25
10 31 19 31 43 0 33 39 71 73 71 11 0 45 -25 76 -56 70 -70 86 -80 136 -88 71
-12 132 15 197 85 52 57 59 61 89 55 44 -8 59 -23 59 -57 0 -57 82 -80 119
-33 39 50 20 115 -51 181 -95 87 -236 66 -311 -45 -26 -38 -32 -42 -71 -42
-38 0 -45 4 -79 50 -20 27 -51 57 -68 66 -37 19 -121 26 -166 15z"/>
<path d="M2632 2470 c-112 -37 -214 -142 -249 -259 -25 -83 -23 -210 5 -292
38 -111 137 -257 196 -289 14 -7 26 -17 26 -21 0 -3 -26 -10 -57 -14 -256 -31
-450 -198 -519 -446 -15 -52 -18 -104 -19 -284 0 -317 -8 -309 312 -304 l213
4 0 171 c0 165 -1 171 -23 192 -29 28 -76 28 -105 2 -19 -18 -22 -32 -22 -95
l0 -74 -52 -6 c-29 -4 -71 -5 -93 -3 l-40 3 -3 140 c-2 83 2 162 9 195 33 153
146 272 307 325 l54 17 31 -30 c96 -93 261 -95 367 -5 33 28 41 31 66 23 16
-6 47 -15 69 -20 45 -11 167 -80 173 -99 2 -6 -3 -9 -11 -6 -32 13 -183 -15
-244 -45 -89 -44 -162 -146 -163 -227 l0 -32 -97 -3 -98 -3 -3 -205 c-2 -158
1 -210 11 -224 10 -13 32 -19 93 -23 l80 -6 -1 -74 c0 -67 3 -77 24 -94 32
-26 73 -24 99 4 18 19 22 35 22 94 l0 70 81 6 c52 3 85 10 90 19 13 19 11 395
-1 419 -9 16 -22 19 -82 19 l-70 0 6 32 c9 47 51 96 94 108 21 7 97 10 182 8
l145 -3 0 -70 0 -70 -95 -5 -95 -5 -3 -210 c-3 -252 -6 -245 114 -245 l74 0 0
-78 c0 -63 4 -82 18 -95 30 -27 69 -26 100 3 19 18 22 32 22 94 0 89 -6 86
149 78 l111 -5 0 -77 c0 -89 14 -110 73 -110 27 0 41 7 57 28 19 23 21 36 17
90 -2 34 -1 64 3 67 5 3 42 7 83 9 41 2 80 7 86 10 17 11 15 420 -2 434 -7 6
-58 13 -112 14 l-99 3 -8 45 c-11 63 -67 149 -123 187 -64 44 -133 63 -231 63
-76 0 -84 2 -95 23 -32 62 -100 134 -166 178 -91 59 -176 89 -275 96 -43 3
-78 9 -78 13 0 4 20 24 45 45 88 72 173 212 196 324 6 30 9 90 7 131 -9 147
-104 288 -237 352 -59 28 -78 32 -171 35 -85 2 -117 -1 -168 -17z m21 -275
c79 -68 117 -80 256 -80 l123 0 -7 -70 c-21 -218 -174 -357 -314 -286 -87 45
-150 155 -158 280 -5 70 -3 85 20 135 14 31 29 56 32 56 4 0 25 -16 48 -35z
m227 -646 c0 -59 -13 -69 -91 -69 -74 0 -73 -1 -83 58 l-6 32 53 -5 c28 -3 66
-2 82 4 44 14 45 14 45 -20z m821 -432 c39 -26 79 -81 79 -108 0 -17 -9 -19
-100 -19 l-100 0 0 75 0 75 44 0 c28 0 55 -8 77 -23z m-670 -261 c2 -2 3 -45
1 -95 l-3 -91 -115 0 -114 0 0 95 0 95 113 0 c63 0 116 -2 118 -4z m599 -91
l0 -95 -125 0 -125 0 0 95 0 95 125 0 125 0 0 -95z m390 0 l0 -95 -125 0 -125
0 0 95 0 95 125 0 125 0 0 -95z"/>
<path d="M4962 2400 c-194 -51 -331 -178 -400 -372 -23 -65 -26 -89 -26 -210
-1 -164 16 -153 -174 -108 -301 72 -620 200 -913 366 -138 78 -131 76 -173 48
-32 -22 -36 -29 -36 -68 0 -45 -30 -155 -71 -260 l-23 -59 23 -18 c13 -10 42
-24 64 -30 121 -32 305 -166 363 -264 l25 -43 102 -4 c75 -2 112 -8 141 -22
48 -24 99 -74 117 -115 16 -36 15 -35 159 -51 58 -6 121 -14 141 -17 l36 -5
-13 -37 c-9 -23 -13 -90 -14 -193 0 -154 0 -157 26 -187 25 -30 28 -31 115
-31 l89 0 0 -145 c0 -111 4 -153 15 -175 31 -61 25 -60 582 -60 543 0 537 0
575 51 16 21 20 46 22 130 2 57 4 125 5 152 l1 47 83 0 c79 0 85 2 111 29 l28
29 -3 184 -4 183 55 5 c54 5 55 6 61 40 10 66 49 111 114 132 47 15 56 40 25
73 -30 32 -36 91 -13 134 23 45 38 49 59 16 37 -56 10 -235 -38 -251 -28 -9
-87 -62 -104 -95 -29 -56 -6 -223 40 -292 27 -41 82 -69 121 -63 29 4 33 0 74
-71 l43 -76 -31 -60 c-51 -98 -36 -192 40 -263 46 -42 234 -158 283 -174 99
-32 200 13 271 120 l47 70 72 0 72 0 21 -44 c48 -97 126 -155 210 -156 73 0
343 152 397 223 32 42 50 107 42 149 -3 18 -17 57 -31 86 -26 56 -24 58 36 41
32 -10 46 -9 84 6 55 20 84 60 116 158 29 89 18 132 -52 200 l-49 47 0 90 0
91 56 52 c75 70 80 105 33 224 -57 143 -118 187 -220 157 -28 -9 -52 -14 -52
-12 -1 2 -19 22 -40 44 l-38 40 20 45 c42 91 15 194 -66 255 -23 18 -91 51
-150 75 -88 34 -120 42 -173 42 -109 1 -202 -63 -245 -167 -14 -32 -19 -36
-53 -36 -34 0 -39 3 -50 34 -36 99 -173 154 -277 110 -43 -17 -235 -125 -276
-155 -71 -50 -87 -160 -36 -258 29 -54 24 -70 -12 -44 -26 18 -51 70 -51 108
0 30 3 30 -57 4 -67 -28 -229 -73 -359 -98 -60 -12 -118 -24 -129 -26 -19 -4
-20 1 -20 133 0 123 -3 145 -28 217 -67 196 -205 325 -403 375 -98 25 -215 25
-312 0z m331 -204 c156 -75 252 -259 227 -433 -13 -89 -20 -113 -57 -185 -48
-92 -139 -190 -211 -225 -78 -39 -192 -40 -267 -4 -149 73 -274 288 -275 472
0 167 118 336 274 391 80 29 232 21 309 -16z m2028 -155 c41 -14 153 -64 197
-88 2 -1 -10 -46 -27 -100 -36 -116 -37 -124 -12 -140 21 -13 171 -210 171
-224 0 -16 25 -10 88 21 34 17 67 30 72 30 6 0 18 -16 27 -35 18 -39 23 -32
-79 -112 -41 -32 -47 -40 -40 -62 9 -33 9 -246 0 -287 -6 -26 -3 -33 20 -47
15 -9 47 -34 71 -55 39 -34 43 -41 35 -64 l-9 -26 -70 28 c-38 16 -76 29 -82
29 -7 1 -22 -17 -33 -39 -11 -21 -41 -65 -66 -96 l-46 -56 41 -88 c23 -49 41
-96 41 -104 0 -21 -103 -96 -187 -138 -49 -24 -69 -29 -81 -21 -10 5 -43 48
-75 94 l-57 84 -58 -5 c-82 -7 -179 -6 -237 3 l-51 7 -52 -90 c-63 -108 -77
-114 -157 -76 -64 32 -174 111 -181 131 -3 8 17 56 44 107 l50 93 -38 48 c-50
62 -103 158 -125 227 -10 30 -21 59 -25 63 -4 4 -33 -2 -64 -14 -32 -11 -59
-19 -61 -17 -1 1 -10 21 -19 43 -16 38 -16 40 6 57 13 10 46 26 73 37 l50 19
8 68 c4 38 14 89 22 113 14 42 14 46 -5 66 -22 23 -27 74 -9 92 8 8 19 9 38 2
22 -9 28 -7 41 13 8 12 30 42 48 65 17 24 32 49 32 56 0 7 -15 51 -34 97 -53
133 -55 120 22 167 97 59 172 95 187 89 7 -2 43 -45 81 -95 46 -63 72 -90 83
-87 48 15 159 28 195 24 l43 -5 17 46 c22 61 92 171 109 171 8 0 38 -8 68 -19z
m-2717 -532 c15 -34 25 -63 24 -64 -2 -1 -31 -17 -65 -35 -34 -18 -81 -48
-104 -68 -47 -40 -46 -41 -8 63 18 49 101 165 118 165 5 0 20 -28 35 -61z
m1105 -1 c39 -53 82 -132 96 -178 7 -23 4 -22 -35 14 -23 21 -71 51 -105 68
l-63 29 26 59 c15 33 30 60 34 60 4 0 25 -24 47 -52z m-901 -271 l52 -53 -67
-29 c-80 -35 -177 -125 -212 -198 -22 -45 -24 -47 -66 -47 -52 0 -57 9 -45 88
11 77 32 120 87 182 42 47 147 110 182 110 9 0 40 -24 69 -53z m759 23 c116
-58 193 -172 193 -287 l0 -63 -39 0 c-37 0 -41 3 -63 47 -31 63 -119 147 -192
183 -32 17 -65 30 -73 30 -7 0 -13 4 -13 9 0 13 102 111 116 111 6 0 38 -14
71 -30z m-597 -240 c0 -6 -10 -24 -22 -41 -34 -45 -37 -150 -6 -204 79 -136
269 -137 349 -2 27 46 30 59 25 110 -4 52 -11 68 -51 123 -17 23 3 27 52 10
68 -23 117 -60 158 -120 51 -75 65 -130 65 -263 l0 -113 -425 0 -425 0 0 89
c0 164 28 248 111 331 55 55 169 109 169 80z m210 -150 c0 -18 -40 -50 -62
-50 -21 0 -58 26 -58 41 0 10 27 16 78 18 23 0 42 -3 42 -9z"/>
<path d="M5027 2006 c-86 -31 -149 -115 -163 -217 -14 -103 52 -219 150 -265
167 -78 362 53 361 241 -1 138 -118 256 -254 255 -31 -1 -73 -7 -94 -14z"/>
<path d="M7257 1899 c-15 -40 -25 -74 -22 -77 6 -7 117 -44 119 -40 9 13 56
128 56 136 0 10 -89 52 -112 52 -7 0 -26 -32 -41 -71z"/>
<path d="M6633 1887 c-28 -18 -54 -35 -58 -38 -6 -7 59 -124 75 -134 5 -3 11
-1 15 5 4 6 29 22 56 36 28 14 49 28 47 32 -13 30 -74 132 -78 131 -3 0 -28
-15 -57 -32z"/>
<path d="M6906 1694 c-135 -33 -285 -144 -340 -251 -60 -119 -76 -294 -37
-405 58 -168 192 -300 356 -351 98 -30 253 -29 345 2 153 53 263 148 332 288
37 74 41 91 46 176 5 110 -7 174 -51 266 -55 114 -190 225 -324 268 -87 27
-231 30 -327 7z m261 -128 c85 -23 137 -53 192 -111 29 -30 64 -81 79 -112 24
-51 27 -70 26 -153 0 -80 -4 -104 -26 -151 -82 -180 -287 -273 -493 -225 -121
29 -205 99 -262 222 -25 52 -28 71 -28 159 0 87 3 107 27 157 32 69 98 142
153 171 107 55 228 71 332 43z"/>
<path d="M6883 1463 c-20 -3 -42 -15 -58 -34 l-25 -31 0 -206 c0 -283 5 -291
190 -300 88 -4 113 -2 143 13 26 12 37 24 37 39 0 40 -18 46 -135 46 -117 0
-139 6 -133 36 3 18 17 19 197 24 242 6 231 -2 231 169 -1 145 -10 188 -50
224 l-30 27 -168 -2 c-92 0 -181 -3 -199 -5z m335 -205 l3 -97 -33 -6 c-18 -3
-89 -5 -158 -3 -119 3 -125 4 -128 25 -4 28 37 38 123 28 80 -8 135 11 135 49
0 50 -24 59 -130 52 -104 -6 -137 3 -124 37 6 16 21 17 158 15 l151 -3 3 -97z"/>
<path d="M6650 652 c0 -4 -16 -31 -35 -61 -19 -29 -35 -56 -35 -59 1 -12 111
-82 120 -77 10 6 70 112 70 123 0 9 -101 82 -113 82 -4 0 -7 -3 -7 -8z"/>
<path d="M7381 625 c-29 -19 -55 -36 -58 -38 -2 -3 13 -31 33 -64 21 -32 39
-59 40 -61 3 -4 124 59 124 64 0 10 -73 134 -78 133 -4 -1 -31 -16 -61 -34z"/>
<path d="M1146 2381 c-14 -15 -16 -36 -14 -117 3 -97 4 -99 30 -112 22 -10 32
-10 50 -1 35 18 38 27 38 131 0 86 -2 98 -19 108 -30 16 -66 12 -85 -9z"/>
<path d="M640 2238 c-32 -35 -24 -59 46 -141 78 -90 104 -98 148 -46 14 17 26
37 26 45 0 7 -33 47 -73 89 -79 82 -109 93 -147 53z"/>
<path d="M1573 2187 c-43 -43 -73 -82 -73 -94 0 -32 38 -73 68 -73 38 0 162
129 162 169 0 31 -36 71 -65 71 -10 0 -51 -33 -92 -73z"/>
<path d="M1082 2039 c-111 -21 -232 -112 -282 -210 -57 -111 -67 -265 -25
-396 36 -116 139 -266 191 -279 18 -5 24 -13 24 -34 0 -26 -3 -28 -62 -39
-140 -24 -263 -119 -327 -251 l-36 -75 -4 -169 c-2 -126 0 -175 10 -193 29
-53 26 -53 593 -53 l525 0 36 32 37 31 -4 177 -3 176 -38 76 c-63 128 -169
211 -317 248 -87 22 -88 36 -7 110 106 97 177 261 177 407 0 83 -32 194 -75
262 -57 92 -160 159 -274 181 -61 11 -78 11 -139 -1z m-70 -330 c18 -17 58
-43 88 -58 50 -24 66 -26 172 -26 l117 0 -5 -50 c-12 -121 -49 -211 -108 -263
-101 -88 -220 -54 -293 85 -40 75 -57 151 -50 223 4 49 29 120 42 120 2 0 19
-14 37 -31z m195 -623 c21 6 45 13 53 15 28 7 25 -64 -4 -97 -22 -27 -30 -29
-90 -29 -81 0 -106 20 -113 88 l-5 44 60 -16 c48 -12 69 -13 99 -5z"/>
<path d="M8245 2036 c-16 -7 -44 -28 -62 -46 -64 -66 -63 -53 -63 -802 0 -672
0 -679 21 -724 28 -59 71 -101 117 -114 25 -8 302 -10 884 -8 l846 3 43 30
c26 18 52 49 68 80 l25 50 0 335 c0 184 -1 497 -2 695 l-2 361 -32 54 c-21 35
-47 63 -73 77 l-40 23 -850 -1 c-680 0 -856 -2 -880 -13z m705 -111 c0 -4 -7
-19 -15 -35 l-16 -30 -265 0 c-270 0 -293 -3 -321 -39 -9 -12 -12 -164 -13
-633 l0 -617 26 -20 c26 -21 33 -21 776 -21 l749 0 23 23 c21 21 23 35 29 152
9 210 6 1046 -4 1087 -17 65 -31 68 -337 68 l-269 0 -11 25 c-7 14 -12 30 -12
35 0 6 125 10 323 10 l323 0 30 -31 29 -30 0 -668 c0 -720 1 -704 -53 -732
-20 -12 -170 -14 -828 -14 l-804 0 -29 30 -30 30 -1 265 c-1 146 -2 451 -1
678 l1 414 29 29 29 29 321 0 c177 0 321 -2 321 -5z m216 -51 c20 -31 33 -58
30 -61 -8 -8 -133 -16 -150 -10 -13 5 -9 17 22 67 20 33 43 60 50 60 7 0 28
-25 48 -56z m-218 -156 c23 -22 30 -23 179 -21 142 2 158 4 177 22 21 20 34
21 259 21 l237 0 1 -127 c2 -290 -3 -958 -8 -963 -7 -7 -958 -10 -1170 -4
l-183 6 0 537 c0 296 3 541 7 544 3 4 112 7 242 7 230 0 235 0 259 -22z"/>
<path d="M9252 1618 c-19 -19 -15 -66 7 -78 12 -6 100 -10 218 -10 164 0 202
3 221 16 24 17 29 53 10 72 -17 17 -439 17 -456 0z"/>
<path d="M8566 1499 c-36 -43 -35 -91 3 -130 l29 -29 244 0 245 0 23 24 c30
33 32 95 4 133 l-21 28 -251 3 -250 2 -26 -31z"/>
<path d="M9256 1415 c-19 -19 -21 -56 -4 -73 8 -8 68 -12 203 -12 200 0 215 3
215 45 -1 48 -7 50 -208 53 -164 3 -192 1 -206 -13z"/>
<path d="M8569 1211 c-21 -22 -29 -39 -29 -66 0 -27 8 -44 29 -66 l29 -29 237
0 c150 0 244 4 257 11 22 12 48 66 48 99 0 12 -13 35 -29 51 l-29 29 -242 0
-242 0 -29 -29z"/>
<path d="M9250 1130 c-25 -25 -25 -42 -2 -63 16 -15 45 -17 204 -17 166 0 187
2 201 18 22 24 21 45 -1 65 -16 15 -45 17 -200 17 -169 0 -183 -1 -202 -20z"/>
<path d="M8585 938 c-33 -19 -44 -41 -45 -85 0 -34 5 -46 31 -67 l31 -26 228
0 c126 0 240 4 254 10 29 11 56 57 56 95 0 16 -12 38 -29 56 l-29 29 -239 0
c-160 -1 -245 -4 -258 -12z"/>
<path d="M9252 844 c-24 -17 -29 -56 -9 -72 7 -6 98 -12 219 -14 201 -3 208
-2 229 18 26 27 18 61 -18 75 -13 5 -109 9 -211 9 -154 0 -192 -3 -210 -16z"/>
<path d="M175 1990 c-3 -5 -20 -49 -38 -97 l-32 -88 -3 -670 c-2 -596 -1 -675
14 -713 19 -51 47 -72 96 -72 27 0 47 8 70 29 l33 29 5 208 5 208 43 8 c62 10
107 42 131 92 20 40 21 58 21 420 0 414 0 413 -61 472 -24 23 -40 29 -92 32
l-63 4 -28 74 c-28 71 -30 74 -62 74 -18 0 -36 -4 -39 -10z m73 -273 c4 -54
-9 -77 -38 -70 -17 4 -20 14 -20 57 0 59 5 68 35 64 16 -2 21 -12 23 -51z
m130 1 c9 -9 12 -106 12 -373 0 -375 -1 -385 -42 -385 -17 0 -18 19 -18 339 0
419 5 462 48 419z"/>
<path d="M1815 1924 c-44 -15 -88 -33 -97 -42 -27 -23 -23 -67 8 -91 33 -26
29 -26 130 5 118 35 152 80 104 132 -26 28 -46 27 -145 -4z"/>
<path d="M1720 1608 c-50 -54 -5 -104 117 -132 45 -11 88 -16 97 -13 8 3 22
20 31 37 28 53 -5 84 -122 114 -80 21 -98 20 -123 -6z"/>
</g>
</svg>
