<?xml version="1.0" standalone="no"?>
<!DOCTYPE svg PUBLIC "-//W3C//DTD SVG 20010904//EN"
 "http://www.w3.org/TR/2001/REC-SVG-20010904/DTD/svg10.dtd">
<svg version="1.0" xmlns="http://www.w3.org/2000/svg"
 width="1024.000000pt" height="1024.000000pt" viewBox="0 0 1024.000000 1024.000000"
 preserveAspectRatio="xMidYMid meet">
<metadata>
Created by potrace 1.16, written by Peter Selinger 2001-2019
</metadata>
<g transform="translate(0.000000,1024.000000) scale(0.100000,-0.100000)"
fill="#000000" stroke="none">
<path d="M4979 9017 c-98 -41 -166 -103 -208 -191 -13 -26 -29 -49 -35 -51 -6
-1 -69 -10 -141 -19 -318 -42 -674 -142 -1004 -283 -237 -101 -529 -261 -592
-324 -82 -82 -49 -202 64 -239 49 -16 81 -5 226 80 355 204 652 325 1021 413
148 36 362 78 367 73 2 -1 -39 -34 -90 -72 -250 -187 -496 -425 -722 -699
-145 -176 -351 -405 -364 -405 -3 0 -51 39 -106 86 -209 179 -260 208 -334
185 -22 -6 -53 -27 -70 -46 -41 -47 -49 -95 -25 -153 16 -38 44 -66 169 -169
83 -68 153 -123 158 -123 17 0 3 -28 -47 -94 -211 -276 -369 -628 -475 -1061
-39 -162 -61 -304 -82 -542 l-12 -133 -448 0 -447 0 -24 38 c-12 20 -38 54
-56 74 l-34 38 17 102 c32 196 87 424 147 606 64 195 66 218 28 272 -24 34
-77 60 -120 60 -43 0 -106 -37 -130 -75 -68 -111 -183 -532 -227 -834 l-8 -54
-59 -19 c-111 -36 -177 -96 -230 -208 -27 -57 -30 -75 -30 -155 -1 -78 3 -98
27 -146 52 -106 140 -180 260 -219 20 -6 37 -15 37 -18 0 -32 47 -316 71 -430
95 -455 295 -921 553 -1287 132 -187 240 -320 358 -440 l117 -121 -107 -91
c-59 -50 -155 -132 -214 -182 -128 -108 -143 -129 -143 -192 0 -78 59 -139
142 -146 40 -4 54 0 87 22 50 34 183 144 325 270 62 55 119 104 126 109 8 6
32 -8 76 -45 158 -134 335 -247 594 -380 370 -190 794 -322 1223 -381 l163
-23 30 -46 c40 -63 119 -136 177 -162 38 -18 66 -22 147 -22 88 0 107 3 157
27 69 32 147 103 178 161 l23 43 101 13 c341 42 782 161 1045 283 95 43 100
46 85 56 -11 8 -99 104 -156 171 l-37 43 -63 -30 c-93 -43 -253 -96 -428 -141
-154 -39 -448 -96 -456 -89 -2 3 42 41 99 85 161 127 321 279 462 438 72 80
136 157 144 169 13 22 9 34 -61 167 -58 110 -80 144 -94 143 -11 -1 -64 -20
-118 -43 -184 -77 -444 -141 -643 -158 l-73 -6 -2 69 c-1 38 0 126 1 196 4
151 -9 216 -51 258 -64 64 -153 62 -218 -5 l-35 -36 -3 -241 -3 -241 -62 7
c-352 36 -680 158 -929 344 -85 63 -225 199 -313 302 -237 280 -392 557 -511
915 -93 282 -138 507 -151 760 l-6 125 137 0 c93 0 147 4 169 14 38 15 84 66
93 101 8 32 -12 88 -43 126 -45 52 -69 59 -219 59 l-137 0 6 109 c14 244 92
616 181 861 25 69 77 188 115 265 69 139 216 375 233 375 5 0 58 -42 118 -93
250 -215 286 -233 372 -185 74 42 108 139 73 208 -8 16 -94 93 -190 171 -96
78 -175 145 -175 149 0 8 143 140 225 207 166 135 376 233 636 297 108 26 294
56 348 56 l31 0 0 -217 c0 -248 4 -264 79 -303 52 -26 88 -25 141 3 75 39 80
59 80 304 l0 213 30 0 c55 0 233 -30 358 -60 216 -52 416 -141 582 -259 84
-59 270 -225 270 -239 0 -4 -77 -70 -170 -147 -187 -154 -210 -184 -195 -262
14 -74 108 -137 179 -119 37 9 132 77 258 185 l117 100 29 -37 c241 -308 415
-768 480 -1264 15 -114 24 -153 42 -177 81 -115 270 -56 270 84 0 66 -29 281
-55 411 -79 393 -249 780 -488 1115 l-45 64 106 87 c59 47 181 150 272 228 91
78 171 144 178 147 25 10 252 -232 397 -422 156 -204 319 -482 406 -690 106
-253 188 -551 236 -852 l27 -171 -37 -41 c-20 -22 -43 -53 -52 -70 l-15 -30
-359 -3 -359 -3 -27 -25 c-43 -40 -58 -77 -53 -132 6 -60 52 -113 110 -129 23
-6 162 -9 357 -7 l319 3 21 -42 c11 -23 37 -60 56 -82 l36 -40 -31 -177 c-27
-146 -30 -178 -19 -185 8 -5 75 -8 149 -7 l135 3 23 125 c33 177 31 173 75
182 175 36 308 213 294 391 -14 163 -142 314 -290 342 -20 4 -37 11 -37 15 0
5 -11 75 -25 156 -32 190 -83 396 -146 589 -65 201 -103 295 -198 484 -183
363 -346 595 -637 907 l-113 120 167 140 c265 221 282 239 282 297 0 59 -54
134 -113 156 -39 15 -73 14 -108 -5 -31 -15 -207 -161 -372 -306 l-88 -77 -82
71 c-222 192 -650 428 -1022 563 -226 82 -564 164 -808 196 l-98 13 -29 53
c-44 78 -92 126 -162 164 -57 30 -73 34 -158 36 -82 3 -103 0 -151 -20z m716
-563 c487 -95 927 -270 1300 -517 105 -70 255 -185 254 -195 0 -4 -28 -30 -62
-58 -34 -29 -150 -126 -258 -216 -185 -156 -197 -164 -215 -149 -42 35 -207
215 -349 381 -306 358 -452 502 -694 686 -68 52 -120 94 -115 94 5 0 68 -12
139 -26z m-747 -166 c8 -8 12 -60 12 -170 l0 -158 -54 0 c-70 0 -314 -42 -431
-74 -55 -15 -83 -20 -72 -12 10 8 77 65 148 127 119 103 366 298 380 299 3 0
10 -5 17 -12z m481 -90 c75 -57 181 -141 236 -188 55 -48 115 -96 133 -109 18
-13 31 -25 29 -27 -2 -2 -48 7 -103 21 -139 34 -325 65 -394 65 l-57 0 -5 158
c-5 160 -4 182 14 182 6 0 72 -46 147 -102z m-2741 -3410 c14 -193 50 -419 91
-578 93 -360 258 -724 454 -1003 l55 -78 -46 -43 c-26 -23 -110 -97 -187 -163
-77 -66 -187 -161 -243 -211 l-104 -91 -88 92 c-362 379 -609 775 -762 1226
-75 222 -120 416 -163 706 l-22 150 50 65 c27 35 51 70 54 77 4 10 95 13 452
13 l447 0 12 -162z m969 -2080 c94 -101 219 -239 278 -308 238 -276 459 -486
698 -664 21 -15 36 -30 34 -33 -8 -7 -323 56 -465 93 -396 105 -719 250 -1057
476 -168 113 -205 141 -204 155 0 4 60 56 132 115 73 60 195 162 272 228 77
65 141 119 141 120 1 0 78 -82 171 -182z m1077 -478 c77 -11 159 -21 181 -22
l40 -3 3 -140 c4 -200 6 -199 -138 -89 -122 92 -376 299 -384 313 -3 4 31 -3
75 -16 45 -12 145 -32 223 -43z m1000 19 c-90 -95 -428 -361 -449 -353 -22 9
-24 25 -18 167 l6 136 41 5 c130 15 281 39 346 55 104 26 108 26 74 -10z"/>
<path d="M2422 3933 c-94 -46 -124 -177 -61 -265 43 -59 145 -86 207 -54 66
35 118 123 106 180 -26 122 -148 190 -252 139z"/>
<path d="M1043 8721 c-24 -11 -51 -34 -63 -53 -20 -32 -20 -48 -20 -936 0
-885 0 -904 20 -942 41 -80 150 -103 224 -47 55 43 66 78 66 221 l0 126 199 0
200 0 3 -144 c3 -128 5 -148 24 -173 70 -94 206 -83 265 21 20 35 24 56 25
136 0 52 1 110 2 128 l2 32 199 0 199 0 4 -139 c3 -151 9 -169 70 -214 69 -51
181 -20 225 63 l23 43 0 884 c0 950 2 909 -49 966 -20 24 -76 47 -111 47 -62
0 -128 -46 -149 -103 -7 -17 -11 -118 -11 -253 l0 -224 -200 0 -200 0 0 223
c0 250 -8 282 -71 328 -45 32 -134 34 -175 3 -68 -51 -69 -52 -72 -315 l-3
-239 -197 2 -197 3 -5 237 c-5 219 -7 239 -26 264 -52 70 -126 90 -201 55z
m1347 -1101 l0 -240 -554 0 -553 0 -7 31 c-3 17 -6 125 -6 240 l0 209 560 0
560 0 0 -240z"/>
<path d="M4969 6841 c-171 -32 -338 -103 -466 -200 -134 -101 -232 -222 -302
-373 -66 -141 -83 -225 -88 -445 l-5 -192 -67 -6 c-36 -3 -89 -12 -118 -21
-69 -20 -162 -89 -201 -151 -65 -101 -63 -65 -60 -1000 l3 -848 24 -48 c37
-75 113 -152 189 -189 l67 -33 995 -2 c573 -2 1001 1 1009 6 12 8 12 79 3 476
-7 312 -7 476 -1 494 11 29 54 77 84 94 11 7 88 14 175 17 l155 6 105 45 105
44 2 364 c2 287 0 378 -12 433 -26 126 -97 218 -210 274 -65 32 -80 36 -152
36 l-81 0 -6 36 c-3 20 -6 109 -6 198 0 129 -4 177 -21 245 -57 230 -205 435
-411 572 -177 118 -326 167 -528 172 -74 2 -156 0 -181 -4z m354 -339 c227
-82 393 -255 447 -468 16 -62 20 -111 20 -246 l0 -168 -681 0 -682 0 6 183 c4
135 10 199 24 248 42 145 154 291 287 373 80 50 102 60 201 87 95 26 292 21
378 -9z m-98 -1556 c56 -26 119 -90 142 -144 21 -51 19 -150 -5 -204 -22 -50
-73 -105 -118 -128 -16 -8 -30 -15 -32 -16 -3 -2 48 -188 122 -447 19 -70 15
-72 -200 -75 -209 -3 -230 -1 -239 27 -3 11 22 126 57 257 42 161 59 239 51
241 -35 12 -102 77 -128 124 -76 140 -6 319 148 376 55 20 146 16 202 -11z"/>
<path d="M5055 6221 c-134 -60 -149 -240 -27 -309 90 -50 194 -16 243 80 24
47 24 91 0 143 -22 48 -44 69 -94 90 -47 19 -73 19 -122 -4z"/>
<path d="M7632 6563 c-99 -48 -130 -189 -59 -270 35 -40 95 -73 132 -73 34 0
94 26 123 53 33 30 62 90 62 127 0 36 -23 96 -48 123 -48 53 -146 72 -210 40z"/>
<path d="M2423 6495 c-148 -89 -86 -295 84 -282 162 12 214 213 73 285 -58 29
-105 28 -157 -3z"/>
<path d="M6923 5241 c-115 -53 -125 -205 -17 -271 42 -26 107 -29 150 -7 45
23 92 81 100 124 10 55 -27 121 -86 151 -54 27 -92 28 -147 3z"/>
<path d="M7278 4614 c-221 -203 -413 -317 -663 -390 -93 -27 -239 -54 -299
-55 -59 0 -109 -20 -123 -49 -29 -57 22 -597 77 -809 149 -581 532 -1139 998
-1453 40 -27 89 -56 107 -64 31 -13 37 -12 87 15 170 89 435 334 607 562 185
246 318 500 414 795 81 247 132 464 144 621 5 73 9 86 31 103 21 17 35 19 91
14 79 -6 117 12 145 70 22 46 14 86 -25 130 -38 44 -81 54 -261 60 -173 7
-269 19 -393 51 -264 67 -511 207 -747 424 -36 33 -73 61 -82 61 -9 0 -57 -39
-108 -86z"/>
<path d="M8804 3306 c-49 -21 -69 -57 -120 -209 -128 -388 -347 -763 -610
-1046 -178 -192 -583 -491 -664 -491 -30 0 -133 57 -235 130 -44 32 -90 61
-103 65 -35 10 -79 -4 -112 -37 -25 -25 -30 -38 -30 -77 0 -62 16 -81 133
-169 157 -118 292 -192 348 -192 45 0 144 52 303 157 565 375 965 908 1203
1600 l55 162 -18 37 c-32 65 -94 93 -150 70z"/>
</g>
</svg>
