<?xml version="1.0" standalone="no"?>
<!DOCTYPE svg PUBLIC "-//W3C//DTD SVG 20010904//EN"
 "http://www.w3.org/TR/2001/REC-SVG-20010904/DTD/svg10.dtd">
<svg version="1.0" xmlns="http://www.w3.org/2000/svg"
 width="1024.000000pt" height="1024.000000pt" viewBox="0 0 1024.000000 1024.000000"
 preserveAspectRatio="xMidYMid meet">
<metadata>
Created by potrace 1.16, written by Peter Selinger 2001-2019
</metadata>
<g transform="translate(0.000000,1024.000000) scale(0.100000,-0.100000)"
fill="#000000" stroke="none">
<path d="M2002 8520 c-221 -58 -398 -242 -447 -462 -14 -66 -15 -352 -13
-3013 l3 -2940 22 -65 c33 -96 89 -184 168 -264 78 -79 151 -122 265 -158 l75
-23 2985 0 c2860 0 2988 1 3049 18 96 27 199 80 258 132 70 62 147 182 181
280 l27 80 3 2920 c3 2218 0 2940 -9 3004 -27 190 -165 369 -348 453 -134 61
75 58 -3171 57 -2895 0 -2977 -1 -3048 -19z m5681 -731 c50 -14 112 -71 129
-117 11 -30 13 -517 13 -2602 l0 -2565 -25 -45 c-14 -24 -45 -58 -68 -75 l-44
-30 -2611 -3 c-1835 -2 -2623 0 -2649 8 -49 14 -94 53 -121 104 l-22 41 1
2575 c0 2364 2 2578 17 2606 21 41 80 92 115 100 15 3 32 7 37 9 6 2 1176 4
2600 4 1797 1 2602 -2 2628 -10z"/>
<path d="M4845 7293 c-514 -46 -815 -118 -1110 -265 -133 -67 -203 -118 -305
-224 -163 -169 -261 -354 -322 -604 -8 -35 -13 -116 -13 -220 1 -150 3 -174
29 -270 41 -149 77 -230 151 -339 100 -150 199 -244 360 -341 290 -175 693
-280 1600 -415 315 -47 621 -116 773 -173 148 -56 274 -164 307 -261 18 -55
21 -168 6 -219 -35 -119 -155 -227 -321 -291 -443 -171 -1275 -174 -1745 -6
-123 44 -190 83 -265 151 -73 68 -109 125 -159 247 -86 211 -190 296 -371 305
-109 5 -177 -19 -253 -88 -193 -176 -163 -459 91 -840 184 -278 419 -427 846
-540 541 -143 1381 -144 1926 -4 475 123 735 311 912 661 109 214 148 400 128
613 -26 281 -127 507 -305 685 -288 288 -718 422 -1870 585 -480 68 -822 180
-958 314 -185 183 -134 445 116 594 144 86 302 135 562 174 130 20 189 23 450
23 329 -1 433 -11 660 -65 207 -49 335 -107 435 -197 69 -62 109 -126 150
-238 45 -123 55 -141 117 -206 35 -37 75 -67 116 -85 54 -26 74 -29 157 -29
82 0 103 4 152 27 79 37 142 98 181 177 31 63 32 70 31 181 0 104 -3 123 -33
205 -68 185 -174 356 -303 491 -108 112 -178 164 -318 234 -264 131 -607 215
-1023 249 -118 10 -488 12 -582 4z"/>
</g>
</svg>
