<?xml version="1.0" standalone="no"?>
<!DOCTYPE svg PUBLIC "-//W3C//DTD SVG 20010904//EN"
 "http://www.w3.org/TR/2001/REC-SVG-20010904/DTD/svg10.dtd">
<svg version="1.0" xmlns="http://www.w3.org/2000/svg"
 width="1024.000000pt" height="1024.000000pt" viewBox="0 0 1024.000000 1024.000000"
 preserveAspectRatio="xMidYMid meet">
<metadata>
Created by potrace 1.16, written by Peter Selinger 2001-2019
</metadata>
<g transform="translate(0.000000,1024.000000) scale(0.100000,-0.100000)"
fill="#000000" stroke="none">
<path d="M4922 9160 c-160 -42 -184 -61 -547 -426 l-330 -333 -117 60 c-133
67 -221 98 -358 129 -162 36 -334 42 -995 37 -581 -4 -625 -6 -695 -25 -207
-55 -360 -140 -490 -271 -128 -129 -197 -238 -257 -411 -49 -139 -58 -205 -57
-420 0 -177 3 -204 26 -291 47 -172 131 -335 250 -486 71 -90 123 -141 221
-221 85 -70 139 -103 290 -179 104 -52 107 -55 93 -75 -8 -11 -147 -156 -308
-322 -328 -336 -358 -371 -411 -478 -62 -125 -80 -216 -75 -382 4 -128 8 -149
37 -227 62 -167 88 -197 680 -792 507 -509 551 -551 616 -582 94 -46 172 -65
271 -65 111 0 229 24 350 71 188 73 232 109 727 603 403 402 450 445 466 434
23 -16 695 -697 699 -709 2 -4 -212 -9 -475 -11 -462 -3 -481 -4 -568 -26
-318 -82 -547 -322 -612 -640 -19 -97 -22 -316 -4 -397 22 -102 70 -213 134
-309 52 -77 148 -177 645 -671 321 -319 608 -597 639 -617 138 -94 338 -118
506 -60 49 17 114 47 145 68 32 20 201 180 377 355 l319 319 69 -42 c122 -73
360 -150 552 -178 56 -8 287 -10 775 -8 l695 4 94 27 c318 93 533 278 681 590
136 284 155 604 55 905 -121 361 -399 663 -750 816 -41 18 -78 36 -82 40 -4 3
138 151 314 329 349 350 400 414 447 554 40 117 52 231 38 347 -23 181 -89
315 -233 472 -128 139 -928 947 -987 997 -63 54 -161 106 -237 128 -81 23
-272 18 -380 -10 -121 -31 -243 -85 -340 -150 -80 -54 -387 -353 -767 -748
l-165 -171 -356 356 c-197 197 -357 360 -357 364 0 4 222 9 493 11 558 4 535
1 716 89 89 43 117 62 186 132 217 217 303 542 225 856 -24 99 -91 242 -150
320 -52 70 -1024 1057 -1145 1162 -52 46 -120 94 -160 114 -130 64 -285 80
-423 44z m-1757 -1018 c108 -31 220 -93 310 -172 40 -36 74 -68 74 -72 1 -4
-22 -38 -50 -75 -94 -126 -140 -252 -160 -436 -32 -292 59 -541 270 -739 63
-60 103 -87 183 -126 97 -48 205 -82 258 -82 65 0 106 -38 877 -818 423 -427
806 -817 853 -865 160 -167 307 -265 453 -304 83 -22 251 -21 336 1 233 62
405 238 472 482 17 63 20 97 17 188 -3 97 -7 118 -32 164 -64 125 -157 186
-282 187 -59 0 -80 -5 -129 -30 -108 -55 -170 -170 -163 -300 2 -42 -1 -65 -8
-65 -17 0 -72 48 -159 138 l-79 83 344 345 c389 389 405 401 510 391 35 -3 76
-14 98 -27 30 -18 593 -582 832 -833 l64 -68 -120 -122 c-65 -67 -263 -268
-440 -447 -176 -179 -335 -349 -354 -378 -81 -130 -112 -313 -75 -447 33 -122
124 -232 234 -284 50 -23 68 -26 166 -26 134 1 184 18 295 101 72 54 75 56
122 50 137 -18 344 -111 465 -209 217 -174 342 -475 304 -727 -36 -235 -163
-426 -336 -506 -127 -58 -133 -59 -720 -59 -427 0 -551 3 -595 14 -58 14 -169
66 -223 102 -41 28 -157 141 -157 152 0 5 16 28 36 50 49 58 119 205 146 307
19 70 23 112 23 240 0 139 -3 165 -28 255 -90 322 -316 535 -637 599 l-75 15
-685 688 c-377 379 -773 780 -880 892 -242 252 -310 310 -425 366 -120 58
-177 70 -320 69 -108 -1 -130 -4 -218 -34 -123 -41 -194 -86 -278 -178 -108
-117 -158 -232 -179 -408 -20 -180 27 -304 146 -383 152 -100 369 -35 445 134
19 41 23 66 21 138 -1 98 7 107 64 65 32 -24 177 -174 182 -188 2 -5 -81 -95
-185 -202 -554 -570 -522 -543 -648 -543 -71 0 -86 3 -131 30 -33 20 -196 176
-469 453 l-418 423 449 452 c478 481 501 509 545 647 29 90 29 231 0 320 -36
112 -138 220 -241 255 -143 50 -331 15 -455 -84 -34 -28 -44 -31 -80 -26 -168
27 -340 94 -459 179 -96 68 -214 200 -263 292 -66 125 -95 237 -96 369 -1 290
138 514 375 609 96 38 152 41 728 41 465 0 477 0 555 -23z m2347 -425 c471
-465 459 -450 434 -547 -16 -62 -56 -114 -109 -143 -41 -22 -49 -22 -460 -25
l-419 -3 -201 198 c-111 109 -227 224 -257 256 l-54 58 314 314 c173 173 317
315 320 315 3 0 197 -190 432 -423z m-301 -4506 c24 -17 87 -74 139 -128 52
-54 153 -157 224 -230 l129 -132 -136 -143 c-75 -79 -217 -225 -314 -326
l-178 -183 -411 413 c-264 265 -419 428 -433 455 -23 46 -27 115 -10 160 22
59 98 118 171 132 24 5 208 9 409 10 l366 1 44 -29z"/>
<path d="M8758 8956 c-78 -21 -123 -57 -158 -129 -54 -110 -40 -219 38 -300
58 -60 106 -81 182 -81 148 1 260 113 260 259 0 170 -160 295 -322 251z"/>
<path d="M6990 8944 c-84 -36 -140 -122 -148 -225 -6 -83 8 -125 60 -184 106
-120 271 -124 378 -9 53 58 73 105 73 175 1 106 -79 220 -172 247 -53 16 -149
14 -191 -4z"/>
<path d="M7450 8151 c-109 -34 -190 -142 -190 -256 0 -96 92 -221 181 -246
175 -48 342 72 342 246 1 114 -73 219 -174 249 -56 17 -117 19 -159 7z"/>
<path d="M8287 8106 c-61 -17 -96 -43 -124 -91 -62 -111 -19 -256 91 -306 37
-17 71 -19 349 -19 335 0 352 2 410 58 110 104 81 270 -58 345 -38 21 -54 22
-330 24 -216 2 -302 -1 -338 -11z"/>
<path d="M8785 7334 c-137 -34 -215 -129 -215 -265 0 -193 197 -318 368 -233
123 61 180 212 127 340 -19 47 -85 115 -130 135 -44 19 -118 30 -150 23z"/>
<path d="M1320 3412 c-14 -2 -46 -10 -72 -18 -88 -28 -168 -145 -168 -246 0
-169 166 -300 323 -254 71 21 129 65 164 123 24 42 28 58 28 128 0 70 -4 87
-30 135 -18 32 -47 66 -71 83 -43 30 -131 55 -174 49z"/>
<path d="M2555 2554 c-102 -36 -167 -134 -167 -251 -1 -80 20 -129 79 -186 88
-86 194 -102 304 -44 172 89 192 313 40 444 -56 48 -176 66 -256 37z"/>
<path d="M1199 2500 c-77 -41 -115 -118 -107 -218 6 -67 46 -127 107 -159 44
-23 48 -23 365 -23 362 0 374 2 434 75 83 102 47 267 -71 324 -41 20 -58 21
-368 21 -300 -1 -327 -2 -360 -20z"/>
<path d="M3043 1740 c-125 -25 -206 -127 -207 -260 0 -143 109 -252 254 -252
102 0 189 58 236 157 87 183 -82 395 -283 355z"/>
<path d="M1235 1721 c-83 -38 -155 -150 -155 -241 0 -40 25 -115 50 -149 54
-77 163 -120 256 -101 108 23 194 112 210 217 15 101 -45 218 -136 265 -65 34
-162 38 -225 9z"/>
</g>
</svg>
