<?xml version="1.0" standalone="no"?>
<!DOCTYPE svg PUBLIC "-//W3C//DTD SVG 20010904//EN"
 "http://www.w3.org/TR/2001/REC-SVG-20010904/DTD/svg10.dtd">
<svg version="1.0" xmlns="http://www.w3.org/2000/svg"
 width="1024.000000pt" height="1024.000000pt" viewBox="0 0 1024.000000 1024.000000"
 preserveAspectRatio="xMidYMid meet">
<metadata>
Created by potrace 1.16, written by Peter Selinger 2001-2019
</metadata>
<g transform="translate(0.000000,1024.000000) scale(0.100000,-0.100000)"
fill="#000000" stroke="none">
<path d="M5085 8784 c-89 -21 -119 -31 -180 -61 -91 -45 -168 -105 -218 -171
-22 -29 -48 -57 -58 -62 -10 -6 -186 -10 -424 -10 -518 0 -603 -9 -840 -86
-236 -78 -439 -208 -625 -400 -184 -192 -290 -385 -357 -649 -24 -96 -25 -119
-33 -525 -5 -234 -9 -474 -9 -533 -1 -99 -3 -110 -25 -131 -14 -15 -46 -29
-82 -36 -374 -77 -692 -325 -867 -675 -81 -162 -112 -307 -111 -515 0 -122 5
-162 27 -254 82 -331 330 -641 637 -796 72 -36 207 -82 307 -105 110 -25 109
-23 116 -267 8 -286 9 -279 -86 -351 -95 -71 -166 -163 -206 -267 -30 -78 -51
-186 -51 -263 0 -76 29 -215 59 -280 39 -86 137 -206 214 -261 206 -147 446
-164 685 -50 154 74 274 212 333 384 31 88 38 266 14 365 -27 120 -84 221
-180 323 -47 51 -85 100 -86 109 -4 95 5 471 12 484 5 10 19 21 31 25 12 3
177 7 367 8 371 2 424 8 616 62 177 50 385 165 530 295 39 34 259 247 490 474
662 648 710 690 880 771 211 100 279 107 1110 102 641 -4 651 -5 725 -27 200
-60 339 -206 371 -390 30 -169 -58 -355 -218 -465 -129 -87 -135 -88 -573 -97
-615 -13 -610 -12 -735 -48 -186 -54 -362 -148 -527 -282 -35 -28 -376 -365
-758 -749 -675 -677 -697 -698 -776 -738 -198 -101 -318 -236 -381 -427 -22
-68 -26 -99 -27 -205 -1 -75 4 -147 13 -180 31 -129 138 -299 238 -377 52 -42
163 -97 238 -119 41 -12 94 -17 170 -17 191 1 320 49 467 173 46 38 99 74 118
80 21 6 232 10 540 10 541 0 588 3 775 54 251 68 505 221 686 414 190 201 325
470 391 774 20 93 22 141 27 495 6 376 7 393 26 413 12 12 71 34 149 55 225
62 413 166 559 311 229 227 367 548 367 853 0 130 -12 205 -52 330 -43 135
-76 204 -154 322 -171 260 -428 433 -764 515 -40 9 -85 27 -99 40 l-26 22 -3
355 -3 355 43 38 c154 139 229 256 263 409 44 198 -13 427 -144 578 -159 183
-355 260 -595 236 -174 -18 -285 -74 -424 -218 l-93 -96 -499 -3 c-498 -3
-499 -3 -521 19 -23 23 -22 31 1 144 28 136 -8 330 -87 465 -46 79 -159 193
-235 238 -104 62 -189 85 -323 88 -66 2 -129 1 -140 -2z m-430 -1054 c13 -14
27 -40 31 -58 7 -36 89 51 -736 -791 -495 -504 -631 -626 -783 -697 -63 -29
-81 -30 -107 -4 -19 19 -20 33 -20 414 0 433 5 481 59 622 78 200 221 358 412
454 162 82 212 88 711 86 l408 -1 25 -25z m2244 -624 c15 -8 48 -39 73 -68 25
-29 71 -71 101 -93 31 -22 61 -50 66 -63 7 -15 11 -140 11 -347 l0 -324 -24
-28 -24 -28 -489 -6 c-452 -6 -495 -8 -587 -28 -284 -63 -489 -163 -736 -359
-52 -42 -315 -295 -585 -563 -269 -268 -503 -498 -520 -512 -109 -87 -236
-155 -362 -193 -86 -26 -97 -27 -453 -34 -479 -10 -895 -3 -974 17 -85 21
-145 54 -217 120 -98 91 -139 165 -159 289 -21 128 33 284 132 382 62 61 79
73 146 107 101 51 150 56 552 64 369 8 376 8 465 35 187 57 349 144 485 261
30 26 277 268 549 539 527 524 613 605 705 668 130 89 304 151 471 167 44 5
365 9 713 10 532 1 637 -1 661 -13z m221 -3386 l25 -19 -1 -318 c-1 -355 -6
-390 -71 -543 -104 -244 -275 -404 -517 -485 -126 -41 -199 -46 -658 -43 -412
3 -428 4 -447 23 -12 11 -23 34 -27 51 -6 29 10 46 393 425 763 757 793 783
968 857 85 36 217 70 275 71 20 0 46 -8 60 -19z"/>
</g>
</svg>
