<?xml version="1.0" standalone="no"?>
<!DOCTYPE svg PUBLIC "-//W3C//DTD SVG 20010904//EN"
 "http://www.w3.org/TR/2001/REC-SVG-20010904/DTD/svg10.dtd">
<svg version="1.0" xmlns="http://www.w3.org/2000/svg"
 width="1024.000000pt" height="1024.000000pt" viewBox="0 0 1024.000000 1024.000000"
 preserveAspectRatio="xMidYMid meet">
<metadata>
Created by potrace 1.16, written by Peter Selinger 2001-2019
</metadata>
<g transform="translate(0.000000,1024.000000) scale(0.100000,-0.100000)"
fill="#000000" stroke="none">
<path d="M4755 8654 c-434 -47 -857 -174 -1273 -383 -608 -305 -1057 -705
-1437 -1281 -257 -389 -442 -844 -515 -1270 -43 -253 -52 -342 -57 -572 -6
-262 4 -407 43 -632 88 -502 263 -944 540 -1361 346 -523 771 -906 1324 -1193
366 -191 687 -304 1070 -377 254 -49 368 -59 665 -59 237 0 306 3 450 22 421
57 793 167 1168 345 402 192 727 424 1038 744 270 278 463 554 640 918 103
212 172 397 234 629 219 822 144 1632 -220 2392 -238 497 -595 949 -1015 1286
-104 83 -332 235 -477 317 -112 63 -368 187 -478 231 -235 95 -553 185 -770
220 -249 40 -677 51 -930 24z m553 -544 c438 -30 832 -142 1231 -351 561 -294
965 -683 1282 -1234 161 -281 287 -641 346 -991 25 -153 25 -670 0 -853 -77
-547 -294 -1055 -628 -1471 -409 -510 -1056 -904 -1729 -1054 -250 -55 -384
-69 -675 -69 -296 0 -405 10 -665 63 -393 81 -748 231 -1120 474 -639 416
-1068 1047 -1235 1816 -61 279 -70 366 -69 665 1 223 5 295 22 410 47 307 127
564 257 830 165 337 360 609 621 867 518 512 1272 851 1994 898 171 11 211 11
368 0z"/>
<path d="M3227 6869 c-87 -20 -154 -74 -198 -159 l-24 -45 -3 -1570 c-3 -1753
-8 -1622 69 -1709 22 -25 65 -57 97 -73 l57 -28 1895 0 1895 0 46 21 c67 31
114 78 149 146 l30 61 0 1566 c0 1548 -1 1567 -21 1610 -32 71 -84 127 -147
158 l-57 28 -1875 2 c-1073 0 -1891 -3 -1913 -8z m3445 -1141 c2 -321 2 -874
0 -1231 l-3 -647 -1552 2 -1552 3 -3 1195 c-1 657 0 1210 3 1228 l6 32 1549 0
1549 0 3 -582z"/>
<path d="M4119 5845 c-52 -17 -107 -66 -135 -121 -18 -37 -19 -71 -22 -619 -2
-417 0 -592 9 -622 25 -93 133 -173 234 -173 95 0 192 66 234 160 18 38 21 66
21 188 l0 142 145 0 145 0 0 -133 c0 -150 12 -200 61 -260 71 -86 198 -121
290 -80 65 29 113 76 138 133 21 49 21 55 19 638 l-3 589 -30 49 c-103 166
-346 162 -440 -8 -29 -51 -30 -58 -33 -210 l-4 -158 -143 0 -144 0 -3 158 c-3
178 -10 202 -80 271 -68 66 -159 86 -259 56z"/>
<path d="M5931 5849 c-82 -24 -150 -95 -171 -179 -7 -31 -10 -222 -8 -610 3
-557 3 -566 25 -605 47 -88 146 -149 237 -147 64 1 146 42 191 95 66 76 66 79
63 708 -3 560 -3 564 -25 605 -60 113 -190 168 -312 133z"/>
</g>
</svg>
