<?xml version="1.0" standalone="no"?>
<!DOCTYPE svg PUBLIC "-//W3C//DTD SVG 20010904//EN"
 "http://www.w3.org/TR/2001/REC-SVG-20010904/DTD/svg10.dtd">
<svg version="1.0" xmlns="http://www.w3.org/2000/svg"
 width="1024.000000pt" height="1024.000000pt" viewBox="0 0 1024.000000 1024.000000"
 preserveAspectRatio="xMidYMid meet">
<metadata>
Created by potrace 1.16, written by Peter Selinger 2001-2019
</metadata>
<g transform="translate(0.000000,1024.000000) scale(0.100000,-0.100000)"
fill="#000000" stroke="none">
<path d="M4887 9283 c-4 -3 -7 -54 -7 -112 l0 -106 -72 -23 -72 -23 -62 62
c-34 34 -67 60 -73 58 -18 -6 -231 -222 -231 -233 0 -7 29 -40 63 -75 l64 -62
-30 -78 -29 -78 -97 1 -96 1 0 -165 0 -165 97 0 97 0 25 -65 c14 -36 26 -71
26 -78 0 -6 -29 -42 -64 -80 l-65 -68 112 -112 c62 -62 117 -112 122 -112 5 0
39 29 75 65 l65 64 72 -27 72 -27 3 -100 3 -100 158 -3 157 -3 0 106 c0 93 2
105 18 105 9 0 44 12 77 25 l60 25 60 -65 c33 -36 65 -65 70 -65 13 0 225 212
225 224 0 5 -29 40 -65 76 l-64 67 27 64 c41 97 33 91 136 87 l91 -3 0 164 0
163 -93 2 -93 1 -25 60 c-42 98 -43 90 31 165 62 62 66 70 54 87 -18 25 -208
207 -221 212 -6 2 -39 -25 -73 -59 l-64 -63 -69 22 c-81 26 -82 28 -82 167 l0
84 -153 0 c-85 0 -157 -3 -160 -7z m298 -497 c73 -33 148 -106 182 -175 25
-50 28 -67 28 -156 0 -88 -3 -107 -27 -158 -60 -128 -177 -201 -323 -200 -168
0 -299 92 -346 244 -62 200 42 398 246 466 60 20 173 10 240 -21z"/>
<path d="M3405 9219 c-43 -25 -45 -34 -45 -246 l0 -203 -199 0 -199 0 -31 -26
c-38 -32 -41 -72 -7 -111 l24 -28 204 -5 203 -5 5 -213 c5 -210 5 -214 29
-233 32 -26 74 -24 108 5 l28 24 2 209 3 208 196 5 196 5 24 28 c31 37 31 81
-1 112 -24 25 -25 25 -220 25 l-195 0 -1 68 c-1 37 -2 129 -3 204 -1 123 -3
139 -21 157 -25 25 -74 35 -100 20z"/>
<path d="M7516 9074 c-60 -64 -68 -76 -55 -88 128 -122 154 -129 222 -67 24
22 49 52 57 66 13 25 12 28 -55 95 -38 39 -76 69 -85 69 -8 -1 -46 -35 -84
-75z"/>
<path d="M1679 9121 c-23 -19 -24 -25 -27 -180 l-3 -161 31 -31 c36 -36 71
-34 108 7 21 24 22 33 22 177 -1 159 -4 173 -47 195 -31 17 -57 15 -84 -7z"/>
<path d="M2015 9115 c-24 -24 -25 -28 -25 -183 0 -153 1 -159 23 -180 32 -30
77 -29 107 3 23 25 24 33 26 177 l2 151 -28 29 c-35 35 -73 36 -105 3z"/>
<path d="M2667 9102 c-13 -15 -17 -39 -17 -116 0 -90 2 -99 25 -121 29 -30 50
-31 93 -5 l32 20 0 104 c0 97 -2 106 -22 120 -31 22 -91 20 -111 -2z"/>
<path d="M6503 9096 c-68 -22 -127 -61 -181 -121 -254 -277 -66 -716 306 -715
249 1 442 188 442 429 0 128 -43 225 -140 315 -82 75 -145 98 -280 103 -70 2
-119 -2 -147 -11z m235 -215 c117 -60 158 -211 86 -314 -83 -117 -259 -128
-352 -22 -37 42 -62 100 -62 142 0 75 79 180 156 209 49 18 120 12 172 -15z"/>
<path d="M6601 8774 c-39 -17 -66 -73 -53 -112 4 -14 20 -35 35 -45 89 -67
201 60 120 135 -36 33 -63 39 -102 22z"/>
<path d="M2370 9081 l-35 -18 -3 -147 c-2 -144 -2 -147 22 -171 32 -32 75 -33
104 -2 21 22 22 33 22 170 l0 147 -32 20 c-40 24 -36 24 -78 1z"/>
<path d="M3083 9078 c-45 -49 -36 -115 18 -143 42 -22 67 -18 100 14 60 60 24
151 -59 151 -27 0 -45 -7 -59 -22z"/>
<path d="M3675 9075 c-25 -24 -33 -73 -19 -110 8 -19 55 -45 83 -45 30 0 80
50 87 86 4 24 0 37 -21 62 -35 42 -93 45 -130 7z"/>
<path d="M8121 8809 c-237 -46 -431 -203 -519 -418 -12 -29 -22 -57 -22 -62 0
-4 -40 -47 -88 -96 -148 -149 -197 -280 -189 -503 4 -133 14 -174 71 -289 44
-92 177 -225 273 -274 145 -75 162 -77 737 -77 557 0 576 2 679 57 65 36 148
128 186 205 110 227 6 500 -234 618 l-70 34 4 108 c7 211 -53 363 -198 508
-106 106 -192 154 -324 181 -96 20 -229 23 -306 8z m272 -279 c167 -52 287
-208 287 -373 0 -126 -40 -204 -137 -268 -125 -83 -140 -209 -31 -265 46 -24
89 -11 153 45 70 61 128 80 194 62 59 -15 109 -56 139 -112 46 -85 10 -203
-75 -245 -36 -18 -66 -19 -533 -19 -490 0 -496 0 -550 22 -112 46 -209 144
-252 253 -15 40 -21 76 -20 135 0 141 49 230 178 325 l82 60 4 54 c9 104 88
222 189 283 107 64 251 80 372 43z"/>
<path d="M1217 8717 c-31 -29 -57 -59 -57 -68 0 -23 56 -85 94 -103 32 -15 39
-15 63 -2 16 8 50 37 76 64 l48 49 -61 56 c-37 34 -70 57 -84 57 -13 0 -45
-21 -79 -53z"/>
<path d="M1805 8526 c-150 -30 -253 -84 -355 -186 -76 -76 -139 -177 -165
-264 l-12 -40 -79 -12 c-90 -13 -148 -34 -219 -79 -65 -42 -155 -138 -183
-196 -25 -51 -52 -165 -52 -219 0 -59 28 -171 57 -230 35 -68 131 -166 199
-202 109 -58 102 -58 899 -58 464 0 746 4 775 11 242 56 413 310 371 549 -35
192 -166 335 -358 392 -55 17 -73 26 -73 40 0 34 -42 128 -89 200 -90 139
-241 245 -401 282 -96 23 -233 28 -315 12z m285 -285 c116 -45 202 -133 239
-249 12 -34 21 -66 21 -70 0 -4 -15 -14 -34 -20 -69 -25 -118 -112 -102 -179
4 -14 22 -41 41 -60 26 -26 41 -33 72 -33 37 0 56 10 131 65 113 83 286 -1
315 -152 8 -42 -17 -124 -50 -164 -15 -18 -48 -41 -73 -53 -44 -21 -59 -21
-718 -24 -435 -2 -694 1 -730 8 -69 12 -123 47 -159 102 -24 36 -28 52 -28
113 0 61 4 77 28 113 15 23 46 54 69 69 36 25 51 28 119 28 63 0 82 -4 102
-20 14 -11 41 -33 61 -48 69 -55 142 -52 195 8 25 29 31 44 31 83 0 51 -32
112 -70 132 -23 12 -20 42 12 133 23 64 94 151 154 188 101 62 258 75 374 30z"/>
<path d="M3079 8421 c-32 -33 -37 -67 -14 -110 16 -33 33 -41 81 -41 92 0 117
122 34 165 -43 22 -68 19 -101 -14z"/>
<path d="M3700 8437 c-61 -31 -61 -130 0 -162 42 -22 58 -19 96 19 24 24 34
43 34 64 0 63 -75 108 -130 79z"/>
<path d="M6354 8046 c-14 -11 -20 -30 -24 -78 l-5 -63 -66 -5 c-82 -6 -109
-26 -109 -81 0 -56 37 -82 112 -77 55 3 57 2 62 -26 3 -16 6 -41 6 -57 0 -64
84 -93 128 -46 17 18 22 36 22 75 l0 52 64 0 c59 0 66 2 90 31 34 40 33 64 -3
100 -26 26 -36 29 -90 29 l-61 0 0 54 c0 68 -26 106 -74 106 -18 0 -41 -6 -52
-14z"/>
<path d="M3659 7834 c-35 -37 -33 -98 4 -130 61 -52 147 -12 147 68 0 81 -96
120 -151 62z"/>
<path d="M3321 7534 c-25 -21 -31 -33 -31 -66 0 -51 43 -98 90 -98 43 0 90 47
90 90 0 42 -15 67 -50 85 -41 21 -64 19 -99 -11z"/>
<path d="M6647 7540 c-79 -62 -8 -198 83 -160 39 16 60 46 60 86 0 46 -9 63
-41 79 -39 21 -72 19 -102 -5z"/>
<path d="M4855 7440 c-186 -16 -455 -80 -649 -154 -325 -126 -614 -309 -857
-544 -303 -292 -516 -625 -644 -1008 -162 -483 -185 -953 -69 -1419 115 -467
356 -897 689 -1230 613 -614 1477 -850 2325 -635 315 80 667 258 924 468 389
319 698 786 834 1262 72 251 101 420 109 635 21 572 -168 1161 -526 1640 -99
132 -350 383 -478 478 -503 372 -1096 553 -1658 507z m42 -1257 c-2 -2 -209
-2 -460 -1 l-456 3 63 111 c155 274 320 466 552 640 101 76 122 90 219 141
l80 42 3 -466 c1 -256 1 -468 -1 -470z m386 886 c298 -150 581 -441 763 -784
l56 -105 -461 0 -461 0 0 465 c0 330 3 465 11 465 6 0 48 -18 92 -41z m-1157
-170 c-105 -112 -177 -206 -250 -326 -59 -97 -196 -365 -196 -382 0 -8 -73
-11 -220 -11 l-221 0 62 83 c187 246 463 488 714 625 50 27 110 61 135 75 25
14 49 25 53 26 5 1 -30 -40 -77 -90z m1967 -23 c211 -124 439 -318 608 -516
57 -67 112 -134 122 -151 l19 -29 -221 0 c-170 0 -221 3 -221 13 0 20 -165
341 -216 420 -47 74 -152 206 -245 310 l-52 58 57 -25 c31 -14 98 -50 149 -80z
m145 -1036 c48 -121 98 -324 127 -510 22 -140 31 -530 16 -680 -19 -197 -94
-523 -163 -712 l-21 -58 -508 0 -509 0 0 1015 0 1015 508 2 c328 2 511 -1 518
-7 6 -5 21 -35 32 -65z m-2668 67 c0 -2 -11 -35 -24 -74 -22 -64 -68 -260 -95
-403 -16 -79 -41 -306 -41 -362 l0 -48 -273 0 -272 0 7 103 c13 195 81 473
164 675 l46 112 244 0 c134 0 244 -1 244 -3z m1332 -1004 c-2 -784 -5 -1009
-15 -1015 -6 -4 -234 -7 -506 -5 l-494 2 -34 90 c-107 276 -173 711 -158 1035
14 321 55 531 170 888 3 9 117 12 522 12 l518 0 -3 -1007z m2128 945 c93 -207
160 -482 185 -755 l6 -73 -269 0 -270 0 -7 88 c-17 220 -65 485 -125 686 -17
55 -30 103 -30 108 0 4 108 8 241 8 l240 0 29 -62z m-3718 -1095 l97 -6 6 -76
c17 -197 89 -553 145 -715 11 -33 20 -63 20 -68 0 -4 -110 -8 -243 -8 l-244 0
-36 78 c-73 154 -133 363 -166 573 -27 174 -31 217 -17 223 17 7 329 7 438 -1z
m3871 -2 c26 -1 27 -3 27 -53 0 -148 -76 -466 -163 -683 l-52 -130 -242 -3
c-158 -1 -243 1 -243 8 0 5 18 72 39 149 65 227 121 533 121 654 0 30 5 57 11
59 9 3 434 3 502 -1z m-3454 -1228 c125 -253 264 -458 426 -630 48 -51 84 -93
80 -93 -4 0 -55 25 -113 56 -316 167 -622 425 -816 688 -31 41 -56 77 -56 80
0 4 96 6 213 6 l212 0 54 -107z m1174 -270 c3 -493 2 -531 -5 -538 -8 -9 -97
37 -198 102 -224 145 -424 347 -572 578 -49 77 -128 218 -128 228 0 4 203 7
450 7 l450 0 3 -377z m1177 366 c0 -14 -13 -39 -84 -157 -187 -315 -467 -586
-755 -732 l-61 -30 0 465 0 466 450 -1 c290 -1 450 -5 450 -11z m750 4 c0 -13
-79 -113 -174 -221 -152 -173 -369 -357 -555 -472 -77 -47 -234 -130 -246
-130 -3 0 42 53 100 117 151 167 310 411 408 628 42 92 21 85 257 85 116 0
210 -3 210 -7z"/>
<path d="M5378 5574 c-15 -8 -35 -28 -43 -44 -43 -84 17 -170 119 -170 l46 0
0 -517 c0 -329 4 -532 11 -556 20 -73 113 -96 169 -42 l30 28 2 235 3 235 95
1 c122 3 180 26 249 102 71 78 81 116 81 310 0 191 -10 234 -77 319 -33 42
-60 64 -106 86 l-62 29 -245 0 c-197 -1 -250 -4 -272 -16z m472 -227 c45 -22
70 -90 70 -189 0 -149 -24 -181 -133 -182 l-72 -1 -3 193 -2 192 57 0 c32 0
69 -6 83 -13z"/>
<path d="M4048 5575 c-15 -8 -32 -24 -38 -35 -6 -12 -10 -236 -10 -643 l0
-624 26 -27 c41 -40 105 -38 149 5 l30 29 3 240 3 240 78 0 c43 0 99 -3 125
-6 l46 -7 0 -233 0 -232 26 -31 c22 -27 33 -31 73 -31 40 0 52 5 77 31 l29 30
3 597 c2 419 0 608 -8 635 -18 61 -89 94 -143 66 -56 -29 -57 -33 -57 -311 l0
-258 -125 0 -124 0 -3 260 -3 260 -26 26 c-32 32 -93 41 -131 19z"/>
<path d="M6928 7212 c-80 -49 -40 -172 55 -172 30 0 74 40 83 74 9 36 -13 84
-47 101 -36 19 -58 18 -91 -3z"/>
<path d="M7389 6887 c-31 -23 -39 -56 -39 -152 0 -89 2 -98 25 -120 24 -24 57
-31 90 -19 32 13 45 59 45 159 0 88 -2 98 -25 120 -26 27 -70 32 -96 12z"/>
<path d="M8975 6873 c-11 -3 -32 -17 -47 -31 -40 -37 -39 -91 3 -126 l31 -26
250 0 250 0 29 29 c37 38 39 88 5 128 l-24 28 -239 2 c-131 1 -247 -1 -258 -4z"/>
<path d="M7732 6847 c-20 -21 -22 -33 -22 -148 1 -132 6 -151 51 -167 28 -11
57 -2 80 24 13 15 18 43 19 129 3 143 4 141 -22 165 -30 27 -79 26 -106 -3z"/>
<path d="M8096 6849 c-26 -20 -26 -22 -26 -153 0 -145 4 -157 62 -171 22 -6
33 -1 58 23 l30 30 0 126 c0 123 0 125 -26 145 -15 12 -37 21 -49 21 -12 0
-34 -9 -49 -21z"/>
<path d="M8465 6858 c-40 -22 -45 -38 -45 -159 0 -103 2 -119 21 -143 16 -20
29 -26 59 -26 30 0 43 6 59 26 18 23 21 41 21 140 0 62 -3 120 -6 129 -7 17
-54 45 -76 45 -7 0 -22 -6 -33 -12z"/>
<path d="M2222 6797 c-20 -21 -22 -34 -22 -144 0 -119 0 -122 26 -142 35 -28
69 -26 99 4 24 23 25 30 25 144 0 111 -2 122 -22 141 -30 27 -79 26 -106 -3z"/>
<path d="M2585 6767 c-18 -15 -28 -36 -32 -64 -5 -35 -2 -45 20 -67 49 -49
111 -42 147 16 25 41 19 74 -21 111 -36 33 -78 35 -114 4z"/>
<path d="M599 6661 c-38 -39 -39 -80 0 -123 l28 -32 227 0 228 -1 29 33 c18
20 29 43 29 61 0 85 -21 91 -290 91 l-222 0 -29 -29z"/>
<path d="M1645 6678 c-35 -19 -45 -41 -45 -100 l0 -58 -61 0 c-33 0 -69 -5
-80 -11 -46 -24 -42 -105 7 -128 14 -6 49 -11 79 -11 l55 0 0 -54 c0 -92 58
-131 118 -81 29 24 32 32 32 81 l0 54 64 0 c59 0 66 2 90 31 32 38 32 50 0 88
-24 29 -31 31 -90 31 l-64 0 0 58 c-1 60 -10 81 -47 100 -26 14 -32 14 -58 0z"/>
<path d="M8048 6324 c-57 -31 -66 -107 -19 -155 l30 -29 701 2 702 3 24 28
c45 52 25 125 -42 153 -51 21 -1357 20 -1396 -2z"/>
<path d="M2318 6281 c-41 -36 -44 -88 -8 -126 31 -33 53 -39 95 -25 58 19 83
92 47 136 -41 51 -88 56 -134 15z"/>
<path d="M7664 6300 c-55 -22 -73 -109 -31 -148 33 -30 69 -36 107 -17 66 34
69 118 6 156 -34 21 -50 22 -82 9z"/>
<path d="M710 6143 l-71 -76 73 -74 c40 -40 76 -73 81 -73 12 0 147 131 147
143 0 11 -140 157 -151 157 -4 0 -39 -34 -79 -77z"/>
<path d="M1110 6142 l-49 -49 47 -46 c26 -26 54 -47 63 -47 16 0 89 70 89 86
0 14 -58 82 -81 95 -17 8 -27 3 -69 -39z"/>
<path d="M2170 5958 c-35 -13 -60 -48 -60 -86 0 -47 46 -92 93 -92 69 0 113
96 70 149 -23 27 -71 41 -103 29z"/>
<path d="M7874 5960 c-31 -12 -54 -49 -54 -88 0 -45 46 -92 90 -92 43 0 90 47
90 90 0 42 -15 67 -50 85 -32 17 -45 18 -76 5z"/>
<path d="M8583 5888 c-37 -12 -100 -59 -393 -293 -226 -181 -292 -244 -316
-300 -11 -28 -14 -107 -14 -402 0 -350 1 -369 21 -409 11 -24 35 -52 53 -63
32 -20 49 -21 729 -22 684 -1 698 0 730 20 18 11 43 38 55 60 23 40 23 42 20
430 l-3 389 -30 43 c-18 26 -117 110 -255 217 -326 252 -390 300 -436 322 -43
22 -108 25 -161 8z m532 -595 l110 -88 3 -287 2 -288 -565 0 -565 0 2 292 3
292 99 81 c54 44 178 141 274 216 l176 135 176 -133 c96 -73 225 -172 285
-220z"/>
<path d="M8545 5356 c-92 -43 -154 -128 -155 -209 0 -73 77 -110 150 -72 17 9
30 19 30 24 0 5 13 23 29 40 49 53 115 33 109 -33 -2 -25 -13 -37 -53 -63 -68
-45 -85 -79 -85 -173 0 -46 5 -81 12 -88 12 -12 143 -17 172 -6 12 5 16 21 16
65 0 35 5 62 13 68 107 85 136 133 137 222 0 183 -205 306 -375 225z"/>
<path d="M940 5771 c-19 -10 -45 -33 -57 -51 -20 -29 -23 -45 -23 -141 l0
-109 -59 0 c-44 0 -66 -6 -92 -23 -65 -44 -64 -37 -64 -512 0 -413 1 -431 20
-465 12 -20 38 -44 62 -56 41 -21 48 -21 710 -19 729 2 697 0 753 60 l25 27 3
444 c2 388 1 448 -13 474 -24 46 -70 70 -137 70 l-56 0 -4 109 c-3 121 -13
144 -78 189 l-33 22 -461 0 c-430 0 -464 -1 -496 -19z m643 -201 l227 0 0 -50
0 -50 -375 0 -375 0 0 49 c0 61 0 61 170 55 69 -2 227 -4 353 -4z m217 -361
c-58 -33 -162 -94 -233 -134 l-127 -74 -178 98 c-167 92 -282 158 -291 167 -2
2 207 4 465 4 l469 0 -105 -61z m-723 -262 c109 -63 233 -133 276 -156 l77
-42 108 59 c59 33 159 90 222 127 113 65 224 125 235 125 3 0 5 -99 5 -220 l0
-220 -565 0 -565 0 0 220 c0 121 2 220 4 220 3 0 94 -51 203 -113z"/>
<path d="M2006 4174 c-49 -49 -28 -129 41 -155 35 -13 39 -12 78 22 29 26 35
38 35 71 0 80 -96 119 -154 62z"/>
<path d="M7884 4182 c-68 -55 -44 -151 42 -168 37 -7 88 31 98 73 20 77 -80
145 -140 95z"/>
<path d="M8940 4084 c-27 -26 -50 -55 -50 -64 0 -10 22 -37 50 -60 l50 -42 37
30 c21 16 46 39 57 50 18 21 18 22 0 45 -11 13 -36 38 -56 56 l-37 32 -51 -47z"/>
<path d="M8320 3958 c-15 -17 -20 -35 -20 -80 l0 -58 -64 0 c-53 0 -69 -4 -90
-22 -41 -37 -43 -72 -8 -108 28 -27 36 -30 96 -30 l65 0 3 -66 c3 -59 6 -69
30 -87 30 -23 67 -18 98 13 16 16 20 34 20 80 l0 60 63 0 c64 1 86 10 105 47
18 32 15 48 -14 82 -24 29 -31 31 -90 31 l-64 0 0 58 c0 76 -18 102 -70 102
-27 0 -45 -7 -60 -22z"/>
<path d="M665 3844 c-39 -9 -67 -29 -81 -56 -21 -40 -17 -64 15 -100 l29 -33
714 -3 c487 -2 725 0 750 8 77 22 100 95 49 152 l-29 33 -714 2 c-392 1 -722
-1 -733 -3z"/>
<path d="M7755 3821 c-30 -13 -54 -44 -61 -78 -5 -25 0 -37 24 -64 41 -46 92
-47 133 -1 36 41 37 73 2 111 -31 33 -67 45 -98 32z"/>
<path d="M9074 3756 l-59 -55 50 -45 c28 -25 58 -48 67 -52 12 -3 36 10 73 43
30 26 55 51 55 55 0 12 -101 108 -114 108 -7 0 -39 -24 -72 -54z"/>
<path d="M2419 3501 c-18 -15 -23 -29 -24 -77 -1 -32 -3 -62 -4 -66 0 -5 -30
-8 -65 -8 -60 0 -66 -2 -91 -32 -30 -35 -28 -69 6 -103 16 -17 31 -20 83 -17
l63 2 6 -67 c6 -75 27 -103 77 -103 51 0 73 29 78 104 l4 66 63 0 c57 0 66 3
84 26 12 15 21 37 21 49 0 12 -9 34 -21 49 -18 23 -27 26 -84 26 l-63 0 -4 66
c-3 55 -8 70 -27 85 -30 24 -72 24 -102 0z"/>
<path d="M7573 3371 c-36 -23 -51 -70 -35 -112 13 -34 34 -49 75 -56 28 -4 40
0 68 25 26 23 33 37 33 66 0 72 -79 115 -141 77z"/>
<path d="M8628 3281 l-53 -52 48 -44 c27 -25 54 -45 61 -45 6 0 32 20 56 45
l44 45 -30 36 c-16 20 -39 43 -51 51 -21 14 -25 12 -75 -36z"/>
<path d="M613 3300 c-50 -20 -58 -93 -15 -142 l29 -31 273 1 273 1 29 28 c37
36 39 93 3 128 l-24 25 -273 -1 c-150 0 -283 -4 -295 -9z"/>
<path d="M8946 3285 c-37 -34 -36 -87 3 -126 l29 -29 237 0 237 0 29 29 c38
39 39 84 2 123 l-27 28 -241 0 -242 0 -27 -25z"/>
<path d="M1620 2923 l0 -131 -52 -18 c-29 -9 -75 -28 -101 -41 l-48 -24 -38
30 c-21 17 -55 51 -75 76 -21 25 -45 45 -55 45 -18 0 -261 -241 -261 -258 0
-5 26 -37 57 -73 31 -35 65 -73 75 -85 18 -20 18 -22 -6 -75 -13 -30 -27 -68
-30 -86 l-7 -32 -117 -3 -117 -3 0 -190 0 -190 119 -5 119 -5 12 -40 c6 -22
19 -54 28 -72 9 -18 17 -38 17 -45 0 -7 -34 -51 -75 -97 l-74 -85 122 -125
c67 -69 127 -127 133 -129 5 -1 49 33 96 78 l86 80 37 -21 c19 -12 61 -29 93
-39 31 -10 58 -23 58 -29 1 -6 2 -65 3 -131 l1 -120 188 2 187 3 0 90 c1 175
0 169 43 182 20 6 61 21 89 34 l53 23 86 -85 87 -84 127 135 128 135 -52 58
c-28 32 -64 73 -79 91 l-29 34 25 48 c13 27 28 64 32 82 l7 32 113 0 c83 0
116 4 124 14 8 9 11 69 9 192 l-3 179 -122 3 c-101 2 -123 5 -123 18 0 8 -11
41 -25 74 -14 33 -25 65 -25 72 0 7 34 49 75 93 41 44 74 86 75 94 0 8 -57 72
-127 143 l-127 128 -71 -68 c-102 -99 -94 -96 -151 -68 -27 13 -68 30 -92 36
l-42 13 0 128 c0 76 -4 130 -10 134 -6 4 -91 7 -190 8 l-180 2 0 -132z m243
-382 c35 -13 67 -51 67 -77 0 -35 -45 -64 -99 -64 -101 0 -191 -39 -256 -111
-57 -63 -78 -121 -79 -214 -1 -96 20 -149 86 -221 63 -68 143 -104 236 -104
88 0 115 -19 110 -78 -4 -52 -46 -72 -151 -72 -182 0 -337 101 -417 272 -127
270 21 584 313 663 61 16 155 19 190 6z m370 -382 c76 -41 77 -149 0 -188 -39
-20 -73 -13 -109 23 -47 47 -47 95 0 142 36 36 70 43 109 23z"/>
<path d="M7304 3050 c-32 -12 -64 -59 -64 -92 0 -40 48 -88 89 -88 47 0 95 48
95 94 0 60 -66 107 -120 86z"/>
<path d="M8094 3048 c-3 -4 -2 -24 2 -43 3 -20 3 -78 -1 -130 l-7 -95 -47 -14
c-26 -7 -71 -24 -100 -36 l-52 -23 -77 76 c-43 43 -82 77 -88 77 -5 0 -67 -58
-138 -129 l-127 -129 85 -94 c47 -51 85 -95 83 -98 -1 -3 -16 -40 -32 -82
l-30 -77 -125 -3 -125 -3 -3 -179 c-2 -123 1 -183 9 -192 9 -10 41 -14 129
-14 l117 0 13 -42 c7 -24 21 -60 32 -81 l19 -38 -48 -55 c-26 -30 -62 -72 -79
-92 l-32 -37 128 -133 127 -134 87 82 86 83 80 -32 c43 -17 85 -31 93 -31 19
0 27 -51 27 -172 l0 -98 185 0 185 0 0 129 0 129 38 13 c20 6 63 25 95 41 l57
28 84 -80 c46 -44 88 -80 93 -80 9 0 155 146 222 223 l33 37 -80 85 -81 85 30
70 c16 38 29 76 29 84 0 14 17 16 113 16 75 0 117 4 125 12 13 13 18 331 6
362 -5 13 -25 16 -118 16 l-113 0 -31 84 c-18 45 -32 86 -32 89 0 3 35 43 78
88 42 45 77 85 77 89 0 13 -243 260 -257 260 -7 0 -49 -35 -92 -79 l-78 -78
-32 15 c-17 9 -60 28 -96 43 l-65 26 -3 134 -3 134 -185 0 c-102 0 -188 -3
-190 -7z m336 -547 c137 -43 258 -171 296 -315 20 -74 18 -193 -5 -265 -64
-206 -259 -336 -478 -317 -212 17 -380 177 -414 394 -32 197 75 399 256 484
109 51 222 57 345 19z"/>
<path d="M3086 2554 c-58 -59 -20 -154 63 -154 87 0 122 113 52 167 -29 22
-86 16 -115 -13z"/>
<path d="M6869 2551 c-73 -74 6 -183 106 -145 21 8 45 56 45 89 0 38 -50 85
-90 85 -22 0 -41 -9 -61 -29z"/>
<path d="M3475 2308 c-15 -14 -28 -38 -32 -60 -5 -32 -1 -41 25 -68 70 -69
176 -8 150 87 -16 62 -93 84 -143 41z"/>
<path d="M6465 2304 c-35 -38 -34 -87 4 -125 20 -20 39 -29 61 -29 22 0 41 9
61 29 37 37 38 79 3 120 -35 42 -93 44 -129 5z"/>
<path d="M4880 2105 c0 -92 -2 -106 -17 -112 -10 -3 -45 -16 -78 -29 l-60 -24
-65 65 c-36 36 -70 65 -76 65 -6 0 -60 -50 -119 -111 l-107 -111 58 -61 c33
-34 62 -63 67 -65 12 -6 8 -27 -14 -97 l-22 -65 -104 0 -103 0 2 -167 3 -168
102 0 103 0 19 -55 c10 -30 22 -62 25 -70 4 -11 -16 -40 -62 -90 l-69 -75 113
-120 114 -120 72 72 73 73 60 -25 c33 -13 66 -25 73 -25 9 0 12 -29 12 -110
l0 -110 163 2 162 3 3 105 3 105 66 31 65 31 74 -76 73 -76 117 117 117 116
-73 81 -72 81 17 37 c10 20 21 48 25 62 6 25 8 26 108 29 l102 3 2 154 c0 85
1 161 2 168 1 9 -27 13 -99 15 l-100 3 -24 75 -25 75 69 69 70 70 -110 110
c-60 61 -114 110 -120 110 -5 0 -39 -30 -76 -66 l-67 -66 -26 17 c-14 9 -45
23 -68 30 l-43 12 -3 107 -3 106 -164 0 -165 0 0 -105z m309 -381 c73 -36 145
-110 179 -182 23 -48 27 -70 27 -147 0 -77 -4 -98 -28 -148 -50 -108 -124
-173 -231 -202 -170 -46 -348 39 -424 203 -23 48 -27 71 -27 147 0 76 4 99 27
147 48 103 140 181 245 208 65 16 169 4 232 -26z"/>
<path d="M6592 2000 c-24 -10 -42 -46 -42 -85 0 -18 -7 -24 -37 -30 -64 -12
-170 -74 -221 -130 -57 -62 -102 -143 -117 -210 -10 -42 -15 -50 -41 -57 -82
-21 -78 -148 5 -160 20 -2 26 -12 36 -53 34 -150 195 -314 337 -340 31 -6 37
-11 43 -41 7 -38 41 -66 81 -66 34 -1 74 39 74 73 0 24 5 28 48 39 153 38 302
189 332 336 10 47 15 54 35 54 27 0 75 52 75 80 0 28 -48 80 -75 80 -19 0 -24
7 -29 43 -9 62 -56 154 -107 211 -55 62 -129 110 -213 137 -60 20 -66 24 -66
49 0 55 -63 93 -118 70z m-38 -397 l7 -103 -110 0 -111 0 10 25 c30 79 79 132
150 164 24 11 45 19 46 18 1 -1 5 -48 8 -104z m226 82 c48 -25 140 -141 140
-177 0 -5 -47 -8 -105 -8 l-105 0 0 106 c0 117 -1 115 70 79z m-223 -462 c2
-119 -2 -123 -78 -74 -50 32 -88 71 -118 121 -36 59 -33 61 87 58 l107 -3 2
-102z m363 97 c0 -25 -52 -110 -85 -139 -35 -31 -51 -39 -102 -55 -23 -7 -23
-7 -23 98 l0 106 105 0 c66 0 105 -4 105 -10z"/>
<path d="M3355 1923 c-170 -23 -329 -155 -397 -328 -20 -51 -23 -78 -23 -185
0 -114 3 -131 28 -191 16 -37 52 -95 81 -130 97 -118 213 -177 366 -186 164
-10 294 41 405 159 102 108 145 212 145 353 0 190 -107 373 -266 453 -96 48
-228 70 -339 55z m175 -234 c101 -30 185 -138 197 -250 12 -117 -55 -236 -162
-285 -122 -57 -292 -12 -360 96 -98 155 -51 341 107 419 67 34 147 41 218 20z"/>
<path d="M3403 1498 c-12 -6 -29 -25 -37 -43 -46 -96 61 -179 135 -106 45 46
32 123 -26 149 -31 14 -43 14 -72 0z"/>
<path d="M7482 1044 c-34 -31 -62 -60 -62 -65 0 -16 133 -150 146 -147 6 2 46
35 87 75 l75 71 -63 61 c-83 80 -100 80 -183 5z"/>
</g>
</svg>
