<?xml version="1.0" standalone="no"?>
<!DOCTYPE svg PUBLIC "-//W3C//DTD SVG 20010904//EN"
 "http://www.w3.org/TR/2001/REC-SVG-20010904/DTD/svg10.dtd">
<svg version="1.0" xmlns="http://www.w3.org/2000/svg"
 width="1024.000000pt" height="1024.000000pt" viewBox="0 0 1024.000000 1024.000000"
 preserveAspectRatio="xMidYMid meet">
<metadata>
Created by potrace 1.16, written by Peter Selinger 2001-2019
</metadata>
<g transform="translate(0.000000,1024.000000) scale(0.100000,-0.100000)"
fill="#000000" stroke="none">
<path d="M4890 9104 c-483 -29 -988 -159 -1463 -376 -674 -307 -1217 -754
-1645 -1353 -373 -523 -601 -1125 -694 -1830 -21 -161 -18 -738 5 -895 75
-513 219 -966 432 -1360 317 -588 801 -1118 1312 -1436 428 -267 829 -443
1273 -558 917 -239 1899 -131 2808 309 344 167 579 321 857 561 373 321 680
712 912 1160 208 402 348 869 410 1366 22 178 24 640 5 828 -93 874 -478 1700
-1087 2329 -324 334 -701 607 -1155 835 -447 225 -852 345 -1357 400 -142 16
-491 27 -613 20z m590 -699 c606 -75 1162 -307 1675 -701 378 -289 667 -626
894 -1041 177 -322 303 -702 366 -1103 26 -164 32 -566 10 -760 -45 -416 -154
-781 -346 -1160 -158 -312 -343 -565 -599 -820 -155 -155 -277 -253 -490 -395
-354 -236 -801 -425 -1198 -504 -272 -55 -392 -66 -707 -66 -240 0 -323 4
-415 18 -431 68 -711 154 -1065 327 -268 131 -536 303 -745 478 -232 194 -496
509 -659 785 -282 480 -451 1105 -451 1669 0 542 157 1131 430 1603 259 450
603 818 1020 1090 301 197 569 330 879 434 241 82 530 142 772 161 152 12 474
4 629 -15z"/>
<path d="M4954 7980 c-22 -4 -69 -20 -104 -34 -60 -25 -493 -257 -835 -449
-88 -50 -270 -152 -405 -227 -299 -167 -650 -364 -707 -397 -168 -95 -303
-280 -355 -488 -30 -119 -32 -355 -4 -455 39 -144 141 -304 245 -386 54 -43
439 -271 607 -361 127 -68 142 -97 69 -137 -22 -13 -148 -83 -280 -156 -284
-158 -332 -188 -404 -248 -196 -167 -300 -488 -247 -764 28 -145 102 -286 205
-389 67 -67 108 -92 461 -286 80 -44 262 -145 405 -225 747 -417 1164 -643
1265 -686 61 -25 74 -27 220 -27 150 0 158 1 240 33 89 34 252 119 735 384
435 239 1109 614 1189 661 184 109 301 285 335 505 8 48 11 454 11 1275 0
1293 0 1296 -51 1432 -28 75 -109 195 -167 246 -67 59 -117 89 -440 268 -158
87 -323 178 -367 203 -44 24 -204 113 -355 198 -151 84 -347 192 -435 240 -88
48 -207 113 -265 145 -114 63 -171 89 -240 112 -53 17 -266 26 -326 13z m194
-938 c37 -18 456 -252 652 -365 58 -33 155 -88 215 -122 61 -34 184 -105 275
-157 l165 -93 3 -1191 2 -1190 -242 -134 c-133 -74 -287 -160 -342 -191 -56
-30 -171 -94 -256 -141 -569 -314 -522 -295 -615 -247 -28 14 -120 64 -205
111 -85 47 -252 138 -370 203 -118 65 -285 156 -370 203 -85 47 -240 131 -345
188 -104 56 -201 111 -215 122 -25 21 -25 21 -5 40 11 11 142 88 290 172 149
84 294 171 324 194 112 85 203 221 257 386 26 79 28 96 28 250 -1 138 -4 178
-22 245 -50 181 -157 334 -300 428 -37 25 -193 114 -347 200 -154 85 -284 163
-290 172 -13 22 -17 19 284 188 135 77 336 190 446 252 983 553 904 515 983
477z"/>
</g>
</svg>
