<?xml version="1.0" standalone="no"?>
<!DOCTYPE svg PUBLIC "-//W3C//DTD SVG 20010904//EN"
 "http://www.w3.org/TR/2001/REC-SVG-20010904/DTD/svg10.dtd">
<svg version="1.0" xmlns="http://www.w3.org/2000/svg"
 width="1024.000000pt" height="1024.000000pt" viewBox="0 0 1024.000000 1024.000000"
 preserveAspectRatio="xMidYMid meet">
<metadata>
Created by potrace 1.16, written by Peter Selinger 2001-2019
</metadata>
<g transform="translate(0.000000,1024.000000) scale(0.100000,-0.100000)"
fill="#000000" stroke="none">
<path d="M4890 9273 c-574 -43 -1177 -216 -1687 -484 -265 -139 -447 -256
-695 -448 -316 -244 -565 -497 -800 -813 -450 -602 -719 -1293 -788 -2023 -72
-763 69 -1575 382 -2199 501 -998 1348 -1748 2408 -2133 240 -87 593 -173 875
-213 854 -121 1800 61 2589 497 640 354 1161 841 1543 1443 298 471 481 950
572 1500 54 324 69 597 52 915 -13 246 -32 392 -77 605 -82 384 -202 719 -379
1056 -332 633 -840 1196 -1425 1576 -646 421 -1302 651 -2045 718 -102 9 -420
11 -525 3z m417 -503 c676 -37 1383 -293 1979 -715 187 -133 306 -235 499
-429 332 -333 528 -603 711 -981 91 -188 133 -294 194 -495 65 -216 126 -579
117 -703 -5 -76 -20 -100 -74 -118 -33 -11 -35 -10 -71 32 -41 47 -145 119
-174 119 -16 0 -18 10 -18 110 l0 110 -85 0 -85 0 0 185 c0 159 -3 191 -20
237 -27 73 -70 122 -138 155 -55 27 -62 28 -212 28 -174 0 -204 -9 -240 -68
-37 -59 -21 -124 39 -164 31 -21 45 -23 172 -23 l139 0 0 -175 0 -175 -95 0
-95 0 0 -108 0 -108 -47 -23 c-104 -51 -181 -140 -225 -262 l-22 -64 0 -701
c1 -684 2 -702 22 -770 30 -97 86 -186 165 -260 79 -75 155 -116 276 -148 125
-34 128 -36 137 -102 9 -76 -1 -166 -25 -212 -49 -94 -352 -421 -535 -575
-338 -287 -662 -489 -1053 -656 -296 -126 -665 -219 -1043 -263 -171 -19 -611
-16 -780 6 -274 36 -550 96 -762 167 -523 174 -1079 513 -1472 898 -151 147
-362 386 -386 436 -20 42 -28 164 -14 233 7 34 36 50 134 72 211 47 394 217
446 415 17 63 20 1413 3 1484 -27 119 -131 252 -233 300 -59 27 -145 44 -203
39 l-43 -3 0 117 0 118 118 1 c138 0 178 11 210 59 48 71 7 167 -83 191 -24 7
-94 10 -175 7 -153 -5 -201 -20 -257 -79 -66 -71 -78 -109 -81 -266 l-4 -143
-47 0 c-112 0 -226 -52 -300 -137 l-39 -44 -35 15 c-51 21 -60 46 -59 156 1
113 22 264 63 450 166 766 649 1485 1379 2051 362 281 851 524 1309 649 331
91 546 124 911 138 19 1 112 -3 207 -8z m-2967 -3555 c56 -29 69 -67 72 -213
2 -106 0 -134 -12 -146 -21 -20 -681 -26 -705 -6 -21 17 -22 248 -1 288 16 30
63 77 86 85 8 3 131 6 273 6 209 1 263 -2 287 -14z m6090 0 c44 -23 73 -78 74
-143 l1 -57 -334 -3 c-199 -1 -339 2 -344 7 -5 5 -6 34 -2 66 7 59 46 118 89
135 12 5 126 9 254 9 187 1 239 -2 262 -14z m80 -938 c0 -520 -3 -549 -60
-632 -68 -98 -161 -145 -288 -145 -137 1 -243 61 -303 172 l-34 63 -3 508 -3
507 346 0 345 0 0 -473z m-6155 208 c31 -30 33 -83 6 -116 l-19 -24 -271 -3
-272 -3 -29 30 c-38 38 -40 82 -5 116 l24 25 271 0 271 0 24 -25z m-1 -366
c21 -16 26 -29 26 -64 0 -35 -5 -48 -26 -64 -25 -20 -39 -21 -291 -21 l-265 0
-29 29 c-40 40 -39 81 2 115 l31 26 262 0 c251 0 265 -1 290 -21z m-15 -364
c56 -28 61 -95 11 -140 -21 -19 -38 -20 -270 -23 -274 -3 -311 3 -330 53 -16
43 -12 65 19 96 l29 29 257 0 c204 0 262 -3 284 -15z"/>
<path d="M4489 8427 c-111 -38 -197 -111 -263 -221 -44 -73 -63 -138 -72 -242
-19 -231 105 -446 312 -541 53 -24 73 -27 200 -31 219 -7 321 18 409 99 l45
42 46 -43 c25 -23 71 -53 102 -68 50 -23 72 -26 207 -30 243 -7 330 20 451
143 83 83 126 164 150 275 51 241 -70 506 -274 603 l-67 32 -590 2 -590 3 -66
-23z m1208 -254 c146 -79 180 -320 62 -448 -62 -67 -87 -75 -240 -75 -165 0
-195 12 -259 100 -86 119 -181 122 -271 7 -74 -93 -93 -101 -248 -105 -161 -4
-201 7 -260 74 -48 54 -71 118 -71 194 0 140 70 242 185 271 17 4 262 7 545 6
511 -2 515 -2 557 -24z"/>
<path d="M4633 8019 c-64 -19 -83 -96 -40 -160 l23 -34 98 -3 c90 -3 101 -1
122 19 45 42 50 111 14 159 -17 23 -26 25 -102 27 -46 1 -97 -2 -115 -8z"/>
<path d="M5435 8023 c-77 -19 -94 -115 -33 -180 19 -21 31 -23 110 -23 100 0
121 7 143 50 25 48 19 97 -14 131 -28 27 -34 29 -108 28 -43 -1 -87 -3 -98 -6z"/>
<path d="M3733 8176 c-18 -8 -42 -30 -53 -48 -19 -31 -20 -50 -20 -346 0 -336
2 -352 52 -384 55 -36 116 -27 164 23 l29 30 3 320 c3 341 0 367 -48 396 -32
21 -92 24 -127 9z"/>
<path d="M6405 8180 c-11 -4 -31 -20 -45 -35 l-25 -27 -3 -311 c-2 -209 0
-325 8 -350 14 -48 59 -77 119 -77 37 0 49 6 82 39 l39 39 0 318 c0 299 -1
321 -20 351 -32 53 -100 76 -155 53z"/>
<path d="M3234 7853 c-7 -4 -175 -168 -374 -363 l-363 -355 -54 3 c-174 10
-334 -82 -405 -234 -47 -101 -48 -161 -4 -322 20 -73 45 -151 57 -173 26 -51
100 -123 155 -149 128 -63 308 -31 415 72 52 51 70 89 119 257 36 124 41 152
36 200 -6 53 -47 154 -78 195 -14 17 1 34 216 245 127 124 275 269 329 321
110 106 127 131 127 190 0 32 -7 48 -33 76 -28 31 -41 37 -83 41 -27 2 -54 0
-60 -4z m-750 -987 c43 -18 76 -65 76 -108 0 -18 -14 -78 -30 -133 -37 -125
-59 -150 -133 -142 -30 2 -56 11 -67 23 -20 21 -71 186 -78 250 -3 33 1 46 23
72 41 49 139 67 209 38z"/>
<path d="M6874 7827 c-28 -26 -37 -42 -41 -78 -3 -29 0 -55 8 -71 8 -14 120
-128 249 -253 129 -125 263 -255 298 -289 l63 -63 -16 -64 c-33 -124 -3 -231
91 -329 77 -81 133 -105 249 -105 82 0 97 3 157 33 77 37 128 90 167 172 22
46 26 69 26 140 0 76 -4 93 -33 152 -72 147 -230 223 -396 188 l-58 -12 -141
139 c-232 226 -467 447 -490 460 -42 24 -94 16 -133 -20z m977 -836 c41 -41
41 -98 0 -143 -25 -28 -36 -33 -76 -33 -40 0 -51 5 -76 33 -63 71 -17 171 79
172 35 0 49 -6 73 -29z"/>
<path d="M3457 7134 c-243 -53 -404 -197 -484 -434 -17 -52 -18 -133 -21
-1752 l-2 -1697 -196 -3 -196 -3 -37 -42 c-48 -54 -65 -121 -59 -240 3 -77 9
-100 41 -167 48 -102 161 -218 257 -264 131 -64 105 -62 987 -62 l803 0 0
-195 0 -195 -210 0 c-232 0 -257 -5 -285 -60 -21 -40 -19 -99 5 -137 40 -67
-23 -63 1060 -63 1083 0 1020 -4 1060 63 36 58 19 150 -33 179 -15 9 -89 15
-237 18 l-215 5 -3 193 -2 192 797 0 c771 0 801 1 871 20 197 55 340 185 402
366 37 106 23 279 -28 339 -44 53 -54 55 -254 55 l-188 0 0 1668 c0 1635 -1
1669 -20 1751 -53 221 -215 391 -435 457 -57 17 -151 18 -1685 20 -1404 2
-1634 1 -1693 -12z m3353 -295 c77 -36 124 -80 157 -147 l28 -57 3 -1692 2
-1693 -1880 0 -1880 0 2 1688 3 1687 23 50 c42 92 133 166 225 185 23 4 767 7
1652 7 l1610 -2 55 -26z m700 -3882 c0 -26 -45 -101 -81 -134 -13 -12 -51 -34
-84 -50 l-60 -28 -2170 0 -2170 0 -52 24 c-79 35 -139 106 -159 186 l-6 25
2391 0 2391 0 0 -23z m-2092 -679 l-3 -193 -297 -3 -298 -2 0 195 0 195 300 0
300 0 -2 -192z"/>
<path d="M4460 6660 c-19 -10 -143 -115 -275 -233 l-240 -213 -3 -328 c-1
-200 2 -343 8 -366 9 -34 25 -48 160 -141 l150 -104 0 -106 0 -105 -66 -13
c-37 -8 -69 -10 -73 -5 -4 5 -50 59 -101 119 -132 156 -121 151 -261 115 -63
-16 -165 -46 -228 -67 -129 -43 -150 -61 -158 -134 -6 -56 26 -107 79 -127 34
-13 45 -12 180 28 79 24 148 45 154 47 6 2 62 -53 124 -122 62 -70 124 -131
137 -136 16 -6 55 0 134 20 77 20 111 26 114 18 7 -27 28 -187 24 -190 -2 -2
-78 -45 -169 -97 -209 -118 -427 -250 -505 -304 l-60 -42 -3 -308 -2 -308 39
-39 c31 -31 46 -39 75 -39 45 0 87 21 115 56 20 25 21 38 21 265 l0 238 32 22
c41 29 529 309 539 309 4 0 27 -37 52 -83 152 -286 385 -547 573 -641 66 -33
111 -33 177 0 106 54 284 209 388 339 53 67 169 246 205 317 l34 67 142 -78
c192 -104 377 -209 411 -233 l27 -19 0 -238 c0 -227 1 -240 21 -265 44 -56
110 -70 166 -36 62 37 62 36 64 363 l1 298 -23 25 c-32 34 -224 150 -519 314
-102 56 -189 106 -193 110 -4 4 -2 49 6 101 l13 94 30 -1 c16 0 66 -11 111
-24 l82 -23 39 26 c31 22 124 123 211 228 16 19 19 19 151 -21 74 -22 152 -40
173 -40 78 0 127 50 127 129 0 45 -33 92 -77 109 -75 30 -425 123 -442 117
-23 -7 -71 -60 -164 -178 -38 -48 -74 -87 -80 -86 -7 0 -39 6 -72 13 l-59 12
3 100 c1 54 7 104 13 111 5 6 64 50 131 97 67 47 131 93 142 101 19 15 20 31
25 373 3 196 4 362 2 368 -3 11 -383 347 -476 421 -31 25 -51 33 -81 33 -95 0
-161 -93 -123 -175 11 -24 48 -58 321 -294 l107 -92 0 -242 -1 -242 -38 -26
c-28 -20 -42 -24 -55 -17 -9 5 -54 22 -99 38 l-82 28 -6 169 c-4 142 -9 177
-28 225 -49 126 -162 234 -285 275 -66 22 -497 31 -591 13 -139 -28 -255 -108
-315 -221 -49 -92 -53 -111 -59 -293 l-6 -169 -77 -28 c-42 -15 -85 -32 -95
-37 -13 -8 -27 -3 -60 19 l-43 30 0 239 0 238 172 149 c261 224 258 222 265
269 14 106 -89 184 -177 134z m901 -591 c100 -34 138 -99 139 -236 0 -51 -3
-93 -6 -93 -4 0 -89 21 -190 46 l-183 46 -186 -46 c-103 -25 -188 -46 -191
-46 -9 0 -3 167 7 205 14 50 74 109 126 123 54 14 441 15 484 1z m-463 -724
c25 -30 24 -4 22 -525 -1 -319 -3 -333 -55 -346 -31 -8 -82 12 -95 37 -6 10
-10 149 -10 328 0 171 -2 311 -5 311 -3 0 -23 -9 -45 -20 -51 -26 -76 -25
-105 5 -50 49 -27 99 79 169 45 29 90 59 101 65 31 17 87 5 113 -24z m550 10
c62 -19 115 -62 145 -119 21 -39 22 -56 25 -300 4 -305 0 -327 -67 -397 -52
-53 -104 -73 -191 -73 -84 0 -145 21 -190 66 -68 69 -72 87 -68 399 l3 274 27
47 c59 99 188 141 316 103z"/>
<path d="M5333 5203 c-13 -2 -32 -16 -43 -30 -19 -24 -20 -40 -20 -250 0 -227
4 -253 39 -280 27 -21 77 -15 110 13 l31 26 0 238 c0 209 -2 241 -17 255 -16
17 -58 36 -71 34 -4 -1 -17 -4 -29 -6z"/>
<path d="M8113 4345 c-67 -29 -94 -126 -53 -193 44 -72 139 -75 199 -7 55 63
37 156 -39 195 -46 23 -63 24 -107 5z"/>
<path d="M8114 3930 c-11 -4 -33 -23 -48 -41 -25 -29 -28 -39 -24 -88 4 -45
10 -59 36 -82 60 -54 113 -50 174 10 31 32 38 46 38 77 0 93 -92 158 -176 124z"/>
</g>
</svg>
