<?xml version="1.0" standalone="no"?>
<!DOCTYPE svg PUBLIC "-//W3C//DTD SVG 20010904//EN"
 "http://www.w3.org/TR/2001/REC-SVG-20010904/DTD/svg10.dtd">
<svg version="1.0" xmlns="http://www.w3.org/2000/svg"
 width="1024.000000pt" height="1024.000000pt" viewBox="0 0 1024.000000 1024.000000"
 preserveAspectRatio="xMidYMid meet">
<metadata>
Created by potrace 1.16, written by Peter Selinger 2001-2019
</metadata>
<g transform="translate(0.000000,1024.000000) scale(0.100000,-0.100000)"
fill="#000000" stroke="none">
<path d="M2330 8893 c-77 -13 -190 -48 -248 -77 -207 -104 -367 -307 -419
-531 -17 -77 -18 -200 -18 -3165 0 -3493 -9 -3135 85 -3325 104 -208 256 -341
485 -422 l80 -28 2810 0 2810 0 78 23 c283 82 495 302 573 597 18 68 19 175
19 3130 1 2449 -2 3076 -12 3142 -52 330 -316 592 -657 652 -57 11 -5526 14
-5586 4z m5530 -274 c187 -22 366 -175 420 -358 16 -54 20 -103 22 -269 l3
-202 -600 -2 c-330 -2 -1765 -3 -3188 -3 l-2589 0 4 225 c3 201 6 231 25 278
60 148 191 278 318 313 22 7 65 15 95 19 82 10 5402 9 5490 -1z m-5720 -2546
c0 -1573 -3 -1491 56 -1530 24 -15 56 -19 214 -23 l185 -5 3 -802 2 -803 -334
0 -335 0 -3 23 c-2 12 -2 1047 0 2299 l2 2277 78 3 c42 2 89 3 105 4 l27 1 0
-1444z m460 1427 c0 -24 -3 -24 -40 -5 -39 20 -38 25 5 25 28 0 35 -4 35 -20z
m5220 -885 c0 -498 -2 -905 -5 -905 -3 0 -46 20 -95 45 l-90 45 0 578 0 578
-22 44 c-40 79 -61 85 -303 88 l-211 3 -17 50 c-14 37 -28 56 -59 77 l-42 27
-1865 0 c-1752 0 -1868 -1 -1898 -17 -17 -10 -42 -32 -55 -50 -22 -31 -23 -43
-26 -225 l-4 -193 -206 0 c-232 0 -257 -6 -299 -69 l-23 -34 0 -933 0 -934
-95 0 -95 0 0 1245 0 1245 143 -75 c85 -44 156 -75 173 -75 37 0 101 37 128
73 18 25 21 45 24 168 l4 139 2461 3 c1354 1 2465 3 2470 5 4 1 7 -405 7 -903z
m480 -1400 l0 -2305 -335 0 -335 0 0 1296 c0 713 3 1294 8 1292 4 -2 59 -30
122 -62 95 -49 124 -60 165 -60 58 0 106 23 139 67 21 28 21 29 24 1047 l2
1019 73 4 c39 1 87 4 105 5 l32 2 0 -2305z m-1490 335 c0 -1223 2 -1436 14
-1465 29 -68 126 -96 193 -55 68 41 63 -62 63 1435 l0 1355 140 0 140 0 -2
-1442 -3 -1443 -1737 -3 -1738 -2 0 84 c0 46 3 91 6 100 6 14 131 16 1313 16
1278 0 1307 0 1338 20 69 42 68 31 68 570 0 465 -1 486 -20 514 -36 54 -133
73 -188 37 -64 -42 -62 -27 -65 -468 l-3 -403 -1280 0 c-892 0 -1293 -3 -1323
-11 -27 -7 -57 -24 -77 -45 l-34 -35 -3 -257 c-3 -288 2 -322 61 -364 l32 -23
1824 -5 1825 -5 0 -370 1 -370 -2240 0 -2240 0 -3 1720 c-2 946 0 1753 3 1793
l7 72 1724 0 1724 0 0 -105 0 -105 -1027 0 c-671 0 -1041 -4 -1065 -10 -56
-16 -88 -60 -88 -122 0 -59 23 -98 74 -122 31 -14 140 -16 1142 -16 1085 0
1109 0 1148 20 23 11 52 36 66 57 25 36 25 39 28 284 3 231 2 251 -17 294 -16
36 -29 50 -63 65 -42 19 -78 20 -1580 20 l-1538 0 0 110 0 110 1700 0 1700 0
0 -1430z m1490 -3192 c0 -326 -3 -350 -65 -467 -43 -81 -131 -170 -211 -213
-113 -61 92 -57 -2912 -58 -2535 -1 -2751 0 -2802 15 -139 42 -250 132 -313
253 -60 114 -67 161 -67 480 l0 282 3185 0 3185 0 0 -292z"/>
<path d="M4590 8501 c-135 -42 -210 -142 -210 -281 0 -123 62 -225 168 -277
l57 -28 510 0 510 0 57 28 c67 33 112 80 146 155 34 75 29 173 -13 255 -31 63
-63 95 -129 130 -41 22 -46 22 -556 24 -283 1 -526 -2 -540 -6z m978 -263 c16
-16 15 -23 -4 -42 -14 -14 -68 -16 -445 -16 -278 0 -437 4 -450 10 -22 12 -25
30 -7 48 17 17 889 17 906 0z"/>
<path d="M2416 8380 c-65 -20 -116 -95 -116 -170 0 -51 19 -88 64 -128 43 -38
95 -49 155 -33 58 16 95 43 115 86 30 63 30 95 -1 155 -43 83 -125 117 -217
90z"/>
<path d="M2955 8376 c-100 -44 -135 -190 -64 -270 58 -67 134 -83 215 -44 173
81 109 330 -85 328 -20 -1 -50 -7 -66 -14z"/>
<path d="M3505 8376 c-62 -28 -95 -85 -95 -163 0 -158 188 -230 294 -112 64
70 67 149 10 225 -43 59 -138 81 -209 50z"/>
<path d="M7343 8330 c-91 -55 -82 -205 16 -248 33 -15 69 -17 257 -16 120 2
231 7 246 13 33 12 74 66 83 108 9 46 -23 114 -67 141 -34 21 -47 22 -269 22
-214 0 -237 -2 -266 -20z"/>
<path d="M3175 6387 c-26 -26 -34 -44 -40 -88 -3 -29 -5 -723 -3 -1541 l3
-1487 21 -28 c11 -15 36 -38 54 -51 l33 -22 1878 2 1879 3 37 38 38 37 3 129
c4 145 -6 179 -58 206 -42 22 -118 19 -158 -5 -36 -22 -52 -54 -52 -106 l0
-34 -1427 -1 c-786 0 -1551 -3 -1700 -5 l-273 -4 0 1440 c0 1231 -2 1446 -14
1475 -20 48 -68 75 -134 75 -48 0 -58 -4 -87 -33z"/>
<path d="M3680 6237 c-13 -7 -35 -28 -47 -46 l-23 -34 0 -476 c0 -475 0 -477
23 -521 16 -33 34 -51 67 -67 l44 -23 811 0 c769 0 812 1 845 19 44 23 80 75
80 115 0 41 -32 91 -72 116 -32 19 -52 20 -780 20 l-748 0 0 413 c-1 445 0
441 -56 478 -34 22 -106 25 -144 6z"/>
<path d="M4743 5790 c-45 -27 -66 -73 -60 -129 7 -64 55 -107 128 -116 30 -3
423 -5 874 -3 767 3 822 4 853 21 18 10 42 32 53 50 37 58 10 152 -52 184 -18
10 -223 13 -894 13 -845 0 -871 -1 -902 -20z"/>
<path d="M3704 4859 c-18 -5 -46 -25 -63 -44 -50 -58 -39 -144 25 -194 l27
-21 1155 0 1154 0 39 39 c34 33 39 45 39 83 0 55 -31 106 -80 130 -33 17 -107
18 -1150 17 -639 0 -1128 -5 -1146 -10z"/>
<path d="M4979 2527 c-146 -51 -236 -147 -274 -294 -20 -78 -19 -138 5 -217
39 -124 158 -247 274 -281 108 -32 260 -11 354 49 135 87 219 264 193 407 -25
146 -107 254 -237 316 -64 30 -88 36 -162 40 -72 3 -98 0 -153 -20z m211 -272
c66 -34 91 -136 50 -203 -21 -34 -87 -72 -125 -72 -38 0 -104 38 -125 72 -40
66 -17 156 52 198 39 24 107 26 148 5z"/>
<path d="M2773 2261 c-50 -23 -73 -62 -73 -125 0 -36 6 -52 30 -80 17 -19 45
-39 63 -45 20 -6 164 -10 382 -8 330 2 352 3 384 22 39 23 71 77 71 120 0 40
-32 90 -72 115 -31 19 -51 20 -388 20 -327 0 -358 -2 -397 -19z"/>
<path d="M6695 2269 c-17 -4 -44 -22 -60 -39 -26 -27 -30 -39 -30 -90 0 -51 4
-63 30 -90 16 -17 45 -35 65 -41 22 -7 161 -9 387 -7 338 3 353 4 380 24 15
11 39 36 51 55 42 60 15 144 -59 181 -31 16 -69 18 -384 17 -192 0 -364 -5
-380 -10z"/>
</g>
</svg>
