<?xml version="1.0" standalone="no"?>
<!DOCTYPE svg PUBLIC "-//W3C//DTD SVG 20010904//EN"
 "http://www.w3.org/TR/2001/REC-SVG-20010904/DTD/svg10.dtd">
<svg version="1.0" xmlns="http://www.w3.org/2000/svg"
 width="1024.000000pt" height="1024.000000pt" viewBox="0 0 1024.000000 1024.000000"
 preserveAspectRatio="xMidYMid meet">
<metadata>
Created by potrace 1.16, written by Peter Selinger 2001-2019
</metadata>
<g transform="translate(0.000000,1024.000000) scale(0.100000,-0.100000)"
fill="#000000" stroke="none">
<path d="M3954 9271 c-16 -4 -124 -59 -240 -121 -309 -168 -668 -360 -1029
-553 -176 -93 -335 -181 -354 -195 -90 -67 -89 -207 1 -275 92 -69 136 -60
403 86 105 57 289 156 410 220 121 65 389 209 595 320 329 178 378 208 403
244 47 66 36 163 -26 231 -17 18 -106 55 -126 51 -3 -1 -20 -4 -37 -8z"/>
<path d="M6201 9265 c-127 -40 -169 -196 -78 -288 18 -17 98 -66 177 -108 80
-42 235 -125 345 -184 1158 -622 1111 -598 1155 -598 130 0 227 141 172 250
-26 50 -67 85 -146 125 -34 17 -205 108 -381 203 -176 95 -369 198 -430 230
-60 32 -128 68 -150 80 -22 12 -128 70 -235 127 -345 186 -351 188 -429 163z"/>
<path d="M4955 8994 c-296 -25 -547 -93 -680 -184 -66 -45 -132 -125 -155
-188 -43 -112 -16 -254 65 -350 l26 -31 -36 -49 c-53 -74 -77 -151 -77 -252 0
-100 22 -167 81 -252 l38 -54 -38 -53 c-58 -80 -82 -163 -77 -269 4 -107 31
-172 105 -252 57 -61 124 -105 237 -154 l75 -33 -157 -231 c-246 -362 -299
-441 -586 -856 -148 -215 -287 -415 -310 -445 -22 -30 -43 -59 -46 -63 -3 -4
-28 -1 -54 7 -64 20 -194 19 -262 -1 -301 -87 -408 -498 -190 -726 30 -32 30
-32 11 -62 -14 -21 -19 -22 -78 -14 -85 12 -259 -7 -360 -39 -213 -67 -387
-199 -511 -389 -22 -33 -38 -44 -90 -63 -255 -90 -481 -320 -560 -571 -109
-346 -19 -701 248 -974 210 -214 551 -311 844 -240 l70 17 79 -31 c219 -87
413 -101 629 -47 331 84 583 341 676 690 28 107 30 286 4 400 -22 95 -71 219
-119 299 -19 32 -33 65 -30 75 5 19 -12 156 -22 184 -8 19 27 39 585 347 223
122 440 242 484 266 l78 44 42 -24 c72 -42 149 -59 250 -54 80 3 101 8 170 41
l77 37 42 -22 c23 -11 141 -76 262 -143 267 -148 292 -161 525 -288 327 -177
315 -169 314 -203 -7 -156 -18 -218 -50 -272 -51 -84 -95 -198 -116 -302 -25
-119 -20 -293 11 -415 41 -160 165 -358 297 -473 255 -222 650 -281 984 -146
47 19 87 35 90 36 3 1 39 -6 80 -16 98 -24 297 -25 394 -2 221 52 421 184 555
365 59 80 135 232 156 316 66 257 23 527 -117 746 -45 71 -148 181 -214 230
-55 41 -206 119 -265 138 -26 8 -45 25 -67 59 -116 177 -297 318 -492 380
-111 35 -180 45 -318 46 -132 1 -134 1 -147 26 -12 23 -10 28 27 68 188 204
117 552 -138 678 -67 33 -84 37 -172 41 -66 3 -114 0 -152 -11 -30 -8 -55 -14
-56 -13 -1 1 -25 36 -55 77 -29 41 -164 237 -299 435 -136 198 -302 441 -370
540 -284 411 -370 539 -370 544 1 3 50 30 110 58 132 64 220 140 270 235 65
122 49 290 -40 406 -22 29 -40 57 -40 62 0 5 16 31 36 57 58 76 76 127 82 228
5 108 -17 187 -78 276 l-39 57 24 22 c13 12 38 49 57 83 30 57 33 70 33 147 0
76 -4 93 -33 152 -42 87 -110 147 -226 203 -141 68 -260 100 -456 125 -93 11
-396 20 -475 14z m464 -379 c181 -27 300 -66 321 -105 27 -50 -48 -94 -222
-132 -94 -21 -129 -23 -393 -22 -262 0 -300 2 -395 22 -109 24 -206 64 -224
95 -32 53 92 109 315 141 133 20 466 20 598 1z m-809 -585 c123 -33 286 -50
493 -50 220 0 401 18 535 55 51 14 95 25 97 25 11 0 35 -62 35 -90 0 -47 -25
-87 -75 -116 -266 -155 -1073 -125 -1194 45 -30 42 -35 81 -17 125 12 28 20
36 33 32 10 -3 52 -14 93 -26z m1160 -660 c0 -112 -179 -186 -499 -209 -338
-24 -673 36 -761 136 -40 45 -46 76 -25 124 20 44 37 48 104 24 229 -80 861
-76 1086 9 40 14 40 14 68 -15 20 -22 27 -40 27 -69z m-840 -1379 l0 -779 -54
-30 c-79 -45 -148 -133 -178 -227 -6 -16 -13 -61 -17 -99 l-6 -69 -85 -49
c-47 -28 -240 -135 -430 -240 -190 -104 -411 -227 -492 -273 l-146 -82 -59 59
c-32 33 -91 80 -130 105 l-73 46 20 31 c15 24 32 34 77 46 137 37 240 119 296
237 30 64 32 75 34 188 l1 119 278 406 c561 819 955 1390 960 1390 2 0 4 -351
4 -779z m482 659 c68 -96 441 -642 697 -1020 57 -85 163 -240 235 -345 71
-104 149 -219 173 -255 l43 -64 -6 -76 c-18 -211 129 -419 327 -461 55 -12 89
-38 89 -68 0 -9 -29 -35 -63 -58 -35 -23 -90 -67 -123 -97 l-61 -55 -39 23
c-21 13 -142 80 -269 148 -431 234 -770 420 -806 443 -34 22 -36 26 -42 95
-10 116 -75 234 -165 301 -26 19 -55 38 -64 42 -17 6 -18 53 -18 789 0 430 4
778 8 773 5 -6 42 -57 84 -115z m-2092 -1699 c68 -47 75 -140 15 -197 -114
-107 -276 29 -194 162 11 19 21 34 22 34 1 0 20 7 42 14 45 16 78 12 115 -13z
m3736 13 c95 -45 97 -195 2 -235 -72 -30 -137 -5 -172 65 -31 64 -1 142 68
172 41 18 61 17 102 -2z m-1868 -38 c37 -20 62 -66 62 -114 0 -36 -6 -50 -33
-77 -44 -44 -94 -54 -148 -29 -47 20 -69 57 -69 111 0 71 52 122 125 122 22 0
50 -5 63 -13z m-2243 -822 c272 -69 449 -342 405 -624 l-13 -80 52 -55 c66
-70 108 -159 123 -262 10 -70 9 -93 -5 -160 -41 -187 -167 -339 -337 -404
-166 -63 -373 -36 -538 70 -83 54 -86 54 -161 21 -91 -39 -140 -49 -245 -50
-158 0 -279 45 -386 147 -148 139 -210 321 -176 512 27 151 113 281 244 367
62 42 205 94 256 94 43 0 79 38 110 118 101 257 374 381 671 306z m4701 -5
c91 -28 195 -98 250 -168 26 -32 57 -91 76 -139 34 -91 54 -112 108 -112 94 0
250 -73 342 -159 114 -107 166 -228 167 -386 1 -162 -56 -302 -169 -416 -108
-108 -234 -159 -395 -159 -99 0 -167 14 -263 55 l-63 26 -85 -51 c-209 -125
-399 -139 -591 -45 -259 128 -370 447 -242 698 11 21 45 66 76 99 46 51 54 64
49 86 -4 15 -9 68 -13 117 -18 278 179 524 460 575 76 13 213 4 293 -21z"/>
<path d="M2225 3501 c-90 -25 -161 -84 -195 -162 -27 -64 -30 -155 -6 -226 34
-103 147 -183 258 -183 31 0 68 4 81 9 26 10 37 5 403 -184 89 -46 177 -87
196 -90 68 -13 166 35 200 99 21 38 27 90 17 129 -19 73 -58 101 -328 236
l-254 127 -19 51 c-25 68 -87 136 -151 167 -56 28 -152 41 -202 27z"/>
<path d="M7870 3495 c-89 -25 -178 -113 -202 -199 l-12 -41 -260 -132 c-301
-151 -317 -164 -324 -262 -3 -48 0 -67 18 -99 39 -70 122 -111 194 -98 20 4
155 67 301 141 l266 134 84 -6 c81 -6 87 -5 150 26 72 36 111 80 141 157 23
59 16 183 -13 239 -61 117 -208 177 -343 140z"/>
<path d="M8559 8011 c-43 -14 -77 -41 -101 -80 l-23 -36 -3 -718 c-2 -482 1
-730 8 -757 30 -110 146 -163 246 -112 49 25 72 51 90 99 18 51 21 1420 3
1474 -33 98 -134 157 -220 130z"/>
<path d="M6951 7928 c-25 -7 -92 -66 -240 -210 -113 -110 -216 -216 -228 -236
-28 -45 -30 -116 -5 -153 24 -35 412 -413 439 -428 27 -14 93 -14 128 -1 15 6
99 80 186 165 l159 155 348 0 c315 0 351 2 387 19 45 20 92 70 101 107 12 46
-2 122 -29 162 -49 75 -57 77 -452 80 l-350 3 -160 158 c-191 189 -209 200
-284 179z m118 -445 c34 -37 61 -74 61 -81 0 -8 -28 -43 -62 -78 -80 -84 -93
-84 -175 0 -35 36 -63 73 -63 83 0 9 28 46 62 80 83 84 98 84 177 -4z"/>
<path d="M2732 7520 c-115 -30 -182 -72 -277 -172 l-84 -88 -43 10 c-24 5 -81
10 -127 10 -261 1 -483 -164 -546 -405 -75 -288 109 -591 390 -645 42 -8 246
-10 685 -8 l625 3 38 24 c93 57 119 170 61 254 -16 22 -45 50 -64 62 -34 19
-53 20 -645 25 -675 6 -647 3 -696 71 -48 68 -31 153 44 213 35 28 45 31 110
31 66 0 77 -4 135 -39 97 -60 186 -61 262 -3 37 28 58 64 80 138 24 78 48 113
98 138 60 29 90 33 146 17 63 -19 84 -40 133 -135 59 -115 60 -115 372 -119
l254 -3 52 26 c57 27 99 78 108 132 13 71 -45 179 -109 203 -12 5 -98 10 -190
11 l-168 2 -86 86 c-56 58 -106 98 -147 120 -118 61 -275 77 -411 41z"/>
<path d="M1111 6580 c-49 -12 -83 -40 -108 -90 l-23 -44 0 -958 c0 -1055 -4
-996 63 -1055 48 -42 104 -57 158 -43 54 15 116 72 129 120 7 25 9 364 8 992
-3 910 -4 955 -22 991 -33 66 -127 107 -205 87z"/>
<path d="M6895 6575 c-145 -51 -163 -264 -28 -331 36 -18 71 -19 606 -22 367
-2 581 1 606 8 145 39 194 209 89 307 -57 53 -53 53 -665 53 -463 -1 -575 -3
-608 -15z"/>
<path d="M9010 6358 c-30 -15 -53 -37 -67 -63 l-23 -40 0 -869 0 -869 24 -41
c64 -109 224 -116 298 -14 l23 33 3 860 c1 473 0 875 -3 893 -7 40 -59 101
-102 118 -47 20 -103 17 -153 -8z"/>
<path d="M2012 5858 c-107 -52 -132 -195 -50 -275 63 -61 75 -63 420 -63 351
0 363 2 425 73 57 66 54 151 -10 224 -55 62 -61 63 -419 63 -307 -1 -325 -2
-366 -22z"/>
<path d="M7530 5873 c-75 -27 -117 -73 -134 -146 -9 -40 10 -102 45 -141 53
-61 85 -66 424 -66 l301 0 52 26 c71 35 106 94 100 164 -6 63 -45 123 -98 150
-37 19 -57 20 -357 19 -175 0 -325 -3 -333 -6z"/>
<path d="M2046 5169 c-91 -22 -146 -97 -146 -198 0 -71 12 -106 48 -145 140
-150 395 -22 352 177 -27 126 -133 195 -254 166z"/>
<path d="M8086 5165 c-90 -32 -136 -99 -136 -197 0 -156 146 -253 286 -189
173 79 153 340 -31 390 -51 14 -71 13 -119 -4z"/>
<path d="M5075 3665 c-31 -10 -86 -61 -242 -222 -226 -231 -243 -258 -223
-333 10 -37 42 -73 220 -251 176 -175 216 -210 251 -219 74 -20 113 3 289 173
270 260 292 290 271 365 -13 43 -22 54 -233 274 -174 181 -231 228 -278 227
-8 0 -33 -6 -55 -14z m134 -430 c33 -36 61 -73 61 -83 0 -9 -28 -45 -62 -79
-83 -84 -97 -84 -177 3 -34 37 -61 72 -61 78 0 22 132 146 155 146 15 0 44
-22 84 -65z"/>
<path d="M4527 2496 c-80 -30 -127 -104 -127 -202 0 -107 72 -188 177 -201 99
-11 200 62 221 162 33 159 -121 297 -271 241z"/>
<path d="M5585 2497 c-56 -22 -76 -38 -106 -85 -23 -37 -29 -57 -29 -103 0
-32 5 -70 11 -86 25 -67 118 -132 190 -133 53 0 139 48 173 96 109 159 -61
380 -239 311z"/>
<path d="M4008 1860 c-45 -13 -92 -47 -111 -78 -48 -82 -23 -188 56 -240 l41
-27 1104 -3 c743 -1 1116 1 1142 8 103 28 157 136 116 233 -17 43 -76 93 -123
106 -46 13 -2183 14 -2225 1z"/>
</g>
</svg>
