<?xml version="1.0" standalone="no"?>
<!DOCTYPE svg PUBLIC "-//W3C//DTD SVG 20010904//EN"
 "http://www.w3.org/TR/2001/REC-SVG-20010904/DTD/svg10.dtd">
<svg version="1.0" xmlns="http://www.w3.org/2000/svg"
 width="1024.000000pt" height="1024.000000pt" viewBox="0 0 1024.000000 1024.000000"
 preserveAspectRatio="xMidYMid meet">
<metadata>
Created by potrace 1.16, written by Peter Selinger 2001-2019
</metadata>
<g transform="translate(0.000000,1024.000000) scale(0.100000,-0.100000)"
fill="#000000" stroke="none">
<path d="M4507 8970 c-99 -54 -124 -189 -51 -286 40 -55 74 -63 243 -65 145
-1 153 1 194 24 51 30 97 106 97 161 0 49 -42 129 -82 158 -31 22 -43 23 -198
25 -149 3 -169 1 -203 -17z"/>
<path d="M5330 8979 c-66 -26 -113 -99 -113 -174 0 -72 40 -137 105 -171 38
-20 328 -20 366 0 139 72 132 291 -11 345 -35 14 -313 13 -347 0z"/>
<path d="M3825 8857 c-78 -44 -102 -117 -93 -277 4 -66 9 -86 32 -119 32 -46
96 -81 147 -81 59 0 134 42 163 92 24 41 26 54 26 157 0 117 -13 164 -56 202
-61 53 -152 64 -219 26z"/>
<path d="M6215 8866 c-37 -17 -80 -62 -94 -99 -6 -16 -11 -79 -11 -140 0 -90
4 -119 19 -147 26 -51 89 -92 148 -97 67 -6 149 36 181 92 21 37 22 50 20 167
-3 124 -4 127 -34 165 -17 21 -46 46 -65 55 -40 21 -121 23 -164 4z"/>
<path d="M3014 8410 c-55 -13 -105 -51 -125 -94 -25 -56 -27 -261 -3 -312 36
-76 122 -117 202 -95 113 30 152 94 152 251 0 122 -17 172 -71 213 -29 21
-101 49 -119 46 -3 -1 -19 -4 -36 -9z"/>
<path d="M7085 8394 c-83 -43 -95 -73 -95 -235 0 -150 12 -184 77 -229 79 -54
212 -19 261 68 19 35 22 54 22 155 0 64 -5 128 -11 144 -14 38 -57 83 -96 99
-43 19 -121 18 -158 -2z"/>
<path d="M4945 8329 c-263 -27 -581 -141 -796 -285 -94 -63 -179 -131 -179
-144 0 -10 244 -314 306 -381 l43 -47 23 25 c45 49 182 145 267 187 168 84
309 119 481 118 359 0 671 -158 907 -459 36 -46 66 -83 68 -83 1 0 77 44 168
98 91 53 200 116 241 140 42 23 76 46 76 51 0 19 -162 221 -176 221 -4 0 -50
-32 -102 -71 -90 -68 -96 -71 -109 -53 -7 10 -38 44 -68 75 l-54 56 90 72 90
72 -53 43 c-333 269 -802 409 -1223 365z"/>
<path d="M3772 7710 c-106 -127 -242 -372 -295 -531 -68 -202 -77 -283 -80
-784 l-4 -440 -84 -1 c-48 -1 -102 -8 -127 -17 -133 -50 -254 -193 -293 -347
-12 -45 -14 -269 -14 -1285 0 -1390 -6 -1276 82 -1449 38 -73 65 -109 138
-182 78 -78 104 -97 195 -142 182 -89 49 -83 1845 -80 1491 3 1583 5 1640 22
308 93 511 325 555 633 8 55 10 435 8 1268 -4 1303 0 1210 -62 1333 -77 153
-262 266 -406 249 -43 -5 -49 -4 -54 16 -3 12 -6 218 -6 458 0 479 -5 536 -60
701 -33 98 -97 231 -108 224 -4 -2 -99 -55 -212 -119 -113 -63 -221 -125 -240
-138 l-36 -24 34 -98 c42 -122 51 -252 52 -704 l0 -313 -1042 -1 c-574 0
-1083 -1 -1133 -2 l-90 -2 3 430 c2 237 7 457 12 490 18 112 75 265 141 372
l39 65 -58 73 c-156 199 -293 365 -300 365 -4 0 -22 -18 -40 -40z m2888 -2281
c62 -13 110 -53 139 -113 21 -42 21 -51 21 -1092 l0 -1049 -24 -51 c-13 -28
-41 -65 -62 -83 -79 -65 14 -62 -1649 -59 l-1510 3 -41 22 c-52 28 -108 90
-125 139 -12 32 -14 226 -14 1094 0 981 1 1057 17 1087 25 44 85 91 133 102
61 14 3051 14 3115 0z"/>
<path d="M4175 5121 c-90 -22 -172 -90 -215 -176 -25 -49 -25 -53 -25 -310 0
-252 1 -261 23 -303 33 -62 95 -120 160 -150 144 -66 330 -2 407 139 29 53 29
57 36 259 11 305 -5 376 -106 468 -77 71 -179 97 -280 73z m94 -256 c16 -8 31
-22 35 -30 3 -9 6 -97 6 -196 0 -178 0 -180 -25 -204 -30 -31 -58 -32 -85 -3
-19 20 -20 34 -20 214 l0 193 26 20 c32 25 28 25 63 6z"/>
<path d="M5026 5115 c-57 -20 -87 -45 -121 -100 l-30 -48 0 -771 0 -771 22
-41 c59 -111 177 -152 289 -100 59 28 100 75 120 142 20 68 20 1490 0 1547
-22 59 -64 107 -120 133 -58 27 -103 30 -160 9z"/>
<path d="M5851 5114 c-90 -33 -142 -79 -192 -174 -24 -44 -24 -50 -24 -305 0
-293 -2 -281 80 -373 27 -30 69 -62 103 -79 152 -74 350 3 425 165 21 44 22
62 22 292 0 244 0 245 -26 301 -33 70 -96 134 -158 162 -61 27 -171 33 -230
11z m146 -266 c16 -18 18 -41 18 -210 0 -187 0 -190 -24 -209 -28 -23 -49 -24
-79 -3 -21 15 -22 20 -22 214 l0 199 25 19 c29 23 55 19 82 -10z"/>
<path d="M3820 3851 c-140 -43 -217 -194 -161 -316 24 -52 99 -121 147 -134
23 -7 147 -11 306 -11 341 0 384 12 448 123 53 92 36 201 -44 280 -60 61 -101
67 -405 66 -146 0 -277 -4 -291 -8z"/>
<path d="M5785 3851 c-127 -31 -205 -156 -175 -281 17 -70 94 -153 158 -170
29 -7 140 -10 340 -8 282 3 299 4 337 25 22 11 52 34 67 50 32 34 67 108 68
144 0 51 -30 127 -70 172 -65 73 -86 77 -414 76 -155 -1 -294 -4 -311 -8z"/>
<path d="M2215 7676 c-37 -17 -80 -62 -94 -99 -6 -16 -11 -79 -11 -140 0 -134
17 -182 77 -220 78 -51 160 -43 224 22 46 46 59 92 59 206 -1 94 -15 152 -47
187 -47 52 -143 73 -208 44z"/>
<path d="M7845 7675 c-42 -20 -59 -35 -84 -75 -18 -31 -21 -50 -21 -157 0
-135 7 -163 52 -209 61 -64 157 -67 237 -7 57 44 74 97 69 228 -3 107 -5 116
-33 156 -17 23 -46 50 -65 60 -41 22 -113 24 -155 4z"/>
<path d="M1815 6841 c-44 -11 -70 -27 -99 -61 -35 -43 -44 -87 -42 -220 1
-101 4 -120 24 -152 66 -107 199 -114 287 -16 l45 50 0 138 c0 132 -1 139 -26
176 -15 21 -34 45 -43 52 -37 29 -101 44 -146 33z"/>
<path d="M8278 6820 c-20 -11 -47 -34 -60 -52 -22 -31 -23 -42 -23 -184 0
-150 0 -151 28 -187 15 -20 42 -45 60 -54 86 -45 222 8 256 100 6 16 11 80 11
143 0 132 -14 173 -76 221 -49 37 -141 43 -196 13z"/>
<path d="M1447 5756 c-90 -33 -116 -88 -117 -243 0 -61 5 -124 11 -140 13 -34
55 -80 91 -99 40 -21 115 -17 165 7 65 31 96 90 101 194 8 150 -28 238 -112
276 -48 22 -87 23 -139 5z"/>
<path d="M2195 5756 c-37 -17 -80 -62 -94 -99 -14 -36 -14 -230 -1 -277 11
-41 61 -94 103 -109 80 -30 181 3 222 73 23 39 25 53 25 164 0 66 -5 133 -11
149 -33 88 -157 138 -244 99z"/>
<path d="M7902 5762 c-36 -11 -93 -62 -108 -98 -9 -22 -14 -73 -14 -151 0
-142 17 -189 84 -228 94 -55 228 -10 265 88 6 16 11 79 11 142 0 63 -5 126
-11 142 -31 82 -136 130 -227 105z"/>
<path d="M8646 5755 c-50 -18 -94 -60 -107 -105 -6 -20 -9 -89 -7 -156 3 -109
5 -124 28 -157 48 -71 136 -96 217 -62 48 20 71 41 95 89 17 33 19 54 16 160
-3 115 -5 125 -31 165 -47 71 -127 96 -211 66z"/>
<path d="M2182 4949 c-26 -13 -55 -39 -70 -62 -24 -37 -27 -51 -30 -150 -2
-60 -1 -125 3 -144 8 -44 66 -109 112 -124 52 -17 126 -7 174 25 61 41 79 88
79 216 0 146 -30 206 -122 245 -51 21 -95 19 -146 -6z"/>
<path d="M7885 4951 c-80 -37 -104 -90 -105 -236 0 -117 10 -158 47 -198 62
-64 142 -76 222 -31 77 42 85 61 89 198 4 144 -1 176 -35 217 -54 64 -143 85
-218 50z"/>
<path d="M1425 4941 c-52 -24 -91 -66 -109 -119 -14 -39 -14 -56 5 -194 104
-779 419 -1468 953 -2082 265 -306 548 -538 900 -741 864 -496 1788 -647 2717
-445 484 106 1025 347 1440 642 267 190 583 487 753 708 412 535 682 1151 781
1784 40 259 41 295 12 352 -29 58 -49 78 -100 99 -66 27 -145 14 -201 -36 -47
-40 -62 -78 -80 -194 -103 -651 -364 -1269 -739 -1750 -378 -485 -957 -885
-1597 -1106 -219 -76 -359 -110 -615 -149 -787 -120 -1637 90 -2370 584 -285
192 -502 396 -735 691 -232 294 -465 739 -588 1125 -54 170 -127 487 -147 640
-13 103 -48 158 -120 191 -51 24 -109 24 -160 0z"/>
</g>
</svg>
