<?xml version="1.0" standalone="no"?>
<!DOCTYPE svg PUBLIC "-//W3C//DTD SVG 20010904//EN"
 "http://www.w3.org/TR/2001/REC-SVG-20010904/DTD/svg10.dtd">
<svg version="1.0" xmlns="http://www.w3.org/2000/svg"
 width="1024.000000pt" height="1024.000000pt" viewBox="0 0 1024.000000 1024.000000"
 preserveAspectRatio="xMidYMid meet">
<metadata>
Created by potrace 1.16, written by Peter Selinger 2001-2019
</metadata>
<g transform="translate(0.000000,1024.000000) scale(0.100000,-0.100000)"
fill="#000000" stroke="none">
<path d="M4755 9548 c-595 -44 -1268 -228 -1841 -503 -202 -97 -316 -165 -481
-288 -212 -158 -320 -254 -543 -477 -430 -431 -668 -756 -909 -1245 -175 -354
-283 -655 -361 -1010 -86 -388 -112 -618 -111 -1002 0 -340 25 -593 87 -902
105 -526 356 -1175 614 -1590 l67 -109 -22 -44 c-26 -52 -187 -319 -262 -435
l-53 -83 -53 0 c-170 0 -231 -233 -85 -326 24 -16 120 -78 213 -139 837 -549
1258 -819 1309 -840 48 -20 72 -19 132 9 58 27 60 30 214 301 57 99 122 212
146 250 l43 71 203 -101 c510 -253 1012 -396 1563 -446 177 -16 648 -16 825 0
487 44 921 154 1370 348 109 47 377 178 396 194 12 10 24 -8 209 -331 65 -113
127 -217 137 -233 47 -67 159 -89 239 -48 52 27 233 144 804 518 600 392 702
462 728 492 31 37 42 86 32 139 -16 87 -82 142 -172 142 l-48 0 -47 73 c-47
72 -240 403 -272 465 l-17 34 49 76 c73 112 145 244 227 416 235 490 376 940
455 1448 40 262 53 809 25 1100 -48 508 -231 1118 -481 1608 -228 448 -486
800 -869 1185 -220 222 -369 354 -571 506 -254 191 -628 370 -1119 537 -578
197 -1209 282 -1770 240z m695 -382 c132 -16 279 -42 288 -51 3 -3 -307 -5
-689 -4 -608 1 -688 2 -644 15 67 18 227 43 350 54 139 12 545 4 695 -14z
m1585 -460 c167 -50 276 -117 392 -240 124 -131 185 -277 199 -474 11 -163
-19 -299 -97 -453 -100 -193 -251 -316 -476 -386 l-88 -28 -1905 -3 c-1877 -2
-1905 -2 -1985 18 -283 70 -494 275 -586 570 -21 65 -24 95 -24 225 0 167 15
234 80 368 106 215 336 380 580 416 33 5 911 8 1955 7 1801 -1 1898 -2 1955
-20z m-4900 -1016 c9 -36 23 -79 30 -96 12 -30 11 -33 -93 -170 -570 -753
-839 -1556 -831 -2484 l2 -235 -32 -72 c-43 -100 -136 -345 -182 -483 -21 -63
-39 -110 -39 -105 0 6 -11 60 -25 120 -58 256 -87 550 -87 900 0 260 11 394
52 642 136 813 524 1592 1089 2185 l86 91 6 -114 c4 -63 14 -143 24 -179z
m5976 152 c314 -344 502 -617 684 -994 171 -355 275 -669 355 -1068 51 -254
61 -348 64 -620 6 -399 -27 -745 -99 -1044 -14 -54 -26 -100 -28 -103 -2 -2
-14 25 -27 59 -27 77 -114 277 -178 413 l-48 100 7 90 c10 134 3 709 -10 790
-82 513 -166 801 -354 1210 -112 244 -303 555 -452 735 -121 146 -116 138
-101 169 27 52 47 158 53 273 4 80 9 115 17 111 6 -3 59 -57 117 -121z m-5166
-1037 c39 -13 97 -28 130 -35 l60 -12 1 -71 c1 -40 -1 -144 -3 -233 l-5 -160
-69 9 c-41 5 -98 5 -139 0 l-70 -9 0 175 c0 97 -3 221 -7 275 -6 95 -5 99 13
91 10 -4 51 -18 89 -30z m4301 -360 c1 -212 -3 -385 -7 -385 -5 0 -9 5 -9 12
0 6 -36 80 -81 164 -53 100 -99 173 -135 212 l-54 60 0 125 0 125 97 22 c53
12 113 28 132 35 20 8 41 14 46 14 6 1 10 -134 11 -384z m-2636 -33 c0 -335
-1 -348 -20 -365 -11 -9 -20 -24 -20 -32 0 -28 -527 -1606 -693 -2075 -68
-191 -206 -565 -252 -683 -38 -94 -43 -148 -21 -201 28 -68 115 -108 187 -87
85 26 97 45 249 424 183 454 205 499 270 532 76 39 191 22 247 -37 52 -55 66
-93 61 -167 -3 -55 -14 -89 -65 -201 -34 -74 -94 -209 -133 -300 -113 -261
-250 -498 -383 -665 -153 -191 -337 -364 -514 -484 -196 -131 -527 -259 -765
-294 -44 -7 -87 19 -484 283 -442 294 -465 311 -566 406 -251 239 -402 551
-438 907 -14 139 3 346 40 495 17 64 81 254 144 422 63 168 162 433 220 590
177 481 206 556 238 594 125 152 368 69 368 -126 0 -15 -22 -87 -49 -160 -198
-530 -274 -736 -304 -823 -19 -55 -47 -130 -61 -168 -14 -37 -26 -86 -26 -108
0 -110 106 -191 211 -160 56 17 92 53 124 122 36 80 329 925 556 1602 33 98
71 195 85 217 28 41 101 80 151 80 38 -1 109 -34 122 -57 10 -20 -49 -222
-204 -693 -261 -798 -345 -1062 -345 -1089 0 -37 23 -97 48 -124 25 -28 87
-57 120 -57 42 0 95 24 131 60 33 34 18 -10 261 760 343 1088 422 1330 453
1385 12 21 42 53 65 70 39 27 52 30 116 30 62 0 78 -4 114 -28 23 -15 54 -46
69 -69 40 -59 38 -141 -4 -263 -18 -49 -136 -407 -264 -795 -127 -388 -256
-777 -286 -865 -77 -223 -78 -229 -63 -278 17 -57 43 -91 84 -111 70 -33 161
-13 211 46 17 20 60 138 136 371 61 188 210 641 331 1007 121 366 228 692 239
724 17 55 19 92 19 423 l0 363 145 0 145 0 0 -348z m1160 -82 l0 -430 -139 0
-139 0 -6 113 c-7 115 -6 726 1 740 2 4 67 7 144 7 l139 0 0 -430z m956 -125
c23 -14 56 -43 74 -65 29 -37 590 -1165 924 -1860 76 -157 145 -294 154 -304
24 -26 91 -56 129 -56 88 0 173 81 173 166 0 30 -44 132 -210 489 -343 736
-349 751 -320 839 50 154 276 192 374 64 22 -30 110 -216 351 -743 45 -99 117
-254 160 -345 198 -419 231 -511 261 -713 12 -82 15 -148 11 -247 -10 -222
-48 -370 -148 -567 -57 -112 -156 -263 -173 -263 -5 0 -78 68 -162 151 -144
143 -153 154 -152 190 0 36 -19 57 -914 946 -502 499 -990 983 -1083 1075
l-170 167 -92 3 -93 3 0 39 c0 46 -29 78 -190 208 -52 42 -111 91 -130 108
l-35 31 175 -5 c184 -6 247 -17 347 -62 110 -48 146 -76 656 -512 170 -145
314 -261 320 -259 25 9 5 61 -108 293 -230 469 -412 850 -445 932 -32 78 -33
85 -23 136 20 96 84 163 177 187 48 12 115 1 162 -26z m-1519 -747 c59 -51
175 -149 258 -217 l150 -124 6 -61 5 -61 -105 -108 c-58 -60 -118 -118 -133
-128 -26 -19 -29 -19 -60 -3 -18 9 -75 44 -125 76 -86 55 -94 63 -107 106 -8
26 -43 142 -79 257 -36 116 -74 243 -85 283 l-20 72 93 0 94 0 108 -92z m-148
-776 c53 -43 134 -107 180 -142 l84 -65 -443 -3 c-244 -1 -445 -1 -446 1 -2 2
19 66 46 142 28 77 50 141 50 142 0 2 97 3 216 3 l217 0 96 -78z m2151 -1364
c195 -190 401 -390 458 -444 l103 -99 -88 -87 -88 -86 -350 335 c-364 350
-1255 1213 -1480 1436 l-130 128 95 89 94 88 516 -507 c283 -279 675 -663 870
-853z m-1360 602 c20 -10 50 -34 65 -52 15 -18 118 -214 228 -436 138 -279
209 -410 229 -427 65 -55 156 -53 223 6 42 37 59 85 53 154 l-4 52 20 -22 c12
-13 152 -145 311 -295 160 -150 328 -310 375 -354 197 -188 195 -186 242 -186
62 1 87 15 183 103 l85 79 135 -127 c74 -70 135 -131 135 -136 0 -8 -685 -465
-738 -493 -25 -13 -38 -13 -95 -1 -101 21 -326 99 -430 149 -249 120 -498 324
-720 594 -153 185 -239 335 -447 782 -169 363 -176 385 -161 455 34 150 179
222 311 155z m-392 -908 c6 -21 34 -82 62 -136 28 -54 48 -101 45 -105 -9 -9
-815 -14 -902 -6 l-72 7 43 86 c24 48 54 111 66 140 l22 52 363 0 362 0 11
-38z m309 -569 c177 -252 238 -368 231 -438 -11 -90 -84 -141 -166 -117 -21 7
-46 20 -54 29 -31 35 -238 484 -238 516 0 47 34 95 83 117 23 11 45 20 48 20
3 0 46 -57 96 -127z m-1249 89 c17 -16 35 -47 42 -72 11 -42 11 -45 -61 -189
-39 -80 -94 -192 -121 -249 -53 -110 -74 -131 -136 -139 -68 -9 -126 36 -142
110 -10 50 5 78 116 220 58 73 137 180 176 240 40 59 77 107 84 107 7 0 25
-13 42 -28z m592 -77 c60 -31 65 -53 68 -339 3 -221 1 -266 -13 -303 -39 -102
-164 -111 -226 -17 -17 27 -19 51 -19 302 0 302 2 315 63 352 38 24 87 26 127
5z m3600 -549 c71 -120 130 -221 130 -226 0 -7 -259 -180 -645 -431 -88 -57
-221 -145 -296 -195 l-135 -91 -131 216 c-72 119 -133 222 -135 230 -3 15
1063 733 1074 722 4 -3 66 -104 138 -225z m-6656 -127 c292 -194 533 -354 536
-356 3 -3 -8 -28 -24 -56 -25 -46 -225 -387 -232 -396 -3 -3 -172 104 -424
269 -128 84 -246 161 -496 323 -61 40 -126 84 -144 98 l-33 25 30 45 c16 24
72 114 122 199 116 194 120 200 128 200 3 0 245 -158 537 -351z m4844 -240
c50 -18 92 -36 92 -40 0 -12 -188 -114 -320 -174 -351 -160 -713 -261 -1120
-312 -206 -25 -827 -25 -1010 0 -507 71 -922 198 -1290 395 -69 37 -134 71
-145 75 -16 7 -3 14 65 36 138 46 230 85 312 132 l46 28 119 -54 c687 -306
1595 -366 2359 -155 142 39 398 131 499 178 l80 38 110 -56 c60 -31 152 -72
203 -91z"/>
<path d="M6775 8456 c-74 -23 -121 -54 -177 -115 -98 -106 -138 -227 -138
-419 0 -123 14 -187 64 -288 49 -98 104 -157 183 -196 86 -42 206 -50 297 -20
l58 20 54 -49 c59 -53 81 -59 139 -35 45 19 75 69 75 124 0 38 -5 48 -46 87
l-46 45 26 52 c46 95 59 169 54 308 -5 129 -16 177 -65 275 -28 58 -101 136
-158 169 -89 53 -229 71 -320 42z m177 -271 c20 -13 45 -44 57 -68 40 -83 45
-239 11 -342 -11 -33 -13 -34 -33 -20 -52 36 -122 -1 -129 -68 l-3 -32 -41 41
c-67 67 -95 184 -75 314 14 88 43 146 90 177 44 30 77 29 123 -2z"/>
<path d="M3080 8382 c-60 -62 -291 -387 -306 -431 -7 -20 -8 -46 -4 -62 9 -31
310 -421 343 -444 55 -38 66 -32 477 245 251 170 271 190 254 259 -10 41 -48
73 -236 199 -68 46 -188 128 -267 183 -176 121 -191 124 -261 51z"/>
<path d="M4315 8386 c-122 -55 -125 -223 -5 -283 l44 -23 807 0 806 0 44 23
c110 58 118 195 15 271 -27 21 -37 21 -854 23 -674 2 -833 0 -857 -11z"/>
<path d="M4310 7748 c-33 -17 -51 -35 -68 -68 -39 -76 -20 -151 52 -204 27
-21 37 -21 854 -23 l827 -3 39 23 c61 35 81 69 81 137 0 63 -16 95 -69 134
-27 21 -37 21 -849 24 l-822 2 -45 -22z"/>
<path d="M1555 9350 c-47 -31 -65 -74 -65 -156 0 -39 -3 -86 -6 -103 l-6 -31
-100 0 c-115 0 -157 -14 -188 -65 -32 -51 -35 -87 -12 -139 28 -62 69 -86 147
-86 33 0 84 -3 113 -6 l52 -7 0 -84 c0 -134 43 -193 141 -193 97 0 140 57 147
193 l4 87 62 2 c157 4 190 14 225 71 30 49 28 112 -5 161 -36 52 -75 66 -189
66 l-95 0 0 93 c0 110 -21 166 -72 197 -43 26 -113 26 -153 0z"/>
<path d="M8375 9351 c-52 -36 -65 -73 -65 -188 l0 -103 -102 0 c-115 0 -156
-14 -192 -63 -29 -40 -29 -125 0 -164 38 -50 69 -61 186 -65 l108 -3 0 -85 c0
-100 17 -142 70 -178 66 -45 168 -14 204 62 11 23 16 61 16 120 l0 86 106 0
c122 0 149 11 183 70 27 48 26 95 -2 144 -34 60 -74 76 -189 76 l-98 0 0 100
c0 108 -9 137 -54 179 -37 35 -128 41 -171 12z"/>
</g>
</svg>
