<?xml version="1.0" standalone="no"?>
<!DOCTYPE svg PUBLIC "-//W3C//DTD SVG 20010904//EN"
 "http://www.w3.org/TR/2001/REC-SVG-20010904/DTD/svg10.dtd">
<svg version="1.0" xmlns="http://www.w3.org/2000/svg"
 width="1024.000000pt" height="1024.000000pt" viewBox="0 0 1024.000000 1024.000000"
 preserveAspectRatio="xMidYMid meet">
<metadata>
Created by potrace 1.16, written by Peter Selinger 2001-2019
</metadata>
<g transform="translate(0.000000,1024.000000) scale(0.100000,-0.100000)"
fill="#000000" stroke="none">
<path d="M2622 8809 c-374 -44 -696 -288 -827 -628 -70 -180 -65 36 -65 -3065
0 -1887 4 -2822 11 -2866 15 -94 69 -247 119 -334 57 -99 169 -228 255 -294
93 -71 248 -146 370 -180 l100 -27 2485 -3 c2250 -3 2494 -1 2585 13 402 65
701 324 822 712 l28 88 3 2395 c3 2671 9 2449 -66 2593 -46 90 -68 113 -562
602 -650 643 -820 808 -879 854 -72 56 -155 97 -250 124 l-76 22 -1990 1
c-1094 1 -2023 -2 -2063 -7z m3660 -1026 c-3 -421 5 -545 45 -658 79 -223 276
-403 512 -467 71 -20 107 -22 531 -26 l455 -4 -2 -1606 c-2 -884 -4 -1843 -5
-2132 l-3 -525 -26 -55 c-53 -110 -123 -175 -226 -209 l-63 -21 -2397 2 -2398
3 -62 29 c-101 46 -183 145 -213 255 -8 33 -12 503 -14 1855 -2 996 -1 1931 2
2079 l5 267 1626 -2 1626 -1 58 22 c291 114 321 480 49 613 l-67 33 -1648 3
-1648 2 3 323 3 322 33 67 c41 83 99 134 191 165 l66 22 1785 1 1785 0 -3
-357z m943 -233 l220 -220 -222 0 -222 0 -3 220 c-2 121 -1 220 2 220 3 0 104
-99 225 -220z"/>
<path d="M2862 7867 c-47 -18 -97 -60 -115 -100 -21 -42 -22 -126 -3 -170 15
-36 65 -83 105 -99 32 -12 624 -17 668 -6 18 5 46 20 63 35 100 84 91 241 -19
318 l-43 30 -311 2 c-224 1 -321 -1 -345 -10z"/>
<path d="M4067 7866 c-132 -48 -175 -232 -75 -322 59 -54 51 -53 408 -60 374
-7 398 -4 460 52 94 85 78 238 -32 312 l-41 27 -341 2 c-271 2 -349 0 -379
-11z"/>
<path d="M3239 6097 c-152 -43 -243 -161 -244 -318 0 -120 -8 -111 668 -788
334 -336 607 -612 607 -616 0 -3 -271 -277 -602 -610 -693 -696 -673 -671
-672 -824 0 -109 23 -159 105 -236 74 -68 138 -90 243 -83 132 9 111 -9 766
652 897 906 884 892 904 954 27 81 20 251 -14 315 -17 32 -198 222 -570 600
-300 303 -622 630 -714 725 -139 141 -181 178 -233 204 -73 36 -170 46 -244
25z"/>
<path d="M6824 6096 c-28 -7 -71 -24 -95 -38 -67 -39 -1470 -1464 -1497 -1520
-18 -37 -22 -62 -22 -149 0 -114 11 -167 44 -214 11 -18 345 -361 741 -763
518 -526 734 -739 770 -759 45 -25 59 -28 150 -28 90 0 105 3 152 27 161 85
222 278 141 446 -17 35 -172 198 -631 659 -335 336 -608 616 -606 621 2 6 279
287 615 625 568 571 613 619 633 671 13 36 21 80 21 120 0 128 -98 256 -227
296 -73 23 -115 24 -189 6z"/>
</g>
</svg>
